<svg width="24" height="24" viewBox="0 0 24 24" fill="none" xmlns="http://www.w3.org/2000/svg">
<g filter="url(#filter0_i_4235_47975)">
<path fill-rule="evenodd" clip-rule="evenodd" d="M10.5658 5.28523C9.94224 4.21303 8.38328 4.21303 7.7597 5.28523L0.963613 16.9706C0.340029 18.0428 1.11951 19.383 2.36667 19.383H7.67275C7.13937 18.9173 6.94172 18.1113 7.34516 17.4198L12.492 8.59717L10.5658 5.28523Z" fill="url(#paint0_linear_4235_47975)"/>
</g>
<g filter="url(#filter1_i_4235_47975)">
<path d="M14.8724 7.84825C15.3885 6.97099 16.6786 6.97099 17.1947 7.84825L22.819 17.409C23.3351 18.2862 22.69 19.3828 21.6579 19.3828H10.4092C9.37705 19.3828 8.73197 18.2862 9.24804 17.409L14.8724 7.84825Z" fill="url(#paint1_linear_4235_47975)"/>
</g>
<defs>
<filter id="filter0_i_4235_47975" x="0.744141" y="3.48108" width="11.748" height="15.902" filterUnits="userSpaceOnUse" color-interpolation-filters="sRGB">
<feFlood flood-opacity="0" result="BackgroundImageFix"/>
<feBlend mode="normal" in="SourceGraphic" in2="BackgroundImageFix" result="shape"/>
<feColorMatrix in="SourceAlpha" type="matrix" values="0 0 0 0 0 0 0 0 0 0 0 0 0 0 0 0 0 0 127 0" result="hardAlpha"/>
<feOffset dy="-1"/>
<feGaussianBlur stdDeviation="2"/>
<feComposite in2="hardAlpha" operator="arithmetic" k2="-1" k3="1"/>
<feColorMatrix type="matrix" values="0 0 0 0 1 0 0 0 0 1 0 0 0 0 1 0 0 0 0.55 0"/>
<feBlend mode="normal" in2="shape" result="effect1_innerShadow_4235_47975"/>
</filter>
<filter id="filter1_i_4235_47975" x="9.06641" y="6.19031" width="13.9346" height="13.1925" filterUnits="userSpaceOnUse" color-interpolation-filters="sRGB">
<feFlood flood-opacity="0" result="BackgroundImageFix"/>
<feBlend mode="normal" in="SourceGraphic" in2="BackgroundImageFix" result="shape"/>
<feColorMatrix in="SourceAlpha" type="matrix" values="0 0 0 0 0 0 0 0 0 0 0 0 0 0 0 0 0 0 127 0" result="hardAlpha"/>
<feOffset dy="-1"/>
<feGaussianBlur stdDeviation="2"/>
<feComposite in2="hardAlpha" operator="arithmetic" k2="-1" k3="1"/>
<feColorMatrix type="matrix" values="0 0 0 0 1 0 0 0 0 1 0 0 0 0 1 0 0 0 0.55 0"/>
<feBlend mode="normal" in2="shape" result="effect1_innerShadow_4235_47975"/>
</filter>
<linearGradient id="paint0_linear_4235_47975" x1="9.20257" y1="6.57502" x2="1.70832" y2="19.896" gradientUnits="userSpaceOnUse">
<stop stop-color="white"/>
<stop offset="1" stop-color="#00BD6F"/>
</linearGradient>
<linearGradient id="paint1_linear_4235_47975" x1="19.099" y1="8.90353" x2="14.2595" y2="21.374" gradientUnits="userSpaceOnUse">
<stop stop-color="white"/>
<stop offset="1" stop-color="#00BD6F"/>
</linearGradient>
</defs>
</svg>
