<svg xmlns="http://www.w3.org/2000/svg" viewBox="0 0 80 80" fill="none"><path fill="#173CF3" d="M0 27.733C0 14.66 0 8.123 4.061 4.061 8.123 0 14.66 0 27.733 0h24.534c13.073 0 19.61 0 23.672 4.061C80 8.123 80 14.66 80 27.733v24.534c0 13.073 0 19.61-4.061 23.672C71.877 80 65.34 80 52.267 80H27.733c-13.073 0-19.61 0-23.672-4.061C0 71.877 0 65.34 0 52.267V27.733Z"/><path fill="#fff" d="M40 20c-10.93 0-19.84 8.813-19.998 19.705-.16 11.063 8.815 20.23 19.88 20.294 3.416.02 6.707-.816 9.63-2.404a.469.469 0 0 0 .086-.762l-1.871-1.66a1.319 1.319 0 0 0-1.39-.233 16.164 16.164 0 0 1-6.54 1.284c-8.94-.11-16.164-7.548-16.021-16.488.14-8.826 7.364-15.964 16.223-15.964h16.227v28.842l-9.207-8.18a.68.68 0 0 0-.994.105 7.538 7.538 0 0 1-6.558 2.989c-3.71-.256-6.714-3.242-6.992-6.95-.332-4.421 3.172-8.125 7.525-8.125 3.937 0 7.18 3.03 7.518 6.88.03.343.185.663.442.89l2.398 2.126c.272.241.704.094.77-.264.173-.924.234-1.888.166-2.876-.387-5.63-4.947-10.16-10.581-10.508-6.458-.398-11.858 4.655-12.03 10.988-.167 6.172 4.89 11.493 11.063 11.629a11.259 11.259 0 0 0 6.896-2.158L58.67 59.824a.8.8 0 0 0 1.33-.599V20.76a.76.76 0 0 0-.76-.759H40Z"/></svg>
