<svg xmlns="http://www.w3.org/2000/svg" width="90" height="90" fill="none" viewBox="0 0 90 90"><g clip-path="url(#a)"><path fill="#fff" d="M0 31.1996C0 16.4925 0 9.13837 4.56862 4.56862 9.13837 0 16.4925 0 31.1996 0h27.6008c14.7071 0 22.0612 0 26.631 4.56862C90 9.13837 90 16.4925 90 31.1996v27.6008c0 14.7071 0 22.0612-4.5686 26.631C80.8616 90 73.5075 90 58.8004 90H31.1996c-14.7071 0-22.06123 0-26.63098-4.5686C0 80.8616 0 73.5075 0 58.8004V31.1996Z"/><g clip-path="url(#b)"><path fill="url(#c)" d="M30.2456 58.2788h15.2063l3.8952 6.8248H18.497l10.8321-18.6862 4.5396-7.8249 3.8972 6.7227-7.5203 12.9636Zm5.6708-23.2251 3.742-6.4549 21.1774 36.5048h-7.4996L35.9164 35.0537Zm5.825-10.0458h7.4899l23.2532 40.0957h-7.4992L41.7414 25.0079Z"/></g></g><defs><clipPath id="a"><path fill="#fff" d="M0 0h90v90H0z"/></clipPath><clipPath id="b"><path fill="#fff" d="M18.4908 25.0079h54v40.099h-54z"/></clipPath><linearGradient id="c" x1="5417.24" x2="889.116" y1="914.009" y2="4307.34" gradientUnits="userSpaceOnUse"><stop stop-color="#F90"/><stop offset="1" stop-color="#FFC300"/></linearGradient></defs></svg>
