<svg xmlns="http://www.w3.org/2000/svg" viewBox="0 0 80 80" fill="none">
  <path fill="#f1f5f9"
    d="M0 27.733C0 14.66 0 8.123 4.061 4.061 8.123 0 14.66 0 27.733 0h24.534c13.073 0 19.61 0 23.672 4.061C80 8.123 80 14.66 80 27.733v24.534c0 13.073 0 19.61-4.061 23.672C71.877 80 65.34 80 52.267 80H27.733c-13.073 0-19.61 0-23.672-4.061C0 71.877 0 65.34 0 52.267V27.733Z" />
  <g clip-path="url(#a)">
    <path fill="#252F3E"
      d="M29.642 39.484c0 .584.063 1.058.174 1.405.126.348.284.727.505 1.137.079.127.11.253.11.363 0 .158-.094.316-.3.474l-.994.663a.757.757 0 0 1-.41.142c-.159 0-.317-.078-.474-.22a4.893 4.893 0 0 1-.569-.743 12.253 12.253 0 0 1-.49-.931c-1.23 1.452-2.778 2.179-4.641 2.179-1.327 0-2.385-.38-3.158-1.137-.774-.758-1.169-1.769-1.169-3.032 0-1.342.474-2.431 1.437-3.252.963-.821 2.242-1.232 3.869-1.232.536 0 1.09.047 1.673.126.585.08 1.185.206 1.816.348V34.62c0-1.2-.253-2.037-.742-2.526-.505-.49-1.358-.727-2.574-.727-.552 0-1.12.064-1.705.206-.584.142-1.153.316-1.705.537a4.54 4.54 0 0 1-.553.205.967.967 0 0 1-.253.047c-.22 0-.331-.158-.331-.49V31.1c0-.253.031-.442.11-.553.08-.11.221-.22.442-.331.553-.284 1.216-.521 1.99-.71a9.571 9.571 0 0 1 2.463-.3c1.88 0 3.253.426 4.137 1.278.868.853 1.31 2.148 1.31 3.884v5.116h.032Zm-6.41 2.4c.52 0 1.058-.095 1.626-.284a3.52 3.52 0 0 0 1.5-1.01c.252-.3.442-.632.537-1.011.095-.379.158-.837.158-1.374v-.663c-.458-.11-.948-.205-1.453-.268a11.89 11.89 0 0 0-1.484-.095c-1.058 0-1.832.205-2.353.631-.52.427-.774 1.027-.774 1.816 0 .742.19 1.295.585 1.674.379.395.931.584 1.658.584ZM35.91 43.59c-.284 0-.473-.048-.6-.158-.126-.095-.236-.316-.331-.616l-3.71-12.206c-.095-.315-.143-.52-.143-.631 0-.253.127-.395.38-.395h1.547c.3 0 .505.048.615.158.127.095.221.316.316.616l2.653 10.452L39.1 30.358c.079-.316.174-.521.3-.616.126-.095.347-.158.632-.158h1.263c.3 0 .505.048.631.158.127.095.237.316.3.616l2.495 10.579 2.732-10.58c.094-.315.205-.52.315-.615.127-.095.332-.158.616-.158h1.469c.252 0 .394.127.394.395 0 .079-.015.158-.031.253a2.253 2.253 0 0 1-.11.394L46.3 42.832c-.095.315-.205.52-.332.615-.126.095-.331.158-.6.158H44.01c-.3 0-.505-.047-.631-.158-.126-.11-.237-.315-.3-.631l-2.447-10.184L38.2 42.8c-.079.316-.174.521-.3.632-.126.11-.347.157-.632.157H35.91Zm20.29.426c-.821 0-1.642-.095-2.432-.284-.789-.19-1.405-.395-1.815-.632-.253-.142-.427-.3-.49-.442a1.114 1.114 0 0 1-.095-.442v-.806c0-.331.127-.489.364-.489.094 0 .19.016.284.047.095.032.237.095.395.158a8.592 8.592 0 0 0 1.736.553c.632.126 1.248.19 1.88.19.994 0 1.768-.174 2.305-.522.536-.347.82-.852.82-1.5 0-.442-.142-.805-.426-1.105-.284-.3-.82-.568-1.594-.821l-2.29-.71c-1.152-.364-2.005-.9-2.526-1.611-.521-.695-.79-1.468-.79-2.29 0-.663.142-1.247.427-1.752a4.06 4.06 0 0 1 1.136-1.295 5.013 5.013 0 0 1 1.643-.82 6.88 6.88 0 0 1 1.99-.27c.346 0 .71.017 1.057.064.363.047.695.11 1.026.174.316.078.616.157.9.252.285.095.506.19.663.284.221.127.38.253.474.395.095.126.142.3.142.521v.742c0 .332-.126.506-.363.506-.126 0-.332-.064-.6-.19-.9-.41-1.91-.616-3.032-.616-.9 0-1.61.142-2.1.442-.489.3-.742.758-.742 1.406 0 .442.158.82.474 1.12.316.3.9.6 1.737.87l2.242.71c1.137.363 1.958.868 2.447 1.515.49.648.727 1.39.727 2.21a4.06 4.06 0 0 1-.41 1.832 4.247 4.247 0 0 1-1.153 1.39c-.49.395-1.074.679-1.753.884a7.506 7.506 0 0 1-2.258.332Z" />
    <path fill="#F90" fill-rule="evenodd"
      d="M59.184 51.69c-5.194 3.836-12.742 5.873-19.231 5.873-9.095 0-17.29-3.363-23.48-8.953-.489-.442-.047-1.042.538-.694 6.694 3.884 14.952 6.237 23.494 6.237 5.763 0 12.095-1.2 17.921-3.664.869-.394 1.61.569.758 1.2Z"
      clip-rule="evenodd" />
    <path fill="#F90" fill-rule="evenodd"
      d="M61.347 49.226c-.663-.852-4.39-.41-6.079-.205-.505.063-.584-.379-.126-.71 2.968-2.085 7.847-1.485 8.416-.79.568.71-.158 5.59-2.937 7.926-.426.363-.837.174-.647-.3.631-1.563 2.037-5.084 1.373-5.92Z"
      clip-rule="evenodd" />
  </g>
  <defs>
    <clipPath id="a">
      <path fill="#f1f5f9" d="M16 29h48v28.737H16z" />
    </clipPath>
  </defs>
</svg>
