<svg width="116" height="116" viewBox="0 0 116 116" fill="none" xmlns="http://www.w3.org/2000/svg">
<path d="M107.998 28.865V86.599L97.296 72.793L91.335 57.734H91.331L96.993 42.462L107.998 28.865Z" fill="#AB2B4A"/>
<path d="M8.004 28.865V86.599L17.464 73.212L24.667 57.734H24.671L17.348 43.05L8.004 28.865Z" fill="#E87A68"/>
<path d="M91.331 57.734L59.816 59.734L24.667 57.734L39.335 28.865L58.001 0L78.297 31.692L91.331 57.734Z" fill="#D74D4E"/>
<path d="M107.998 28.865L91.331 57.734L58.001 0L107.998 28.865Z" fill="#BD3246"/>
<path d="M58.001 0L24.667 57.734L8 28.865L58.001 0Z" fill="#F19175"/>
<path d="M91.331 57.734L79.94 82.662L58.001 115.468L35.424 81.561L24.667 57.734H91.331Z" fill="#CF3942"/>
<path d="M58.001 115.468L8 86.599L24.667 57.734L58.001 115.468Z" fill="#E0625B"/>
<path d="M57.997 115.468L107.998 86.599L91.331 57.734L57.997 115.468Z" fill="#9A244F"/>
</svg>
