<svg xmlns="http://www.w3.org/2000/svg" viewBox="0 0 80 80" fill="none"><path fill="#F4801F" d="M0 27.733C0 14.66 0 8.123 4.061 4.061 8.123 0 14.66 0 27.733 0h24.534c13.073 0 19.61 0 23.672 4.061C80 8.123 80 14.66 80 27.733v24.534c0 13.073 0 19.61-4.061 23.672C71.877 80 65.34 80 52.267 80H27.733c-13.073 0-19.61 0-23.672-4.061C0 71.877 0 65.34 0 52.267V27.733Z"/><path fill="#fff" d="m49.868 52.09.276-.956c.327-1.136.206-2.185-.346-2.958-.515-.712-1.355-1.13-2.384-1.178l-19.464-.247a.378.378 0 0 1-.348-.516.515.515 0 0 1 .45-.345l19.654-.258c2.319-.106 4.855-1.997 5.739-4.306l1.118-2.928a.692.692 0 0 0 .031-.397 12.8 12.8 0 0 0-24.608-1.324 5.76 5.76 0 0 0-9.02 6.035 8.177 8.177 0 0 0-7.876 9.386.379.379 0 0 0 .374.327h35.948a.472.472 0 0 0 .456-.335ZM56.354 38.62a9.96 9.96 0 0 0-.54.015.225.225 0 0 0-.083.018.3.3 0 0 0-.196.206l-.773 2.645c-.33 1.136-.21 2.185.345 2.958a3.003 3.003 0 0 0 2.381 1.178l4.152.258a.371.371 0 0 1 .359.33.387.387 0 0 1-.022.182.516.516 0 0 1-.45.346l-4.312.257c-2.343.109-4.866 1.998-5.75 4.304l-.311.815a.233.233 0 0 0 .203.314H66.21a.4.4 0 0 0 .397-.302A10.655 10.655 0 0 0 56.359 38.62h-.005Z"/></svg>
