<svg width="32" height="41" xmlns="http://www.w3.org/2000/svg"><g fill-rule="nonzero" fill="none"><g fill="#4B25BB"><path d="M8.53 31.5V23.69L.706 31.501zM24.176 31.5h-7.823V8.066h7.823z"/></g><g fill="#FFF"><path d="M24.176 39.31H8.53l7.823-7.812zM8.53 11.969a3.909 3.909 0 0 0 3.911 3.906 3.909 3.909 0 0 0 3.912-3.906 3.909 3.909 0 0 0-3.912-3.906 3.909 3.909 0 0 0-3.911 3.906"/></g><g fill="#40CF9F"><path d="M24.177 31.5H32l-7.823-7.811zM16.353.251l7.823 7.812H8.53zM16.353 31.501H8.53V15.877h7.823z"/></g></g></svg>