<svg xmlns="http://www.w3.org/2000/svg" viewBox="0 0 80 80" fill="none"><path fill="#0069FF" d="M0 27.733C0 14.66 0 8.123 4.061 4.061 8.123 0 14.66 0 27.733 0h24.534c13.073 0 19.61 0 23.672 4.061C80 8.123 80 14.66 80 27.733v24.534c0 13.073 0 19.61-4.061 23.672C71.877 80 65.34 80 52.267 80H27.733c-13.073 0-19.61 0-23.672-4.061C0 71.877 0 65.34 0 52.267V27.733Z"/><g clip-path="url(#a)"><mask id="b" width="668" height="864" x="-116" y="-75" maskUnits="userSpaceOnUse" style="mask-type:luminance"><path fill="#fff" d="M-115.09-74.408h667.081v863.282H-115.09V-74.408Z"/></mask><g fill="#fff" mask="url(#b)"><path d="M40.001 64v-9.294c9.865 0 17.49-9.765 13.726-20.134a13.923 13.923 0 0 0-8.3-8.299c-10.37-3.763-20.13 3.862-20.131 13.724l-.002.004H16c0-15.716 15.183-27.952 31.65-22.81 7.196 2.245 12.914 7.963 15.161 15.16C67.953 48.818 55.715 64 40.001 64Z"/><path fill-rule="evenodd" d="M40.022 54.73h-9.267v-9.266l.002-.002h9.264l.001.002v9.265ZM30.753 61.85h-7.119l-.001-.003v-7.119h7.122v7.12l-.002.001Z" clip-rule="evenodd"/><path fill-rule="evenodd" d="M23.638 54.73H17.67l-.003-.002v-5.965l.003-.005h5.965l.003.002v5.97Z" clip-rule="evenodd"/></g></g><defs><clipPath id="a"><path fill="#fff" d="M16 16h48.002v48H16z"/></clipPath></defs></svg>
