<svg xmlns="http://www.w3.org/2000/svg" viewBox="0 0 80 80" fill="none"><path fill="#6145F5" d="M0 27.733C0 14.66 0 8.123 4.061 4.061 8.123 0 14.66 0 27.733 0h24.534c13.073 0 19.61 0 23.672 4.061C80 8.123 80 14.66 80 27.733v24.534c0 13.073 0 19.61-4.061 23.672C71.877 80 65.34 80 52.267 80H27.733c-13.073 0-19.61 0-23.672-4.061C0 71.877 0 65.34 0 52.267V27.733Z"/><path fill="#fff" fill-rule="evenodd" d="M54.387 43.498a3.465 3.465 0 0 1-.587-.183 1.309 1.309 0 0 1-.308-.198.234.234 0 0 1-.08-.206c.088-.93-.008-1.76.073-2.675.374-3.754 2.735-2.566 4.853-3.175 1.21-.344 2.427-1.019 2.874-2.346a.63.63 0 0 0-.147-.623 27.177 27.177 0 0 0-4.589-4.164 27.492 27.492 0 0 0-19.515-4.663.346.346 0 0 0-.25.528 10.279 10.279 0 0 0 3.233 3.182c.235.146.14.462-.132.396a6.152 6.152 0 0 1-2.184-.953.264.264 0 0 0-.25-.022l-1.238.498a.338.338 0 0 0-.088.572 10.265 10.265 0 0 0 12.045 1.02c.234-.148.608.146.535.41-.125.418-.264.997-.41 1.781-.954 4.787-3.68 4.42-7.06 3.211-6.745-2.448-10.58-.36-13.981-4.494-.242-.293-.66-.388-.938-.146a3.197 3.197 0 0 0 .322 5.11.25.25 0 0 0 .33-.052c.213-.271.381-.44.601-.557.228-.117.345.22.147.388-.726.638-.931 1.4-1.4 2.91-.748 2.354-.433 4.766-3.9 5.397-1.833.095-1.804 1.341-2.471 3.196-.777 2.243-1.789 3.226-3.666 5.19-.264.264-.286.697 0 .939.748.638 1.525.674 2.31.352 1.95-.821 3.453-3.343 4.867-4.978 1.577-1.818 5.36-1.041 8.219-2.823 1.54-.945 2.47-2.155 2.177-3.959-.051-.293.286-.469.403-.197a5.38 5.38 0 0 1 .44 1.612.289.289 0 0 0 .3.257c3.094-.176 7.09 3.233 10.829 4.157.227.058.388-.206.264-.403a6.901 6.901 0 0 1-.975-2.273c-.074-.286.352-.367.498-.103a6.906 6.906 0 0 0 5.543 3.549c.908.073 1.906-.037 2.947-.352 1.246-.374 2.397-.858 3.768-.594a3.886 3.886 0 0 1 2.566 1.576c.828 1.217 2.588 1.54 3.526.264a.609.609 0 0 0 .059-.601c-2.068-4.839-7.31-5.169-9.568-5.755h.008Z" clip-rule="evenodd"/></svg>
