<svg xmlns="http://www.w3.org/2000/svg" viewBox="0 0 80 80" fill="none"><path fill="#fff" d="M0 27.733C0 14.66 0 8.123 4.061 4.061 8.123 0 14.66 0 27.733 0h24.534c13.073 0 19.61 0 23.672 4.061C80 8.123 80 14.66 80 27.733v24.534c0 13.073 0 19.61-4.061 23.672C71.877 80 65.34 80 52.267 80H27.733c-13.073 0-19.61 0-23.672-4.061C0 71.877 0 65.34 0 52.267V27.733Z"/><path fill="#FFA000" d="m23.018 54.694 5.75-36.796a1.062 1.062 0 0 1 1.986-.337l5.947 11.092 2.37-4.513a1.062 1.062 0 0 1 1.88 0L57 54.693H23.02Z"/><path fill="#F57C00" d="m42.885 40.358-6.186-11.713-13.68 26.046 19.866-14.333Z"/><path fill="#FFCA28" d="M57 54.695 52.596 27.44a1.063 1.063 0 0 0-1.797-.574l-27.78 27.827 15.371 8.62c.965.54 2.14.54 3.106 0L57 54.695Z"/><path fill="#fff" fill-opacity=".2" d="M52.595 27.44a1.063 1.063 0 0 0-1.797-.575l-5.514 5.528-4.335-8.254a1.062 1.062 0 0 0-1.88 0l-2.37 4.513-5.947-11.091a1.062 1.062 0 0 0-1.986.34L23.02 54.693H23l.018.021.152.075 27.62-27.652a1.062 1.062 0 0 1 1.8.573l4.367 27.01.042-.027-4.404-27.254ZM23.07 54.642l5.7-36.482a1.062 1.062 0 0 1 1.986-.34L36.7 28.913l2.37-4.514a1.062 1.062 0 0 1 1.88 0l4.248 8.079-22.13 22.165Z"/><path fill="#A52714" d="M41.496 63.053a3.185 3.185 0 0 1-3.106 0l-15.334-8.596-.038.236 15.371 8.618c.966.539 2.141.539 3.107 0l15.503-8.617-.04-.245-15.463 8.604Z" opacity=".2"/><path fill="url(#a)" d="M52.551 27.445a1.056 1.056 0 0 0-1.791-.573l-5.494 5.525-4.32-8.25a1.058 1.058 0 0 0-1.873 0l-2.363 4.51-5.926-11.086a1.057 1.057 0 0 0-1.979.34l-5.727 36.776L38.395 63.3a3.166 3.166 0 0 0 3.095 0l15.45-8.614-4.389-27.242Z"/><defs><linearGradient id="a" x1="21.896" x2="64.153" y1="24.958" y2="47.248" gradientUnits="userSpaceOnUse"><stop stop-color="#fff" stop-opacity=".1"/><stop offset=".14" stop-color="#fff" stop-opacity=".08"/><stop offset=".61" stop-color="#fff" stop-opacity=".02"/><stop offset="1" stop-color="#fff" stop-opacity="0"/></linearGradient></defs></svg>
