<svg xmlns="http://www.w3.org/2000/svg" viewBox="0 0 80 80" fill="none"><path fill="#430098" d="M0 27.733C0 14.66 0 8.123 4.061 4.061 8.123 0 14.66 0 27.733 0h24.534c13.073 0 19.61 0 23.672 4.061C80 8.123 80 14.66 80 27.733v24.534c0 13.073 0 19.61-4.061 23.672C71.877 80 65.34 80 52.267 80H27.733c-13.073 0-19.61 0-23.672-4.061C0 71.877 0 65.34 0 52.267V27.733Z"/><g clip-path="url(#a)"><path fill="#fff" d="M57.246 16a4.312 4.312 0 0 1 4.311 4.24V59.595a4.312 4.312 0 0 1-4.24 4.31l-.07.001H22.753a4.312 4.312 0 0 1-4.311-4.24V20.312A4.312 4.312 0 0 1 22.682 16h34.563Zm0 2.395H22.754c-1.04 0-1.89.834-1.916 1.867v39.333c0 1.04.833 1.89 1.866 1.915l.05.001h34.492c1.04 0 1.89-.833 1.916-1.867V20.312c0-1.057-.859-1.917-1.916-1.917ZM29.221 47.14l5.39 4.79-5.39 4.792v-9.582Zm4.79-23.953v13.6c2.392-.778 5.736-1.624 8.983-1.624 2.961 0 4.734 1.165 5.7 2.141 2.039 2.064 2.087 4.686 2.084 5.036v.01l.001 14.372h-4.79V42.415c-.024-1.119-.563-2.462-2.995-2.462-4.822 0-10.225 2.401-10.386 2.473l-.003.002-3.384 1.533V23.186h4.79Zm16.768 0c-.323 2.721-1.427 5.33-3.593 7.785h-4.79c1.882-2.47 3.064-5.07 3.592-7.785h4.791Z"/></g><defs><clipPath id="a"><path fill="#fff" d="M16 16h48v48H16z"/></clipPath></defs></svg>
