<svg xmlns="http://www.w3.org/2000/svg" viewBox="0 0 80 80" fill="none"><path fill="#FF5069" d="M0 27.733C0 14.66 0 8.123 4.061 4.061 8.123 0 14.66 0 27.733 0h24.534c13.073 0 19.61 0 23.672 4.061C80 8.123 80 14.66 80 27.733v24.534c0 13.073 0 19.61-4.061 23.672C71.877 80 65.34 80 52.267 80H27.733c-13.073 0-19.61 0-23.672-4.061C0 71.877 0 65.34 0 52.267V27.733Z"/><path fill="#fff" d="m16 53.992 8.868-22.69A8.337 8.337 0 0 1 32.633 26h5.346l-8.868 22.69a8.337 8.337 0 0 1-7.765 5.302H16ZM29.01 53.992l8.868-22.69A8.337 8.337 0 0 1 45.643 26h5.346l-8.868 22.69a8.337 8.337 0 0 1-7.765 5.302H29.01ZM42.02 53.992l8.869-22.69A8.337 8.337 0 0 1 58.653 26H64l-8.868 22.69a8.337 8.337 0 0 1-7.765 5.302h-5.346Z"/></svg>
