<svg xmlns="http://www.w3.org/2000/svg" viewBox="0 0 80 80" fill="none"><path fill="#fff" d="M0 27.733C0 14.66 0 8.123 4.061 4.061 8.123 0 14.66 0 27.733 0h24.534c13.073 0 19.61 0 23.672 4.061C80 8.123 80 14.66 80 27.733v24.534c0 13.073 0 19.61-4.061 23.672C71.877 80 65.34 80 52.267 80H27.733c-13.073 0-19.61 0-23.672-4.061C0 71.877 0 65.34 0 52.267V27.733Z"/><g clip-path="url(#a)"><path fill="#1C4746" d="M47.201 47.64h-3.84l-.32-.321V38.33c0-1.6-.63-2.839-2.558-2.882-.992-.026-2.128 0-3.341.048l-.182.186v11.632l-.321.321h-3.84l-.32-.32V31.959l.32-.32h8.642a6.08 6.08 0 0 1 6.08 6.08v9.6l-.32.32Z"/><path fill="#55BAB9" d="M27.134 56.147h-.528l-2.64-2.64v-.528l4.035-4.035h2.796l.372.373v2.795l-4.035 4.035ZM23.966 26.294v-.528l2.64-2.64h.528l4.035 4.035v2.796l-.372.372H28l-4.035-4.035ZM27.68 41.884H12.32l-.32-.32v-3.85l.32-.32h15.36l.321.32v3.85l-.32.32ZM67.684 41.884h-15.36l-.32-.32v-3.85l.32-.32h15.36l.32.32v3.85l-.32.32ZM37.788 26.84V15.32l.32-.32h3.849l.32.32v11.52l-.32.321h-3.849l-.32-.32ZM37.788 63.957v-11.52l.32-.32h3.849l.32.32v11.52l-.32.32h-3.849l-.32-.32Z"/></g><defs><clipPath id="a"><path fill="#fff" d="M12 15h56v49.438H12z"/></clipPath></defs></svg>
