<svg width="34" height="23" viewBox="0 0 34 23" fill="none" xmlns="http://www.w3.org/2000/svg">
<path d="M22.5458 10.9262L20.1825 11.5047L18.8355 9.16254L18.0024 7.71976L17.0636 6.10836L14.8811 2.33514H11.3538L2.52514 17.599L4.29229 20.6438H5.63232V22.986H3.60936C3.40442 22.9854 3.2032 22.9312 3.02574 22.8289C2.84828 22.7266 2.70077 22.5797 2.59789 22.4028L0.157205 18.1869C0.0542176 18.0089 0 17.8069 0 17.6013C0 17.3958 0.0542176 17.1938 0.157205 17.0158L9.66414 0.583198C9.76702 0.406297 9.91453 0.259375 10.092 0.157055C10.2695 0.054735 10.4707 0.000587032 10.6756 0H15.557C15.7619 0.000587032 15.9631 0.054735 16.1406 0.157055C16.3181 0.259375 16.4656 0.406297 16.5685 0.583198L19.7648 6.10367L20.1825 6.8438L21.1213 8.45286L21.539 9.17425L22.5458 10.9262Z" fill="url(#paint0_linear_10574_361)"/>
<path d="M12.7057 16.8916L9.51168 22.4121C9.4091 22.5894 9.26171 22.7368 9.08423 22.8396C8.90675 22.9423 8.70538 22.9968 8.50021 22.9976H5.63241L2.51819 17.6107L4.28534 20.6555H7.80555L11.3398 14.5471L12.7057 16.8916Z" fill="url(#paint1_linear_10574_361)"/>
<path d="M22.5458 12.0903L20.1051 16.3061C20.0025 16.4835 19.8551 16.6309 19.6776 16.7336C19.5001 16.8364 19.2988 16.8909 19.0936 16.8917H16.2399L15.3012 15.2803L14.8834 14.5589H18.4036L20.1684 11.5141L19.8328 10.9332H22.5293C22.6322 11.1082 22.6879 11.3068 22.6907 11.5096C22.6936 11.7124 22.6437 11.9125 22.5458 12.0903Z" fill="url(#paint2_linear_10574_361)"/>
<path d="M29.0182 2.34678H25.4839L21.9636 8.45279L20.6166 6.11063L23.8129 0.590156C23.9158 0.413255 24.0633 0.266333 24.2408 0.164013C24.4182 0.061693 24.6195 0.00754504 24.8244 0.00695801H27.6687L29.0182 2.34678Z" fill="url(#paint3_linear_10574_361)"/>
<path d="M33.1441 5.9842L23.6395 22.4145C23.5369 22.5918 23.3895 22.7392 23.212 22.8419C23.0346 22.9447 22.8332 22.9992 22.628 23H17.7466C17.5415 22.9992 17.3401 22.9447 17.1626 22.8419C16.9851 22.7392 16.8378 22.5918 16.7352 22.4145L13.9565 17.613L13.1234 16.1703L12.1847 14.5589L11.767 13.8375L10.7555 12.0879L13.1164 11.5023L14.4658 13.8445L14.8835 14.5659L15.3013 15.2873L16.24 16.8987L16.6554 17.6177L18.0048 19.9599L18.4225 20.6813H21.9427L30.7738 5.41505L29.009 2.37024H27.7018L27.6596 0.0280762H29.6825C29.8875 0.0286632 30.0887 0.0828129 30.2661 0.185133C30.4436 0.287453 30.5911 0.434375 30.694 0.611276L33.1347 4.82717C33.2365 5.0027 33.2909 5.20162 33.2926 5.40445C33.2942 5.60727 33.243 5.80704 33.1441 5.9842Z" fill="url(#paint4_linear_10574_361)"/>
<path d="M14.8881 8.45288L13.1233 11.4977L13.4613 12.0832H10.7624C10.6594 11.9052 10.6052 11.7033 10.6052 11.4977C10.6052 11.2921 10.6594 11.0902 10.7624 10.9121L13.2031 6.69626C13.3059 6.51858 13.4537 6.37097 13.6316 6.2682C13.8095 6.16544 14.0114 6.11113 14.2169 6.11072H17.073L18.0117 7.72213L18.4295 8.44351L14.8881 8.45288Z" fill="url(#paint5_linear_10574_361)"/>
<defs>
<linearGradient id="paint0_linear_10574_361" x1="-0.779171" y1="16.5685" x2="19.1466" y2="5.04125" gradientUnits="userSpaceOnUse">
<stop offset="0.2" stop-color="#668CFF"/>
<stop offset="0.49" stop-color="#00AAFF"/>
<stop offset="0.8" stop-color="#00BFB5"/>
</linearGradient>
<linearGradient id="paint1_linear_10574_361" x1="4.47777" y1="20.9904" x2="12.4185" y2="16.3955" gradientUnits="userSpaceOnUse">
<stop offset="0.5" stop-color="#668CFF"/>
<stop offset="1" stop-color="#00AAFF" stop-opacity="0"/>
</linearGradient>
<linearGradient id="paint2_linear_10574_361" x1="15.7916" y1="16.1211" x2="23.1041" y2="11.8903" gradientUnits="userSpaceOnUse">
<stop stop-color="#00AAFF" stop-opacity="0"/>
<stop offset="0.4" stop-color="#00BFB5"/>
</linearGradient>
<linearGradient id="paint3_linear_10574_361" x1="20.4382" y1="5.83894" x2="28.379" y2="1.24638" gradientUnits="userSpaceOnUse">
<stop stop-color="#00BFB5" stop-opacity="0"/>
<stop offset="0.5" stop-color="#00CC7C"/>
</linearGradient>
<linearGradient id="paint4_linear_10574_361" x1="14.1443" y1="17.9386" x2="34.0677" y2="6.41374" gradientUnits="userSpaceOnUse">
<stop offset="0.2" stop-color="#00AAFF"/>
<stop offset="0.51" stop-color="#00BFB5"/>
<stop offset="0.8" stop-color="#00CC7C"/>
</linearGradient>
<linearGradient id="paint5_linear_10574_361" x1="10.1968" y1="11.1136" x2="17.5116" y2="6.88043" gradientUnits="userSpaceOnUse">
<stop offset="0.6" stop-color="#00AAFF"/>
<stop offset="1" stop-color="#00BFB5" stop-opacity="0"/>
</linearGradient>
</defs>
</svg>
