<svg viewBox="0 0 260 250" fill="none" xmlns="http://www.w3.org/2000/svg">
<path d="M145.252 205.336H238.188C241.14 205.337 244.04 204.591 246.596 203.175C249.152 201.759 251.275 199.722 252.75 197.269C254.225 194.816 255.001 192.034 255 189.202C254.999 186.37 254.22 183.588 252.743 181.136L190.33 77.4204C188.855 74.9681 186.732 72.9316 184.177 71.5157C181.621 70.0998 178.722 69.3543 175.77 69.3543C172.819 69.3543 169.92 70.0998 167.364 71.5157C164.808 72.9316 162.686 74.9681 161.211 77.4204L145.252 103.958L114.05 52.0649C112.574 49.6128 110.451 47.5766 107.894 46.1609C105.338 44.7453 102.438 44 99.4864 44C96.5347 44 93.6349 44.7453 91.0785 46.1609C88.522 47.5766 86.3989 49.6128 84.9225 52.0649L7.25736 181.136C5.77984 183.588 5.00129 186.37 5 189.202C4.99872 192.034 5.77475 194.816 7.25004 197.269C8.72534 199.722 10.8479 201.759 13.4042 203.175C15.9605 204.591 18.8604 205.337 21.8122 205.336H80.1494C103.263 205.336 120.309 195.595 132.038 176.592L160.514 129.278L175.766 103.958L221.541 180.015H160.514L145.252 205.336ZM79.1984 179.989L38.4864 179.981L99.5136 78.5761L129.964 129.278L109.576 163.167C101.787 175.497 92.9381 179.989 79.1984 179.989Z" stroke="#00DC82" stroke-width="7.4"/>
<path d="M174.479 103.733L208.221 105.648L219.34 125.942L230.46 144.322L222.408 178.785" stroke="#00DC82" stroke-width="5.92"/>
<path d="M5.76562 197.549L38.3577 180.318M38.3577 180.318L33.373 136.666L47.5601 113.308L64.8147 84.5892L98.557 74.2505M38.3577 180.318L55.6123 205.207L77.8515 205.973C77.8515 205.973 88.1848 206.331 94.3393 204.441C100.812 202.454 109.293 199.081 109.293 199.081L111.594 164.235H138.051L131.533 130.156L146.103 103.352L129.232 78.0796L120.413 61.2314L98.557 74.2505M98.557 74.2505L83.9865 50.8927" stroke="#00DC82" stroke-width="5.92"/>
<path d="M131.15 129.006L140.353 113.307L153.006 90.332L176.012 102.968L178.696 70.4204M251.933 181.083H222.408L192.5 203.292L162.976 180.317" stroke="#00DC82" stroke-width="5.92"/>
<path d="M131.15 129.006L140.353 113.307L153.006 90.332L176.012 102.968L178.696 70.4204M251.933 181.083H222.408L192.5 203.292L162.976 180.317" stroke="#00DC82" stroke-width="5.92"/>
</svg>
