<svg width="80" height="80" viewBox="0 0 80 80" fill="none" xmlns="http://www.w3.org/2000/svg">
<g clip-path="url(#clip0_924_443)">
<rect width="80" height="80" fill="#0F172A"/>
<g filter="url(#filter0_f_924_443)">
<rect x="74.72" y="33.7598" width="12.48" height="69.28" transform="rotate(90 74.72 33.7598)" fill="#00DC82"/>
</g>
<rect x="0.16" width="80" height="80" fill="url(#paint0_radial_924_443)" fill-opacity="0.7"/>
<path d="M43.1822 56.9072H62.5723C63.1882 56.9073 63.7932 56.7515 64.3266 56.4557C64.8599 56.1598 65.3027 55.7342 65.6106 55.2218C65.9184 54.7093 66.0803 54.128 66.08 53.5363C66.0797 52.9447 65.9173 52.3635 65.609 51.8513L52.5872 30.1825C52.2794 29.6702 51.8366 29.2447 51.3034 28.9489C50.7702 28.6531 50.1653 28.4973 49.5495 28.4973C48.9338 28.4973 48.3289 28.6531 47.7956 28.9489C47.2624 29.2447 46.8196 29.6702 46.5119 30.1825L43.1822 35.7268L36.6723 24.8851C36.3642 24.3728 35.9213 23.9474 35.3879 23.6517C34.8545 23.3559 34.2495 23.2002 33.6336 23.2002C33.0178 23.2002 32.4128 23.3559 31.8794 23.6517C31.346 23.9474 30.9031 24.3728 30.595 24.8851L14.391 51.8513C14.0827 52.3635 13.9203 52.9447 13.92 53.5363C13.9197 54.128 14.0816 54.7093 14.3894 55.2218C14.6973 55.7342 15.1401 56.1598 15.6734 56.4557C16.2068 56.7515 16.8118 56.9073 17.4277 56.9072H29.5992C34.4216 56.9072 37.978 54.8721 40.4252 50.9018L46.3664 41.0169L49.5486 35.7268L59.0991 51.6171H46.3664L43.1822 56.9072ZM29.4008 51.6116L20.9066 51.6098L33.6393 30.424L39.9924 41.0169L35.7388 48.097C34.1136 50.6731 32.2674 51.6116 29.4008 51.6116Z" fill="url(#paint1_linear_924_443)" fill-opacity="0.15"/>
<path d="M43.1822 56.9072H62.5723C63.1882 56.9073 63.7932 56.7515 64.3266 56.4557C64.8599 56.1598 65.3027 55.7342 65.6106 55.2218C65.9184 54.7093 66.0803 54.128 66.08 53.5363C66.0797 52.9447 65.9173 52.3635 65.609 51.8513L52.5872 30.1825C52.2794 29.6702 51.8366 29.2447 51.3034 28.9489C50.7702 28.6531 50.1653 28.4973 49.5495 28.4973C48.9338 28.4973 48.3289 28.6531 47.7956 28.9489C47.2624 29.2447 46.8196 29.6702 46.5119 30.1825L43.1822 35.7268L36.6723 24.8851C36.3642 24.3728 35.9213 23.9474 35.3879 23.6517C34.8545 23.3559 34.2495 23.2002 33.6336 23.2002C33.0178 23.2002 32.4128 23.3559 31.8794 23.6517C31.346 23.9474 30.9031 24.3728 30.595 24.8851L14.391 51.8513C14.0827 52.3635 13.9203 52.9447 13.92 53.5363C13.9197 54.128 14.0816 54.7093 14.3894 55.2218C14.6973 55.7342 15.1401 56.1598 15.6734 56.4557C16.2068 56.7515 16.8118 56.9073 17.4277 56.9072H29.5992C34.4216 56.9072 37.978 54.8721 40.4252 50.9018L46.3664 41.0169L49.5486 35.7268L59.0991 51.6171H46.3664L43.1822 56.9072ZM29.4008 51.6116L20.9066 51.6098L33.6393 30.424L39.9924 41.0169L35.7388 48.097C34.1136 50.6731 32.2674 51.6116 29.4008 51.6116Z" fill="url(#paint2_linear_924_443)" fill-opacity="0.15"/>
<path d="M43.1822 56.9072H62.5723C63.1882 56.9073 63.7932 56.7515 64.3266 56.4557C64.8599 56.1598 65.3027 55.7342 65.6106 55.2218C65.9184 54.7093 66.0803 54.128 66.08 53.5363C66.0797 52.9447 65.9173 52.3635 65.609 51.8513L52.5872 30.1825C52.2794 29.6702 51.8366 29.2447 51.3034 28.9489C50.7702 28.6531 50.1653 28.4973 49.5495 28.4973C48.9338 28.4973 48.3289 28.6531 47.7956 28.9489C47.2624 29.2447 46.8196 29.6702 46.5119 30.1825L43.1822 35.7268L36.6723 24.8851C36.3642 24.3728 35.9213 23.9474 35.3879 23.6517C34.8545 23.3559 34.2495 23.2002 33.6336 23.2002C33.0178 23.2002 32.4128 23.3559 31.8794 23.6517C31.346 23.9474 30.9031 24.3728 30.595 24.8851L14.391 51.8513C14.0827 52.3635 13.9203 52.9447 13.92 53.5363C13.9197 54.128 14.0816 54.7093 14.3894 55.2218C14.6973 55.7342 15.1401 56.1598 15.6734 56.4557C16.2068 56.7515 16.8118 56.9073 17.4277 56.9072H29.5992C34.4216 56.9072 37.978 54.8721 40.4252 50.9018L46.3664 41.0169L49.5486 35.7268L59.0991 51.6171H46.3664L43.1822 56.9072ZM29.4008 51.6116L20.9066 51.6098L33.6393 30.424L39.9924 41.0169L35.7388 48.097C34.1136 50.6731 32.2674 51.6116 29.4008 51.6116Z" stroke="url(#paint3_linear_924_443)" stroke-width="1.6"/>
<path d="M49.28 35.6802L56.32 36.0802L58.64 40.3202L60.96 44.1602L59.28 51.3602" stroke="url(#paint4_linear_924_443)" stroke-width="1.28"/>
<path d="M14.08 55.2801L20.88 51.6801M20.88 51.6801L19.84 42.5601L22.8 37.6801L26.4 31.6801L33.44 29.5201M20.88 51.6801L24.48 56.8801L29.12 57.0401C29.12 57.0401 31.2759 57.115 32.56 56.7201C33.9104 56.3049 35.68 55.6001 35.68 55.6001L36.16 48.3201H41.68L40.32 41.2001L43.36 35.6001L39.84 30.3201L38 26.8001L33.44 29.5201M33.44 29.5201L30.4 24.6401" stroke="url(#paint5_linear_924_443)" stroke-width="1.28"/>
<path d="M40.24 40.9602L42.16 37.6802L44.8 32.8802L49.6 35.5202L50.16 28.7202M65.44 51.8402H59.28L53.04 56.4802L46.88 51.6802" stroke="#00DC82" stroke-width="1.28"/>
<path d="M40.24 40.9602L42.16 37.6802L44.8 32.8802L49.6 35.5202L50.16 28.7202M65.44 51.8402H59.28L53.04 56.4802L46.88 51.6802" stroke="url(#paint6_linear_924_443)" stroke-width="1.28"/>
<g filter="url(#filter1_f_924_443)">
<path d="M41.28 50.1602C37.6 57.3602 32.1867 57.4135 29.6 57.3602L35.84 55.1202L41.28 50.1602Z" fill="#75EDAE"/>
</g>
<g filter="url(#filter2_f_924_443)">
<path d="M41.28 50.1602C37.6 57.3602 32.1867 57.4135 29.6 57.3602L35.84 55.1202L41.28 50.1602Z" fill="#75EDAE"/>
</g>
<g filter="url(#filter3_f_924_443)">
<path d="M44.32 33.44C46.4 26.8799 52.8 27.5199 53.68 31.3599L49.12 28.7199L44.32 33.44Z" fill="#75EDAE"/>
</g>
<g filter="url(#filter4_f_924_443)">
<path d="M44.3198 32.7999C46.3998 26.2399 53.1999 27.1201 54.0799 31.84L49.1997 28.5599L44.3198 32.7999Z" fill="#75EDAE"/>
</g>
</g>
<defs>
<filter id="filter0_f_924_443" x="-54.72" y="-26.4002" width="189.6" height="132.8" filterUnits="userSpaceOnUse" color-interpolation-filters="sRGB">
<feFlood flood-opacity="0" result="BackgroundImageFix"/>
<feBlend mode="normal" in="SourceGraphic" in2="BackgroundImageFix" result="shape"/>
<feGaussianBlur stdDeviation="30.08" result="effect1_foregroundBlur_924_443"/>
</filter>
<filter id="filter1_f_924_443" x="28.32" y="48.8802" width="14.24" height="9.76703" filterUnits="userSpaceOnUse" color-interpolation-filters="sRGB">
<feFlood flood-opacity="0" result="BackgroundImageFix"/>
<feBlend mode="normal" in="SourceGraphic" in2="BackgroundImageFix" result="shape"/>
<feGaussianBlur stdDeviation="0.64" result="effect1_foregroundBlur_924_443"/>
</filter>
<filter id="filter2_f_924_443" x="28.32" y="48.8802" width="14.24" height="9.76703" filterUnits="userSpaceOnUse" color-interpolation-filters="sRGB">
<feFlood flood-opacity="0" result="BackgroundImageFix"/>
<feBlend mode="normal" in="SourceGraphic" in2="BackgroundImageFix" result="shape"/>
<feGaussianBlur stdDeviation="0.64" result="effect1_foregroundBlur_924_443"/>
</filter>
<filter id="filter3_f_924_443" x="43.04" y="27.201" width="11.92" height="7.51898" filterUnits="userSpaceOnUse" color-interpolation-filters="sRGB">
<feFlood flood-opacity="0" result="BackgroundImageFix"/>
<feBlend mode="normal" in="SourceGraphic" in2="BackgroundImageFix" result="shape"/>
<feGaussianBlur stdDeviation="0.64" result="effect1_foregroundBlur_924_443"/>
</filter>
<filter id="filter4_f_924_443" x="43.0398" y="26.8098" width="12.3201" height="7.26996" filterUnits="userSpaceOnUse" color-interpolation-filters="sRGB">
<feFlood flood-opacity="0" result="BackgroundImageFix"/>
<feBlend mode="normal" in="SourceGraphic" in2="BackgroundImageFix" result="shape"/>
<feGaussianBlur stdDeviation="0.64" result="effect1_foregroundBlur_924_443"/>
</filter>
<radialGradient id="paint0_radial_924_443" cx="0" cy="0" r="1" gradientUnits="userSpaceOnUse" gradientTransform="translate(40.16 43.36) rotate(149.378) scale(25.2862)">
<stop stop-color="#020420"/>
<stop offset="0.408868" stop-color="#020722" stop-opacity="0.768069"/>
<stop offset="1" stop-color="#031327" stop-opacity="0"/>
</radialGradient>
<linearGradient id="paint1_linear_924_443" x1="40" y1="23.2002" x2="40" y2="56.9072" gradientUnits="userSpaceOnUse">
<stop stop-color="#00DC82"/>
<stop offset="0.578116" stop-color="#00DC82" stop-opacity="0"/>
</linearGradient>
<linearGradient id="paint2_linear_924_443" x1="36.4" y1="56.9602" x2="36.48" y2="39.1202" gradientUnits="userSpaceOnUse">
<stop stop-color="#75EDAE"/>
<stop offset="1" stop-color="#75EDAE" stop-opacity="0"/>
</linearGradient>
<linearGradient id="paint3_linear_924_443" x1="40" y1="23.2002" x2="40" y2="56.9072" gradientUnits="userSpaceOnUse">
<stop stop-color="#75EDAE"/>
<stop offset="1" stop-color="#00DC82"/>
</linearGradient>
<linearGradient id="paint4_linear_924_443" x1="55.12" y1="35.6802" x2="55.12" y2="51.3602" gradientUnits="userSpaceOnUse">
<stop stop-color="#75EDAE"/>
<stop offset="1" stop-color="#00DC82"/>
</linearGradient>
<linearGradient id="paint5_linear_924_443" x1="28.72" y1="24.6401" x2="28.72" y2="57.0458" gradientUnits="userSpaceOnUse">
<stop stop-color="#75EDAE"/>
<stop offset="1" stop-color="#00DC82"/>
</linearGradient>
<linearGradient id="paint6_linear_924_443" x1="52.84" y1="28.7202" x2="52.84" y2="56.4802" gradientUnits="userSpaceOnUse">
<stop stop-color="#75EDAE"/>
<stop offset="1" stop-color="#00DC82"/>
</linearGradient>
<clipPath id="clip0_924_443">
<rect width="80" height="80" fill="white"/>
</clipPath>
</defs>
</svg>
