<svg xmlns="http://www.w3.org/2000/svg" viewBox="0 0 80 80" fill="none"><path fill="#F03E2F" d="M0 27.733C0 14.66 0 8.123 4.061 4.061 8.123 0 14.66 0 27.733 0h24.534c13.073 0 19.61 0 23.672 4.061C80 8.123 80 14.66 80 27.733v24.534c0 13.073 0 19.61-4.061 23.672C71.877 80 65.34 80 52.267 80H27.733c-13.073 0-19.61 0-23.672-4.061C0 71.877 0 65.34 0 52.267V27.733Z"/><path fill="#fff" d="M27.703 24.571c0 5.509 3.474 8.778 10.377 10.515l7.337 1.668c6.56 1.463 10.537 5.143 10.537 11.132a11.223 11.223 0 0 1-2.445 7.2c0-5.966-3.132-9.189-10.72-11.132l-7.2-1.6c-5.76-1.303-10.217-4.32-10.217-10.811-.032-2.52.79-4.977 2.33-6.972Z"/><path fill="#F9B1AB" d="M49.006 46.4c3.131 1.989 4.503 4.732 4.503 8.686-2.583 3.245-7.132 5.074-12.48 5.074-9.006 0-15.315-4.343-16.686-11.908h8.64c1.097 3.474 4.046 5.074 8 5.074 4.8 0 7.977-2.514 8.046-6.926M32.206 32.731a9.12 9.12 0 0 1-4.503-8.16c2.514-3.2 6.857-5.188 12.16-5.188 9.143 0 14.468 4.754 15.771 11.428h-8.32c-.914-2.628-3.2-4.685-7.383-4.685-4.48 0-7.542 2.56-7.703 6.628"/></svg>
