<svg width="1024" height="1024" viewBox="0 0 1024 1024" fill="none" xmlns="http://www.w3.org/2000/svg">
<g clip-path="url(#clip0_1_302)">
<rect width="1024" height="1024" rx="150" fill="#FA7216"/>
<path d="M288 333.662H396.886V403.452C396.886 419.008 396.886 453.062 424.998 453.062H626.935L718.742 546.185C719.549 547.286 720.767 548.322 722.189 549.531C727.556 554.095 735.822 561.124 735.822 583.393V689.339H626.935V619.549C626.935 603.993 626.935 569.939 598.824 569.939H395.819L305.08 476.816C304.273 475.715 303.054 474.679 301.632 473.47C296.266 468.906 288 461.877 288 439.608V333.662Z" fill="white"/>
<path d="M396.886 213V333.662L627.469 333.661V213H396.886Z" fill="white"/>
<path d="M395.819 689.339V810H627.469V689.339H395.819Z" fill="white"/>
<path d="M627.469 333.662L626.935 453.062H736L735.822 333.662H627.469Z" fill="white"/>
<path d="M288 569.939V689.339H395.819L395.819 569.939H288Z" fill="white"/>
</g>
<defs>
<clipPath id="clip0_1_302">
<rect width="1024" height="1024" fill="white"/>
</clipPath>
</defs>
</svg>
