<svg xmlns="http://www.w3.org/2000/svg" viewBox="0 0 80 80" fill="none"><path fill="#9EBE59" d="M0 27.733C0 14.66 0 8.123 4.061 4.061 8.123 0 14.66 0 27.733 0h24.534c13.073 0 19.61 0 23.672 4.061C80 8.123 80 14.66 80 27.733v24.534c0 13.073 0 19.61-4.061 23.672C71.877 80 65.34 80 52.267 80H27.733c-13.073 0-19.61 0-23.672-4.061C0 71.877 0 65.34 0 52.267V27.733Z"/><g clip-path="url(#a)"><mask id="b" width="161" height="46" x="20" y="17" maskUnits="userSpaceOnUse" style="mask-type:luminance"><path fill="#fff" d="M180.714 17H20v45.714h160.714V17Z"/></mask><g mask="url(#b)"><path fill="#fff" d="M46.936 22.306s-.504.144-1.333.395a10.473 10.473 0 0 0-.648-1.578c-.936-1.793-2.34-2.76-3.997-2.76-.108 0-.216 0-.36.035-.036-.072-.108-.107-.144-.18-.72-.788-1.657-1.146-2.773-1.11-2.16.071-4.321 1.613-6.05 4.374-1.224 1.936-2.16 4.374-2.412 6.274-2.485.753-4.213 1.29-4.25 1.327-1.26.394-1.296.43-1.44 1.613-.108.897-3.42 26.138-3.42 26.138l27.223 4.697V22.27c-.216 0-.324.035-.396.035Zm-6.302 1.936c-1.44.43-3.025.933-4.573 1.399.432-1.685 1.296-3.37 2.304-4.482.396-.394.937-.86 1.549-1.147.612 1.29.756 3.047.72 4.23Zm-2.953-5.665c.504 0 .936.108 1.297.323-.577.287-1.153.753-1.693 1.29-1.368 1.47-2.413 3.766-2.845 5.953-1.296.394-2.592.788-3.78 1.147.791-3.442 3.708-8.64 7.021-8.712Zm-4.177 19.72c.144 2.295 6.23 2.797 6.59 8.211.252 4.267-2.269 7.17-5.906 7.386-4.393.287-6.806-2.295-6.806-2.295l.936-3.944s2.413 1.829 4.358 1.685c1.26-.071 1.728-1.111 1.692-1.828-.18-3.012-5.15-2.833-5.473-7.78-.288-4.16 2.448-8.355 8.498-8.749 2.34-.143 3.53.43 3.53.43l-1.37 5.163s-1.548-.717-3.384-.573c-2.665.179-2.701 1.864-2.665 2.294Zm8.57-14.485c0-1.076-.144-2.617-.648-3.908 1.657.323 2.449 2.151 2.809 3.263a61.5 61.5 0 0 0-2.16.645ZM48.16 61.46l11.307-2.797s-4.861-32.735-4.897-32.95a.419.419 0 0 0-.396-.36c-.18 0-3.35-.07-3.35-.07S48.88 23.417 48.16 22.7v38.758Z"/><path fill="#9EBE59" d="m40.893 31.438-1.382 5.154s-1.543-.704-3.375-.576c-2.7.16-2.7 1.856-2.7 2.273.16 2.304 6.235 2.817 6.589 8.227.257 4.258-2.25 7.17-5.914 7.395-4.372.224-6.783-2.337-6.783-2.337l.933-3.938s2.442 1.825 4.371 1.697a1.7 1.7 0 0 0 1.671-1.825c-.192-3.009-5.142-2.817-5.464-7.779-.257-4.162 2.475-8.355 8.518-8.74 2.346-.16 3.536.449 3.536.449Z"/></g></g><defs><clipPath id="a"><path fill="#fff" d="M20 17h40v45.714H20z"/></clipPath></defs></svg>
