<svg xmlns="http://www.w3.org/2000/svg" viewBox="0 0 80 80" fill="none"><path fill="#FC0" d="M0 27.733C0 14.66 0 8.123 4.061 4.061 8.123 0 14.66 0 27.733 0h24.534c13.073 0 19.61 0 23.672 4.061C80 8.123 80 14.66 80 27.733v24.534c0 13.073 0 19.61-4.061 23.672C71.877 80 65.34 80 52.267 80H27.733c-13.073 0-19.61 0-23.672-4.061C0 71.877 0 65.34 0 52.267V27.733Z"/><path fill="#fff" d="m56.72 26.528-13.36-7.646a6.842 6.842 0 0 0-6.723 0l-13.276 7.646C21.261 27.705 20 29.973 20 32.326v15.377c0 2.436 1.26 4.622 3.361 5.797l13.276 7.647a6.842 6.842 0 0 0 6.722 0l13.276-7.648c2.1-1.175 3.361-3.445 3.361-5.797V32.326c.084-2.353-1.26-4.621-3.277-5.798ZM50.5 32.914c-.336-.336-.84-.504-1.512-.504-2.606 0-6.722-1.008-8.739-3.025-.168-.084-.336-.084-.42 0-2.016 2.017-6.134 3.025-8.738 3.025-.673 0-1.177.168-1.513.504-.336.42-.505 1.009-.589 1.513l23.527 9.495c.42.168.673.588.673 1.008 0 .336.168 2.27-1.092 3.697-.504.588-1.429 1.26-3.026 1.26-2.099 0-4.62.673-6.3 1.68-.673.42-1.177.84-1.43 1.345-.251.42-.672.672-1.26.672-.504 0-1.009-.252-1.176-.672-.84-1.596-4.705-3.025-7.73-3.025-1.597 0-2.521-.672-3.025-1.26-1.429-1.513-1.345-3.53-1.26-3.781.083-.504.503-.925 1.008-.925h.084c.587.085 1.007.589.923 1.177 0 .336 0 1.428.59 2.1.335.337.839.505 1.512.505 2.605 0 6.722 1.008 8.738 3.025.168.084.336.084.42 0 2.017-2.017 6.134-3.025 8.739-3.025.672 0 1.176-.168 1.512-.505.42-.42.505-1.092.589-1.511L27.478 36.19l-.084-.084c-.084-.084-.168-.084-.252-.168 0 0-.084-.084-.084-.168s-.084-.169-.084-.169c0-.083 0-.083-.084-.167 0-.084 0-.084-.084-.168 0-.252-.168-2.269 1.093-3.697.503-.588 1.428-1.26 3.025-1.26 3.025 0 6.89-1.43 7.73-3.025.252-.42.672-.673 1.176-.673.504 0 1.008.252 1.26.673.253.504.757.924 1.428 1.344 1.597.924 4.202 1.681 6.303 1.681 1.596 0 2.52.673 3.025 1.26 1.26 1.43 1.176 3.446 1.092 3.698-.084.504-.505.924-1.008.924h-.084c-.588-.084-1.008-.588-.924-1.176.168-.336.168-1.429-.42-2.1v-.002Z"/></svg>
