<svg width="600" height="462" viewBox="0 0 600 462" fill="none" xmlns="http://www.w3.org/2000/svg">
<path fill-rule="evenodd" clip-rule="evenodd" d="M158.658 365.804C159.081 365.179 159.126 364.372 158.772 363.699C158.418 363.036 157.724 362.622 156.968 362.622C140.964 362.622 78.6126 362.622 37.4668 362.622C27.5238 362.622 17.9893 358.671 10.963 351.634C3.93569 344.597 -0.00863774 335.061 1.42036e-05 325.121C0.0423126 273.334 0.117298 182.729 0.143254 151.169C0.149022 143.815 2.07745 136.595 5.73626 130.212C18.9334 107.217 52.2328 49.1816 69.5732 18.9575C76.3006 7.22929 88.7853 -3.80859e-05 102.303 -3.80859e-05H489.668C497.821 -3.80859e-05 505.329 4.43193 509.281 11.5554C513.231 18.6884 513 27.3978 508.677 34.3097C494.299 57.2951 476.353 85.9908 467.02 100.911C465.751 102.939 465.682 105.496 466.843 107.592C468.002 109.688 470.207 110.985 472.6 110.985C493.291 110.985 536.623 110.985 566.98 110.985C585.217 110.985 600 125.771 600 144.007V310.893C600 329.543 595.274 347.895 586.264 364.218C574.912 384.791 556.491 413.938 544.875 434.991C535.782 451.468 518.452 461.697 499.635 461.697H136.082C127.75 461.697 120.1 457.092 116.198 449.728C112.296 442.374 112.78 433.453 117.456 426.56C133.305 403.19 152.333 375.129 158.658 365.804Z" fill="#E27152"/>
<path fill-rule="evenodd" clip-rule="evenodd" d="M214.689 348.299C207.086 348.299 199.959 352 195.578 358.21C183.496 375.35 158.801 410.381 146.373 428.012C144.921 430.079 144.738 432.77 145.898 435.01C147.059 437.25 149.369 438.654 151.888 438.654C207.541 438.654 423.444 438.654 491.231 438.654C503.726 438.654 515.268 431.972 521.498 421.138C530.369 405.709 545.608 383.281 554.742 367.39C557.01 363.449 557.003 358.594 554.726 354.662C552.447 350.721 548.244 348.299 543.696 348.299C475.163 348.299 267.168 348.299 214.689 348.299Z" fill="#FFFBF9"/>
<path fill-rule="evenodd" clip-rule="evenodd" d="M119.006 251.118C106.226 251.156 94.1695 257.059 86.2972 267.133C75.0612 281.505 58.463 302.741 46.1368 318.507C43.0663 322.429 42.5049 327.764 44.69 332.244C46.8742 336.733 51.4241 339.569 56.4096 339.569H173.704C177.845 330.831 186.654 325.255 196.329 325.255C242.717 325.255 377.819 325.255 423.019 325.255C432.292 325.255 440.899 320.429 445.741 312.517C454.343 298.473 468.089 276.026 476.582 262.154C478.104 259.664 478.161 256.549 476.732 254.011C475.302 251.464 472.61 249.897 469.694 249.906C410.717 250.108 187.67 250.877 119.006 251.118Z" fill="#FFFBF9"/>
<path fill-rule="evenodd" clip-rule="evenodd" d="M479.291 306.52C476.939 310.298 476.82 315.056 478.982 318.949C481.144 322.843 485.246 325.256 489.698 325.256H555.477C560.553 325.256 565.421 323.237 569.01 319.651C572.599 316.056 574.615 311.192 574.615 306.116C574.615 269.345 574.615 189.247 574.615 152.784C574.615 142.421 566.218 134.029 555.859 134.029C495.798 134.029 308.675 134.029 249.005 134.029C237.496 134.029 226.785 139.912 220.611 149.621C209.725 166.752 197.053 194.054 186.334 210.915C184.43 213.905 184.309 217.702 186.018 220.817C187.726 223.932 190.995 225.864 194.545 225.864H485.914C494.703 225.864 502.802 230.632 507.071 238.313C511.34 245.994 511.107 255.387 506.463 262.856C497.209 277.728 486.942 294.224 479.291 306.52Z" fill="#FFFBF9"/>
<path fill-rule="evenodd" clip-rule="evenodd" d="M425.708 110.985C428.228 110.985 430.577 109.707 431.954 107.601C439.229 96.4596 462.713 60.4963 475.544 40.8468C477.245 38.2416 477.383 34.9057 475.901 32.1755C474.419 29.4357 471.557 27.7341 468.444 27.7341C411.9 27.7341 217.397 27.7341 136.485 27.7341C127.003 27.7341 117.91 31.4928 111.204 38.2029C104.5 44.9033 100.733 53.9975 100.733 63.4858C100.733 99.0742 100.733 153.505 100.733 189.92C100.733 199.879 104.811 209.396 112.017 216.27C119.223 223.143 128.927 226.758 138.873 226.287C138.875 226.287 143.559 226.287 143.559 226.287C143.682 225.277 181.398 160.166 202.214 128.241C209.239 117.474 221.226 110.985 234.084 110.985C282.699 110.985 402.234 110.985 425.708 110.985Z" fill="#FFFBF9"/>
</svg>
