<svg xmlns="http://www.w3.org/2000/svg" viewBox="0 0 80 80" fill="none"><path fill="#0AB3AF" d="M0 27.733C0 14.66 0 8.123 4.061 4.061 8.123 0 14.66 0 27.733 0h24.534c13.073 0 19.61 0 23.672 4.061C80 8.123 80 14.66 80 27.733v24.534c0 13.073 0 19.61-4.061 23.672C71.877 80 65.34 80 52.267 80H27.733c-13.073 0-19.61 0-23.672-4.061C0 71.877 0 65.34 0 52.267V27.733Z"/><g clip-path="url(#a)"><path fill="#fff" d="M22.068 20C20.92 20 20 20.918 20 22.02v36.091c0 1.102.92 1.791 2.022 1.791h5.331v7.21l6.618-7.164h24.174c1.103 0 1.792-.689 1.792-1.837V22.066c0-1.102-.643-2.066-1.792-2.066H22.068Z"/><path fill="#0AB3AF" d="M45.868 27.213c.919 0 1.7.184 2.434.597a6.328 6.328 0 0 1 1.838 1.468A6.88 6.88 0 0 1 51.7 33.73c0 1.193-.321 2.34-.918 3.442a5.74 5.74 0 0 1-2.756 2.478c1.47.413 2.618 1.147 3.49 2.202.827 1.102 1.24 2.524 1.24 4.314 0 1.147-.209 2.169-.642 2.937-.46.826-1.148 1.514-1.975 2.019-.873.55-1.837 1.055-2.94 1.284-1.102.276-2.296.505-3.537.505H27.404V27.213h18.464ZM43.23 41.575h-9.205v4.34h8.984c.531 0 1.018-.216 1.416-.564.354-.347.576-.868.576-1.519a2.57 2.57 0 0 0-.487-1.563c-.354-.434-.753-.694-1.284-.694Zm-.752-8.681h-8.453V36.8h8.276c.442 0 .885-.217 1.24-.477.397-.26.575-.825.575-1.563 0-.651-.178-1.129-.487-1.432a1.789 1.789 0 0 0-1.151-.434Z"/></g><defs><clipPath id="a"><path fill="#fff" d="M20 20h40v47.111H20z"/></clipPath></defs></svg>
