<svg xmlns="http://www.w3.org/2000/svg" viewBox="0 0 80 80" fill="none"><g clip-path="url(#a)"><path fill="#4945FF" d="M0 27.733C0 14.66 0 8.123 4.061 4.061 8.123 0 14.66 0 27.733 0h24.534c13.073 0 19.61 0 23.672 4.061C80 8.123 80 14.66 80 27.733v24.534c0 13.073 0 19.61-4.061 23.672C71.877 80 65.34 80 52.267 80H27.733c-13.073 0-19.61 0-23.672-4.061C0 71.877 0 65.34 0 52.267V27.733Z"/><path fill="#fff" fill-rule="evenodd" d="M55.2 24.267H28.267V38H42v13.733h13.733V24.8a.533.533 0 0 0-.533-.533Z" clip-rule="evenodd"/><path fill="#fff" d="M42 38h-.533v.533H42V38Z"/><path fill="#9593FF" d="M28.267 38h13.2c.294 0 .533.239.533.533v13.2H28.8a.533.533 0 0 1-.533-.533V38Z"/><path fill="#9593FF" d="M42 51.733h13.733L42.455 65.012a.267.267 0 0 1-.455-.19V51.734ZM28.267 38h-13.09a.267.267 0 0 1-.188-.455l13.278-13.278V38Z"/></g><defs><clipPath id="a"><path fill="#fff" d="M0 0h80v80H0z"/></clipPath></defs></svg>
