<svg xmlns="http://www.w3.org/2000/svg" viewBox="0 0 80 80" fill="none"><path fill="#635BFF" d="M0 27.733C0 14.66 0 8.123 4.061 4.061 8.123 0 14.66 0 27.733 0h24.534c13.073 0 19.61 0 23.672 4.061C80 8.123 80 14.66 80 27.733v24.534c0 13.073 0 19.61-4.061 23.672C71.877 80 65.34 80 52.267 80H27.733c-13.073 0-19.61 0-23.672-4.061C0 71.877 0 65.34 0 52.267V27.733Z"/><path fill="#fff" fill-rule="evenodd" d="M36.88 31.1c0-1.88 1.54-2.62 4.1-2.62 3.68 0 8.32 1.12 12 3.1V20.22C48.96 18.62 45 18 41 18c-9.82 0-16.34 5.12-16.34 13.68 0 13.34 18.38 11.22 18.38 16.98 0 2.22-1.94 2.94-4.64 2.94-4.02 0-9.14-1.64-13.2-3.86v11.5C29.7 61.18 34.24 62 38.4 62c10.06 0 16.98-4.98 16.98-13.64-.08-14.4-18.5-11.84-18.5-17.26Z" clip-rule="evenodd"/></svg>
