<svg xmlns="http://www.w3.org/2000/svg" viewBox="0 0 80 80" fill="none"><path fill="#FC0" d="M0 27.733C0 14.66 0 8.123 4.061 4.061 8.123 0 14.66 0 27.733 0h24.534c13.073 0 19.61 0 23.672 4.061C80 8.123 80 14.66 80 27.733v24.534c0 13.073 0 19.61-4.061 23.672C71.877 80 65.34 80 52.267 80H27.733c-13.073 0-19.61 0-23.672-4.061C0 71.877 0 65.34 0 52.267V27.733Z"/><path fill="#fff" d="M0 27.733C0 14.66 0 8.123 4.061 4.061 8.123 0 14.66 0 27.733 0h24.534c13.073 0 19.61 0 23.672 4.061C80 8.123 80 14.66 80 27.733v24.534c0 13.073 0 19.61-4.061 23.672C71.877 80 65.34 80 52.267 80H27.733c-13.073 0-19.61 0-23.672-4.061C0 71.877 0 65.34 0 52.267V27.733Z"/><g clip-path="url(#a)"><path fill="url(#b)" d="M43.379 59.471c-1.05 1.322-3.177.598-3.202-1.09l-.37-24.68H56.4c3.006 0 4.682 3.472 2.813 5.827L43.38 59.47Z"/><path fill="url(#c)" fill-opacity=".2" d="M43.379 59.471c-1.05 1.322-3.177.598-3.202-1.09l-.37-24.68H56.4c3.006 0 4.682 3.472 2.813 5.827L43.38 59.47Z"/><path fill="#3ECF8E" d="M36.63 19.76c1.05-1.322 3.177-.598 3.202 1.09l.162 24.68H23.608c-3.006 0-4.682-3.472-2.813-5.826L36.63 19.76Z"/></g><defs><linearGradient id="b" x1="39.807" x2="54.555" y1="39.174" y2="45.359" gradientUnits="userSpaceOnUse"><stop stop-color="#249361"/><stop offset="1" stop-color="#3ECF8E"/></linearGradient><linearGradient id="c" x1="33.268" x2="39.994" y1="30.221" y2="42.883" gradientUnits="userSpaceOnUse"><stop/><stop offset="1" stop-opacity="0"/></linearGradient><clipPath id="a"><path fill="#fff" d="M20 19h40v41.468H20z"/></clipPath></defs></svg>
