<svg xmlns="http://www.w3.org/2000/svg" viewBox="0 0 80 80" fill="none"><path fill="#38BDF8" d="M0 27.733C0 14.66 0 8.123 4.061 4.061 8.123 0 14.66 0 27.733 0h24.534c13.073 0 19.61 0 23.672 4.061C80 8.123 80 14.66 80 27.733v24.534c0 13.073 0 19.61-4.061 23.672C71.877 80 65.34 80 52.267 80H27.733c-13.073 0-19.61 0-23.672-4.061C0 71.877 0 65.34 0 52.267V27.733Z"/><path fill="#fff" fill-rule="evenodd" d="M40 26c-6.4 0-10.4 3.181-12 9.543 2.4-3.181 5.2-4.374 8.4-3.579 1.826.453 3.131 1.77 4.575 3.228 2.353 2.374 5.077 5.122 11.025 5.122 6.4 0 10.4-3.181 12-9.543-2.4 3.181-5.2 4.374-8.4 3.578-1.826-.453-3.131-1.77-4.575-3.227C48.672 28.747 45.949 26 40 26ZM28 40.314c-6.4 0-10.4 3.18-12 9.543 2.4-3.181 5.2-4.374 8.4-3.58 1.826.454 3.131 1.77 4.575 3.229 2.353 2.374 5.076 5.121 11.026 5.121 6.4 0 10.4-3.18 12-9.542C49.6 48.266 46.8 49.46 43.6 48.664c-1.826-.454-3.131-1.771-4.575-3.228-2.353-2.374-5.077-5.122-11.025-5.122Z" clip-rule="evenodd"/></svg>
