<svg xmlns="http://www.w3.org/2000/svg" viewBox="0 0 80 80" fill="none"><path fill="#fff" d="M0 27.733C0 14.66 0 8.123 4.061 4.061 8.123 0 14.66 0 27.733 0h24.534c13.073 0 19.61 0 23.672 4.061C80 8.123 80 14.66 80 27.733v24.534c0 13.073 0 19.61-4.061 23.672C71.877 80 65.34 80 52.267 80H27.733c-13.073 0-19.61 0-23.672-4.061C0 71.877 0 65.34 0 52.267V27.733Z"/><g fill="#464342" clip-path="url(#a)"><path d="M19.412 40c0 8.149 4.736 15.192 11.603 18.529L21.194 31.62A20.51 20.51 0 0 0 19.412 40ZM53.9 38.96c0-2.544-.915-4.306-1.699-5.678-1.043-1.696-2.022-3.132-2.022-4.828 0-1.893 1.436-3.654 3.458-3.654.09 0 .178.011.267.016A20.513 20.513 0 0 0 40 19.412c-7.193 0-13.52 3.69-17.202 9.28.483.014.938.024 1.325.024 2.153 0 5.487-.261 5.487-.261 1.11-.065 1.24 1.565.132 1.696 0 0-1.116.131-2.357.196l7.498 22.301 4.506-13.513-3.208-8.789c-1.109-.065-2.16-.196-2.16-.196-1.109-.065-.979-1.761.13-1.696 0 0 3.401.261 5.424.261 2.153 0 5.487-.26 5.487-.26 1.11-.066 1.241 1.564.132 1.695 0 0-1.117.131-2.356.196l7.44 22.133 2.054-6.863c.89-2.848 1.567-4.893 1.567-6.655Z"/><path d="m40.361 41.8-6.177 17.95a20.588 20.588 0 0 0 12.653-.328 1.818 1.818 0 0 1-.146-.283L40.36 41.8ZM58.066 30.122c.088.655.139 1.36.139 2.117 0 2.089-.39 4.438-1.566 7.374L50.35 57.796c6.121-3.57 10.238-10.2 10.238-17.796 0-3.58-.914-6.946-2.522-9.878Z"/><path d="M40 16c-13.233 0-24 10.766-24 24s10.767 24 24 24 24.002-10.766 24.002-24S53.233 16 40 16Zm0 46.9c-12.626 0-22.9-10.273-22.9-22.9 0-12.627 10.273-22.9 22.9-22.9C52.626 17.1 62.9 27.373 62.9 40c0 12.627-10.273 22.9-22.899 22.9Z"/></g><defs><clipPath id="a"><path fill="#fff" d="M16 16h47.999v48H16z"/></clipPath></defs></svg>
