<svg width="80" height="80" viewBox="0 0 80 80" fill="none"
    xmlns="http://www.w3.org/2000/svg">
    <g>
        <path d="M37.9663 5.35536L14.4716 14.335C13.4471 14.7367 12.5676 15.4381 11.9482 16.3477C11.3288 17.2573 10.9984 18.3326 11 19.433V42.0394L21.7974 35.8343V23.1233L39.8934 16.1801V5C39.2349 5.00142 38.582 5.1218 37.9663 5.35536Z" fill="#7CC7BA"/>
        <path d="M21.9888 55.9808L39.8934 45.6618V33.1968L12.2301 49.1469C11.8577 49.3652 11.5485 49.6763 11.3328 50.0502C11.1172 50.4241 11.0025 50.8476 11 51.2792V59.63C11.0093 60.721 11.3449 61.7843 11.9636 62.6832C12.5822 63.582 13.4557 64.2751 14.4716 64.6733L37.9662 73.6529C38.582 73.8864 39.2349 74.0069 39.8934 74.0084V62.8283L21.9888 55.9808Z" fill="#7CC7BA"/>
        <path d="M67.6388 29.6428C67.9918 29.4406 68.2845 29.1477 68.4865 28.7945C68.6881 28.4412 68.7919 28.0405 68.7869 27.6336V19.4331C68.7887 18.3326 68.4582 17.2573 67.8387 16.3477C67.2194 15.4382 66.3399 14.7367 65.3152 14.335L41.8071 5.35536C41.1955 5.12342 40.5475 5.00306 39.8936 5V16.1801L57.6616 23.014L39.8936 33.2511V45.7158L67.6388 29.6428Z" fill="#6DAEA3"/>
        <path d="M41.8071 73.6526L65.3152 64.673C66.3313 64.2747 67.2048 63.5817 67.8235 62.6828C68.4422 61.784 68.7777 60.7206 68.7869 59.6296V36.791L57.9894 43.0235V55.912L39.8936 62.8277V74.008C40.5475 74.005 41.1955 73.8846 41.8071 73.6526Z" fill="#6DAEA3"/>
    </g>
    <defs>
        <clipPath>
            <rect width="58" height="69.0052" fill="white" transform="translate(11 5)"/>
        </clipPath>
    </defs>
</svg>
