<svg xmlns="http://www.w3.org/2000/svg" width="24" height="24" viewBox="0 0 24 24"><g class="nc-icon-wrapper" fill="currentColor"> <path fill-rule="evenodd" clip-rule="evenodd" d="M8 1V5H6V1H8Z" fill="currentColor"></path> <path fill-rule="evenodd" clip-rule="evenodd" d="M8 19V23H6V19H8Z" fill="currentColor"></path> <path fill-rule="evenodd" clip-rule="evenodd" d="M18 1V5H16V1H18Z" fill="currentColor"></path> <path fill-rule="evenodd" clip-rule="evenodd" d="M18 19V23H16V19H18Z" fill="currentColor"></path> <path fill-rule="evenodd" clip-rule="evenodd" d="M13 1V5H11V1H13Z" fill="currentColor"></path> <path fill-rule="evenodd" clip-rule="evenodd" d="M13 19V23H11V19H13Z" fill="currentColor"></path> <path fill-rule="evenodd" clip-rule="evenodd" d="M23 8L19 8L19 6L23 6L23 8Z" fill="currentColor"></path> <path fill-rule="evenodd" clip-rule="evenodd" d="M5 8L1 8L1 6L5 6L5 8Z" fill="currentColor"></path> <path fill-rule="evenodd" clip-rule="evenodd" d="M23 18L19 18L19 16L23 16L23 18Z" fill="currentColor"></path> <path fill-rule="evenodd" clip-rule="evenodd" d="M5 18L1 18L1 16L5 16L5 18Z" fill="currentColor"></path> <path fill-rule="evenodd" clip-rule="evenodd" d="M23 13L19 13L19 11L23 11L23 13Z" fill="currentColor"></path> <path fill-rule="evenodd" clip-rule="evenodd" d="M5 13L1 13L1 11L5 11L5 13Z" fill="currentColor"></path> <path fill-rule="evenodd" clip-rule="evenodd" d="M3 6C3 4.34315 4.34315 3 6 3H18C19.6569 3 21 4.34315 21 6V18C21 19.6569 19.6569 21 18 21H6C4.34315 21 3 19.6569 3 18V6ZM12 7L13.5 10.5L17 12L13.5 13.5L12 17L10.5 13.5L7 12L10.5 10.5L12 7Z" fill="currentColor"></path> </g></svg>