<svg xmlns="http://www.w3.org/2000/svg" viewBox="0 0 18 18" aria-hidden="true" id="msg-plus">
  <title>msg-plus</title>
  <g fill="none" stroke-linecap="round" stroke-linejoin="round" stroke-width="1.5" stroke="currentColor"><path d="M14.75 12.25V17.25"></path> <path d="M16.2155 9.64111C16.2364 9.42991 16.25 9.2168 16.25 9C16.25 4.9961 13.004 1.75 9 1.75C4.996 1.75 1.75 4.9961 1.75 9C1.75 10.3188 2.10801 11.552 2.72301 12.6169C3.15301 13.4228 2.67 15.3291 1.75 16.25C3 16.3179 4.647 15.7529 5.383 15.2769C5.872 15.5591 6.647 15.9331 7.662 16.125C8.095 16.207 8.543 16.25 9 16.25C9.2167 16.25 9.4299 16.2363 9.6412 16.2156"></path> <path d="M17.25 14.75H12.25"></path></g>
</svg>