<svg width="40" height="40" viewBox="0 0 40 40" fill="none" xmlns="http://www.w3.org/2000/svg">
<path fill-rule="evenodd" clip-rule="evenodd" d="M35.216 7.02016C28.0472 -1.38317 15.4235 -2.38397 7.02016 4.78481C-1.38317 11.9536 -2.38397 24.5773 4.78481 32.9806C11.9536 41.3839 24.5773 42.3847 32.9806 35.216C41.384 28.0472 42.3848 15.4235 35.216 7.02016ZM25.2519 17.5175C26.0227 17.5175 26.5149 18.3527 26.1281 19.0194L26.0169 19.2111L18.469 31.6294C18.3287 31.8602 18.0782 32.001 17.8082 32.001H17.0877C16.594 32.001 16.233 31.5349 16.3567 31.0569L18.4048 23.1384C18.5685 22.5053 18.0906 21.888 17.4367 21.888H14.2908C13.6369 21.888 13.159 21.2708 13.3226 20.6377L16.4131 8.68289C16.5255 8.28056 16.8898 7.99734 17.3075 8.00208C17.3581 8.00266 17.404 8.0035 17.4421 8.0047L20.6103 8.00465C21.2164 8.00436 21.6834 8.53896 21.6017 9.13949L21.5822 9.28246L20.374 16.349C20.2696 16.9598 20.74 17.5175 21.3597 17.5175H25.2519Z" fill="url(#paint0_radial_106_920)"/>
<defs>
<radialGradient id="paint0_radial_106_920" cx="0" cy="0" r="1" gradientUnits="userSpaceOnUse" gradientTransform="translate(4.00008 20.0004) scale(39.0007 397.71)">
<stop stop-color="#31B2F3"/>
<stop offset="0.473958" stop-color="#F27CEC"/>
<stop offset="1" stop-color="#FD6641"/>
</radialGradient>
</defs>
</svg>
