<svg width="300" height="200" viewBox="0 0 300 200" fill="none" xmlns="http://www.w3.org/2000/svg">
<path fill-rule="evenodd" clip-rule="evenodd" d="M20 200H279C282.542 200 285.932 198.756 289 197C292.068 195.244 295.23 193.041 297 190C298.77 186.959 300.002 183.51 300 179.999C299.998 176.488 298.773 173.04 297 170.001L222 41C220.23 37.96 218.067 35.7552 215 34C211.933 32.2448 207.542 31 204 31C200.458 31 197.067 32.2448 194 34C190.933 35.7552 188.77 37.96 187 41L168 74L130 9.99764C128.228 6.95784 126.068 3.75491 123 2C119.932 0.245087 116.542 0 113 0C109.458 0 106.068 0.245087 103 2C99.9323 3.75491 96.7717 6.95784 95 9.99764L2.00001 170.001C0.226985 173.04 0.00154882 176.488 7.60801e-06 179.999C-0.0015336 183.51 0.229654 186.959 2.00001 190C3.77036 193.04 6.93246 195.244 10 197C13.0676 198.756 16.4578 200 20 200ZM204.632 149.542C185.601 148.627 174.698 127.454 185.006 111.43C195.314 95.4072 219.102 96.5513 227.825 113.49C236.547 130.429 223.662 150.458 204.632 149.542ZM129.032 170.492C137.341 186.478 160.159 187.682 170.105 172.66L172.148 169.574C173.856 166.994 172.113 163.535 169.023 163.372L131.086 161.369C127.996 161.206 125.899 164.463 127.326 167.209L129.032 170.492ZM76.425 102.429C87.5373 85.1556 113.182 86.389 122.585 104.649C131.988 122.91 118.098 144.501 97.5822 143.515C77.0667 142.528 65.3128 119.703 76.425 102.429Z" fill="currentColor" />
</svg>
