<svg xmlns="http://www.w3.org/2000/svg" width="75" height="24" fill="none"><g fill="#64748B" clip-path="url(#a)"><path d="M10.68 5.5H.48v3.25h6.65a.74.74 0 0 1 .75.75v5.75H6.46a.74.74 0 0 1-.75-.75v-4.12h-2.8a2.6 2.6 0 0 0-2.6 2.6v2.9a2.6 2.6 0 0 0 2.6 2.61h10.38V8.11a2.6 2.6 0 0 0-2.6-2.6ZM23.03 15.25H21.6a.74.74 0 0 1-.75-.75v-9h-2.8a2.6 2.6 0 0 0-2.6 2.61v7.78a2.6 2.6 0 0 0 2.6 2.6h10.38V.1h-5.41v15.16ZM38.18 15.25h-1.42a.74.74 0 0 1-.75-.75v-9h-5.4V15.9a2.6 2.6 0 0 0 2.6 2.6h4.97v1.63h-7.4v3.78h10.2a2.6 2.6 0 0 0 2.6-2.6V5.5h-5.4v9.75ZM56.13 5.5H45.75V15.9a2.6 2.6 0 0 0 2.6 2.6h10.2v-3.24h-6.64a.74.74 0 0 1-.75-.75V8.75h1.42a.74.74 0 0 1 .75.75v4.12h2.8a2.6 2.6 0 0 0 2.6-2.6v-2.9a2.6 2.6 0 0 0-2.6-2.61ZM71.28 5.5H60.9v13h5.41V8.74h1.42a.75.75 0 0 1 .75.75v9h5.4V8.1a2.6 2.6 0 0 0-2.6-2.6Z"/></g><defs><clipPath id="a"><path fill="#fff" d="M.2 0h73.85v24H.2z"/></clipPath></defs></svg>
