<svg xmlns="http://www.w3.org/2000/svg" width="176" height="24" fill="none"><g fill="#64748B" clip-path="url(#a)"><path d="M1.19 3.82V.32h10.6v3.82L4.42 20.18h7.38v3.5H.28v-3.82L7.76 3.82H1.19ZM16.4 23.68h-3.88L16.82.32h4.98l4.3 23.36h-3.89l-.7-5.18h-4.4l-.71 5.18ZM17.7 15h3.23L19.34 4.98h-.06L17.69 15ZM27.28.32h5.95c4.14 0 6.34 2.27 6.34 7.05v9.26c0 4.78-2.2 7.05-6.34 7.05h-5.95V.32Zm4.01 20.05h1.4c2.13 0 2.87-.8 2.87-3.27V6.9c0-2.46-.74-3.27-2.88-3.27H31.3v16.75ZM41.68 23.68V.32h4.01v23.36h-4ZM53.5 11.84h6.56v11.84h-1.94l-.75-1.75c-1.2 1.42-2.16 2.07-4.04 2.07-3.17 0-5.37-2.26-5.37-5.98V5.98c0-3.3 1.94-5.98 5.88-5.98 4.01 0 6.02 2.91 6.02 6.4v1.5h-3.81c0-3.5-.71-4.4-2.3-4.4-.96 0-1.78.57-1.78 2.55v12c0 1.48.49 2.45 1.88 2.45 1.62 0 2.2-.9 2.2-3.23V15h-2.56v-3.17ZM91.67.32h3.95l-4.89 23.36h-4L81.82.32h3.95l2.91 16.2h.07l2.9-16.2ZM96.08 5.98c0-3.3 1.94-5.98 6.15-5.98 4.2 0 6.14 2.68 6.14 5.98v12.04c0 3.3-1.93 5.98-6.14 5.98-4.22 0-6.15-2.68-6.15-5.98V5.98Zm4.01 11.94c0 1.75.52 2.59 2.14 2.59 1.61 0 2.13-.84 2.13-2.6V6.09c0-1.75-.52-2.59-2.13-2.59-1.62 0-2.14.84-2.14 2.6v11.83ZM110.18 23.68V.32h4.01v19.86h6.3v3.49h-10.3ZM121.86 3.82h-3.89V.32h11.78v3.5h-3.88v19.85h-4V3.82ZM131.93 23.68h-3.88l4.3-23.36h4.99l4.3 23.36h-3.88l-.72-5.18h-4.38l-.73 5.18Zm1.3-8.68h3.23l-1.58-10.02h-.07L133.23 15ZM143.2 23.68V.32h4v23.36h-4ZM153.68 23.68h-4V.32h5.62c4.5 0 6.8 1.91 6.8 6.9 0 3.74-1.46 5.27-2.82 5.88l3.4 10.58h-4.08L155.75 14c-.69.07-1.38.1-2.07.1v9.58Zm0-12.88h1.42c2.17 0 2.98-.8 2.98-3.59 0-2.78-.8-3.59-2.98-3.59h-1.42v7.18ZM164 23.68V.32h10.74v3.5H168v6.01h5.18v3.5H168v6.85h7.18v3.5H164ZM81.21 11.84l-3.3 6.22 3.52 3.58-2.4 2.35-3.02-3.11C75.2 22.4 73.65 24 70.48 24c-4.1 0-6.65-2.59-6.65-5.66 0-3.07 2.44-4.64 4.05-5.58-1.35-1.41-2.06-2.75-2.08-4.32 0-2.7 2.25-4.85 5.12-4.85a4.77 4.77 0 0 1 4.96 4.7c0 2.6-1.94 3.83-3.16 4.55l2.87 2.91 1.92-3.9h3.7Zm-11.2 3.05c-1.5.83-2.38 1.84-2.38 3.12 0 1.54 1.25 2.64 2.93 2.64 1.68 0 2.48-.87 3.12-2.04L70 14.89Zm.9-8.44a1.73 1.73 0 0 0-1.7 1.8c0 1.16.87 2 1.5 2.67 1.16-.76 1.98-1.4 1.98-2.66 0-.97-.66-1.8-1.74-1.8h-.03Z"/></g><defs><clipPath id="a"><path fill="#fff" d="M.28 0H175.2v24H.3z"/></clipPath></defs></svg>
