<svg width="49" height="55" viewBox="0 0 49 55" fill="none" xmlns="http://www.w3.org/2000/svg">
<g filter="url(#filter0_b_4235_46728)">
<path d="M21.2393 53.3861L2.73228 42.1633C1.03598 41.1346 4.32945e-06 39.2948 4.24624e-06 37.311L4.24114e-06 37.1894L-1.55219e-06 17.9922L-1.55722e-06 17.8724C-1.63994e-06 15.9001 1.02349 14.0691 2.70349 13.036L21.2112 1.65403C22.8781 0.62894 24.9359 0.606154 26.6229 1.59411L46.1967 13.0569C47.933 14.0737 49 15.935 49 17.9472L49 18.0731L49 37.1089L49 37.2364C49 39.2599 47.9206 41.1297 46.1683 42.1416L26.5938 53.4449C24.9218 54.4104 22.8918 54.3881 21.2393 53.3861Z" fill="url(#paint0_linear_4235_46728)" fill-opacity="0.3"/>
</g>
<defs>
<filter id="filter0_b_4235_46728" x="-15.0267" y="-14.1578" width="79.0535" height="83.3383" filterUnits="userSpaceOnUse" color-interpolation-filters="sRGB">
<feFlood flood-opacity="0" result="BackgroundImageFix"/>
<feGaussianBlur in="BackgroundImage" stdDeviation="7.51337"/>
<feComposite in2="SourceAlpha" operator="in" result="effect1_backgroundBlur_4235_46728"/>
<feBlend mode="normal" in="SourceGraphic" in2="effect1_backgroundBlur_4235_46728" result="shape"/>
</filter>
<linearGradient id="paint0_linear_4235_46728" x1="24.4711" y1="55" x2="-7.10523" y2="-11.6735" gradientUnits="userSpaceOnUse">
<stop stop-color="#00DC82"/>
<stop offset="0.5" stop-color="#36E4DA"/>
<stop offset="1" stop-color="#0047E1"/>
</linearGradient>
</defs>
</svg>
