<svg xmlns="http://www.w3.org/2000/svg" width="120" height="24" fill="none"><g clip-path="url(#a)"><path fill="#64748B" fill-rule="evenodd" d="M90.62 7.24c-.16-.5-.4-.88-.71-1.11a2 2 0 0 0-1.23-.35 2 2 0 0 0-1.23.35c-.3.23-.55.6-.71 1.11a8.31 8.31 0 0 0-.34 1.97c-.06.97-.09 1.95-.08 2.92 0 1.15.03 2.13.08 2.94.06.8.17 1.46.34 1.97.16.5.4.87.71 1.1a2 2 0 0 0 1.23.35 2 2 0 0 0 1.23-.35c.3-.23.55-.6.71-1.1.17-.5.28-1.16.34-1.97.05-.8.08-1.79.08-2.94s-.03-2.12-.08-2.92a8.32 8.32 0 0 0-.34-1.97Z" clip-rule="evenodd"/><mask id="b" width="52" height="24" x="68" y="0" maskUnits="userSpaceOnUse" style="mask-type:luminance"><path fill="#fff" d="M68.52 23.92h50.85V.15H68.52v23.77Z"/></mask><g mask="url(#b)"><path fill="#64748B" fill-rule="evenodd" d="M112.69 10.93A3.92 3.92 0 0 1 108.77 7a3.92 3.92 0 1 1 7.83 0 3.92 3.92 0 0 1-3.91 3.93Zm-6.12 4.58c0 1.1-.15 1.99-.46 2.7a4.11 4.11 0 0 1-2.96 2.53 10.54 10.54 0 0 1-4.05.02 4.1 4.1 0 0 1-1.74-.78c-.5-.39-.91-.94-1.22-1.66a7.32 7.32 0 0 1-.45-2.8V3.57h3.44V15.5c0 .44.02.83.08 1.2.05.35.16.66.31.93.15.26.36.47.62.62.26.15.6.23.99.23.41 0 .75-.08 1-.23.26-.15.46-.36.6-.62.16-.27.26-.58.32-.94s.08-.75.08-1.19V3.58h3.44V15.5Zm-12.27.22a7.94 7.94 0 0 1-.8 2.8c-.38.77-.99 1.4-1.74 1.8-.77.42-1.8.62-3.08.62-1.29 0-2.31-.2-3.08-.62a4.2 4.2 0 0 1-1.75-1.8 7.96 7.96 0 0 1-.79-2.8c-.12-1.2-.18-2.4-.18-3.6 0-1.3.06-2.48.18-3.58s.38-2.03.79-2.82c.4-.77 1-1.4 1.75-1.83a6.15 6.15 0 0 1 3.08-.66c1.29 0 2.31.22 3.08.66a4.42 4.42 0 0 1 1.75 1.83 8 8 0 0 1 .79 2.82c.12 1.1.17 2.29.17 3.58 0 1.31-.05 2.51-.17 3.6Zm-15.61 4.96h-3.43v-6.73L70.84 3.58h3.87l2.24 6.61H77l2.38-6.61h3.72L78.7 13.95v6.74Zm-10.17 3.23h50.85V.15H68.52v23.77Z" clip-rule="evenodd"/></g><path fill="#64748B" fill-rule="evenodd" d="m113.78 6.74-.84-.85 1.2-1.2a2.73 2.73 0 1 0-1.45 5.04 2.73 2.73 0 0 0 2.3-4.2l-1.2 1.2Zm-77.37.5c-.17-.5-.4-.88-.72-1.11a2 2 0 0 0-1.22-.35 2 2 0 0 0-1.23.35c-.31.23-.55.6-.72 1.11a8.35 8.35 0 0 0-.33 1.97 43.78 43.78 0 0 0 0 5.86c.05.8.16 1.46.33 1.97.17.5.4.87.72 1.1a2 2 0 0 0 1.23.35 2 2 0 0 0 1.22-.35c.31-.23.55-.6.72-1.1.17-.5.28-1.16.33-1.97.06-.8.09-1.79.09-2.94s-.03-2.12-.09-2.92a8.39 8.39 0 0 0-.33-1.97Zm-12.9 6.3c-.23-.2-.52-.35-.82-.42a4.3 4.3 0 0 0-1.05-.12h-1.48v5.15h1.34c.82 0 1.5-.18 2-.55.51-.37.76-1.05.76-2.04 0-.5-.06-.9-.2-1.23-.12-.3-.3-.58-.55-.8m-.28-3.45c.43-.34.65-.92.65-1.73 0-.82-.2-1.4-.6-1.73-.4-.33-1.02-.5-1.88-.5h-1.24v4.48h.98c.95 0 1.65-.17 2.09-.52ZM8.88 6.55l-1.64 7.7h3.33l-1.64-7.7h-.05Z" clip-rule="evenodd"/><mask id="c" width="68" height="24" x="0" y="0" maskUnits="userSpaceOnUse" style="mask-type:luminance"><path fill="#fff" d="M67.34 23.92H.2V.15h67.15v23.77Z"/></mask><g mask="url(#c)"><path fill="#64748B" fill-rule="evenodd" d="M64.2 6.4h-3.73v14.3h-3.43V6.4h-3.72V3.59h10.87V6.4Zm-11.81 9.11c0 1.1-.15 1.99-.46 2.7a4.12 4.12 0 0 1-2.96 2.53 10.52 10.52 0 0 1-4.05.02 4.1 4.1 0 0 1-1.74-.78c-.51-.39-.91-.94-1.22-1.66a7.33 7.33 0 0 1-.45-2.8V3.57h3.44V15.5c0 .44.02.83.08 1.2.05.35.16.66.3.93.16.26.37.47.63.62.26.15.6.23.99.23.41 0 .75-.08 1-.23.25-.15.46-.36.6-.62.16-.27.26-.58.32-.94.05-.36.08-.75.08-1.19V3.58h3.44V15.5Zm-12.3.22a7.95 7.95 0 0 1-.8 2.8c-.38.77-1 1.4-1.75 1.8-.76.42-1.79.62-3.07.62-1.3 0-2.32-.2-3.08-.62a4.2 4.2 0 0 1-1.75-1.8 7.96 7.96 0 0 1-.8-2.8c-.12-1.2-.18-2.4-.17-3.6 0-1.3.06-2.48.18-3.58s.38-2.03.79-2.82c.39-.77 1-1.4 1.75-1.83a6.16 6.16 0 0 1 3.08-.66c1.28 0 2.3.22 3.07.66a4.42 4.42 0 0 1 1.76 1.83 8 8 0 0 1 .78 2.82c.12 1.1.18 2.29.18 3.58 0 1.31-.06 2.51-.18 3.6ZM27.57 17.6c-.17.6-.47 1.14-.9 1.6-.42.45-.96.81-1.64 1.08-.68.28-1.52.41-2.52.41h-5.8V3.58h5.76c.7 0 1.34.07 1.94.21.6.15 1.1.39 1.54.72.43.34.76.78 1 1.34s.36 1.25.36 2.06c0 .93-.22 1.73-.65 2.39a3.23 3.23 0 0 1-1.93 1.35v.05c.95.13 1.71.54 2.27 1.22.55.7.83 1.61.83 2.76a6.9 6.9 0 0 1-.26 1.92Zm-15.62 3.1-.79-3.63H6.64l-.79 3.62H2.27L6.78 3.58h4.25l4.5 17.11h-3.57ZM.19 23.91h67.15V.15H.2v23.77Z" clip-rule="evenodd"/></g></g><defs><clipPath id="a"><path fill="#fff" d="M.19 0h119.25v24H.19z"/></clipPath></defs></svg>
