<svg width="217" height="47" viewBox="0 0 217 47" fill="none" xmlns="http://www.w3.org/2000/svg">
<g clip-path="url(#clip0_816_1695)">
<path d="M97.8812 0.544006C98.1777 0.544006 98.4107 0.631043 98.5801 0.805117C98.7496 0.979192 98.8343 1.21854 98.8343 1.52317V10.1398C98.8343 10.4445 98.7496 10.6838 98.5801 10.8579C98.4107 11.032 98.1777 11.119 97.8812 11.119H87.2065C86.9947 11.119 86.8888 11.2278 86.8888 11.4454V45.2592C86.8888 45.5639 86.804 45.8032 86.6346 45.9773C86.4652 46.1514 86.2322 46.2384 85.9357 46.2384H75.8963C75.5998 46.2384 75.3668 46.1514 75.1974 45.9773C75.028 45.8032 74.9432 45.5639 74.9432 45.2592V11.4454C74.9432 11.2278 74.8373 11.119 74.6255 11.119H64.2685C63.972 11.119 63.739 11.032 63.5696 10.8579C63.4001 10.6838 63.3154 10.4445 63.3154 10.1398V1.52317C63.3154 1.21854 63.4001 0.979192 63.5696 0.805117C63.739 0.631043 63.972 0.544006 64.2685 0.544006H97.8812Z" fill="#64748B"/>
<path d="M115.592 46.1079C115.295 46.1079 115.062 46.0208 114.893 45.8467C114.723 45.6727 114.638 45.4333 114.638 45.1287V30.7023L114.575 30.3106L101.613 1.719L101.486 1.19678C101.486 0.761598 101.761 0.544006 102.312 0.544006H113.241C113.791 0.544006 114.172 0.805117 114.384 1.32734L120.421 16.9287C120.548 17.2333 120.675 17.2333 120.802 16.9287L126.838 1.32734C127.05 0.805117 127.431 0.544006 127.982 0.544006H138.974C139.525 0.544006 139.8 0.761598 139.8 1.19678L139.673 1.719L126.584 30.3106C126.542 30.3977 126.52 30.5282 126.52 30.7023V45.1287C126.52 45.4333 126.436 45.6727 126.266 45.8467C126.097 46.0208 125.864 46.1079 125.567 46.1079H115.592Z" fill="#64748B"/>
<path d="M163.206 0.544006C166.214 0.544006 168.861 1.17502 171.149 2.43706C173.436 3.65558 175.194 5.41808 176.423 7.72455C177.694 9.98751 178.329 12.5986 178.329 15.5579C178.329 18.4736 177.672 21.0412 176.359 23.2607C175.046 25.4801 173.203 27.1991 170.831 28.4176C168.459 29.6361 165.727 30.2454 162.635 30.2454H155.899C155.687 30.2454 155.582 30.3542 155.582 30.5718V45.2592C155.582 45.5639 155.497 45.8032 155.327 45.9773C155.158 46.1514 154.925 46.2384 154.628 46.2384H144.589C144.293 46.2384 144.06 46.1514 143.89 45.9773C143.721 45.8032 143.636 45.5639 143.636 45.2592V1.52317C143.636 1.21854 143.721 0.979192 143.89 0.805117C144.06 0.631043 144.293 0.544006 144.589 0.544006H163.206ZM161.237 20.4537C162.804 20.4537 164.054 20.0403 164.985 19.2134C165.96 18.3431 166.447 17.2116 166.447 15.819C166.447 14.3829 165.96 13.2297 164.985 12.3593C164.054 11.4889 162.804 11.0537 161.237 11.0537H155.899C155.687 11.0537 155.582 11.1625 155.582 11.3801V20.1273C155.582 20.3449 155.687 20.4537 155.899 20.4537H161.237Z" fill="#64748B"/>
<path d="M197.98 46.973C194.938 46.8303 192.213 46.1213 189.805 44.8458C187.136 43.3662 185.06 41.3208 183.578 38.7097C182.095 36.0551 181.354 32.987 181.354 29.5055V17.2333C181.354 13.8389 182.095 10.8361 183.578 8.22502C185.06 5.61391 187.136 3.5903 189.805 2.15419C192.213 0.878744 194.938 0.169676 197.98 0.0269864C198.854 -0.0139774 199.763 -0.00806647 200.628 0.0430874C203.575 0.217427 206.194 0.921127 208.486 2.15419C211.197 3.5903 213.293 5.61391 214.776 8.22502C216.259 10.8361 217 13.8389 217 17.2333V29.5055C217 32.987 216.259 36.0551 214.776 38.7097C213.293 41.3208 211.197 43.3662 208.486 44.8458C206.194 46.0789 203.575 46.7826 200.628 46.9569C199.763 47.0081 198.854 47.014 197.98 46.973ZM200.628 36.3364C201.731 36.0918 202.656 35.5556 203.402 34.7278C204.504 33.5092 205.054 31.8991 205.054 29.8972V17.1028C205.054 15.1009 204.504 13.5125 203.402 12.3375C202.656 11.479 201.731 10.9229 200.628 10.6693C199.767 10.4714 198.85 10.4537 197.98 10.6094C196.763 10.8276 195.732 11.4036 194.888 12.3375C193.829 13.5125 193.3 15.1009 193.3 17.1028V29.8972C193.3 31.8991 193.829 33.5092 194.888 34.7278C195.732 35.6283 196.763 36.1838 197.98 36.3941C198.85 36.5444 199.766 36.5275 200.628 36.3364Z" fill="#64748B"/>
<path d="M16.6263 46.973C13.5837 46.8303 10.8586 46.1213 8.45083 44.8458C5.78215 43.3662 3.70651 41.3208 2.2239 38.7097C0.741301 36.0551 0 32.987 0 29.5055V17.2333C0 13.8389 0.741301 10.8361 2.2239 8.22502C3.70651 5.61391 5.78215 3.5903 8.45083 2.15419C10.8586 0.878744 13.5837 0.169676 16.6263 0.0269864C17.4998 -0.0139774 44.8841 -0.00806647 45.7489 0.0430874C48.696 0.217427 51.3153 0.921127 53.6067 2.15419C56.3177 3.5903 58.4145 5.61391 59.8971 8.22502C61.3797 10.8361 62.121 13.8389 62.121 17.2333V29.5055C62.121 32.987 61.3797 36.0551 59.8971 38.7097C58.4145 41.3208 56.3177 43.3662 53.6067 44.8458C51.3153 46.0789 48.696 46.7826 45.7489 46.9569C44.8841 47.0081 17.4998 47.014 16.6263 46.973ZM45.7489 36.3364C46.8525 36.0918 47.7773 35.5556 48.5234 34.7278C49.6248 33.5092 50.1755 31.8991 50.1755 29.8972V17.1028C50.1755 15.1009 49.6248 13.5125 48.5234 12.3375C47.7773 11.479 46.8525 10.9229 45.7489 10.6693C44.8878 10.4714 17.4956 10.4537 16.6263 10.6094C15.4089 10.8276 14.3782 11.4036 13.534 12.3375C12.475 13.5125 11.9455 15.1009 11.9455 17.1028V29.8972C11.9455 31.8991 12.475 33.5092 13.534 34.7278C14.3782 35.6283 15.4089 36.1838 16.6263 36.3941C17.4963 36.5444 44.8865 36.5275 45.7489 36.3364Z" fill="#64748B"/>
</g>
<defs>
<clipPath id="clip0_816_1695">
<rect width="217" height="47" fill="#64748B"/>
</clipPath>
</defs>
</svg>
