<svg width="720" height="109" viewBox="0 0 720 109" fill="none" xmlns="http://www.w3.org/2000/svg">
<path d="M161.17 69.79V103.08H139.82V7.34003H176.11C183.85 7.38669 189.033 8.70003 191.66 11.28C194.287 13.86 195.597 17.9734 195.59 23.62V46.77C195.699 49.3105 195.07 51.8282 193.78 54.0195C192.49 56.2108 190.594 57.9821 188.32 59.12C187.08 59.65 186.43 60.12 186.39 60.58C186.35 61.04 187.08 61.45 188.32 61.98C193.613 64.6467 196.26 68.7634 196.26 74.33V103.08H174.91V72.33C174.964 71.9903 174.939 71.6425 174.835 71.3145C174.731 70.9864 174.552 70.6872 174.312 70.4405C174.072 70.1938 173.778 70.0066 173.453 69.8936C173.128 69.7807 172.781 69.7452 172.44 69.79H161.17ZM161.17 25.79V51.31H172.44C172.781 51.3548 173.128 51.3193 173.453 51.2064C173.778 51.0935 174.072 50.9062 174.312 50.6596C174.552 50.4129 174.731 50.1136 174.835 49.7856C174.939 49.4575 174.964 49.1098 174.91 48.77V28.29C174.963 27.951 174.936 27.6044 174.831 27.2777C174.726 26.951 174.547 26.6531 174.307 26.4076C174.068 26.1621 173.774 25.9758 173.45 25.8634C173.126 25.751 172.78 25.7156 172.44 25.76L161.17 25.79Z" fill="#64748B"/>
<path d="M258.38 7.34003V25.76H231.82V45.97H254.64V64.39H231.82V84.67H258.38V103.08H210.4V84.67H210.47V7.34003H258.38Z" fill="#64748B"/>
<path d="M282.26 7.34003H316.26L333.61 103.08H312.22L309.08 85H289.4L286.26 103.08H264.91L282.26 7.34003ZM299.26 23.62L292.66 66.62H305.8L299.26 23.62Z" fill="#64748B"/>
<path d="M342.17 7.34003H363.52V84.67H387.68V103.08H342.17V7.34003Z" fill="#64748B"/>
<path d="M427.11 25.76V103.08H405.76V25.76H388.21V7.34003H444.65V25.76H427.11Z" fill="#64748B"/>
<path d="M473.08 69.79V103.08H451.73V7.34003H488C495.74 7.38669 500.923 8.70003 503.55 11.28C506.177 13.86 507.487 17.9734 507.48 23.62V46.77C507.589 49.3105 506.96 51.8282 505.67 54.0195C504.38 56.2108 502.484 57.9821 500.21 59.12C498.96 59.65 498.32 60.12 498.28 60.58C498.24 61.04 498.96 61.45 500.21 61.98C505.497 64.6467 508.143 68.7634 508.15 74.33V103.08H486.82V72.33C486.874 71.9903 486.848 71.6425 486.745 71.3145C486.641 70.9864 486.462 70.6872 486.222 70.4405C485.982 70.1938 485.688 70.0066 485.363 69.8936C485.038 69.7807 484.691 69.7452 484.35 69.79H473.08ZM473.08 25.79V51.31H484.35C484.691 51.3548 485.038 51.3193 485.363 51.2064C485.688 51.0935 485.982 50.9062 486.222 50.6596C486.462 50.4129 486.641 50.1136 486.745 49.7856C486.848 49.4575 486.874 49.1098 486.82 48.77V28.29C486.873 27.951 486.845 27.6044 486.741 27.2777C486.636 26.951 486.457 26.6531 486.217 26.4076C485.978 26.1621 485.684 25.9758 485.36 25.8634C485.036 25.751 484.69 25.7156 484.35 25.76L473.08 25.79Z" fill="#64748B"/>
<path d="M556.87 7.34003H578.22V86.8C578.22 92.36 576.91 96.4767 574.29 99.15C571.67 101.823 566.487 103.133 558.74 103.08H541.26C533.52 103.04 528.34 101.73 525.72 99.15C523.1 96.57 521.787 92.4534 521.78 86.8V7.34003H543.13V82.13C543.13 83.82 543.93 84.67 545.53 84.67H554.41C554.75 84.7131 555.096 84.6763 555.42 84.5627C555.744 84.449 556.036 84.2615 556.275 84.015C556.514 83.7686 556.692 83.4699 556.795 83.1428C556.898 82.8156 556.924 82.4688 556.87 82.13V7.34003Z" fill="#64748B"/>
<path d="M647.74 43.77H627.74V28.29C627.793 27.951 627.766 27.6044 627.661 27.2777C627.556 26.9509 627.377 26.653 627.138 26.4076C626.898 26.1621 626.604 25.9758 626.28 25.8634C625.956 25.751 625.61 25.7156 625.27 25.76H616.4C614.79 25.76 613.99 26.6 613.99 28.29V82.13C613.99 83.82 614.79 84.67 616.4 84.67H625.27C625.611 84.7148 625.958 84.6793 626.283 84.5664C626.608 84.4535 626.902 84.2662 627.142 84.0195C627.382 83.7729 627.561 83.4736 627.665 83.1455C627.769 82.8175 627.794 82.4698 627.74 82.13V66.65H647.74V86.8C647.74 92.36 646.43 96.4767 643.81 99.15C641.19 101.823 636.007 103.133 628.26 103.08H612.12C604.38 103.04 599.197 101.73 596.57 99.15C593.943 96.57 592.633 92.4533 592.64 86.8V23.62C592.64 18.06 593.95 13.9467 596.57 11.28C599.19 8.61333 604.373 7.3 612.12 7.34H628.26C636 7.38666 641.183 8.7 643.81 11.28C646.437 13.86 647.747 17.9733 647.74 23.62V43.77Z" fill="#64748B"/>
<path d="M682.24 60.52V103.08H660.89V7.34003H682.24V47.77L697.05 7.34003H718.66L701.32 54.24L720 103.08H698.38L682.24 60.52Z" fill="#64748B"/>
<path d="M84.7 69.45H115.19V34.66C115.193 30.111 114.299 25.606 112.561 21.4023C110.822 17.1986 108.273 13.3784 105.058 10.16C101.844 6.94148 98.0263 4.38771 93.8246 2.64447C89.6229 0.901216 85.119 0.00262568 80.57 0L12.75 0H0L18.07 22.9H80.34C81.8571 22.8974 83.3599 23.1939 84.7623 23.7727C86.1647 24.3514 87.4392 25.2011 88.5129 26.2729C89.5867 27.3448 90.4385 28.6178 91.0197 30.0192C91.6009 31.4206 91.9 32.9229 91.9 34.44V46.17H36.61L85.61 108.94H115.61L84.7 69.45Z" fill="#64748B"/>
</svg>
