<svg width="484" height="79" viewBox="0 0 484 79" fill="none" xmlns="http://www.w3.org/2000/svg">
<path d="M92.7 1.20001H84.3V68.1H92.7V1.20001Z" fill="#94A3B8"/>
<path d="M478.8 16.9C475.7 11.6 471.4 7.4 466 4.5C460.6 1.5 454.5 0 447.9 0C441.2 0 435.1 1.5 429.8 4.5C424.4 7.5 420.1 11.7 417 17C413.9 22.3 412.3 28.2 412.3 34.7C412.3 41.2 413.9 47.1 417 52.4C420.1 57.7 424.4 61.9 429.8 64.9C435.2 67.9 441.3 69.4 447.9 69.4C454.6 69.4 460.7 67.9 466 64.9C471.4 61.9 475.7 57.7 478.8 52.5C481.9 47.2 483.5 41.2 483.5 34.7C483.5 28.2 481.9 22.2 478.8 16.9ZM471.7 48.5C469.3 52.6 466 55.8 461.9 58.2C457.8 60.5 453.1 61.7 447.9 61.7C442.8 61.7 438 60.5 433.9 58.2C429.8 55.9 426.4 52.6 424.1 48.5C421.7 44.4 420.5 39.8 420.5 34.7C420.5 29.6 421.7 25 424.1 20.9C426.5 16.8 429.8 13.6 433.9 11.2C438.1 8.90001 442.8 7.70001 447.9 7.70001C453 7.70001 457.7 8.90001 461.9 11.2C466 13.5 469.3 16.8 471.7 20.9C474.1 25 475.3 29.6 475.3 34.7C475.3 39.8 474.1 44.4 471.7 48.5Z" fill="#94A3B8"/>
<path d="M35.3 52.6L10.1 1.20001H0L22 47.2C22 47.2 30.1 54.4 35.3 52.6Z" fill="#94A3B8"/>
<path d="M36.6 55C34 59.6 25.8 54.9 25.8 54.9L30 63.7C30 63.7 32.3 68.6 36.5 68.6C40.7 68.6 43 63.7 43 63.7L72.9 1.20001H62.8L36.6 55Z" fill="#94A3B8"/>
<path d="M139.2 52.6L114 1.20001H103.9L125.9 47.2C125.9 47.2 134 54.4 139.2 52.6Z" fill="#94A3B8"/>
<path d="M140.5 55C140.4 55 140.4 55 140.5 55C137.9 59.6 129.7 54.9 129.7 54.9L133.9 63.7C133.9 63.7 136.2 68.6 140.4 68.6C144.6 68.6 146.9 63.7 146.9 63.7L176.8 1.20001H166.7L140.5 55Z" fill="#94A3B8"/>
<path d="M229.9 22.6L207.9 68.6H218L243.2 17.2C238 15.5 229.9 22.6 229.9 22.6Z" fill="#94A3B8"/>
<path d="M196.6 1.20001H188.2V68.1H196.6V1.20001Z" fill="#94A3B8"/>
<path d="M352.3 1.10001V9.39999H376.4V68.2H384.7V9.39999H408.8V1.10001H352.3Z" fill="#94A3B8"/>
<path d="M292.8 47.9V68.2H301.2V50.7C298.8 47.7 292.8 47.9 292.8 47.9Z" fill="#94A3B8"/>
<path d="M350.6 73.1C345.1 73.1 338.9 69.8 331.2 63.2C325.8 58.6 322.3 53.5 316.2 48.2C321.1 48.3 323.9 47.6 325.3 47.2C334.8 44.5 344.3 37.8 344.3 24.9C344.3 9.29999 332.5 1.10001 314.1 1.10001H292.7V36.5C288.6 35.8 285.1 35.7 283.3 35.6C278.2 35.5 271.7 36.3 265.9 37.5L250.8 6C250.8 6 248.5 1.10001 244.3 1.10001C240.1 1.10001 237.8 6 237.8 6L233.6 14.8C233.6 14.8 241.8 10.1 244.4 14.7C244.4 14.7 244.4 14.7 244.4 14.8L256.7 39.9C252.8 41 249.1 42.1 246.1 43.5C243.5 44.7 239 46.5 238.4 48.8C238.1 49.9 238.6 50.4 238.9 50.7C239.9 51.6 242.5 51 245.5 49.7C249.7 47.9 254.2 46.4 259.3 45L270.8 68.5H280.9L268.6 42.9C276.6 41.4 285 40.9 292.8 43.4C308.9 48.5 313.5 58.1 325.1 68.1C334.5 76.2 342.4 78.6 349.2 78.6C355.5 78.6 359.5 76.5 361.9 74.9C363.6 73.8 363.8 72.7 363.4 72.1C361.9 69.7 359.1 73.1 350.6 73.1ZM301.2 38.7V9.39999H314.1C324.7 9.39999 336 12.1 336 24.9C336 37.7 323.6 40.3 312.9 40.3C306.3 40.4 302 38.9 301.2 38.7Z" fill="#94A3B8"/>
</svg>
