<?xml version="1.0" encoding="utf-8"?>
<!-- Generator: Adobe Illustrator 23.0.6, SVG Export Plug-In . SVG Version: 6.00 Build 0)  -->
<svg version="1.1" id="Calque_1" xmlns="http://www.w3.org/2000/svg" xmlns:xlink="http://www.w3.org/1999/xlink" x="0px" y="0px"
	 viewBox="0 0 841.9 595.3" style="enable-background:new 0 0 841.9 595.3;" xml:space="preserve">
<style type="text/css">
	.st0{fill:#020304;}
</style>
<g>
	<rect x="263.6" y="259.7" class="st0" width="8.4" height="66.9"/>
	<path class="st0" d="M658.1,275.4L658.1,275.4c-3.1-5.3-7.4-9.5-12.8-12.4c-5.4-3-11.5-4.5-18.1-4.5c-6.7,0-12.8,1.5-18.1,4.5
		c-5.4,3-9.7,7.2-12.8,12.5s-4.7,11.2-4.7,17.7s1.6,12.4,4.7,17.7c3.1,5.3,7.4,9.5,12.8,12.5c5.4,3,11.5,4.5,18.1,4.5
		c6.7,0,12.8-1.5,18.1-4.5c5.4-3,9.7-7.2,12.8-12.4c3.1-5.3,4.7-11.3,4.7-17.8C662.8,286.7,661.2,280.7,658.1,275.4z M651,307
		c-2.4,4.1-5.7,7.3-9.8,9.7c-4.1,2.3-8.8,3.5-14,3.5c-5.1,0-9.9-1.2-14-3.5s-7.5-5.6-9.8-9.7c-2.4-4.1-3.6-8.7-3.6-13.8
		c0-5.1,1.2-9.7,3.6-13.8c2.4-4.1,5.7-7.3,9.8-9.7c4.2-2.3,8.9-3.5,14-3.5s9.8,1.2,14,3.5c4.1,2.3,7.4,5.6,9.8,9.7
		c2.4,4.1,3.6,8.7,3.6,13.8S653.4,302.9,651,307z"/>
	<path class="st0" d="M214.6,311.1l-25.2-51.4h-10.1l22,46C201.3,305.7,209.4,312.9,214.6,311.1z"/>
	<path class="st0" d="M215.9,313.5C215.9,313.5,215.8,313.5,215.9,313.5c-2.6,4.6-10.8-0.1-10.8-0.1l4.2,8.8c0,0,2.3,4.9,6.5,4.9
		l0,0c4.2,0,6.5-4.9,6.5-4.9l29.9-62.5h-10.1L215.9,313.5z"/>
	<path class="st0" d="M318.5,311.1l-25.2-51.4h-10.1l22,46C305.2,305.7,313.3,312.9,318.5,311.1z"/>
	<path class="st0" d="M319.8,313.5C319.7,313.5,319.7,313.5,319.8,313.5c-2.6,4.6-10.8-0.1-10.8-0.1l4.2,8.8c0,0,2.3,4.9,6.5,4.9
		l0,0c4.2,0,6.5-4.9,6.5-4.9l29.9-62.5H346L319.8,313.5z"/>
	<path class="st0" d="M409.2,281.1l-22,46h10.1l25.2-51.4C417.3,274,409.2,281.1,409.2,281.1z"/>
	<rect x="367.5" y="259.7" class="st0" width="8.4" height="66.9"/>
	<g>
		<polygon class="st0" points="531.6,259.6 531.6,267.9 555.7,267.9 555.7,326.7 564,326.7 564,267.9 588.1,267.9 588.1,259.6 		"/>
		<path class="st0" d="M472.1,306.4v20.3h8.4v-17.5C478.1,306.2,472.1,306.4,472.1,306.4z"/>
		<path class="st0" d="M529.9,331.6c-5.5,0-11.7-3.3-19.4-9.9c-5.4-4.6-8.9-9.7-15-15c4.9,0.1,7.7-0.6,9.1-1c9.5-2.7,19-9.4,19-22.3
			c0-15.6-11.8-23.8-30.2-23.8H472V295c-4.1-0.7-7.6-0.8-9.4-0.9c-5.1-0.1-11.6,0.7-17.4,1.9l-15.1-31.5c0,0-2.3-4.9-6.5-4.9l0,0
			c-4.2,0-6.5,4.9-6.5,4.9l-4.2,8.8c0,0,8.2-4.7,10.8-0.1c0,0,0,0,0,0.1l12.3,25.1c-3.9,1.1-7.6,2.2-10.6,3.6
			c-2.6,1.2-7.1,3-7.7,5.3c-0.3,1.1,0.2,1.6,0.5,1.9c1,0.9,3.6,0.3,6.6-1c4.2-1.8,8.7-3.3,13.8-4.7l11.5,23.5h10.1l-12.3-25.6
			c8-1.5,16.4-2,24.2,0.5c16.1,5.1,20.7,14.7,32.3,24.7c9.4,8.1,17.3,10.5,24.1,10.5c6.3,0,10.3-2.1,12.7-3.7
			c1.7-1.1,1.9-2.2,1.5-2.8C541.2,328.2,538.4,331.6,529.9,331.6z M480.5,297.2v-29.3h12.9c10.6,0,21.9,2.7,21.9,15.5
			s-12.4,15.4-23.1,15.4C485.6,298.9,481.3,297.4,480.5,297.2z"/>
	</g>
</g>
</svg>
