<svg width="99" height="77" viewBox="0 0 99 77" fill="none" xmlns="http://www.w3.org/2000/svg">
<path d="M5.615 2.684L6.182 3.587L1.24 6.618L6.182 9.677L5.552 10.538L0.232 7.213V6.009L5.615 2.684ZM76.3498 2.684L81.7328 6.009V7.213L76.4198 10.538L75.7828 9.67L80.7248 6.618L75.7828 3.573L76.3498 2.684ZM22.4041 23.684L22.9711 24.587L18.0291 27.618L22.9711 30.677L22.3411 31.538L17.0211 28.213V27.009L22.4041 23.684ZM91.0388 22.382L98.5218 27.009V28.213L93.2088 31.538L92.5718 30.67L97.5138 27.618L90.4718 23.271L91.0388 22.382ZM86.0268 33.442L85.0748 33.022L91.0668 20.667L92.0048 21.129L86.0268 33.442ZM22.4041 44.684L22.9711 45.587L18.0291 48.618L22.9711 51.677L22.3411 52.538L17.0211 49.213V48.009L22.4041 44.684ZM91.0388 43.382L98.5218 48.009V49.213L93.2088 52.538L92.5718 51.67L97.5138 48.618L90.4718 44.271L91.0388 43.382ZM86.0268 54.442L85.0748 54.022L91.0668 41.667L92.0048 42.129L86.0268 54.442ZM5.60953 65.684L6.17653 66.587L1.23453 69.618L8.00353 73.797L7.37353 74.658L0.226531 70.213V69.009L5.60953 65.684ZM7.37353 76.079L6.42153 75.652L12.7215 62.667L13.6595 63.129L7.37353 76.079ZM84.7443 65.684L90.1273 69.009V70.213L84.8143 73.538L84.1773 72.67L89.1193 69.618L84.1773 66.573L84.7443 65.684Z" fill="#E1E4E8"/>
<path d="M14.6535 10.629C14.4015 10.797 14.0959 10.9277 13.7365 11.021C13.3772 11.1143 13.0249 11.161 12.6795 11.161C11.8862 11.161 11.2749 10.9533 10.8455 10.538C10.4162 10.1227 10.2015 9.58833 10.2015 8.935V4.539H8.50753V3.629H10.2015V1.956L11.3775 1.816V3.629H13.9255L13.7855 4.539H11.3775V8.921C11.3775 9.33167 11.4849 9.64433 11.6995 9.859C11.9189 10.0737 12.2805 10.181 12.7845 10.181C13.0599 10.181 13.3142 10.1483 13.5475 10.083C13.7809 10.0177 13.9979 9.93367 14.1985 9.831L14.6535 10.629ZM18.1201 7.731C18.1434 8.30033 18.2531 8.767 18.4491 9.131C18.6451 9.49033 18.9041 9.75633 19.2261 9.929C19.5481 10.097 19.8981 10.181 20.2761 10.181C20.6541 10.181 20.9947 10.125 21.2981 10.013C21.6061 9.901 21.9211 9.73533 22.2431 9.516L22.7961 10.293C22.4507 10.5637 22.0564 10.776 21.6131 10.93C21.1744 11.084 20.7241 11.161 20.2621 11.161C19.5481 11.161 18.9391 11 18.4351 10.678C17.9311 10.356 17.5461 9.908 17.2801 9.334C17.0187 8.75533 16.8881 8.08567 16.8881 7.325C16.8881 6.57833 17.0211 5.91567 17.2871 5.337C17.5531 4.75833 17.9264 4.30333 18.4071 3.972C18.8877 3.64067 19.4547 3.475 20.1081 3.475C20.7287 3.475 21.2631 3.622 21.7111 3.916C22.1591 4.20533 22.5021 4.62067 22.7401 5.162C22.9827 5.69867 23.1041 6.34033 23.1041 7.087C23.1041 7.213 23.1017 7.332 23.0971 7.444C23.0924 7.55133 23.0854 7.647 23.0761 7.731H18.1201ZM20.1221 4.441C19.5761 4.441 19.1187 4.63467 18.7501 5.022C18.3861 5.40933 18.1784 6.009 18.1271 6.821H21.9701C21.9561 6.03233 21.7834 5.43967 21.4521 5.043C21.1207 4.64167 20.6774 4.441 20.1221 4.441ZM30.4486 3.475C30.6866 3.475 30.9129 3.52633 31.1276 3.629C31.3469 3.73167 31.5266 3.93 31.6666 4.224C31.8066 4.518 31.8766 4.94733 31.8766 5.512V11H30.7846V5.701C30.7846 5.239 30.7566 4.90533 30.7006 4.7C30.6446 4.49467 30.4836 4.392 30.2176 4.392C29.9983 4.392 29.7789 4.462 29.5596 4.602C29.3449 4.73733 29.1349 4.96133 28.9296 5.274V11H27.8306V5.701C27.8306 5.239 27.8026 4.90533 27.7466 4.7C27.6906 4.49467 27.5296 4.392 27.2636 4.392C27.0349 4.392 26.8133 4.462 26.5986 4.602C26.3886 4.73733 26.1809 4.96133 25.9756 5.274V11H24.8906V3.629H25.8146L25.8846 4.483C26.0853 4.19833 26.3093 3.96033 26.5566 3.769C26.8086 3.573 27.1189 3.475 27.4876 3.475C27.7676 3.475 28.0313 3.54267 28.2786 3.678C28.5259 3.80867 28.7079 4.06533 28.8246 4.448C29.0253 4.15867 29.2516 3.92533 29.5036 3.748C29.7556 3.566 30.0706 3.475 30.4486 3.475ZM37.2821 3.475C37.9355 3.475 38.4558 3.63367 38.8431 3.951C39.2351 4.26833 39.5175 4.71633 39.6901 5.295C39.8628 5.869 39.9491 6.541 39.9491 7.311C39.9491 8.053 39.8441 8.71567 39.6341 9.299C39.4288 9.87767 39.1161 10.3327 38.6961 10.664C38.2761 10.9953 37.7465 11.161 37.1071 11.161C36.2998 11.161 35.6511 10.8763 35.1611 10.307V13.821L33.9851 13.968V3.629H34.9861L35.0841 4.658C35.3548 4.28 35.6768 3.98833 36.0501 3.783C36.4281 3.57767 36.8388 3.475 37.2821 3.475ZM37.0021 4.42C36.5961 4.42 36.2368 4.54367 35.9241 4.791C35.6161 5.03367 35.3618 5.30433 35.1611 5.603V9.257C35.3525 9.54167 35.5928 9.768 35.8821 9.936C36.1761 10.0993 36.4981 10.181 36.8481 10.181C37.4595 10.181 37.9191 9.94767 38.2271 9.481C38.5351 9.01433 38.6891 8.28867 38.6891 7.304C38.6891 6.66 38.6285 6.12567 38.5071 5.701C38.3858 5.27167 38.2015 4.952 37.9541 4.742C37.7068 4.52733 37.3895 4.42 37.0021 4.42ZM45.2497 0.660999V9.18C45.2497 9.544 45.3617 9.803 45.5857 9.957C45.8143 10.1063 46.1083 10.181 46.4677 10.181C46.6917 10.181 46.904 10.1577 47.1047 10.111C47.3053 10.0643 47.506 10.0013 47.7067 9.922L48.0217 10.783C47.821 10.881 47.5713 10.9673 47.2727 11.042C46.9787 11.1213 46.645 11.161 46.2717 11.161C45.6183 11.161 45.0887 10.9813 44.6827 10.622C44.2767 10.258 44.0737 9.75633 44.0737 9.117V1.592H41.8127V0.660999H45.2497ZM56.0522 9.39C56.0522 9.684 56.1012 9.89867 56.1992 10.034C56.2972 10.1693 56.4489 10.2697 56.6542 10.335L56.3672 11.161C56.0499 11.119 55.7722 11.0187 55.5342 10.86C55.2962 10.6967 55.1235 10.4517 55.0162 10.125C54.7502 10.4657 54.4189 10.7247 54.0222 10.902C53.6255 11.0747 53.1869 11.161 52.7062 11.161C51.9689 11.161 51.3879 10.9533 50.9632 10.538C50.5385 10.1227 50.3262 9.572 50.3262 8.886C50.3262 8.12533 50.6225 7.542 51.2152 7.136C51.8079 6.73 52.6642 6.527 53.7842 6.527H54.8692V5.911C54.8692 5.379 54.7129 5.00333 54.4002 4.784C54.0922 4.56 53.6629 4.448 53.1122 4.448C52.8695 4.448 52.5849 4.47833 52.2582 4.539C51.9315 4.595 51.5769 4.69067 51.1942 4.826L50.8862 3.937C51.3389 3.769 51.7635 3.65 52.1602 3.58C52.5569 3.51 52.9349 3.475 53.2942 3.475C54.2135 3.475 54.9019 3.68967 55.3592 4.119C55.8212 4.54367 56.0522 5.12233 56.0522 5.855V9.39ZM53.0072 10.265C53.3712 10.265 53.7189 10.174 54.0502 9.992C54.3815 9.80533 54.6545 9.54867 54.8692 9.222V7.325H53.8052C52.9932 7.325 52.4192 7.465 52.0832 7.745C51.7519 8.025 51.5862 8.40067 51.5862 8.872C51.5862 9.32933 51.7029 9.677 51.9362 9.915C52.1742 10.1483 52.5312 10.265 53.0072 10.265ZM65.0207 10.629C64.7687 10.797 64.4631 10.9277 64.1037 11.021C63.7444 11.1143 63.3921 11.161 63.0467 11.161C62.2534 11.161 61.6421 10.9533 61.2127 10.538C60.7834 10.1227 60.5687 9.58833 60.5687 8.935V4.539H58.8747V3.629H60.5687V1.956L61.7447 1.816V3.629H64.2927L64.1527 4.539H61.7447V8.921C61.7447 9.33167 61.8521 9.64433 62.0667 9.859C62.2861 10.0737 62.6477 10.181 63.1517 10.181C63.4271 10.181 63.6814 10.1483 63.9147 10.083C64.1481 10.0177 64.3651 9.93367 64.5657 9.831L65.0207 10.629ZM68.4873 7.731C68.5106 8.30033 68.6203 8.767 68.8163 9.131C69.0123 9.49033 69.2713 9.75633 69.5933 9.929C69.9153 10.097 70.2653 10.181 70.6433 10.181C71.0213 10.181 71.3619 10.125 71.6653 10.013C71.9733 9.901 72.2883 9.73533 72.6103 9.516L73.1633 10.293C72.8179 10.5637 72.4236 10.776 71.9803 10.93C71.5416 11.084 71.0913 11.161 70.6293 11.161C69.9153 11.161 69.3063 11 68.8023 10.678C68.2983 10.356 67.9133 9.908 67.6473 9.334C67.3859 8.75533 67.2553 8.08567 67.2553 7.325C67.2553 6.57833 67.3883 5.91567 67.6543 5.337C67.9203 4.75833 68.2936 4.30333 68.7743 3.972C69.2549 3.64067 69.8219 3.475 70.4753 3.475C71.0959 3.475 71.6303 3.622 72.0783 3.916C72.5263 4.20533 72.8693 4.62067 73.1073 5.162C73.3499 5.69867 73.4713 6.34033 73.4713 7.087C73.4713 7.213 73.4689 7.332 73.4643 7.444C73.4596 7.55133 73.4526 7.647 73.4433 7.731H68.4873ZM70.4893 4.441C69.9433 4.441 69.4859 4.63467 69.1173 5.022C68.7533 5.40933 68.5456 6.009 68.4943 6.821H72.3373C72.3233 6.03233 72.1506 5.43967 71.8193 5.043C71.4879 4.64167 71.0446 4.441 70.4893 4.441ZM23.0481 73.629C22.7961 73.797 22.4904 73.9277 22.1311 74.021C21.7717 74.1143 21.4194 74.161 21.0741 74.161C20.2807 74.161 19.6694 73.9533 19.2401 73.538C18.8107 73.1227 18.5961 72.5883 18.5961 71.935V67.539H16.9021V66.629H18.5961V64.956L19.7721 64.816V66.629H22.3201L22.1801 67.539H19.7721V71.921C19.7721 72.3317 19.8794 72.6443 20.0941 72.859C20.3134 73.0737 20.6751 73.181 21.1791 73.181C21.4544 73.181 21.7087 73.1483 21.9421 73.083C22.1754 73.0177 22.3924 72.9337 22.5931 72.831L23.0481 73.629ZM26.5146 70.731C26.5379 71.3003 26.6476 71.767 26.8436 72.131C27.0396 72.4903 27.2986 72.7563 27.6206 72.929C27.9426 73.097 28.2926 73.181 28.6706 73.181C29.0486 73.181 29.3893 73.125 29.6926 73.013C30.0006 72.901 30.3156 72.7353 30.6376 72.516L31.1906 73.293C30.8453 73.5637 30.4509 73.776 30.0076 73.93C29.5689 74.084 29.1186 74.161 28.6566 74.161C27.9426 74.161 27.3336 74 26.8296 73.678C26.3256 73.356 25.9406 72.908 25.6746 72.334C25.4133 71.7553 25.2826 71.0857 25.2826 70.325C25.2826 69.5783 25.4156 68.9157 25.6816 68.337C25.9476 67.7583 26.3209 67.3033 26.8016 66.972C27.2823 66.6407 27.8493 66.475 28.5026 66.475C29.1233 66.475 29.6576 66.622 30.1056 66.916C30.5536 67.2053 30.8966 67.6207 31.1346 68.162C31.3773 68.6987 31.4986 69.3403 31.4986 70.087C31.4986 70.213 31.4963 70.332 31.4916 70.444C31.4869 70.5513 31.4799 70.647 31.4706 70.731H26.5146ZM28.5166 67.441C27.9706 67.441 27.5133 67.6347 27.1446 68.022C26.7806 68.4093 26.5729 69.009 26.5216 69.821H30.3646C30.3506 69.0323 30.1779 68.4397 29.8466 68.043C29.5153 67.6417 29.0719 67.441 28.5166 67.441ZM38.8431 66.475C39.0811 66.475 39.3075 66.5263 39.5221 66.629C39.7415 66.7317 39.9211 66.93 40.0611 67.224C40.2011 67.518 40.2711 67.9473 40.2711 68.512V74H39.1791V68.701C39.1791 68.239 39.1511 67.9053 39.0951 67.7C39.0391 67.4947 38.8781 67.392 38.6121 67.392C38.3928 67.392 38.1735 67.462 37.9541 67.602C37.7395 67.7373 37.5295 67.9613 37.3241 68.274V74H36.2251V68.701C36.2251 68.239 36.1971 67.9053 36.1411 67.7C36.0851 67.4947 35.9241 67.392 35.6581 67.392C35.4295 67.392 35.2078 67.462 34.9931 67.602C34.7831 67.7373 34.5755 67.9613 34.3701 68.274V74H33.2851V66.629H34.2091L34.2791 67.483C34.4798 67.1983 34.7038 66.9603 34.9511 66.769C35.2031 66.573 35.5135 66.475 35.8821 66.475C36.1621 66.475 36.4258 66.5427 36.6731 66.678C36.9205 66.8087 37.1025 67.0653 37.2191 67.448C37.4198 67.1587 37.6461 66.9253 37.8981 66.748C38.1501 66.566 38.4651 66.475 38.8431 66.475ZM45.6767 66.475C46.33 66.475 46.8503 66.6337 47.2377 66.951C47.6297 67.2683 47.912 67.7163 48.0847 68.295C48.2573 68.869 48.3437 69.541 48.3437 70.311C48.3437 71.053 48.2387 71.7157 48.0287 72.299C47.8233 72.8777 47.5107 73.3327 47.0907 73.664C46.6707 73.9953 46.141 74.161 45.5017 74.161C44.6943 74.161 44.0457 73.8763 43.5557 73.307V76.821L42.3797 76.968V66.629H43.3807L43.4787 67.658C43.7493 67.28 44.0713 66.9883 44.4447 66.783C44.8227 66.5777 45.2333 66.475 45.6767 66.475ZM45.3967 67.42C44.9907 67.42 44.6313 67.5437 44.3187 67.791C44.0107 68.0337 43.7563 68.3043 43.5557 68.603V72.257C43.747 72.5417 43.9873 72.768 44.2767 72.936C44.5707 73.0993 44.8927 73.181 45.2427 73.181C45.854 73.181 46.3137 72.9477 46.6217 72.481C46.9297 72.0143 47.0837 71.2887 47.0837 70.304C47.0837 69.66 47.023 69.1257 46.9017 68.701C46.7803 68.2717 46.596 67.952 46.3487 67.742C46.1013 67.5273 45.784 67.42 45.3967 67.42ZM53.6442 63.661V72.18C53.6442 72.544 53.7562 72.803 53.9802 72.957C54.2089 73.1063 54.5029 73.181 54.8622 73.181C55.0862 73.181 55.2985 73.1577 55.4992 73.111C55.6999 73.0643 55.9005 73.0013 56.1012 72.922L56.4162 73.783C56.2155 73.881 55.9659 73.9673 55.6672 74.042C55.3732 74.1213 55.0395 74.161 54.6662 74.161C54.0129 74.161 53.4832 73.9813 53.0772 73.622C52.6712 73.258 52.4682 72.7563 52.4682 72.117V64.592H50.2072V63.661H53.6442ZM64.4467 72.39C64.4467 72.684 64.4957 72.8987 64.5937 73.034C64.6917 73.1693 64.8434 73.2697 65.0487 73.335L64.7617 74.161C64.4444 74.119 64.1667 74.0187 63.9287 73.86C63.6907 73.6967 63.5181 73.4517 63.4107 73.125C63.1447 73.4657 62.8134 73.7247 62.4167 73.902C62.0201 74.0747 61.5814 74.161 61.1007 74.161C60.3634 74.161 59.7824 73.9533 59.3577 73.538C58.9331 73.1227 58.7207 72.572 58.7207 71.886C58.7207 71.1253 59.0171 70.542 59.6097 70.136C60.2024 69.73 61.0587 69.527 62.1787 69.527H63.2637V68.911C63.2637 68.379 63.1074 68.0033 62.7947 67.784C62.4867 67.56 62.0574 67.448 61.5067 67.448C61.2641 67.448 60.9794 67.4783 60.6527 67.539C60.3261 67.595 59.9714 67.6907 59.5887 67.826L59.2807 66.937C59.7334 66.769 60.1581 66.65 60.5547 66.58C60.9514 66.51 61.3294 66.475 61.6887 66.475C62.6081 66.475 63.2964 66.6897 63.7537 67.119C64.2157 67.5437 64.4467 68.1223 64.4467 68.855V72.39ZM61.4017 73.265C61.7657 73.265 62.1134 73.174 62.4447 72.992C62.7761 72.8053 63.0491 72.5487 63.2637 72.222V70.325H62.1997C61.3877 70.325 60.8137 70.465 60.4777 70.745C60.1464 71.025 59.9807 71.4007 59.9807 71.872C59.9807 72.3293 60.0974 72.677 60.3307 72.915C60.5687 73.1483 60.9257 73.265 61.4017 73.265ZM73.4153 73.629C73.1633 73.797 72.8576 73.9277 72.4983 74.021C72.1389 74.1143 71.7866 74.161 71.4413 74.161C70.6479 74.161 70.0366 73.9533 69.6073 73.538C69.1779 73.1227 68.9633 72.5883 68.9633 71.935V67.539H67.2693V66.629H68.9633V64.956L70.1393 64.816V66.629H72.6873L72.5473 67.539H70.1393V71.921C70.1393 72.3317 70.2466 72.6443 70.4613 72.859C70.6806 73.0737 71.0423 73.181 71.5463 73.181C71.8216 73.181 72.0759 73.1483 72.3093 73.083C72.5426 73.0177 72.7596 72.9337 72.9603 72.831L73.4153 73.629ZM76.8818 70.731C76.9051 71.3003 77.0148 71.767 77.2108 72.131C77.4068 72.4903 77.6658 72.7563 77.9878 72.929C78.3098 73.097 78.6598 73.181 79.0378 73.181C79.4158 73.181 79.7564 73.125 80.0598 73.013C80.3678 72.901 80.6828 72.7353 81.0048 72.516L81.5578 73.293C81.2124 73.5637 80.8181 73.776 80.3748 73.93C79.9361 74.084 79.4858 74.161 79.0238 74.161C78.3098 74.161 77.7008 74 77.1968 73.678C76.6928 73.356 76.3078 72.908 76.0418 72.334C75.7804 71.7553 75.6498 71.0857 75.6498 70.325C75.6498 69.5783 75.7828 68.9157 76.0488 68.337C76.3148 67.7583 76.6881 67.3033 77.1688 66.972C77.6494 66.6407 78.2164 66.475 78.8698 66.475C79.4904 66.475 80.0248 66.622 80.4728 66.916C80.9208 67.2053 81.2638 67.6207 81.5018 68.162C81.7444 68.6987 81.8658 69.3403 81.8658 70.087C81.8658 70.213 81.8634 70.332 81.8588 70.444C81.8541 70.5513 81.8471 70.647 81.8378 70.731H76.8818ZM78.8838 67.441C78.3378 67.441 77.8804 67.6347 77.5118 68.022C77.1478 68.4093 76.9401 69.009 76.8888 69.821H80.7318C80.7178 69.0323 80.5451 68.4397 80.2138 68.043C79.8824 67.6417 79.4391 67.441 78.8838 67.441Z" fill="#A1A1AA"/>
<path d="M30.2036 32V27.429H26.5636V32H25.3526V22.361H26.5636V26.435H30.2036V22.361H31.4146V32H30.2036ZM34.9091 28.731C34.9325 29.3003 35.0421 29.767 35.2381 30.131C35.4341 30.4903 35.6931 30.7563 36.0151 30.929C36.3371 31.097 36.6871 31.181 37.0651 31.181C37.4431 31.181 37.7838 31.125 38.0871 31.013C38.3951 30.901 38.7101 30.7353 39.0321 30.516L39.5851 31.293C39.2398 31.5637 38.8455 31.776 38.4021 31.93C37.9635 32.084 37.5131 32.161 37.0511 32.161C36.3371 32.161 35.7281 32 35.2241 31.678C34.7201 31.356 34.3351 30.908 34.0691 30.334C33.8078 29.7553 33.6771 29.0857 33.6771 28.325C33.6771 27.5783 33.8101 26.9157 34.0761 26.337C34.3421 25.7583 34.7155 25.3033 35.1961 24.972C35.6768 24.6407 36.2438 24.475 36.8971 24.475C37.5178 24.475 38.0521 24.622 38.5001 24.916C38.9481 25.2053 39.2911 25.6207 39.5291 26.162C39.7718 26.6987 39.8931 27.3403 39.8931 28.087C39.8931 28.213 39.8908 28.332 39.8861 28.444C39.8815 28.5513 39.8745 28.647 39.8651 28.731H34.9091ZM36.9111 25.441C36.3651 25.441 35.9078 25.6347 35.5391 26.022C35.1751 26.4093 34.9675 27.009 34.9161 27.821H38.7591C38.7451 27.0323 38.5725 26.4397 38.2411 26.043C37.9098 25.6417 37.4665 25.441 36.9111 25.441ZM47.6577 30.39C47.6577 30.684 47.7067 30.8987 47.8047 31.034C47.9027 31.1693 48.0543 31.2697 48.2597 31.335L47.9727 32.161C47.6553 32.119 47.3777 32.0187 47.1397 31.86C46.9017 31.6967 46.729 31.4517 46.6217 31.125C46.3557 31.4657 46.0243 31.7247 45.6277 31.902C45.231 32.0747 44.7923 32.161 44.3117 32.161C43.5743 32.161 42.9933 31.9533 42.5687 31.538C42.144 31.1227 41.9317 30.572 41.9317 29.886C41.9317 29.1253 42.228 28.542 42.8207 28.136C43.4133 27.73 44.2697 27.527 45.3897 27.527H46.4747V26.911C46.4747 26.379 46.3183 26.0033 46.0057 25.784C45.6977 25.56 45.2683 25.448 44.7177 25.448C44.475 25.448 44.1903 25.4783 43.8637 25.539C43.537 25.595 43.1823 25.6907 42.7997 25.826L42.4917 24.937C42.9443 24.769 43.369 24.65 43.7657 24.58C44.1623 24.51 44.5403 24.475 44.8997 24.475C45.819 24.475 46.5073 24.6897 46.9647 25.119C47.4267 25.5437 47.6577 26.1223 47.6577 26.855V30.39ZM44.6127 31.265C44.9767 31.265 45.3243 31.174 45.6557 30.992C45.987 30.8053 46.26 30.5487 46.4747 30.222V28.325H45.4107C44.5987 28.325 44.0247 28.465 43.6887 28.745C43.3573 29.025 43.1917 29.4007 43.1917 29.872C43.1917 30.3293 43.3083 30.677 43.5417 30.915C43.7797 31.1483 44.1367 31.265 44.6127 31.265ZM55.1842 21.514L56.3602 21.661V32H55.3312L55.2192 31.027C54.9439 31.419 54.6265 31.706 54.2672 31.888C53.9125 32.07 53.5322 32.161 53.1262 32.161C52.4869 32.161 51.9595 32 51.5442 31.678C51.1289 31.356 50.8209 30.908 50.6202 30.334C50.4195 29.7553 50.3192 29.0857 50.3192 28.325C50.3192 27.5877 50.4335 26.9297 50.6622 26.351C50.8909 25.7677 51.2199 25.3103 51.6492 24.979C52.0832 24.643 52.6035 24.475 53.2102 24.475C53.6349 24.475 54.0082 24.5497 54.3302 24.699C54.6522 24.8437 54.9369 25.0583 55.1842 25.343V21.514ZM53.5182 25.42C52.9022 25.42 52.4285 25.6603 52.0972 26.141C51.7659 26.6217 51.6002 27.3497 51.6002 28.325C51.6002 28.9597 51.6679 29.4917 51.8032 29.921C51.9385 30.3503 52.1369 30.6723 52.3982 30.887C52.6642 31.1017 52.9885 31.209 53.3712 31.209C53.7912 31.209 54.1482 31.09 54.4422 30.852C54.7409 30.614 54.9882 30.3457 55.1842 30.047V26.365C54.9835 26.0663 54.7409 25.8353 54.4562 25.672C54.1715 25.504 53.8589 25.42 53.5182 25.42ZM60.0927 28.731C60.1161 29.3003 60.2257 29.767 60.4217 30.131C60.6177 30.4903 60.8767 30.7563 61.1987 30.929C61.5207 31.097 61.8707 31.181 62.2487 31.181C62.6267 31.181 62.9674 31.125 63.2707 31.013C63.5787 30.901 63.8937 30.7353 64.2157 30.516L64.7687 31.293C64.4234 31.5637 64.0291 31.776 63.5857 31.93C63.1471 32.084 62.6967 32.161 62.2347 32.161C61.5207 32.161 60.9117 32 60.4077 31.678C59.9037 31.356 59.5187 30.908 59.2527 30.334C58.9914 29.7553 58.8607 29.0857 58.8607 28.325C58.8607 27.5783 58.9937 26.9157 59.2597 26.337C59.5257 25.7583 59.8991 25.3033 60.3797 24.972C60.8604 24.6407 61.4274 24.475 62.0807 24.475C62.7014 24.475 63.2357 24.622 63.6837 24.916C64.1317 25.2053 64.4747 25.6207 64.7127 26.162C64.9554 26.6987 65.0767 27.3403 65.0767 28.087C65.0767 28.213 65.0744 28.332 65.0697 28.444C65.0651 28.5513 65.0581 28.647 65.0487 28.731H60.0927ZM62.0947 25.441C61.5487 25.441 61.0914 25.6347 60.7227 26.022C60.3587 26.4093 60.1511 27.009 60.0997 27.821H63.9427C63.9287 27.0323 63.7561 26.4397 63.4247 26.043C63.0934 25.6417 62.6501 25.441 62.0947 25.441ZM67.6333 32V31.097H68.7813V25.532H67.6333V24.629H69.6773L69.8943 26.372C70.1789 25.7653 70.5243 25.2963 70.9303 24.965C71.3363 24.6337 71.8729 24.468 72.5403 24.468C72.7456 24.468 72.9276 24.4843 73.0863 24.517C73.2496 24.545 73.4153 24.5823 73.5833 24.629L73.2403 25.679C73.0863 25.637 72.9463 25.6067 72.8203 25.588C72.6943 25.5647 72.5496 25.553 72.3863 25.553C71.8216 25.553 71.3363 25.7537 70.9303 26.155C70.5243 26.5563 70.1999 27.163 69.9573 27.975V31.097H71.4553V32H67.6333ZM72.4493 27.121V25.518L72.5683 24.629H73.5833L73.4153 27.121H72.4493ZM27.3266 44.355V47.729H31.1066V48.709H27.3266V53H26.1226V43.361H31.7996L31.6526 44.355H27.3266ZM36.7921 45.475C37.4875 45.475 38.0685 45.6337 38.5351 45.951C39.0065 46.2637 39.3588 46.707 39.5921 47.281C39.8301 47.855 39.9491 48.5317 39.9491 49.311C39.9491 50.0623 39.8278 50.7273 39.5851 51.306C39.3425 51.8847 38.9855 52.3397 38.5141 52.671C38.0475 52.9977 37.4688 53.161 36.7781 53.161C36.0875 53.161 35.5065 53.0023 35.0351 52.685C34.5638 52.3677 34.2068 51.922 33.9641 51.348C33.7261 50.7693 33.6071 50.095 33.6071 49.325C33.6071 48.5643 33.7285 47.8947 33.9711 47.316C34.2138 46.7373 34.5708 46.287 35.0421 45.965C35.5181 45.6383 36.1015 45.475 36.7921 45.475ZM36.7921 46.434C36.1575 46.434 35.6768 46.6697 35.3501 47.141C35.0281 47.6077 34.8671 48.3357 34.8671 49.325C34.8671 50.2957 35.0258 51.0167 35.3431 51.488C35.6651 51.9593 36.1435 52.195 36.7781 52.195C37.4128 52.195 37.8888 51.9593 38.2061 51.488C38.5281 51.0167 38.6891 50.291 38.6891 49.311C38.6891 48.331 38.5305 47.6077 38.2131 47.141C37.8958 46.6697 37.4221 46.434 36.7921 46.434ZM45.1867 45.475C45.882 45.475 46.463 45.6337 46.9297 45.951C47.401 46.2637 47.7533 46.707 47.9867 47.281C48.2247 47.855 48.3437 48.5317 48.3437 49.311C48.3437 50.0623 48.2223 50.7273 47.9797 51.306C47.737 51.8847 47.38 52.3397 46.9087 52.671C46.442 52.9977 45.8633 53.161 45.1727 53.161C44.482 53.161 43.901 53.0023 43.4297 52.685C42.9583 52.3677 42.6013 51.922 42.3587 51.348C42.1207 50.7693 42.0017 50.095 42.0017 49.325C42.0017 48.5643 42.123 47.8947 42.3657 47.316C42.6083 46.7373 42.9653 46.287 43.4367 45.965C43.9127 45.6383 44.496 45.475 45.1867 45.475ZM45.1867 46.434C44.552 46.434 44.0713 46.6697 43.7447 47.141C43.4227 47.6077 43.2617 48.3357 43.2617 49.325C43.2617 50.2957 43.4203 51.0167 43.7377 51.488C44.0597 51.9593 44.538 52.195 45.1727 52.195C45.8073 52.195 46.2833 51.9593 46.6007 51.488C46.9227 51.0167 47.0837 50.291 47.0837 49.311C47.0837 48.331 46.925 47.6077 46.6077 47.141C46.2903 46.6697 45.8167 46.434 45.1867 46.434ZM56.6262 52.629C56.3742 52.797 56.0685 52.9277 55.7092 53.021C55.3499 53.1143 54.9975 53.161 54.6522 53.161C53.8589 53.161 53.2475 52.9533 52.8182 52.538C52.3889 52.1227 52.1742 51.5883 52.1742 50.935V46.539H50.4802V45.629H52.1742V43.956L53.3502 43.816V45.629H55.8982L55.7582 46.539H53.3502V50.921C53.3502 51.3317 53.4575 51.6443 53.6722 51.859C53.8915 52.0737 54.2532 52.181 54.7572 52.181C55.0325 52.181 55.2869 52.1483 55.5202 52.083C55.7535 52.0177 55.9705 51.9337 56.1712 51.831L56.6262 52.629ZM60.0927 49.731C60.1161 50.3003 60.2257 50.767 60.4217 51.131C60.6177 51.4903 60.8767 51.7563 61.1987 51.929C61.5207 52.097 61.8707 52.181 62.2487 52.181C62.6267 52.181 62.9674 52.125 63.2707 52.013C63.5787 51.901 63.8937 51.7353 64.2157 51.516L64.7687 52.293C64.4234 52.5637 64.0291 52.776 63.5857 52.93C63.1471 53.084 62.6967 53.161 62.2347 53.161C61.5207 53.161 60.9117 53 60.4077 52.678C59.9037 52.356 59.5187 51.908 59.2527 51.334C58.9914 50.7553 58.8607 50.0857 58.8607 49.325C58.8607 48.5783 58.9937 47.9157 59.2597 47.337C59.5257 46.7583 59.8991 46.3033 60.3797 45.972C60.8604 45.6407 61.4274 45.475 62.0807 45.475C62.7014 45.475 63.2357 45.622 63.6837 45.916C64.1317 46.2053 64.4747 46.6207 64.7127 47.162C64.9554 47.6987 65.0767 48.3403 65.0767 49.087C65.0767 49.213 65.0744 49.332 65.0697 49.444C65.0651 49.5513 65.0581 49.647 65.0487 49.731H60.0927ZM62.0947 46.441C61.5487 46.441 61.0914 46.6347 60.7227 47.022C60.3587 47.4093 60.1511 48.009 60.0997 48.821H63.9427C63.9287 48.0323 63.7561 47.4397 63.4247 47.043C63.0934 46.6417 62.6501 46.441 62.0947 46.441ZM67.6333 53V52.097H68.7813V46.532H67.6333V45.629H69.6773L69.8943 47.372C70.1789 46.7653 70.5243 46.2963 70.9303 45.965C71.3363 45.6337 71.8729 45.468 72.5403 45.468C72.7456 45.468 72.9276 45.4843 73.0863 45.517C73.2496 45.545 73.4153 45.5823 73.5833 45.629L73.2403 46.679C73.0863 46.637 72.9463 46.6067 72.8203 46.588C72.6943 46.5647 72.5496 46.553 72.3863 46.553C71.8216 46.553 71.3363 46.7537 70.9303 47.155C70.5243 47.5563 70.1999 48.163 69.9573 48.975V52.097H71.4553V53H67.6333ZM72.4493 48.121V46.518L72.5683 45.629H73.5833L73.4153 48.121H72.4493Z" fill="#00DC82"/>
</svg>
