<svg width="32" height="32" viewBox="0 0 32 32" fill="none" xmlns="http://www.w3.org/2000/svg">
<path d="M9.9434 24H6.4784V7.83H17.4971V10.8099H9.9434V14.4135H15.9494V17.4165H9.9434V24Z" fill="#A1A1AA"/>
<path d="M17.2233 24V14.5248H19.8553V15.8408C20.1185 15.3771 20.5007 15.0199 21.0021 14.7692C21.5034 14.506 22.0799 14.3744 22.7317 14.3744C23.4335 14.3744 24.0477 14.5311 24.5741 14.8444C25.113 15.1577 25.5266 15.5964 25.8149 16.1604C26.1157 16.7244 26.2661 17.3699 26.2661 18.0968V24H23.6341V18.6796C23.6341 18.1031 23.4649 17.6331 23.1265 17.2696C22.7881 16.8936 22.3494 16.7056 21.8105 16.7056C21.2339 16.7056 20.7639 16.9061 20.4005 17.3072C20.037 17.6957 19.8553 18.1971 19.8553 18.8112V24H17.2233Z" fill="#D4D4D8"/>
</svg>
