<svg width="32" height="32" viewBox="0 0 32 32" fill="none" xmlns="http://www.w3.org/2000/svg">
<path d="M25.3333 7.99996H21.3333V3.99996C21.3333 3.64634 21.1928 3.3072 20.9428 3.05715C20.6928 2.8071 20.3536 2.66663 20 2.66663C19.6464 2.66663 19.3072 2.8071 19.0572 3.05715C18.8071 3.3072 18.6667 3.64634 18.6667 3.99996V7.99996H13.3333V3.99996C13.3333 3.64634 13.1929 3.3072 12.9428 3.05715C12.6928 2.8071 12.3536 2.66663 12 2.66663C11.6464 2.66663 11.3072 2.8071 11.0572 3.05715C10.8071 3.3072 10.6667 3.64634 10.6667 3.99996V7.99996H6.66666C6.31304 7.99996 5.9739 8.14044 5.72385 8.39048C5.4738 8.64053 5.33333 8.97967 5.33333 9.33329C5.33333 9.68691 5.4738 10.0261 5.72385 10.2761C5.9739 10.5261 6.31304 10.6666 6.66666 10.6666H7.99999V17.3333C7.99898 17.5088 8.03261 17.6827 8.09897 17.8452C8.16532 18.0076 8.26309 18.1554 8.38666 18.28L12 21.88V28C12 28.3536 12.1405 28.6927 12.3905 28.9428C12.6406 29.1928 12.9797 29.3333 13.3333 29.3333C13.6869 29.3333 14.0261 29.1928 14.2761 28.9428C14.5262 28.6927 14.6667 28.3536 14.6667 28V22.6666H17.3333V28C17.3333 28.3536 17.4738 28.6927 17.7239 28.9428C17.9739 29.1928 18.313 29.3333 18.6667 29.3333C19.0203 29.3333 19.3594 29.1928 19.6095 28.9428C19.8595 28.6927 20 28.3536 20 28V21.88L23.6133 18.28C23.7369 18.1554 23.8347 18.0076 23.901 17.8452C23.9674 17.6827 24.001 17.5088 24 17.3333V10.6666H25.3333C25.6869 10.6666 26.0261 10.5261 26.2761 10.2761C26.5262 10.0261 26.6667 9.68691 26.6667 9.33329C26.6667 8.97967 26.5262 8.64053 26.2761 8.39048C26.0261 8.14044 25.6869 7.99996 25.3333 7.99996ZM21.3333 16.7866L18.12 20H13.88L10.6667 16.7866V10.6666H21.3333V16.7866Z" fill="#009D5D"/>
<path d="M17.3333 17.3328H14.6666C14.313 17.3328 13.9738 17.1923 13.7238 16.9423C13.4737 16.6922 13.3333 16.3531 13.3333 15.9995C13.3333 15.6458 13.4737 15.3067 13.7238 15.0567C13.9738 14.8066 14.313 14.6661 14.6666 14.6661H17.3333C17.6869 14.6661 18.026 14.8066 18.2761 15.0567C18.5261 15.3067 18.6666 15.6458 18.6666 15.9995C18.6666 16.3531 18.5261 16.6922 18.2761 16.9423C18.026 17.1923 17.6869 17.3328 17.3333 17.3328Z" fill="#00DC82"/>
</svg>
