<svg width="204" height="28" viewBox="0 0 204 28" fill="none" xmlns="http://www.w3.org/2000/svg">
<path d="M23.3349 27.6667H38.5763C39.0604 27.6668 39.536 27.5405 39.9552 27.3006C40.3745 27.0607 40.7226 26.7156 40.9645 26.3C41.2064 25.8844 41.3337 25.413 41.3335 24.9332C41.3333 24.4535 41.2056 23.9822 40.9633 23.5668L30.7276 5.99541C30.4856 5.57994 30.1376 5.23492 29.7185 4.99504C29.2993 4.75516 28.8239 4.62887 28.3398 4.62887C27.8558 4.62887 27.3804 4.75516 26.9612 4.99504C26.5421 5.23492 26.194 5.57994 25.9521 5.99541L23.3349 10.4913L18.2178 1.69972C17.9756 1.28428 17.6274 0.939312 17.2082 0.699474C16.7889 0.459636 16.3134 0.333374 15.8293 0.333374C15.3452 0.333374 14.8696 0.459636 14.4504 0.699474C14.0311 0.939312 13.6829 1.28428 13.4408 1.69972L0.703703 23.5668C0.46139 23.9822 0.333707 24.4535 0.333496 24.9332C0.333286 25.413 0.460555 25.8844 0.702503 26.3C0.944451 26.7156 1.29255 27.0607 1.71178 27.3006C2.13101 27.5405 2.6066 27.6668 3.0907 27.6667H12.658C16.4487 27.6667 19.2442 26.0164 21.1677 22.7969L25.8377 14.7811L28.3391 10.4913L35.8462 23.3769H25.8377L23.3349 27.6667ZM12.502 23.3725L5.82527 23.371L15.8337 6.1912L20.8276 14.7811L17.484 20.5224C16.2066 22.6114 14.7553 23.3725 12.502 23.3725Z" fill="#00DC82"/>
<path d="M53.1937 27.5555H48.4629V5.47856H63.5067V9.54702H53.1937V14.467H61.3937V18.567H53.1937V27.5555Z" fill="#0C0C0D"/>
<path d="M71.9002 15.3186C70.8489 15.3186 70.0604 15.718 69.5348 16.517C69.0091 17.316 68.7463 18.4198 68.7463 19.8286V27.5555H64.3309V11.6601H68.7463V14.3093C69.1668 13.3421 69.6819 12.6588 70.2917 12.2593C70.9225 11.8598 71.7319 11.6601 72.7202 11.6601H74.5178V15.3186H71.9002Z" fill="#0C0C0D"/>
<path d="M82.1186 11.4078C83.4432 11.4078 84.6312 11.6601 85.6825 12.1647C86.7337 12.6483 87.5537 13.3421 88.1425 14.2463C88.7522 15.1293 89.0571 16.1596 89.0571 17.337V27.5555H84.7048V25.3478C84.4314 26.0837 83.8848 26.6829 83.0648 27.1455C82.2658 27.587 81.3196 27.8078 80.2263 27.8078C79.2171 27.8078 78.313 27.608 77.514 27.2086C76.7361 26.788 76.1263 26.2204 75.6848 25.5055C75.2432 24.7696 75.0225 23.9496 75.0225 23.0455C75.0225 21.4896 75.5481 20.2701 76.5994 19.387C77.6717 18.4829 79.0804 18.0309 80.8255 18.0309H83.5063C83.8848 18.0309 84.1791 17.9257 84.3894 17.7155C84.5996 17.4842 84.7048 17.2004 84.7048 16.8639C84.7048 16.1911 84.4525 15.655 83.9478 15.2555C83.4432 14.835 82.7494 14.6247 81.8663 14.6247C80.9622 14.6247 80.2473 14.8665 79.7217 15.3501C79.2171 15.8337 78.9437 16.4329 78.9017 17.1478H74.9909C75.054 16.0755 75.3799 15.1083 75.9686 14.2463C76.5573 13.3632 77.3773 12.6693 78.4286 12.1647C79.4799 11.6601 80.7099 11.4078 82.1186 11.4078ZM81.3302 24.6224C82.3814 24.6224 83.2014 24.286 83.7902 23.6132C84.3999 22.9404 84.7048 22.0783 84.7048 21.027V20.8063H81.4878C80.815 20.8063 80.2684 20.9955 79.8478 21.3739C79.4273 21.7524 79.2171 22.2465 79.2171 22.8563C79.2171 23.3819 79.4168 23.8129 79.8163 24.1493C80.2158 24.4647 80.7204 24.6224 81.3302 24.6224Z" fill="#0C0C0D"/>
<path d="M91.4355 27.5555V11.6601H95.8509V13.8993C96.2924 13.1424 96.8917 12.5432 97.6486 12.1016C98.4265 11.6391 99.3306 11.4078 100.361 11.4078C102.821 11.4078 104.44 12.375 105.218 14.3093C105.617 13.4893 106.29 12.806 107.236 12.2593C108.203 11.6916 109.297 11.4078 110.516 11.4078C111.652 11.4078 112.65 11.6601 113.512 12.1647C114.374 12.6693 115.037 13.3632 115.499 14.2463C115.983 15.1083 116.225 16.0755 116.225 17.1478V27.5555H111.841V18.5355C111.841 17.5052 111.578 16.6852 111.052 16.0755C110.548 15.4447 109.875 15.1293 109.034 15.1293C108.13 15.1293 107.404 15.4447 106.858 16.0755C106.311 16.6852 106.038 17.5052 106.038 18.5355V27.5555H101.622V18.5355C101.622 17.5052 101.37 16.6852 100.866 16.0755C100.361 15.4447 99.6881 15.1293 98.8471 15.1293C97.943 15.1293 97.2176 15.4447 96.6709 16.0755C96.1242 16.6852 95.8509 17.5052 95.8509 18.5355V27.5555H91.4355Z" fill="#0C0C0D"/>
<path d="M133.719 22.1624C133.404 23.8655 132.552 25.2322 131.164 26.2624C129.777 27.2927 128.105 27.8078 126.15 27.8078C124.426 27.8078 122.943 27.4188 121.703 26.6409C120.483 25.8419 119.558 24.8116 118.927 23.5501C118.297 22.2886 117.981 20.9639 117.981 19.5763C117.981 18.1675 118.265 16.8429 118.833 15.6024C119.422 14.3619 120.305 13.3527 121.482 12.5747C122.681 11.7968 124.131 11.4078 125.834 11.4078C127.601 11.4078 129.072 11.7863 130.25 12.5432C131.427 13.3001 132.289 14.2673 132.836 15.4447C133.404 16.6222 133.687 17.8627 133.687 19.1663C133.687 19.6498 133.666 20.1229 133.624 20.5855H122.207C122.376 21.7209 122.796 22.6145 123.469 23.2663C124.163 23.897 125.056 24.2124 126.15 24.2124C127.033 24.2124 127.758 24.0442 128.326 23.7078C128.894 23.3504 129.262 22.8352 129.43 22.1624H133.719ZM125.834 14.6247C124.825 14.6247 124.026 14.8875 123.437 15.4132C122.849 15.9178 122.46 16.7168 122.271 17.8101H129.304C129.241 16.885 128.904 16.128 128.294 15.5393C127.685 14.9296 126.865 14.6247 125.834 14.6247Z" fill="#0C0C0D"/>
<path d="M142.529 27.5555H138.713L133.541 11.6601H137.956L140.637 21.4686L143.444 11.6601H147.449L150.288 21.4686L152.968 11.6601H157.352L152.211 27.5555H148.364L145.462 17.6524L142.529 27.5555Z" fill="#0C0C0D"/>
<path d="M165.579 27.8078C163.981 27.8078 162.541 27.4609 161.258 26.767C159.976 26.0521 158.977 25.0745 158.262 23.8339C157.547 22.5724 157.19 21.1637 157.19 19.6078C157.19 18.0519 157.547 16.6537 158.262 15.4132C158.977 14.1516 159.976 13.1739 161.258 12.4801C162.541 11.7652 163.981 11.4078 165.579 11.4078C167.177 11.4078 168.617 11.7652 169.9 12.4801C171.183 13.1739 172.181 14.1516 172.896 15.4132C173.611 16.6537 173.968 18.0519 173.968 19.6078C173.968 21.1637 173.611 22.5724 172.896 23.8339C172.181 25.0745 171.183 26.0521 169.9 26.767C168.617 27.4609 167.177 27.8078 165.579 27.8078ZM165.579 24.0232C166.757 24.0232 167.713 23.6132 168.449 22.7932C169.185 21.9732 169.553 20.9114 169.553 19.6078C169.553 18.2832 169.185 17.2109 168.449 16.3909C167.713 15.5709 166.757 15.1609 165.579 15.1609C164.402 15.1609 163.445 15.5709 162.709 16.3909C161.973 17.2109 161.605 18.2832 161.605 19.6078C161.605 20.9114 161.973 21.9732 162.709 22.7932C163.445 23.6132 164.402 24.0232 165.579 24.0232Z" fill="#0C0C0D"/>
<path d="M183.305 15.3186C182.254 15.3186 181.465 15.718 180.939 16.517C180.414 17.316 180.151 18.4198 180.151 19.8286V27.5555H175.736V11.6601H180.151V14.3093C180.572 13.3421 181.087 12.6588 181.696 12.2593C182.327 11.8598 183.137 11.6601 184.125 11.6601H185.923V15.3186H183.305Z" fill="#0C0C0D"/>
<path d="M203.574 27.5555H198.276L193.766 20.8378L192 22.5724V27.5555H187.584V4.75317H192V17.0847L197.519 11.6601H203.07L196.731 17.9047L203.574 27.5555Z" fill="#0C0C0D"/>
</svg>
