<svg width="32" height="32" viewBox="0 0 32 32" fill="none" xmlns="http://www.w3.org/2000/svg">
<path d="M13.3333 2.66699H3.99999C3.26361 2.66699 2.66666 3.26395 2.66666 4.00033V13.3337C2.66666 14.07 3.26361 14.667 3.99999 14.667H13.3333C14.0697 14.667 14.6667 14.07 14.6667 13.3337V4.00033C14.6667 3.26395 14.0697 2.66699 13.3333 2.66699Z" fill="#009D5D"/>
<path d="M13.3333 17.333H3.99999C3.26361 17.333 2.66666 17.93 2.66666 18.6663V27.9997C2.66666 28.7361 3.26361 29.333 3.99999 29.333H13.3333C14.0697 29.333 14.6667 28.7361 14.6667 27.9997V18.6663C14.6667 17.93 14.0697 17.333 13.3333 17.333Z" fill="#00DC82"/>
<path d="M28 2.66699H18.6667C17.9303 2.66699 17.3334 3.26395 17.3334 4.00033V13.3337C17.3334 14.07 17.9303 14.667 18.6667 14.667H28C28.7364 14.667 29.3334 14.07 29.3334 13.3337V4.00033C29.3334 3.26395 28.7364 2.66699 28 2.66699Z" fill="#00DC82"/>
<path d="M28 17.333H18.6667C17.9303 17.333 17.3334 17.93 17.3334 18.6663V27.9997C17.3334 28.7361 17.9303 29.333 18.6667 29.333H28C28.7364 29.333 29.3334 28.7361 29.3334 27.9997V18.6663C29.3334 17.93 28.7364 17.333 28 17.333Z" fill="#00DC82"/>
</svg>
