<svg width="32" height="32" viewBox="0 0 32 32" fill="none" xmlns="http://www.w3.org/2000/svg">
<path d="M13.3333 2.66675H4.00001C3.26363 2.66675 2.66667 3.2637 2.66667 4.00008V13.3334C2.66667 14.0698 3.26363 14.6667 4.00001 14.6667H13.3333C14.0697 14.6667 14.6667 14.0698 14.6667 13.3334V4.00008C14.6667 3.2637 14.0697 2.66675 13.3333 2.66675Z" fill="#ffffff"/>
<path d="M13.3333 17.3331H4.00001C3.26363 17.3331 2.66667 17.9301 2.66667 18.6665V27.9998C2.66667 28.7362 3.26363 29.3331 4.00001 29.3331H13.3333C14.0697 29.3331 14.6667 28.7362 14.6667 27.9998V18.6665C14.6667 17.9301 14.0697 17.3331 13.3333 17.3331Z" fill="#D4D4D8"/>
<path d="M28 2.66675H18.6667C17.9303 2.66675 17.3333 3.2637 17.3333 4.00008V13.3334C17.3333 14.0698 17.9303 14.6667 18.6667 14.6667H28C28.7364 14.6667 29.3333 14.0698 29.3333 13.3334V4.00008C29.3333 3.2637 28.7364 2.66675 28 2.66675Z" fill="#D4D4D8"/>
<path d="M28 17.3331H18.6667C17.9303 17.3331 17.3333 17.9301 17.3333 18.6665V27.9998C17.3333 28.7362 17.9303 29.3331 18.6667 29.3331H28C28.7364 29.3331 29.3333 28.7362 29.3333 27.9998V18.6665C29.3333 17.9301 28.7364 17.3331 28 17.3331Z" fill="#D4D4D8"/>
</svg>
