<svg width="189" height="293" viewBox="0 0 189 293" fill="none" xmlns="http://www.w3.org/2000/svg">
<g filter="url(#filter0_b_6925_63577)">
<path d="M81.6356 289.889L10.5018 248.808C4.00382 245.056 -2.52139e-06 238.114 -2.84978e-06 230.602L-6.66622e-06 62.8593C-6.99261e-06 55.3924 3.95558 48.4862 10.3911 44.717L81.5276 3.05362C82.7338 2.34719 83.9932 1.77078 85.2863 1.32464C90.0034 -0.302799 95.169 -0.197148 99.8352 1.65148C100.685 1.98797 101.517 2.3822 102.328 2.83425L177.562 44.7935C178.11 45.0992 178.641 45.4274 179.154 45.7766C184.476 49.4004 187.853 55.286 188.289 61.7332C188.321 62.2044 188.337 62.6786 188.337 63.1552L188.337 230.307C188.337 237.977 184.165 245.037 177.453 248.729L102.216 290.105C95.7894 293.639 87.9871 293.557 81.6356 289.889Z" fill="url(#paint0_linear_6925_63577)" fill-opacity="0.3"/>
</g>
<defs>
<filter id="filter0_b_6925_63577" x="-15.0267" y="-14.8471" width="218.39" height="322.573" filterUnits="userSpaceOnUse" color-interpolation-filters="sRGB">
<feFlood flood-opacity="0" result="BackgroundImageFix"/>
<feGaussianBlur in="BackgroundImage" stdDeviation="7.51337"/>
<feComposite in2="SourceAlpha" operator="in" result="effect1_backgroundBlur_6925_63577"/>
<feBlend mode="normal" in="SourceGraphic" in2="effect1_backgroundBlur_6925_63577" result="shape"/>
</filter>
<linearGradient id="paint0_linear_6925_63577" x1="94.0574" y1="295.797" x2="-110.937" y2="-10.4394" gradientUnits="userSpaceOnUse">
<stop stop-color="#00DC82"/>
<stop offset="0.5" stop-color="#36E4DA"/>
<stop offset="1" stop-color="#0047E1"/>
</linearGradient>
</defs>
</svg>
