<svg width="32" height="32" viewBox="0 0 32 32" fill="none" xmlns="http://www.w3.org/2000/svg">
<path d="M25.3333 8.00033H21.3333V4.00033C21.3333 3.6467 21.1928 3.30756 20.9428 3.05752C20.6928 2.80747 20.3536 2.66699 20 2.66699C19.6464 2.66699 19.3072 2.80747 19.0572 3.05752C18.8071 3.30756 18.6667 3.6467 18.6667 4.00033V8.00033H13.3333V4.00033C13.3333 3.6467 13.1929 3.30756 12.9428 3.05752C12.6928 2.80747 12.3536 2.66699 12 2.66699C11.6464 2.66699 11.3072 2.80747 11.0572 3.05752C10.8071 3.30756 10.6667 3.6467 10.6667 4.00033V8.00033H6.66666C6.31304 8.00033 5.9739 8.1408 5.72385 8.39085C5.4738 8.6409 5.33333 8.98004 5.33333 9.33366C5.33333 9.68728 5.4738 10.0264 5.72385 10.2765C5.9739 10.5265 6.31304 10.667 6.66666 10.667H7.99999V17.3337C7.99898 17.5091 8.03261 17.6831 8.09897 17.8455C8.16532 18.008 8.26309 18.1557 8.38666 18.2803L12 21.8803V28.0003C12 28.3539 12.1405 28.6931 12.3905 28.9431C12.6406 29.1932 12.9797 29.3337 13.3333 29.3337C13.6869 29.3337 14.0261 29.1932 14.2761 28.9431C14.5262 28.6931 14.6667 28.3539 14.6667 28.0003V22.667H17.3333V28.0003C17.3333 28.3539 17.4738 28.6931 17.7239 28.9431C17.9739 29.1932 18.313 29.3337 18.6667 29.3337C19.0203 29.3337 19.3594 29.1932 19.6095 28.9431C19.8595 28.6931 20 28.3539 20 28.0003V21.8803L23.6133 18.2803C23.7369 18.1557 23.8347 18.008 23.901 17.8455C23.9674 17.6831 24.001 17.5091 24 17.3337V10.667H25.3333C25.6869 10.667 26.0261 10.5265 26.2761 10.2765C26.5262 10.0264 26.6667 9.68728 26.6667 9.33366C26.6667 8.98004 26.5262 8.6409 26.2761 8.39085C26.0261 8.1408 25.6869 8.00033 25.3333 8.00033ZM21.3333 16.787L18.12 20.0003H13.88L10.6667 16.787V10.667H21.3333V16.787Z" fill="#A1A1AA"/>
<path d="M17.3333 17.3327H14.6666C14.313 17.3327 13.9738 17.1922 13.7238 16.9422C13.4737 16.6921 13.3333 16.353 13.3333 15.9993C13.3333 15.6457 13.4737 15.3066 13.7238 15.0565C13.9738 14.8065 14.313 14.666 14.6666 14.666H17.3333C17.6869 14.666 18.026 14.8065 18.2761 15.0565C18.5261 15.3066 18.6666 15.6457 18.6666 15.9993C18.6666 16.353 18.5261 16.6921 18.2761 16.9422C18.026 17.1922 17.6869 17.3327 17.3333 17.3327Z" fill="#D4D4D8"/>
</svg>
