<svg width="65" height="70" viewBox="0 0 65 70" fill="none" xmlns="http://www.w3.org/2000/svg">
<g clip-path="url(#clip0_5246_48613)">
<path d="M28.1539 67.3913L3.62178 50.7856C1.35684 49.2525 -8.68202e-07 46.6956 -9.7107e-07 43.9606L-9.91169e-07 43.4262L-3.54137e-06 -24.3782L-3.56118e-06 -24.9049C-3.66351e-06 -27.6257 1.34048 -30.1718 3.58362 -31.7117L28.1167 -48.5528C30.3262 -50.0695 33.0539 -50.1032 35.2902 -48.6414L61.2363 -31.6807C63.5548 -30.1651 64.9523 -27.5821 64.9523 -24.8122L64.9523 -24.2586L64.9523 43.307L64.9523 43.8682C64.9523 46.6521 63.5385 49.2454 61.1986 50.7536L35.2516 67.4784C33.0352 68.907 30.3444 68.874 28.1539 67.3913Z" fill="#00BD6F"/>
</g>
<defs>
<clipPath id="clip0_5246_48613">
<rect width="65" height="70" fill="white"/>
</clipPath>
</defs>
</svg>
