<svg width="71" height="75" viewBox="0 0 71 75" fill="none" xmlns="http://www.w3.org/2000/svg">
<g clip-path="url(#clip0_5246_48557)">
<path d="M30.7754 72.4148L3.95901 54.263C1.48317 52.5871 -9.4904e-07 49.7922 -1.06149e-06 46.8025L-1.08346e-06 46.2183L-3.87111e-06 -27.8994L-3.89276e-06 -28.4751C-4.00462e-06 -31.4493 1.4653 -34.2325 3.9173 -35.9157L30.7347 -54.3248C33.1499 -55.9828 36.1316 -56.0197 38.576 -54.4218L66.938 -35.8819C69.4724 -34.2251 71 -31.4016 71 -28.3738L71 -27.7687L71 46.088L71 46.7015C71 49.7445 69.4546 52.5793 66.8969 54.2279L38.5339 72.51C36.1111 74.0716 33.1698 74.0355 30.7754 72.4148Z" fill="#00DC82"/>
</g>
<defs>
<clipPath id="clip0_5246_48557">
<rect width="71" height="75" fill="white"/>
</clipPath>
</defs>
</svg>
