<svg width="62" height="65" viewBox="0 0 62 65" fill="none" xmlns="http://www.w3.org/2000/svg">
<g clip-path="url(#clip0_5246_48892)">
<path d="M26.8743 63.0101L3.45716 47.1592C1.29516 45.6958 -8.2874e-07 43.2551 -9.26932e-07 40.6444L-9.46118e-07 40.1343L-3.3804e-06 -24.5882L-3.39931e-06 -25.091C-3.49699e-06 -27.6881 1.27955 -30.1185 3.42074 -31.5884L26.8387 -47.664C28.9478 -49.1118 31.5515 -49.144 33.6861 -47.7486L58.4529 -31.5588C60.6661 -30.1121 62 -27.6465 62 -25.0025L62 -24.4741L62 40.0205L62 40.5562C62 43.2135 60.6505 45.6889 58.417 47.1286L33.6493 63.0932C31.5337 64.4569 28.9651 64.4254 26.8743 63.0101Z" fill="#3F3F46"/>
</g>
<defs>
<clipPath id="clip0_5246_48892">
<rect width="62" height="65" fill="white"/>
</clipPath>
</defs>
</svg>
