<svg width="161" height="18" viewBox="0 0 161 18" fill="none" xmlns="http://www.w3.org/2000/svg">
<g clip-path="url(#clip0_1266_1468)">
<path d="M23.915 17.744V0.0768137H30.7002C33.7984 0.0768137 35.9492 2.07397 35.9492 4.91607C35.9492 6.42674 35.2066 7.80939 33.8752 8.55192C35.6419 9.21764 36.6661 10.7283 36.6661 12.6999C36.6661 15.67 34.5665 17.744 31.366 17.744H23.915ZM26.8596 7.55334H30.393C32.0061 7.55334 33.0303 6.58037 33.0303 5.12091C33.0303 3.66145 32.0061 2.66287 30.393 2.66287H26.8596V7.55334ZM26.8596 15.1579H30.7515C32.5438 15.1579 33.7216 14.1593 33.7216 12.5974C33.7216 11.0356 32.5438 10.037 30.7515 10.037H26.8596V15.1579ZM37.9037 11.394C37.9037 7.68137 40.669 4.78805 44.3048 4.78805C46.0971 4.78805 47.6078 5.50498 48.5552 6.734V5.0441H51.2692V17.744H48.5552V16.0541C47.6334 17.2831 46.0971 18 44.3048 18C40.669 18 37.9037 15.1067 37.9037 11.394ZM48.4527 11.394C48.4527 9.11522 46.8397 7.45092 44.6121 7.45092C42.3845 7.45092 40.7458 9.11522 40.7458 11.394C40.7458 13.6728 42.3845 15.3115 44.6121 15.3115C46.8397 15.3115 48.4527 13.6728 48.4527 11.394ZM52.8258 11.394C52.8258 7.68137 55.7191 4.78805 59.5086 4.78805C62.6323 4.78805 64.7575 6.70839 65.5512 8.73115L62.8884 9.75533C62.3763 8.4239 61.0705 7.45092 59.5086 7.45092C57.281 7.45092 55.6679 9.16643 55.6679 11.394C55.6679 13.6216 57.3066 15.3371 59.5086 15.3371C61.0961 15.3371 62.3763 14.3898 62.8884 13.0583L65.5512 14.0569C64.7575 16.1053 62.6323 18 59.5086 18C55.7191 18 52.8258 15.1067 52.8258 11.394ZM67.3692 17.744V0.0768137H70.2113V10.6771L75.1786 5.0441H78.5328L73.2582 11.1124L78.7632 17.744H75.3066L70.2113 11.7013V17.744H67.3692ZM82.669 17.7408V0H86.2141L92.4115 11.6981L98.5822 0H102.048V17.7408H99.1338V5.01316L93.488 15.6828H91.2294L85.5836 5.01316V17.7397H82.669V17.7408ZM103.61 11.3908C103.61 7.67816 106.376 4.78485 110.011 4.78485C111.804 4.78485 113.314 5.50178 114.262 6.7308V5.0409H116.976V17.7408H114.262V16.0509C113.34 17.2799 111.804 17.9968 110.011 17.9968C106.376 17.9968 103.61 15.1035 103.61 11.3908ZM114.159 11.3908C114.159 9.11202 112.546 7.44772 110.319 7.44772C108.091 7.44772 106.452 9.11202 106.452 11.3908C106.452 13.6696 108.091 15.3083 110.319 15.3083C112.546 15.3083 114.159 13.6696 114.159 11.3908ZM118.93 17.7408V5.0409H121.644V6.80761C122.361 5.70661 123.565 5.0409 125.357 5.0409H126.228V7.883H125.024C122.72 7.883 121.772 9.13762 121.772 11.1092V17.7408H118.93ZM127.841 17.7408V0.0725462H130.683V10.6739L135.65 5.0409H139.004L133.73 11.1092L139.235 17.7408H135.778L130.683 11.6981V17.7408H127.841Z" fill="#90A2B9"/>
<path d="M138.565 11.3941C138.565 7.68143 141.407 4.78812 145.018 4.78812C148.628 4.78812 151.367 7.55341 151.367 11.3173C151.367 11.6245 151.367 11.9574 151.316 12.2646H141.382C141.715 14.3386 143.148 15.5164 145.146 15.5164C146.682 15.5164 147.86 14.7483 148.525 13.5961L150.881 14.9275C149.601 16.8479 147.604 18.0001 145.146 18.0001C141.407 18.0001 138.565 15.0811 138.565 11.3941ZM141.458 10.1907H148.5C148.244 8.47517 146.912 7.24615 144.992 7.24615C143.225 7.24615 141.868 8.34715 141.458 10.1907ZM158.433 17.744C155.54 17.744 154.157 16.4894 154.157 13.8521V7.65583H152.058V5.04416H153.517C153.901 5.04416 154.157 4.78812 154.157 4.32723V1.86813H156.999V5.04309H160.379V7.65476H156.999V13.5694C156.999 14.568 157.486 15.0801 158.638 15.0801H160.379V17.743H158.433V17.744ZM18.1672 0.0800781H1.85501C0.997258 0.0800781 0.302734 0.772468 0.302734 1.62809V16.1992C0.302734 17.0548 0.997258 17.7472 1.85501 17.7472H18.1672C19.0239 17.7472 19.7195 17.0538 19.7195 16.1992V1.62809C19.7195 0.773535 19.025 0.0800781 18.1672 0.0800781ZM10.8795 14.2661H7.67791C7.57549 14.2661 7.47841 14.2255 7.40586 14.153L2.28069 9.0278C2.21774 8.96486 2.21774 8.86244 2.28069 8.79843L7.40586 3.67325C7.47841 3.6007 7.57549 3.56016 7.67791 3.56016H10.8795C10.967 3.56016 11.0108 3.66578 10.9489 3.72659L5.87706 8.79843C5.81411 8.86137 5.81411 8.96379 5.87706 9.0278L10.9489 14.0996C11.0108 14.1615 10.967 14.2661 10.8795 14.2661ZM12.5908 9.0278L17.6626 14.0996C17.7245 14.1615 17.6808 14.2661 17.5933 14.2661H14.3916C14.2892 14.2661 14.1921 14.2255 14.1196 14.153L8.99441 9.02674C8.93147 8.96379 8.93147 8.86137 8.99441 8.79736L14.1196 3.67218C14.1921 3.59964 14.2892 3.5591 14.3916 3.5591H17.5933C17.6808 3.5591 17.7245 3.66472 17.6626 3.72553L12.5908 8.79736C12.5278 8.86031 12.5278 8.96272 12.5908 9.02674V9.0278Z" fill="#90A2B9"/>
</g>
<defs>
<clipPath id="clip0_1266_1468">
<rect width="160.076" height="18" fill="white" transform="translate(0.302734)"/>
</clipPath>
</defs>
</svg>
