<svg width="93" height="28" viewBox="0 0 93 28" fill="none" xmlns="http://www.w3.org/2000/svg">
<g clip-path="url(#clip0_1266_1457)">
<path fill-rule="evenodd" clip-rule="evenodd" d="M13.5641 0.338992C15.9399 0.254143 18.7399 0.763234 19.249 2.37536C20.0974 5.09051 15.7702 9.07839 12.0368 11.0299C11.1035 11.539 10.5944 11.6238 10.3399 11.6238C10.0853 11.6238 10.0853 11.3693 10.1702 11.1996C10.3399 10.9451 10.9338 10.3511 11.6974 9.67233C15.9399 6.36323 17.2974 3.90263 16.5338 2.96929C16.0247 2.37536 13.9035 1.86626 11.6126 1.86626C11.0187 1.86626 9.40653 2.03596 9.23684 1.44202C9.15199 1.01778 11.2732 0.42384 13.5641 0.338992Z" fill="#90A2B9"/>
<path fill-rule="evenodd" clip-rule="evenodd" d="M8.64304 12.8953C10.6794 12.8104 13.14 13.1498 14.4976 14.168C15.1764 14.6771 15.6855 15.6953 15.3461 16.7983C14.5824 19.9377 11.6127 23.7559 4.99455 26.6408C2.87334 27.5741 1.26122 27.9135 0.921824 27.6589C0.58243 27.4044 1.60061 25.2832 1.94001 24.6044C2.95819 22.3983 4.31576 20.1923 5.58849 18.2408C6.09758 17.4771 6.77637 16.2044 7.45516 16.3741C8.0491 16.4589 7.37031 17.8165 6.86122 18.665C6.09758 20.1074 3.97637 24.0953 4.65516 24.3498C6.18243 24.8589 13.3946 19.3438 12.3764 16.2892C11.8673 14.8468 8.72788 14.762 6.77637 14.762C5.84304 14.762 3.89152 15.0165 3.80667 14.2529C3.72182 13.6589 6.77637 12.9801 8.64304 12.8953Z" fill="#90A2B9"/>
<path fill-rule="evenodd" clip-rule="evenodd" d="M24.2551 9.50376C25.443 9.75831 26.4612 9.92801 26.7157 10.4371C26.9703 11.031 25.6127 11.031 25.0188 11.031C21.7945 11.1159 19.9279 11.1159 19.7582 12.2189C19.6733 13.5765 21.1157 15.0189 22.5582 16.9704C23.9157 18.7522 25.443 20.5341 25.0188 22.231C24.5097 24.2674 21.9642 24.7765 19.5036 24.7765C17.2127 24.7765 15.0066 24.4371 14.0733 24.2674C12.8854 24.0129 13.14 23.5038 13.3945 23.3341C13.7339 23.1644 15.6854 23.1644 17.043 23.0795C18.146 22.9098 21.3703 22.9098 21.8794 22.0613C22.4733 21.0432 20.946 19.3462 19.5885 17.4795C17.8915 15.1886 15.94 12.8977 16.9582 11.1159C18.3157 8.99467 22.1339 9.07952 24.2551 9.50376Z" fill="#90A2B9"/>
<path fill-rule="evenodd" clip-rule="evenodd" d="M74.1459 15.6965C76.6914 15.6965 77.7096 14.848 78.1338 12.8117L78.7277 9.67229C78.7277 9.50259 78.6429 9.41774 78.4732 9.41774H77.2005L76.8611 11.1996L76.6914 12.1329L76.5217 12.9814C76.2671 14.1693 75.5884 14.6783 74.3156 14.6783C72.9581 14.6783 72.5338 14.1693 72.7884 12.9814C72.7884 12.9814 72.8732 12.7268 72.8732 12.642L73.1278 11.1996L73.4671 9.41774H72.1944C72.0247 9.41774 71.855 9.50259 71.855 9.67229L71.2611 12.8117C70.8368 15.0177 71.9399 15.6965 74.1459 15.6965ZM30.449 19.1753C30.2793 20.0238 30.958 20.448 32.3156 21.2965C33.8429 22.2299 34.1823 22.3147 34.0126 22.8238C33.9277 23.248 33.5035 23.248 32.8247 23.248H30.1096C29.7702 23.248 29.6005 23.3329 29.6005 23.6723L29.5156 24.1814H32.9096C34.4368 24.1814 35.455 24.0965 35.7944 23.1632C35.9641 22.739 35.9641 22.2299 35.5399 21.7208C35.2853 21.4662 35.0308 21.2965 34.6065 21.042C32.655 19.939 32.1459 19.8541 32.2308 19.2602C32.3156 18.9208 32.4853 18.9208 33.249 18.9208H35.5399C35.8793 18.9208 36.049 18.8359 36.049 18.4965L36.1338 17.9026H33.249C31.7217 17.9874 30.7035 17.9874 30.449 19.1753ZM45.552 19.1753C45.3823 20.0238 46.0611 20.448 47.4187 21.2965C48.9459 22.2299 49.2853 22.3147 49.1156 22.8238C49.0308 23.248 48.6065 23.248 47.9277 23.248H45.2126C44.8732 23.248 44.7035 23.3329 44.7035 23.6723L44.6187 24.2662H48.0126C49.5399 24.2662 50.5581 24.1814 50.8974 23.248C51.0671 22.8238 51.0671 22.3147 50.6429 21.8056C50.3884 21.5511 50.1338 21.3814 49.7096 21.1268C47.758 20.0238 47.249 19.939 47.3338 19.345C47.4187 19.0056 47.5884 19.0056 48.352 19.0056H50.6429C50.9823 19.0056 51.152 18.9208 51.152 18.5814L51.2368 17.9874H48.352C46.7399 17.9874 45.8065 17.9874 45.552 19.1753ZM83.649 19.1753C83.4793 20.0238 84.1581 20.448 85.5156 21.2965C87.0429 22.2299 87.3823 22.3147 87.2126 22.8238C87.1277 23.248 86.7035 23.248 86.0247 23.248H83.3096C82.9702 23.248 82.8005 23.3329 82.8005 23.6723L82.7156 24.2662H86.1096C87.6368 24.2662 88.655 24.1814 88.9944 23.248C89.1641 22.8238 89.1641 22.3147 88.7399 21.8056C88.4853 21.5511 88.2308 21.3814 87.8065 21.1268C85.855 20.0238 85.3459 19.939 85.4308 19.345C85.5156 19.0056 85.6853 19.0056 86.449 19.0056H88.7399C89.0793 19.0056 89.249 18.9208 89.249 18.5814L89.3338 17.9874H86.449C84.8368 17.9874 83.9035 17.9874 83.649 19.1753ZM61.1641 14.5087C61.3338 14.0844 61.3338 13.5753 60.9096 13.0662C60.655 12.8117 60.4005 12.642 59.9762 12.3874C58.0247 11.2844 57.5156 11.1996 57.6005 10.6056C57.6853 10.2662 57.855 10.2662 58.6187 10.2662H60.9096C61.249 10.2662 61.4187 10.1814 61.4187 9.84199L61.5035 9.24805H58.6187C57.0065 9.24805 55.9884 9.24805 55.7338 10.4359C55.5641 11.2844 56.2429 11.7087 57.6005 12.5571C59.1277 13.4905 59.4671 13.5753 59.2974 14.0844C59.2126 14.5087 58.7884 14.5087 58.1096 14.5087H55.3944C55.055 14.5087 54.8853 14.5935 54.8853 14.9329L54.8005 15.5268H58.1944C59.8065 15.6117 60.7399 15.442 61.1641 14.5087ZM53.8671 14.5087C54.0368 14.0844 54.0368 13.5753 53.6126 13.0662C53.3581 12.8117 53.1035 12.642 52.6793 12.3874C50.7277 11.2844 50.2187 11.1996 50.3035 10.6056C50.3884 10.2662 50.5581 10.2662 51.3217 10.2662H53.6126C53.952 10.2662 54.1217 10.1814 54.1217 9.84199L54.2065 9.24805H51.3217C49.7096 9.24805 48.6914 9.24805 48.4368 10.4359C48.2671 11.2844 48.9459 11.7087 50.3035 12.5571C51.8308 13.4905 52.1702 13.5753 52.0005 14.0844C51.9156 14.5087 51.4914 14.5087 50.8126 14.5087H48.1823C47.8429 14.5087 47.6732 14.5935 47.6732 14.9329L47.5884 15.5268H50.9823C52.5096 15.6117 53.5277 15.442 53.8671 14.5087ZM85.6005 9.3329C85.2611 9.3329 85.0914 9.41774 85.0914 9.67229L85.0065 10.2662H87.4671L86.449 15.5268H87.552C87.8914 15.5268 88.0611 15.442 88.0611 15.1026L88.9944 10.2662H91.0308C91.2853 10.2662 91.455 10.0965 91.455 9.92683L91.5399 9.3329H85.6005ZM32.3156 11.1147C32.1459 11.1147 32.0611 11.1996 32.0611 11.2844L31.2126 15.5268H34.8611C36.8974 15.5268 38.3399 14.7632 38.7641 12.3874C39.1035 10.6056 38.3399 9.3329 36.2187 9.3329H31.8065V9.41774C31.7217 9.84199 31.7217 10.2662 32.4853 10.2662H35.7096C37.2368 10.2662 37.4914 11.0299 37.152 12.3874C36.8126 13.745 36.3035 14.4238 35.1156 14.5087H32.9096L33.5884 10.945H32.3156V11.1147ZM84.752 15.0177C84.8368 14.7632 84.6671 14.6783 84.4974 14.6783H81.1884L82.2065 9.67229C82.2065 9.58744 82.1217 9.50259 82.0368 9.50259H80.6793L79.4914 15.6965H84.752V15.0177ZM74.8247 17.9874H73.3823L70.6671 20.3632L68.8853 17.9026H67.4429C67.1884 17.9026 67.1035 18.0723 67.0187 18.3268L65.9156 24.0965H67.1035C67.3581 24.0965 67.5277 24.0117 67.5277 23.7571L68.3762 19.4299L69.7338 21.3814C69.7338 21.4662 69.9035 21.5511 70.0732 21.5511H70.6671C70.8368 21.5511 71.0065 21.4662 71.0914 21.3814L73.2126 19.4299L72.3641 23.7571C72.2793 24.0117 72.449 24.0965 72.7035 24.0965H73.8914L74.9944 18.3268C75.0793 18.1571 74.9944 17.9874 74.8247 17.9874ZM59.8914 18.4117L58.7884 24.1814H64.5581L64.6429 23.5874C64.7277 23.3329 64.6429 23.248 64.3035 23.248H60.4853L60.8247 21.5511H64.2187C64.3035 21.5511 64.3884 21.4662 64.3884 21.3814L64.5581 20.7026C64.5581 20.6177 64.558 20.5329 64.4732 20.5329H61.0793L61.4187 18.8359H65.0671C65.2368 18.8359 65.4065 18.8359 65.4914 18.5814L65.6611 17.8177H60.4853C60.1459 17.9874 59.9762 18.0723 59.8914 18.4117ZM76.9459 18.4117L75.8429 24.1814H81.6126L81.6974 23.5874C81.7823 23.3329 81.6974 23.248 81.3581 23.248H77.5399L77.8793 21.5511H81.2732C81.3581 21.5511 81.4429 21.4662 81.4429 21.3814L81.6126 20.7026C81.6126 20.6177 81.6126 20.5329 81.5278 20.5329H78.1338L78.4732 18.8359H82.1217C82.2914 18.8359 82.4611 18.8359 82.5459 18.5814L82.7156 17.8177H77.5399C77.2005 17.9874 77.0308 18.0723 76.9459 18.4117ZM42.4974 18.1571L41.9884 20.9571C41.055 21.2117 38.5096 21.8056 38.9338 19.7693L39.2732 17.9026H38.0005C37.8308 17.9026 37.7459 17.9874 37.7459 18.0723L37.4065 19.7693C36.8126 22.9935 39.8671 22.5693 41.8187 21.9753L41.3944 24.1814H42.4974C42.8368 24.1814 43.0065 24.0965 43.0065 23.7571L44.1096 17.9874H42.752C42.6671 17.9874 42.5823 18.0723 42.4974 18.1571ZM58.958 18.5814L59.0429 17.9874H53.1035C52.7641 17.9874 52.5944 18.0723 52.5944 18.3268L52.4247 18.9208H54.8853L53.8671 24.1814H54.9702C55.3096 24.1814 55.4793 24.0965 55.4793 23.7571L56.4126 18.9208H58.449C58.7884 18.9208 58.8732 18.8359 58.958 18.5814ZM41.8187 11.9632C42.0732 10.7753 42.752 10.3511 44.0247 10.3511C45.3823 10.3511 45.7217 10.8602 45.4671 11.9632C45.4671 11.9632 45.3823 12.2177 45.3823 12.3026C45.3823 12.4723 45.2974 12.7268 44.9581 12.7268H41.649L41.8187 11.9632ZM39.952 15.6117H41.1399L41.4793 13.8299H45.1277L44.7884 15.6117H45.9762C46.1459 15.6117 46.3156 15.5268 46.3156 15.3571L46.9096 12.2177C47.3338 9.84199 45.9762 9.3329 44.1944 9.3329C41.9884 9.3329 40.8005 9.84199 40.2914 12.2177L39.6974 15.2723C39.6974 15.5268 39.7823 15.6117 39.952 15.6117ZM64.6429 11.9632C64.8974 10.7753 65.5762 10.3511 66.849 10.3511C68.2065 10.3511 68.5459 10.8602 68.2914 11.9632C68.2914 11.9632 68.2065 12.2177 68.2065 12.3026C68.2065 12.4723 68.1217 12.7268 67.7823 12.7268H64.4732L64.6429 11.9632ZM62.7762 15.6117H63.9641L64.3035 13.8299H67.952L67.6126 15.6117H68.8005C68.9702 15.6117 69.1399 15.5268 69.1399 15.3571L69.7338 12.2177C70.1581 9.84199 68.8005 9.3329 67.0187 9.3329C64.8126 9.3329 63.6247 9.84199 63.1156 12.2177L62.5217 15.2723C62.5217 15.5268 62.6065 15.6117 62.7762 15.6117Z" fill="#90A2B9"/>
</g>
<defs>
<clipPath id="clip0_1266_1457">
<rect width="91.6364" height="28" fill="white" transform="translate(0.666992)"/>
</clipPath>
</defs>
</svg>
