<svg width="89" height="28" viewBox="0 0 89 28" fill="none" xmlns="http://www.w3.org/2000/svg">
<path d="M2.7319 15.8541L2.72879 9.84341C2.72879 9.21341 2.72879 8.56163 2.99168 7.93785C3.32068 7.1523 3.92501 6.50674 4.65145 6.16452C5.07494 5.96677 5.53663 5.86429 6.00401 5.8643C6.45947 5.86427 6.90988 5.95978 7.32613 6.14466C7.74238 6.32954 8.11522 6.59968 8.42057 6.93763L10.0018 5.75074C9.51626 5.16469 8.90674 4.69369 8.21716 4.3717C7.52759 4.04971 6.77516 3.88476 6.01412 3.88874C5.1819 3.88874 4.36679 4.08163 3.65512 4.44874C2.67245 4.95843 1.87014 5.75776 1.35679 6.73852C1.11685 7.18787 0.953854 7.67422 0.874566 8.17741C0.81907 8.51044 0.787877 8.84707 0.781233 9.18463V9.55796L0.777344 9.54785V23.6847H2.72957V17.776L7.30601 17.7736L7.30134 15.8471L2.7319 15.8541Z" fill="#90A2B9"/>
<path d="M9.18066 11.5279L9.19 23.7235H11.1516L11.1461 11.5279H9.18144M9.97633 7.80468C9.74024 7.90565 9.53899 8.07372 9.39755 8.28803C9.2561 8.50234 9.18069 8.75346 9.18066 9.01023C9.183 9.53679 9.50266 10.0136 9.97633 10.2158C10.2497 10.3298 10.5544 10.3448 10.8377 10.2582C11.121 10.1716 11.3651 9.98878 11.528 9.74134C11.6679 9.52353 11.7424 9.27021 11.7429 9.01135C11.7433 8.75249 11.6695 8.49893 11.5303 8.28068C11.3664 8.03371 11.122 7.85126 10.8386 7.76445C10.5552 7.67765 10.2504 7.69186 9.97633 7.80468ZM28.2798 23.7655H30.2351L30.2538 4.65234H28.2782V23.7655M47.1191 12.5483C46.9196 12.0693 46.632 11.6319 46.2713 11.2588C45.5915 10.5603 44.6881 10.1227 43.7187 10.0221C42.8825 9.9389 41.9998 10.0921 41.2764 10.5355C40.8308 10.8077 40.4769 11.1732 40.1269 11.5598C39.9866 11.3987 39.8413 11.2421 39.6913 11.09C39.4287 10.8292 39.1253 10.613 38.793 10.4499C37.9375 10.0353 36.9661 9.92554 36.0397 10.1388C35.293 10.3076 34.607 10.691 34.0664 11.2463C33.522 11.8063 33.1409 12.5219 32.9791 13.2919C32.8982 13.6912 32.8591 14.0978 32.8624 14.5052V23.7553L34.7867 23.7585L34.7843 14.4912C34.7843 14.1568 34.7937 13.8083 34.8699 13.4817C34.9876 12.9816 35.287 12.543 35.7099 12.2512C36.1719 11.9362 36.7544 11.8507 37.2997 11.9222C37.6116 11.9625 37.9108 12.0708 38.1764 12.2393C38.4419 12.4078 38.6673 12.6325 38.8365 12.8976C39.1049 13.3098 39.2068 13.7656 39.2099 14.2556L39.2208 23.7522L41.1637 23.7546L41.1613 14.4835C41.1613 14.1233 41.18 13.7679 41.299 13.4241C41.3881 13.1533 41.532 12.9038 41.7218 12.691C41.9115 12.4783 42.143 12.3068 42.4019 12.1875C42.9276 11.9551 43.5231 11.9365 44.0624 12.1353C44.6116 12.3349 45.0606 12.7417 45.3131 13.2686C45.5052 13.6761 45.5387 14.1195 45.5387 14.5628L45.5402 23.7561L47.459 23.7585V14.814C47.459 14.4407 47.4536 14.0673 47.4092 13.6995C47.365 13.3043 47.2679 12.917 47.1191 12.5483ZM59.3419 19.9217C58.8916 20.4762 58.3238 20.9238 57.6796 21.2324C57.0353 21.5409 56.3306 21.7026 55.6163 21.7059C54.1969 21.7012 52.7946 21.023 51.8939 19.9092C51.2172 19.0755 50.7583 17.8855 50.7894 16.7958C50.8252 15.6431 51.1783 14.548 51.8993 13.6575C52.5954 12.7926 53.6042 12.2046 54.6776 11.9821C55.7726 11.7614 56.9103 11.9306 57.8937 12.4605C59.1653 13.1465 60.0668 14.4026 60.3483 15.836C60.4844 16.5494 60.4651 17.2838 60.2915 17.989C60.118 18.6942 59.7943 19.3537 59.3427 19.9225L59.3419 19.9217ZM61.4963 13.4723C60.9865 12.5983 60.2966 11.8428 59.4725 11.2557C58.4039 10.4935 57.1345 10.0408 55.8271 10.0035C54.6274 9.9684 53.4402 10.2558 52.3893 10.8357C51.2615 11.4707 50.3382 12.4142 49.7278 13.5556C49.242 14.4591 48.963 15.4593 48.9111 16.4839C48.8653 17.5041 49.0377 18.5223 49.4167 19.4706C49.8634 20.5806 50.5927 21.5544 51.5322 22.2955C52.639 23.1627 54.0406 23.6332 55.4336 23.6799C56.6827 23.7188 57.91 23.3843 58.9903 22.7528C59.5099 22.4518 59.9625 22.0629 60.3903 21.6437V23.7312H62.3114V17.4577C62.3114 16.9171 62.2982 16.3719 62.257 15.8321C62.1909 14.9882 61.9187 14.2011 61.4963 13.4708V13.4723ZM73.3271 11.7573C72.6841 11.0241 71.8469 10.4875 70.9121 10.2096C69.9334 9.92791 68.8948 9.93061 67.9177 10.2173C67.0226 10.4932 66.2168 11.0019 65.5828 11.6912C64.9714 12.3523 64.5017 13.1846 64.3197 14.079C64.2337 14.4831 64.1884 14.8948 64.1843 15.3079L64.189 23.7235H66.0914L66.0891 15.9713C66.0922 15.7271 66.0922 15.4829 66.1 15.2387C66.1084 14.826 66.1961 14.4189 66.3582 14.0393C66.6849 13.2678 67.29 12.595 68.0444 12.2388C68.5081 12.0243 69.0153 11.9208 69.5259 11.9365C70.0365 11.9521 70.5364 12.0865 70.986 12.329C71.6233 12.6764 72.1349 13.2158 72.4482 13.8706C72.6893 14.3707 72.7827 14.9392 72.7827 15.4915L72.7889 23.725H74.7007L74.703 15.759C74.703 15.1446 74.6594 14.52 74.5008 13.925C74.2823 13.1222 73.8812 12.3809 73.3287 11.7589M87.4119 13.6746C87.132 12.8115 86.6399 12.0324 85.9808 11.4089C85.1556 10.6269 84.0942 10.1408 82.963 10.0268C81.9635 9.92723 80.9485 10.0968 80.051 10.5596C79.0658 11.0698 78.2615 11.8709 77.7472 12.854C77.5074 13.3042 77.3444 13.7913 77.265 14.2952C77.2183 14.6273 77.1717 14.9688 77.1717 15.3063L77.1755 23.7219H79.0811L79.0764 15.969C79.0764 15.3056 79.0796 14.6623 79.3424 14.0378C79.6668 13.2639 80.2742 12.5911 81.0302 12.2357C81.4935 12.0212 82.0005 11.9177 82.5108 11.9332C83.0211 11.9487 83.5208 12.0829 83.9702 12.3251C84.6079 12.6719 85.12 13.2107 85.434 13.8651C85.6751 14.366 85.7684 14.9346 85.7684 15.4868L85.7739 23.7203H87.6888V15.7551C87.6911 15.0551 87.6281 14.3419 87.4127 13.6738M14.9471 15.8796C15.1167 15.2729 15.3103 14.688 15.6526 14.1568C16.2281 13.2655 17.0572 12.5662 18.0497 12.2061C19.1062 11.8221 20.2631 11.8152 21.3241 12.1867C22.2303 12.5191 23.0191 13.11 23.5929 13.8861C24.0704 14.5239 24.289 15.1088 24.4617 15.8788H14.9487L14.9471 15.8796ZM25.3118 13.0306C24.6569 12.0521 23.7578 11.2339 22.7101 10.7105C21.5513 10.1302 20.2491 9.89843 18.9612 10.0431C17.7014 10.1901 16.5097 10.6933 15.5258 11.4937C14.5107 12.3298 13.7507 13.4342 13.3324 14.681C12.8969 15.9752 12.9171 17.3783 13.2298 18.6982C13.4553 19.6533 13.9376 20.4996 14.5582 21.2439C15.266 22.0901 16.1324 22.7792 17.1459 23.2016C18.303 23.6772 19.5673 23.8305 20.8046 23.6449C21.8802 23.4816 22.9022 23.0118 23.764 22.3382C24.4539 21.8016 25.003 21.1249 25.5218 20.4233L23.8542 19.4052C23.652 19.7568 23.4187 20.0897 23.127 20.3697C22.4099 21.0603 21.5193 21.5558 20.5448 21.7285C19.6517 21.8869 18.7319 21.7843 17.8957 21.4329C16.8706 21.0012 15.9746 20.169 15.4457 19.1789C15.2123 18.7418 15.0996 18.2891 15.0101 17.8053H26.3976C26.4728 17.239 26.4833 16.666 26.4287 16.0973C26.3082 14.9997 25.9245 13.9474 25.3102 13.0298L25.3118 13.0306Z" fill="#90A2B9"/>
</svg>
