<svg xmlns="http://www.w3.org/2000/svg" width="67" height="23" fill="#90A2B9" viewBox="0 0 25 9"><path d="m8.84 6.5.67-2.01.66 2H8.84ZM6.3 8.51h1.72l.33-.94h2.28l.33.94h1.7L10.5 2.5H8.67L6.3 8.52Zm8.57-3.04 2.25 3.04h1.4V2.5h-1.62v3.28L14.88 2.5h-1.56v6.02h1.56V5.48ZM0 0l3.03 8.53h1.8L7.6 1.47h17.2L24.95 0H6.27l-2.3 5.85L1.9 0H0Zm24.42 4.2h-1.44c-.14-.36-.3-.63-1.1-.63-.57 0-.8.23-.8.46 0 .25.2.47.81.6l1.3.36c.87.23 1.28.91 1.28 1.63 0 .4-.08.9-.46 1.29-.29.3-.72.69-2.14.69-1.96 0-2.6-1.25-2.6-2h1.52c.15.55.53.76 1.27.76.51 0 .96-.18.96-.58 0-.38-.32-.52-.74-.63l-1.03-.28c-.5-.15-.92-.28-1.21-.53a1.56 1.56 0 0 1 .12-2.45c.47-.35.94-.52 1.7-.52.88 0 1.4.25 1.79.53.35.24.77.83.77 1.3Z" /></svg>