<svg width="796" height="238" viewBox="0 0 796 238" fill="none" xmlns="http://www.w3.org/2000/svg">
<rect width="796" height="238" fill="white"/>
<path d="M106.13 117.37C104.528 115.109 102.124 113.215 98.9183 111.689C95.7129 110.162 92.4503 109.399 89.1305 109.399C85.3528 109.399 82.033 110.162 79.1711 111.689C76.3092 113.215 73.9339 115.222 72.045 117.709C70.1561 120.196 68.7538 122.994 67.838 126.103C66.9222 129.212 66.4643 132.35 66.4643 135.515C66.4643 138.681 66.9508 141.818 67.9239 144.927C68.8969 148.036 70.3565 150.834 72.3026 153.322C74.2487 155.809 76.6813 157.816 79.6004 159.342C82.5196 160.868 85.9252 161.631 89.8174 161.631C93.0227 161.631 96.2281 161.01 99.4334 159.766C102.639 158.522 105.214 156.713 107.161 154.339L120.039 167.228C116.605 170.845 112.226 173.644 106.903 175.622C101.58 177.601 95.8274 178.59 89.6457 178.59C83.5785 178.59 77.826 177.629 72.3884 175.707C66.9508 173.785 62.2001 170.958 58.1362 167.228C54.0722 163.497 50.8669 158.975 48.5201 153.661C46.1734 148.347 45 142.299 45 135.515C45 128.958 46.1734 123.023 48.5201 117.709C50.8669 112.395 54.0436 107.873 58.0503 104.142C62.057 100.411 66.7219 97.5284 72.045 95.4934C77.3681 93.4584 83.0633 92.4409 89.1305 92.4409C95.1978 92.4409 101.065 93.5715 106.731 95.8326C112.398 98.0937 116.891 101.203 120.211 105.16L106.13 117.37Z" fill="#222222"/>
<path d="M128.893 135.176C128.893 128.732 130.067 122.881 132.413 117.624C134.76 112.367 137.937 107.873 141.944 104.142C145.95 100.411 150.701 97.5284 156.196 95.4934C161.691 93.4584 167.529 92.4409 173.711 92.4409C179.892 92.4409 185.731 93.4584 191.226 95.4934C196.72 97.5284 201.471 100.411 205.478 104.142C209.484 107.873 212.661 112.367 215.008 117.624C217.355 122.881 218.528 128.732 218.528 135.176C218.528 141.62 217.355 147.499 215.008 152.813C212.661 158.127 209.484 162.677 205.478 166.464C201.471 170.252 196.72 173.22 191.226 175.368C185.731 177.516 179.892 178.59 173.711 178.59C167.529 178.59 161.691 177.516 156.196 175.368C150.701 173.22 145.95 170.252 141.944 166.464C137.937 162.677 134.76 158.127 132.413 152.813C130.067 147.499 128.893 141.62 128.893 135.176ZM149.842 135.176C149.842 138.342 150.329 141.507 151.302 144.673C152.275 147.838 153.735 150.665 155.681 153.152C157.627 155.639 160.088 157.674 163.064 159.257C166.041 160.84 169.59 161.631 173.711 161.631C177.832 161.631 181.381 160.84 184.357 159.257C187.333 157.674 189.795 155.639 191.741 153.152C193.687 150.665 195.146 147.838 196.119 144.673C197.092 141.507 197.579 138.342 197.579 135.176C197.579 132.011 197.092 128.873 196.119 125.764C195.146 122.655 193.687 119.857 191.741 117.37C189.795 114.883 187.333 112.876 184.357 111.35C181.381 109.823 177.832 109.06 173.711 109.06C169.59 109.06 166.041 109.823 163.064 111.35C160.088 112.876 157.627 114.883 155.681 117.37C153.735 119.857 152.275 122.655 151.302 125.764C150.329 128.873 149.842 132.011 149.842 135.176Z" fill="#222222"/>
<path d="M318.554 176.206H298.979V163.996H298.635C295.773 168.744 291.795 172.362 286.701 174.849C281.607 177.336 276.141 178.58 270.302 178.58C264.006 178.58 258.368 177.421 253.389 175.104C248.409 172.786 244.173 169.677 240.682 165.776C237.19 161.876 234.5 157.297 232.611 152.04C230.722 146.783 229.778 141.158 229.778 135.166C229.778 129.174 230.751 123.578 232.697 118.378C234.643 113.177 237.39 108.655 240.939 104.811C244.488 100.967 248.724 97.9426 253.646 95.738C258.569 93.5334 263.949 92.4311 269.787 92.4311C273.565 92.4311 276.942 92.8551 279.918 93.703C282.895 94.5509 285.499 95.5967 287.731 96.8403C289.964 98.0839 291.881 99.4406 293.484 100.91C295.086 102.38 296.403 103.793 297.433 105.15H297.948V48H318.554V176.206ZM250.727 135.166C250.727 138.332 251.213 141.498 252.187 144.663C253.16 147.829 254.619 150.655 256.565 153.142C258.511 155.63 260.973 157.665 263.949 159.247C266.925 160.83 270.417 161.622 274.424 161.622C278.201 161.622 281.578 160.858 284.555 159.332C287.531 157.806 290.078 155.799 292.196 153.312C294.314 150.825 295.916 148.027 297.004 144.917C298.091 141.808 298.635 138.671 298.635 135.506C298.635 132.34 298.091 129.174 297.004 126.009C295.916 122.843 294.314 120.017 292.196 117.53C290.078 115.042 287.531 113.007 284.555 111.425C281.578 109.842 278.201 109.05 274.424 109.05C270.417 109.05 266.925 109.814 263.949 111.34C260.973 112.866 258.511 114.873 256.565 117.36C254.619 119.847 253.16 122.645 252.187 125.754C251.213 128.864 250.727 132.001 250.727 135.166Z" fill="#222222"/>
<path d="M340.66 94.8016H361.266V176.202H340.66V94.8016ZM337.741 67.1593C337.741 63.8807 338.972 61.026 341.433 58.5953C343.894 56.1646 347.014 54.9492 350.791 54.9492C354.569 54.9492 357.746 56.1081 360.321 58.4257C362.897 60.7434 364.185 63.6546 364.185 67.1593C364.185 70.664 362.897 73.5752 360.321 75.8929C357.746 78.2106 354.569 79.3694 350.791 79.3694C347.014 79.3694 343.894 78.154 341.433 75.7233C338.972 73.2926 337.741 70.4379 337.741 67.1593Z" fill="#222222"/>
<path d="M374.555 111.078V94.798H388.979V71.2258H409.241V94.798H429.847V111.078H409.241V148.895C409.241 152.513 409.899 155.509 411.216 157.883C412.532 160.258 415.48 161.445 420.059 161.445C421.433 161.445 422.921 161.303 424.524 161.021C426.127 160.738 427.557 160.314 428.817 159.749L429.504 175.69C427.672 176.368 425.497 176.905 422.978 177.301C420.46 177.696 418.056 177.894 415.766 177.894C410.272 177.894 405.807 177.131 402.373 175.605C398.938 174.079 396.22 171.987 394.216 169.33C392.213 166.674 390.839 163.621 390.095 160.173C389.351 156.725 388.979 153.022 388.979 149.065V111.078H374.555Z" fill="#222222"/>
<path d="M445.084 94.8016H465.69V176.202H445.084V94.8016ZM442.165 67.1593C442.165 63.8807 443.396 61.026 445.857 58.5953C448.318 56.1646 451.438 54.9492 455.216 54.9492C458.993 54.9492 462.17 56.1081 464.746 58.4257C467.321 60.7434 468.609 63.6546 468.609 67.1593C468.609 70.664 467.321 73.5752 464.746 75.8929C462.17 78.2106 458.993 79.3694 455.216 79.3694C451.438 79.3694 448.318 78.154 445.857 75.7233C443.396 73.2926 442.165 70.4379 442.165 67.1593Z" fill="#222222"/>
<path d="M478.271 94.801H500.765L522.401 154.156H522.744L544.552 94.801H566.36L533.562 176.201H511.583L478.271 94.801Z" fill="#222222"/>
<path d="M637.047 127.375C637.047 124.775 636.675 122.288 635.93 119.914C635.186 117.539 634.013 115.448 632.41 113.639C630.808 111.83 628.776 110.389 626.314 109.315C623.853 108.241 620.963 107.704 617.643 107.704C611.461 107.704 606.224 109.541 601.931 113.215C597.638 116.889 595.263 121.609 594.805 127.375H637.047ZM657.652 136.533V139.246C657.652 140.151 657.595 141.055 657.481 141.96H594.805C595.034 144.899 595.807 147.584 597.123 150.015C598.44 152.446 600.185 154.537 602.36 156.289C604.535 158.042 606.997 159.427 609.744 160.444C612.491 161.462 615.353 161.97 618.33 161.97C623.481 161.97 627.831 161.038 631.38 159.172C634.929 157.307 637.848 154.735 640.137 151.456L653.875 162.31C645.747 173.163 633.956 178.59 618.501 178.59C612.091 178.59 606.195 177.601 600.815 175.622C595.435 173.644 590.77 170.845 586.82 167.228C582.871 163.61 579.78 159.172 577.548 153.915C575.315 148.658 574.199 142.694 574.199 136.024C574.199 129.467 575.315 123.503 577.548 118.133C579.78 112.763 582.842 108.184 586.734 104.397C590.627 100.609 595.234 97.6698 600.557 95.5782C605.88 93.4867 611.633 92.4409 617.815 92.4409C623.538 92.4409 628.833 93.3736 633.698 95.2391C638.563 97.1045 642.77 99.8744 646.319 103.549C649.868 107.223 652.644 111.802 654.647 117.285C656.651 122.768 657.652 129.184 657.652 136.533Z" fill="#222222"/>
<path d="M751 189H665V208H751V189Z" fill="#00FF00"/>
</svg>
