<svg width="500" height="86" fill="none" xmlns="http://www.w3.org/2000/svg"><g clip-path="url(#drunomics primary logo__a)"><path d="M372.018 1.292v13.016h14.16V1.292h-14.16Zm-331.32.283c-1.976.905-2.794 2.84-2.794 6.54v13.708c0 3.247.942 5.469 2.625 6.45 2.539 1.48 5.108 1.451 7.512.425 2.023-.863 3.118-3.177 3.118-6.875V8.115c0-3.228-1.01-5.538-2.542-6.444-2.217-1.31-5.21-1.334-7.918-.096Zm148.716 20.122c-4.46 0-8.384.675-11.665 2.012-1.564.639-2.894 1.472-3.992 2.484l-.437-2.892h-12.974v34.898l14.128-.88s-.218-11.158-.312-15.563c-.047-2.184.208-4.3 1.341-5.91 1.33-1.893 3.945-2.238 5.863-2.547 1.726-.278 3.872-.37 6.362-.408 1.532-.026 3.122-.11 4.461.345 2.32.788 2.379 3.518 2.495 5.376.374 6.002.217 17.45.217 17.45l14.128-.88v-4.56c.026-4.234-.104-8.519-.529-12.418-.219-1.98-.524-3.669-.936-5.03-.408-1.349-.972-2.669-1.622-3.963-.724-1.436-1.628-2.618-2.714-3.52a16.905 16.905 0 0 0-3.523-2.233c-1.367-.65-2.951-1.111-4.679-1.384-1.641-.257-3.533-.378-5.612-.377Zm42.229 1.225c-3.338.582-6.419 2.628-8.234 5.094-2.216 3.007-3.098 6.757-3.524 9.966-.759 5.699-.748 16.57-.748 16.57l14.127-.881s-.403-13.115.53-17.889c.237-1.213.666-1.533 1.466-1.918.977-.47 2.031-.652 3.182-.723 4.711-.288 8.667-.544 12.974 0 1.177.148 2.065.27 3.15.723.984.41 1.476 1.01 1.497 1.918.129 5.871.468 16.443.468 16.443l14.16-.88c-.275-4.939-.147-9.237-.718-13.362-.5-3.607-1.571-7.264-3.556-9.966-2.104-2.865-5.176-4.624-8.233-5.094-9.416-1.447-17.453-1.584-26.541 0Zm107.846-1.225c-7.255 0-12.645 2.043-16.062 6.131-1.14-1.683-2.571-2.991-4.304-3.93-2.584-1.398-6.038-2.107-10.23-2.107-4.215 0-7.781.66-10.604 1.95a13.451 13.451 0 0 0-3.867 2.672l-.499-3.112h-12.974v27.415l14.16-.88s-.114-9.787.654-13.96c.379-2.055 3.191-2.576 5.053-2.797 2.637-.315 5.276-.389 7.86 0 2.671.401 4.138 1.753 4.46 3.678.533 4.299.404 11.947.404 11.947l14.097-.88s-.417-6.516.094-9.935c.242-1.622.888-2.935 2.152-3.616 2.652-1.43 5.948-1.394 8.608-1.384 2.369.009 4.843-.049 6.425 1.573 1.103 1.13 1.034 2.95.998 4.245a288.202 288.202 0 0 0-.125 7.986l14.097-.88c-.056-4.528-.278-9.205-1.403-13.3-1.026-3.733-3.307-6.757-6.331-8.489-1.604-.919-3.484-1.524-5.583-1.855-1.973-.31-4.356-.472-7.08-.472Zm75.411.252c-3.575.359-7.125 1.003-10.074 2.797a13.99 13.99 0 0 0-5.768 6.98c-1.435 3.847-1.795 7.941-1.996 11.79l13.661-.849c.163-2.154.457-4.093.873-5.753.522-1.34.809-3.092 2.183-3.333 4.81-.846 6.912-.814 11.602-.598 3.68.17 5.385.318 5.926 1.006.868 1.104 1.311 7.325 1.311 7.325l12.569-.785c-.175-2.641-.516-4.958-1.029-6.855-.609-2.244-1.428-4.245-2.62-5.785-2.86-3.689-7.19-5.18-11.291-5.69-5.218-.649-10.375-.75-15.347-.25Zm52.894.156c-2.306.273-4.441.72-6.3 1.447-3.896 1.524-6.598 4.62-7.579 8.3-.801 3.01-.923 5.454-.842 8.175l13.223-.818v-2.736c0-1.614.632-2.335 1.342-2.578 3.493-1.196 9.717-1.432 15.593-.693 1.182.151 1.759.559 2.246 1.227.297.406.452.876.53 1.383.081.52.159 1.365.249 2.17l10.978-.693c-.14-3.38-.543-7.122-1.996-9.589-1.4-2.382-3.618-3.827-6.05-4.653-2.791-.949-5.511-1.215-8.359-1.289-4.362-.112-8.888-.142-13.035.347ZM76.453 26.318l-.499-3.018H63.073v40.966l14.128-.88s-.46-16.108 0-23.392c.143-2.271 1.547-4.357 3.586-4.935 3.73-1.06 7.478-.549 10.916-.095l.593-12.702c-5.45-.643-12.753 1.028-15.843 4.056Zm23.36-3.018.062 38.671 14.035-.88.031-37.791H99.812Zm34.555 0v36.533l14.222-.88V23.3h-14.222Zm237.65 0v21.756l14.16-.88V23.3h-14.16ZM16.291 33.612c-4.7.653-9.442 2.375-12.1 6.13C1.158 44.027.617 49.306.448 54.27c-.17 5.006-.223 9.294.374 13.833l13.91-.85s-.306-14.022.219-20.026c.107-1.233.664-1.64 1.497-1.917 1.175-.393 3.787-.914 9.544-.975 5.604-.06 8.247.497 9.481.911 1.518.51 1.629 1.195 1.653 1.824.286 7.51.25 18.77.25 18.77l14.19-.88s.357-7.623.063-10.722c-.473-4.966-.51-10.662-3.712-14.462-3.09-3.668-7.737-5.785-12.07-6.162-6.751-.589-12.935-.923-19.556-.001Z" fill="#058181"/><path d="m476.371 46-22.268 1.383c.838 2.448 2.369 4.732 4.21 6.288 1.114.94 2.583 1.682 4.46 2.295 3.757 1.226 7.836 1.695 11.291 2.075 2.352.259 4.183.416 6.643.692 1.636.184 2.969.382 4.429 1.163.972.52 1.172 1.537 1.185 2.453.116 8.811-1.293 10.072-1.341 10.124-.559.593-1.292.97-1.902 1.07-4.516.741-9.967.835-14.939-.095-1.711-.32-2.185-1.005-2.37-1.447-.151-.358-.528-1.778-.905-6.225l-12.007.755c.01 2.081.078 4.29.375 6.13a14.64 14.64 0 0 0 1.466 4.465c1.294 2.483 3.209 4.55 5.52 5.565 5.616 2.468 11.856 2.36 17.589 2.327 5.682-.034 11.888-.467 16.281-3.71 1.997-1.475 3.455-3.528 4.304-6.037.788-2.328 1.184-5.276 1.186-8.803 0-2.257-.139-4.259-.374-5.942-.238-1.692-.551-3.202-.937-4.496a9.735 9.735 0 0 0-2.214-3.898c-1.942-2.092-4.529-3.379-6.892-3.993-1.58-.412-3.108-.77-4.554-1.007-3.054-.502-5.439-.726-8.236-1.132Zm-65.805 4.086-13.629.85c.003 2.58.016 4.814.031 6.256.09 4.053.153 7.472.687 11.508.559 4.237 2.194 8.108 4.833 11.192 2.103 2.458 4.988 3.356 7.735 3.993 6.663 1.542 13.125 1.543 19.648.85 3.704-.396 7.815-1.293 10.448-3.805 2.662-2.537 3.664-6.002 4.211-9.37.224-1.407.409-3.303.593-5.47l-12.475-.755c-.079 1.15-.156 2.321-.25 3.49-.092 1.162-.185 1.124-.312 1.855-.248 1.438-1.764 2.3-2.869 2.516-4.562.89-8.716.72-13.255.597-1-.027-1.882-.268-2.774-.597-2.418-1.197-2.585-3.75-2.589-6.131l-.033-16.979Zm-24.389 1.51-14.16.88V84.26h14.16V51.596Zm-26.26 1.634-14.128.88v30.151h14.128v-31.03Zm-32.248 2.012-14.128.88v28.14h14.128v-29.02Zm-32.56 2.013-14.16.88v26.127h14.16V57.254Zm-24.482 1.509-14.128.88A422.92 422.92 0 0 1 256 71.088c-.047.815-.231 1.356-1.466 1.76-1.178.386-3.819.944-9.575 1.007-5.605.06-8.248-.498-9.481-.912-1.518-.51-1.621-1.227-1.653-1.855-.185-3.527-.392-7.047-.468-9.998l-14.096.88c.035 3.387.578 7.002 1.122 9.904.906 4.838 3.668 8.326 7.423 10.375 5.36 2.924 11.728 2.816 17.06 2.767 5.833-.055 12.183-.09 17.122-2.736 4.321-2.314 6.603-6.369 7.485-10.406.989-4.532 1.087-8.942 1.154-13.11ZM209.031 62.6l-14.128.88v20.782h14.128V62.6Zm-34.556 2.138-14.128.88v18.644h14.128V64.737ZM148.59 66.34l-14.191.912c.004 1.948-.604 4.351-2.12 5.22-2.53 1.446-5.692 1.39-8.297 1.414-2.551.023-5.13.102-7.391-.724-2.154-.785-2.327-2.757-2.558-4.653l-13.598.85c.318 2.233.777 4.299 1.466 6.162 1.685 4.556 5.457 7.343 9.544 8.551 2.191.647 4.888.944 8.015.944 4.579 0 8.546-.72 11.79-2.138 1.449-.635 2.7-1.423 3.742-2.358l.468 3.773h13.13V66.34Zm-71.388 4.433-14.128.88v12.608h14.128V70.773Zm-26.79 1.666L2.506 75.427c1.186 3.11 3.961 5.415 6.393 6.822 2.056 1.19 4.536 1.953 7.33 2.295 2.601.318 5.886.472 9.761.472 3.908 0 7.187-.152 9.794-.472 2.786-.342 5.214-1.153 7.298-2.263 4.128-2.202 6.398-5.95 7.328-9.84Z" fill="#334155"/></g><defs><clipPath id="drunomics primary logo__a"><path fill="#fff" d="M0 0h500v85.516H0z"/></clipPath></defs></svg>