<svg width="119" height="28" viewBox="0 0 119 28" fill="none" xmlns="http://www.w3.org/2000/svg">
<path d="M9.88398 12.3588C9.2824 12.3588 8.79297 12.2631 8.79297 10.9978V6.45729C8.79297 5.19197 9.2824 5.04443 9.88398 5.04443C10.4856 5.04443 10.975 5.19197 10.975 6.45729V10.9978C10.975 12.2631 10.4856 12.3588 9.88398 12.3588Z" fill="#25A18E"/>
<path d="M37.9732 20.4512H34.8748L33.137 13.7204C33.0726 13.4809 32.9629 12.9857 32.8078 12.2349C32.6527 11.4841 32.5634 10.9802 32.54 10.7231C32.5049 11.0386 32.4171 11.5455 32.2767 12.2436C32.1363 12.9418 32.0281 13.4398 31.952 13.7376L30.2229 20.4512H27.1333L23.8594 7.63807H26.5364L28.1781 14.6318C28.4648 15.923 28.6727 17.0418 28.8016 17.9884C28.8367 17.6553 28.9172 17.1397 29.0429 16.4416C29.1687 15.7434 29.287 15.2015 29.3976 14.8159L31.2674 7.63807H33.8391L35.7086 14.8158C35.7906 15.1372 35.893 15.6279 36.0159 16.2881C36.1388 16.9483 36.2323 17.5151 36.2964 17.9884C36.355 17.5326 36.4485 16.9644 36.577 16.2838C36.7055 15.6031 36.8227 15.0525 36.9287 14.6319L38.5613 7.63807H41.2383L37.9732 20.4512ZM43.9319 20.4512V7.63807H46.6529V20.4512H43.9319ZM56.3945 20.4512L53.3048 10.3989H53.2259C53.3367 12.4438 53.3921 13.808 53.3921 14.4917V20.4512H50.9607V7.63807H54.6647L57.7016 17.4362H57.7543L60.9754 7.63807H64.6794V20.4512H62.1435V14.3865C62.1435 14.1002 62.1479 13.7701 62.1567 13.3962C62.1655 13.0223 62.205 12.029 62.2752 10.4164H62.1962L58.8872 20.4512H56.3945ZM76.8444 20.4512L75.914 17.4009H71.2357L70.3055 20.4512H67.3738L71.9028 7.58557H75.2294L79.776 20.4512H76.8444ZM75.2645 15.1227C74.4044 12.3591 73.9202 10.7961 73.8119 10.4339C73.7036 10.0717 73.6261 9.78542 73.5792 9.57508C73.3861 10.323 72.8332 12.1722 71.9204 15.1227H75.2645Z" fill="#1D1D1D"/>
<path d="M0.896484 18.7586C0.896484 23.2388 4.90513 26.8837 9.83242 26.8837C14.7597 26.8837 18.7684 23.2388 18.7684 18.7586V8.96755C18.7684 4.87144 15.4176 1.47355 11.0775 0.921041L11.0621 3.33388C12.2738 3.80179 13.1332 4.97637 13.1332 6.35136V10.9031C13.1332 12.3036 12.2417 13.4961 10.9944 13.9458L10.9754 16.931C10.9713 17.5612 10.4564 18.0689 9.82514 18.0649C9.19391 18.0609 8.68546 17.5467 8.68948 16.9164L8.70863 13.9137C7.50622 13.4413 6.65516 12.2714 6.65516 10.9031V6.35136C6.65516 4.95752 7.53825 3.76962 8.77624 3.31504L8.79166 0.897217C4.35287 1.36745 0.896484 4.80739 0.896484 8.96755V18.7586Z" fill="#1D1D1D"/>
<path d="M92.8538 13.9221C92.8538 16.0314 92.2525 17.6468 91.0501 18.7686C89.8476 19.8903 88.1112 20.4512 85.8408 20.4513H82.207V7.63818H86.2358C88.3306 7.63818 89.9573 8.19031 91.116 9.29455C92.2746 10.3988 92.8539 11.9413 92.8538 13.9221ZM90.0275 13.9922C90.0275 11.2403 88.8104 9.86435 86.3762 9.86435H84.9279V18.2077H86.0953C88.7168 18.2077 90.0275 16.8026 90.0275 13.9922ZM103.982 20.4513H96.5919V7.63818H103.982V9.86424H99.3128V12.6775H103.658V14.9036H99.3128V18.2076H103.982V20.4513ZM115.058 7.63818H117.805L113.443 20.4513H110.476L106.123 7.63818H108.87L111.284 15.2629C111.418 15.7125 111.557 16.2368 111.701 16.836C111.844 17.4352 111.933 17.8515 111.968 18.0849C112.033 17.5474 112.252 16.6067 112.627 15.2629L115.058 7.63818Z" fill="#25A18E"/>
</svg>
