<svg width="353" height="369" viewBox="0 0 353 369" fill="none" xmlns="http://www.w3.org/2000/svg">
<path d="M243.238 2.41964C243.233 1.94402 243.369 1.47765 243.628 1.08004C243.887 0.682426 244.258 0.371593 244.693 0.187199C245.128 0.00280508 245.608 -0.0467895 246.072 0.0447429C246.535 0.136275 246.961 0.364785 247.295 0.701116C247.629 1.03745 247.855 1.46635 247.946 1.93311C248.037 2.39986 247.988 2.8833 247.805 3.32175C247.622 3.7602 247.313 4.13377 246.919 4.39481C246.524 4.65585 246.061 4.79251 245.589 4.78737C244.965 4.78737 244.367 4.53792 243.927 4.09388C243.486 3.64984 243.238 3.0476 243.238 2.41964Z" fill="#E2E8F0"/>
<path d="M208.498 2.41901C208.498 2.10807 208.559 1.80018 208.677 1.51291C208.795 1.22565 208.968 0.964628 209.186 0.744764C209.405 0.524899 209.664 0.350493 209.949 0.231503C210.234 0.112513 210.54 0.0512695 210.849 0.0512695C211.157 0.0512695 211.463 0.112513 211.748 0.231503C212.033 0.350493 212.292 0.524899 212.511 0.744764C212.729 0.964628 212.902 1.22565 213.02 1.51291C213.138 1.80018 213.199 2.10807 213.199 2.41901C213.199 3.04697 212.951 3.64921 212.511 4.09325C212.07 4.53729 211.472 4.78674 210.849 4.78674C210.225 4.78674 209.627 4.53729 209.186 4.09325C208.746 3.64921 208.498 3.04697 208.498 2.41901Z" fill="#E2E8F0"/>
<path d="M173.758 2.41901C173.758 1.95071 173.896 1.49294 174.154 1.10356C174.412 0.714191 174.78 0.410712 175.209 0.231504C175.639 0.0522954 176.111 0.00540635 176.567 0.096766C177.023 0.188126 177.442 0.413631 177.771 0.744765C178.099 1.0759 178.323 1.49779 178.414 1.95708C178.505 2.41638 178.458 2.89245 178.28 3.3251C178.102 3.75775 177.801 4.12754 177.414 4.38771C177.028 4.64788 176.573 4.78674 176.109 4.78674C175.799 4.79023 175.492 4.73137 175.205 4.61361C174.918 4.49585 174.658 4.32158 174.439 4.10102C174.22 3.88045 174.047 3.61805 173.93 3.32921C173.813 3.04037 173.755 2.73091 173.758 2.41901Z" fill="#E2E8F0"/>
<path d="M138.99 2.41964C138.985 1.94402 139.121 1.47765 139.38 1.08004C139.639 0.682426 140.01 0.371593 140.445 0.187199C140.881 0.00280508 141.361 -0.0467895 141.824 0.0447429C142.287 0.136275 142.713 0.364785 143.047 0.701116C143.381 1.03745 143.608 1.46635 143.699 1.93311C143.789 2.39986 143.74 2.8833 143.557 3.32175C143.374 3.7602 143.065 4.13377 142.671 4.39481C142.276 4.65585 141.813 4.79251 141.341 4.78737C141.032 4.78737 140.727 4.72613 140.441 4.60714C140.156 4.48815 139.897 4.31374 139.679 4.09388C139.461 3.87401 139.288 3.613 139.169 3.32573C139.051 3.03846 138.99 2.73057 138.99 2.41964Z" fill="#E2E8F0"/>
<path d="M104.25 2.41901C104.25 1.79104 104.498 1.1888 104.939 0.744763C105.38 0.300727 105.977 0.0512695 106.601 0.0512695C107.224 0.0512695 107.822 0.300727 108.263 0.744763C108.704 1.1888 108.951 1.79104 108.951 2.41901C108.951 3.04697 108.704 3.64921 108.263 4.09325C107.822 4.53729 107.224 4.78674 106.601 4.78674C105.977 4.78674 105.38 4.53729 104.939 4.09325C104.498 3.64921 104.25 3.04697 104.25 2.41901Z" fill="#E2E8F0"/>
<path d="M277.868 2.36774C277.868 1.89944 278.006 1.44167 278.264 1.05229C278.523 0.662921 278.89 0.359442 279.319 0.180234C279.749 0.00102554 280.221 -0.045863 280.677 0.0454966C281.133 0.136856 281.552 0.362361 281.881 0.693494C282.209 1.02463 282.433 1.44652 282.524 1.90581C282.615 2.36511 282.568 2.84118 282.39 3.27383C282.212 3.70648 281.911 4.07627 281.525 4.33644C281.138 4.59661 280.684 4.73547 280.219 4.73547C279.595 4.73547 278.997 4.48601 278.557 4.04198C278.116 3.59794 277.868 2.9957 277.868 2.36774Z" fill="#E2E8F0"/>
<path d="M278.006 32.7318C278.006 32.2635 278.144 31.8057 278.402 31.4163C278.66 31.0269 279.027 30.7235 279.457 30.5442C279.886 30.365 280.359 30.3182 280.815 30.4095C281.271 30.5009 281.689 30.7264 282.018 31.0575C282.347 31.3886 282.571 31.8105 282.661 32.2698C282.752 32.7291 282.706 33.2052 282.528 33.6378C282.35 34.0705 282.049 34.4403 281.662 34.7005C281.275 34.9606 280.821 35.0995 280.356 35.0995C279.733 35.0995 279.135 34.85 278.694 34.406C278.253 33.962 278.006 33.3597 278.006 32.7318Z" fill="#E2E8F0"/>
<path d="M243.238 32.731C243.233 32.2554 243.369 31.7891 243.628 31.3914C243.887 30.9938 244.258 30.683 244.693 30.4986C245.128 30.3142 245.608 30.2646 246.072 30.3561C246.535 30.4477 246.961 30.6762 247.295 31.0125C247.629 31.3488 247.855 31.7778 247.946 32.2445C248.037 32.7113 247.988 33.1947 247.805 33.6331C247.622 34.0716 247.313 34.4452 246.919 34.7062C246.524 34.9673 246.061 35.1039 245.589 35.0988C244.965 35.0988 244.367 34.8493 243.927 34.4053C243.486 33.9612 243.238 33.359 243.238 32.731Z" fill="#E2E8F0"/>
<path d="M208.498 32.7318C208.498 32.1038 208.746 31.5015 209.186 31.0575C209.627 30.6135 210.225 30.364 210.849 30.364C211.472 30.364 212.07 30.6135 212.511 31.0575C212.951 31.5015 213.199 32.1038 213.199 32.7318C213.199 33.0427 213.138 33.3506 213.02 33.6378C212.902 33.9251 212.729 34.1861 212.511 34.406C212.292 34.6259 212.033 34.8003 211.748 34.9193C211.463 35.0382 211.157 35.0995 210.849 35.0995C210.54 35.0995 210.234 35.0382 209.949 34.9193C209.664 34.8003 209.405 34.6259 209.186 34.406C208.968 34.1861 208.795 33.9251 208.677 33.6378C208.559 33.3506 208.498 33.0427 208.498 32.7318Z" fill="#E2E8F0"/>
<path d="M173.758 32.7318C173.758 32.2635 173.896 31.8057 174.154 31.4163C174.412 31.0269 174.779 30.7235 175.209 30.5442C175.638 30.365 176.111 30.3182 176.567 30.4095C177.023 30.5009 177.442 30.7264 177.77 31.0575C178.099 31.3886 178.323 31.8105 178.414 32.2698C178.504 32.7291 178.458 33.2052 178.28 33.6378C178.102 34.0705 177.801 34.4403 177.414 34.7005C177.028 34.9606 176.573 35.0995 176.108 35.0995C175.485 35.0995 174.887 34.85 174.446 34.406C174.006 33.962 173.758 33.3597 173.758 32.7318Z" fill="#E2E8F0"/>
<path d="M138.99 32.731C138.985 32.2554 139.121 31.7891 139.38 31.3914C139.639 30.9938 140.01 30.683 140.445 30.4986C140.881 30.3142 141.361 30.2646 141.824 30.3561C142.287 30.4477 142.713 30.6762 143.047 31.0125C143.381 31.3488 143.608 31.7778 143.699 32.2445C143.789 32.7113 143.74 33.1947 143.557 33.6331C143.374 34.0716 143.065 34.4452 142.671 34.7062C142.276 34.9673 141.813 35.1039 141.341 35.0988C140.718 35.0988 140.12 34.8493 139.679 34.4053C139.238 33.9612 138.99 33.359 138.99 32.731Z" fill="#E2E8F0"/>
<path d="M104.25 32.7318C104.25 32.1038 104.498 31.5015 104.939 31.0575C105.38 30.6135 105.977 30.364 106.601 30.364C107.224 30.364 107.822 30.6135 108.263 31.0575C108.704 31.5015 108.951 32.1038 108.951 32.7318C108.951 33.3597 108.704 33.962 108.263 34.406C107.822 34.85 107.224 35.0995 106.601 35.0995C105.977 35.0995 105.38 34.85 104.939 34.406C104.498 33.962 104.25 33.3597 104.25 32.7318Z" fill="#E2E8F0"/>
<path d="M69.5103 32.7318C69.5103 32.2635 69.6481 31.8057 69.9064 31.4163C70.1647 31.0269 70.5318 30.7235 70.9612 30.5442C71.3907 30.365 71.8633 30.3182 72.3193 30.4095C72.7752 30.5009 73.1941 30.7264 73.5228 31.0575C73.8515 31.3886 74.0754 31.8105 74.166 32.2698C74.2567 32.7291 74.2102 33.2052 74.0323 33.6378C73.8544 34.0705 73.5531 34.4403 73.1666 34.7005C72.7801 34.9606 72.3256 35.0995 71.8607 35.0995C71.2373 35.0995 70.6395 34.85 70.1987 34.406C69.7579 33.962 69.5103 33.3597 69.5103 32.7318Z" fill="#E2E8F0"/>
<path d="M312.746 63.044C312.751 62.5768 312.893 62.1216 313.154 61.7357C313.416 61.3498 313.785 61.0503 314.215 60.8751C314.644 60.6999 315.116 60.6567 315.57 60.751C316.025 60.8453 316.441 61.0728 316.767 61.4049C317.093 61.7371 317.315 62.159 317.403 62.6176C317.492 63.0761 317.444 63.5509 317.265 63.982C317.087 64.4131 316.785 64.7814 316.399 65.0404C316.013 65.2995 315.56 65.4377 315.096 65.4377C314.785 65.4377 314.478 65.3757 314.191 65.255C313.904 65.1344 313.644 64.9577 313.425 64.7351C313.206 64.5124 313.034 64.2483 312.917 63.9581C312.801 63.6678 312.742 63.3571 312.746 63.044Z" fill="#E2E8F0"/>
<path d="M278.006 63.044C278.011 62.5768 278.153 62.1216 278.414 61.7357C278.676 61.3498 279.045 61.0503 279.475 60.8751C279.904 60.6999 280.376 60.6567 280.83 60.751C281.285 60.8453 281.701 61.0728 282.027 61.4049C282.353 61.7371 282.575 62.159 282.663 62.6176C282.752 63.0761 282.704 63.5509 282.525 63.982C282.347 64.4131 282.045 64.7814 281.659 65.0404C281.273 65.2995 280.82 65.4377 280.356 65.4377C280.045 65.4377 279.738 65.3757 279.451 65.255C279.164 65.1344 278.904 64.9577 278.685 64.7351C278.466 64.5124 278.294 64.2483 278.177 63.9581C278.061 63.6678 278.002 63.3571 278.006 63.044Z" fill="#E2E8F0"/>
<path d="M243.238 63.0446C243.238 62.5701 243.378 62.1062 243.641 61.7121C243.903 61.3179 244.276 61.0111 244.711 60.8307C245.147 60.6503 245.626 60.6044 246.088 60.6989C246.549 60.7934 246.973 61.024 247.304 61.3614C247.635 61.6988 247.86 62.1277 247.948 62.5938C248.037 63.0598 247.986 63.5419 247.802 63.9788C247.619 64.4158 247.31 64.7878 246.916 65.0477C246.522 65.3075 246.06 65.4435 245.589 65.4384C245.278 65.4384 244.97 65.3763 244.683 65.2557C244.396 65.1351 244.136 64.9583 243.917 64.7357C243.699 64.5131 243.526 64.249 243.41 63.9587C243.293 63.6684 243.235 63.3577 243.238 63.0446Z" fill="#E2E8F0"/>
<path d="M208.498 63.044C208.503 62.5768 208.645 62.1216 208.907 61.7357C209.168 61.3498 209.537 61.0503 209.967 60.8751C210.397 60.6999 210.869 60.6567 211.323 60.751C211.777 60.8453 212.193 61.0728 212.52 61.4049C212.846 61.7371 213.067 62.159 213.156 62.6176C213.244 63.0761 213.196 63.5509 213.018 63.982C212.839 64.4131 212.538 64.7814 212.152 65.0404C211.766 65.2995 211.312 65.4377 210.849 65.4377C210.538 65.4377 210.23 65.3757 209.943 65.255C209.656 65.1344 209.396 64.9577 209.177 64.7351C208.959 64.5124 208.786 64.2483 208.67 63.9581C208.553 63.6678 208.495 63.3571 208.498 63.044Z" fill="#E2E8F0"/>
<path d="M173.758 63.044C173.763 62.5768 173.905 62.1216 174.167 61.7357C174.428 61.3498 174.797 61.0503 175.227 60.8751C175.657 60.6999 176.128 60.6567 176.583 60.751C177.037 60.8453 177.453 61.0728 177.779 61.4049C178.106 61.7371 178.327 62.159 178.416 62.6176C178.504 63.0761 178.456 63.5509 178.278 63.982C178.099 64.4131 177.798 64.7814 177.412 65.0404C177.026 65.2995 176.572 65.4377 176.109 65.4377C175.798 65.4377 175.49 65.3757 175.203 65.255C174.916 65.1344 174.656 64.9577 174.437 64.7351C174.219 64.5124 174.046 64.2483 173.929 63.9581C173.813 63.6678 173.755 63.3571 173.758 63.044Z" fill="#E2E8F0"/>
<path d="M138.99 63.0446C138.99 62.5701 139.131 62.1062 139.393 61.7121C139.655 61.3179 140.028 61.0111 140.463 60.8307C140.899 60.6503 141.378 60.6044 141.84 60.6989C142.302 60.7934 142.725 61.024 143.056 61.3614C143.388 61.6988 143.612 62.1277 143.701 62.5938C143.789 63.0598 143.739 63.5419 143.555 63.9788C143.371 64.4158 143.062 64.7878 142.668 65.0477C142.274 65.3075 141.812 65.4435 141.341 65.4384C141.03 65.4384 140.722 65.3763 140.435 65.2557C140.149 65.1351 139.888 64.9583 139.67 64.7357C139.451 64.5131 139.279 64.249 139.162 63.9587C139.045 63.6684 138.987 63.3577 138.99 63.0446Z" fill="#E2E8F0"/>
<path d="M104.25 63.044C104.256 62.5768 104.398 62.1216 104.659 61.7357C104.92 61.3498 105.289 61.0503 105.719 60.8751C106.149 60.6999 106.621 60.6567 107.075 60.751C107.529 60.8453 107.946 61.0728 108.272 61.4049C108.598 61.7371 108.819 62.159 108.908 62.6176C108.997 63.0761 108.949 63.5509 108.77 63.982C108.591 64.4131 108.29 64.7814 107.904 65.0404C107.518 65.2995 107.065 65.4377 106.601 65.4377C106.29 65.4377 105.982 65.3757 105.695 65.255C105.409 65.1344 105.148 64.9577 104.93 64.7351C104.711 64.5124 104.538 64.2483 104.422 63.9581C104.305 63.6678 104.247 63.3571 104.25 63.044Z" fill="#E2E8F0"/>
<path d="M69.5104 63.044C69.5155 62.5768 69.6577 62.1216 69.919 61.7357C70.1804 61.3498 70.5492 61.0503 70.9791 60.8751C71.4091 60.6999 71.8808 60.6567 72.3351 60.751C72.7893 60.8453 73.2057 61.0728 73.5318 61.4049C73.858 61.7371 74.0793 62.159 74.1679 62.6176C74.2565 63.0761 74.2085 63.5509 74.0299 63.982C73.8512 64.4131 73.55 64.7814 73.164 65.0404C72.7781 65.2995 72.3247 65.4377 71.8609 65.4377C71.55 65.4377 71.2423 65.3757 70.9554 65.255C70.6685 65.1344 70.4082 64.9577 70.1896 64.7351C69.971 64.5124 69.7984 64.2483 69.6819 63.9581C69.5653 63.6678 69.507 63.3571 69.5104 63.044Z" fill="#E2E8F0"/>
<path d="M34.7426 63.0435C34.7426 62.5701 34.8819 62.1073 35.143 61.7136C35.4041 61.32 35.7753 61.0132 36.2095 60.832C36.6437 60.6508 37.1215 60.6034 37.5825 60.6958C38.0434 60.7881 38.4668 61.0161 38.7992 61.3509C39.1315 61.6857 39.3578 62.1122 39.4495 62.5765C39.5412 63.0409 39.4942 63.5222 39.3143 63.9596C39.1344 64.397 38.8299 64.7708 38.4391 65.0339C38.0483 65.2969 37.5889 65.4373 37.1189 65.4373C36.4886 65.4373 35.8842 65.1851 35.4386 64.7362C34.9929 64.2873 34.7426 63.6784 34.7426 63.0435Z" fill="#E2E8F0"/>
<path d="M312.746 93.3569C312.751 92.8897 312.893 92.4345 313.154 92.0486C313.416 91.6626 313.785 91.3632 314.215 91.188C314.644 91.0128 315.116 90.9696 315.57 91.0639C316.025 91.1581 316.441 91.3857 316.767 91.7178C317.093 92.05 317.315 92.4719 317.403 92.9304C317.492 93.389 317.444 93.8638 317.265 94.2949C317.087 94.726 316.785 95.0943 316.399 95.3533C316.013 95.6124 315.56 95.7506 315.096 95.7506C314.785 95.7506 314.478 95.6885 314.191 95.5679C313.904 95.4473 313.644 95.2706 313.425 95.048C313.206 94.8253 313.034 94.5612 312.917 94.271C312.801 93.9807 312.742 93.67 312.746 93.3569Z" fill="#E2E8F0"/>
<path d="M278.006 93.3569C278.011 92.8897 278.153 92.4345 278.414 92.0486C278.676 91.6626 279.045 91.3632 279.475 91.188C279.904 91.0128 280.376 90.9696 280.83 91.0639C281.285 91.1581 281.701 91.3857 282.027 91.7178C282.353 92.05 282.575 92.4719 282.663 92.9304C282.752 93.389 282.704 93.8638 282.525 94.2949C282.347 94.726 282.045 95.0943 281.659 95.3533C281.273 95.6124 280.82 95.7506 280.356 95.7506C280.045 95.7506 279.738 95.6885 279.451 95.5679C279.164 95.4473 278.904 95.2706 278.685 95.048C278.466 94.8253 278.294 94.5612 278.177 94.271C278.061 93.9807 278.002 93.67 278.006 93.3569Z" fill="#E2E8F0"/>
<path d="M69.5104 93.3569C69.5155 92.8897 69.6577 92.4345 69.919 92.0486C70.1804 91.6626 70.5492 91.3632 70.9791 91.188C71.4091 91.0128 71.8808 90.9696 72.3351 91.0639C72.7893 91.1581 73.2057 91.3857 73.5318 91.7178C73.858 92.05 74.0793 92.4719 74.1679 92.9304C74.2565 93.389 74.2085 93.8638 74.0299 94.2949C73.8512 94.726 73.55 95.0943 73.164 95.3533C72.7781 95.6124 72.3247 95.7506 71.8609 95.7506C71.55 95.7506 71.2423 95.6885 70.9554 95.5679C70.6685 95.4473 70.4082 95.2706 70.1896 95.048C69.971 94.8253 69.7984 94.5612 69.6819 94.271C69.5653 93.9807 69.507 93.67 69.5104 93.3569Z" fill="#E2E8F0"/>
<path d="M34.7426 93.3563C34.7426 92.8829 34.8819 92.42 35.143 92.0264C35.4041 91.6327 35.7753 91.3259 36.2095 91.1447C36.6437 90.9636 37.1215 90.9162 37.5825 91.0085C38.0434 91.1009 38.4668 91.3289 38.7992 91.6636C39.1315 91.9984 39.3578 92.4249 39.4495 92.8893C39.5412 93.3536 39.4942 93.8349 39.3143 94.2723C39.1344 94.7098 38.8299 95.0836 38.4391 95.3466C38.0483 95.6097 37.5889 95.7501 37.1189 95.7501C36.8068 95.7501 36.4978 95.6881 36.2095 95.5678C35.9212 95.4475 35.6592 95.2712 35.4386 95.0489C35.2179 94.8267 35.0429 94.5628 34.9234 94.2723C34.804 93.9819 34.7426 93.6706 34.7426 93.3563Z" fill="#E2E8F0"/>
<path d="M312.536 32.731C312.531 32.2554 312.666 31.7891 312.926 31.3914C313.185 30.9938 313.556 30.683 313.991 30.4986C314.426 30.3142 314.906 30.2646 315.369 30.3561C315.833 30.4477 316.258 30.6762 316.592 31.0125C316.926 31.3488 317.153 31.7778 317.244 32.2445C317.335 32.7113 317.286 33.1947 317.102 33.6331C316.919 34.0716 316.611 34.4452 316.216 34.7062C315.821 34.9673 315.358 35.1039 314.886 35.0988C314.263 35.0988 313.665 34.8493 313.224 34.4053C312.783 33.9612 312.536 33.359 312.536 32.731Z" fill="#E2E8F0"/>
<path d="M312.261 2.36774C312.261 1.89944 312.399 1.44167 312.657 1.05229C312.915 0.662921 313.282 0.359442 313.712 0.180234C314.141 0.00102554 314.614 -0.045863 315.07 0.0454966C315.526 0.136856 315.945 0.362361 316.273 0.693494C316.602 1.02463 316.826 1.44652 316.917 1.90581C317.007 2.36511 316.961 2.84118 316.783 3.27383C316.605 3.70648 316.304 4.07627 315.917 4.33644C315.531 4.59661 315.076 4.73547 314.611 4.73547C313.988 4.73547 313.39 4.48601 312.949 4.04198C312.509 3.59794 312.261 2.9957 312.261 2.36774Z" fill="#E2E8F0"/>
<path d="M346.844 2.37018C346.844 1.90188 346.981 1.44411 347.24 1.05473C347.498 0.665363 347.865 0.361884 348.294 0.182675C348.724 0.00346695 349.197 -0.0434216 349.653 0.047938C350.108 0.139298 350.527 0.364802 350.856 0.695936C351.185 1.02707 351.409 1.44896 351.499 1.90825C351.59 2.36755 351.543 2.84362 351.366 3.27627C351.188 3.70892 350.886 4.07871 350.5 4.33888C350.113 4.59905 349.659 4.73791 349.194 4.73791C348.571 4.73791 347.973 4.48846 347.532 4.04442C347.091 3.60038 346.844 2.99814 346.844 2.37018Z" fill="#E2E8F0"/>
<path d="M346.981 32.8173C346.976 32.3417 347.112 31.8754 347.371 31.4777C347.63 31.0801 348.001 30.7693 348.436 30.5849C348.871 30.4005 349.351 30.3509 349.814 30.4424C350.278 30.534 350.704 30.7625 351.037 31.0988C351.371 31.4352 351.598 31.8641 351.689 32.3308C351.78 32.7976 351.731 33.281 351.548 33.7195C351.365 34.1579 351.056 34.5315 350.661 34.7925C350.267 35.0536 349.804 35.1902 349.331 35.1851C348.708 35.1851 348.11 34.9356 347.669 34.4916C347.229 34.0475 346.981 33.4453 346.981 32.8173Z" fill="#E2E8F0"/>
<path d="M347.141 63.0453C347.146 62.5782 347.288 62.123 347.55 61.737C347.811 61.3511 348.18 61.0517 348.61 60.8765C349.04 60.7012 349.512 60.6581 349.966 60.7523C350.42 60.8466 350.836 61.0741 351.163 61.4063C351.489 61.7384 351.71 62.1603 351.799 62.6189C351.887 63.0775 351.839 63.5522 351.661 63.9833C351.482 64.4145 351.181 64.7827 350.795 65.0418C350.409 65.3008 349.955 65.439 349.492 65.4391C349.181 65.4391 348.873 65.377 348.586 65.2564C348.299 65.1358 348.039 64.959 347.82 64.7364C347.602 64.5138 347.429 64.2497 347.313 63.9594C347.196 63.6691 347.138 63.3584 347.141 63.0453Z" fill="#E2E8F0"/>
<path d="M347.301 93.3517C347.306 92.8846 347.448 92.4294 347.71 92.0435C347.971 91.6575 348.34 91.3581 348.77 91.1829C349.2 91.0076 349.672 90.9644 350.126 91.0587C350.58 91.153 350.996 91.3805 351.323 91.7127C351.649 92.0448 351.87 92.4667 351.959 92.9253C352.047 93.3839 351.999 93.8586 351.821 94.2898C351.642 94.7209 351.341 95.0892 350.955 95.3482C350.569 95.6072 350.115 95.7455 349.652 95.7455C349.341 95.7455 349.033 95.6834 348.746 95.5628C348.459 95.4422 348.199 95.2655 347.98 95.0428C347.762 94.8202 347.589 94.5561 347.473 94.2658C347.356 93.9756 347.298 93.6649 347.301 93.3517Z" fill="#E2E8F0"/>
<path d="M74.1835 2.37274C74.1835 1.90445 74.0456 1.44667 73.7874 1.0573C73.5291 0.667926 73.162 0.364447 72.7325 0.185239C72.303 0.00603043 71.8304 -0.0408581 71.3744 0.0505015C70.9185 0.141861 70.4997 0.367366 70.171 0.698499C69.8422 1.02963 69.6184 1.45152 69.5277 1.91082C69.437 2.37011 69.4836 2.84619 69.6615 3.27883C69.8394 3.71148 70.1406 4.08127 70.5272 4.34144C70.9137 4.60161 71.3681 4.74048 71.833 4.74048C72.4564 4.74048 73.0542 4.49102 73.495 4.04698C73.9358 3.60295 74.1835 3.0007 74.1835 2.37274Z" fill="#E2E8F0"/>
<path d="M39.5133 32.7336C39.5184 32.258 39.3828 31.7916 39.1236 31.394C38.8645 30.9964 38.4936 30.6856 38.0584 30.5012C37.6231 30.3168 37.1432 30.2672 36.6799 30.3587C36.2165 30.4502 35.7907 30.6787 35.4569 31.0151C35.123 31.3514 34.8961 31.7803 34.8053 32.2471C34.7144 32.7138 34.7636 33.1973 34.9467 33.6357C35.1297 34.0742 35.4383 34.4477 35.833 34.7088C36.2277 34.9698 36.6907 35.1065 37.1629 35.1013C37.7862 35.1013 38.3841 34.8519 38.8249 34.4078C39.2657 33.9638 39.5133 33.3616 39.5133 32.7336Z" fill="#E2E8F0"/>
<path d="M39.7883 2.37274C39.7883 1.90445 39.6505 1.44667 39.3922 1.0573C39.1339 0.667926 38.7668 0.364447 38.3373 0.185239C37.9078 0.00603043 37.4352 -0.0408581 36.9793 0.0505015C36.5233 0.141861 36.1045 0.367366 35.7758 0.698499C35.4471 1.02963 35.2232 1.45152 35.1325 1.91082C35.0418 2.37011 35.0884 2.84619 35.2663 3.27883C35.4442 3.71148 35.7455 4.08127 36.132 4.34144C36.5185 4.60161 36.973 4.74048 37.4378 4.74048C38.0612 4.74048 38.6591 4.49102 39.0999 4.04698C39.5407 3.60295 39.7883 3.0007 39.7883 2.37274Z" fill="#E2E8F0"/>
<path d="M5.20819 2.37274C5.20819 1.90445 5.07035 1.44667 4.81208 1.0573C4.5538 0.667926 4.18669 0.364447 3.7572 0.185239C3.32771 0.00603043 2.85511 -0.0408581 2.39917 0.0505015C1.94322 0.141861 1.52441 0.367366 1.19569 0.698499C0.866967 1.02963 0.643109 1.45152 0.552416 1.91082C0.461723 2.37011 0.50828 2.84619 0.686182 3.27883C0.864084 3.71148 1.16534 4.08127 1.55188 4.34144C1.93841 4.60161 2.39285 4.74048 2.85773 4.74048C3.48111 4.74048 4.07895 4.49102 4.51975 4.04698C4.96055 3.60295 5.20819 3.0007 5.20819 2.37274Z" fill="#E2E8F0"/>
<path d="M5.07063 32.8186C5.07574 32.3429 4.94008 31.8766 4.68094 31.479C4.4218 31.0814 4.05095 30.7705 3.6157 30.5861C3.18045 30.4017 2.70054 30.3521 2.23719 30.4437C1.77384 30.5352 1.34806 30.7637 1.01418 31.1C0.680298 31.4364 0.453455 31.8653 0.36259 32.332C0.271725 32.7988 0.320952 33.2822 0.504002 33.7207C0.687052 34.1591 0.995615 34.5327 1.39033 34.7937C1.78505 35.0548 2.24802 35.1914 2.72017 35.1863C3.34355 35.1863 3.94139 34.9368 4.38219 34.4928C4.82299 34.0488 5.07063 33.4465 5.07063 32.8186Z" fill="#E2E8F0"/>
<path d="M4.90821 63.0497C4.90312 62.5826 4.76094 62.1274 4.49959 61.7414C4.23824 61.3555 3.86939 61.0561 3.43947 60.8809C3.00956 60.7056 2.5378 60.6624 2.08357 60.7567C1.62934 60.851 1.21295 61.0785 0.886813 61.4107C0.560673 61.7428 0.339356 62.1647 0.250737 62.6233C0.162117 63.0819 0.210124 63.5566 0.388759 63.9877C0.567394 64.4189 0.868656 64.7871 1.25461 65.0462C1.64056 65.3052 2.09397 65.4434 2.55774 65.4435C2.86859 65.4435 3.17637 65.3814 3.46324 65.2608C3.75011 65.1402 4.01038 64.9634 4.22898 64.7408C4.44758 64.5182 4.62018 64.2541 4.73677 63.9638C4.85336 63.6735 4.91163 63.3628 4.90821 63.0497Z" fill="#E2E8F0"/>
<path d="M4.74812 93.3543C4.74302 92.8871 4.60084 92.432 4.33948 92.046C4.07812 91.6601 3.70927 91.3607 3.27934 91.1854C2.84942 91.0102 2.37765 90.967 1.9234 91.0613C1.46916 91.1556 1.05273 91.3831 0.726578 91.7152C0.40043 92.0474 0.179147 92.4693 0.0905252 92.9279C0.00190353 93.3865 0.0499115 93.8612 0.228551 94.2923C0.40719 94.7235 0.70846 95.0917 1.09442 95.3508C1.48038 95.6098 1.9338 95.748 2.39759 95.7481C2.70845 95.7481 3.01623 95.686 3.30311 95.5654C3.58998 95.4448 3.85026 95.268 4.06887 95.0454C4.28748 94.8228 4.46004 94.5587 4.57663 94.2684C4.69323 93.9781 4.75153 93.6674 4.74812 93.3543Z" fill="#E2E8F0"/>
<path d="M347.486 123.694C347.481 123.218 347.617 122.752 347.876 122.354C348.135 121.956 348.506 121.646 348.941 121.461C349.376 121.277 349.856 121.227 350.319 121.319C350.783 121.41 351.209 121.639 351.542 121.975C351.876 122.311 352.103 122.74 352.194 123.207C352.285 123.674 352.236 124.157 352.053 124.596C351.87 125.034 351.561 125.408 351.166 125.669C350.772 125.93 350.309 126.067 349.836 126.061C349.215 126.055 348.621 125.803 348.182 125.36C347.743 124.918 347.493 124.32 347.486 123.694Z" fill="#E2E8F0"/>
<path d="M312.746 123.694C312.746 123.226 312.884 122.768 313.142 122.379C313.4 121.989 313.767 121.686 314.197 121.507C314.626 121.328 315.099 121.281 315.555 121.372C316.011 121.463 316.429 121.689 316.758 122.02C317.087 122.351 317.311 122.773 317.401 123.232C317.492 123.692 317.446 124.168 317.268 124.6C317.09 125.033 316.789 125.403 316.402 125.663C316.015 125.923 315.561 126.062 315.096 126.062C314.475 126.055 313.881 125.804 313.442 125.361C313.002 124.918 312.752 124.32 312.746 123.694Z" fill="#E2E8F0"/>
<path d="M278.006 123.694C278.006 123.226 278.144 122.768 278.402 122.379C278.66 121.989 279.027 121.686 279.457 121.507C279.886 121.328 280.359 121.281 280.815 121.372C281.271 121.463 281.689 121.689 282.018 122.02C282.347 122.351 282.571 122.773 282.661 123.232C282.752 123.692 282.706 124.168 282.528 124.6C282.35 125.033 282.049 125.403 281.662 125.663C281.275 125.923 280.821 126.062 280.356 126.062C279.733 126.062 279.135 125.813 278.694 125.369C278.253 124.924 278.006 124.322 278.006 123.694Z" fill="#E2E8F0"/>
<path d="M69.5103 123.694C69.5103 123.226 69.6481 122.768 69.9064 122.379C70.1647 121.989 70.5318 121.686 70.9612 121.507C71.3907 121.328 71.8633 121.281 72.3193 121.372C72.7752 121.463 73.1941 121.689 73.5228 122.02C73.8515 122.351 74.0754 122.773 74.166 123.232C74.2567 123.692 74.2102 124.168 74.0323 124.6C73.8544 125.033 73.5531 125.403 73.1666 125.663C72.7801 125.923 72.3256 126.062 71.8607 126.062C71.2394 126.055 70.6455 125.804 70.2061 125.361C69.7668 124.918 69.517 124.32 69.5103 123.694Z" fill="#E2E8F0"/>
<path d="M34.7427 123.694C34.7376 123.219 34.8726 122.754 35.1306 122.357C35.3885 121.96 35.7579 121.649 36.1916 121.464C36.6253 121.279 37.1039 121.228 37.5666 121.317C38.0292 121.406 38.4551 121.632 38.79 121.966C39.1249 122.3 39.3538 122.726 39.4476 123.191C39.5414 123.656 39.4959 124.139 39.3168 124.578C39.1377 125.017 38.8332 125.392 38.4419 125.656C38.0505 125.92 37.5901 126.062 37.119 126.062C36.4932 126.062 35.8927 125.813 35.4478 125.37C35.0029 124.926 34.7495 124.324 34.7427 123.694Z" fill="#E2E8F0"/>
<path d="M0.00250244 123.694C0.00250244 123.226 0.140355 122.768 0.39863 122.379C0.656905 121.989 1.024 121.686 1.4535 121.507C1.88299 121.328 2.3556 121.281 2.81155 121.372C3.2675 121.463 3.68632 121.689 4.01504 122.02C4.34376 122.351 4.56762 122.773 4.65832 123.232C4.74901 123.692 4.70246 124.168 4.52456 124.6C4.34666 125.033 4.04539 125.403 3.65885 125.663C3.27232 125.923 2.81787 126.062 2.35299 126.062C1.73169 126.055 1.13773 125.804 0.698372 125.361C0.259017 124.918 0.00921984 124.32 0.00250244 123.694Z" fill="#E2E8F0"/>
<path d="M347.486 154.007C347.481 153.531 347.617 153.065 347.876 152.667C348.135 152.27 348.506 151.959 348.941 151.774C349.376 151.59 349.856 151.54 350.319 151.632C350.783 151.724 351.209 151.952 351.542 152.288C351.876 152.625 352.103 153.054 352.194 153.52C352.285 153.987 352.236 154.471 352.053 154.909C351.87 155.347 351.561 155.721 351.166 155.982C350.772 156.243 350.309 156.38 349.836 156.375C349.215 156.368 348.621 156.116 348.182 155.674C347.743 155.231 347.493 154.633 347.486 154.007Z" fill="#E2E8F0"/>
<path d="M312.746 154.006C312.746 153.537 312.884 153.08 313.142 152.69C313.4 152.301 313.767 151.997 314.197 151.818C314.626 151.639 315.099 151.592 315.555 151.683C316.011 151.775 316.429 152 316.758 152.331C317.087 152.663 317.311 153.084 317.401 153.544C317.492 154.003 317.446 154.479 317.268 154.912C317.09 155.344 316.789 155.714 316.402 155.974C316.015 156.235 315.561 156.373 315.096 156.373C314.475 156.367 313.881 156.115 313.442 155.672C313.002 155.23 312.752 154.632 312.746 154.006Z" fill="#E2E8F0"/>
<path d="M34.7427 154.007C34.7376 153.533 34.8726 153.067 35.1306 152.67C35.3885 152.273 35.7579 151.962 36.1916 151.777C36.6253 151.592 37.1039 151.541 37.5666 151.63C38.0292 151.72 38.4551 151.945 38.79 152.279C39.1249 152.613 39.3538 153.039 39.4476 153.504C39.5414 153.969 39.4959 154.452 39.3168 154.891C39.1377 155.33 38.8332 155.705 38.4419 155.969C38.0505 156.234 37.5901 156.375 37.119 156.375C36.4932 156.375 35.8927 156.126 35.4478 155.683C35.0029 155.24 34.7495 154.637 34.7427 154.007Z" fill="#E2E8F0"/>
<path d="M0.00250244 154.006C0.00250244 153.537 0.140355 153.08 0.39863 152.69C0.656905 152.301 1.024 151.997 1.4535 151.818C1.88299 151.639 2.3556 151.592 2.81155 151.683C3.2675 151.775 3.68632 152 4.01504 152.331C4.34376 152.663 4.56762 153.084 4.65832 153.544C4.74901 154.003 4.70246 154.479 4.52456 154.912C4.34666 155.344 4.04539 155.714 3.65885 155.974C3.27232 156.235 2.81787 156.373 2.35299 156.373C1.73169 156.367 1.13773 156.115 0.698372 155.672C0.259017 155.23 0.00921984 154.632 0.00250244 154.006Z" fill="#E2E8F0"/>
<path d="M347.486 184.318C347.481 183.843 347.617 183.376 347.876 182.979C348.135 182.581 348.506 182.27 348.941 182.086C349.376 181.902 349.856 181.852 350.319 181.944C350.783 182.035 351.209 182.264 351.542 182.6C351.876 182.936 352.103 183.365 352.194 183.832C352.285 184.299 352.236 184.782 352.053 185.221C351.87 185.659 351.561 186.033 351.166 186.294C350.772 186.555 350.309 186.691 349.836 186.686C349.213 186.686 348.615 186.437 348.174 185.993C347.734 185.549 347.486 184.946 347.486 184.318Z" fill="#E2E8F0"/>
<path d="M312.746 184.319C312.746 183.851 312.884 183.393 313.142 183.004C313.4 182.614 313.767 182.311 314.197 182.132C314.626 181.952 315.099 181.905 315.555 181.997C316.011 182.088 316.429 182.314 316.758 182.645C317.087 182.976 317.311 183.398 317.401 183.857C317.492 184.316 317.446 184.792 317.268 185.225C317.09 185.658 316.789 186.028 316.402 186.288C316.015 186.548 315.561 186.687 315.096 186.687C314.473 186.687 313.875 186.437 313.434 185.993C312.993 185.549 312.746 184.947 312.746 184.319Z" fill="#E2E8F0"/>
<path d="M34.7427 184.319C34.7376 183.844 34.8726 183.379 35.1306 182.982C35.3885 182.585 35.7579 182.274 36.1916 182.089C36.6253 181.903 37.1039 181.852 37.5666 181.942C38.0292 182.031 38.4551 182.257 38.79 182.591C39.1249 182.924 39.3538 183.351 39.4476 183.816C39.5414 184.281 39.4959 184.764 39.3168 185.202C39.1377 185.641 38.8332 186.017 38.4419 186.281C38.0505 186.545 37.5901 186.686 37.119 186.686C36.8082 186.69 36.4997 186.631 36.2116 186.514C35.9234 186.396 35.6612 186.222 35.4402 186.002C35.2192 185.782 35.0438 185.52 34.9241 185.231C34.8043 184.942 34.7427 184.632 34.7427 184.319Z" fill="#E2E8F0"/>
<path d="M0.00250244 184.319C0.00250244 183.851 0.140355 183.393 0.39863 183.004C0.656905 182.614 1.024 182.311 1.4535 182.132C1.88299 181.952 2.3556 181.905 2.81155 181.997C3.2675 182.088 3.68632 182.314 4.01504 182.645C4.34376 182.976 4.56762 183.398 4.65832 183.857C4.74901 184.316 4.70246 184.792 4.52456 185.225C4.34666 185.658 4.04539 186.028 3.65885 186.288C3.27232 186.548 2.81787 186.687 2.35299 186.687C1.7296 186.687 1.13175 186.437 0.690945 185.993C0.250143 185.549 0.00250244 184.947 0.00250244 184.319Z" fill="#E2E8F0"/>
<path d="M347.486 214.631C347.481 214.156 347.617 213.689 347.876 213.292C348.135 212.894 348.506 212.583 348.941 212.399C349.376 212.214 349.856 212.165 350.319 212.256C350.783 212.348 351.209 212.576 351.542 212.913C351.876 213.249 352.103 213.678 352.194 214.145C352.285 214.611 352.236 215.095 352.053 215.533C351.87 215.972 351.561 216.345 351.166 216.606C350.772 216.867 350.309 217.004 349.836 216.999C349.213 216.999 348.615 216.749 348.174 216.305C347.734 215.861 347.486 215.259 347.486 214.631Z" fill="#E2E8F0"/>
<path d="M312.746 214.632C312.746 214.163 312.884 213.706 313.142 213.316C313.4 212.927 313.767 212.623 314.197 212.444C314.626 212.265 315.099 212.218 315.555 212.31C316.011 212.401 316.429 212.626 316.758 212.958C317.087 213.289 317.311 213.711 317.401 214.17C317.492 214.629 317.446 215.105 317.268 215.538C317.09 215.971 316.789 216.34 316.402 216.601C316.015 216.861 315.561 217 315.096 217C314.473 217 313.875 216.75 313.434 216.306C312.993 215.862 312.746 215.26 312.746 214.632Z" fill="#E2E8F0"/>
<path d="M34.7427 214.631C34.7376 214.157 34.8726 213.691 35.1306 213.294C35.3885 212.897 35.7579 212.587 36.1916 212.401C36.6253 212.216 37.1039 212.165 37.5666 212.254C38.0292 212.344 38.4551 212.57 38.79 212.903C39.1249 213.237 39.3538 213.664 39.4476 214.129C39.5414 214.594 39.4959 215.076 39.3168 215.515C39.1377 215.954 38.8332 216.33 38.4419 216.594C38.0505 216.858 37.5901 216.999 37.119 216.999C36.8082 217.003 36.4997 216.944 36.2116 216.826C35.9234 216.709 35.6612 216.535 35.4402 216.315C35.2192 216.095 35.0438 215.832 34.9241 215.543C34.8043 215.255 34.7427 214.944 34.7427 214.631Z" fill="#E2E8F0"/>
<path d="M0.00250244 214.632C0.00250244 214.163 0.140355 213.706 0.39863 213.316C0.656905 212.927 1.024 212.623 1.4535 212.444C1.88299 212.265 2.3556 212.218 2.81155 212.31C3.2675 212.401 3.68632 212.626 4.01504 212.958C4.34376 213.289 4.56762 213.711 4.65832 214.17C4.74901 214.629 4.70246 215.105 4.52456 215.538C4.34666 215.971 4.04539 216.34 3.65885 216.601C3.27232 216.861 2.81787 217 2.35299 217C1.7296 217 1.13175 216.75 0.690945 216.306C0.250143 215.862 0.00250244 215.26 0.00250244 214.632Z" fill="#E2E8F0"/>
<path d="M347.486 244.943C347.481 244.467 347.617 244.001 347.876 243.603C348.135 243.205 348.506 242.895 348.941 242.71C349.376 242.526 349.856 242.476 350.319 242.568C350.783 242.659 351.209 242.888 351.542 243.224C351.876 243.561 352.103 243.989 352.194 244.456C352.285 244.923 352.236 245.406 352.053 245.845C351.87 246.283 351.561 246.657 351.166 246.918C350.772 247.179 350.309 247.316 349.836 247.31C349.213 247.31 348.615 247.061 348.174 246.617C347.734 246.173 347.486 245.571 347.486 244.943Z" fill="#E2E8F0"/>
<path d="M312.746 244.943C312.746 244.475 312.884 244.017 313.142 243.628C313.4 243.238 313.767 242.935 314.197 242.756C314.626 242.576 315.099 242.53 315.555 242.621C316.011 242.712 316.429 242.938 316.758 243.269C317.087 243.6 317.311 244.022 317.401 244.481C317.492 244.941 317.446 245.417 317.268 245.849C317.09 246.282 316.789 246.652 316.402 246.912C316.015 247.172 315.561 247.311 315.096 247.311C314.473 247.311 313.875 247.061 313.434 246.617C312.993 246.173 312.746 245.571 312.746 244.943Z" fill="#E2E8F0"/>
<path d="M278.006 244.943C278.006 244.315 278.253 243.713 278.694 243.269C279.135 242.825 279.733 242.575 280.356 242.575C280.98 242.575 281.577 242.825 282.018 243.269C282.459 243.713 282.707 244.315 282.707 244.943C282.707 245.571 282.459 246.173 282.018 246.617C281.577 247.061 280.98 247.311 280.356 247.311C279.733 247.311 279.135 247.061 278.694 246.617C278.253 246.173 278.006 245.571 278.006 244.943Z" fill="#E2E8F0"/>
<path d="M69.5103 244.943C69.5103 244.475 69.6481 244.017 69.9064 243.628C70.1647 243.238 70.5318 242.935 70.9612 242.756C71.3907 242.576 71.8633 242.53 72.3193 242.621C72.7752 242.712 73.1941 242.938 73.5228 243.269C73.8515 243.6 74.0754 244.022 74.166 244.481C74.2567 244.941 74.2102 245.417 74.0323 245.849C73.8544 246.282 73.5531 246.652 73.1666 246.912C72.7801 247.172 72.3256 247.311 71.8607 247.311C71.2373 247.311 70.6395 247.061 70.1987 246.617C69.7579 246.173 69.5103 245.571 69.5103 244.943Z" fill="#E2E8F0"/>
<path d="M34.7427 244.943C34.7376 244.468 34.8726 244.003 35.1306 243.606C35.3885 243.209 35.7579 242.898 36.1916 242.713C36.6253 242.528 37.1039 242.477 37.5666 242.566C38.0292 242.655 38.4551 242.881 38.79 243.215C39.1249 243.549 39.3538 243.975 39.4476 244.44C39.5414 244.905 39.4959 245.388 39.3168 245.827C39.1377 246.266 38.8332 246.641 38.4419 246.905C38.0505 247.169 37.5901 247.311 37.119 247.311C36.8082 247.314 36.4997 247.255 36.2116 247.138C35.9234 247.02 35.6612 246.847 35.4402 246.626C35.2192 246.406 35.0438 246.144 34.9241 245.855C34.8043 245.566 34.7427 245.256 34.7427 244.943Z" fill="#E2E8F0"/>
<path d="M0.00127804 244.944C-0.0141547 244.473 0.110472 244.007 0.359187 243.608C0.607902 243.208 0.969374 242.893 1.39728 242.701C1.82519 242.51 2.30003 242.452 2.76097 242.534C3.2219 242.617 3.64793 242.836 3.98444 243.164C4.32096 243.492 4.55264 243.913 4.64979 244.374C4.74695 244.836 4.70515 245.316 4.52975 245.753C4.35435 246.19 4.05335 246.565 3.66532 246.828C3.27728 247.092 2.81989 247.233 2.35176 247.234C1.72837 247.234 1.13052 246.984 0.689719 246.54C0.248918 246.096 0.00127804 245.494 0.00127804 244.866" fill="#E2E8F0"/>
<path d="M8.68188 260.087C8.68188 259.613 8.82125 259.15 9.08237 258.757C9.34348 258.363 9.71461 258.056 10.1488 257.875C10.583 257.694 11.0608 257.646 11.5218 257.739C11.9828 257.831 12.4062 258.059 12.7385 258.394C13.0708 258.729 13.2972 259.155 13.3889 259.62C13.4806 260.084 13.4335 260.565 13.2536 261.003C13.0738 261.44 12.7692 261.814 12.3784 262.077C11.9876 262.34 11.5282 262.48 11.0582 262.48C10.428 262.48 9.82354 262.228 9.37789 261.779C8.93225 261.33 8.68188 260.722 8.68188 260.087Z" fill="#E2E8F0"/>
<path d="M312.746 275.255C312.746 274.787 312.884 274.329 313.142 273.94C313.4 273.55 313.767 273.247 314.197 273.068C314.626 272.889 315.099 272.842 315.555 272.933C316.011 273.024 316.429 273.25 316.758 273.581C317.087 273.912 317.311 274.334 317.401 274.793C317.492 275.253 317.446 275.729 317.268 276.161C317.09 276.594 316.789 276.964 316.402 277.224C316.015 277.484 315.561 277.623 315.096 277.623C314.473 277.623 313.875 277.374 313.434 276.93C312.993 276.486 312.746 275.883 312.746 275.255Z" fill="#E2E8F0"/>
<path d="M278.006 275.255C278.006 274.787 278.144 274.329 278.402 273.94C278.66 273.55 279.027 273.247 279.457 273.068C279.886 272.889 280.359 272.842 280.815 272.933C281.271 273.024 281.689 273.25 282.018 273.581C282.347 273.912 282.571 274.334 282.661 274.793C282.752 275.253 282.706 275.729 282.528 276.161C282.35 276.594 282.049 276.964 281.662 277.224C281.275 277.484 280.821 277.623 280.356 277.623C279.733 277.623 279.135 277.374 278.694 276.93C278.253 276.486 278.006 275.883 278.006 275.255Z" fill="#E2E8F0"/>
<path d="M69.5103 275.255C69.5103 274.787 69.6481 274.329 69.9064 273.94C70.1647 273.55 70.5318 273.247 70.9612 273.068C71.3907 272.889 71.8633 272.842 72.3193 272.933C72.7752 273.024 73.1941 273.25 73.5228 273.581C73.8515 273.912 74.0754 274.334 74.166 274.793C74.2567 275.253 74.2102 275.729 74.0323 276.161C73.8544 276.594 73.5531 276.964 73.1666 277.224C72.7801 277.484 72.3256 277.623 71.8607 277.623C71.2373 277.623 70.6395 277.374 70.1987 276.93C69.7579 276.486 69.5103 275.883 69.5103 275.255Z" fill="#E2E8F0"/>
<path d="M34.7427 275.256C34.7376 274.782 34.8726 274.316 35.1306 273.919C35.3885 273.522 35.7579 273.211 36.1916 273.026C36.6253 272.841 37.1039 272.79 37.5666 272.879C38.0292 272.969 38.4551 273.194 38.79 273.528C39.1249 273.862 39.3538 274.288 39.4476 274.753C39.5414 275.218 39.4959 275.701 39.3168 276.14C39.1377 276.579 38.8332 276.954 38.4419 277.219C38.0505 277.483 37.5901 277.624 37.119 277.624C36.4932 277.624 35.8927 277.375 35.4478 276.932C35.0029 276.489 34.7495 275.886 34.7427 275.256Z" fill="#E2E8F0"/>
<path d="M312.746 305.568C312.746 305.1 312.884 304.642 313.142 304.253C313.4 303.863 313.767 303.56 314.197 303.381C314.626 303.201 315.099 303.154 315.555 303.246C316.011 303.337 316.429 303.563 316.758 303.894C317.087 304.225 317.311 304.647 317.401 305.106C317.492 305.565 317.446 306.042 317.268 306.474C317.09 306.907 316.789 307.277 316.402 307.537C316.015 307.797 315.561 307.936 315.096 307.936C314.473 307.936 313.875 307.686 313.434 307.242C312.993 306.798 312.746 306.196 312.746 305.568Z" fill="#E2E8F0"/>
<path d="M278.006 305.568C278.006 305.1 278.144 304.642 278.402 304.253C278.66 303.863 279.027 303.56 279.457 303.381C279.886 303.201 280.359 303.154 280.815 303.246C281.271 303.337 281.689 303.563 282.018 303.894C282.347 304.225 282.571 304.647 282.661 305.106C282.752 305.565 282.706 306.042 282.528 306.474C282.35 306.907 282.049 307.277 281.662 307.537C281.275 307.797 280.821 307.936 280.356 307.936C279.733 307.936 279.135 307.686 278.694 307.242C278.253 306.798 278.006 306.196 278.006 305.568Z" fill="#E2E8F0"/>
<path d="M243.238 305.567C243.233 305.092 243.369 304.626 243.628 304.228C243.887 303.83 244.258 303.519 244.693 303.335C245.128 303.151 245.608 303.101 246.072 303.193C246.535 303.284 246.961 303.513 247.295 303.849C247.629 304.185 247.855 304.614 247.946 305.081C248.037 305.548 247.988 306.031 247.805 306.47C247.622 306.908 247.313 307.282 246.919 307.543C246.524 307.804 246.061 307.94 245.589 307.935C244.965 307.935 244.367 307.686 243.927 307.242C243.486 306.798 243.238 306.195 243.238 305.567Z" fill="#E2E8F0"/>
<path d="M208.498 305.568C208.498 305.1 208.636 304.642 208.894 304.253C209.152 303.863 209.52 303.56 209.949 303.381C210.379 303.201 210.851 303.154 211.307 303.246C211.763 303.337 212.182 303.563 212.511 303.894C212.839 304.225 213.063 304.647 213.154 305.106C213.245 305.565 213.198 306.042 213.02 306.474C212.842 306.907 212.541 307.277 212.154 307.537C211.768 307.797 211.313 307.936 210.849 307.936C210.225 307.936 209.627 307.686 209.186 307.242C208.746 306.798 208.498 306.196 208.498 305.568Z" fill="#E2E8F0"/>
<path d="M173.758 305.568C173.758 305.1 173.896 304.642 174.154 304.253C174.412 303.863 174.779 303.56 175.209 303.381C175.638 303.201 176.111 303.154 176.567 303.246C177.023 303.337 177.442 303.563 177.77 303.894C178.099 304.225 178.323 304.647 178.414 305.106C178.504 305.565 178.458 306.042 178.28 306.474C178.102 306.907 177.801 307.277 177.414 307.537C177.028 307.797 176.573 307.936 176.108 307.936C175.485 307.936 174.887 307.686 174.446 307.242C174.006 306.798 173.758 306.196 173.758 305.568Z" fill="#E2E8F0"/>
<path d="M138.99 305.567C138.985 305.092 139.121 304.626 139.38 304.228C139.639 303.83 140.01 303.519 140.445 303.335C140.881 303.151 141.361 303.101 141.824 303.193C142.287 303.284 142.713 303.513 143.047 303.849C143.381 304.185 143.608 304.614 143.699 305.081C143.789 305.548 143.74 306.031 143.557 306.47C143.374 306.908 143.065 307.282 142.671 307.543C142.276 307.804 141.813 307.94 141.341 307.935C140.718 307.935 140.12 307.686 139.679 307.242C139.238 306.798 138.99 306.195 138.99 305.567Z" fill="#E2E8F0"/>
<path d="M208.471 275.195C208.471 274.727 208.608 274.269 208.867 273.88C209.125 273.49 209.492 273.187 209.922 273.008C210.351 272.829 210.824 272.782 211.28 272.873C211.736 272.964 212.154 273.19 212.483 273.521C212.812 273.852 213.036 274.274 213.126 274.733C213.217 275.193 213.171 275.669 212.993 276.101C212.815 276.534 212.513 276.904 212.127 277.164C211.74 277.424 211.286 277.563 210.821 277.563C210.198 277.563 209.6 277.314 209.159 276.87C208.718 276.425 208.471 275.823 208.471 275.195Z" fill="#E2E8F0"/>
<path d="M173.706 275.192C173.701 274.717 173.836 274.25 174.095 273.853C174.354 273.455 174.725 273.144 175.161 272.96C175.596 272.775 176.076 272.726 176.539 272.817C177.002 272.909 177.428 273.137 177.762 273.474C178.096 273.81 178.323 274.239 178.414 274.706C178.505 275.172 178.455 275.656 178.272 276.094C178.089 276.533 177.781 276.906 177.386 277.167C176.991 277.428 176.528 277.565 176.056 277.56C175.433 277.56 174.835 277.311 174.394 276.866C173.953 276.422 173.706 275.82 173.706 275.192Z" fill="#E2E8F0"/>
<path d="M138.965 275.195C138.965 274.727 139.103 274.269 139.361 273.88C139.62 273.49 139.987 273.187 140.416 273.008C140.846 272.829 141.318 272.782 141.774 272.873C142.23 272.964 142.649 273.19 142.978 273.521C143.307 273.852 143.53 274.274 143.621 274.733C143.712 275.193 143.665 275.669 143.487 276.101C143.309 276.534 143.008 276.904 142.622 277.164C142.235 277.424 141.781 277.563 141.316 277.563C140.692 277.563 140.095 277.314 139.654 276.87C139.213 276.425 138.965 275.823 138.965 275.195Z" fill="#E2E8F0"/>
<path d="M104.223 275.195C104.223 274.727 104.361 274.269 104.619 273.88C104.877 273.49 105.244 273.187 105.674 273.008C106.103 272.829 106.576 272.782 107.032 272.873C107.488 272.964 107.907 273.19 108.235 273.521C108.564 273.852 108.788 274.274 108.879 274.733C108.969 275.193 108.923 275.669 108.745 276.101C108.567 276.534 108.266 276.904 107.879 277.164C107.493 277.424 107.038 277.563 106.573 277.563C105.95 277.563 105.352 277.314 104.911 276.87C104.47 276.425 104.223 275.823 104.223 275.195Z" fill="#E2E8F0"/>
<path d="M173.89 245.006C173.89 244.538 174.028 244.08 174.287 243.69C174.545 243.301 174.912 242.997 175.341 242.818C175.771 242.639 176.244 242.592 176.7 242.684C177.155 242.775 177.574 243 177.903 243.332C178.232 243.663 178.456 244.085 178.546 244.544C178.637 245.003 178.59 245.479 178.413 245.912C178.235 246.345 177.933 246.714 177.547 246.975C177.16 247.235 176.706 247.374 176.241 247.374C175.618 247.374 175.02 247.124 174.579 246.68C174.138 246.236 173.89 245.634 173.89 245.006Z" fill="#E2E8F0"/>
<path d="M139.15 245.006C139.15 244.538 139.288 244.08 139.546 243.69C139.805 243.301 140.172 242.997 140.601 242.818C141.031 242.639 141.503 242.592 141.959 242.684C142.415 242.775 142.834 243 143.163 243.332C143.491 243.663 143.715 244.085 143.806 244.544C143.897 245.003 143.85 245.479 143.672 245.912C143.494 246.345 143.193 246.714 142.807 246.975C142.42 247.235 141.966 247.374 141.501 247.374C140.877 247.374 140.279 247.124 139.839 246.68C139.398 246.236 139.15 245.634 139.15 245.006Z" fill="#E2E8F0"/>
<path d="M104.383 245.003C104.378 244.527 104.513 244.061 104.773 243.663C105.032 243.265 105.403 242.955 105.838 242.77C106.273 242.586 106.753 242.536 107.216 242.628C107.68 242.719 108.105 242.948 108.439 243.284C108.773 243.62 109 244.049 109.091 244.516C109.182 244.983 109.133 245.466 108.949 245.905C108.766 246.343 108.458 246.717 108.063 246.978C107.668 247.239 107.205 247.376 106.733 247.37C106.11 247.37 105.512 247.121 105.071 246.677C104.63 246.233 104.383 245.631 104.383 245.003Z" fill="#E2E8F0"/>
<path d="M173.563 214.817C173.563 214.349 173.701 213.891 173.959 213.502C174.217 213.112 174.584 212.809 175.014 212.629C175.443 212.45 175.916 212.403 176.372 212.495C176.828 212.586 177.247 212.812 177.575 213.143C177.904 213.474 178.128 213.896 178.219 214.355C178.309 214.814 178.263 215.29 178.085 215.723C177.907 216.156 177.606 216.525 177.219 216.786C176.833 217.046 176.378 217.185 175.913 217.185C175.29 217.185 174.692 216.935 174.251 216.491C173.811 216.047 173.563 215.445 173.563 214.817Z" fill="#E2E8F0"/>
<path d="M138.796 214.814C138.79 214.338 138.926 213.872 139.185 213.474C139.444 213.077 139.815 212.766 140.25 212.581C140.686 212.397 141.166 212.347 141.629 212.439C142.092 212.53 142.518 212.759 142.852 213.095C143.186 213.432 143.413 213.861 143.504 214.327C143.594 214.794 143.545 215.277 143.362 215.716C143.179 216.154 142.871 216.528 142.476 216.789C142.081 217.05 141.618 217.187 141.146 217.182C140.523 217.182 139.925 216.932 139.484 216.488C139.043 216.044 138.796 215.442 138.796 214.814Z" fill="#E2E8F0"/>
<path d="M104.055 214.817C104.055 214.349 104.193 213.891 104.451 213.502C104.71 213.112 105.077 212.809 105.506 212.629C105.936 212.45 106.408 212.403 106.864 212.495C107.32 212.586 107.739 212.812 108.068 213.143C108.397 213.474 108.62 213.896 108.711 214.355C108.802 214.814 108.755 215.29 108.577 215.723C108.399 216.156 108.098 216.525 107.712 216.786C107.325 217.046 106.871 217.185 106.406 217.185C105.782 217.185 105.185 216.935 104.744 216.491C104.303 216.047 104.055 215.445 104.055 214.817Z" fill="#E2E8F0"/>
<path d="M69.3153 214.817C69.3153 214.349 69.4532 213.891 69.7114 213.502C69.9697 213.112 70.3368 212.809 70.7663 212.629C71.1958 212.45 71.6684 212.403 72.1243 212.495C72.5803 212.586 72.9991 212.812 73.3278 213.143C73.6565 213.474 73.8804 213.896 73.9711 214.355C74.0618 214.814 74.0152 215.29 73.8373 215.723C73.6594 216.156 73.3582 216.525 72.9716 216.786C72.5851 217.046 72.1307 217.185 71.6658 217.185C71.0424 217.185 70.4445 216.935 70.0037 216.491C69.5629 216.047 69.3153 215.445 69.3153 214.817Z" fill="#E2E8F0"/>
<path d="M138.723 184.358C138.723 183.89 138.861 183.432 139.119 183.042C139.377 182.653 139.745 182.35 140.174 182.17C140.603 181.991 141.076 181.944 141.532 182.036C141.988 182.127 142.407 182.352 142.736 182.684C143.064 183.015 143.288 183.437 143.379 183.896C143.47 184.355 143.423 184.831 143.245 185.264C143.067 185.697 142.766 186.066 142.379 186.327C141.993 186.587 141.538 186.726 141.074 186.726C140.45 186.726 139.852 186.476 139.411 186.032C138.971 185.588 138.723 184.986 138.723 184.358Z" fill="#E2E8F0"/>
<path d="M103.983 184.358C103.983 183.89 104.121 183.432 104.379 183.042C104.637 182.653 105.004 182.35 105.434 182.17C105.863 181.991 106.336 181.944 106.792 182.036C107.248 182.127 107.667 182.352 107.995 182.684C108.324 183.015 108.548 183.437 108.639 183.896C108.729 184.355 108.683 184.831 108.505 185.264C108.327 185.697 108.026 186.066 107.639 186.327C107.253 186.587 106.798 186.726 106.333 186.726C105.71 186.726 105.112 186.476 104.671 186.032C104.23 185.588 103.983 184.986 103.983 184.358Z" fill="#E2E8F0"/>
<path d="M69.2154 184.355C69.2103 183.879 69.3459 183.413 69.6051 183.015C69.8642 182.618 70.2351 182.307 70.6703 182.122C71.1056 181.938 71.5855 181.888 72.0488 181.98C72.5122 182.071 72.938 182.3 73.2718 182.636C73.6057 182.973 73.8326 183.401 73.9234 183.868C74.0143 184.335 73.9651 184.818 73.782 185.257C73.599 185.695 73.2904 186.069 72.8957 186.33C72.501 186.591 72.038 186.728 71.5659 186.722C70.9425 186.722 70.3446 186.473 69.9038 186.029C69.463 185.585 69.2154 184.983 69.2154 184.355Z" fill="#E2E8F0"/>
<path d="M173.563 153.899C173.563 153.43 173.701 152.973 173.959 152.583C174.217 152.194 174.584 151.89 175.014 151.711C175.443 151.532 175.916 151.485 176.372 151.577C176.828 151.668 177.247 151.893 177.575 152.225C177.904 152.556 178.128 152.978 178.219 153.437C178.309 153.896 178.263 154.372 178.085 154.805C177.907 155.237 177.606 155.607 177.219 155.867C176.833 156.128 176.378 156.267 175.913 156.267C175.29 156.267 174.692 156.017 174.251 155.573C173.811 155.129 173.563 154.527 173.563 153.899Z" fill="#E2E8F0"/>
<path d="M138.796 153.896C138.79 153.42 138.926 152.954 139.185 152.556C139.444 152.158 139.815 151.848 140.25 151.663C140.686 151.479 141.166 151.429 141.629 151.521C142.092 151.612 142.518 151.841 142.852 152.177C143.186 152.513 143.413 152.942 143.504 153.409C143.594 153.876 143.545 154.359 143.362 154.798C143.179 155.236 142.871 155.61 142.476 155.871C142.081 156.132 141.618 156.269 141.146 156.263C140.523 156.263 139.925 156.014 139.484 155.57C139.043 155.126 138.796 154.524 138.796 153.896Z" fill="#E2E8F0"/>
<path d="M104.055 153.899C104.055 153.43 104.193 152.973 104.451 152.583C104.71 152.194 105.077 151.89 105.506 151.711C105.936 151.532 106.408 151.485 106.864 151.577C107.32 151.668 107.739 151.893 108.068 152.225C108.397 152.556 108.62 152.978 108.711 153.437C108.802 153.896 108.755 154.372 108.577 154.805C108.399 155.237 108.098 155.607 107.712 155.867C107.325 156.128 106.871 156.267 106.406 156.267C105.782 156.267 105.185 156.017 104.744 155.573C104.303 155.129 104.055 154.527 104.055 153.899Z" fill="#E2E8F0"/>
<path d="M69.3153 153.899C69.3153 153.43 69.4532 152.973 69.7114 152.583C69.9697 152.194 70.3368 151.89 70.7663 151.711C71.1958 151.532 71.6684 151.485 72.1243 151.577C72.5803 151.668 72.9991 151.893 73.3278 152.225C73.6565 152.556 73.8804 152.978 73.9711 153.437C74.0618 153.896 74.0152 154.372 73.8373 154.805C73.6594 155.237 73.3582 155.607 72.9716 155.867C72.5851 156.128 72.1307 156.267 71.6658 156.267C71.0424 156.267 70.4445 156.017 70.0037 155.573C69.5629 155.129 69.3153 154.527 69.3153 153.899Z" fill="#E2E8F0"/>
<path d="M173.633 123.978C173.633 123.51 173.771 123.052 174.029 122.663C174.287 122.273 174.655 121.97 175.084 121.791C175.514 121.611 175.986 121.565 176.442 121.656C176.898 121.747 177.317 121.973 177.646 122.304C177.974 122.635 178.198 123.057 178.289 123.516C178.38 123.976 178.333 124.452 178.155 124.884C177.977 125.317 177.676 125.687 177.289 125.947C176.903 126.207 176.448 126.346 175.984 126.346C175.36 126.346 174.762 126.097 174.321 125.652C173.881 125.208 173.633 124.606 173.633 123.978Z" fill="#E2E8F0"/>
<path d="M138.893 123.978C138.893 123.51 139.031 123.052 139.289 122.663C139.547 122.273 139.914 121.97 140.344 121.791C140.773 121.611 141.246 121.565 141.702 121.656C142.158 121.747 142.577 121.973 142.905 122.304C143.234 122.635 143.458 123.057 143.549 123.516C143.639 123.976 143.593 124.452 143.415 124.884C143.237 125.317 142.936 125.687 142.549 125.947C142.163 126.207 141.708 126.346 141.243 126.346C140.62 126.346 140.022 126.097 139.581 125.652C139.141 125.208 138.893 124.606 138.893 123.978Z" fill="#E2E8F0"/>
<path d="M104.126 123.975C104.12 123.499 104.256 123.033 104.515 122.635C104.774 122.238 105.145 121.927 105.58 121.743C106.016 121.558 106.496 121.509 106.959 121.6C107.422 121.692 107.848 121.92 108.182 122.257C108.516 122.593 108.743 123.022 108.834 123.489C108.924 123.955 108.875 124.439 108.692 124.877C108.509 125.316 108.201 125.689 107.806 125.95C107.411 126.211 106.948 126.348 106.476 126.343C105.853 126.343 105.255 126.093 104.814 125.649C104.373 125.205 104.126 124.603 104.126 123.975Z" fill="#E2E8F0"/>
<path d="M208.473 93.5191C208.473 93.0508 208.611 92.593 208.869 92.2037C209.127 91.8143 209.495 91.5108 209.924 91.3316C210.354 91.1524 210.826 91.1055 211.282 91.1969C211.738 91.2882 212.157 91.5137 212.486 91.8449C212.814 92.176 213.038 92.5979 213.129 93.0572C213.22 93.5165 213.173 93.9926 212.995 94.4252C212.817 94.8579 212.516 95.2276 212.129 95.4878C211.743 95.748 211.288 95.8869 210.824 95.8869C210.2 95.8869 209.602 95.6374 209.162 95.1934C208.721 94.7493 208.473 94.1471 208.473 93.5191Z" fill="#E2E8F0"/>
<path d="M173.706 93.516C173.701 93.0403 173.836 92.574 174.095 92.1764C174.354 91.7788 174.725 91.4679 175.161 91.2835C175.596 91.0991 176.076 91.0495 176.539 91.1411C177.002 91.2326 177.428 91.4611 177.762 91.7974C178.096 92.1338 178.323 92.5627 178.414 93.0294C178.505 93.4962 178.455 93.9796 178.272 94.4181C178.089 94.8565 177.781 95.2301 177.386 95.4911C176.991 95.7522 176.528 95.8889 176.056 95.8837C175.433 95.8837 174.835 95.6343 174.394 95.1902C173.953 94.7462 173.706 94.1439 173.706 93.516Z" fill="#E2E8F0"/>
<path d="M138.965 93.5191C138.965 93.0508 139.103 92.593 139.361 92.2037C139.62 91.8143 139.987 91.5108 140.416 91.3316C140.846 91.1524 141.318 91.1055 141.774 91.1969C142.23 91.2882 142.649 91.5137 142.978 91.8449C143.307 92.176 143.53 92.5979 143.621 93.0572C143.712 93.5165 143.665 93.9926 143.487 94.4252C143.309 94.8579 143.008 95.2276 142.622 95.4878C142.235 95.748 141.781 95.8869 141.316 95.8869C140.692 95.8869 140.095 95.6374 139.654 95.1934C139.213 94.7493 138.965 94.1471 138.965 93.5191Z" fill="#E2E8F0"/>
<path d="M104.225 93.5191C104.225 93.0508 104.363 92.593 104.621 92.2037C104.88 91.8143 105.247 91.5108 105.676 91.3316C106.106 91.1524 106.578 91.1055 107.034 91.1969C107.49 91.2882 107.909 91.5137 108.238 91.8449C108.567 92.176 108.79 92.5979 108.881 93.0572C108.972 93.5165 108.925 93.9926 108.747 94.4252C108.569 94.8579 108.268 95.2276 107.882 95.4878C107.495 95.748 107.041 95.8869 106.576 95.8869C105.952 95.8869 105.355 95.6374 104.914 95.1934C104.473 94.7493 104.225 94.1471 104.225 93.5191Z" fill="#E2E8F0"/>
<path d="M242.778 93.5167C242.778 93.0484 242.916 92.5906 243.174 92.2012C243.433 91.8118 243.8 91.5084 244.229 91.3292C244.659 91.1499 245.131 91.1031 245.587 91.1944C246.043 91.2858 246.462 91.5113 246.791 91.8424C247.12 92.1736 247.343 92.5955 247.434 93.0547C247.525 93.514 247.478 93.9901 247.3 94.4228C247.122 94.8554 246.821 95.2252 246.435 95.4854C246.048 95.7455 245.594 95.8844 245.129 95.8844C244.505 95.8844 243.908 95.635 243.467 95.1909C243.026 94.7469 242.778 94.1446 242.778 93.5167Z" fill="#E2E8F0"/>
<path d="M242.463 123.973C242.463 123.505 242.601 123.047 242.859 122.658C243.118 122.268 243.485 121.965 243.914 121.786C244.344 121.606 244.816 121.559 245.272 121.651C245.728 121.742 246.147 121.968 246.476 122.299C246.805 122.63 247.028 123.052 247.119 123.511C247.21 123.97 247.163 124.447 246.985 124.879C246.807 125.312 246.506 125.682 246.12 125.942C245.733 126.202 245.279 126.341 244.814 126.341C244.19 126.341 243.593 126.091 243.152 125.647C242.711 125.203 242.463 124.601 242.463 123.973Z" fill="#E2E8F0"/>
<path d="M208.146 123.978C208.146 123.51 208.283 123.052 208.542 122.663C208.8 122.273 209.167 121.97 209.597 121.791C210.026 121.611 210.499 121.565 210.955 121.656C211.411 121.747 211.829 121.973 212.158 122.304C212.487 122.635 212.711 123.057 212.801 123.516C212.892 123.976 212.846 124.452 212.668 124.884C212.49 125.317 212.188 125.687 211.802 125.947C211.415 126.207 210.961 126.346 210.496 126.346C209.873 126.346 209.275 126.097 208.834 125.652C208.393 125.208 208.146 124.606 208.146 123.978Z" fill="#E2E8F0"/>
<path d="M207.863 153.899C207.863 153.43 208.001 152.973 208.259 152.583C208.518 152.194 208.885 151.89 209.314 151.711C209.744 151.532 210.216 151.485 210.672 151.577C211.128 151.668 211.547 151.893 211.876 152.225C212.204 152.556 212.428 152.978 212.519 153.437C212.61 153.896 212.563 154.372 212.385 154.805C212.207 155.237 211.906 155.607 211.52 155.867C211.133 156.128 210.679 156.267 210.214 156.267C209.59 156.267 208.992 156.017 208.552 155.573C208.111 155.129 207.863 154.527 207.863 153.899Z" fill="#E2E8F0"/>
<path d="M242.283 153.894C242.283 153.426 242.421 152.968 242.68 152.578C242.938 152.189 243.305 151.886 243.734 151.706C244.164 151.527 244.636 151.48 245.092 151.572C245.548 151.663 245.967 151.888 246.296 152.22C246.625 152.551 246.848 152.973 246.939 153.432C247.03 153.891 246.983 154.367 246.805 154.8C246.628 155.233 246.326 155.602 245.94 155.863C245.553 156.123 245.099 156.262 244.634 156.262C244.01 156.262 243.413 156.012 242.972 155.568C242.531 155.124 242.283 154.522 242.283 153.894Z" fill="#E2E8F0"/>
<path d="M276.716 153.896C276.716 153.428 276.854 152.97 277.112 152.581C277.37 152.191 277.738 151.888 278.167 151.709C278.597 151.53 279.069 151.483 279.525 151.574C279.981 151.665 280.4 151.891 280.729 152.222C281.057 152.553 281.281 152.975 281.372 153.434C281.463 153.894 281.416 154.37 281.238 154.802C281.06 155.235 280.759 155.605 280.372 155.865C279.986 156.125 279.531 156.264 279.067 156.264C278.443 156.264 277.845 156.015 277.405 155.571C276.964 155.127 276.716 154.524 276.716 153.896Z" fill="#E2E8F0"/>
<path d="M207.926 184.353C207.926 183.885 208.064 183.427 208.322 183.037C208.58 182.648 208.947 182.345 209.377 182.165C209.806 181.986 210.279 181.939 210.735 182.031C211.191 182.122 211.61 182.347 211.938 182.679C212.267 183.01 212.491 183.432 212.582 183.891C212.672 184.35 212.626 184.826 212.448 185.259C212.27 185.692 211.969 186.061 211.582 186.322C211.196 186.582 210.741 186.721 210.276 186.721C209.653 186.721 209.055 186.471 208.614 186.027C208.173 185.583 207.926 184.981 207.926 184.353Z" fill="#E2E8F0"/>
<path d="M242.466 184.353C242.466 183.885 242.604 183.427 242.862 183.037C243.12 182.648 243.487 182.345 243.917 182.165C244.346 181.986 244.819 181.939 245.275 182.031C245.731 182.122 246.15 182.347 246.478 182.679C246.807 183.01 247.031 183.432 247.122 183.891C247.212 184.35 247.166 184.826 246.988 185.259C246.81 185.692 246.509 186.061 246.122 186.322C245.736 186.582 245.281 186.721 244.816 186.721C244.193 186.721 243.595 186.471 243.154 186.027C242.713 185.583 242.466 184.981 242.466 184.353Z" fill="#E2E8F0"/>
<path d="M276.821 184.358C276.821 183.89 276.959 183.432 277.217 183.042C277.475 182.653 277.843 182.35 278.272 182.17C278.702 181.991 279.174 181.944 279.63 182.036C280.086 182.127 280.505 182.352 280.834 182.684C281.162 183.015 281.386 183.437 281.477 183.896C281.568 184.355 281.521 184.831 281.343 185.264C281.165 185.697 280.864 186.066 280.477 186.327C280.091 186.587 279.636 186.726 279.172 186.726C278.548 186.726 277.95 186.476 277.51 186.032C277.069 185.588 276.821 184.986 276.821 184.358Z" fill="#E2E8F0"/>
<path d="M207.961 214.812C207.961 214.344 208.099 213.886 208.357 213.496C208.615 213.107 208.982 212.804 209.412 212.624C209.841 212.445 210.314 212.398 210.77 212.49C211.226 212.581 211.645 212.806 211.973 213.138C212.302 213.469 212.526 213.891 212.617 214.35C212.707 214.809 212.661 215.285 212.483 215.718C212.305 216.151 212.004 216.52 211.617 216.781C211.231 217.041 210.776 217.18 210.311 217.18C209.688 217.18 209.09 216.93 208.649 216.486C208.208 216.042 207.961 215.44 207.961 214.812Z" fill="#E2E8F0"/>
<path d="M242.393 214.812C242.393 214.344 242.531 213.886 242.79 213.496C243.048 213.107 243.415 212.804 243.844 212.624C244.274 212.445 244.747 212.398 245.202 212.49C245.658 212.581 246.077 212.806 246.406 213.138C246.735 213.469 246.959 213.891 247.049 214.35C247.14 214.809 247.093 215.285 246.915 215.718C246.738 216.151 246.436 216.52 246.05 216.781C245.663 217.041 245.209 217.18 244.744 217.18C244.121 217.18 243.523 216.93 243.082 216.486C242.641 216.042 242.393 215.44 242.393 214.812Z" fill="#E2E8F0"/>
<path d="M276.796 214.817C276.796 214.349 276.934 213.891 277.192 213.502C277.45 213.112 277.818 212.809 278.247 212.629C278.677 212.45 279.149 212.403 279.605 212.495C280.061 212.586 280.48 212.812 280.809 213.143C281.137 213.474 281.361 213.896 281.452 214.355C281.543 214.814 281.496 215.29 281.318 215.723C281.14 216.156 280.839 216.525 280.452 216.786C280.066 217.046 279.611 217.185 279.147 217.185C278.523 217.185 277.925 216.935 277.485 216.491C277.044 216.047 276.796 215.445 276.796 214.817Z" fill="#E2E8F0"/>
<path d="M208.6 245.001C208.6 244.532 208.738 244.075 208.997 243.685C209.255 243.296 209.622 242.992 210.051 242.813C210.481 242.634 210.954 242.587 211.409 242.679C211.865 242.77 212.284 242.995 212.613 243.327C212.942 243.658 213.166 244.08 213.256 244.539C213.347 244.998 213.3 245.474 213.123 245.907C212.945 246.34 212.643 246.709 212.257 246.97C211.87 247.23 211.416 247.369 210.951 247.369C210.328 247.369 209.73 247.119 209.289 246.675C208.848 246.231 208.6 245.629 208.6 245.001Z" fill="#E2E8F0"/>
<path d="M243.033 245.001C243.033 244.532 243.171 244.075 243.429 243.685C243.688 243.296 244.055 242.992 244.484 242.813C244.914 242.634 245.386 242.587 245.842 242.679C246.298 242.77 246.717 242.995 247.046 243.327C247.374 243.658 247.598 244.08 247.689 244.539C247.78 244.998 247.733 245.474 247.555 245.907C247.377 246.34 247.076 246.709 246.69 246.97C246.303 247.23 245.849 247.369 245.384 247.369C244.76 247.369 244.162 247.119 243.722 246.675C243.281 246.231 243.033 245.629 243.033 245.001Z" fill="#E2E8F0"/>
<path d="M242.943 275.195C242.943 274.727 243.081 274.269 243.339 273.88C243.598 273.49 243.965 273.187 244.394 273.008C244.824 272.829 245.296 272.782 245.752 272.873C246.208 272.964 246.627 273.19 246.956 273.521C247.284 273.852 247.508 274.274 247.599 274.733C247.69 275.193 247.643 275.669 247.465 276.101C247.287 276.534 246.986 276.904 246.599 277.164C246.213 277.424 245.758 277.563 245.294 277.563C244.67 277.563 244.072 277.314 243.632 276.87C243.191 276.425 242.943 275.823 242.943 275.195Z" fill="#E2E8F0"/>
<path d="M173.61 184.358C173.61 183.89 173.748 183.432 174.007 183.042C174.265 182.653 174.632 182.35 175.061 182.17C175.491 181.991 175.964 181.944 176.42 182.036C176.875 182.127 177.294 182.352 177.623 182.684C177.952 183.015 178.176 183.437 178.266 183.896C178.357 184.355 178.31 184.831 178.133 185.264C177.955 185.697 177.653 186.066 177.267 186.327C176.88 186.587 176.426 186.726 175.961 186.726C175.338 186.726 174.74 186.476 174.299 186.032C173.858 185.588 173.61 184.986 173.61 184.358Z" fill="#E2E8F0"/>
<path d="M104.25 305.568C104.25 305.1 104.388 304.642 104.646 304.253C104.905 303.863 105.272 303.56 105.701 303.381C106.131 303.201 106.603 303.154 107.059 303.246C107.515 303.337 107.934 303.563 108.263 303.894C108.592 304.225 108.815 304.647 108.906 305.106C108.997 305.565 108.95 306.042 108.772 306.474C108.594 306.907 108.293 307.277 107.907 307.537C107.52 307.797 107.066 307.936 106.601 307.936C105.977 307.936 105.38 307.686 104.939 307.242C104.498 306.798 104.25 306.196 104.25 305.568Z" fill="#E2E8F0"/>
<path d="M69.5103 305.568C69.5103 305.1 69.6481 304.642 69.9064 304.253C70.1647 303.863 70.5318 303.56 70.9612 303.381C71.3907 303.201 71.8633 303.154 72.3193 303.246C72.7752 303.337 73.1941 303.563 73.5228 303.894C73.8515 304.225 74.0754 304.647 74.166 305.106C74.2567 305.565 74.2102 306.042 74.0323 306.474C73.8544 306.907 73.5531 307.277 73.1666 307.537C72.7801 307.797 72.3256 307.936 71.8607 307.936C71.2373 307.936 70.6395 307.686 70.1987 307.242C69.7579 306.798 69.5103 306.196 69.5103 305.568Z" fill="#E2E8F0"/>
<path d="M34.7427 305.568C34.7376 305.093 34.8726 304.628 35.1306 304.231C35.3885 303.834 35.7579 303.523 36.1916 303.338C36.6253 303.152 37.1039 303.101 37.5666 303.191C38.0292 303.28 38.4551 303.506 38.79 303.84C39.1249 304.173 39.3538 304.6 39.4476 305.065C39.5414 305.53 39.4959 306.013 39.3168 306.452C39.1377 306.89 38.8332 307.266 38.4419 307.53C38.0505 307.794 37.5901 307.935 37.119 307.935C36.4932 307.935 35.8927 307.687 35.4478 307.243C35.0029 306.8 34.7495 306.198 34.7427 305.568Z" fill="#E2E8F0"/>
<path d="M278.006 335.88C278.006 335.411 278.144 334.954 278.402 334.564C278.66 334.175 279.027 333.871 279.457 333.692C279.886 333.513 280.359 333.466 280.815 333.557C281.271 333.649 281.689 333.874 282.018 334.205C282.347 334.536 282.571 334.958 282.661 335.418C282.752 335.877 282.706 336.353 282.528 336.786C282.35 337.218 282.049 337.588 281.662 337.848C281.275 338.108 280.821 338.247 280.356 338.247C279.733 338.247 279.135 337.998 278.694 337.554C278.253 337.11 278.006 336.508 278.006 335.88Z" fill="#E2E8F0"/>
<path d="M243.238 335.88C243.233 335.405 243.369 334.938 243.628 334.541C243.887 334.143 244.258 333.832 244.693 333.648C245.128 333.463 245.608 333.414 246.072 333.505C246.535 333.597 246.961 333.825 247.295 334.162C247.629 334.498 247.855 334.927 247.946 335.394C248.037 335.86 247.988 336.344 247.805 336.782C247.622 337.221 247.313 337.594 246.919 337.855C246.524 338.116 246.061 338.253 245.589 338.248C244.965 338.248 244.367 337.998 243.927 337.554C243.486 337.11 243.238 336.508 243.238 335.88Z" fill="#E2E8F0"/>
<path d="M208.498 335.88C208.498 335.252 208.746 334.649 209.186 334.205C209.627 333.761 210.225 333.512 210.849 333.512C211.472 333.512 212.07 333.761 212.511 334.205C212.951 334.649 213.199 335.252 213.199 335.88C213.199 336.508 212.951 337.11 212.511 337.554C212.07 337.998 211.472 338.247 210.849 338.247C210.225 338.247 209.627 337.998 209.186 337.554C208.746 337.11 208.498 336.508 208.498 335.88Z" fill="#E2E8F0"/>
<path d="M173.758 335.88C173.758 335.411 173.896 334.954 174.154 334.564C174.412 334.175 174.779 333.871 175.209 333.692C175.638 333.513 176.111 333.466 176.567 333.557C177.023 333.649 177.442 333.874 177.77 334.205C178.099 334.536 178.323 334.958 178.414 335.418C178.504 335.877 178.458 336.353 178.28 336.786C178.102 337.218 177.801 337.588 177.414 337.848C177.028 338.108 176.573 338.247 176.108 338.247C175.485 338.247 174.887 337.998 174.446 337.554C174.006 337.11 173.758 336.508 173.758 335.88Z" fill="#E2E8F0"/>
<path d="M138.99 335.88C138.985 335.405 139.121 334.938 139.38 334.541C139.639 334.143 140.01 333.832 140.445 333.648C140.881 333.463 141.361 333.414 141.824 333.505C142.287 333.597 142.713 333.825 143.047 334.162C143.381 334.498 143.608 334.927 143.699 335.394C143.789 335.86 143.74 336.344 143.557 336.782C143.374 337.221 143.065 337.594 142.671 337.855C142.276 338.116 141.813 338.253 141.341 338.248C140.718 338.248 140.12 337.998 139.679 337.554C139.238 337.11 138.99 336.508 138.99 335.88Z" fill="#E2E8F0"/>
<path d="M104.25 335.88C104.25 335.252 104.498 334.649 104.939 334.205C105.38 333.761 105.977 333.512 106.601 333.512C107.224 333.512 107.822 333.761 108.263 334.205C108.704 334.649 108.951 335.252 108.951 335.88C108.951 336.508 108.704 337.11 108.263 337.554C107.822 337.998 107.224 338.247 106.601 338.247C105.977 338.247 105.38 337.998 104.939 337.554C104.498 337.11 104.25 336.508 104.25 335.88Z" fill="#E2E8F0"/>
<path d="M69.5103 335.88C69.5103 335.411 69.6481 334.954 69.9064 334.564C70.1647 334.175 70.5318 333.871 70.9612 333.692C71.3907 333.513 71.8633 333.466 72.3193 333.557C72.7752 333.649 73.1941 333.874 73.5228 334.205C73.8515 334.536 74.0754 334.958 74.166 335.418C74.2567 335.877 74.2102 336.353 74.0323 336.786C73.8544 337.218 73.5531 337.588 73.1666 337.848C72.7801 338.108 72.3256 338.247 71.8607 338.247C71.2373 338.247 70.6395 337.998 70.1987 337.554C69.7579 337.11 69.5103 336.508 69.5103 335.88Z" fill="#E2E8F0"/>
<path d="M243.238 366.192C243.233 365.717 243.369 365.25 243.628 364.853C243.887 364.455 244.258 364.144 244.693 363.96C245.128 363.776 245.608 363.726 246.072 363.817C246.535 363.909 246.961 364.137 247.295 364.474C247.629 364.81 247.855 365.239 247.946 365.706C248.037 366.173 247.988 366.656 247.805 367.094C247.622 367.533 247.313 367.906 246.919 368.168C246.524 368.429 246.061 368.565 245.589 368.56C244.965 368.56 244.367 368.311 243.927 367.867C243.486 367.423 243.238 366.82 243.238 366.192Z" fill="#E2E8F0"/>
<path d="M208.498 366.193C208.498 365.565 208.746 364.963 209.186 364.519C209.627 364.075 210.225 363.825 210.849 363.825C211.472 363.825 212.07 364.075 212.511 364.519C212.951 364.963 213.199 365.565 213.199 366.193C213.199 366.821 212.951 367.423 212.511 367.867C212.07 368.311 211.472 368.561 210.849 368.561C210.225 368.561 209.627 368.311 209.186 367.867C208.746 367.423 208.498 366.821 208.498 366.193Z" fill="#E2E8F0"/>
<path d="M173.758 366.193C173.758 365.725 173.896 365.267 174.154 364.877C174.412 364.488 174.779 364.185 175.209 364.005C175.638 363.826 176.111 363.779 176.567 363.871C177.023 363.962 177.442 364.188 177.77 364.519C178.099 364.85 178.323 365.272 178.414 365.731C178.504 366.19 178.458 366.666 178.28 367.099C178.102 367.532 177.801 367.901 177.414 368.162C177.028 368.422 176.573 368.561 176.108 368.561C175.485 368.561 174.887 368.311 174.446 367.867C174.006 367.423 173.758 366.821 173.758 366.193Z" fill="#E2E8F0"/>
<path d="M138.99 366.192C138.985 365.717 139.121 365.25 139.38 364.853C139.639 364.455 140.01 364.144 140.445 363.96C140.881 363.776 141.361 363.726 141.824 363.817C142.287 363.909 142.713 364.137 143.047 364.474C143.381 364.81 143.608 365.239 143.699 365.706C143.789 366.173 143.74 366.656 143.557 367.094C143.374 367.533 143.065 367.906 142.671 368.168C142.276 368.429 141.813 368.565 141.341 368.56C140.718 368.56 140.12 368.311 139.679 367.867C139.238 367.423 138.99 366.82 138.99 366.192Z" fill="#E2E8F0"/>
<path d="M104.25 366.193C104.25 365.565 104.498 364.963 104.939 364.519C105.38 364.075 105.977 363.825 106.601 363.825C107.224 363.825 107.822 364.075 108.263 364.519C108.704 364.963 108.951 365.565 108.951 366.193C108.951 366.821 108.704 367.423 108.263 367.867C107.822 368.311 107.224 368.561 106.601 368.561C105.977 368.561 105.38 368.311 104.939 367.867C104.498 367.423 104.25 366.821 104.25 366.193Z" fill="#E2E8F0"/>
<path d="M74.2135 366.288C74.2135 366.756 74.0757 367.214 73.8174 367.603C73.5591 367.993 73.192 368.296 72.7625 368.476C72.333 368.655 71.8604 368.702 71.4045 368.61C70.9485 368.519 70.5297 368.293 70.201 367.962C69.8723 367.631 69.6484 367.209 69.5577 366.75C69.467 366.291 69.5136 365.815 69.6915 365.382C69.8694 364.949 70.1707 364.579 70.5572 364.319C70.9437 364.059 71.3982 363.92 71.863 363.92C72.4864 363.92 73.0843 364.17 73.5251 364.614C73.9659 365.058 74.2135 365.66 74.2135 366.288Z" fill="#E2E8F0"/>
<path d="M39.5432 335.927C39.5483 336.402 39.4126 336.869 39.1535 337.266C38.8944 337.664 38.5235 337.975 38.0883 338.159C37.653 338.343 37.1731 338.393 36.7098 338.301C36.2464 338.21 35.8206 337.981 35.4867 337.645C35.1529 337.309 34.926 336.88 34.8352 336.413C34.7443 335.946 34.7935 335.463 34.9766 335.024C35.1596 334.586 35.4682 334.212 35.8629 333.951C36.2576 333.69 36.7206 333.554 37.1927 333.559C37.8161 333.559 38.414 333.808 38.8548 334.252C39.2956 334.696 39.5432 335.299 39.5432 335.927Z" fill="#E2E8F0"/>
<path d="M39.8158 366.288C39.8158 366.756 39.678 367.214 39.4197 367.603C39.1614 367.993 38.7943 368.296 38.3648 368.476C37.9353 368.655 37.4627 368.702 37.0068 368.61C36.5509 368.519 36.132 368.293 35.8033 367.962C35.4746 367.631 35.2507 367.209 35.1601 366.75C35.0694 366.291 35.1159 365.815 35.2938 365.382C35.4717 364.949 35.773 364.579 36.1595 364.319C36.546 364.059 37.0005 363.92 37.4654 363.92C38.0887 363.92 38.6866 364.17 39.1274 364.614C39.5682 365.058 39.8158 365.66 39.8158 366.288Z" fill="#E2E8F0"/>
<path d="M5.23572 366.288C5.23572 366.756 5.09788 367.214 4.8396 367.603C4.58133 367.993 4.21422 368.296 3.78473 368.476C3.35524 368.655 2.88264 368.702 2.42669 368.61C1.97075 368.519 1.55193 368.293 1.22321 367.962C0.894494 367.631 0.670636 367.209 0.579943 366.75C0.48925 366.291 0.535807 365.815 0.713709 365.382C0.891611 364.949 1.19287 364.579 1.5794 364.319C1.96594 364.059 2.42038 363.92 2.88526 363.92C3.50864 363.92 4.10648 364.17 4.54728 364.614C4.98808 365.058 5.23572 365.66 5.23572 366.288Z" fill="#E2E8F0"/>
<path d="M5.09801 335.842C5.10311 336.318 4.96745 336.784 4.70831 337.182C4.44918 337.579 4.07832 337.89 3.64307 338.075C3.20782 338.259 2.72791 338.309 2.26456 338.217C1.80121 338.125 1.37543 337.897 1.04155 337.561C0.707672 337.224 0.480829 336.795 0.389964 336.329C0.299099 335.862 0.348327 335.378 0.531376 334.94C0.714426 334.502 1.02299 334.128 1.4177 333.867C1.81242 333.606 2.27539 333.469 2.74754 333.474C3.37093 333.474 3.96877 333.724 4.40957 334.168C4.85037 334.612 5.09801 335.214 5.09801 335.842Z" fill="#E2E8F0"/>
<path d="M4.93806 305.61C4.93296 306.078 4.79078 306.533 4.52943 306.919C4.26808 307.305 3.89923 307.604 3.46932 307.779C3.0394 307.955 2.56765 307.998 2.11342 307.903C1.65918 307.809 1.2428 307.582 0.916659 307.249C0.590519 306.917 0.369202 306.495 0.280583 306.037C0.191963 305.578 0.23997 305.104 0.418605 304.672C0.59724 304.241 0.898502 303.873 1.28446 303.614C1.67041 303.355 2.12381 303.217 2.58759 303.217C2.89844 303.217 3.20622 303.279 3.49308 303.399C3.77995 303.52 4.04023 303.697 4.25883 303.919C4.47743 304.142 4.65002 304.406 4.76662 304.696C4.88321 304.987 4.94148 305.297 4.93806 305.61Z" fill="#E2E8F0"/>
<path d="M4.77815 275.307C4.77305 275.774 4.63087 276.229 4.36951 276.615C4.10815 277.001 3.7393 277.3 3.30937 277.475C2.87944 277.651 2.40768 277.694 1.95343 277.6C1.49919 277.505 1.08275 277.278 0.756607 276.946C0.430459 276.614 0.209176 276.192 0.120554 275.733C0.0319328 275.274 0.0799408 274.8 0.25858 274.369C0.43722 273.937 0.73849 273.569 1.12445 273.31C1.51041 273.051 1.96383 272.913 2.42761 272.913C2.73848 272.913 3.04626 272.975 3.33314 273.096C3.62001 273.216 3.88029 273.393 4.0989 273.615C4.31751 273.838 4.49007 274.102 4.60666 274.392C4.72325 274.683 4.78156 274.993 4.77815 275.307Z" fill="#E2E8F0"/>
<path d="M277.866 366.288C277.866 366.756 278.004 367.214 278.262 367.603C278.52 367.993 278.887 368.296 279.317 368.476C279.746 368.655 280.219 368.702 280.675 368.61C281.131 368.519 281.55 368.293 281.878 367.962C282.207 367.631 282.431 367.209 282.521 366.75C282.612 366.291 282.566 365.815 282.388 365.382C282.21 364.949 281.909 364.579 281.522 364.319C281.136 364.059 280.681 363.92 280.216 363.92C279.593 363.92 278.995 364.17 278.554 364.614C278.113 365.058 277.866 365.66 277.866 366.288Z" fill="#E2E8F0"/>
<path d="M312.536 335.927C312.531 336.402 312.666 336.869 312.926 337.266C313.185 337.664 313.556 337.975 313.991 338.159C314.426 338.343 314.906 338.393 315.369 338.301C315.833 338.21 316.258 337.981 316.592 337.645C316.926 337.309 317.153 336.88 317.244 336.413C317.335 335.946 317.286 335.463 317.102 335.024C316.919 334.586 316.611 334.212 316.216 333.951C315.821 333.69 315.358 333.554 314.886 333.559C314.263 333.559 313.665 333.808 313.224 334.252C312.783 334.696 312.536 335.299 312.536 335.927Z" fill="#E2E8F0"/>
<path d="M312.263 366.288C312.263 366.756 312.401 367.214 312.659 367.603C312.918 367.993 313.285 368.296 313.714 368.476C314.144 368.655 314.616 368.702 315.072 368.61C315.528 368.519 315.947 368.293 316.276 367.962C316.605 367.631 316.828 367.209 316.919 366.75C317.01 366.291 316.963 365.815 316.785 365.382C316.607 364.949 316.306 364.579 315.92 364.319C315.533 364.059 315.079 363.92 314.614 363.92C313.99 363.92 313.393 364.17 312.952 364.614C312.511 365.058 312.263 365.66 312.263 366.288Z" fill="#E2E8F0"/>
<path d="M346.844 366.288C346.844 366.756 346.981 367.214 347.24 367.603C347.498 367.993 347.865 368.296 348.294 368.476C348.724 368.655 349.197 368.702 349.653 368.61C350.108 368.519 350.527 368.293 350.856 367.962C351.185 367.631 351.409 367.209 351.499 366.75C351.59 366.291 351.543 365.815 351.366 365.382C351.188 364.949 350.886 364.579 350.5 364.319C350.113 364.059 349.659 363.92 349.194 363.92C348.571 363.92 347.973 364.17 347.532 364.614C347.091 365.058 346.844 365.66 346.844 366.288Z" fill="#E2E8F0"/>
<path d="M346.981 335.842C346.976 336.318 347.112 336.784 347.371 337.182C347.63 337.579 348.001 337.89 348.436 338.075C348.871 338.259 349.351 338.309 349.814 338.217C350.278 338.125 350.704 337.897 351.037 337.561C351.371 337.224 351.598 336.795 351.689 336.329C351.78 335.862 351.731 335.378 351.548 334.94C351.365 334.502 351.056 334.128 350.661 333.867C350.267 333.606 349.804 333.469 349.331 333.474C348.708 333.474 348.11 333.724 347.669 334.168C347.229 334.612 346.981 335.214 346.981 335.842Z" fill="#E2E8F0"/>
<path d="M347.141 305.61C347.146 306.078 347.288 306.533 347.55 306.919C347.811 307.305 348.18 307.604 348.61 307.779C349.04 307.955 349.512 307.998 349.966 307.903C350.42 307.809 350.836 307.582 351.163 307.249C351.489 306.917 351.71 306.495 351.799 306.037C351.887 305.578 351.839 305.104 351.661 304.672C351.482 304.241 351.181 303.873 350.795 303.614C350.409 303.355 349.955 303.217 349.492 303.217C349.181 303.217 348.873 303.279 348.586 303.399C348.299 303.52 348.039 303.697 347.82 303.919C347.602 304.142 347.429 304.406 347.313 304.696C347.196 304.987 347.138 305.297 347.141 305.61Z" fill="#E2E8F0"/>
<path d="M347.301 275.307C347.306 275.774 347.448 276.229 347.71 276.615C347.971 277.001 348.34 277.3 348.77 277.475C349.2 277.651 349.672 277.694 350.126 277.6C350.58 277.505 350.996 277.278 351.323 276.946C351.649 276.614 351.87 276.192 351.959 275.733C352.047 275.274 351.999 274.8 351.821 274.369C351.642 273.937 351.341 273.569 350.955 273.31C350.569 273.051 350.115 272.913 349.652 272.913C349.341 272.913 349.033 272.975 348.746 273.096C348.459 273.216 348.199 273.393 347.98 273.615C347.762 273.838 347.589 274.102 347.473 274.392C347.356 274.683 347.298 274.993 347.301 275.307Z" fill="#E2E8F0"/>
</svg>
