<svg width="551" height="472" viewBox="0 0 551 472" fill="none" xmlns="http://www.w3.org/2000/svg">
<g clip-path="url(#clip0_1266_1923)">
<circle cx="400.5" cy="235.5" r="4.5" fill="#334155"/>
<circle cx="400.5" cy="235.5" r="9" stroke="#334155"/>
<circle cx="9.5" cy="9.5" r="9" transform="matrix(1 0 -0.0174524 0.999848 365.5 367)" stroke="#334155"/>
<circle cx="268.5" cy="338.5" r="4.5" fill="#334155"/>
<circle cx="268.5" cy="338.5" r="9" stroke="#334155"/>
<path fill-rule="evenodd" clip-rule="evenodd" d="M445.939 374.047C450.541 357.484 453 340.029 453 322C453 317.871 452.871 313.773 452.617 309.709C451.931 312.955 450.651 316.371 448.851 319.872C447.698 322.116 446.329 324.398 444.761 326.699C447.221 341.714 447.743 357.52 445.939 374.047ZM443.938 327.882C446.371 343.328 446.743 359.608 444.629 376.645C443.858 379.049 442.211 382.461 439.7 386.504C436.753 391.248 432.637 396.825 427.409 402.602C416.954 414.158 402.071 426.494 383.236 434.566L383.215 434.575L383.195 434.586C381.346 435.589 379.466 436.579 377.553 437.556C378.649 417.467 377.864 397.037 375.475 376.776C379.787 374.875 383.968 372.828 388.018 370.632C406.984 362.5 423.583 350.644 435.28 338.326C438.57 334.86 441.476 331.355 443.938 327.882ZM440.549 387.032C441.847 384.943 442.926 383.004 443.779 381.27C430.983 421.197 405.603 455.493 372.308 479.49C374.988 466.173 376.685 452.525 377.488 438.712C379.58 437.649 381.635 436.569 383.651 435.476C402.636 427.335 417.625 414.906 428.151 403.273C433.416 397.454 437.569 391.829 440.549 387.032ZM374.518 377.195C376.895 397.499 377.657 417.965 376.523 438.08C347.289 452.854 310.767 464.375 268.95 466.571C268.93 441.664 268.873 418.412 268.778 396.728C309.865 396.008 345.191 389.926 374.518 377.195ZM267.778 396.745C265.323 396.782 262.847 396.801 260.351 396.801C224.001 396.801 180.969 386.516 147.007 374.048C143.761 394.498 141.462 416.507 140.321 440.165C150.595 444.717 161.817 448.991 173.504 452.732C200.029 461.222 228.91 466.95 254.497 466.95C259.039 466.95 263.524 466.838 267.95 466.622C267.93 441.701 267.873 418.438 267.778 396.745ZM267.773 395.745C265.32 395.782 262.846 395.801 260.351 395.801C224.067 395.801 181.059 385.504 147.167 373.042C149.938 355.789 153.384 339.649 157.377 324.569C186.035 334.372 219.993 340.051 256.411 340.051C260.087 340.051 263.756 340.001 267.41 339.901C267.564 357.234 267.685 375.825 267.773 395.745ZM268.773 395.728C268.685 375.805 268.564 357.209 268.41 339.873C303.254 338.839 336.839 333.309 364.511 323.674C368.912 340.808 372.269 358.418 374.395 376.158C345.177 388.9 309.904 395.006 268.773 395.728ZM268.401 338.873C303.202 337.839 336.703 332.309 364.26 322.703C361.23 311.025 357.716 299.572 353.777 288.453C351.782 282.823 349.679 277.279 347.475 271.836C324.855 279.914 296.532 284.242 267.751 285C268.01 301.419 268.226 319.343 268.401 338.873ZM267.736 284C296.438 283.243 324.626 278.928 347.098 270.909C340.088 253.722 332.071 237.548 323.294 222.834C307.305 228.847 287.82 232.61 266.666 233.2C267.079 248.232 267.435 265.114 267.736 284ZM265.666 233.226C266.079 248.256 266.436 265.138 266.736 284.025C264.01 284.089 261.28 284.12 258.55 284.12C227.765 284.12 199.258 278.916 175.837 270.069C183.211 252.594 191.339 237.092 199.861 223.407C217.04 229.624 238.077 233.282 260.802 233.282C262.432 233.282 264.054 233.263 265.666 233.226ZM266.638 232.201C287.625 231.615 306.934 227.892 322.772 221.962C313.789 207.013 304.021 193.592 293.727 182.172C285.557 185.119 275.673 186.968 264.956 187.281C265.278 193.642 265.579 200.573 265.861 208.107C266.139 215.542 266.398 223.563 266.638 232.201ZM263.956 187.305C264.278 193.667 264.58 200.603 264.862 208.145C265.14 215.575 265.399 223.592 265.639 232.226C264.036 232.263 262.423 232.282 260.802 232.282C238.261 232.282 217.419 228.666 200.404 222.539C204.896 215.381 209.495 208.724 214.148 202.547C219.661 195.23 225.251 188.585 230.831 182.576C239.607 185.574 250.241 187.328 261.703 187.328C262.458 187.328 263.209 187.321 263.956 187.305ZM264.906 186.282C275.373 185.978 285.015 184.197 293 181.37C283.298 170.722 273.138 161.853 262.735 155.155C263.538 163.43 264.261 173.725 264.906 186.282ZM261.725 155.102C262.532 163.376 263.258 173.694 263.905 186.306C263.175 186.321 262.441 186.328 261.703 186.328C250.517 186.328 240.152 184.642 231.58 181.774C241.858 170.808 252.088 161.995 261.725 155.102ZM262.55 153.294C265.611 151.15 268.61 149.2 271.53 147.435C278.126 143.449 284.32 140.408 289.912 138.229C281.729 135.734 272.069 134.287 261.703 134.287C261.018 134.287 260.337 134.293 259.659 134.305C260.472 137.571 261.226 141.994 261.924 147.698C262.138 149.441 262.346 151.305 262.55 153.294ZM258.634 134.329C259.452 137.553 260.219 141.999 260.932 147.819C261.156 149.655 261.376 151.625 261.589 153.735C252.586 147.254 240.784 142.497 229.29 139.651C237.519 136.576 247.622 134.635 258.634 134.329ZM259.4 133.31C260.164 133.295 260.931 133.287 261.703 133.287C272.668 133.287 282.876 134.892 291.424 137.656C292.825 137.139 294.186 136.677 295.503 136.27C299.822 134.936 303.683 134.183 306.961 133.974C291.896 130.143 276.127 128.075 259.887 128.002C258.99 128.006 258.095 128.016 257.203 128.031C257.426 128.326 257.639 128.669 257.842 129.053C258.364 130.043 258.858 131.371 259.328 133.048C259.352 133.135 259.376 133.222 259.4 133.31ZM255.857 128.058C256.197 128.322 256.569 128.786 256.957 129.521C257.434 130.423 257.905 131.676 258.365 133.318C258.367 133.324 258.368 133.33 258.37 133.336C246.747 133.684 236.108 135.838 227.577 139.24C218.977 137.246 210.599 136.326 203.762 136.583C218.842 131.588 236.662 128.511 255.857 128.058ZM256.077 127.021C208.999 127.713 165.962 145.088 132.613 173.498L132.577 173.456C131.687 174.221 130.819 174.999 129.974 175.787C128.886 176.748 127.809 177.72 126.743 178.705C125.017 180.114 123.487 181.537 122.177 182.965L122.227 183.01C94.7455 210.056 75.2479 245.19 67.5917 284.555L67.5576 284.55C67.5344 284.728 67.5118 284.905 67.4899 285.082C65.1992 297.036 64 309.378 64 322C64 342.459 67.1508 362.183 72.9937 380.711C72.9907 380.713 72.9908 380.713 72.9908 380.713L72.9912 380.714L72.9928 380.718L72.9987 380.733L73.0084 380.758C97.9361 459.738 171.781 517 259 517C346.111 517 419.88 459.881 444.898 381.052L445.037 381.073C445.063 380.896 445.089 380.72 445.115 380.543L445.162 380.217C450.905 361.832 454 342.277 454 322C454 315.98 453.727 310.025 453.193 304.144C453.188 303.775 453.173 303.408 453.148 303.046L453.091 303.049C450.901 280.338 444.814 258.765 435.509 239.008L435.493 238.915L435.467 238.92C414.643 194.765 377.734 159.688 332.298 141.245C313.56 132.407 288.427 127 260.802 127C260.496 127 260.192 127.001 259.887 127.002C259.592 127.001 259.296 127 259 127C258.029 127 257.059 127.007 256.092 127.021C256.088 127.019 256.084 127.017 256.081 127.015L256.077 127.021ZM266.752 285.024C267.01 301.444 267.227 319.37 267.401 338.901C263.75 339.001 260.085 339.051 256.411 339.051C220.058 339.051 186.188 333.377 157.635 323.601C162.772 304.37 168.799 286.872 175.45 270.991C199.006 279.895 227.649 285.12 258.55 285.12C261.285 285.12 264.02 285.089 266.752 285.024ZM267.951 467.623C263.524 467.839 259.039 467.95 254.497 467.95C228.776 467.95 199.788 462.195 173.199 453.684C161.618 449.978 150.486 445.746 140.27 441.236C139.763 452.087 139.5 463.285 139.5 474.837C172.438 500.626 213.924 516 259 516C300.769 516 339.455 502.8 371.114 480.343C373.87 466.928 375.619 453.168 376.456 439.234C347.186 453.944 310.695 465.388 268.951 467.573C268.955 473.741 268.957 480.011 268.957 486.384H267.957C267.957 480.029 267.955 473.776 267.951 467.623ZM146.05 373.696C142.8 394.126 140.494 416.108 139.341 439.728C126.697 434.072 115.529 428.001 106.752 422.003C95.3417 414.204 87.1321 403.794 81.7719 395.32C79.093 391.085 77.1292 387.338 75.8357 384.653C75.2552 383.447 74.8098 382.456 74.4956 381.73C73.6469 362.826 74.8855 345.386 77.7998 329.31C84.9514 340.143 95.7651 349.963 110.598 358.011C120.21 363.226 132.375 368.633 146.05 373.696ZM80.9268 395.854C79.2798 393.25 77.9004 390.829 76.7783 388.721C89.1827 422.589 110.76 452.034 138.5 474.049C138.512 462.623 138.782 451.543 139.289 440.801C126.452 435.078 115.103 428.921 106.188 422.828C94.6264 414.927 86.3298 404.396 80.9268 395.854ZM443.709 326.465C441.159 330.165 438.084 333.919 434.554 337.637C422.95 349.858 406.457 361.641 387.603 369.722L387.581 369.731L387.561 369.742C383.618 371.881 379.548 373.879 375.351 375.738C373.214 358.024 369.855 340.445 365.458 323.342C374.779 320.049 383.416 316.286 391.189 312.069C408.277 302.797 420.597 290.904 427.997 277.991C435.407 293.03 440.842 309.223 443.709 326.465ZM444.52 325.264C445.823 323.291 446.974 321.337 447.962 319.415C450.774 313.946 452.252 308.77 452.194 304.197C450.207 282.358 444.601 261.565 435.98 242.423C437.204 253.972 434.708 265.813 428.59 276.936C436.046 291.928 441.553 308.073 444.52 325.264ZM66.97 294.248C65.6718 303.312 65 312.577 65 322C65 341.671 67.9278 360.659 73.3715 378.551C72.778 360.397 74.114 343.604 77.0081 328.084C70.3368 317.501 67.0995 305.992 66.97 294.248ZM68.478 285.24C66.7221 299.519 69.4428 313.738 77.2843 326.631C80.602 309.504 85.8223 293.939 92.4383 279.817C84.1126 265.816 81.0961 250.222 84.9515 236.21C77.3901 251.521 71.7896 267.974 68.478 285.24ZM78.0639 327.882C81.3073 310.666 86.4777 295.029 93.0619 280.846C100.277 292.545 111.215 303.062 124.948 310.514C134.47 315.68 145.024 320.289 156.429 324.243C152.435 339.319 148.987 355.45 146.211 372.689C132.66 367.664 120.605 362.303 111.075 357.132C95.976 348.94 85.1099 338.919 78.0639 327.882ZM428.044 275.846C434.391 264.016 436.58 251.42 434.546 239.311C426.482 222.222 415.996 206.5 403.531 192.588L403.549 192.62C405.838 196.741 408.115 203.016 408.115 211.664C408.115 220.322 405.523 228.11 400.736 235.252C411.334 247.601 420.623 261.166 428.044 275.846ZM400.151 236.106C410.776 248.516 420.069 262.151 427.46 276.91C420.207 289.866 407.928 301.849 390.712 311.19C383.011 315.368 374.449 319.101 365.207 322.37C362.174 310.692 358.659 299.238 354.719 288.119C352.725 282.488 350.621 276.943 348.416 271.497C354.591 269.247 360.329 266.714 365.521 263.893C380.914 255.532 392.875 246.504 400.151 236.106ZM174.515 270.635C167.859 286.532 161.828 304.04 156.687 323.274C145.357 319.343 134.877 314.763 125.425 309.635C111.585 302.125 100.667 291.515 93.5684 279.764C101.601 262.737 111.674 247.826 122.885 234.813C130.239 245.058 141.44 254.281 155.566 261.954C161.409 265.128 167.748 268.034 174.515 270.635ZM122.291 233.972C111.094 246.937 101.018 261.786 92.9533 278.727C83.4235 262.344 81.2889 243.88 88.9472 228.563L88.9434 228.562C97.7222 212.618 108.678 198.042 121.41 185.234C116.188 192.194 113.038 199.49 113.038 206.26C113.038 215.997 116.304 225.338 122.291 233.972ZM400.058 234.465C404.653 227.523 407.115 219.992 407.115 211.664C407.115 203.2 404.889 197.09 402.675 193.105C401.866 191.65 401.059 190.477 400.361 189.575C388.649 179.138 375.449 171.429 361.883 165.829C364.391 170.382 365.732 175.182 365.732 180.141C365.732 186.282 363.676 192.179 359.892 197.666C371.54 206.199 382.639 215.821 392.777 226.456C395.264 229.065 397.692 231.735 400.058 234.465ZM399.477 235.322C392.355 245.613 380.512 254.612 365.044 263.015C359.887 265.816 354.183 268.333 348.04 270.57C341.035 253.391 333.022 237.209 324.243 222.473C340.047 216.389 352.341 208.086 359.315 198.482C370.91 206.979 381.96 216.558 392.053 227.146C394.591 229.808 397.067 232.534 399.477 235.322ZM174.902 269.712C182.267 252.253 190.386 236.752 198.902 223.055C182.493 216.974 169.702 208.538 162.469 198.729C161.284 199.586 160.1 200.457 158.919 201.343C146.624 210.565 134.557 221.396 123.559 234.035C130.79 244.195 141.899 253.392 156.043 261.075C161.855 264.232 168.164 267.124 174.902 269.712ZM122.968 233.191C133.972 220.575 146.033 209.758 158.319 200.543C159.506 199.653 160.695 198.778 161.885 197.917C157.991 192.359 155.871 186.375 155.871 180.141C155.871 173.573 158.223 167.284 162.525 161.477C156.896 163.437 151.585 165.582 146.723 167.853C139.556 171.201 133.379 174.817 128.591 178.514C119.7 187.424 114.038 197.402 114.038 206.26C114.038 215.676 117.173 224.757 122.968 233.191ZM395.7 184.344C384.923 175.773 373.118 169.274 361.061 164.413C357.144 158.003 350.897 152.112 342.821 146.993C362.518 156.444 380.373 169.123 395.7 184.344ZM334.547 143.457C333.68 143.018 332.798 142.586 331.9 142.163C325.07 139.391 318.045 136.997 310.853 135.007C307.097 134.645 301.966 135.32 295.798 137.226C294.871 137.512 293.922 137.826 292.951 138.168C302.988 141.658 310.543 146.783 314.042 152.763C317.738 153.187 321.514 153.724 325.343 154.388C336.478 156.319 348.072 159.33 359.473 163.783C354.395 156.111 345.821 149.166 334.547 143.457ZM163.641 160.036C170.247 151.855 180.765 144.695 194.016 139.151C172.027 146.967 151.864 158.636 134.341 173.347C137.914 171.134 141.932 168.987 146.3 166.947C151.609 164.467 157.444 162.139 163.641 160.036ZM187.056 143.457C177.956 148.065 170.615 153.479 165.451 159.431C170.994 157.609 176.807 155.967 182.776 154.557C192.093 152.355 201.8 150.714 211.462 149.826C214.725 145.986 219.725 142.598 225.976 139.904C216.26 137.776 206.987 137.059 200.083 137.859C195.439 139.544 191.081 141.418 187.056 143.457ZM156.871 180.141C156.871 186.126 158.908 191.917 162.698 197.332C179.152 185.536 195.829 176.552 210.75 169.907C208.463 166.924 207.211 163.688 207.211 160.307C207.211 157.004 208.407 153.838 210.595 150.912C201.308 151.813 191.982 153.409 183.006 155.53C176.512 157.064 170.207 158.873 164.239 160.889C159.463 166.885 156.871 173.39 156.871 180.141ZM187.056 216.825C190.896 218.77 195.037 220.564 199.443 222.189C203.986 214.938 208.639 208.198 213.349 201.946C218.785 194.731 224.297 188.166 229.802 182.216C221.714 179.315 215.296 175.34 211.398 170.713C196.469 177.345 179.761 186.33 163.281 198.145C168.457 205.164 176.594 211.527 187.056 216.825ZM334.547 216.825C345.134 211.463 353.34 205.012 358.506 197.892C343.562 187.03 327.732 177.962 311.896 170.845C308.174 175.198 302.216 178.968 294.736 181.799C305.017 193.248 314.763 206.673 323.722 221.602C327.547 220.135 331.164 218.538 334.547 216.825ZM312.551 170.043C328.364 177.17 344.163 186.232 359.083 197.076C362.759 191.734 364.732 186.031 364.732 180.141C364.732 174.983 363.219 169.969 360.375 165.215C348.643 160.515 336.668 157.367 325.172 155.373C321.601 154.754 318.078 154.246 314.623 153.838C315.65 155.91 316.195 158.077 316.195 160.307C316.195 163.74 314.904 167.022 312.551 170.043ZM311.609 169.621C313.946 166.689 315.195 163.54 315.195 160.307C315.195 158.049 314.585 155.831 313.421 153.699C293.6 151.476 276.149 152.508 265.225 154.48C280.115 157.502 295.861 162.6 311.609 169.621ZM291.445 138.715C294.457 139.704 297.253 140.839 299.79 142.097C305.799 145.076 310.248 148.684 312.781 152.622C292.303 150.404 274.393 151.629 263.62 153.766C266.491 151.772 269.305 149.949 272.047 148.291C279.067 144.049 285.615 140.892 291.445 138.715ZM212.913 149.698C215.512 146.897 219.129 144.321 223.615 142.097C224.899 141.46 226.248 140.856 227.657 140.286C227.864 140.334 228.07 140.383 228.277 140.433C238.921 142.992 249.852 147.202 258.576 152.884C244.882 149.11 228.99 148.346 212.913 149.698ZM211.693 169.49C209.422 166.595 208.211 163.491 208.211 160.307C208.211 156.998 209.52 153.776 211.965 150.784C228.777 149.277 245.397 150.075 259.506 154.187C256.949 154.517 253.264 155.243 248.698 156.41C242.158 158.081 233.77 160.667 224.215 164.329C220.228 165.858 216.037 167.574 211.693 169.49ZM230.543 181.418C228.068 180.548 225.75 179.577 223.615 178.518C218.797 176.129 214.982 173.335 212.353 170.292C216.59 168.428 220.679 166.756 224.573 165.263C234.093 161.614 242.445 159.04 248.946 157.379C253.728 156.157 257.488 155.435 259.969 155.137C250.525 162.009 240.551 170.7 230.543 181.418ZM294.016 181.001C284.719 170.755 274.991 162.126 265.021 155.459C279.758 158.449 295.345 163.486 310.942 170.419C308.318 173.413 304.541 176.162 299.79 178.518C297.99 179.411 296.061 180.241 294.016 181.001Z" fill="url(#paint0_linear_1266_1923)"/>
<path d="M404 228L437.99 159.708C439.004 157.67 441.085 156.382 443.361 156.382L468.687 156.382" stroke="#334155" stroke-dasharray="2 2"/>
<path d="M89 272.5L60.7056 220.627C59.6542 218.699 57.6339 217.5 55.4382 217.5L38 217.5" stroke="#334155" stroke-dasharray="2 2"/>
<path d="M376.193 376.084L470.322 296.42C471.405 295.503 472.779 295 474.198 295L510.867 295" stroke="#334155" stroke-dasharray="2 2"/>
<path d="M291.573 138.59L317.411 80.9264C318.377 78.7686 320.522 77.3798 322.886 77.3798L394.5 77.3798" stroke="#334155" stroke-dasharray="2 2"/>
<g clip-path="url(#clip1_1266_1923)">
<path d="M492.934 162.6L493.072 162.122C493.236 161.554 493.175 161.029 492.899 160.643C492.642 160.287 492.222 160.078 491.707 160.054L481.975 159.93C481.945 159.93 481.914 159.922 481.887 159.908C481.861 159.893 481.838 159.872 481.82 159.847C481.803 159.821 481.793 159.792 481.789 159.762C481.786 159.731 481.79 159.701 481.801 159.672C481.818 159.625 481.848 159.583 481.888 159.552C481.928 159.522 481.976 159.503 482.026 159.5L491.853 159.371C493.013 159.318 494.281 158.372 494.723 157.218L495.282 155.754C495.306 155.69 495.312 155.621 495.297 155.555C494.992 154.194 494.25 152.969 493.185 152.068C492.12 151.167 490.789 150.639 489.396 150.564C488.003 150.489 486.623 150.871 485.467 151.653C484.311 152.434 483.443 153.572 482.993 154.893C482.516 154.539 481.941 154.34 481.346 154.326C480.752 154.311 480.168 154.481 479.674 154.811C479.18 155.142 478.8 155.617 478.587 156.172C478.374 156.727 478.337 157.334 478.483 157.911C477.904 157.926 477.335 158.063 476.813 158.315C476.291 158.566 475.829 158.926 475.457 159.37C475.084 159.813 474.81 160.331 474.653 160.889C474.496 161.446 474.459 162.031 474.545 162.604C474.551 162.649 474.574 162.69 474.608 162.72C474.642 162.75 474.687 162.767 474.732 162.767H492.706C492.757 162.768 492.807 162.752 492.848 162.721C492.889 162.691 492.919 162.648 492.934 162.6ZM496.177 155.865C496.087 155.865 495.997 155.867 495.907 155.872C495.893 155.873 495.879 155.876 495.866 155.881C495.842 155.889 495.821 155.902 495.804 155.92C495.787 155.938 495.774 155.96 495.768 155.984L495.381 157.307C495.216 157.875 495.276 158.399 495.554 158.786C495.694 158.969 495.874 159.117 496.08 159.219C496.287 159.321 496.514 159.374 496.744 159.375L498.82 159.504C498.865 159.505 498.908 159.522 498.941 159.553C498.974 159.583 498.995 159.624 499 159.669C499.003 159.699 499 159.731 498.989 159.76C498.972 159.807 498.942 159.849 498.902 159.88C498.862 159.911 498.814 159.929 498.764 159.933L496.608 160.061C495.436 160.116 494.175 161.06 493.733 162.213L493.577 162.621C493.571 162.638 493.568 162.656 493.57 162.674C493.572 162.692 493.579 162.709 493.588 162.725C493.598 162.74 493.612 162.753 493.627 162.762C493.643 162.771 493.661 162.776 493.679 162.778H501.105C501.15 162.779 501.195 162.764 501.231 162.737C501.267 162.709 501.293 162.671 501.304 162.627C501.525 161.836 501.56 161.004 501.407 160.197C501.253 159.39 500.915 158.629 500.419 157.975C499.923 157.32 499.282 156.789 498.547 156.423C497.811 156.057 497.001 155.866 496.18 155.865H496.177Z" fill="white"/>
<g clip-path="url(#clip2_1266_1923)">
<path d="M468 150.866C468 144.33 468 141.061 470.03 139.03C472.061 137 475.33 137 481.866 137H494.133C500.67 137 503.939 137 505.97 139.03C508 141.061 508 144.33 508 150.866V163.133C508 169.67 508 172.939 505.97 174.97C503.939 177 500.67 177 494.133 177H481.866C475.33 177 472.061 177 470.03 174.97C468 172.939 468 169.67 468 163.133V150.866Z" fill="#F4801F"/>
<path d="M492.934 163.045L493.072 162.567C493.236 161.999 493.175 161.474 492.899 161.088C492.642 160.732 492.222 160.523 491.707 160.499L481.975 160.375C481.945 160.375 481.914 160.367 481.887 160.353C481.861 160.338 481.838 160.318 481.82 160.292C481.803 160.267 481.793 160.238 481.789 160.207C481.786 160.177 481.79 160.146 481.801 160.117C481.818 160.07 481.848 160.028 481.888 159.997C481.928 159.967 481.976 159.949 482.026 159.945L491.853 159.816C493.013 159.763 494.281 158.817 494.723 157.663L495.282 156.199C495.306 156.136 495.312 156.067 495.297 156C494.992 154.639 494.25 153.415 493.185 152.513C492.12 151.612 490.789 151.084 489.396 151.009C488.003 150.934 486.623 151.317 485.467 152.098C484.311 152.88 483.443 154.018 482.993 155.338C482.516 154.984 481.941 154.786 481.346 154.771C480.752 154.756 480.168 154.926 479.674 155.256C479.18 155.587 478.8 156.062 478.587 156.617C478.374 157.172 478.337 157.78 478.483 158.356C477.904 158.371 477.335 158.509 476.813 158.76C476.291 159.012 475.829 159.371 475.457 159.815C475.084 160.259 474.81 160.777 474.653 161.334C474.496 161.892 474.459 162.476 474.545 163.049C474.551 163.094 474.574 163.136 474.608 163.166C474.642 163.196 474.687 163.212 474.732 163.212H492.706C492.757 163.213 492.807 163.197 492.848 163.167C492.889 163.136 492.919 163.094 492.934 163.045ZM496.177 156.31C496.087 156.31 495.997 156.313 495.907 156.317C495.893 156.318 495.879 156.321 495.866 156.326C495.842 156.334 495.821 156.348 495.804 156.366C495.787 156.384 495.774 156.406 495.768 156.429L495.381 157.752C495.216 158.32 495.276 158.844 495.554 159.231C495.694 159.414 495.874 159.562 496.08 159.664C496.287 159.766 496.514 159.82 496.744 159.82L498.82 159.949C498.865 159.95 498.908 159.968 498.941 159.998C498.974 160.028 498.995 160.069 499 160.114C499.003 160.145 499 160.176 498.989 160.205C498.972 160.253 498.942 160.294 498.902 160.325C498.862 160.356 498.814 160.374 498.764 160.378L496.608 160.506C495.436 160.561 494.175 161.505 493.733 162.658L493.577 163.066C493.571 163.083 493.568 163.101 493.57 163.119C493.572 163.137 493.579 163.155 493.588 163.17C493.598 163.185 493.612 163.198 493.627 163.207C493.643 163.216 493.661 163.222 493.679 163.223H501.105C501.15 163.224 501.195 163.21 501.231 163.182C501.267 163.155 501.293 163.116 501.304 163.072C501.525 162.281 501.56 161.449 501.407 160.642C501.253 159.835 500.915 159.075 500.419 158.42C499.923 157.765 499.282 157.234 498.547 156.868C497.811 156.502 497.001 156.311 496.18 156.31H496.177Z" fill="white"/>
</g>
</g>
<g clip-path="url(#clip3_1266_1923)">
<mask id="mask0_1266_1923" style="mask-type:luminance" maskUnits="userSpaceOnUse" x="6" y="205" width="28" height="26">
<path d="M6 205.5H34V230.219H6V205.5Z" fill="white"/>
</mask>
<g mask="url(#mask0_1266_1923)">
<path d="M23.6003 221.821H21.6803L21.5203 221.66V217.166C21.5203 216.366 21.2053 215.746 20.2413 215.725C19.7453 215.712 19.1773 215.725 18.5708 215.749L18.4798 215.842V221.658L18.3193 221.818H16.3993L16.2393 221.658V213.98L16.3993 213.82H20.7203C21.5265 213.82 22.2998 214.141 22.8699 214.711C23.44 215.281 23.7603 216.054 23.7603 216.86V221.66L23.6003 221.821Z" fill="white"/>
<path d="M13.567 226.073H13.303L11.983 224.753V224.49L14.0005 222.472H15.3985L15.5845 222.659V224.056L13.567 226.073ZM11.983 211.147V210.883L13.303 209.563H13.567L15.5845 211.58V212.979L15.3985 213.165H14L11.983 211.147ZM13.84 218.942H6.16L6 218.782V216.857L6.16 216.697H13.84L14.0005 216.857V218.782L13.84 218.942ZM33.842 218.942H26.162L26.002 218.782V216.857L26.162 216.697H33.842L34.002 216.857V218.782L33.842 218.942ZM18.894 211.42V205.66L19.054 205.5H20.9785L21.1385 205.66V211.42L20.9785 211.58H19.054L18.894 211.42ZM18.894 229.979V224.219L19.054 224.059H20.9785L21.1385 224.219V229.979L20.9785 230.139H19.054L18.894 229.979Z" fill="white"/>
</g>
<g clip-path="url(#clip4_1266_1923)">
<path d="M0 211.866C0 205.33 0 202.061 2.0305 200.03C4.0615 198 7.33 198 13.8665 198H26.1335C32.67 198 35.9385 198 37.9695 200.03C40 202.061 40 205.33 40 211.866V224.133C40 230.67 40 233.939 37.9695 235.97C35.9385 238 32.67 238 26.1335 238H13.8665C7.33 238 4.0615 238 2.0305 235.97C0 233.939 0 230.67 0 224.133V211.866Z" fill="white"/>
<mask id="mask1_1266_1923" style="mask-type:luminance" maskUnits="userSpaceOnUse" x="6" y="205" width="28" height="26">
<path d="M6 205.5H34V230.219H6V205.5Z" fill="white"/>
</mask>
<g mask="url(#mask1_1266_1923)">
<path d="M23.6003 221.819H21.6803L21.5203 221.658V217.164C21.5203 216.364 21.2053 215.744 20.2413 215.723C19.7453 215.71 19.1773 215.723 18.5708 215.747L18.4798 215.84V221.656L18.3193 221.816H16.3993L16.2393 221.656V213.978L16.3993 213.818H20.7203C21.5265 213.818 22.2998 214.139 22.8699 214.709C23.44 215.279 23.7603 216.052 23.7603 216.858V221.658L23.6003 221.819Z" fill="#1C4746"/>
<path d="M13.567 226.073H13.303L11.983 224.753V224.489L14.0005 222.472H15.3985L15.5845 222.658V224.056L13.567 226.073ZM11.983 211.147V210.883L13.303 209.563H13.567L15.5845 211.58V212.978L15.3985 213.164H14L11.983 211.147ZM13.84 218.942H6.16L6 218.782V216.857L6.16 216.697H13.84L14.0005 216.857V218.782L13.84 218.942ZM33.842 218.942H26.162L26.002 218.782V216.857L26.162 216.697H33.842L34.002 216.857V218.782L33.842 218.942ZM18.894 211.42V205.66L19.054 205.5H20.9785L21.1385 205.66V211.42L20.9785 211.58H19.054L18.894 211.42ZM18.894 229.978V224.218L19.054 224.058H20.9785L21.1385 224.218V229.978L20.9785 230.138H19.054L18.894 229.978Z" fill="#55BAB9"/>
</g>
</g>
</g>
<g clip-path="url(#clip5_1266_1923)">
<mask id="mask2_1266_1923" style="mask-type:luminance" maskUnits="userSpaceOnUse" x="519" y="288" width="24" height="15">
<path d="M519 288.5H543V302.868H519V288.5Z" fill="white"/>
</mask>
<g mask="url(#mask2_1266_1923)">
<path d="M525.821 293.742C525.821 294.034 525.853 294.271 525.908 294.444C525.971 294.618 526.05 294.808 526.161 295.013C526.2 295.076 526.216 295.139 526.216 295.194C526.216 295.273 526.169 295.352 526.066 295.431L525.569 295.763C525.509 295.806 525.438 295.831 525.364 295.834C525.284 295.834 525.205 295.795 525.127 295.724C525.02 295.609 524.925 295.485 524.842 295.352C524.754 295.201 524.672 295.045 524.597 294.887C523.982 295.613 523.208 295.976 522.277 295.976C521.613 295.976 521.084 295.786 520.698 295.408C520.311 295.029 520.113 294.523 520.113 293.892C520.113 293.221 520.35 292.676 520.832 292.266C521.313 291.855 521.953 291.65 522.766 291.65C523.034 291.65 523.311 291.673 523.603 291.713C523.895 291.753 524.195 291.816 524.511 291.887V291.31C524.511 290.71 524.384 290.291 524.14 290.047C523.887 289.802 523.461 289.683 522.853 289.683C522.577 289.683 522.293 289.715 522 289.786C521.708 289.857 521.424 289.944 521.148 290.055C521.058 290.095 520.966 290.129 520.871 290.157C520.83 290.171 520.788 290.179 520.745 290.181C520.635 290.181 520.579 290.102 520.579 289.936V289.55C520.579 289.423 520.595 289.329 520.634 289.273C520.674 289.218 520.745 289.163 520.855 289.108C521.132 288.966 521.463 288.847 521.85 288.753C522.253 288.649 522.667 288.599 523.082 288.603C524.022 288.603 524.708 288.816 525.15 289.242C525.584 289.668 525.805 290.316 525.805 291.184V293.742H525.821ZM522.616 294.942C522.876 294.942 523.145 294.894 523.429 294.8C523.719 294.7 523.978 294.525 524.179 294.295C524.305 294.145 524.4 293.979 524.448 293.789C524.495 293.6 524.527 293.371 524.527 293.102V292.771C524.298 292.716 524.053 292.668 523.8 292.637C523.554 292.605 523.306 292.59 523.058 292.589C522.529 292.589 522.142 292.692 521.882 292.905C521.622 293.118 521.495 293.418 521.495 293.813C521.495 294.184 521.59 294.46 521.787 294.65C521.977 294.847 522.253 294.942 522.616 294.942ZM528.955 295.795C528.813 295.795 528.719 295.771 528.655 295.716C528.592 295.668 528.537 295.558 528.49 295.408L526.635 289.305C526.587 289.147 526.563 289.045 526.563 288.989C526.563 288.863 526.627 288.792 526.753 288.792H527.527C527.677 288.792 527.779 288.816 527.834 288.871C527.898 288.918 527.945 289.029 527.992 289.179L529.319 294.405L530.55 289.179C530.59 289.021 530.637 288.918 530.7 288.871C530.763 288.823 530.874 288.792 531.016 288.792H531.648C531.798 288.792 531.9 288.816 531.963 288.871C532.027 288.918 532.082 289.029 532.113 289.179L533.361 294.468L534.727 289.178C534.774 289.021 534.829 288.918 534.884 288.871C534.948 288.823 535.05 288.792 535.192 288.792H535.927C536.053 288.792 536.124 288.855 536.124 288.989C536.124 289.029 536.116 289.068 536.108 289.116C536.096 289.183 536.078 289.249 536.053 289.313L534.15 295.416C534.103 295.573 534.048 295.676 533.984 295.723C533.921 295.771 533.819 295.802 533.684 295.802H533.005C532.855 295.802 532.753 295.779 532.69 295.723C532.627 295.668 532.571 295.566 532.54 295.408L531.316 290.316L530.1 295.4C530.061 295.558 530.013 295.66 529.95 295.716C529.887 295.771 529.777 295.794 529.634 295.794L528.955 295.795ZM539.1 296.008C538.69 296.008 538.279 295.96 537.884 295.866C537.49 295.771 537.182 295.668 536.977 295.55C536.85 295.479 536.763 295.4 536.732 295.329C536.701 295.259 536.685 295.184 536.684 295.108V294.705C536.684 294.539 536.748 294.46 536.866 294.46C536.913 294.46 536.961 294.468 537.008 294.484C537.056 294.5 537.127 294.531 537.206 294.563C537.484 294.685 537.775 294.778 538.074 294.839C538.39 294.902 538.698 294.934 539.014 294.934C539.511 294.934 539.898 294.847 540.166 294.673C540.434 294.5 540.576 294.247 540.576 293.923C540.576 293.702 540.505 293.521 540.363 293.371C540.221 293.221 539.953 293.087 539.566 292.96L538.421 292.605C537.845 292.423 537.419 292.155 537.158 291.8C536.898 291.452 536.763 291.066 536.763 290.655C536.763 290.323 536.834 290.031 536.977 289.779C537.118 289.525 537.311 289.304 537.545 289.131C537.791 288.945 538.07 288.806 538.366 288.721C538.69 288.628 539.025 288.582 539.361 288.586C539.534 288.586 539.716 288.595 539.89 288.618C540.071 288.642 540.237 288.673 540.403 288.705C540.561 288.744 540.711 288.784 540.853 288.831C540.995 288.879 541.106 288.926 541.184 288.973C541.295 289.037 541.374 289.1 541.421 289.171C541.469 289.234 541.492 289.321 541.492 289.431V289.802C541.492 289.968 541.429 290.055 541.311 290.055C541.248 290.055 541.145 290.023 541.011 289.96C540.561 289.755 540.056 289.652 539.495 289.652C539.045 289.652 538.69 289.723 538.445 289.873C538.2 290.023 538.074 290.252 538.074 290.576C538.074 290.797 538.153 290.986 538.311 291.136C538.469 291.286 538.761 291.436 539.179 291.571L540.3 291.926C540.869 292.108 541.279 292.36 541.524 292.684C541.769 293.008 541.887 293.379 541.887 293.789C541.891 294.106 541.821 294.42 541.682 294.705C541.542 294.975 541.346 295.212 541.106 295.4C540.861 295.597 540.569 295.739 540.229 295.842C539.864 295.954 539.483 296.01 539.1 296.008Z" fill="white"/>
<path fill-rule="evenodd" clip-rule="evenodd" d="M540.592 299.845C537.995 301.763 534.221 302.782 530.977 302.782C526.429 302.782 522.332 301.1 519.237 298.305C518.992 298.084 519.213 297.784 519.506 297.958C522.853 299.9 526.982 301.077 531.253 301.077C534.134 301.077 537.3 300.477 540.213 299.245C540.648 299.048 541.018 299.53 540.592 299.845Z" fill="white"/>
<path fill-rule="evenodd" clip-rule="evenodd" d="M541.674 298.612C541.342 298.186 539.479 298.407 538.634 298.51C538.382 298.541 538.342 298.32 538.571 298.155C540.055 297.112 542.495 297.412 542.779 297.76C543.063 298.115 542.7 300.555 541.311 301.723C541.098 301.904 540.892 301.81 540.987 301.573C541.303 300.791 542.006 299.03 541.674 298.612Z" fill="white"/>
</g>
<g clip-path="url(#clip6_1266_1923)">
<mask id="mask3_1266_1923" style="mask-type:luminance" maskUnits="userSpaceOnUse" x="511" y="274" width="40" height="40">
<path d="M511 274H551V314H511V274Z" fill="white"/>
</mask>
<g mask="url(#mask3_1266_1923)">
<path d="M511 287.866C511 281.33 511 278.061 513.03 276.03C515.061 274 518.33 274 524.866 274H537.134C543.67 274 546.938 274 548.97 276.03C551 278.061 551 281.33 551 287.866V300.134C551 306.67 551 309.938 548.97 311.97C546.938 314 543.67 314 537.134 314H524.866C518.33 314 515.061 314 513.03 311.97C511 309.938 511 306.67 511 300.134V287.866Z" fill="url(#paint1_linear_1266_1923)"/>
<mask id="mask4_1266_1923" style="mask-type:luminance" maskUnits="userSpaceOnUse" x="519" y="285" width="25" height="18">
<path d="M519.219 285.115H543.219V302.937H519.219V285.115Z" fill="white"/>
</mask>
<g mask="url(#mask4_1266_1923)">
<path d="M524.443 299.902H531.202L532.933 302.936H519.222L524.036 294.631L526.054 291.153L527.786 294.141L524.443 299.902ZM526.964 289.58L528.627 286.711L538.039 302.936H534.706L526.964 289.58ZM529.553 285.115H532.881L543.216 302.936H539.883L529.553 285.115Z" fill="url(#paint2_linear_1266_1923)"/>
</g>
<mask id="mask5_1266_1923" style="mask-type:luminance" maskUnits="userSpaceOnUse" x="519" y="285" width="25" height="18">
<path d="M519.218 285.115H543.218V302.937H519.218V285.115Z" fill="white"/>
</mask>
<g mask="url(#mask5_1266_1923)">
<path d="M524.442 299.902H531.201L532.932 302.936H519.221L524.035 294.631L526.053 291.153L527.785 294.141L524.442 299.902ZM526.963 289.58L528.626 286.711L538.038 302.936H534.705L526.963 289.58ZM529.552 285.115H532.88L543.215 302.936H539.882L529.552 285.115Z" fill="white"/>
</g>
</g>
</g>
</g>
<circle cx="4.5" cy="4.5" r="4.5" transform="matrix(1 0 -0.0697565 0.997564 88.5645 275.521)" fill="#334155"/>
<circle cx="9.5" cy="9.5" r="9" transform="matrix(1 0 -0.0697565 0.997564 84 271)" stroke="#334155"/>
<g clip-path="url(#clip7_1266_1923)">
<mask id="mask6_1266_1923" style="mask-type:luminance" maskUnits="userSpaceOnUse" x="401" y="64" width="24" height="25">
<path d="M401 64.8809H425V88.8809H401V64.8809Z" fill="white"/>
</mask>
<g mask="url(#mask6_1266_1923)">
<path d="M421.623 64.8809C422.188 64.8809 422.731 65.1032 423.134 65.4997C423.538 65.8963 423.769 66.4354 423.778 67.0009V86.6784C423.778 87.2438 423.556 87.7866 423.159 88.1896C422.763 88.5927 422.224 88.8239 421.658 88.8334L421.623 88.8339H404.376C403.811 88.8338 403.268 88.6115 402.865 88.215C402.461 87.8184 402.23 87.2793 402.221 86.7139V67.0369C402.221 66.4712 402.443 65.9282 402.839 65.5249C403.236 65.1216 403.775 64.8903 404.341 64.8809H421.623ZM421.623 66.0784H404.377C403.857 66.0784 403.432 66.4954 403.419 67.0119V86.6784C403.419 87.1984 403.835 87.6234 404.352 87.6359L404.377 87.6364H421.623C422.143 87.6364 422.568 87.2199 422.581 86.7029V67.0369C422.581 66.5084 422.151 66.0784 421.623 66.0784ZM407.61 80.4509L410.305 82.8459L407.61 85.2419V80.4509ZM410.005 68.4744V75.2744C411.201 74.8854 412.873 74.4624 414.497 74.4624C415.977 74.4624 416.864 75.0449 417.347 75.5329C418.366 76.5649 418.39 77.8759 418.389 78.0509V78.0559L418.389 85.2419H415.994V78.0884C415.982 77.5289 415.713 76.8574 414.497 76.8574C412.086 76.8574 409.384 78.0579 409.304 78.0939L409.302 78.0949L407.61 78.8614V68.4739L410.005 68.4744ZM418.389 68.4744C418.228 69.8349 417.676 71.1394 416.593 72.3669H414.198C415.139 71.1319 415.73 69.8319 415.994 68.4744H418.389Z" fill="white"/>
</g>
<g clip-path="url(#clip8_1266_1923)">
<path d="M393 70.8665C393 64.33 393 61.0615 395.03 59.0305C397.061 57 400.33 57 406.866 57H419.133C425.67 57 428.939 57 430.97 59.0305C433 61.0615 433 64.33 433 70.8665V83.1335C433 89.67 433 92.9385 430.97 94.9695C428.939 97 425.67 97 419.133 97H406.866C400.33 97 397.061 97 395.03 94.9695C393 92.9385 393 89.67 393 83.1335V70.8665Z" fill="#430098"/>
<mask id="mask7_1266_1923" style="mask-type:luminance" maskUnits="userSpaceOnUse" x="401" y="65" width="24" height="24">
<path d="M401 65H425V89H401V65Z" fill="white"/>
</mask>
<g mask="url(#mask7_1266_1923)">
<path d="M421.623 65C422.188 65.0001 422.731 65.2223 423.134 65.6189C423.538 66.0154 423.769 66.5545 423.778 67.12V86.7975C423.778 87.3629 423.556 87.9057 423.159 88.3088C422.763 88.7119 422.224 88.9431 421.658 88.9525L421.623 88.953H404.376C403.811 88.9529 403.268 88.7307 402.865 88.3341C402.461 87.9376 402.23 87.3985 402.221 86.833V67.156C402.221 66.5904 402.443 66.0474 402.839 65.6441C403.236 65.2408 403.775 65.0094 404.341 65H421.623ZM421.623 66.1975H404.377C403.857 66.1975 403.432 66.6145 403.419 67.131V86.7975C403.419 87.3175 403.835 87.7425 404.352 87.755L404.377 87.7555H421.623C422.143 87.7555 422.568 87.339 422.581 86.822V67.156C422.581 66.6275 422.151 66.1975 421.623 66.1975ZM407.61 80.57L410.305 82.965L407.61 85.361V80.57ZM410.005 68.5935V75.3935C411.201 75.0045 412.873 74.5815 414.497 74.5815C415.977 74.5815 416.864 75.164 417.347 75.652C418.366 76.684 418.39 77.995 418.389 78.17V78.175L418.389 85.361H415.994V78.2075C415.982 77.648 415.713 76.9765 414.497 76.9765C412.086 76.9765 409.384 78.177 409.304 78.213L409.302 78.214L407.61 78.9805V68.593L410.005 68.5935ZM418.389 68.5935C418.228 69.954 417.676 71.2585 416.593 72.486H414.198C415.139 71.251 415.73 69.951 415.994 68.5935H418.389Z" fill="white"/>
</g>
</g>
</g>
<circle cx="1.5" cy="1.5" r="1" transform="matrix(-0.866025 -0.5 0.866025 -0.5 291.561 139.555)" stroke="#334155"/>
<circle cx="3.5" cy="3.5" r="3" transform="matrix(-0.866025 -0.5 0.866025 -0.5 291.561 141.555)" stroke="#334155"/>
<circle cx="6.1348" cy="6.1348" r="5.6348" transform="matrix(-0.866025 -0.5 0.866025 -0.5 262.159 160.766)" stroke="#334155"/>
<path d="M262.159 154.631L258.778 59.3542C258.664 56.1253 256.013 53.567 252.782 53.567L186.659 53.5669" stroke="#334155" stroke-dasharray="2 2"/>
<circle cx="2.6292" cy="2.6292" r="1.7528" transform="matrix(-0.866025 -0.5 0.866025 -0.5 262.159 157.26)" stroke="#334155" stroke-width="1.7528"/>
<circle cx="9.5" cy="9.5" r="9" transform="matrix(0.999848 -0.0174524 -0.139173 0.990268 191 214)" stroke="#334155"/>
<path d="M199.106 222.789L168.692 109.446C167.989 106.824 165.612 105.001 162.897 105.001L93.9997 105.001" stroke="#334155" stroke-dasharray="2 2"/>
<circle cx="4.5" cy="4.5" r="4.5" transform="matrix(1 0 -0.0174524 0.999848 371 372)" fill="#334155"/>
<circle cx="146.5" cy="373.5" r="4.5" fill="#1E293B"/>
<circle cx="146.5" cy="373.5" r="9" stroke="#1E293B"/>
<g clip-path="url(#clip9_1266_1923)">
<g clip-path="url(#clip10_1266_1923)">
<mask id="mask8_1266_1923" style="mask-type:alpha" maskUnits="userSpaceOnUse" x="64" y="84" width="40" height="40">
<path d="M64 97.8665C64 91.33 64 88.0615 66.0305 86.0305C68.0615 84 71.33 84 77.8665 84H90.1335C96.67 84 99.9385 84 101.97 86.0305C104 88.0615 104 91.33 104 97.8665V110.133C104 116.67 104 119.939 101.97 121.97C99.9385 124 96.67 124 90.1335 124H77.8665C71.33 124 68.0615 124 66.0305 121.97C64 119.939 64 116.67 64 110.133V97.8665Z" fill="#F1F5F9"/>
</mask>
<g mask="url(#mask8_1266_1923)">
<mask id="mask9_1266_1923" style="mask-type:luminance" maskUnits="userSpaceOnUse" x="63" y="83" width="41" height="41">
<path d="M103.697 83.7305H63.6973V123.73H103.697V83.7305Z" fill="white"/>
</mask>
<g mask="url(#mask9_1266_1923)">
<path d="M103.697 83.7305H63.6973V123.73H103.697V83.7305Z" fill="#0F172A"/>
<g filter="url(#filter0_f_1266_1923)">
<path d="M101.057 106.849V100.609H66.4166V106.849H101.057Z" fill="#00DC82"/>
</g>
<path d="M103.777 83.7305H63.7773V123.73H103.777V83.7305Z" fill="url(#paint3_radial_1266_1923)" fill-opacity="0.7"/>
<path d="M85.2883 112.184H94.9834C95.2913 112.184 95.5938 112.106 95.8605 111.958C96.1272 111.81 96.3486 111.597 96.5025 111.341C96.6564 111.085 96.7374 110.794 96.7372 110.498C96.7371 110.202 96.6559 109.912 96.5017 109.656L89.9908 98.8212C89.8369 98.5651 89.6155 98.3523 89.3489 98.2044C89.0823 98.0565 88.7799 97.9786 88.472 97.9786C88.1641 97.9786 87.8617 98.0565 87.595 98.2044C87.3284 98.3523 87.107 98.5651 86.9532 98.8212L85.2883 101.593L82.0334 96.1725C81.8793 95.9164 81.6579 95.7037 81.3912 95.5558C81.1245 95.4079 80.822 95.3301 80.514 95.3301C80.2061 95.3301 79.9036 95.4079 79.6369 95.5558C79.3702 95.7037 79.1488 95.9164 78.9947 96.1725L70.8927 109.656C70.7386 109.912 70.6574 110.202 70.6572 110.498C70.6571 110.794 70.738 111.085 70.8919 111.341C71.0459 111.597 71.2673 111.81 71.5339 111.958C71.8006 112.106 72.1031 112.184 72.4111 112.184H78.4968C80.908 112.184 82.6862 111.166 83.9098 109.181L86.8804 104.238L88.4715 101.593L93.2468 109.539H86.8804L85.2883 112.184ZM78.3976 109.536L74.1505 109.535L80.5169 98.942L83.6934 104.238L81.5666 107.778C80.754 109.067 79.8309 109.536 78.3976 109.536Z" fill="url(#paint4_linear_1266_1923)" fill-opacity="0.15"/>
<path d="M85.2883 112.184H94.9834C95.2913 112.184 95.5938 112.106 95.8605 111.958C96.1272 111.81 96.3486 111.597 96.5025 111.341C96.6564 111.085 96.7374 110.794 96.7372 110.498C96.7371 110.202 96.6559 109.912 96.5017 109.656L89.9908 98.8212C89.8369 98.5651 89.6155 98.3523 89.3489 98.2044C89.0823 98.0565 88.7799 97.9786 88.472 97.9786C88.1641 97.9786 87.8617 98.0565 87.595 98.2044C87.3284 98.3523 87.107 98.5651 86.9532 98.8212L85.2883 101.593L82.0334 96.1725C81.8793 95.9164 81.6579 95.7037 81.3912 95.5558C81.1245 95.4079 80.822 95.3301 80.514 95.3301C80.2061 95.3301 79.9036 95.4079 79.6369 95.5558C79.3702 95.7037 79.1488 95.9164 78.9947 96.1725L70.8927 109.656C70.7386 109.912 70.6574 110.202 70.6572 110.498C70.6571 110.794 70.738 111.085 70.8919 111.341C71.0459 111.597 71.2673 111.81 71.5339 111.958C71.8006 112.106 72.1031 112.184 72.4111 112.184H78.4968C80.908 112.184 82.6862 111.166 83.9098 109.181L86.8804 104.238L88.4715 101.593L93.2468 109.539H86.8804L85.2883 112.184ZM78.3976 109.536L74.1505 109.535L80.5169 98.942L83.6934 104.238L81.5666 107.778C80.754 109.067 79.8309 109.536 78.3976 109.536Z" fill="url(#paint5_linear_1266_1923)" fill-opacity="0.15"/>
<path d="M85.2883 112.184H94.9834C95.2913 112.184 95.5938 112.106 95.8605 111.958C96.1272 111.81 96.3486 111.597 96.5025 111.341C96.6564 111.085 96.7374 110.794 96.7372 110.498C96.7371 110.202 96.6559 109.912 96.5017 109.656L89.9908 98.8212C89.8369 98.5651 89.6155 98.3523 89.3489 98.2044C89.0823 98.0565 88.7799 97.9786 88.472 97.9786C88.1641 97.9786 87.8617 98.0565 87.595 98.2044C87.3284 98.3523 87.107 98.5651 86.9532 98.8212L85.2883 101.593L82.0334 96.1725C81.8793 95.9164 81.6579 95.7037 81.3912 95.5558C81.1245 95.4079 80.822 95.3301 80.514 95.3301C80.2061 95.3301 79.9036 95.4079 79.6369 95.5558C79.3702 95.7037 79.1488 95.9164 78.9947 96.1725L70.8927 109.656C70.7386 109.912 70.6574 110.202 70.6572 110.498C70.6571 110.794 70.738 111.085 70.8919 111.341C71.0459 111.597 71.2673 111.81 71.5339 111.958C71.8006 112.106 72.1031 112.184 72.4111 112.184H78.4968C80.908 112.184 82.6862 111.166 83.9098 109.181L86.8804 104.238L88.4715 101.593L93.2468 109.539H86.8804L85.2883 112.184ZM78.3976 109.536L74.1505 109.535L80.5169 98.942L83.6934 104.238L81.5666 107.778C80.754 109.067 79.8309 109.536 78.3976 109.536Z" stroke="url(#paint6_linear_1266_1923)" stroke-width="0.8"/>
<path d="M88.3379 101.57L91.8579 101.77L93.0179 103.89L94.1779 105.81L93.3379 109.41" stroke="url(#paint7_linear_1266_1923)" stroke-width="0.64"/>
<path d="M70.7373 111.371L74.1373 109.571M74.1373 109.571L73.6173 105.011L75.0973 102.571L76.8973 99.5708L80.4173 98.4908M74.1373 109.571L75.9373 112.171L78.2573 112.251C78.2573 112.251 79.3353 112.288 79.9773 112.091C80.6525 111.883 81.5373 111.531 81.5373 111.531L81.7773 107.891H84.5373L83.8573 104.331L85.3773 101.531L83.6173 98.8908L82.6973 97.1308L80.4173 98.4908M80.4173 98.4908L78.8973 96.0508" stroke="url(#paint8_linear_1266_1923)" stroke-width="0.64"/>
<path d="M83.8174 104.212L84.7774 102.572L86.0974 100.172L88.4974 101.492L88.7774 98.0918M96.4174 109.652H93.3374L90.2174 111.972L87.1374 109.572" stroke="#00DC82" stroke-width="0.64"/>
<path d="M83.8174 104.212L84.7774 102.572L86.0974 100.172L88.4974 101.492L88.7774 98.0918M96.4174 109.652H93.3374L90.2174 111.972L87.1374 109.572" stroke="url(#paint9_linear_1266_1923)" stroke-width="0.64"/>
<g filter="url(#filter1_f_1266_1923)">
<path d="M84.3371 108.809C82.4971 112.409 79.7904 112.435 78.4971 112.409L81.6171 111.289L84.3371 108.809Z" fill="#75EDAE"/>
</g>
<g filter="url(#filter2_f_1266_1923)">
<path d="M84.3371 108.809C82.4971 112.409 79.7904 112.435 78.4971 112.409L81.6171 111.289L84.3371 108.809Z" fill="#75EDAE"/>
</g>
<g filter="url(#filter3_f_1266_1923)">
<path d="M85.8574 100.452C86.8974 97.1721 90.0974 97.4921 90.5374 99.4121L88.2574 98.0921L85.8574 100.452Z" fill="#75EDAE"/>
</g>
<g filter="url(#filter4_f_1266_1923)">
<path d="M85.8574 100.132C86.8974 96.8523 90.2975 97.2924 90.7375 99.6524L88.2974 98.0123L85.8574 100.132Z" fill="#75EDAE"/>
</g>
</g>
</g>
</g>
</g>
<circle cx="4.5" cy="4.5" r="4.5" transform="matrix(0.999848 -0.0174524 -0.139173 0.990268 195.304 218.863)" fill="#334155"/>
<g clip-path="url(#clip11_1266_1923)">
<path d="M174 44.5L184 61.8205H164L174 44.5Z" fill="white"/>
<g clip-path="url(#clip12_1266_1923)">
<path d="M154 46.8665C154 40.33 154 37.0615 156.03 35.0305C158.061 33 161.33 33 167.866 33H180.133C186.67 33 189.939 33 191.97 35.0305C194 37.0615 194 40.33 194 46.8665V59.1335C194 65.67 194 68.9385 191.97 70.9695C189.939 73 186.67 73 180.133 73H167.866C161.33 73 158.061 73 156.03 70.9695C154 68.9385 154 65.67 154 59.1335V46.8665Z" fill="#F1F5F9"/>
<path d="M174 44.5L184 61.8205H164L174 44.5Z" fill="black"/>
</g>
</g>
</g>
<defs>
<filter id="filter0_f_1266_1923" x="36.337" y="70.5294" width="94.7996" height="66.4002" filterUnits="userSpaceOnUse" color-interpolation-filters="sRGB">
<feFlood flood-opacity="0" result="BackgroundImageFix"/>
<feBlend mode="normal" in="SourceGraphic" in2="BackgroundImageFix" result="shape"/>
<feGaussianBlur stdDeviation="15.04" result="effect1_foregroundBlur_1266_1923"/>
</filter>
<filter id="filter1_f_1266_1923" x="77.8571" y="108.169" width="7.11984" height="4.88352" filterUnits="userSpaceOnUse" color-interpolation-filters="sRGB">
<feFlood flood-opacity="0" result="BackgroundImageFix"/>
<feBlend mode="normal" in="SourceGraphic" in2="BackgroundImageFix" result="shape"/>
<feGaussianBlur stdDeviation="0.32" result="effect1_foregroundBlur_1266_1923"/>
</filter>
<filter id="filter2_f_1266_1923" x="77.8571" y="108.169" width="7.11984" height="4.88352" filterUnits="userSpaceOnUse" color-interpolation-filters="sRGB">
<feFlood flood-opacity="0" result="BackgroundImageFix"/>
<feBlend mode="normal" in="SourceGraphic" in2="BackgroundImageFix" result="shape"/>
<feGaussianBlur stdDeviation="0.32" result="effect1_foregroundBlur_1266_1923"/>
</filter>
<filter id="filter3_f_1266_1923" x="85.2174" y="97.3327" width="5.95969" height="3.75852" filterUnits="userSpaceOnUse" color-interpolation-filters="sRGB">
<feFlood flood-opacity="0" result="BackgroundImageFix"/>
<feBlend mode="normal" in="SourceGraphic" in2="BackgroundImageFix" result="shape"/>
<feGaussianBlur stdDeviation="0.32" result="effect1_foregroundBlur_1266_1923"/>
</filter>
<filter id="filter4_f_1266_1923" x="85.2174" y="97.1373" width="6.15988" height="3.63547" filterUnits="userSpaceOnUse" color-interpolation-filters="sRGB">
<feFlood flood-opacity="0" result="BackgroundImageFix"/>
<feBlend mode="normal" in="SourceGraphic" in2="BackgroundImageFix" result="shape"/>
<feGaussianBlur stdDeviation="0.32" result="effect1_foregroundBlur_1266_1923"/>
</filter>
<linearGradient id="paint0_linear_1266_1923" x1="259" y1="127" x2="259" y2="460.84" gradientUnits="userSpaceOnUse">
<stop stop-color="#475569"/>
<stop offset="1" stop-color="#475569" stop-opacity="0"/>
</linearGradient>
<linearGradient id="paint1_linear_1266_1923" x1="4510.99" y1="1160.88" x2="511.002" y2="3387.12" gradientUnits="userSpaceOnUse">
<stop stop-color="#FF9900"/>
<stop offset="1" stop-color="#FFC300"/>
</linearGradient>
<linearGradient id="paint2_linear_1266_1923" x1="2918.66" y1="680.227" x2="906.164" y2="2188.37" gradientUnits="userSpaceOnUse">
<stop stop-color="#FF9900"/>
<stop offset="1" stop-color="#FFC300"/>
</linearGradient>
<radialGradient id="paint3_radial_1266_1923" cx="0" cy="0" r="1" gradientUnits="userSpaceOnUse" gradientTransform="translate(83.7773 105.41) rotate(149.378) scale(12.6431)">
<stop stop-color="#020420"/>
<stop offset="0.408868" stop-color="#020722" stop-opacity="0.768069"/>
<stop offset="1" stop-color="#031327" stop-opacity="0"/>
</radialGradient>
<linearGradient id="paint4_linear_1266_1923" x1="83.6972" y1="95.3301" x2="83.6972" y2="112.184" gradientUnits="userSpaceOnUse">
<stop stop-color="#00DC82"/>
<stop offset="0.578116" stop-color="#00DC82" stop-opacity="0"/>
</linearGradient>
<linearGradient id="paint5_linear_1266_1923" x1="81.8972" y1="112.21" x2="81.9372" y2="103.29" gradientUnits="userSpaceOnUse">
<stop stop-color="#75EDAE"/>
<stop offset="1" stop-color="#75EDAE" stop-opacity="0"/>
</linearGradient>
<linearGradient id="paint6_linear_1266_1923" x1="83.6972" y1="95.3301" x2="83.6972" y2="112.184" gradientUnits="userSpaceOnUse">
<stop stop-color="#75EDAE"/>
<stop offset="1" stop-color="#00DC82"/>
</linearGradient>
<linearGradient id="paint7_linear_1266_1923" x1="91.2579" y1="101.57" x2="91.2579" y2="109.41" gradientUnits="userSpaceOnUse">
<stop stop-color="#75EDAE"/>
<stop offset="1" stop-color="#00DC82"/>
</linearGradient>
<linearGradient id="paint8_linear_1266_1923" x1="78.0573" y1="96.0508" x2="78.0573" y2="112.254" gradientUnits="userSpaceOnUse">
<stop stop-color="#75EDAE"/>
<stop offset="1" stop-color="#00DC82"/>
</linearGradient>
<linearGradient id="paint9_linear_1266_1923" x1="90.1174" y1="98.0918" x2="90.1174" y2="111.972" gradientUnits="userSpaceOnUse">
<stop stop-color="#75EDAE"/>
<stop offset="1" stop-color="#00DC82"/>
</linearGradient>
<clipPath id="clip0_1266_1923">
<rect width="551" height="472" fill="white"/>
</clipPath>
<clipPath id="clip1_1266_1923">
<rect width="40" height="40" fill="white" transform="translate(468 136.555)"/>
</clipPath>
<clipPath id="clip2_1266_1923">
<rect width="40" height="40" fill="white" transform="translate(468 137)"/>
</clipPath>
<clipPath id="clip3_1266_1923">
<rect width="40" height="40" fill="white" transform="translate(0 198)"/>
</clipPath>
<clipPath id="clip4_1266_1923">
<rect width="40" height="40" fill="white" transform="translate(0 198)"/>
</clipPath>
<clipPath id="clip5_1266_1923">
<rect width="40" height="40" fill="white" transform="translate(511 274)"/>
</clipPath>
<clipPath id="clip6_1266_1923">
<rect width="40" height="40" fill="white" transform="translate(511 274)"/>
</clipPath>
<clipPath id="clip7_1266_1923">
<rect width="40" height="40" fill="white" transform="translate(393 56.8809)"/>
</clipPath>
<clipPath id="clip8_1266_1923">
<rect width="40" height="40" fill="white" transform="translate(393 57)"/>
</clipPath>
<clipPath id="clip9_1266_1923">
<rect width="40" height="40" fill="white" transform="translate(64 84)"/>
</clipPath>
<clipPath id="clip10_1266_1923">
<rect width="40" height="40" fill="white" transform="translate(64 84)"/>
</clipPath>
<clipPath id="clip11_1266_1923">
<rect width="40" height="40" fill="white" transform="translate(154 33)"/>
</clipPath>
<clipPath id="clip12_1266_1923">
<rect width="40" height="40" fill="white" transform="translate(154 33)"/>
</clipPath>
</defs>
</svg>
