<svg width="144" height="26" viewBox="0 0 144 26" fill="none" xmlns="http://www.w3.org/2000/svg">
<g clip-path="url(#clip0_1266_1471)">
<path d="M7.47454 0.0822618C5.9331 0.471309 4.45261 1.65575 3.2334 3.46267C1.80517 5.58082 0.733999 8.81425 0.45532 11.8488C0.167933 14.9785 0.733999 20.6586 1.60487 23.3733C2.32769 25.6125 2.97213 26.1918 4.2349 25.7163C4.60066 25.5779 4.66162 25.3964 4.50487 24.8171C4.32198 24.1082 4.00847 22.0506 3.64271 19.1802C3.47724 17.8315 3.3379 16.7163 3.3379 16.699C3.3379 16.6817 3.72108 16.4223 4.18265 16.1197C5.68925 15.1428 7.85772 13.4655 8.65021 12.6702C10.1394 11.1658 11.0277 9.57506 11.6722 7.23212C11.8986 6.40215 11.8899 3.86901 11.6634 3.08226C11.1148 1.19754 9.98265 0.0909059 8.537 0.00445144C8.18865 -0.0128405 7.71838 0.0217416 7.47454 0.0822618ZM8.86793 1.58659C10.601 2.19177 10.749 5.10532 9.22499 8.31281C8.00577 10.8546 6.26403 12.8777 3.92138 14.4771L3.12018 15.0217L3.05922 14.7883C3.02439 14.6586 2.94601 13.8459 2.89376 12.9728C2.76313 11.1313 2.85892 9.67881 3.21598 7.92376C3.7385 5.3301 4.62679 3.47996 5.90697 2.32146C6.90847 1.40503 7.75322 1.19754 8.86793 1.58659Z" fill="#62748E"/>
<path d="M68.8714 3.3426C67.539 3.6279 66.4678 4.41464 65.9366 5.50398C65.6666 6.04865 65.6753 7.07747 65.9453 7.77776C66.3198 8.73741 67.8612 10.7518 70.2735 13.4665C73.2432 16.8123 74.8543 19.6048 74.6105 21.014C74.5234 21.55 74.3144 21.9996 74.0704 22.1898C73.7395 22.4578 72.7728 22.7258 72.1806 22.7172C70.8395 22.6999 69.7946 22.1725 67.478 20.3483C66.9991 19.9679 66.4417 19.5875 66.2327 19.4924C65.8756 19.3281 65.8408 19.3281 65.684 19.4751C65.5882 19.5616 65.5186 19.7345 65.5186 19.9074C65.5186 20.6509 67.5303 22.527 69.4375 23.5558C71.3186 24.576 72.7728 24.8786 74.2533 24.5673C75.3419 24.3425 75.9255 23.7546 76.3609 22.4405C76.5786 21.8094 76.5961 21.6451 76.5438 21.0313C76.4654 20.0284 76.2129 19.1812 75.612 17.9794C74.654 16.0688 73.6264 14.625 70.918 11.3829C68.5405 8.54721 68.3489 8.30513 68.0441 7.74317C67.6522 7.00831 67.6174 6.56738 67.9048 5.97948C68.1921 5.40023 68.5752 5.09764 69.1413 4.99389C70.2038 4.79505 72.2765 5.51263 73.6612 6.55874C74.6714 7.32819 74.8978 8.08035 74.2272 8.47804C73.8963 8.66825 73.8528 9.08323 74.1663 9.16969C74.5931 9.28208 75.0807 9.21291 75.5423 8.97949C75.9168 8.79793 76.0735 8.64231 76.2999 8.27055C76.474 7.9766 76.5786 7.6913 76.5786 7.49245C76.5786 6.83539 75.6468 5.64231 74.5234 4.84692C73.8441 4.36277 72.5465 3.74894 71.7018 3.51551C70.9702 3.31666 69.4375 3.21292 68.8714 3.3426Z" fill="#62748E"/>
<path d="M43.5115 4.62014C42.5622 4.95732 41.9352 5.5625 41.3865 6.66913C40.8205 7.81034 40.6724 8.52792 40.6637 10.0842C40.655 11.2773 40.6811 11.528 40.8989 12.3752C41.343 14.1043 42.5448 16.7499 43.886 18.9631C44.243 19.5424 44.5304 20.0611 44.5304 20.113C44.5304 20.3032 43.9208 21.5136 43.6595 21.8421C43.2589 22.3349 42.5884 22.6375 41.8568 22.6375C39.8712 22.6461 38.652 21.4271 36.1439 16.9487C35.4124 15.6519 35.0118 15.332 34.5328 15.6778C34.376 15.7902 33.8884 16.6288 33.122 18.1159C32.4775 19.3695 31.807 20.5712 31.6415 20.7873C31.2322 21.332 30.6661 21.6346 30.2046 21.5481C29.4295 21.4012 29.0637 20.7009 27.949 17.2513C27.2262 15.0035 26.9475 14.5626 26.4337 14.8392C26.0854 15.0294 25.7283 15.8334 25.0316 18.0381C23.8037 21.9372 23.4989 22.4473 22.4277 22.3435C21.9139 22.2917 21.4262 21.9977 21.1214 21.5568C20.8775 21.185 20.4334 19.8882 19.876 17.8651C19.3884 16.1188 19.101 15.3234 18.5523 14.2773C17.9253 13.0928 17.1676 12.5481 15.9397 12.4185C14.076 12.211 12.4998 13.4213 11.1325 16.1101C10.6274 17.113 10.3313 18.2542 10.2181 19.7066C9.98293 22.5164 10.6187 24.0813 12.3082 24.8594C13.3794 25.3522 15.095 25.3781 16.1313 24.9113C16.6974 24.6519 16.9412 24.4358 17.5944 23.6317C18.7787 22.1706 19.7541 22.1793 20.7208 23.6577C21.3827 24.6778 21.9923 25.0323 22.837 24.9113C23.7688 24.7729 24.422 24.0986 25.7631 21.8853C26.3118 20.9602 26.5556 20.7182 26.904 20.7182C27.2523 20.7182 27.7052 21.1937 28.2364 22.0842C28.9157 23.2427 29.4643 23.6144 30.4658 23.6058C30.9187 23.6058 31.1712 23.5539 31.4673 23.3983C31.9899 23.1303 32.7998 22.3435 33.7316 21.211C34.6112 20.1476 34.8376 19.9487 35.2295 19.8882C35.6736 19.819 36.0307 20.1216 36.9712 21.3666C38.086 22.8363 38.922 23.6749 39.6448 24.0294C40.1325 24.2628 40.3154 24.3061 41.0469 24.332C41.5085 24.3493 42.1094 24.3234 42.3793 24.2628C43.4853 24.0381 44.5478 23.2773 45.2358 22.2139C45.4361 21.8853 45.619 21.6087 45.6364 21.5914C45.6451 21.5741 45.8802 21.7643 46.1502 22.0064C47.5088 23.234 48.6235 23.7268 50.2433 23.8046C51.7586 23.8824 52.7862 23.6404 53.8313 22.966C54.4583 22.5683 54.676 22.283 54.5977 21.9631C54.528 21.6865 54.1448 21.3234 53.9184 21.3234C53.8313 21.3234 53.4394 21.4963 53.0388 21.7038C52.1157 22.1966 51.5409 22.3608 50.6962 22.3608C49.3115 22.3608 48.2142 21.7383 47.0037 20.2686L46.4986 19.6634L46.6989 18.9631C46.995 17.8651 47.5523 15.1418 47.7526 13.8277C48.31 10.1188 47.8658 7.01495 46.5682 5.44147C45.9151 4.65472 44.4956 4.26568 43.5115 4.62014ZM45.1487 6.02072C45.5841 6.47029 45.7932 7.16193 45.9325 8.53657C46.1154 10.4127 45.8715 14.0006 45.41 16.2657L45.1574 17.4761L44.1211 15.3579C42.8757 12.8421 42.6841 12.3752 42.4577 11.2945C42.2052 10.1101 42.1442 9.21092 42.2661 8.39824C42.5274 6.66913 43.3199 5.68354 44.4346 5.6749C44.7742 5.6749 44.8613 5.71813 45.1487 6.02072ZM16.4448 14.2773C17.1328 14.6749 17.7424 15.8421 17.9775 17.2167C18.0298 17.5453 18.0821 18.2888 18.0821 18.8594C18.0908 20.4156 17.8295 21.1159 16.8541 22.0928C16.1923 22.7585 15.6959 23.0265 14.8947 23.1562C13.8409 23.3291 12.9265 22.8709 12.6739 22.0409C12.4562 21.3061 12.3604 19.966 12.4736 19.0842C12.7088 17.3118 13.301 15.5481 13.8845 14.8911C14.6073 14.0784 15.6697 13.819 16.4448 14.2773Z" fill="#62748E"/>
<path d="M99.9075 4.8884C99.5678 5.15641 99.4546 5.51088 99.4982 6.17658C99.5504 6.83364 99.6985 7.18811 100.134 7.61174C100.5 7.97485 100.935 8.11318 101.353 8.00079C102.407 7.70684 102.268 5.80482 101.127 4.95756C100.77 4.70684 100.186 4.66361 99.9075 4.8884Z" fill="#62748E"/>
<path d="M111.5 7.13737C111.248 7.20653 111.074 7.60422 111.074 8.14025C111.065 8.33045 111.143 9.12584 111.239 9.91258C111.962 15.9904 111.927 17.4601 111.039 19.5005C110.664 20.3564 110.203 21.0394 109.576 21.6705C109.027 22.2152 108.148 22.708 107.738 22.708C107.425 22.708 106.902 22.4486 106.493 22.0855C106.031 21.6878 104.864 19.8895 103.75 17.8665C102.496 15.5841 102.208 15.195 101.773 15.1864C101.477 15.1864 101.215 15.6186 100.571 17.1748C99.3866 20.0538 98.6812 21.2296 98.0628 21.342C97.2529 21.4976 96.8349 21.0394 95.2064 18.2555C93.7782 15.8002 93.2034 15.0826 92.5589 14.9616C91.8709 14.8405 91.6184 15.1345 90.5559 17.2613C89.3803 19.6129 88.9013 20.2786 88.283 20.4515C87.4034 20.6936 86.9418 20.1575 85.2872 17.0106C84.4947 15.5062 84.1115 15.0134 83.7457 15.0134C83.3799 15.0134 82.9881 15.5149 82.6223 16.4573C82.3784 17.1057 82.2043 17.3996 81.9169 17.6849C81.5772 18.0307 81.5163 18.0567 81.2289 18.0134C80.8022 17.9443 80.5235 17.6676 80.2361 17.0451C79.9748 16.4832 79.6787 16.1633 79.4088 16.1374C78.9559 16.0855 78.8601 16.1374 78.7556 16.4486C78.6337 16.8031 78.6772 17.1921 78.982 18.4284C79.0953 18.9039 79.2956 19.8722 79.4175 20.5898C79.8094 22.9241 80.1577 24.0826 80.5148 24.2728C80.6367 24.342 80.7499 24.3247 80.9589 24.2036C81.1854 24.074 81.4118 23.7109 82.213 22.146C83.3103 20.0019 83.6064 19.5956 84.1028 19.5956C84.2769 19.5956 84.5121 19.6561 84.634 19.7339C84.8953 19.8982 85.47 20.7454 86.5151 22.4745C87.6908 24.4457 88.1523 24.8088 88.8577 24.3333C89.2583 24.0567 89.6676 23.4428 90.7388 21.4457C92.0625 18.999 92.2977 18.6964 92.8724 18.7137C93.4559 18.731 93.8827 19.2325 95.6767 22.0509C96.8697 23.9183 97.4097 24.61 97.8538 24.8348C98.1412 24.9904 98.5505 24.9472 98.864 24.731C99.1427 24.5322 99.761 23.5639 100.528 22.1028C101.25 20.7368 101.816 20.0279 102.2 20.0279C102.409 20.0279 102.992 20.365 103.184 20.5898C103.227 20.6503 103.758 21.2987 104.351 22.025C105.64 23.6158 106.354 24.3679 106.885 24.6792C107.677 25.146 108.888 24.8866 110.011 24.0048C110.246 23.8146 110.961 23.1748 111.588 22.5783C112.215 21.9731 112.772 21.4976 112.824 21.5149C112.876 21.5322 113.181 21.9817 113.503 22.5178C115.141 25.2065 115.89 25.8549 117.396 25.8463C118.311 25.8463 118.973 25.5524 119.408 24.9558C120.227 23.8319 120.575 23.5552 121.211 23.5552C121.681 23.5552 121.838 23.6417 122.482 24.2296C122.952 24.6619 123.022 24.6964 123.423 24.6964C123.945 24.6964 124.111 24.5495 124.842 23.4169C125.4 22.5524 126.697 21.1518 127.559 20.4688C128.326 19.8636 128.787 19.6561 129.353 19.6475C130.094 19.6388 130.477 19.9155 132.358 21.8348C136.094 25.6561 136.033 25.6042 137.122 25.8636C138.297 26.1402 139.647 25.9587 141.676 25.2757C142.373 25.0423 142.704 24.6878 142.66 24.2296C142.617 23.7887 142.338 23.7627 141.04 24.074C138.889 24.6013 138.019 24.6013 137.191 24.0826C136.712 23.7887 132.48 19.561 131.452 18.3593C130.398 17.1316 129.858 16.8895 128.918 17.2181C128.291 17.4342 126.532 18.8002 124.982 20.2613C124.311 20.8924 123.815 21.1431 123.24 21.1518C122.761 21.1518 122.352 20.8665 122.151 20.391C121.968 19.9587 121.873 18.2123 121.864 15.4457C121.864 11.1143 121.559 9.43708 120.706 9.02209C119.756 8.55523 119.295 9.61863 119.513 11.7714C119.643 13.146 119.652 17.6503 119.521 18.8607C119.347 20.4169 118.929 21.8521 118.459 22.4313C117.988 23.0279 117.048 23.1402 116.438 22.682C115.306 21.8261 114.052 17.9097 113.878 14.7109C113.782 12.8434 114.131 12.4371 116.264 11.9443C117.771 11.5985 118.032 11.4342 118.032 10.8636C118.032 10.2757 117.57 9.82613 116.97 9.82613C116.813 9.82613 116.351 9.90394 115.942 9.99904C115.533 10.0941 114.975 10.1719 114.705 10.1719C114.087 10.1719 113.843 9.98175 113.634 9.3074C113.138 7.7512 112.319 6.92123 111.5 7.13737Z" fill="#62748E"/>
</g>
<defs>
<clipPath id="clip0_1266_1471">
<rect width="143" height="26" fill="white" transform="translate(0.379883)"/>
</clipPath>
</defs>
</svg>
