<svg width="51" height="40" viewBox="0 0 51 40" fill="none" xmlns="http://www.w3.org/2000/svg">
<g clip-path="url(#clip0_1266_1497)">
<mask id="mask0_1266_1497" style="mask-type:luminance" maskUnits="userSpaceOnUse" x="0" y="0" width="51" height="40">
<path d="M50.1445 0.46875H0.144531V39.5312H50.1445V0.46875Z" fill="white"/>
</mask>
<g mask="url(#mask0_1266_1497)">
<path fill-rule="evenodd" clip-rule="evenodd" d="M38.7833 5.45903C39.9541 6.43094 40.6603 7.88875 40.809 9.683C41.1064 13.1033 39.4523 17.3086 36.3486 20.9345C34.0626 23.6072 31.2748 25.6258 28.5242 26.5976C27.3533 27.0275 26.2197 27.2331 25.1788 27.2331C25.1324 27.2331 25.0906 27.2284 25.0488 27.2238C25.007 27.2191 24.9652 27.2144 24.9187 27.2144C24.8443 27.2331 24.7514 27.2331 24.6585 27.2331C23.6363 27.2331 22.5026 27.0088 21.3132 26.5976C18.544 25.6258 15.7748 23.6259 13.4888 20.9345C10.4037 17.3086 8.74954 13.1033 9.04692 9.683C9.1956 7.88875 9.90185 6.43094 11.0727 5.45903C12.8197 4.01989 15.3659 3.77691 18.2466 4.80488C18.5068 4.89833 18.7855 5.01047 19.0458 5.12261C19.1573 4.91702 19.2688 4.71143 19.3803 4.52453C20.9228 1.90789 23.023 0.46875 25.2904 0.46875C27.5578 0.46875 29.6579 1.90789 31.2005 4.52453C31.2376 4.58059 31.2701 4.64134 31.3027 4.70208C31.3352 4.76283 31.3677 4.82356 31.4049 4.87964C31.4256 4.87268 31.449 4.86313 31.474 4.85292C31.516 4.83571 31.5627 4.81661 31.6093 4.80488C34.5086 3.79561 37.0548 4.01989 38.7833 5.45903ZM11.9834 6.58044C11.1285 7.30938 10.6081 8.41206 10.478 9.81388C10.2178 12.8043 11.7975 16.7105 14.5667 20.0374C16.258 21.9999 18.2094 23.5885 20.198 24.5978C20.2909 24.6351 20.3652 24.6725 20.4395 24.7099C20.7583 24.8702 21.091 25.0031 21.4137 25.132C21.4672 25.1534 21.5205 25.1746 21.5733 25.1959C21.6105 25.2053 21.643 25.2193 21.6755 25.2333C21.7081 25.2473 21.7406 25.2613 21.7778 25.2706C21.8428 25.2893 21.9125 25.3127 21.9822 25.3361C22.0519 25.3594 22.1216 25.3828 22.1867 25.4014C23.1717 25.7005 24.0823 25.8313 24.9187 25.7939H25.0488C26.0338 25.7192 26.8887 25.4202 27.5578 24.8594C28.4127 24.1306 28.9331 23.0278 29.0632 21.6261C29.3234 18.6356 27.7437 14.7294 24.9558 11.4399C24.9558 11.4212 24.9373 11.4025 24.9187 11.3838C24.8603 11.3186 24.8042 11.2534 24.7488 11.1889C24.6453 11.0688 24.5443 10.9513 24.4355 10.8418C24.2682 10.6549 24.1009 10.4867 23.9337 10.3185C22.6141 8.97281 21.183 7.87006 19.7148 7.06638C19.587 6.98456 19.4518 6.91738 19.3186 6.85106C19.2387 6.81138 19.1595 6.772 19.0829 6.72994C18.8599 6.61781 18.6555 6.52438 18.4325 6.43094C18.2094 6.3375 17.9864 6.24402 17.7633 6.16926C16.7226 5.81414 15.7562 5.62724 14.8827 5.62724C13.7304 5.62724 12.7453 5.94498 11.9834 6.58044ZM25.2904 1.92659C23.5434 1.92659 21.8893 3.10407 20.6069 5.27213C20.5728 5.33383 20.5388 5.393 20.5056 5.45059C20.4483 5.55002 20.3938 5.6447 20.3467 5.73939C21.945 6.59913 23.5062 7.79531 24.9373 9.23444C25.0209 9.31856 25.1045 9.40731 25.1882 9.49613C25.2718 9.58488 25.3554 9.67369 25.4391 9.75775C25.4935 9.81856 25.5478 9.87738 25.6016 9.93544C25.7132 10.0561 25.822 10.1737 25.9223 10.2998C25.9595 10.3746 26.0152 10.4306 26.071 10.4867C29.0446 13.9818 30.6801 18.0188 30.5314 21.3644C31.535 19.2337 32.074 16.6171 32.074 13.8509C32.074 11.253 31.5908 8.80456 30.7173 6.74863C30.6243 6.52438 30.5314 6.30006 30.4199 6.0945C30.3084 5.87029 30.197 5.66477 30.0855 5.45925C30.0669 5.43122 30.0482 5.3983 30.0296 5.36559C30.011 5.33288 29.9925 5.30017 29.9738 5.27213C28.6915 3.12276 27.0374 1.92659 25.2904 1.92659ZM31.2005 23.1773C31.0332 23.4577 30.8473 23.7381 30.6615 23.9997C32.297 23.0091 33.8953 21.6261 35.2706 20.0187C38.0584 16.7292 39.6381 12.8229 39.378 9.83256C39.2665 8.43075 38.7461 7.32806 37.8726 6.59913C37.1291 5.96367 36.1256 5.64593 34.9733 5.64593C34.0998 5.64593 33.1333 5.81414 32.0926 6.18795C32.0833 6.18795 32.074 6.19262 32.0647 6.19729C32.0554 6.20197 32.0461 6.20664 32.0368 6.20664C32.9846 8.43075 33.505 11.0848 33.505 13.8696C33.505 17.3647 32.6873 20.6729 31.2005 23.1773Z" fill="#62748E"/>
<path d="M3.71289 22.1978L4.28904 23.151L5.38556 22.4595L3.54563 19.4316L2.4491 20.1045L3.02524 21.0576L0.144531 22.8146L0.832188 23.9546L3.71289 22.1978Z" fill="#62748E"/>
<path fill-rule="evenodd" clip-rule="evenodd" d="M6.96365 24.4042C6.12731 23.3015 4.62191 23.0959 3.52538 23.9369C2.42885 24.778 2.28017 26.2919 3.11651 27.3946C3.95284 28.4974 5.45825 28.7029 6.55477 27.8619C7.63271 27.0208 7.79996 25.5069 6.96365 24.4042ZM5.94146 25.1892C6.33175 25.7125 6.23882 26.4041 5.73702 26.7966C5.21663 27.2078 4.52898 27.1143 4.13869 26.5909C3.7484 26.0676 3.84133 25.3761 4.34313 24.9836C4.86351 24.5911 5.55117 24.6659 5.94146 25.1892Z" fill="#62748E"/>
<path fill-rule="evenodd" clip-rule="evenodd" d="M6.9092 28.3517C7.83845 27.3238 9.36245 27.2677 10.3846 28.2022C11.4068 29.1367 11.4998 30.6694 10.5705 31.6973C9.6412 32.7252 8.11726 32.7813 7.09507 31.8468C6.07286 30.9123 5.97993 29.3797 6.9092 28.3517ZM9.58545 30.7815C10.0129 30.2956 9.99432 29.6227 9.49257 29.1741C9.00932 28.7256 8.3217 28.7629 7.8942 29.2489C7.46676 29.7348 7.48532 30.4077 7.98713 30.8562C8.47038 31.3048 9.13945 31.2674 9.58545 30.7815Z" fill="#62748E"/>
<path d="M13.3406 36.2508C14.5858 36.9237 15.8496 36.4938 16.4815 35.335L16.7417 34.8303L14.6602 33.6903L14.1212 34.6995L14.9947 35.1855C14.7345 35.3723 14.4 35.4097 13.9539 35.1668C13.1919 34.7369 13.2291 34.0267 13.4893 33.5407C13.8052 32.9614 14.4185 32.7557 15.0133 33.0735C15.3664 33.2791 15.5708 33.5781 15.5894 33.8772L16.8904 33.8585C16.8347 33.0922 16.3886 32.3445 15.608 31.9147C14.4 31.2419 12.9875 31.6904 12.3184 32.9053C11.6679 34.1202 12.0397 35.5406 13.3406 36.2508Z" fill="#62748E"/>
<path fill-rule="evenodd" clip-rule="evenodd" d="M17.0946 35.4978C17.5035 34.1708 18.8788 33.498 20.1798 33.9091C21.4993 34.3203 22.2241 35.6847 21.7966 36.993C21.3878 38.32 20.0125 38.9929 18.7115 38.5817C17.4105 38.1705 16.6857 36.8061 17.0946 35.4978ZM20.5515 36.5818C20.7559 35.9651 20.44 35.3483 19.808 35.1427C19.1761 34.9371 18.5814 35.2548 18.377 35.8903C18.1725 36.5071 18.4885 37.1238 19.1204 37.3295C19.7523 37.535 20.347 37.2173 20.5515 36.5818Z" fill="#62748E"/>
<path fill-rule="evenodd" clip-rule="evenodd" d="M24.9748 34.6191C23.5995 34.6191 22.5029 35.6845 22.5029 37.0675C22.5029 38.4506 23.5809 39.516 24.9748 39.5346C26.3501 39.5346 27.4466 38.4693 27.4466 37.0862C27.4466 35.6845 26.3501 34.6191 24.9748 34.6191ZM24.9748 35.9461C25.6252 35.9461 26.1085 36.4321 26.1085 37.0862C26.1085 37.7217 25.6252 38.2263 24.9748 38.2263C24.3243 38.2263 23.8411 37.7404 23.8411 37.0862C23.8411 36.4321 24.3243 35.9461 24.9748 35.9461Z" fill="#62748E"/>
<path fill-rule="evenodd" clip-rule="evenodd" d="M32.2968 35.6863C32.7057 36.9572 32.0738 38.2094 30.8472 38.6019L29.0072 39.2L27.5947 34.7331L29.4347 34.135C30.6613 33.7425 31.8879 34.4153 32.2968 35.6863ZM31.0144 36.0788C30.8285 35.4807 30.3267 35.2003 29.8064 35.3685L29.3045 35.5368L29.9365 37.5366L30.4383 37.3684C30.9587 37.2002 31.2189 36.6768 31.0144 36.0788Z" fill="#62748E"/>
<path d="M35.6979 32.6431L36.6457 32.0824L35.9952 30.9609L32.9473 32.7552L33.5978 33.8766L34.5456 33.3159L36.2368 36.2503L37.3891 35.5774L35.6979 32.6431Z" fill="currentColor"/>
<path fill-rule="evenodd" clip-rule="evenodd" d="M37.4266 32.8536C36.5717 31.7695 36.7575 30.2556 37.8168 29.3772C38.8948 28.5175 40.4002 28.6483 41.2737 29.7323C42.1472 30.8163 41.9428 32.3302 40.8648 33.2086C39.7869 34.0871 38.2815 33.9376 37.4266 32.8536ZM40.233 30.592C39.8241 30.0874 39.155 30.0126 38.6346 30.4238C38.1142 30.835 38.0585 31.5266 38.4488 32.0312C38.8577 32.5358 39.5267 32.6106 40.0471 32.1994C40.5675 31.7695 40.6418 31.0967 40.233 30.592Z" fill="currentColor"/>
<path d="M46.1431 27.8712C47.0538 26.7685 46.8865 25.4228 45.8829 24.5817L45.4926 24.2453L43.9686 26.0769L44.8421 26.8059L45.474 26.0395C45.6041 26.3386 45.567 26.675 45.251 27.0675C44.6934 27.7404 44.0058 27.5534 43.5783 27.1984C43.0579 26.7685 42.9836 26.1143 43.411 25.591C43.6712 25.2732 44.0058 25.1424 44.3032 25.1798L44.5261 23.8902C43.7641 23.778 42.9464 24.077 42.3703 24.7686C41.4782 25.8339 41.6269 27.3105 42.6862 28.2076C43.7456 29.1047 45.1952 29.0113 46.1431 27.8712Z" fill="currentColor"/>
<path fill-rule="evenodd" clip-rule="evenodd" d="M46.1244 24.0675C45.0093 23.2638 44.7677 21.7499 45.5669 20.6285C46.366 19.5071 47.8714 19.2267 48.9865 20.0304C50.1016 20.8341 50.3432 22.348 49.544 23.4694C48.7449 24.5908 47.2581 24.8712 46.1244 24.0675ZM48.2245 21.1144C47.7041 20.7407 47.0165 20.8528 46.6448 21.3948C46.2545 21.9368 46.3846 22.6097 46.905 22.9835C47.4254 23.3573 48.113 23.2451 48.4847 22.7031C48.875 22.1611 48.7449 21.4882 48.2245 21.1144Z" fill="currentColor"/>
</g>
</g>
<defs>
<clipPath id="clip0_1266_1497">
<rect width="50" height="40" fill="white" transform="translate(0.143555)"/>
</clipPath>
</defs>
</svg>
