<svg width="171" height="138" viewBox="0 0 171 138" fill="none" xmlns="http://www.w3.org/2000/svg">
<g clip-path="url(#clip0_3562_34085)">
<path d="M188.767 18.3683C182.375 17.2674 175.903 16.7007 169.417 16.6742C147.29 16.656 125.623 23.0012 107.001 34.9533C88.3306 23.1581 66.6676 16.9687 44.5841 17.12C38.0986 17.1466 31.6265 17.7133 25.235 18.8142C23.1414 19.1751 21.2455 20.2717 19.8886 21.9064C18.5318 23.5411 17.8032 25.6066 17.8341 27.7308V134.731C17.815 136.041 18.0849 137.339 18.6246 138.533C19.1643 139.727 19.9605 140.788 20.9565 141.639C21.9526 142.49 23.124 143.112 24.3875 143.459C25.651 143.806 26.9754 143.87 28.2666 143.647C41.0444 141.435 54.1357 141.802 66.7694 144.727C79.4031 147.652 91.3237 153.076 101.829 160.678L102.899 161.303H103.88C104.869 161.715 105.93 161.927 107.001 161.927C108.072 161.927 109.133 161.715 110.122 161.303H111.102L112.172 160.678C122.605 152.906 134.491 147.306 147.127 144.212C159.763 141.118 172.892 140.593 185.735 142.667C187.026 142.89 188.351 142.825 189.614 142.478C190.878 142.131 192.049 141.509 193.045 140.658C194.041 139.807 194.837 138.746 195.377 137.552C195.917 136.358 196.187 135.06 196.167 133.75V26.75C196.075 24.7184 195.29 22.7795 193.944 21.255C192.598 19.7305 190.771 18.712 188.767 18.3683ZM98.0841 136.871C81.5873 128.192 63.2246 123.663 44.5841 123.674C41.6416 123.674 38.6991 123.674 35.6675 123.674V34.5075C38.6372 34.3363 41.6144 34.3363 44.5841 34.5075C63.6068 34.4865 82.2144 40.0687 98.0841 50.5575V136.871ZM178.334 124.031C175.302 124.031 172.36 124.031 169.417 124.031C150.777 124.019 132.414 128.549 115.917 137.227V50.5575C131.787 40.0687 150.395 34.4865 169.417 34.5075C172.387 34.3363 175.364 34.3363 178.334 34.5075V124.031ZM188.767 161.035C182.375 159.934 175.903 159.367 169.417 159.341C147.29 159.323 125.623 165.668 107.001 177.62C88.3785 165.668 66.712 159.323 44.5841 159.341C38.0986 159.367 31.6265 159.934 25.235 161.035C24.0743 161.219 22.9614 161.631 21.9604 162.247C20.9594 162.863 20.0901 163.67 19.4023 164.623C18.7145 165.576 18.2219 166.656 17.9528 167.8C17.6836 168.944 17.6433 170.13 17.8341 171.289C18.2873 173.605 19.6397 175.646 21.5951 176.967C23.5505 178.287 25.9495 178.778 28.2666 178.333C41.0444 176.121 54.1357 176.488 66.7694 179.413C79.4031 182.338 91.3237 187.761 101.829 195.364C103.339 196.439 105.147 197.017 107.001 197.017C108.855 197.017 110.662 196.439 112.172 195.364C122.678 187.761 134.598 182.338 147.232 179.413C159.866 176.488 172.957 176.121 185.735 178.333C188.052 178.778 190.451 178.287 192.406 176.967C194.362 175.646 195.714 173.605 196.167 171.289C196.358 170.13 196.318 168.944 196.049 167.8C195.78 166.656 195.287 165.576 194.599 164.623C193.912 163.67 193.042 162.863 192.041 162.247C191.04 161.631 189.927 161.219 188.767 161.035V161.035Z" fill="#FAFAFA"/>
</g>
<defs>
<clipPath id="clip0_3562_34085">
<rect width="171" height="138" fill="white"/>
</clipPath>
</defs>
</svg>
