<svg width="205" height="208" viewBox="0 0 205 208" fill="none" xmlns="http://www.w3.org/2000/svg">
<path d="M28.8559 167.909C27.1586 169.989 23.993 170.047 22.3269 167.941C8.34658 150.274 0 127.944 0 103.665C0 46.4124 46.4124 0 103.665 0C152.022 0 192.645 33.1097 204.102 77.8956C204.781 80.55 202.724 83.0633 199.984 83.0633H149.225C147.545 83.0633 146.031 82.0834 145.228 80.6069C137.219 65.8784 121.609 55.8813 103.665 55.8813C77.554 55.8813 56.3868 77.0485 56.3868 103.159C56.3868 110.616 58.113 117.669 61.1876 123.942C61.9773 125.553 61.8336 127.49 60.6994 128.88L28.8559 167.909Z" fill="#00BD6F"/>
<path d="M103.665 207.33C152.26 207.33 193.045 173.893 204.269 128.771C204.928 126.123 202.873 123.629 200.144 123.629H149.021C147.354 123.629 145.85 124.593 145.042 126.051C136.979 140.594 121.471 150.438 103.665 150.438C96.0022 150.438 88.7652 148.615 82.364 145.379C80.4292 144.401 78.0377 144.79 76.6672 146.47L45.9067 184.172C44.3294 186.105 44.7 188.975 46.7848 190.345C63.1147 201.083 82.6603 207.33 103.665 207.33Z" fill="#83FFCC"/>
</svg>
