<svg width="32" height="32" viewBox="0 0 32 32" fill="none" xmlns="http://www.w3.org/2000/svg">
<path d="M0 6C0 2.68629 2.68629 0 6 0H26C29.3137 0 32 2.68629 32 6V26C32 29.3137 29.3137 32 26 32H6C2.68629 32 0 29.3137 0 26V6Z" fill="#00DC82"/>
<path fill-rule="evenodd" clip-rule="evenodd" d="M15.0608 11.2216C14.6125 10.4508 13.4918 10.4508 13.0435 11.2216L8.15778 19.6222C7.70948 20.393 8.26985 21.3565 9.16644 21.3565H12.9806C12.5975 21.0217 12.4555 20.4424 12.7455 19.9454L16.4457 13.6027L15.0608 11.2216Z" fill="white"/>
<path d="M18.1566 13.0644C18.5276 12.4337 19.4551 12.4337 19.8261 13.0644L23.8695 19.9376C24.2405 20.5683 23.7767 21.3566 23.0347 21.3566H14.948C14.206 21.3566 13.7422 20.5683 14.1132 19.9376L18.1566 13.0644Z" fill="white"/>
<path d="M6 1H26V-1H6V1ZM31 6V26H33V6H31ZM26 31H6V33H26V31ZM1 26V6H-1V26H1ZM6 31C3.23858 31 1 28.7614 1 26H-1C-1 29.866 2.13401 33 6 33V31ZM31 26C31 28.7614 28.7614 31 26 31V33C29.866 33 33 29.866 33 26H31ZM26 1C28.7614 1 31 3.23858 31 6H33C33 2.13401 29.866 -1 26 -1V1ZM6 -1C2.13401 -1 -1 2.13401 -1 6H1C1 3.23858 3.23858 1 6 1V-1Z" fill="#00DC82"/>
</svg>
