<?xml version="1.0" encoding="utf-8"?>
<!-- Generator: Adobe Illustrator 27.1.1, SVG Export Plug-In . SVG Version: 6.00 Build 0)  -->
<svg version="1.1" id="Layer_1" xmlns="http://www.w3.org/2000/svg" xmlns:xlink="http://www.w3.org/1999/xlink" x="0px" y="0px"
	 viewBox="0 0 140.6 25" style="enable-background:new 0 0 140.6 25;" xml:space="preserve">
<style type="text/css">
	.st0{fill:#00AEEF;}
	.st1{fill:#FFFFFF;}
</style>
<g>
	<path class="st0" d="M0,13.3c1.5-3.5,3.2-6.9,5.6-9.8c0.7-0.9,2.5-2.6,3.3-3c0.6-0.4,1.4-0.8,2.1-0.3c0.7,0.5,0.6,1.4,0.4,2.1
		c-0.8,2.5-1.6,5-2.5,7.5c-0.1,0.3-0.5,1.4-0.6,1.8c0.7-1,1.7-2.9,2.4-3.8c1.5-2.2,3.3-4.3,5.5-5.9c1.5-1.1,3.2-1.9,5.4-1.7
		c-0.6,1.1-1.1,2.1-1.7,3.2c-2.1,4.2-3.9,8.5-5.3,13c-0.2,0.7-0.3,1.5-0.3,2.3c0,1,0.8,1.5,1.7,1c0.6-0.3,1.2-0.8,1.7-1.3
		c1.2-1.2,2.5-2.4,3.7-3.6c-0.8,1.9-1.5,2.9-2.4,4.3c-2.2,3-4.8,5-6.5,5.8c-1.4,0.6-2.2,0.1-2.2-1.4c-0.1-3.4,1.2-7.1,2.8-10.4
		c1.1-2.2,1.4-2.8,2.7-4.9c0.1-0.1,1.5-2.4,1.6-2.5c-0.9,0.4-2.5,1.8-3.4,2.6c-3.1,2.8-5.3,6.2-7.2,9.9c-1.2,2.2-3.3,5.7-3.9,6.7
		c0.1-0.6,0.9-3.1,1.3-4.5c1.8-5.7,2.6-8.6,3.5-13.1C7.7,6.5,8,5.2,7.4,5.1S6.3,5.6,5.8,5.9c-1.7,1.4-3.5,4-5.1,6.2
		C0.5,12.5,0.3,12.9,0,13.3z"/>
	<g>
		<path class="st1" d="M26.8,9.7c2.7,0,3.9,1.4,3.9,6.5c0,4.7-1.5,6.7-4.2,6.7c-2.6,0-4-0.9-4-6.6C22.6,11.6,24.1,9.7,26.8,9.7z
			 M26.6,21.1c1.1,0,1.9-0.9,1.9-4.9c0-4-0.6-4.8-1.8-4.8c-1.1,0-1.9,0.9-1.9,4.9C24.8,20.5,25.5,21.1,26.6,21.1z"/>
		<path class="st1" d="M32.5,10.8c1-0.7,2.2-1.1,3.5-1.1c1.3,0,1.8,0.4,1.8,1.1c0,0.3-0.1,0.8-0.2,1.2c-0.4-0.2-0.8-0.3-1.2-0.3
			c-0.6,0-1.2,0.2-1.7,0.6l0,10c0,0.4,0,0.4-2.1,0.4C32.5,22.6,32.5,10.8,32.5,10.8z"/>
		<path class="st1" d="M44,4.9c0-0.9,0.4-0.9,2.1-0.9v18.2c-0.8,0.4-2.1,0.8-3.6,0.8c-2.2,0-4.1-0.6-4.1-6.2c0-5,1.7-7.1,3.9-7.1
			c0.8,0,1.4,0.2,1.8,0.5L44,4.9L44,4.9z M44,11.8c-0.3-0.3-0.6-0.3-1.2-0.3c-1.1,0-2.2,0.9-2.2,5c0,3.8,0.7,4.5,1.9,4.5
			c0.6,0,1.1-0.1,1.5-0.4V11.8L44,11.8z"/>
		<path class="st1" d="M50.6,22.2c0,0.4,0,0.4-2.1,0.4V10.9c0-0.9,0.4-0.9,2.1-0.9V22.2z M49.7,4.3c0.8,0,1,0.4,1,1.5
			c0,1-0.4,1.7-1.2,1.7c-0.7,0-1-0.4-1-1.6C48.5,5,48.8,4.3,49.7,4.3z"/>
		<path class="st1" d="M59,11.9c-0.4-0.2-1.1-0.5-1.8-0.5c-1.2,0-2.5,0.5-2.5,5.1c0,3.6,0.7,4.5,2.3,4.5c0.8,0,1.6-0.3,2-0.6
			c0.1,0.5,0.2,0.8,0.2,1.1c0,0.7-1.2,1.3-2.8,1.3c-2.4,0-3.8-1-3.8-6.3c0-6.1,2.5-6.9,4.6-6.9c1.2,0,2.1,0.5,2.1,1.1
			C59.2,11.1,59.1,11.5,59,11.9z"/>
		<path class="st1" d="M64.3,4.8H66l1.8,9.8c0.4,2.3,0.6,4.1,0.8,5.7h0.2c0.1-2,0.3-3.9,0.7-5.7l1.5-8.4c0.1-0.4,0.1-0.6,0.5-0.6
			h1.5l1.8,9c0.4,2.3,0.6,4.1,0.8,5.7h0.2c0.1-1.6,0.3-3.8,0.6-5.7l1.6-9.2C78,5,78.1,4.8,78.4,4.8h1.8l-3.3,17.9
			c-0.7,0.1-0.9,0.1-1.7,0.1c-0.6,0-0.9-0.6-1.1-1.4l-1.3-5.7c-0.3-1.4-0.6-4.1-0.8-5.8c-0.2,1.7-0.5,4.4-0.7,5.8l-1.4,7
			c-0.6,0.1-1,0.1-1.9,0.1c-0.5,0-0.9-0.6-1-1.6c-0.9-4.2-3-15.8-3-15.8C63.8,5,63.8,4.8,64.3,4.8z"/>
		<path class="st1" d="M87.8,13.7c0,1.1-0.1,2.4-0.3,3.3c-1.8,0.3-4.1,0.4-5.3,0.4c0.1,2.7,0.8,3.4,2.4,3.4c1,0,2-0.3,2.9-0.8
			c0.1,0.4,0.2,1,0.2,1.4c0,0.8-1.6,1.4-3.5,1.4c-2.4,0-4.1-1-4.1-6c0-6.4,2.3-7.3,4.5-7.3C86.8,9.7,87.8,11,87.8,13.7z M82.3,15.8
			c1,0,2.5,0,3.4-0.3c0.1-0.5,0.1-1,0.1-1.5c0-1.8-0.4-2.5-1.4-2.5C83.3,11.5,82.4,12.4,82.3,15.8z"/>
		<path class="st1" d="M89.7,4.9c0-1,0.4-1,2.1-1v6.6c0.7-0.6,1.6-0.9,2.7-0.9c2,0,3.1,1.3,3.1,5c0,7.3-2.8,8.2-4.9,8.2
			c-1.3,0-2.4-0.3-3-0.8V4.9L89.7,4.9z M91.8,20.7C92,20.9,92.4,21,93,21c0.9,0,2.3-0.8,2.3-5.9c0-2.7-0.6-3.6-1.7-3.6
			c-0.7,0-1.2,0.2-1.8,0.7V20.7z"/>
		<path class="st1" d="M107.9,6.8v15.5c0,0.4,0,0.4-2.1,0.4V6.8h-3.5V5.3c0-0.3,0.1-0.4,0.4-0.4h8.6v1.5c0,0.3-0.1,0.4-0.4,0.4
			L107.9,6.8L107.9,6.8z"/>
		<path class="st1" d="M117.7,13.7c0,1.1-0.1,2.4-0.3,3.3c-1.8,0.3-4.1,0.4-5.3,0.4c0.1,2.7,0.8,3.4,2.4,3.4c1,0,2-0.3,2.9-0.8
			c0.1,0.4,0.2,1,0.2,1.4c0,0.8-1.6,1.4-3.5,1.4c-2.4,0-4.1-1-4.1-6c0-6.4,2.3-7.3,4.5-7.3C116.6,9.7,117.7,11,117.7,13.7z
			 M112.1,15.8c1,0,2.5,0,3.4-0.3c0.1-0.5,0.1-1,0.1-1.5c0-1.8-0.4-2.5-1.4-2.5C113.2,11.5,112.2,12.4,112.1,15.8z"/>
		<path class="st1" d="M119.4,10.3c0.4-0.3,1.9-0.7,3.9-0.7c2.2,0,3.2,0.8,3.2,3.1v1.3c0,2.9,0,6-0.2,7.9c-0.7,0.4-1.9,0.9-3.5,0.9
			c-1.9,0-3.6-0.4-3.6-3.9c0-3.5,1.7-4.2,3.4-4.2c0.6,0,1.3,0.1,1.9,0.3v-2c0-1.2-0.6-1.5-1.6-1.5c-1.3,0-2.6,0.3-3.4,0.6
			c-0.2-0.4-0.3-0.9-0.3-1.2C119.1,10.8,119.2,10.5,119.4,10.3z M123.1,16.4c-1,0-1.9,0.4-1.9,2.6c0,1.9,0.7,2.2,1.7,2.2
			c0.6,0,1.1-0.2,1.3-0.4c0.1-0.8,0.1-2.7,0.1-4.1C124,16.5,123.5,16.4,123.1,16.4z"/>
		<path class="st1" d="M133.5,12.7c0-0.9-0.2-1.3-1.2-1.3c-0.6,0-1.1,0.1-1.7,0.4v10.3c0,0.4-0.1,0.4-2.1,0.4V10.5
			c1.1-0.5,2.4-0.8,3.8-0.8c1.1,0,1.8,0.3,2.3,0.8c0.9-0.5,2.1-0.8,3.1-0.8c2.5,0,2.8,1.3,2.8,3.6v9c0,0.4-0.1,0.4-2.1,0.4v-9.4
			c0-1.2-0.2-1.7-1.2-1.7c-0.6,0-1.1,0.1-1.7,0.5v10.2c0,0.4,0,0.4-2.1,0.4V12.7L133.5,12.7z"/>
	</g>
</g>
</svg>
