<?xml version="1.0" encoding="UTF-8"?><svg id="b" xmlns="http://www.w3.org/2000/svg" viewBox="0 0 1000 1000"><defs><style>.m{fill:none;}.m,.n,.o,.p,.q{stroke-width:0px;}.n{fill:#c70008;}.o{fill:#d7001a;}.p{fill:#e50922;}.q{fill:#f81a27;}</style></defs><g id="c"><rect class="m" width="1000" height="1000"/><g id="d"><polygon id="e" class="n" points="615.11 0 1000 0 807.55 333.32 615.11 666.68 422.63 1000 230.19 666.68 422.63 333.32 37.74 333.32 230.19 0 615.11 0"/><polygon id="f" class="n" points="422.63 333.32 37.74 333.32 230.19 0 422.63 333.32"/><polygon id="g" class="p" points="230.19 0 615.11 0 422.63 333.32 230.19 0"/><polygon id="h" class="q" points="807.55 333.32 422.63 333.32 615.11 0 807.55 333.32"/><polygon id="i" class="o" points="615.11 0 1000 0 807.55 333.32 615.11 0"/><polygon id="j" class="o" points="615.11 666.68 230.19 666.68 422.63 333.32 615.11 666.68"/><polygon id="k" class="n" points="422.63 333.32 807.55 333.32 615.11 666.68 422.63 333.32"/><polygon id="l" class="q" points="230.19 666.68 615.11 666.68 422.63 1000 230.19 666.68"/></g></g></svg>