<svg width="565" height="850" viewBox="0 0 565 850" fill="none" xmlns="http://www.w3.org/2000/svg">
<g filter="url(#filter0_d_193_567)">
<path d="M389.336 27.8617C372.234 35.6893 365.152 52.4417 365.152 84.4577V203.092C365.152 231.198 373.305 250.423 387.868 258.913C409.841 271.721 432.073 271.477 452.88 262.596C470.388 255.125 479.863 235.099 479.863 203.092V84.4577C479.863 56.5254 471.122 36.5251 457.864 28.6887C438.68 17.3522 412.769 17.1432 389.336 27.8617ZM178.103 305.121C137.431 310.772 96.3864 325.679 73.3768 358.182C47.1282 395.248 42.4468 440.934 40.9871 483.895C39.5102 527.221 39.061 564.331 44.2261 603.617L164.612 596.269C164.612 596.269 161.96 474.909 166.504 422.945C167.428 412.271 172.247 408.753 179.459 406.35C189.625 402.954 212.238 398.444 262.057 397.913C310.556 397.39 333.436 402.214 344.111 405.801C357.249 410.216 358.207 416.145 358.415 421.587C360.893 486.577 360.574 584.026 360.574 584.026L483.387 576.408C483.387 576.408 486.479 510.443 483.931 483.625C479.837 440.647 479.526 391.347 451.809 358.461C425.06 326.715 384.845 308.395 347.35 305.13C288.919 300.036 235.403 297.146 178.103 305.121Z" fill="#058181"/>
<path d="M473.394 641.161L58.8061 667.013C69.0671 693.926 93.0874 713.874 114.136 726.055C131.929 736.347 153.392 742.956 177.568 745.916C200.085 748.668 228.51 750 262.049 750C295.872 750 324.246 748.685 346.806 745.916C370.921 742.956 391.936 735.938 409.97 726.325C445.694 707.274 465.344 674.84 473.394 641.161Z" fill="#334155"/>
</g>
<defs>
<filter id="filter0_d_193_567" x="0" y="0" width="564.938" height="850" filterUnits="userSpaceOnUse" color-interpolation-filters="sRGB">
<feFlood flood-opacity="0" result="BackgroundImageFix"/>
<feColorMatrix in="SourceAlpha" type="matrix" values="0 0 0 0 0 0 0 0 0 0 0 0 0 0 0 0 0 0 127 0" result="hardAlpha"/>
<feOffset dx="20" dy="40"/>
<feGaussianBlur stdDeviation="30"/>
<feComposite in2="hardAlpha" operator="out"/>
<feColorMatrix type="matrix" values="0 0 0 0 0.796078 0 0 0 0 0.835294 0 0 0 0 0.882353 0 0 0 1 0"/>
<feBlend mode="normal" in2="BackgroundImageFix" result="effect1_dropShadow_193_567"/>
<feBlend mode="normal" in="SourceGraphic" in2="effect1_dropShadow_193_567" result="shape"/>
</filter>
</defs>
</svg>
