<svg width="256" height="256" xmlns="http://www.w3.org/2000/svg"><path d="M147.685 279.531c-.489-.365-.978-.727-1.465-1.095-7.084-5.338-14.384-9.982-22.014-13.559-4.999-2.343-10.086-4.188-15.291-5.36-4.94-1.112-9.907-1.594-14.911-1.272-6.464.418-12.723 2.191-18.737 5.583-4.61 2.6-8.868 6.066-12.778 10.381a64.385 64.385 0 0 0-6.227 8.09c-1.517 2.328-2.933 4.773-4.184 7.398-.418.875-.712 1.856-1.167 2.706-1.142 2.127-2.922 2.634-4.621 1.473-2-1.366-3.015-5.977-.987-9.026 1.33-2 2.692-3.956 4.12-5.822 3.665-4.791 7.63-9.012 11.961-12.544 5.195-4.236 10.716-7.307 16.557-9.243a47.46 47.46 0 0 1 11.356-2.27 52.822 52.822 0 0 1 10.481.26c6.657.813 13.152 2.747 19.527 5.53 7.144 3.117 13.995 7.217 20.6 12.144a107.232 107.232 0 0 1 7.453 6.084c.135.12.298.2.378.415l-.051.127" style="fill:#ef3c30;fill-opacity:1;fill-rule:nonzero;stroke:none;stroke-width:.0433914" transform="translate(-109.274 -578.073) scale(2.47247)"/><path d="M58.564 277.328c0-15.314 0-18.063-.197-21.204-.197-3.339-.983-4.91-4.221-5.596-.59-.098-1.57-.098-2.455-.198-.884-.097-1.669-.195-1.669-.686 0-.588.492-.785 1.57-.785 3.83 0 7.56.295 11.094.295 1.964 0 21.891 0 24.15-.098 2.258-.098 4.024-.098 4.81-.59.293-.195.688-.393.883-.393.393 0 .59.393.59.885 0 .49-.394 1.864-.59 3.042-.392 2.847-.392 4.419-.59 7.167 0 1.177-.49 1.963-.882 1.963-.491 0-.59-.393-.688-1.277-.097-1.373-.49-3.73-1.865-4.907-1.178-.982-2.944-1.768-5.792-1.865-5.005-.098-10.012-.196-15.02-.296-.588 0-.884.296-.884 1.082v27.092c0 .59.1.884.689.884 4.023 0 9.62 0 13.645-.1 5.203-.096 6.48-.194 7.853-1.863.491-.588.687-.981 1.08-.981.392 0 .49.295.49.786 0 .588-.49 2.257-.785 5.496-.294 2.945-.294 5.301-.392 6.773-.099 1.081-.196 1.67-.687 1.67-.59 0-.688-.687-.786-1.67-.197-2.16-.49-5.594-5.595-6.283-2.455-.293-13.155-.293-14.823-.293-.492 0-.689.196-.689.884v8.344c0 8.342 0 15.313.296 19.829.294 4.418 1.374 6.577 4.025 6.873 1.276.195 2.945.293 4.024.393.884.097 1.178.293 1.178.686 0 .491-.49.686-1.57.686-5.498 0-11.583-.293-12.075-.293h-.884c-1.963.098-6.38.293-8.736.293-1.08 0-1.57-.195-1.57-.784 0-.295.195-.491 1.08-.588.98-.1 1.864-.198 2.55-.393 2.063-.591 2.75-2.062 3.044-6.382.296-4.22.394-11.094.394-20.32v-17.278" style="display:inline;fill:#000;fill-opacity:1;fill-rule:nonzero;stroke:#fff;stroke-width:1;stroke-dasharray:none;stroke-opacity:1" transform="translate(-109.274 -578.073) scale(2.47247)"/><path d="M98.747 320.489c-1.503-.669-1.61-1.05-1.61-3.635 0-4.783.43-8.61.535-10.14.11-1.052.324-1.531.86-1.531.645 0 .75.29.75 1.055 0 .858 0 2.198.322 3.538 1.61 7.078 8.693 9.757 15.881 9.757 10.301 0 15.345-6.601 15.345-12.724 0-6.6-3.112-10.428-12.341-17.219l-4.826-3.54c-11.376-8.32-13.95-14.253-13.95-20.76 0-10.234 8.584-17.217 22.209-17.217 4.185 0 7.297.382 9.98.958 2.038.382 2.898.474 3.755.474.86 0 1.075.195 1.075.674 0 .479-.43 3.633-.43 10.14 0 1.528-.215 2.2-.75 2.2-.646 0-.752-.48-.86-1.243-.107-1.15-.752-3.735-1.393-4.785-.645-1.053-3.543-5.072-13.415-5.072-7.403 0-13.198 4.116-13.198 11.1 0 5.45 2.792 8.894 13.093 16.071l3.003 2.103c12.66 8.897 15.666 14.827 15.666 22.484 0 3.92-1.716 11.19-9.12 15.877-4.614 2.872-10.41 4.02-16.201 4.02-5.044 0-9.98-.672-14.38-2.585" style="fill:#000;fill-opacity:1;fill-rule:nonzero;stroke:#fff;stroke-width:1;stroke-dasharray:none;stroke-opacity:1" transform="translate(-109.274 -578.073) scale(2.47247)"/></svg>