<?xml version="1.0" encoding="UTF-8" standalone="no"?>
<!DOCTYPE svg PUBLIC "-//W3C//DTD SVG 1.1//EN" "http://www.w3.org/Graphics/SVG/1.1/DTD/svg11.dtd">
<svg width="100%" height="100%" viewBox="0 0 52 53" version="1.1" xmlns="http://www.w3.org/2000/svg" xmlns:xlink="http://www.w3.org/1999/xlink" xml:space="preserve" xmlns:serif="http://www.serif.com/" style="fill-rule:evenodd;clip-rule:evenodd;stroke-linejoin:round;stroke-miterlimit:2;">
    <g transform="matrix(1,0,0,1,-475,-145)">
        <g id="icon_alpha" transform="matrix(0.163409,0,0,0.445368,370.094,-6.7916)">
            <rect x="646.993" y="343.041" width="312.396" height="114.62" style="fill:none;"/>
            <g transform="matrix(0.978378,0,0,0.833071,27.9388,68.8435)">
                <g transform="matrix(0.745657,0,0,1.46252,666.855,316.615)">
                    <path d="M326.556,28.974L326.556,82.23C326.556,83.599 321.498,84.71 315.268,84.71L112.081,84.71C105.851,84.71 100.792,83.599 100.792,82.23L100.792,28.974C100.792,27.606 105.851,26.494 112.081,26.494L315.268,26.494C321.498,26.494 326.556,27.606 326.556,28.974Z" style="fill:rgb(134,233,212);"/>
                </g>
                <g transform="matrix(2.05563,0,0,0.769436,-659.215,86.3788)">
                    <g transform="matrix(0.58395,0,0,0.169781,175.443,256.536)">
                        <path d="M886.325,1022.02C898.681,1022.02 900.878,995.929 904.448,995.929C907.743,995.929 906.919,1011.69 911.175,1011.69L921.06,1011.69C922.571,1011.69 923.806,1006.8 923.806,1000.82L923.806,742.602C923.806,736.622 922.571,731.729 921.06,731.729L906.644,731.729C905.134,731.729 903.898,736.622 903.898,742.602L903.898,891.01C903.898,923.627 899.093,943.198 891.542,943.198C884.128,943.198 879.185,923.627 879.185,891.01L879.185,742.602C879.185,736.622 877.95,731.729 876.439,731.729L862.023,731.729C860.513,731.729 859.277,736.622 859.277,742.602L859.277,906.232C859.277,979.077 869.986,1022.02 886.325,1022.02Z" style="fill:rgb(38,38,38);fill-rule:nonzero;"/>
                    </g>
                    <g transform="matrix(0.58395,0,0,0.169781,175.443,256.536)">
                        <path d="M945.499,1109.55L959.915,1109.55C961.425,1109.55 962.661,1104.65 962.661,1098.67L962.661,1014.96C962.661,1006.8 963.347,1003.54 964.858,1003.54C968.153,1003.54 970.899,1022.02 982.157,1022.02C992.179,1022.02 1000.55,1007.35 1006.32,981.795C1012.23,955.157 1015.52,917.104 1015.52,871.44C1015.52,825.776 1012.23,787.722 1006.32,761.628C1000.55,735.535 992.179,721.4 982.157,721.4C969.388,721.4 966.368,748.038 962.386,748.038C958.542,748.038 959.366,731.729 955.384,731.729L945.499,731.729C943.989,731.729 942.753,736.622 942.753,742.602L942.753,1098.67C942.753,1104.65 943.989,1109.55 945.499,1109.55ZM961.974,871.44C961.974,851.326 963.21,834.474 965.819,821.97C968.565,807.836 972.821,799.682 978.587,799.682C984.354,799.682 988.61,807.836 991.356,821.97C993.964,834.474 995.337,851.326 995.337,871.44C995.337,891.554 993.964,908.95 991.356,921.453C988.61,935.044 984.354,943.198 978.587,943.198C972.821,943.198 968.565,935.044 965.819,921.453C963.21,908.95 961.974,891.554 961.974,871.44Z" style="fill:rgb(38,38,38);fill-rule:nonzero;"/>
                    </g>
                    <g transform="matrix(-1.76798,0,0,0.169781,2404.47,240.678)">
                        <path d="M982.448,1109.55L986.005,1109.55C990.185,1109.55 993.342,1073.12 993.342,1019.85L993.342,742.602C993.342,736.622 992.941,731.729 992.452,731.729L987.784,731.729C987.25,731.729 986.894,736.622 986.894,742.602L986.894,1008.98C986.894,1025.83 986.005,1035.07 984.715,1035.07L982.448,1035.07C981.959,1035.07 981.558,1039.96 981.558,1045.94L981.558,1098.67C981.558,1104.65 981.959,1109.55 982.448,1109.55Z" style="fill:rgb(38,38,38);fill-rule:nonzero;"/>
                    </g>
                </g>
            </g>
        </g>
    </g>
</svg>
