<?xml version="1.0" encoding="utf-8"?>
<!-- Generator: Adobe Illustrator 27.1.1, SVG Export Plug-In . SVG Version: 6.00 Build 0)  -->
<svg version="1.1" id="Layer_1" xmlns="http://www.w3.org/2000/svg" xmlns:xlink="http://www.w3.org/1999/xlink" x="0px" y="0px"
	 viewBox="0 0 50 50" style="enable-background:new 0 0 50 50;" xml:space="preserve">
<style type="text/css">
	.st0{fill:#00AEEF;}
</style>
<path class="st0" d="M3.4,26.7c3-7,6.4-13.7,11.2-19.6c1.5-1.8,5.1-5.2,6.5-6.1c1.3-0.7,2.7-1.5,4.2-0.6c1.5,1,1.2,2.7,0.8,4.1
	c-1.6,5.1-3.3,9.9-4.9,15c-0.2,0.6-0.9,2.7-1.1,3.5c1.3-2,3.5-5.7,4.9-7.7C28,11,31.4,6.9,35.8,3.7c3.1-2.2,6.5-3.8,10.7-3.5
	c-1.2,2.2-2.3,4.3-3.3,6.4c-4.3,8.4-7.9,17-10.5,26c-0.4,1.5-0.6,3-0.6,4.6c0,2,1.5,2.9,3.3,1.9c1.2-0.7,2.3-1.6,3.4-2.6
	c2.5-2.4,5-4.8,7.4-7.3c-1.6,3.9-3.1,5.8-4.8,8.6c-4.5,6-9.5,10.1-13.1,11.6c-2.8,1.3-4.4,0.2-4.4-2.9c-0.1-6.7,2.3-14.3,5.5-20.8
	c2.2-4.4,2.9-5.5,5.3-9.8c0.2-0.3,3-4.7,3.2-5c-1.9,0.8-5,3.6-6.9,5.2c-6.3,5.5-10.6,12.5-14.4,19.8c-2.3,4.5-6.6,11.5-7.8,13.3
	c0.3-1.2,1.8-6.1,2.7-8.9c3.6-11.3,5.1-17.2,7-26.3c0.3-1.2,0.7-3.8-0.3-3.9c-1-0.1-2.3,0.8-3.2,1.6C11.7,14.7,8,19.9,5,24.3
	C4.4,25.1,3.9,25.9,3.4,26.7z"/>
</svg>
