<svg width="164" height="29" viewBox="0 0 164 29" fill="none" xmlns="http://www.w3.org/2000/svg">
<path d="M0.0898197 20.6265V12.977C0.0898197 12.5432 0.444695 12.2278 0.839 12.2278H4.07231C4.46661 12.2278 4.82149 12.5432 4.82149 12.977V20.7448C4.82149 22.8346 5.88611 24.1358 7.69992 24.1358C9.356 24.1358 10.6178 22.598 10.8544 21.1785V12.977C10.8544 12.3855 11.0909 12.2278 11.7218 12.2278H14.7186C15.1129 12.2278 15.4677 12.5432 15.4677 12.977V27.2508C15.4677 27.6451 15.1129 28 14.7186 28H13.2596C12.8653 28 12.6287 27.724 12.5104 27.4085L12.0373 26.1073C11.3275 26.7382 9.8686 28.3943 6.75358 28.3943C1.86419 28.3943 0.0898197 24.6484 0.0898197 20.6265ZM20.1966 27.2508V12.977C20.1966 12.5432 20.5515 12.2278 20.9458 12.2278H22.4442C22.799 12.2278 22.9962 12.4249 23.1145 12.7009L23.6665 14.1599C24.258 13.529 26.1901 11.8335 29.2262 11.8335C34.2339 11.8335 36.2449 15.5794 36.2449 19.6802V27.2508C36.2449 27.6451 35.89 28 35.4957 28H32.2624C31.8286 28 31.5132 27.6451 31.5132 27.2508V19.4436C31.5132 17.3932 30.4486 16.092 28.5559 16.092C26.5055 16.092 25.2437 17.5115 24.8494 18.5761V27.2508C24.8494 27.8028 24.6129 28 23.8637 28H20.9458C20.5515 28 20.1966 27.6451 20.1966 27.2508ZM39.4606 20.1139C39.4606 15.5005 42.5756 11.8335 47.2679 11.8335C48.8451 11.8335 50.0674 12.2672 50.7772 12.5432V1.14779C50.7772 0.753483 51.1321 0.398608 51.5264 0.398608H54.878C55.2723 0.398608 55.6271 0.753483 55.6271 1.14779V27.2508C55.6271 27.6451 55.2723 28 54.878 28H53.3402C52.9853 28 52.7093 27.6846 52.591 27.2508L52.1967 26.0285C52.1967 26.0285 50.3434 28.3943 47.0313 28.3943C42.7333 28.3943 39.4606 24.6484 39.4606 20.1139ZM44.0346 20.1139C44.0346 22.322 45.5329 24.1358 47.6227 24.1358C49.7126 24.1358 50.6589 22.5192 50.9349 21.5728V16.9989C50.9349 16.9989 49.8308 16.092 47.8593 16.092C45.6512 16.092 44.0346 17.9058 44.0346 20.1139ZM59.1759 20.1139C59.1759 15.6582 62.5275 11.8335 67.2197 11.8335C71.2811 11.8335 74.5932 14.9091 74.5932 19.1676C74.5932 19.4436 74.5538 19.9562 74.5144 20.2322C74.4749 20.6265 74.1201 20.9025 73.7652 20.9025H63.671C63.7893 22.5192 65.1693 24.333 67.4563 24.333C68.6787 24.333 69.8221 23.8598 70.5319 23.3472C70.9262 23.1106 71.2811 23.0317 71.5571 23.3472L73.1737 25.2004C73.4498 25.4764 73.5286 25.9102 73.1343 26.2256C71.8331 27.448 69.8221 28.3943 67.2592 28.3943C62.5275 28.3943 59.1759 24.6484 59.1759 20.1139ZM64.0258 18.1424H69.9799C69.8616 16.6834 68.5998 15.4611 67.1014 15.4611C65.5242 15.4611 64.223 16.644 64.0258 18.1424ZM78.8641 27.2508V16.368H77.5234C77.0897 16.368 76.7742 16.0131 76.7742 15.6188V12.977C76.7742 12.5432 77.0897 12.2278 77.5234 12.2278H78.8641V7.92985C78.8641 3.11932 82.2157 0.00430285 86.6319 0.00430285C89.2343 0.00430285 91.679 1.14779 92.6648 1.69982C93.0196 1.89697 93.0985 2.37014 92.9013 2.72501L91.5607 5.20914C91.2847 5.76117 90.9692 5.8006 90.4961 5.56401C90.3384 5.48515 88.2485 4.45996 86.6713 4.45996C85.2518 4.45996 83.7929 5.52458 83.7929 7.96928V12.2278H94.3997C94.794 12.2278 95.1489 12.5432 95.1489 12.977V27.2508C95.1489 27.6451 94.794 28 94.3997 28H91.127C90.6932 28 90.3778 27.6451 90.3778 27.2508V16.368H83.7929V27.2508C83.7929 28 82.886 28 82.2945 28H79.6132C79.2189 28 78.8641 27.6451 78.8641 27.2508ZM99.8664 27.2508V12.977C99.8664 12.5432 100.221 12.2278 100.616 12.2278H102.114C102.469 12.2278 102.666 12.4249 102.784 12.7009L103.336 14.1599C103.928 13.529 105.86 11.8335 108.896 11.8335C113.904 11.8335 115.915 15.5794 115.915 19.6802V27.2508C115.915 27.6451 115.56 28 115.165 28H111.932C111.498 28 111.183 27.6451 111.183 27.2508V19.4436C111.183 17.3932 110.118 16.092 108.226 16.092C106.175 16.092 104.913 17.5115 104.519 18.5761V27.2508C104.519 27.8028 104.283 28 103.533 28H100.616C100.221 28 99.8664 27.6451 99.8664 27.2508ZM119.13 20.1139C119.13 15.6582 122.482 11.8335 127.174 11.8335C131.236 11.8335 134.548 14.9091 134.548 19.1676C134.548 19.4436 134.508 19.9562 134.469 20.2322C134.429 20.6265 134.075 20.9025 133.72 20.9025H123.625C123.744 22.5192 125.124 24.333 127.411 24.333C128.633 24.333 129.777 23.8598 130.486 23.3472C130.881 23.1106 131.236 23.0317 131.512 23.3472L133.128 25.2004C133.404 25.4764 133.483 25.9102 133.089 26.2256C131.788 27.448 129.777 28.3943 127.214 28.3943C122.482 28.3943 119.13 24.6484 119.13 20.1139ZM123.98 18.1424H129.934C129.816 16.6834 128.554 15.4611 127.056 15.4611C125.479 15.4611 124.177 16.644 123.98 18.1424ZM136.689 20.1139C136.689 15.5005 139.804 11.8335 144.497 11.8335C146.074 11.8335 147.296 12.2672 148.006 12.5432V1.14779C148.006 0.753483 148.361 0.398608 148.755 0.398608H152.107C152.501 0.398608 152.856 0.753483 152.856 1.14779V27.2508C152.856 27.6451 152.501 28 152.107 28H150.569C150.214 28 149.938 27.6846 149.82 27.2508L149.425 26.0285C149.425 26.0285 147.572 28.3943 144.26 28.3943C139.962 28.3943 136.689 24.6484 136.689 20.1139ZM141.263 20.1139C141.263 22.322 142.762 24.1358 144.851 24.1358C146.941 24.1358 147.888 22.5192 148.164 21.5728V16.9989C148.164 16.9989 147.06 16.092 145.088 16.092C142.88 16.092 141.263 17.9058 141.263 20.1139ZM156.602 25.161C156.602 23.3866 158.061 21.8883 159.835 21.8883C161.609 21.8883 163.108 23.3866 163.108 25.161C163.108 26.9354 161.609 28.3943 159.835 28.3943C158.061 28.3943 156.602 26.9354 156.602 25.161Z" fill="#282727"/>
</svg>
