<svg width="500" height="85" fill="none" xmlns="http://www.w3.org/2000/svg"><path d="M372.062.884v13.017h14.16V.884h-14.16Zm-331.32.284c-1.975.905-2.794 2.84-2.794 6.54v13.707c0 3.248.942 5.47 2.625 6.45 2.539 1.48 5.108 1.452 7.512.426 2.023-.863 3.118-3.177 3.118-6.876V7.708c0-3.228-1.01-5.539-2.542-6.444-2.217-1.31-5.21-1.334-7.918-.096ZM189.459 21.29c-4.46 0-8.384.675-11.664 2.012-1.565.639-2.895 1.472-3.992 2.484l-.438-2.893H160.39v34.899l14.128-.88s-.217-11.159-.312-15.563c-.047-2.184.208-4.301 1.341-5.911 1.33-1.892 3.945-2.238 5.863-2.546 1.726-.278 3.873-.37 6.363-.409 1.532-.025 3.121-.108 4.46.345 2.32.789 2.379 3.518 2.495 5.377.374 6.002.217 17.449.217 17.449l14.128-.88v-4.559c.026-4.234-.104-8.52-.529-12.419-.218-1.98-.524-3.668-.936-5.03-.408-1.348-.972-2.668-1.622-3.962-.724-1.437-1.628-2.619-2.713-3.521a16.913 16.913 0 0 0-3.524-2.233c-1.367-.649-2.95-1.11-4.679-1.383-1.641-.258-3.533-.378-5.612-.377Zm42.229 1.225c-3.337.581-6.418 2.628-8.234 5.094-2.216 3.007-3.097 6.756-3.524 9.966-.759 5.698-.748 16.569-.748 16.569l14.128-.88s-.404-13.116.53-17.89c.236-1.213.665-1.533 1.466-1.917.977-.47 2.031-.653 3.181-.723 4.711-.288 8.667-.545 12.974 0 1.177.148 2.065.27 3.15.723.984.41 1.476 1.01 1.497 1.918.129 5.871.468 16.443.468 16.443l14.16-.88c-.275-4.94-.147-9.237-.718-13.362-.5-3.608-1.571-7.264-3.556-9.966-2.103-2.866-5.175-4.624-8.233-5.094-9.415-1.448-17.452-1.584-26.541-.001Zm107.846-1.225c-7.254 0-12.645 2.043-16.062 6.13-1.139-1.683-2.571-2.99-4.304-3.93-2.584-1.397-6.038-2.106-10.23-2.106-4.215 0-7.781.66-10.603 1.95a13.442 13.442 0 0 0-3.868 2.672l-.499-3.113h-12.974V50.31l14.16-.88s-.114-9.788.655-13.96c.378-2.055 3.19-2.576 5.052-2.798 2.637-.315 5.276-.388 7.86 0 2.671.402 4.138 1.754 4.46 3.678.533 4.3.404 11.948.404 11.948l14.097-.88s-.416-6.516.095-9.936c.241-1.621.887-2.934 2.151-3.616 2.652-1.43 5.948-1.393 8.608-1.383 2.369.008 4.843-.05 6.425 1.573 1.103 1.13 1.034 2.95.998 4.244a288.94 288.94 0 0 0-.124 7.986l14.096-.88c-.056-4.527-.278-9.204-1.403-13.3-1.026-3.733-3.307-6.757-6.331-8.488-1.604-.919-3.484-1.524-5.583-1.855-1.973-.31-4.356-.472-7.08-.472Zm75.411.251c-3.575.36-7.124 1.004-10.074 2.798a13.99 13.99 0 0 0-5.768 6.98c-1.435 3.846-1.794 7.941-1.996 11.79l13.661-.849c.163-2.154.457-4.093.873-5.753.522-1.34.809-3.092 2.184-3.334 4.809-.846 6.911-.814 11.601-.597 3.68.169 5.386.318 5.927 1.006.867 1.103 1.31 7.325 1.31 7.325l12.569-.786c-.175-2.64-.516-4.958-1.029-6.854-.609-2.245-1.427-4.246-2.62-5.785-2.86-3.69-7.19-5.18-11.29-5.69-5.219-.65-10.376-.75-15.348-.25Zm52.895.157c-2.307.273-4.442.72-6.301 1.447-3.896 1.524-6.598 4.62-7.579 8.3-.801 3.01-.923 5.454-.842 8.174l13.224-.818v-2.735c0-1.614.631-2.335 1.341-2.579 3.493-1.195 9.717-1.431 15.594-.692 1.181.151 1.758.558 2.245 1.227.298.406.452.876.53 1.383.081.52.159 1.365.25 2.169l10.978-.692c-.141-3.38-.544-7.122-1.996-9.59-1.401-2.382-3.619-3.826-6.051-4.652-2.791-.949-5.511-1.216-8.359-1.289-4.362-.113-8.888-.143-13.034.347ZM76.497 25.91l-.499-3.018H63.117V63.86l14.128-.88s-.46-16.108 0-23.392c.143-2.272 1.548-4.357 3.587-4.936 3.73-1.06 7.478-.548 10.916-.094l.593-12.702c-5.452-.644-12.754 1.027-15.844 4.055Zm23.36-3.018.062 38.672 14.035-.88.031-37.792H99.856Zm34.555 0v36.534l14.222-.88V22.891h-14.222Zm237.65 0V44.65l14.16-.88V22.891h-14.16ZM16.336 33.205c-4.7.653-9.443 2.375-12.101 6.13C1.202 43.619.66 48.898.492 53.862c-.17 5.006-.222 9.294.374 13.834l13.91-.85s-.306-14.022.22-20.026c.106-1.234.663-1.64 1.496-1.918 1.175-.392 3.788-.913 9.544-.975 5.604-.06 8.248.497 9.481.912 1.518.51 1.629 1.195 1.653 1.824.286 7.51.25 18.77.25 18.77l14.19-.881s.357-7.622.063-10.721c-.473-4.966-.51-10.662-3.712-14.462-3.09-3.668-7.737-5.785-12.07-6.163-6.751-.588-12.935-.922-19.555 0Z" fill="#fff"/><path opacity=".8" d="m476.415 45.592-22.268 1.384c.838 2.447 2.369 4.732 4.21 6.288 1.114.94 2.583 1.682 4.46 2.294 3.757 1.227 7.836 1.696 11.291 2.076 2.352.258 4.182.416 6.643.692 1.636.183 2.969.381 4.429 1.163.972.52 1.172 1.536 1.185 2.453.116 8.811-1.293 10.072-1.341 10.124-.559.593-1.292.969-1.902 1.07-4.516.741-9.967.835-14.939-.095-1.711-.32-2.185-1.005-2.371-1.447-.15-.358-.527-1.778-.904-6.225l-12.007.754c.01 2.082.078 4.291.375 6.131a14.64 14.64 0 0 0 1.466 4.465c1.294 2.483 3.209 4.55 5.52 5.565 5.616 2.468 11.856 2.36 17.589 2.327 5.682-.034 11.888-.467 16.281-3.71 1.997-1.475 3.455-3.528 4.304-6.037.788-2.328 1.184-5.276 1.186-8.803 0-2.257-.139-4.259-.374-5.942-.238-1.692-.551-3.202-.937-4.496a9.735 9.735 0 0 0-2.214-3.899c-1.942-2.091-4.529-3.378-6.892-3.993-1.58-.411-3.108-.77-4.554-1.006-3.054-.502-5.439-.726-8.236-1.133ZM410.61 49.68l-13.629.85c.003 2.58.016 4.814.031 6.256.09 4.052.153 7.472.687 11.507.559 4.238 2.194 8.108 4.833 11.193 2.103 2.458 4.988 3.356 7.735 3.993 6.663 1.542 13.125 1.543 19.648.85 3.704-.396 7.815-1.294 10.448-3.805 2.662-2.537 3.664-6.002 4.211-9.37.223-1.407.409-3.303.593-5.47l-12.475-.755c-.079 1.149-.156 2.321-.25 3.49-.092 1.162-.185 1.124-.312 1.855-.248 1.438-1.764 2.3-2.869 2.515-4.562.89-8.716.72-13.255.598-1-.027-1.882-.269-2.774-.598-2.419-1.196-2.585-3.75-2.589-6.13l-.033-16.979Zm-24.389 1.51-14.16.88v31.785h14.16V51.188Zm-26.26 1.634-14.128.88v30.151h14.128V52.823Zm-32.248 2.012-14.128.88v28.14h14.128v-29.02Zm-32.56 2.012-14.16.88v26.127h14.16V56.847Zm-24.482 1.51-14.128.88a423 423 0 0 1-.499 11.444c-.047.815-.232 1.356-1.466 1.76-1.178.386-3.819.944-9.575 1.006-5.605.06-8.248-.498-9.481-.911-1.518-.51-1.621-1.228-1.653-1.855-.185-3.528-.392-7.048-.468-9.999l-14.097.88c.036 3.388.579 7.003 1.123 9.904.906 4.839 3.668 8.327 7.423 10.376 5.36 2.924 11.728 2.816 17.06 2.767 5.833-.055 12.183-.09 17.122-2.736 4.321-2.315 6.603-6.37 7.485-10.407.989-4.53 1.087-8.941 1.154-13.11Zm-61.596 3.836-14.128.88v20.781h14.128V62.193Zm-34.556 2.137-14.128.88v18.644h14.128V64.33Zm-25.885 1.604-14.191.912c.004 1.947-.604 4.35-2.121 5.22-2.529 1.446-5.691 1.39-8.296 1.414-2.551.023-5.13.101-7.391-.724-2.154-.785-2.328-2.757-2.558-4.653l-13.598.85c.318 2.233.777 4.298 1.466 6.162 1.685 4.556 5.457 7.343 9.544 8.551 2.191.647 4.888.944 8.015.944 4.579 0 8.546-.72 11.79-2.138 1.449-.635 2.7-1.424 3.742-2.358l.468 3.772h13.13V65.934Zm-71.388 4.433-14.128.88v12.607h14.128V70.367Zm-26.79 1.666L2.55 75.02c1.186 3.11 3.961 5.415 6.393 6.822 2.056 1.19 4.536 1.953 7.33 2.295 2.601.318 5.886.472 9.761.472 3.908 0 7.187-.152 9.793-.472 2.787-.342 5.215-1.153 7.299-2.264 4.128-2.201 6.398-5.949 7.328-9.84Z" fill="#fff"/></svg>