<svg xmlns="http://www.w3.org/2000/svg" viewBox="0 0 995.58 145.19"><g id="Ebene_2" data-name="Ebene 2"><g id="Logo"><g id="Logoreanmo_white"><polygon points="0 144 0 0 117 0 117 18 18 18 18 144 0 144" fill="#00acdf"/><polygon points="32 144 32 32 117 32 117 50 50 50 50 144 32 144" fill="#00acdf"/><polygon points="64 144 64 64 117 64 117 82 82 82 82 144 64 144" fill="#00acdf"/><path d="M196.68,143.21h-25.1v-121h25.1V39.74c7-12.08,19.16-19.55,36.33-19.55V46.11h-6.38c-18.5,0-29.95,7.69-29.95,33.39Z" fill="#fff"/><path d="M308.32,145.19c-34.79,0-60.56-24.6-60.56-62.61s24.67-62.39,60.56-62.39c34.57,0,59,24,59,59.53A77.24,77.24,0,0,1,366.45,92h-92.7c1.76,20,16.07,32.07,34.57,32.07,15.41,0,24-7.47,28.62-16.91H364C357.2,128.27,338.05,145.19,308.32,145.19ZM274,71.82h67.16c-.44-18.68-15.2-30.54-33.91-30.54C290.26,41.28,276.61,52.7,274,71.82Z" fill="#fff"/><path d="M440.87,20.19c20.48,0,34.58,9.67,42.06,19.55V22.17h25.32v121H482.93v-18c-7.7,10.32-22.24,20-42.5,20-31.48,0-56.81-25.7-56.81-63S409,20.19,440.87,20.19Zm5.29,21.75c-18.72,0-36.77,14.06-36.77,40.2s18.05,41.3,36.77,41.3c18.94,0,36.77-14.72,36.77-40.86C482.93,56.66,465.1,41.94,446.16,41.94Z" fill="#fff"/><path d="M613.38,75.55c0-22.19-12.11-33.61-30.38-33.61-18.5,0-30.61,11.42-30.61,33.61v67.66h-25.1v-121h25.1V36c8.15-9.89,21.58-15.82,36.11-15.82,28.41,0,49.76,17.79,49.76,51.63v71.39H613.38Z" fill="#fff"/><path d="M829.17,75.55c0-22.19-12.11-33.61-30.39-33.61-18.5,0-30.61,11.42-30.61,33.61v67.66H743.29V75.55c0-22.19-12.11-33.61-30.39-33.61-18.49,0-30.6,11.42-30.6,33.61v67.66H657.19v-121H682.3V36c8.14-9.89,21.35-15.82,35.89-15.82,19.15,0,35.23,8.13,43.6,24,7.48-14.72,24.66-23.95,42.27-23.95,28.41,0,50,17.79,50,51.63v71.39H829.17Z" fill="#fff"/><path d="M932.6,145.19c-34.57,0-60.77-24.6-60.77-62.61s27.3-62.39,61.87-62.39,61.88,24.39,61.88,62.39S967.39,145.19,932.6,145.19Zm0-21.75c18.72,0,37.22-13.4,37.22-40.86S952,41.94,933.26,41.94c-18.93,0-35.89,13.18-35.89,40.64S913.67,123.44,932.6,123.44Z" fill="#fff"/></g></g></g></svg>