<svg width="1462" height="344" viewBox="0 0 1462 344" fill="none" xmlns="http://www.w3.org/2000/svg">
<path d="M121.431 151.837C114.04 151.837 108.027 150.662 108.027 135.116V79.3325C108.027 63.7872 114.04 61.9746 121.431 61.9746C128.822 61.9746 134.835 63.7872 134.835 79.3325V135.116C134.835 150.662 128.822 151.837 121.431 151.837Z" fill="white"/>
<path d="M466.527 251.258H428.461L407.111 168.565C406.32 165.623 404.972 159.539 403.066 150.315C401.161 141.091 400.064 134.899 399.777 131.741C399.345 135.617 398.267 141.844 396.542 150.422C394.817 158.999 393.487 165.118 392.553 168.777L371.309 251.258H333.351L293.129 93.8393H326.018L346.188 179.762C349.71 195.625 352.264 209.371 353.847 221C354.279 216.909 355.267 210.574 356.813 201.997C358.358 193.419 359.811 186.762 361.17 182.024L384.141 93.8393H415.736L438.706 182.023C439.712 185.971 440.971 192 442.48 200.111C443.99 208.222 445.139 215.185 445.927 221C446.646 215.401 447.795 208.42 449.374 200.058C450.952 191.695 452.393 184.93 453.695 179.763L473.752 93.8393H506.642L466.527 251.258ZM539.734 251.258V93.8393H573.163V251.258H539.734ZM692.846 251.258L654.888 127.758H653.917C655.279 152.881 655.96 169.642 655.96 178.041V251.258H626.088V93.8393H671.594L708.905 214.217H709.553L749.126 93.8393H794.632V251.258H763.477V176.748C763.477 173.231 763.531 169.176 763.639 164.582C763.747 159.988 764.232 147.785 765.094 127.973H764.124L723.471 251.258H692.846ZM944.088 251.258L932.657 213.783H875.181L863.752 251.258H827.734L883.377 93.1943H924.246L980.105 251.258H944.088ZM924.678 185.793C914.11 151.84 908.161 132.639 906.831 128.188C905.501 123.738 904.548 120.221 903.973 117.637C901.6 126.825 894.807 149.544 883.593 185.793H924.678Z" fill="white"/>
<path d="M11.0137 230.463C11.0137 285.505 60.2628 330.285 120.798 330.285C181.333 330.285 230.582 285.505 230.582 230.463V110.173C230.582 59.8492 189.416 18.1036 136.095 11.3156L135.906 40.9591C150.792 46.7077 161.35 61.1383 161.35 78.0311V133.952C161.35 151.158 150.397 165.81 135.074 171.335L134.84 208.009C134.791 215.752 128.464 221.99 120.709 221.94C112.953 221.891 106.707 215.574 106.756 207.83L106.991 170.94C92.219 165.136 81.7632 150.763 81.7632 133.952V78.0311C81.7632 60.9067 92.6124 46.3125 107.822 40.7277L108.012 11.0229C53.4778 16.8002 11.0137 59.0623 11.0137 110.173V230.463Z" fill="white"/>
<path d="M1140.78 171.043C1140.78 196.956 1133.39 216.804 1118.62 230.585C1103.84 244.367 1082.51 251.258 1054.62 251.259H1009.97V93.8403H1059.47C1085.21 93.8403 1105.19 100.624 1119.43 114.19C1133.66 127.756 1140.78 146.707 1140.78 171.043ZM1106.05 171.905C1106.05 138.095 1091.1 121.19 1061.19 121.19H1043.4V223.695H1057.74C1089.95 223.695 1106.05 206.431 1106.05 171.905ZM1277.5 251.259H1186.7V93.8403H1277.5V121.189H1220.13V155.752H1273.51V183.101H1220.13V223.693H1277.5V251.259ZM1413.57 93.8403H1447.32L1393.73 251.259H1357.28L1303.79 93.8403H1337.55L1367.2 187.515C1368.85 193.039 1370.56 199.481 1372.32 206.843C1374.08 214.204 1375.18 219.318 1375.61 222.185C1376.4 215.582 1379.1 204.025 1383.7 187.515L1413.57 93.8403Z" fill="white"/>
</svg>
