<svg width="358" height="252" viewBox="0 0 358 252" fill="none" xmlns="http://www.w3.org/2000/svg">
<g clip-path="url(#clip0_3322_14949)">
<path d="M79.5007 113.286L80.3648 118.903L15.3384 205.316L17.0667 199.267H85.1176C91.0225 199.267 94.7671 198.547 96.3514 197.107C97.9356 195.523 99.0158 192.858 99.5919 189.114H103.697C103.697 197.323 103.769 203.66 103.913 208.125C104.057 212.445 104.273 216.406 104.561 220.007C103.553 219.719 101.752 219.575 99.1598 219.575C96.5674 219.431 93.5429 219.287 90.0864 219.143C86.6298 218.999 83.0292 218.927 79.2846 218.927C75.6841 218.927 72.2275 218.927 68.915 218.927H2.37637V214.39L79.5007 113.286ZM82.9572 113.286V258.461H60.4896V141.37L79.5007 113.286H82.9572Z" fill="#E2F2EC"/>
<path d="M180.524 113.286C191.614 113.286 201.407 115.662 209.904 120.415C218.402 125.168 225.027 131.793 229.78 140.29C234.676 148.787 237.125 158.797 237.125 170.319C237.125 181.841 234.604 192.21 229.564 201.428C224.667 210.645 217.826 217.918 209.04 223.247C200.255 228.432 189.957 231.024 178.147 231.024C167.346 231.024 157.624 228.72 148.983 224.111C140.485 219.359 133.788 212.662 128.892 204.02C123.995 195.379 121.546 185.297 121.546 173.775C121.546 162.397 123.995 152.172 128.892 143.098C133.788 134.025 140.629 126.824 149.415 121.495C158.344 116.022 168.714 113.286 180.524 113.286ZM178.579 117.174C170.37 117.174 163.601 122.143 158.272 132.081C152.943 141.874 150.279 155.556 150.279 173.127C150.279 186.089 151.647 196.531 154.384 204.452C157.12 212.373 160.793 218.134 165.401 221.735C170.01 225.336 174.907 227.136 180.092 227.136C188.445 227.136 195.214 222.167 200.399 212.229C205.728 202.292 208.392 188.538 208.392 170.967C208.392 158.005 207.024 147.635 204.288 139.858C201.551 131.937 197.951 126.176 193.486 122.575C189.021 118.975 184.052 117.174 178.579 117.174Z" fill="#E2F2EC"/>
<path d="M325.704 113.286L326.568 118.903L261.542 205.316L263.27 199.267H331.321C337.226 199.267 340.97 198.547 342.555 197.107C344.139 195.523 345.219 192.858 345.795 189.114H349.9C349.9 197.323 349.972 203.66 350.116 208.125C350.26 212.445 350.476 216.406 350.764 220.007C349.756 219.719 347.956 219.575 345.363 219.575C342.771 219.431 339.746 219.287 336.29 219.143C332.833 218.999 329.233 218.927 325.488 218.927C321.887 218.927 318.431 218.927 315.118 218.927H248.58V214.39L325.704 113.286ZM329.161 113.286V258.461H306.693V141.37L325.704 113.286H329.161Z" fill="#E2F2EC"/>
</g>
<defs>
<clipPath id="clip0_3322_14949">
<rect width="358" height="252" fill="white"/>
</clipPath>
</defs>
</svg>
