<svg width="320" height="280" viewBox="0 0 320 280" fill="none" xmlns="http://www.w3.org/2000/svg">
<path d="M130.636 247.278L175.581 273.263M130.636 247.278C126.53 244.904 124 240.514 124 235.762M130.636 247.278L130.562 247.236C126.501 244.888 124 240.553 124 235.862L124 235.762M175.581 273.263C179.594 275.583 184.524 275.635 188.585 273.399M175.581 273.263V273.263C179.565 275.566 184.554 275.618 188.585 273.399V273.399M188.585 273.399L236.123 247.228M236.123 247.228C240.364 244.893 243 240.427 243 235.575M236.123 247.228L236.198 247.186C240.394 244.877 243 240.467 243 235.678L243 235.575M243 235.575L243 129.846M243 129.846C243 125.023 240.395 120.578 236.192 118.232M243 129.846L243 129.744C243 124.983 240.424 120.595 236.267 118.274L236.192 118.232M236.192 118.232L188.656 91.691M188.656 91.691C184.559 89.4035 179.561 89.4562 175.513 91.8297M188.656 91.691V91.691C184.589 89.4205 179.531 89.474 175.513 91.8297V91.8297M175.513 91.8297L130.566 118.183M130.566 118.183C126.499 120.567 124 124.936 124 129.659M130.566 118.183L130.493 118.226C126.471 120.584 124 124.897 124 129.559L124 129.659M124 129.659L124 235.762" stroke="url(#paint0_linear_3737_48263)" stroke-width="9.11106"/>
<path d="M261.536 18.5644L239.253 31.526M261.536 18.5644C263.571 17.3804 266.086 17.373 268.132 18.5449M261.536 18.5644V18.5644C263.571 17.3803 266.088 17.3742 268.132 18.5449V18.5449M239.253 31.526C237.263 32.6833 236.024 34.7952 235.984 37.0965M239.253 31.526V31.526C237.264 32.683 236.024 34.7956 235.984 37.0965V37.0965M235.984 37.0965L235.514 64.0376M235.514 64.0376C235.473 66.4413 236.744 68.6786 238.833 69.8751M235.514 64.0376V64.0376C235.473 66.4415 236.747 68.68 238.833 69.8751V69.8751M238.833 69.8751L262.447 83.4025M262.447 83.4025C264.523 84.5919 267.08 84.5652 269.127 83.3327M262.447 83.4025V83.4025C264.521 84.5906 267.08 84.5654 269.127 83.3327V83.3327M269.127 83.3327L292.289 69.3918M292.289 69.3918C294.285 68.1902 295.496 66.0235 295.474 63.6936M292.289 69.3918V69.3918C294.285 68.1905 295.496 66.023 295.474 63.6936V63.6936M295.474 63.6936L295.225 37.824M295.225 37.824C295.203 35.4836 293.939 33.3292 291.906 32.1644M295.225 37.824V37.824C295.203 35.4834 293.937 33.3279 291.906 32.1644V32.1644M291.906 32.1644L268.132 18.5449" stroke="url(#paint1_linear_3737_48263)" stroke-width="6.62209"/>
<g filter="url(#filter0_f_3737_48263)">
<ellipse cx="293.819" cy="50.6987" rx="2.79202" ry="27.0051" transform="rotate(-0.193229 293.819 50.6987)" fill="url(#paint2_radial_3737_48263)" fill-opacity="0.8"/>
</g>
<path d="M40.5357 189.564L18.2531 202.526M40.5357 189.564C42.5711 188.38 45.0858 188.373 47.1315 189.545M40.5357 189.564V189.564C42.5713 188.38 45.088 188.374 47.1315 189.545V189.545M18.2531 202.526C16.2635 203.683 15.0241 205.795 14.984 208.096M18.2531 202.526V202.526C16.264 203.683 15.0241 205.796 14.984 208.096V208.096M14.984 208.096L14.5145 235.038M14.5145 235.038C14.4726 237.441 15.7445 239.679 17.833 240.875M14.5145 235.038V235.038C14.4726 237.442 15.7468 239.68 17.833 240.875V240.875M17.833 240.875L41.4467 254.402M41.4467 254.402C43.5231 255.592 46.0797 255.565 48.1274 254.333M41.4467 254.402V254.402C43.5208 255.591 46.0795 255.565 48.1274 254.333V254.333M48.1274 254.333L71.2887 240.392M71.2887 240.392C73.285 239.19 74.496 237.024 74.4737 234.694M71.2887 240.392V240.392C73.2845 239.19 74.496 237.023 74.4737 234.694V234.694M74.4737 234.694L74.2253 208.824M74.2253 208.824C74.2029 206.484 72.9393 204.329 70.9061 203.164M74.2253 208.824V208.824C74.2029 206.483 72.9371 204.328 70.9061 203.164V203.164M70.9061 203.164L47.1315 189.545" stroke="url(#paint3_linear_3737_48263)" stroke-width="6.62209"/>
<g filter="url(#filter1_f_3737_48263)">
<ellipse cx="72.8192" cy="221.699" rx="2.79202" ry="27.0051" transform="rotate(-0.193229 72.8192 221.699)" fill="url(#paint4_radial_3737_48263)" fill-opacity="0.8"/>
</g>
<defs>
<filter id="filter0_f_3737_48263" x="280.512" y="13.18" width="26.6137" height="75.0374" filterUnits="userSpaceOnUse" color-interpolation-filters="sRGB">
<feFlood flood-opacity="0" result="BackgroundImageFix"/>
<feBlend mode="normal" in="SourceGraphic" in2="BackgroundImageFix" result="shape"/>
<feGaussianBlur stdDeviation="5.25667" result="effect1_foregroundBlur_3737_48263"/>
</filter>
<filter id="filter1_f_3737_48263" x="59.5124" y="184.18" width="26.6137" height="75.0374" filterUnits="userSpaceOnUse" color-interpolation-filters="sRGB">
<feFlood flood-opacity="0" result="BackgroundImageFix"/>
<feBlend mode="normal" in="SourceGraphic" in2="BackgroundImageFix" result="shape"/>
<feGaussianBlur stdDeviation="5.25667" result="effect1_foregroundBlur_3737_48263"/>
</filter>
<linearGradient id="paint0_linear_3737_48263" x1="130.045" y1="111.871" x2="204.85" y2="228.038" gradientUnits="userSpaceOnUse">
<stop stop-color="#00DC82"/>
<stop offset="0.505208" stop-color="#1AD6FF"/>
<stop offset="1" stop-color="#0047E1"/>
</linearGradient>
<linearGradient id="paint1_linear_3737_48263" x1="244.726" y1="18.2427" x2="302.435" y2="64.3548" gradientUnits="userSpaceOnUse">
<stop stop-color="#00DC82"/>
<stop offset="0.505208" stop-color="#1AD6FF"/>
<stop offset="1" stop-color="#0047E1"/>
</linearGradient>
<radialGradient id="paint2_radial_3737_48263" cx="0" cy="0" r="1" gradientUnits="userSpaceOnUse" gradientTransform="translate(293.819 50.6987) rotate(90) scale(27.0051 2.79202)">
<stop stop-color="white"/>
<stop offset="1" stop-color="white" stop-opacity="0"/>
</radialGradient>
<linearGradient id="paint3_linear_3737_48263" x1="23.726" y1="189.243" x2="81.4354" y2="235.355" gradientUnits="userSpaceOnUse">
<stop stop-color="#00DC82"/>
<stop offset="0.505208" stop-color="#1AD6FF"/>
<stop offset="1" stop-color="#0047E1"/>
</linearGradient>
<radialGradient id="paint4_radial_3737_48263" cx="0" cy="0" r="1" gradientUnits="userSpaceOnUse" gradientTransform="translate(72.8192 221.699) rotate(90) scale(27.0051 2.79202)">
<stop stop-color="white"/>
<stop offset="1" stop-color="white" stop-opacity="0"/>
</radialGradient>
</defs>
</svg>
