<svg width="90" height="90" viewBox="0 0 90 90" fill="none" xmlns="http://www.w3.org/2000/svg">
<path d="M50.4908 75H83.9476C85.0103 75.0001 86.0542 74.7229 86.9745 74.1963C87.8948 73.6696 88.6589 72.9121 89.19 71.9999C89.7211 71.0876 90.0005 70.0529 90 68.9997C89.9995 67.9465 89.7193 66.912 89.1873 66.0002L66.7187 27.4289C66.1876 26.5169 65.4237 25.7595 64.5036 25.2329C63.5835 24.7064 62.5398 24.4291 61.4773 24.4291C60.4149 24.4291 59.3711 24.7064 58.4511 25.2329C57.531 25.7595 56.767 26.5169 56.2359 27.4289L50.4908 37.2979L39.2581 17.9993C38.7266 17.0874 37.9623 16.3301 37.042 15.8036C36.1216 15.2772 35.0777 15 34.0151 15C32.9525 15 31.9086 15.2772 30.9883 15.8036C30.0679 16.3301 29.3036 17.0874 28.7721 17.9993L0.812649 66.0002C0.280743 66.912 0.000462935 67.9465 5.72978e-07 68.9997C-0.000461789 70.0529 0.278909 71.0876 0.810015 71.9999C1.34112 72.9121 2.10523 73.6696 3.0255 74.1963C3.94576 74.7229 4.98973 75.0001 6.0524 75H27.0538C35.3748 75 41.5112 71.3775 45.7336 64.3101L55.9849 46.7145L61.4757 37.2979L77.9547 65.5834H55.9849L50.4908 75ZM26.7114 65.5737L12.0551 65.5704L34.0249 27.8586L44.987 46.7145L37.6474 59.3175C34.8433 63.903 31.6577 65.5737 26.7114 65.5737Z" fill="#00DC82"/>
</svg>
