<svg width="1065" height="415" viewBox="0 0 1065 415" fill="none" xmlns="http://www.w3.org/2000/svg">
<g filter="url(#filter0_b_4269_46652)">
<rect width="801" height="415" rx="12" fill="#FAFAFA"/>
<rect x="0.5" y="0.5" width="800" height="414" rx="11.5" stroke="#E4E4E7"/>
</g>
<g clip-path="url(#clip0_4269_46652)">
<rect x="741" y="41" width="324" height="334" rx="12" fill="#18181B"/>
<path d="M834.152 112.128C833.629 112.128 833.139 112.011 832.68 111.776C832.221 111.531 831.869 111.205 831.624 110.8V112H830.072V100.56H831.624V105.12C831.869 104.725 832.216 104.411 832.664 104.176C833.123 103.931 833.624 103.808 834.168 103.808C834.968 103.808 835.661 103.989 836.248 104.352C836.835 104.704 837.283 105.195 837.592 105.824C837.901 106.453 838.056 107.168 838.056 107.968C838.056 108.768 837.901 109.483 837.592 110.112C837.283 110.741 836.835 111.237 836.248 111.6C835.661 111.952 834.963 112.128 834.152 112.128ZM833.976 110.768C834.723 110.768 835.32 110.512 835.768 110C836.227 109.488 836.456 108.811 836.456 107.968C836.456 107.125 836.227 106.448 835.768 105.936C835.32 105.424 834.723 105.168 833.976 105.168C833.229 105.168 832.627 105.424 832.168 105.936C831.72 106.448 831.496 107.125 831.496 107.968C831.496 108.811 831.72 109.488 832.168 110C832.627 110.512 833.229 110.768 833.976 110.768ZM841.202 112H839.65V100.56H841.202V112ZM846.954 112.128C846.154 112.128 845.439 111.952 844.81 111.6C844.18 111.237 843.684 110.741 843.322 110.112C842.97 109.483 842.794 108.768 842.794 107.968C842.794 107.168 842.97 106.453 843.322 105.824C843.684 105.195 844.18 104.704 844.81 104.352C845.439 103.989 846.154 103.808 846.954 103.808C847.754 103.808 848.468 103.989 849.098 104.352C849.727 104.704 850.218 105.195 850.57 105.824C850.922 106.453 851.098 107.168 851.098 107.968C851.098 108.768 850.922 109.483 850.57 110.112C850.218 110.741 849.727 111.237 849.098 111.6C848.468 111.952 847.754 112.128 846.954 112.128ZM846.954 110.768C847.711 110.768 848.324 110.507 848.794 109.984C849.274 109.461 849.514 108.789 849.514 107.968C849.514 107.147 849.274 106.475 848.794 105.952C848.324 105.429 847.711 105.168 846.954 105.168C846.186 105.168 845.562 105.429 845.082 105.952C844.612 106.475 844.378 107.147 844.378 107.968C844.378 108.789 844.612 109.461 845.082 109.984C845.562 110.507 846.186 110.768 846.954 110.768ZM858.649 103.936H860.201V112.384C860.201 112.939 860.073 113.435 859.817 113.872C859.561 114.309 859.204 114.651 858.745 114.896C858.297 115.141 857.785 115.264 857.209 115.264H853.321V113.968H857.049C857.518 113.968 857.902 113.808 858.201 113.488C858.5 113.179 858.649 112.779 858.649 112.288V110.976C858.457 111.317 858.126 111.595 857.657 111.808C857.188 112.021 856.67 112.128 856.105 112.128C855.294 112.128 854.596 111.952 854.009 111.6C853.433 111.237 852.99 110.747 852.681 110.128C852.382 109.499 852.233 108.779 852.233 107.968C852.233 107.157 852.382 106.443 852.681 105.824C852.99 105.195 853.433 104.704 854.009 104.352C854.596 103.989 855.289 103.808 856.089 103.808C856.622 103.808 857.118 103.92 857.577 104.144C858.036 104.357 858.393 104.645 858.649 105.008V103.936ZM856.281 110.768C857.028 110.768 857.625 110.517 858.073 110.016C858.532 109.504 858.761 108.821 858.761 107.968C858.761 107.115 858.532 106.437 858.073 105.936C857.625 105.424 857.028 105.168 856.281 105.168C855.534 105.168 854.937 105.424 854.489 105.936C854.041 106.448 853.817 107.125 853.817 107.968C853.817 108.811 854.041 109.488 854.489 110C854.937 110.512 855.534 110.768 856.281 110.768Z" fill="#A1A1AA"/>
<path d="M862.072 160.264V148.936H863.624V150.136C863.869 149.731 864.221 149.411 864.68 149.176C865.139 148.931 865.645 148.808 866.2 148.808C866.989 148.808 867.672 148.989 868.248 149.352C868.824 149.704 869.261 150.195 869.56 150.824C869.869 151.453 870.024 152.168 870.024 152.968C870.024 153.768 869.864 154.483 869.544 155.112C869.235 155.741 868.787 156.237 868.2 156.6C867.613 156.952 866.92 157.128 866.12 157.128C865.587 157.128 865.096 157.016 864.648 156.792C864.2 156.557 863.859 156.248 863.624 155.864V160.264H862.072ZM865.976 155.768C866.723 155.768 867.32 155.512 867.768 155C868.227 154.488 868.456 153.811 868.456 152.968C868.456 152.125 868.227 151.448 867.768 150.936C867.32 150.424 866.723 150.168 865.976 150.168C865.229 150.168 864.627 150.424 864.168 150.936C863.72 151.448 863.496 152.125 863.496 152.968C863.496 153.811 863.72 154.488 864.168 155C864.627 155.512 865.229 155.768 865.976 155.768ZM875.235 157.128C874.435 157.128 873.72 156.952 873.091 156.6C872.462 156.237 871.966 155.741 871.603 155.112C871.251 154.483 871.075 153.768 871.075 152.968C871.075 152.168 871.251 151.453 871.603 150.824C871.966 150.195 872.462 149.704 873.091 149.352C873.72 148.989 874.435 148.808 875.235 148.808C876.035 148.808 876.75 148.989 877.379 149.352C878.008 149.704 878.499 150.195 878.851 150.824C879.203 151.453 879.379 152.168 879.379 152.968C879.379 153.768 879.203 154.483 878.851 155.112C878.499 155.741 878.008 156.237 877.379 156.6C876.75 156.952 876.035 157.128 875.235 157.128ZM875.235 155.768C875.992 155.768 876.606 155.507 877.075 154.984C877.555 154.461 877.795 153.789 877.795 152.968C877.795 152.147 877.555 151.475 877.075 150.952C876.606 150.429 875.992 150.168 875.235 150.168C874.467 150.168 873.843 150.429 873.363 150.952C872.894 151.475 872.659 152.147 872.659 152.968C872.659 153.789 872.894 154.461 873.363 154.984C873.843 155.507 874.467 155.768 875.235 155.768ZM883.652 157.128C882.703 157.128 881.935 156.883 881.348 156.392C880.761 155.891 880.441 155.219 880.388 154.376H881.844C881.887 154.835 882.068 155.192 882.388 155.448C882.708 155.704 883.129 155.832 883.652 155.832C884.1 155.832 884.463 155.731 884.74 155.528C885.028 155.315 885.172 155.053 885.172 154.744C885.172 154.445 885.087 154.216 884.916 154.056C884.756 153.896 884.553 153.784 884.308 153.72C884.063 153.645 883.721 153.571 883.284 153.496C882.708 153.4 882.239 153.293 881.876 153.176C881.524 153.048 881.22 152.824 880.964 152.504C880.719 152.184 880.596 151.725 880.596 151.128C880.596 150.435 880.863 149.875 881.396 149.448C881.929 149.021 882.617 148.808 883.46 148.808C884.367 148.808 885.108 149.043 885.684 149.512C886.26 149.971 886.569 150.579 886.612 151.336H885.156C885.103 150.909 884.905 150.589 884.564 150.376C884.223 150.152 883.855 150.04 883.46 150.04C883.044 150.04 882.708 150.136 882.452 150.328C882.196 150.52 882.068 150.771 882.068 151.08C882.068 151.464 882.212 151.725 882.5 151.864C882.799 151.992 883.252 152.099 883.86 152.184C884.457 152.269 884.943 152.376 885.316 152.504C885.689 152.632 886.009 152.872 886.276 153.224C886.543 153.565 886.676 154.061 886.676 154.712C886.676 155.448 886.399 156.035 885.844 156.472C885.3 156.909 884.569 157.128 883.652 157.128ZM889.108 146.408H890.66V148.936H893.044V150.28H890.66V154.312C890.66 154.739 890.766 155.069 890.98 155.304C891.204 155.539 891.513 155.656 891.908 155.656H893.044V157H891.78C890.958 157 890.308 156.765 889.828 156.296C889.348 155.827 889.108 155.181 889.108 154.36V150.28H887.46V148.936H889.108V146.408ZM894.367 157V155.288H896.095V157H894.367ZM900.797 157H899.261L896.301 148.936H897.901L900.013 155.048L902.141 148.936H903.741L900.797 157ZM912.066 148.936V157H910.514V155.576C910.301 156.077 909.965 156.461 909.506 156.728C909.058 156.995 908.53 157.128 907.922 157.128C907.015 157.128 906.285 156.829 905.73 156.232C905.186 155.635 904.914 154.856 904.914 153.896V148.936H906.466V153.592C906.466 154.232 906.637 154.749 906.978 155.144C907.33 155.539 907.789 155.736 908.354 155.736C908.983 155.736 909.501 155.507 909.906 155.048C910.311 154.589 910.514 154.008 910.514 153.304V148.936H912.066ZM921.367 154.376C921.217 155.208 920.807 155.875 920.135 156.376C919.463 156.877 918.631 157.128 917.639 157.128C916.828 157.128 916.113 156.936 915.495 156.552C914.887 156.168 914.417 155.656 914.087 155.016C913.756 154.376 913.59 153.677 913.59 152.92C913.59 152.163 913.745 151.475 914.055 150.856C914.364 150.227 914.812 149.731 915.399 149.368C915.985 148.995 916.679 148.808 917.479 148.808C918.279 148.808 918.967 148.984 919.543 149.336C920.119 149.677 920.556 150.141 920.855 150.728C921.153 151.304 921.303 151.939 921.303 152.632C921.303 152.845 921.292 153.048 921.271 153.24H915.111C915.175 154.008 915.436 154.627 915.895 155.096C916.353 155.565 916.935 155.8 917.639 155.8C918.225 155.8 918.705 155.677 919.079 155.432C919.452 155.187 919.697 154.835 919.815 154.376H921.367ZM917.479 150.056C916.849 150.056 916.332 150.232 915.927 150.584C915.532 150.925 915.276 151.432 915.159 152.104H919.735C919.681 151.485 919.457 150.989 919.063 150.616C918.668 150.243 918.14 150.056 917.479 150.056Z" fill="white"/>
<path d="M845 147.94C844.989 147.848 844.969 147.758 844.94 147.67V147.58C844.892 147.477 844.828 147.383 844.75 147.3V147.3L838.75 141.3C838.667 141.222 838.573 141.158 838.47 141.11H838.38L838.06 141H832C831.204 141 830.441 141.316 829.878 141.879C829.316 142.441 829 143.204 829 144V158C829 158.796 829.316 159.559 829.878 160.121C830.441 160.684 831.204 161 832 161H842C842.795 161 843.558 160.684 844.121 160.121C844.684 159.559 845 158.796 845 158V148C845 148 845 148 845 147.94ZM839 144.41L841.59 147H839V144.41ZM843 158C843 158.265 842.894 158.52 842.707 158.707C842.519 158.895 842.265 159 842 159H832C831.735 159 831.48 158.895 831.293 158.707C831.105 158.52 831 158.265 831 158V144C831 143.735 831.105 143.48 831.293 143.293C831.48 143.105 831.735 143 832 143H837V148C837 148.265 837.105 148.52 837.293 148.707C837.48 148.895 837.735 149 838 149H843V158Z" fill="#00DC82"/>
<path d="M773.71 75.8297L777.95 71.5897C778.044 71.4967 778.118 71.3861 778.169 71.2643C778.22 71.1424 778.246 71.0117 778.246 70.8797C778.246 70.7477 778.22 70.617 778.169 70.4951C778.118 70.3733 778.044 70.2627 777.95 70.1697C777.763 69.9834 777.509 69.8789 777.245 69.8789C776.981 69.8789 776.728 69.9834 776.54 70.1697L773 73.7097L769.46 70.1697C769.273 69.9834 769.019 69.8789 768.755 69.8789C768.491 69.8789 768.238 69.9834 768.05 70.1697C767.958 70.2631 767.884 70.374 767.835 70.4958C767.785 70.6176 767.76 70.7481 767.76 70.8797C767.76 71.0113 767.785 71.1418 767.835 71.2636C767.884 71.3854 767.958 71.4963 768.05 71.5897L772.29 75.8297C772.383 75.9234 772.494 75.9978 772.616 76.0486C772.738 76.0994 772.868 76.1255 773 76.1255C773.132 76.1255 773.263 76.0994 773.385 76.0486C773.507 75.9978 773.617 75.9234 773.71 75.8297Z" fill="white"/>
<path d="M805.71 109.83L809.95 105.59C810.044 105.497 810.118 105.386 810.169 105.264C810.22 105.142 810.246 105.012 810.246 104.88C810.246 104.748 810.22 104.617 810.169 104.495C810.118 104.373 810.044 104.263 809.95 104.17C809.763 103.983 809.509 103.879 809.245 103.879C808.981 103.879 808.728 103.983 808.54 104.17L805 107.71L801.46 104.17C801.273 103.983 801.019 103.879 800.755 103.879C800.491 103.879 800.238 103.983 800.05 104.17C799.958 104.263 799.884 104.374 799.835 104.496C799.785 104.618 799.76 104.748 799.76 104.88C799.76 105.011 799.785 105.142 799.835 105.264C799.884 105.385 799.958 105.496 800.05 105.59L804.29 109.83C804.383 109.923 804.494 109.998 804.616 110.049C804.738 110.099 804.868 110.125 805 110.125C805.132 110.125 805.263 110.099 805.385 110.049C805.507 109.998 805.617 109.923 805.71 109.83Z" fill="white"/>
<path d="M798.103 83.3582V71.7032H799.7V72.9378C799.952 72.5208 800.314 72.1915 800.786 71.9501C801.258 71.6977 801.779 71.5715 802.35 71.5715C803.162 71.5715 803.865 71.758 804.457 72.1312C805.05 72.4934 805.5 72.9982 805.807 73.6457C806.125 74.2932 806.285 75.0285 806.285 75.8516C806.285 76.6747 806.12 77.41 805.791 78.0575C805.472 78.705 805.011 79.2153 804.408 79.5885C803.804 79.9506 803.091 80.1317 802.268 80.1317C801.719 80.1317 801.214 80.0165 800.753 79.786C800.292 79.5446 799.941 79.2263 799.7 78.8312V83.3582H798.103ZM802.12 78.7324C802.888 78.7324 803.502 78.469 803.963 77.9423C804.435 77.4155 804.671 76.7186 804.671 75.8516C804.671 74.9846 804.435 74.2877 803.963 73.7609C803.502 73.2341 802.888 72.9707 802.12 72.9707C801.351 72.9707 800.731 73.2341 800.259 73.7609C799.799 74.2877 799.568 74.9846 799.568 75.8516C799.568 76.7186 799.799 77.4155 800.259 77.9423C800.731 78.469 801.351 78.7324 802.12 78.7324ZM811.038 71.5715C811.741 71.5715 812.361 71.7032 812.899 71.9666C813.436 72.219 813.853 72.5811 814.15 73.0531C814.446 73.514 814.594 74.0463 814.594 74.6499V80H812.997V78.6501C812.8 79.1001 812.454 79.4622 811.96 79.7366C811.477 80 810.923 80.1317 810.298 80.1317C809.452 80.1317 808.772 79.9012 808.256 79.4403C807.74 78.9794 807.483 78.3758 807.483 77.6295C807.483 76.8393 807.773 76.2138 808.355 75.7528C808.937 75.2809 809.721 75.045 810.709 75.045H812.438C812.624 75.045 812.761 75.0011 812.849 74.9133C812.948 74.8255 812.997 74.7047 812.997 74.5511C812.997 74.0353 812.816 73.6237 812.454 73.3164C812.103 73.0092 811.614 72.8555 810.989 72.8555C810.429 72.8555 809.952 73.0092 809.557 73.3164C809.173 73.6237 808.97 73.9914 808.948 74.4194H807.466C807.51 73.8816 807.691 73.3988 808.009 72.9707C808.328 72.5318 808.75 72.1915 809.277 71.9501C809.804 71.6977 810.391 71.5715 811.038 71.5715ZM810.61 78.8641C811.357 78.8641 811.938 78.6391 812.355 78.1892C812.783 77.7392 812.997 77.1301 812.997 76.3619V76.1644H810.857C810.309 76.1644 809.87 76.2961 809.54 76.5595C809.222 76.8119 809.063 77.1576 809.063 77.5966C809.063 77.9697 809.206 78.277 809.491 78.5184C809.776 78.7489 810.149 78.8641 810.61 78.8641ZM822.65 71.7032H824.247V80.3951C824.247 80.9658 824.115 81.4761 823.852 81.926C823.588 82.376 823.221 82.7272 822.749 82.9796C822.288 83.232 821.761 83.3582 821.168 83.3582H817.168V82.0248H821.004C821.487 82.0248 821.882 81.8602 822.189 81.531C822.496 81.2127 822.65 80.8011 822.65 80.2963V78.9464C822.452 79.2976 822.112 79.583 821.629 79.8025C821.147 80.0219 820.614 80.1317 820.033 80.1317C819.199 80.1317 818.48 79.9506 817.876 79.5885C817.283 79.2153 816.828 78.7105 816.51 78.074C816.202 77.4264 816.049 76.6857 816.049 75.8516C816.049 75.0175 816.202 74.2822 816.51 73.6457C816.828 72.9982 817.283 72.4934 817.876 72.1312C818.48 71.758 819.193 71.5715 820.016 71.5715C820.565 71.5715 821.075 71.6867 821.547 71.9172C822.019 72.1367 822.387 72.433 822.65 72.8061V71.7032ZM820.214 78.7324C820.982 78.7324 821.596 78.4745 822.057 77.9587C822.529 77.4319 822.765 76.7296 822.765 75.8516C822.765 74.9736 822.529 74.2767 822.057 73.7609C821.596 73.2341 820.982 72.9707 820.214 72.9707C819.445 72.9707 818.831 73.2341 818.37 73.7609C817.909 74.2877 817.679 74.9846 817.679 75.8516C817.679 76.7186 817.909 77.4155 818.37 77.9423C818.831 78.469 819.445 78.7324 820.214 78.7324ZM833.87 77.3002C833.716 78.1563 833.294 78.8422 832.602 79.358C831.911 79.8738 831.055 80.1317 830.034 80.1317C829.2 80.1317 828.465 79.9342 827.828 79.5391C827.203 79.144 826.72 78.6172 826.38 77.9587C826.039 77.3002 825.869 76.5814 825.869 75.8022C825.869 75.023 826.029 74.3151 826.347 73.6786C826.665 73.0311 827.126 72.5208 827.73 72.1476C828.333 71.7635 829.047 71.5715 829.87 71.5715C830.693 71.5715 831.401 71.7526 831.993 72.1147C832.586 72.4659 833.036 72.9433 833.343 73.5469C833.65 74.1395 833.804 74.7925 833.804 75.5059C833.804 75.7254 833.793 75.9339 833.771 76.1314H827.433C827.499 76.9216 827.768 77.5581 828.24 78.041C828.712 78.5239 829.31 78.7654 830.034 78.7654C830.638 78.7654 831.132 78.6391 831.516 78.3867C831.9 78.1343 832.152 77.7721 832.273 77.3002H833.87ZM829.87 72.8555C829.222 72.8555 828.69 73.0366 828.273 73.3988C827.867 73.7499 827.603 74.2712 827.483 74.9626H832.191C832.136 74.3261 831.905 73.8158 831.499 73.4317C831.093 73.0476 830.55 72.8555 829.87 72.8555ZM838.263 80.1317C837.286 80.1317 836.496 79.8793 835.893 79.3744C835.289 78.8586 834.96 78.1672 834.905 77.3002H836.403C836.447 77.7721 836.633 78.1398 836.963 78.4032C837.292 78.6666 837.725 78.7983 838.263 78.7983C838.724 78.7983 839.097 78.694 839.383 78.4855C839.679 78.266 839.827 77.9971 839.827 77.6789C839.827 77.3716 839.739 77.1356 839.564 76.971C839.399 76.8064 839.191 76.6911 838.938 76.6253C838.686 76.5485 838.334 76.4717 837.885 76.3948C837.292 76.2961 836.809 76.1863 836.436 76.0656C836.074 75.9339 835.761 75.7034 835.498 75.3742C835.245 75.045 835.119 74.573 835.119 73.9585C835.119 73.2451 835.393 72.6689 835.942 72.23C836.491 71.791 837.199 71.5715 838.066 71.5715C838.998 71.5715 839.761 71.8129 840.354 72.2958C840.946 72.7677 841.265 73.3933 841.309 74.1725H839.811C839.756 73.7335 839.553 73.4042 839.201 73.1848C838.85 72.9543 838.472 72.8391 838.066 72.8391C837.638 72.8391 837.292 72.9378 837.029 73.1354C836.765 73.3329 836.633 73.5908 836.633 73.9091C836.633 74.3042 836.782 74.573 837.078 74.7157C837.385 74.8474 837.852 74.9572 838.477 75.045C839.092 75.1327 839.591 75.2425 839.975 75.3742C840.359 75.5059 840.689 75.7528 840.963 76.115C841.237 76.4662 841.374 76.9765 841.374 77.6459C841.374 78.4032 841.089 79.0068 840.518 79.4568C839.959 79.9067 839.207 80.1317 838.263 80.1317Z" fill="#A1A1AA"/>
<line x1="774" y1="95" x2="774" y2="345" stroke="url(#paint0_linear_4269_46652)" stroke-width="2"/>
<line x1="806" y1="129" x2="806" y2="340" stroke="url(#paint1_linear_4269_46652)" stroke-width="2"/>
</g>
<defs>
<filter id="filter0_b_4269_46652" x="-42" y="-42" width="885" height="499" filterUnits="userSpaceOnUse" color-interpolation-filters="sRGB">
<feFlood flood-opacity="0" result="BackgroundImageFix"/>
<feGaussianBlur in="BackgroundImage" stdDeviation="21"/>
<feComposite in2="SourceAlpha" operator="in" result="effect1_backgroundBlur_4269_46652"/>
<feBlend mode="normal" in="SourceGraphic" in2="effect1_backgroundBlur_4269_46652" result="shape"/>
</filter>
<linearGradient id="paint0_linear_4269_46652" x1="773" y1="95" x2="773" y2="348.352" gradientUnits="userSpaceOnUse">
<stop stop-color="#71717A"/>
<stop offset="1" stop-color="#71717A" stop-opacity="0"/>
</linearGradient>
<linearGradient id="paint1_linear_4269_46652" x1="805" y1="129" x2="805" y2="342.83" gradientUnits="userSpaceOnUse">
<stop stop-color="#71717A"/>
<stop offset="1" stop-color="#71717A" stop-opacity="0"/>
</linearGradient>
<clipPath id="clip0_4269_46652">
<rect x="741" y="41" width="324" height="334" rx="12" fill="white"/>
</clipPath>
</defs>
</svg>
