<svg width="48" height="48" viewBox="0 0 48 48" fill="none" xmlns="http://www.w3.org/2000/svg">
<path d="M15.1276 40.9201C15.1276 41.4723 14.6799 41.9201 14.1276 41.9201H7.08105C6.52877 41.9201 6.08105 41.4723 6.08105 40.9201V7C6.08105 6.44772 6.52877 6 7.08105 6H14.1276C14.6799 6 15.1276 6.44772 15.1276 7V8.45897C15.1276 9.01125 14.6799 9.45897 14.1276 9.45897H10.8948C10.3425 9.45897 9.89479 9.90668 9.89479 10.459V37.4611C9.89479 38.0134 10.3425 38.4611 10.8948 38.4611H14.1276C14.6799 38.4611 15.1276 38.9088 15.1276 39.4611V40.9201Z" fill="#00DC82"/>
<path d="M40.4191 6C40.9714 6 41.4191 6.44772 41.4191 7V40.9201C41.4191 41.4723 40.9714 41.9201 40.4191 41.9201H33.3725C32.8203 41.9201 32.3725 41.4723 32.3725 40.9201V39.4611C32.3725 38.9088 32.8203 38.4611 33.3725 38.4611H36.6053C37.1576 38.4611 37.6053 38.0134 37.6053 37.4611V10.459C37.6053 9.90668 37.1576 9.45897 36.6053 9.45897H33.3725C32.8203 9.45897 32.3725 9.01125 32.3725 8.45897V7C32.3725 6.44772 32.8203 6 33.3725 6H40.4191Z" fill="#00DC82"/>
<path d="M21.7139 17.663V12.918H26.5032V17.663H21.7139ZM21.7139 33.7161V28.9711H26.5032V33.7161H21.7139Z" fill="#009D5D"/>
</svg>
