<svg width="16" height="20" viewBox="0 0 16 20" fill="currentColor" xmlns="http://www.w3.org/2000/svg">
<path d="M15.9998 6.94C15.9893 6.84813 15.9692 6.75763 15.9398 6.67V6.58C15.8917 6.47718 15.8275 6.38267 15.7498 6.3L9.74975 0.3C9.66709 0.222216 9.57258 0.158081 9.46976 0.11H9.37976L9.05976 0H2.99976C2.20411 0 1.44104 0.316071 0.878435 0.87868C0.315826 1.44129 -0.000244141 2.20435 -0.000244141 3V17C-0.000244141 17.7956 0.315826 18.5587 0.878435 19.1213C1.44104 19.6839 2.20411 20 2.99976 20H12.9998C13.7954 20 14.5585 19.6839 15.1211 19.1213C15.6837 18.5587 15.9998 17.7956 15.9998 17V7C15.9998 7 15.9998 7 15.9998 6.94ZM9.99975 3.41L12.5898 6H9.99975V3.41ZM13.9998 17C13.9998 17.2652 13.8944 17.5196 13.7069 17.7071C13.5193 17.8946 13.265 18 12.9998 18H2.99976C2.73454 18 2.48019 17.8946 2.29265 17.7071C2.10511 17.5196 1.99976 17.2652 1.99976 17V3C1.99976 2.73478 2.10511 2.48043 2.29265 2.29289C2.48019 2.10536 2.73454 2 2.99976 2H7.99975V7C7.99975 7.26522 8.10511 7.51957 8.29265 7.70711C8.48018 7.89464 8.73454 8 8.99975 8H13.9998V17Z" fill="currentColor"/>
</svg>
