<svg width="48" height="48" viewBox="0 0 48 48" fill="none" xmlns="http://www.w3.org/2000/svg">
<path d="M36.8002 19.104C36.7835 18.957 36.7514 18.8122 36.7042 18.672V18.528C36.6273 18.3635 36.5247 18.2123 36.4002 18.08L26.8002 8.48C26.6679 8.35555 26.5167 8.25293 26.3522 8.176H26.2082C26.0457 8.08279 25.8662 8.02295 25.6802 8H16.0002C14.7272 8 13.5063 8.50571 12.6061 9.40589C11.7059 10.3061 11.2002 11.527 11.2002 12.8V35.2C11.2002 36.473 11.7059 37.6939 12.6061 38.5941C13.5063 39.4943 14.7272 40 16.0002 40H32.0002C33.2732 40 34.4941 39.4943 35.3943 38.5941C36.2945 37.6939 36.8002 36.473 36.8002 35.2V19.2C36.8002 19.2 36.8002 19.2 36.8002 19.104ZM27.2002 13.456L31.3442 17.6H28.8002C28.3758 17.6 27.9689 17.4314 27.6688 17.1314C27.3688 16.8313 27.2002 16.4243 27.2002 16V13.456ZM33.6002 35.2C33.6002 35.6243 33.4316 36.0313 33.1316 36.3314C32.8315 36.6314 32.4245 36.8 32.0002 36.8H16.0002C15.5758 36.8 15.1689 36.6314 14.8688 36.3314C14.5688 36.0313 14.4002 35.6243 14.4002 35.2V12.8C14.4002 12.3757 14.5688 11.9687 14.8688 11.6686C15.1689 11.3686 15.5758 11.2 16.0002 11.2H24.0002V16C24.0002 17.273 24.5059 18.4939 25.4061 19.3941C26.3063 20.2943 27.5272 20.8 28.8002 20.8H33.6002V35.2Z" fill="#D4D4D8"/>
</svg>
