<svg width="438" height="236" viewBox="0 0 438 236" fill="none" xmlns="http://www.w3.org/2000/svg">
<path d="M228.189 173.96V235.96" stroke="#18181B" stroke-width="0.748571"/>
<path d="M1.18945 173.96H191.189" stroke="#18181B" stroke-width="0.748571"/>
<path d="M45.5 44.96H194.19" stroke="#18181B" stroke-width="0.748571"/>
<path d="M270.189 144.96H436.189" stroke="#18181B" stroke-width="0.748571"/>
<path d="M1.18945 109.96L143.189 109.96" stroke="#18181B" stroke-width="0.748571"/>
<path d="M45.1895 142.96H124.189" stroke="#18181B" stroke-width="0.748571"/>
<path d="M274.189 109.96L417.189 109.96" stroke="#18181B" stroke-width="0.748571"/>
<path d="M316.189 173.96L227.189 173.96" stroke="#18181B" stroke-width="0.748571"/>
<path d="M352.189 27.96V108.767V214.96" stroke="#18181B" stroke-width="0.748571"/>
<path d="M316.189 0.960449V225.96" stroke="#18181B" stroke-width="0.748571"/>
<path d="M245.189 57.9602L416.189 57.96" stroke="#18181B" stroke-width="0.748571"/>
<path d="M77.1895 225.96L77.1895 6.95996" stroke="#18181B" stroke-width="0.748571"/>
<path d="M153.189 17.96V69.96" stroke="#18181B" stroke-width="0.748571"/>
<path d="M45.1895 28.96L45.1895 212.96" stroke="#18181B" stroke-width="0.748571"/>
<path d="M124.189 44.96V234.96" stroke="#18181B" stroke-width="0.748571"/>
<path d="M176.189 173.96V219.96" stroke="#18181B" stroke-width="0.748571"/>
<path d="M78.1895 204.96H393.189" stroke="#18181B" stroke-width="0.748571"/>
<circle opacity="0.14" cx="124.188" cy="109.96" r="3.5" fill="#00DC82"/>
<circle opacity="0.14" cx="45.1885" cy="173.96" r="3.5" fill="#00DC82"/>
<circle opacity="0.14" cx="77.1885" cy="44.96" r="3.5" fill="#00DC82"/>
<circle opacity="0.14" cx="352.188" cy="57.9604" r="3.5" fill="#00DC82"/>
<circle opacity="0.14" cx="316.188" cy="109.961" r="3.5" fill="#00DC82"/>
<circle opacity="0.14" cx="176.188" cy="204.96" r="3.5" fill="#00DC82"/>
<g filter="url(#filter0_d_1185_61431)">
<path d="M150.052 71.4524L150.055 71.4502L198.541 41.3638C198.541 41.3634 198.542 41.363 198.543 41.3627C202.755 38.8146 207.989 38.7089 212.274 41.0837L212.276 41.0849L264.262 69.4685C264.263 69.4687 264.263 69.4688 264.263 69.469C268.521 71.8293 271.2 76.2849 271.301 81.1758C271.301 81.1768 271.301 81.1778 271.301 81.1788L271.613 136.695L271.613 136.701C271.712 141.575 269.241 146.144 265.108 148.73L215.889 179.528C211.653 182.179 206.33 182.327 201.981 179.916L151.157 151.745C146.75 149.302 143.336 144.652 143.369 139.659L143.369 139.657L143.369 83.2182C143.369 83.2178 143.369 83.2174 143.369 83.217C143.401 78.4042 145.934 73.944 150.052 71.4524Z" stroke="#00DC82" stroke-opacity="0.1" stroke-width="0.748571" shape-rendering="crispEdges"/>
</g>
<g filter="url(#filter1_d_1185_61431)">
<path d="M174.937 87.6502L202.753 70.1861C205.235 68.6664 208.32 68.6029 210.846 70.0194L240.669 86.4945C243.179 87.9024 244.758 90.5604 244.817 93.477L244.996 125.703C245.054 128.609 243.599 131.332 241.164 132.874L212.93 150.75C210.434 152.33 207.297 152.418 204.733 150.981L175.579 134.629C173 133.183 170.981 130.42 171 127.423L171 94.6637C171.019 91.7945 172.511 89.1356 174.937 87.6502Z" fill="#18181B"/>
<path d="M175.328 88.2886L175.328 88.2886L175.335 88.2841L203.144 70.8245C203.145 70.8238 203.146 70.823 203.147 70.8223C205.399 69.4454 208.193 69.3899 210.48 70.6723L210.484 70.6747L240.303 87.1474C240.303 87.1478 240.304 87.1481 240.305 87.1485C242.577 88.4239 244.013 90.834 244.068 93.4869C244.068 93.4886 244.068 93.4903 244.069 93.4921L244.247 125.707L244.247 125.718C244.301 128.365 242.975 130.841 240.763 132.241L212.529 150.117C210.264 151.551 207.422 151.63 205.099 150.328L175.945 133.977C173.543 132.629 171.731 130.088 171.749 127.428H171.749V127.423L171.749 94.6685C171.749 94.6678 171.749 94.667 171.749 94.6662C171.767 92.054 173.126 89.637 175.328 88.2886Z" stroke="url(#paint0_linear_1185_61431)" stroke-width="1.49714"/>
</g>
<g filter="url(#filter2_d_1185_61431)">
<path d="M166.188 81.6892L166.188 81.6893L166.192 81.6871L201.521 59.8066C201.522 59.8062 201.522 59.8058 201.523 59.8055C204.561 57.9712 208.337 57.8955 211.427 59.6049L211.429 59.606L249.31 80.2484C249.311 80.2486 249.311 80.2488 249.311 80.249C252.381 81.9479 254.313 85.1546 254.386 88.6746C254.386 88.6756 254.386 88.6766 254.386 88.6776L254.614 129.052L254.614 129.057C254.685 132.566 252.903 135.855 249.922 137.717L214.057 160.116C211.001 162.024 207.162 162.13 204.025 160.395L166.991 139.907C163.802 138.143 161.344 134.791 161.368 131.207H161.368V131.205L161.368 90.1594C161.368 90.159 161.368 90.1586 161.368 90.1582C161.391 86.6939 163.218 83.4831 166.188 81.6892Z" stroke="#00DC82" stroke-opacity="0.5" stroke-width="0.748571" shape-rendering="crispEdges"/>
</g>
<g filter="url(#filter3_d_1185_61431)">
<path d="M157.2 76.408L157.2 76.408L157.204 76.4058L199.675 50.1067C199.676 50.1063 199.676 50.106 199.677 50.1056C203.352 47.8868 207.92 47.795 211.659 49.8628L211.661 49.8639L257.199 74.6747C257.2 74.675 257.2 74.6752 257.201 74.6754C260.915 76.7307 263.252 80.6098 263.34 84.8675C263.34 84.8686 263.34 84.8696 263.34 84.8706L263.613 133.398L263.614 133.404C263.7 137.648 261.545 141.626 257.938 143.878L214.824 170.799C211.127 173.108 206.482 173.236 202.687 171.137L158.167 146.512C154.317 144.382 151.34 140.331 151.369 135.989L151.369 135.986L151.369 86.6526C151.369 86.6522 151.369 86.6518 151.369 86.6514C151.397 82.4612 153.607 78.5776 157.2 76.408Z" stroke="#00DC82" stroke-opacity="0.15" stroke-width="0.748571" shape-rendering="crispEdges"/>
</g>
<path d="M218.225 121.022C220.986 118.216 222.533 114.437 222.533 110.5C222.533 106.563 220.986 102.784 218.225 99.978C218.199 99.9374 218.164 99.9028 218.123 99.8769C218.097 99.8362 218.063 99.8017 218.022 99.7757C215.216 97.0147 211.437 95.4673 207.5 95.4673C203.564 95.4673 199.785 97.0147 196.979 99.7757C196.938 99.8017 196.903 99.8362 196.877 99.8769C196.837 99.9028 196.802 99.9374 196.776 99.978C194.015 102.784 192.468 106.563 192.468 110.5C192.468 114.437 194.015 118.216 196.776 121.022L196.877 121.123C196.903 121.164 196.938 121.198 196.979 121.224C199.785 123.985 203.564 125.533 207.5 125.533C211.437 125.533 215.216 123.985 218.022 121.224C218.063 121.198 218.097 121.164 218.123 121.123C218.164 121.097 218.199 121.062 218.225 121.022ZM217.271 118.637L213.152 114.518C213.988 113.345 214.437 111.94 214.437 110.5C214.437 109.059 213.988 107.655 213.152 106.482L217.271 102.363C219.175 104.647 220.219 107.526 220.219 110.5C220.219 113.474 219.175 116.353 217.271 118.637ZM202.875 110.5C202.875 109.585 203.147 108.691 203.655 107.93C204.163 107.17 204.885 106.577 205.73 106.227C206.576 105.877 207.506 105.785 208.403 105.964C209.3 106.142 210.124 106.583 210.771 107.23C211.418 107.876 211.858 108.7 212.037 109.598C212.215 110.495 212.123 111.425 211.773 112.27C211.423 113.115 210.83 113.837 210.07 114.345C209.309 114.854 208.415 115.125 207.5 115.125C206.275 115.121 205.101 114.633 204.234 113.766C203.368 112.9 202.879 111.725 202.875 110.5ZM215.638 100.73L211.518 104.849C210.345 104.013 208.941 103.563 207.5 103.563C206.06 103.563 204.655 104.013 203.482 104.849L199.363 100.73C201.647 98.8249 204.527 97.7817 207.5 97.7817C210.474 97.7817 213.354 98.8249 215.638 100.73ZM197.73 102.363L201.849 106.482C201.013 107.655 200.564 109.059 200.564 110.5C200.564 111.94 201.013 113.345 201.849 114.518L197.73 118.637C195.825 116.353 194.782 113.474 194.782 110.5C194.782 107.526 195.825 104.647 197.73 102.363ZM199.363 120.27L203.482 116.151C204.655 116.987 206.06 117.436 207.5 117.436C208.941 117.436 210.345 116.987 211.518 116.151L215.638 120.27C213.354 122.175 210.474 123.218 207.5 123.218C204.527 123.218 201.647 122.175 199.363 120.27Z" fill="url(#paint1_linear_1185_61431)"/>
<defs>
<filter id="filter0_d_1185_61431" x="124.257" y="20.2631" width="166.47" height="180.474" filterUnits="userSpaceOnUse" color-interpolation-filters="sRGB">
<feFlood flood-opacity="0" result="BackgroundImageFix"/>
<feColorMatrix in="SourceAlpha" type="matrix" values="0 0 0 0 0 0 0 0 0 0 0 0 0 0 0 0 0 0 127 0" result="hardAlpha"/>
<feOffset/>
<feGaussianBlur stdDeviation="9.36846"/>
<feComposite in2="hardAlpha" operator="out"/>
<feColorMatrix type="matrix" values="0 0 0 0 1 0 0 0 0 1 0 0 0 0 1 0 0 0 1 0"/>
<feBlend mode="normal" in2="BackgroundImageFix" result="effect1_dropShadow_1185_61431"/>
<feBlend mode="normal" in="SourceGraphic" in2="effect1_dropShadow_1185_61431" result="shape"/>
</filter>
<filter id="filter1_d_1185_61431" x="152.263" y="50.2631" width="111.471" height="120.474" filterUnits="userSpaceOnUse" color-interpolation-filters="sRGB">
<feFlood flood-opacity="0" result="BackgroundImageFix"/>
<feColorMatrix in="SourceAlpha" type="matrix" values="0 0 0 0 0 0 0 0 0 0 0 0 0 0 0 0 0 0 127 0" result="hardAlpha"/>
<feOffset/>
<feGaussianBlur stdDeviation="9.36846"/>
<feComposite in2="hardAlpha" operator="out"/>
<feColorMatrix type="matrix" values="0 0 0 0 1 0 0 0 0 1 0 0 0 0 1 0 0 0 0.07 0"/>
<feBlend mode="normal" in2="BackgroundImageFix" result="effect1_dropShadow_1185_61431"/>
<feBlend mode="normal" in="SourceGraphic" in2="effect1_dropShadow_1185_61431" result="shape"/>
</filter>
<filter id="filter2_d_1185_61431" x="141.616" y="38.6229" width="132.751" height="142.754" filterUnits="userSpaceOnUse" color-interpolation-filters="sRGB">
<feFlood flood-opacity="0" result="BackgroundImageFix"/>
<feColorMatrix in="SourceAlpha" type="matrix" values="0 0 0 0 0 0 0 0 0 0 0 0 0 0 0 0 0 0 127 0" result="hardAlpha"/>
<feOffset/>
<feGaussianBlur stdDeviation="9.68854"/>
<feComposite in2="hardAlpha" operator="out"/>
<feColorMatrix type="matrix" values="0 0 0 0 1 0 0 0 0 1 0 0 0 0 1 0 0 0 1 0"/>
<feBlend mode="normal" in2="BackgroundImageFix" result="effect1_dropShadow_1185_61431"/>
<feBlend mode="normal" in="SourceGraphic" in2="effect1_dropShadow_1185_61431" result="shape"/>
</filter>
<filter id="filter3_d_1185_61431" x="132.257" y="29.2631" width="150.47" height="162.474" filterUnits="userSpaceOnUse" color-interpolation-filters="sRGB">
<feFlood flood-opacity="0" result="BackgroundImageFix"/>
<feColorMatrix in="SourceAlpha" type="matrix" values="0 0 0 0 0 0 0 0 0 0 0 0 0 0 0 0 0 0 127 0" result="hardAlpha"/>
<feOffset/>
<feGaussianBlur stdDeviation="9.36846"/>
<feComposite in2="hardAlpha" operator="out"/>
<feColorMatrix type="matrix" values="0 0 0 0 1 0 0 0 0 1 0 0 0 0 1 0 0 0 1 0"/>
<feBlend mode="normal" in2="BackgroundImageFix" result="effect1_dropShadow_1185_61431"/>
<feBlend mode="normal" in="SourceGraphic" in2="effect1_dropShadow_1185_61431" result="shape"/>
</filter>
<linearGradient id="paint0_linear_1185_61431" x1="171.726" y1="94.4557" x2="245.054" y2="130.693" gradientUnits="userSpaceOnUse">
<stop stop-color="#00DC82"/>
<stop offset="1" stop-color="#003F25"/>
</linearGradient>
<linearGradient id="paint1_linear_1185_61431" x1="192.384" y1="101.892" x2="222.541" y2="118.115" gradientUnits="userSpaceOnUse">
<stop stop-color="#00DC82"/>
<stop offset="1" stop-color="#003F25"/>
</linearGradient>
</defs>
</svg>
