<svg width="44" height="44" viewBox="0 0 44 44" fill="none" xmlns="http://www.w3.org/2000/svg">
<path d="M15.5243 15.39L15.5202 15.3933L15.5163 15.3971L15.5243 15.39ZM33.7735 15.048C33.646 14.925 33.5044 14.8175 33.3518 14.7275C33.1358 14.6004 32.8961 14.5189 32.6473 14.4881C32.3986 14.4574 32.1462 14.4779 31.9058 14.5486C31.6653 14.6192 31.4419 14.7384 31.2493 14.8989C31.0568 15.0593 30.8992 15.2575 30.7863 15.4813C30.1547 16.7255 29.2837 17.8328 28.2233 18.7397C28.3854 17.826 28.4672 16.8998 28.4676 15.9718C28.471 13.1486 27.7263 10.375 26.3092 7.9333C24.8921 5.49158 22.8532 3.46899 20.4003 2.07146C20.13 1.91828 19.8253 1.83626 19.5147 1.8331C19.2041 1.82994 18.8978 1.90574 18.6245 2.05339C18.3513 2.20104 18.12 2.41569 17.9524 2.67722C17.7848 2.93874 17.6864 3.23855 17.6664 3.54852C17.5638 5.28684 17.1093 6.98624 16.3306 8.54375C15.5518 10.1013 14.465 11.4844 13.1359 12.6095L12.7134 12.9533C11.3235 13.8884 10.0933 15.0413 9.06998 16.3675C7.47922 18.3715 6.37726 20.7186 5.85148 23.2226C5.3257 25.7267 5.39057 28.3188 6.04094 30.7934C6.6913 33.268 7.90928 35.557 9.59828 37.479C11.2873 39.4009 13.4009 40.9029 15.7714 41.8659C16.0497 41.9796 16.3518 42.0231 16.6509 41.9925C16.95 41.9619 17.237 41.8582 17.4865 41.6905C17.7361 41.5227 17.9405 41.2962 18.0818 41.0308C18.2231 40.7654 18.2969 40.4693 18.2967 40.1686C18.2954 39.9741 18.2646 39.781 18.2054 39.5957C17.7953 38.0539 17.6771 36.449 17.8572 34.8637C19.592 38.1357 22.3766 40.7293 25.7634 42.2275C26.1768 42.4125 26.6442 42.4373 27.0749 42.2973C29.7508 41.4337 32.1613 39.9001 34.0776 37.8424C35.9938 35.7847 37.3521 33.2712 38.0233 30.5407C38.6946 27.8102 38.6564 24.9535 37.9126 22.2418C37.1688 19.5302 35.744 17.0538 33.7735 15.048ZM26.6147 38.5716C25.0166 37.7617 23.6069 36.6245 22.4772 35.234C21.3474 33.8434 20.523 32.2307 20.0575 30.5006C19.9153 29.9181 19.8054 29.3282 19.7281 28.7335C19.6757 28.3549 19.5063 28.002 19.2436 27.7244C18.9808 27.4467 18.6379 27.2581 18.2627 27.1849C18.1471 27.1621 18.0295 27.1507 17.9117 27.1509C17.5895 27.1507 17.2729 27.2356 16.994 27.3969C16.715 27.5581 16.4835 27.7901 16.3228 28.0694C14.8016 30.6931 14.0366 33.6868 14.1126 36.7186C12.7747 35.6784 11.6565 34.383 10.823 32.9074C9.9894 31.4319 9.45698 29.8056 9.25656 28.1228C9.05614 26.44 9.1917 24.7342 9.6554 23.1041C10.1191 21.4741 10.9017 19.9523 11.9579 18.627C12.7598 17.5853 13.7272 16.6823 14.8215 15.954C14.8689 15.9234 14.9144 15.8899 14.9576 15.8537C14.9576 15.8537 15.5015 15.4037 15.5201 15.3934C18.1321 13.1841 19.9898 10.2151 20.8345 6.9001C22.832 8.74669 24.164 11.2012 24.6235 13.8824C25.0831 16.5636 24.6445 19.3215 23.3759 21.7279C23.2083 22.049 23.1395 22.4126 23.1783 22.7727C23.2171 23.1328 23.3616 23.4734 23.5937 23.7515C23.8259 24.0296 24.1351 24.2327 24.4825 24.3352C24.8299 24.4377 25.1999 24.4351 25.5458 24.3276C28.3541 23.4473 30.8253 21.7277 32.6267 19.4005C33.7094 20.9997 34.4172 22.8226 34.6975 24.7334C34.9777 26.6442 34.8231 28.5936 34.2452 30.4363C33.6674 32.2791 32.6811 33.9676 31.3599 35.3762C30.0387 36.7848 28.4167 37.8771 26.6147 38.5716L26.6147 38.5716Z" fill="#0C0C0D"/>
</svg>
