<svg width="44" height="44" viewBox="0 0 44 44" fill="none" xmlns="http://www.w3.org/2000/svg">
<path d="M31.9919 22.8433C34.1324 20.2078 35.1413 16.8315 34.7977 13.4538C34.454 10.076 32.7859 6.97207 30.1586 4.82163C28.6533 3.61527 26.8984 2.75906 25.0212 2.31512C23.1439 1.87118 21.1914 1.85063 19.3052 2.25496C17.1875 2.72337 15.223 3.72089 13.5952 5.15434C11.9675 6.5878 10.7296 8.41042 9.9972 10.452C9.2648 12.4935 9.06178 14.6874 9.40711 16.8287C9.75244 18.97 10.6348 20.9888 11.9719 22.6966C13.1905 24.1792 13.8864 26.022 13.9519 27.94V28.4716C13.2543 29.1456 12.8522 30.0685 12.8336 31.0383V34.705C12.8336 35.6774 13.2199 36.6101 13.9075 37.2977C14.5951 37.9853 15.5278 38.3716 16.5002 38.3716V40.205C16.5002 40.6912 16.6934 41.1575 17.0372 41.5013C17.381 41.8451 17.8473 42.0383 18.3336 42.0383C18.8198 42.0383 19.2861 41.8451 19.6299 41.5013C19.9738 41.1575 20.1669 40.6912 20.1669 40.205V38.3716H23.8336V40.205C23.8336 40.6912 24.0267 41.1575 24.3705 41.5013C24.7144 41.8451 25.1807 42.0383 25.6669 42.0383C26.1531 42.0383 26.6195 41.8451 26.9633 41.5013C27.3071 41.1575 27.5002 40.6912 27.5002 40.205V38.3716C28.4727 38.3716 29.4053 37.9853 30.093 37.2977C30.7806 36.6101 31.1669 35.6774 31.1669 34.705V31.0383C31.1677 30.079 30.7926 29.1575 30.1219 28.4716V27.6833C30.1754 25.904 30.8352 24.1964 31.9919 22.8433ZM16.5002 34.705V31.0383H27.5002V34.705H16.5002ZM29.1319 20.5516C27.509 22.4658 26.5675 24.8646 26.4552 27.3716H17.5269C17.354 24.8317 16.3926 22.409 14.7769 20.4416C13.8064 19.2236 13.1621 17.7784 12.905 16.2424C12.6479 14.7063 12.7864 13.1301 13.3075 11.6625C13.8285 10.1948 14.7148 8.88407 15.8829 7.85397C17.051 6.82387 18.4623 6.10836 19.9836 5.77496C21.3314 5.47093 22.7306 5.47554 24.0764 5.78844C25.4222 6.10134 26.6799 6.71443 27.7554 7.58188C28.8309 8.44933 29.6964 9.54869 30.2872 10.7978C30.8779 12.0468 31.1787 13.4133 31.1669 14.795C31.1784 16.8921 30.4588 18.9277 29.1319 20.5516Z" fill="#0C0C0D"/>
</svg>
