<svg width="44" height="44" viewBox="0 0 44 44" fill="none" xmlns="http://www.w3.org/2000/svg">
<path d="M22.5502 22.4033C23.5284 21.5566 24.313 20.5093 24.8508 19.3325C25.3885 18.1558 25.6668 16.8771 25.6668 15.5833C25.6668 13.1522 24.7011 10.8206 22.982 9.10151C21.2629 7.38243 18.9313 6.41666 16.5002 6.41666C14.069 6.41666 11.7374 7.38243 10.0184 9.10151C8.29927 10.8206 7.3335 13.1522 7.3335 15.5833C7.33348 16.8771 7.6118 18.1558 8.14956 19.3325C8.68732 20.5093 9.47194 21.5566 10.4502 22.4033C7.88375 23.5654 5.70635 25.4421 4.17829 27.809C2.65024 30.1758 1.83619 32.9327 1.8335 35.75C1.8335 36.2362 2.02665 36.7025 2.37047 37.0464C2.71428 37.3902 3.1806 37.5833 3.66683 37.5833C4.15306 37.5833 4.61938 37.3902 4.96319 37.0464C5.30701 36.7025 5.50016 36.2362 5.50016 35.75C5.50016 32.8326 6.65909 30.0347 8.72199 27.9718C10.7849 25.9089 13.5828 24.75 16.5002 24.75C19.4175 24.75 22.2154 25.9089 24.2783 27.9718C26.3412 30.0347 27.5002 32.8326 27.5002 35.75C27.5002 36.2362 27.6933 36.7025 28.0371 37.0464C28.381 37.3902 28.8473 37.5833 29.3335 37.5833C29.8197 37.5833 30.286 37.3902 30.6299 37.0464C30.9737 36.7025 31.1668 36.2362 31.1668 35.75C31.1641 32.9327 30.3501 30.1758 28.822 27.809C27.294 25.4421 25.1166 23.5654 22.5502 22.4033ZM16.5002 21.0833C15.4124 21.0833 14.349 20.7608 13.4445 20.1564C12.5401 19.5521 11.8351 18.6931 11.4188 17.6881C11.0025 16.6831 10.8936 15.5772 11.1058 14.5103C11.3181 13.4434 11.8419 12.4634 12.6111 11.6942C13.3803 10.925 14.3603 10.4012 15.4272 10.189C16.4941 9.97679 17.5999 10.0857 18.6049 10.502C19.6099 10.9183 20.4689 11.6232 21.0732 12.5277C21.6776 13.4322 22.0002 14.4955 22.0002 15.5833C22.0002 17.042 21.4207 18.441 20.3893 19.4724C19.3578 20.5039 17.9589 21.0833 16.5002 21.0833ZM34.3568 21.67C35.5301 20.3488 36.2965 18.7166 36.5638 16.9699C36.8311 15.2233 36.5879 13.4366 35.8634 11.825C35.1389 10.2134 33.9641 8.84545 32.4804 7.88593C30.9966 6.92641 29.2671 6.41618 27.5002 6.41666C27.0139 6.41666 26.5476 6.60981 26.2038 6.95363C25.86 7.29744 25.6668 7.76376 25.6668 8.24999C25.6668 8.73622 25.86 9.20254 26.2038 9.54635C26.5476 9.89017 27.0139 10.0833 27.5002 10.0833C28.9589 10.0833 30.3578 10.6628 31.3893 11.6942C32.4207 12.7257 33.0002 14.1246 33.0002 15.5833C32.9976 16.5463 32.7422 17.4916 32.2596 18.3249C31.777 19.1582 31.0841 19.8502 30.2502 20.3317C29.9783 20.4884 29.7513 20.7124 29.5908 20.982C29.4303 21.2517 29.3417 21.558 29.3335 21.8717C29.3258 22.1829 29.3975 22.4909 29.5419 22.7668C29.6862 23.0426 29.8984 23.2772 30.1585 23.4483L30.8735 23.925L31.1118 24.0533C33.3217 25.1015 35.1861 26.7593 36.4853 28.8316C37.7845 30.9038 38.4645 33.3042 38.4452 35.75C38.4452 36.2362 38.6383 36.7025 38.9821 37.0464C39.326 37.3902 39.7923 37.5833 40.2785 37.5833C40.7647 37.5833 41.231 37.3902 41.5749 37.0464C41.9187 36.7025 42.1118 36.2362 42.1118 35.75C42.1268 32.9366 41.4222 30.1661 40.0649 27.7018C38.7075 25.2374 36.7426 23.1611 34.3568 21.67Z" fill="#0C0C0D"/>
</svg>
