<svg width="104" height="114" viewBox="0 0 104 114" fill="none" xmlns="http://www.w3.org/2000/svg">
<g filter="url(#filter0_b_6576_59913)">
<path d="M45.0794 111.596L5.79912 87.9262C2.20033 85.7576 9.19726e-06 81.8627 9.02103e-06 77.6611L9.01158e-06 77.4359L-3.27371e-06 36.9473L-3.28302e-06 36.7253C-3.45822e-06 32.5482 2.1738 28.6722 5.73801 26.494L45.0198 2.48852C48.5576 0.326498 52.9251 0.27844 56.5058 2.36213L98.0501 26.5382C101.734 28.6819 104 32.6226 104 36.8847L104 37.1177L104 77.266L104 77.5022C104 81.7884 101.707 85.7472 97.9898 87.8805L56.444 111.72C52.8952 113.757 48.5867 113.71 45.0794 111.596Z" fill="url(#paint0_linear_6576_59913)" fill-opacity="0.3"/>
</g>
<defs>
<filter id="filter0_b_6576_59913" x="-15.0267" y="-14.1942" width="134.053" height="142.436" filterUnits="userSpaceOnUse" color-interpolation-filters="sRGB">
<feFlood flood-opacity="0" result="BackgroundImageFix"/>
<feGaussianBlur in="BackgroundImage" stdDeviation="7.51337"/>
<feComposite in2="SourceAlpha" operator="in" result="effect1_backgroundBlur_6576_59913"/>
<feBlend mode="normal" in="SourceGraphic" in2="effect1_backgroundBlur_6576_59913" result="shape"/>
</filter>
<linearGradient id="paint0_linear_6576_59913" x1="51.9388" y1="115" x2="-14.392" y2="-25.9445" gradientUnits="userSpaceOnUse">
<stop stop-color="#00DC82"/>
<stop offset="0.5" stop-color="#36E4DA"/>
<stop offset="1" stop-color="#0047E1"/>
</linearGradient>
</defs>
</svg>
