<svg width="441" height="388" viewBox="0 0 441 388" fill="none" xmlns="http://www.w3.org/2000/svg">
<path d="M328.122 387.72H545.268C552.165 387.721 558.941 385.931 564.914 382.53C570.887 379.129 575.846 374.238 579.293 368.347C582.74 362.457 584.554 355.775 584.551 348.974C584.548 342.173 582.728 335.493 579.276 329.605L433.447 80.5373C430 74.6482 425.042 69.7577 419.07 66.3574C413.099 62.9572 406.324 61.1671 399.429 61.1671C392.533 61.1671 385.759 62.9572 379.787 66.3574C373.816 69.7577 368.857 74.6482 365.41 80.5373L328.122 144.265L255.218 19.6475C251.769 13.7588 246.808 8.86898 240.835 5.46936C234.862 2.06974 228.086 0.280029 221.19 0.280029C214.293 0.280029 207.517 2.06974 201.544 5.46936C195.571 8.86898 190.61 13.7588 187.161 19.6475L5.69429 329.605C2.24204 335.493 0.422926 342.173 0.419926 348.974C0.416925 355.775 2.23014 362.457 5.6772 368.347C9.12425 374.238 14.0836 379.129 20.0564 382.53C26.0293 385.931 32.805 387.721 39.702 387.72H176.008C230.014 387.72 269.842 364.328 297.247 318.692L363.781 205.071L399.418 144.265L506.372 326.914H363.781L328.122 387.72ZM173.786 326.851L78.6618 326.83L221.253 83.3126L292.401 205.071L244.764 286.453C226.565 316.063 205.889 326.851 173.786 326.851Z" fill="#18181B"/>
</svg>
