<svg width="50" height="42" viewBox="0 0 50 42" fill="none" xmlns="http://www.w3.org/2000/svg">
<path opacity="0.5" d="M14.3564 0C5.94059 6.19672 0 16.3525 0 27.541C0 36.6639 5.28053 42 11.3861 42C17.1617 42 21.4521 37.1803 21.4521 31.5C21.4521 25.8197 17.6568 21.6885 12.7063 21.6885C11.7162 21.6885 10.396 21.8607 10.066 22.0328C10.8911 16.1803 16.1716 9.29508 21.4521 5.85246L14.3564 0ZM42.7393 0C34.4884 6.19672 28.5479 16.3525 28.5479 27.541C28.5479 36.6639 33.8284 42 39.934 42C45.5446 42 50 37.1803 50 31.5C50 25.8197 46.0396 21.6885 41.0891 21.6885C40.099 21.6885 38.9439 21.8607 38.6139 22.0328C39.4389 16.1803 44.5545 9.29508 49.835 5.85246L42.7393 0Z" fill="#D4D4D8"/>
</svg>
