<svg width="64" height="58" viewBox="0 0 64 58" fill="none" xmlns="http://www.w3.org/2000/svg">
<g filter="url(#filter0_b_3912_46876)">
<path d="M0.847883 25.1404L13.2446 3.23412C14.377 1.23301 16.4716 0 18.7386 0H45.0856C45.088 0 45.0905 1.47031e-06 45.093 4.41033e-06C46.7802 0.00200853 48.3719 0.686942 49.5418 1.86393C49.9324 2.25684 50.2759 2.70457 50.5602 3.20005L63.1327 25.1072C64.265 27.0802 64.2902 29.5159 63.1989 31.5128L50.5371 54.6818C50.2041 55.2912 49.7825 55.8316 49.2939 56.2903C48.5507 56.9879 47.6525 57.4962 46.6753 57.7696C46.1355 57.9206 45.5715 58 44.9963 58H18.8276C18.2214 58 17.6278 57.9119 17.0617 57.7446C16.007 57.4329 15.048 56.8466 14.2816 56.044C13.889 55.6328 13.547 55.1649 13.2685 54.6481L0.782857 31.4784C0.442441 30.8467 0.213192 30.1718 0.0948216 29.482C-0.0649455 28.5511 -0.022722 27.5931 0.220778 26.6776C0.36208 26.1464 0.571162 25.6294 0.847883 25.1404Z" fill="#FAFAFA"/>
<path d="M1.17643 25.3264L13.5731 3.42004C14.6397 1.53523 16.61 0.377504 18.7386 0.377504H45.0856L45.0925 0.377508C46.6769 0.37939 48.1732 1.02251 49.2741 2.13006C49.6415 2.49974 49.965 2.92121 50.2328 3.38795L62.8053 25.2951C63.8722 27.1541 63.896 29.4501 62.8676 31.3318L50.2059 54.5007C49.8921 55.0748 49.4952 55.5836 49.0355 56.015C48.3362 56.6714 47.4916 57.1492 46.5736 57.406C46.0665 57.5479 45.5367 57.6225 44.9963 57.6225H18.8276C18.2581 57.6225 17.7004 57.5397 17.1687 57.3826C16.1777 57.0898 15.2758 56.5386 14.5546 55.7833C14.1852 55.3964 13.8632 54.9559 13.6008 54.4691L1.11518 31.2993C0.794487 30.7042 0.578454 30.0683 0.466886 29.4182C0.316276 28.5406 0.356101 27.6375 0.585597 26.7746C0.718754 26.274 0.915748 25.787 1.17643 25.3264Z" stroke="#E4E4E7" stroke-width="0.755007"/>
</g>
<defs>
<filter id="filter0_b_3912_46876" x="-31.7103" y="-31.7103" width="127.421" height="121.421" filterUnits="userSpaceOnUse" color-interpolation-filters="sRGB">
<feFlood flood-opacity="0" result="BackgroundImageFix"/>
<feGaussianBlur in="BackgroundImage" stdDeviation="15.8552"/>
<feComposite in2="SourceAlpha" operator="in" result="effect1_backgroundBlur_3912_46876"/>
<feBlend mode="normal" in="SourceGraphic" in2="effect1_backgroundBlur_3912_46876" result="shape"/>
</filter>
</defs>
</svg>
