<svg xmlns="http://www.w3.org/2000/svg" width="766" height="416" fill="none" viewBox="0 0 766 416"><g clip-path="url(#a)"><rect width="766" height="416" fill="url(#b)" rx="8"/><rect width="730" height="304" x="18" y="56" fill="url(#c)" fill-opacity=".12" rx="8"/><rect width="729" height="303" x="18.5" y="56.5" stroke="url(#d)" stroke-opacity=".3" rx="7.5"/><rect width="90" height="20" x="16" y="16" fill="#00DC82" fill-opacity=".1" rx="4"/><path fill="#00DC82" d="M25.624 30.144c-.616 0-1.156-.108-1.62-.324-.464-.216-.828-.524-1.092-.924-.256-.4-.388-.876-.396-1.428h1.344c.008.448.164.828.468 1.14.304.312.732.468 1.284.468.488 0 .868-.116 1.14-.348.28-.24.42-.544.42-.912 0-.296-.068-.536-.204-.72-.128-.184-.308-.336-.54-.456-.224-.12-.484-.228-.78-.324-.296-.096-.608-.2-.936-.312-.648-.216-1.136-.496-1.464-.84-.32-.344-.48-.796-.48-1.356-.008-.472.1-.884.324-1.236.232-.352.552-.624.96-.816.416-.2.9-.3 1.452-.3.544 0 1.02.1 1.428.3.416.2.74.48.972.84.232.352.352.764.36 1.236H26.92c0-.216-.056-.42-.168-.612-.112-.2-.276-.364-.492-.492-.216-.128-.48-.192-.792-.192-.4-.008-.732.092-.996.3-.256.208-.384.496-.384.864 0 .328.096.58.288.756.192.176.456.324.792.444.336.112.72.244 1.152.396.416.136.788.3 1.116.492.328.192.588.444.78.756.2.312.3.708.3 1.188 0 .424-.108.82-.324 1.188-.216.36-.54.656-.972.888-.432.224-.964.336-1.596.336Zm7.0187 0c-.584 0-1.104-.128-1.56-.384-.448-.264-.8-.628-1.056-1.092-.256-.464-.384-1.004-.384-1.62 0-.624.124-1.172.372-1.644.256-.472.608-.84 1.056-1.104.456-.264.984-.396 1.584-.396.584 0 1.092.132 1.524.396.432.256.768.6 1.008 1.032.24.432.36.908.36 1.428 0 .08-.004.168-.012.264 0 .088-.004.188-.012.3h-4.632c.04.576.228 1.016.564 1.32.344.296.74.444 1.188.444.36 0 .66-.08.9-.24.248-.168.432-.392.552-.672h1.272c-.16.56-.48 1.028-.96 1.404-.472.376-1.06.564-1.764.564Zm0-5.196c-.424 0-.8.128-1.128.384-.328.248-.528.624-.6 1.128h3.36c-.024-.464-.188-.832-.492-1.104-.304-.272-.684-.408-1.14-.408ZM36.8665 30v-5.952h1.14l.108 1.128c.208-.392.496-.7.864-.924.376-.232.828-.348 1.356-.348v1.332h-.348c-.352 0-.668.06-.948.18-.272.112-.492.308-.66.588-.16.272-.24.652-.24 1.14V30h-1.272Zm6.2266 0-2.232-5.952h1.332l1.656 4.74 1.656-4.74h1.32L44.6051 30h-1.512Zm7.2566.144c-.584 0-1.104-.128-1.56-.384-.448-.264-.8-.628-1.056-1.092-.256-.464-.384-1.004-.384-1.62 0-.624.124-1.172.372-1.644.256-.472.608-.84 1.056-1.104.456-.264.984-.396 1.584-.396.584 0 1.092.132 1.524.396.432.256.768.6 1.008 1.032.24.432.36.908.36 1.428 0 .08-.004.168-.012.264 0 .088-.004.188-.012.3h-4.632c.04.576.228 1.016.564 1.32.344.296.74.444 1.188.444.36 0 .66-.08.9-.24.248-.168.432-.392.552-.672h1.272c-.16.56-.48 1.028-.96 1.404-.472.376-1.06.564-1.764.564Zm0-5.196c-.424 0-.8.128-1.128.384-.328.248-.528.624-.6 1.128h3.36c-.024-.464-.188-.832-.492-1.104-.304-.272-.684-.408-1.14-.408ZM54.5735 30v-5.952h1.14l.108 1.128c.208-.392.496-.7.864-.924.376-.232.828-.348 1.356-.348v1.332h-.348c-.352 0-.668.06-.948.18-.272.112-.492.308-.66.588-.16.272-.24.652-.24 1.14V30h-1.272Zm7.6301 0v-8.4h5.34v1.032h-4.068v2.616h3.708v1.008h-3.708v2.712h4.068V30h-5.34Zm6.8074 0v-5.952h1.128l.096 1.044c.184-.368.452-.656.804-.864.36-.216.772-.324 1.236-.324.72 0 1.284.224 1.692.672.416.448.624 1.116.624 2.004V30h-1.26v-3.288c0-1.152-.472-1.728-1.416-1.728-.472 0-.864.168-1.176.504-.304.336-.456.816-.456 1.44V30h-1.272Zm9.5142-1.824c-.312 0-.6-.036-.864-.108l-.516.504c.088.056.196.104.324.144.128.04.308.076.54.108.232.032.548.064.948.096.792.072 1.364.264 1.716.576.352.304.528.712.528 1.224 0 .352-.096.684-.288.996-.184.32-.476.576-.876.768-.392.2-.896.3-1.512.3-.832 0-1.508-.16-2.028-.48-.512-.312-.768-.788-.768-1.428 0-.248.064-.496.192-.744.136-.24.348-.468.636-.684-.168-.072-.316-.148-.444-.228-.12-.088-.228-.176-.324-.264v-.288l1.032-1.056c-.464-.4-.696-.924-.696-1.572 0-.392.092-.748.276-1.068.192-.328.468-.588.828-.78.36-.192.792-.288 1.296-.288.336 0 .648.048.936.144h2.22v.84l-1.056.06c.192.328.288.692.288 1.092 0 .4-.096.76-.288 1.08-.184.32-.456.576-.816.768-.352.192-.78.288-1.284.288Zm0-.996c.368 0 .664-.096.888-.288.232-.2.348-.48.348-.84 0-.368-.116-.648-.348-.84-.224-.192-.52-.288-.888-.288-.376 0-.68.096-.912.288-.224.192-.336.472-.336.84 0 .36.112.64.336.84.232.192.536.288.912.288Zm-1.596 3.576c0 .344.152.6.456.768.304.176.684.264 1.14.264.44 0 .796-.096 1.068-.288.272-.184.408-.432.408-.744 0-.232-.092-.432-.276-.6-.184-.16-.532-.26-1.044-.3-.384-.024-.724-.06-1.02-.108-.28.152-.472.316-.576.492-.104.176-.156.348-.156.516Zm6.6065-7.836c-.24 0-.44-.072-.6-.216-.152-.152-.228-.34-.228-.564 0-.224.076-.408.228-.552.16-.152.36-.228.6-.228s.436.076.588.228c.16.144.24.328.24.552 0 .224-.08.412-.24.564-.152.144-.348.216-.588.216Zm-.636 7.08v-5.952h1.272V30h-1.272Zm2.9512 0v-5.952h1.128l.096 1.044c.184-.368.452-.656.804-.864.36-.216.772-.324 1.236-.324.72 0 1.284.224 1.692.672.416.448.624 1.116.624 2.004V30h-1.26v-3.288c0-1.152-.472-1.728-1.416-1.728-.472 0-.864.168-1.176.504-.304.336-.456.816-.456 1.44V30h-1.272Zm9.8621.144c-.584 0-1.104-.128-1.56-.384-.448-.264-.8-.628-1.056-1.092-.256-.464-.384-1.004-.384-1.62 0-.624.124-1.172.372-1.644.256-.472.608-.84 1.056-1.104.456-.264.984-.396 1.584-.396.584 0 1.092.132 1.524.396.432.256.768.6 1.008 1.032.24.432.36.908.36 1.428 0 .08-.004.168-.012.264 0 .088-.004.188-.012.3h-4.632c.04.576.228 1.016.564 1.32.344.296.74.444 1.188.444.36 0 .66-.08.9-.24.248-.168.432-.392.552-.672h1.272c-.16.56-.48 1.028-.96 1.404-.472.376-1.06.564-1.764.564Zm0-5.196c-.424 0-.8.128-1.128.384-.328.248-.528.624-.6 1.128h3.36c-.024-.464-.188-.832-.492-1.104-.304-.272-.684-.408-1.14-.408Z"/><rect width="89" height="19" x="16.5" y="16.5" stroke="#00DC82" stroke-opacity=".25" rx="3.5"/><rect width="39" height="20" x="28" y="66" fill="#00DC82" fill-opacity=".1" rx="4"/><path fill="#00DC82" d="M34.852 80v-8.4h1.272l4.212 6.324V71.6h1.272V80h-1.272l-4.212-6.324V80h-1.272Zm10.6089.144c-.72 0-1.288-.224-1.704-.672-.408-.448-.612-1.116-.612-2.004v-3.42h1.272v3.288c0 1.152.472 1.728 1.416 1.728.472 0 .86-.168 1.164-.504.304-.336.456-.816.456-1.44v-3.072h1.272V80h-1.128l-.096-1.044c-.184.368-.456.66-.816.876-.352.208-.76.312-1.224.312ZM49.7671 80l2.112-2.976-2.112-2.976h1.356l1.596 2.28 1.584-2.28h1.368l-2.112 2.976L55.6711 80h-1.368l-1.584-2.28-1.596 2.28h-1.356Zm9.4352 0c-.584 0-1.048-.14-1.392-.42-.344-.288-.516-.796-.516-1.524v-2.94h-1.02v-1.068h1.02l.156-1.512h1.116v1.512h1.68v1.068h-1.68v2.94c0 .328.068.556.204.684.144.12.388.18.732.18h.684V80h-.984Z"/><rect width="38" height="19" x="28.5" y="66.5" stroke="#00DC82" stroke-opacity=".25" rx="3.5"/><g filter="url(#e)"><path fill="#00DC82" d="M210 5v37H-6V5z"/></g><rect width="632" height="200" x="67" y="105" fill="url(#f)" fill-opacity=".12" rx="4"/><rect width="631" height="199" x="67.5" y="105.5" stroke="url(#g)" stroke-opacity=".3" rx="3.5"/><rect width="534" height="97" x="116" y="154" fill="url(#h)" fill-opacity=".12" rx="4"/><rect width="533" height="96" x="116.5" y="154.5" stroke="url(#i)" stroke-opacity=".3" rx="3.5"/><rect width="40" height="20" x="77" y="115" fill="#00DC82" fill-opacity=".1" rx="4"/><path fill="#00DC82" d="M83.852 129v-8.4h1.272l4.212 6.324V120.6h1.272v8.4h-1.272l-4.212-6.324V129h-1.272Zm9.1329-7.08c-.24 0-.44-.072-.6-.216-.152-.152-.228-.34-.228-.564 0-.224.076-.408.228-.552.16-.152.36-.228.6-.228s.436.076.588.228c.16.144.24.328.24.552 0 .224-.08.412-.24.564-.152.144-.348.216-.588.216Zm-.636 7.08v-5.952h1.272V129h-1.272Zm5.4472 0c-.584 0-1.048-.14-1.392-.42-.344-.288-.516-.796-.516-1.524v-2.94h-1.02v-1.068h1.02l.156-1.512h1.116v1.512h1.68v1.068h-1.68v2.94c0 .328.068.556.204.684.144.12.388.18.732.18h.684V129h-.984Zm2.3559 0v-5.952h1.14l.108 1.128c.208-.392.496-.7.864-.924.376-.232.828-.348 1.356-.348v1.332h-.348c-.352 0-.668.06-.948.18-.272.112-.492.308-.66.588-.16.272-.24.652-.24 1.14V129h-1.272Zm7.178.144c-.568 0-1.08-.128-1.536-.384-.448-.264-.804-.628-1.068-1.092-.264-.472-.396-1.02-.396-1.644 0-.624.132-1.168.396-1.632.272-.472.636-.836 1.092-1.092.456-.264.964-.396 1.524-.396.568 0 1.076.132 1.524.396.456.256.816.62 1.08 1.092.272.464.408 1.008.408 1.632 0 .624-.136 1.172-.408 1.644-.264.464-.624.828-1.08 1.092-.456.256-.968.384-1.536.384Zm0-1.092c.304 0 .584-.076.84-.228.264-.152.476-.376.636-.672.16-.304.24-.68.24-1.128 0-.448-.08-.82-.24-1.116-.152-.304-.36-.532-.624-.684-.256-.152-.536-.228-.84-.228-.304 0-.588.076-.852.228-.256.152-.464.38-.624.684-.16.296-.24.668-.24 1.116 0 .448.08.824.24 1.128.16.296.368.52.624.672.256.152.536.228.84.228Z"/><rect width="39" height="19" x="77.5" y="115.5" stroke="#00DC82" stroke-opacity=".25" rx="3.5"/><rect width="27" height="20" x="126" y="164" fill="#00DC82" fill-opacity=".1" rx="4"/><path fill="#00DC82" d="M132.804 178v-8.64h1.272v3.648c.2-.344.476-.612.828-.804.36-.2.756-.3 1.188-.3.712 0 1.272.224 1.68.672.408.448.612 1.116.612 2.004V178h-1.26v-3.288c0-1.152-.46-1.728-1.38-1.728-.48 0-.88.168-1.2.504-.312.336-.468.816-.468 1.44V178h-1.272Zm9.814.144c-.544 0-1.04-.096-1.488-.288-.44-.2-.792-.5-1.056-.9s-.404-.9-.42-1.5h1.26c.016.448.168.828.456 1.14.296.304.712.456 1.248.456.512 0 .904-.14 1.176-.42.272-.288.408-.644.408-1.068 0-.512-.184-.892-.552-1.14-.36-.248-.804-.372-1.332-.372h-.624v-1.056h.636c.472 0 .852-.112 1.14-.336.296-.224.444-.54.444-.948 0-.344-.116-.624-.348-.84-.224-.216-.544-.324-.96-.324-.432 0-.772.128-1.02.384-.248.248-.384.56-.408.936h-1.26c.016-.488.136-.912.36-1.272.232-.36.548-.64.948-.84.4-.2.86-.3 1.38-.3.56 0 1.028.1 1.404.3.384.192.672.456.864.792.2.328.3.688.3 1.08 0 .448-.124.84-.372 1.176-.248.336-.58.56-.996.672.48.104.876.34 1.188.708.312.36.468.828.468 1.404 0 .464-.108.892-.324 1.284-.216.384-.536.692-.96.924-.424.232-.944.348-1.56.348Z"/><rect width="26" height="19" x="126.5" y="164.5" stroke="#00DC82" stroke-opacity=".25" rx="3.5"/></g><rect width="765" height="415" x=".5" y=".5" stroke="#1E293B" rx="7.5"/><defs><linearGradient id="b" x1="13.5" x2="661.853" y1=".00000688" y2="514.679" gradientUnits="userSpaceOnUse"><stop stop-color="#0F172A"/><stop offset="1" stop-color="#020420"/></linearGradient><linearGradient id="c" x1="383" x2="383" y1="56" y2="360" gradientUnits="userSpaceOnUse"><stop stop-color="#F1F5F9"/><stop offset="1" stop-color="#F1F5F9" stop-opacity="0"/></linearGradient><linearGradient id="d" x1="383" x2="383" y1="56" y2="360" gradientUnits="userSpaceOnUse"><stop stop-color="#F1F5F9"/><stop offset="1" stop-color="#F1F5F9" stop-opacity="0"/></linearGradient><linearGradient id="f" x1="383" x2="383" y1="105" y2="305" gradientUnits="userSpaceOnUse"><stop stop-color="#F1F5F9"/><stop offset="1" stop-color="#F1F5F9" stop-opacity="0"/></linearGradient><linearGradient id="g" x1="383" x2="383" y1="105" y2="305" gradientUnits="userSpaceOnUse"><stop stop-color="#F1F5F9"/><stop offset="1" stop-color="#F1F5F9" stop-opacity="0"/></linearGradient><linearGradient id="h" x1="383" x2="383" y1="154" y2="251" gradientUnits="userSpaceOnUse"><stop stop-color="#F1F5F9"/><stop offset="1" stop-color="#F1F5F9" stop-opacity="0"/></linearGradient><linearGradient id="i" x1="383" x2="383" y1="154" y2="251" gradientUnits="userSpaceOnUse"><stop stop-color="#F1F5F9"/><stop offset="1" stop-color="#F1F5F9" stop-opacity="0"/></linearGradient><clipPath id="a"><rect width="766" height="416" fill="#fff" rx="8"/></clipPath><filter id="e" width="968" height="789" x="-382" y="-371" color-interpolation-filters="sRGB" filterUnits="userSpaceOnUse"><feFlood flood-opacity="0" result="BackgroundImageFix"/><feBlend in="SourceGraphic" in2="BackgroundImageFix" result="shape"/><feGaussianBlur result="effect1_foregroundBlur_266_1188" stdDeviation="188"/></filter></defs></svg>
