<svg width="60" height="58" viewBox="0 0 60 58" fill="none" xmlns="http://www.w3.org/2000/svg">
<path d="M51 9.49994H32.16L31.2 6.49995C30.5777 4.73964 29.4232 3.21645 27.8967 2.14143C26.3702 1.0664 24.5471 0.492747 22.68 0.499945H9C6.61305 0.499945 4.32387 1.44816 2.63604 3.13598C0.948212 4.82381 0 7.113 0 9.49994V48.4999C0 50.8869 0.948212 53.1761 2.63604 54.8639C4.32387 56.5517 6.61305 57.4999 9 57.4999H51C53.3869 57.4999 55.6761 56.5517 57.364 54.8639C59.0518 53.1761 60 50.8869 60 48.4999V18.4999C60 16.113 59.0518 13.8238 57.364 12.136C55.6761 10.4482 53.3869 9.49994 51 9.49994ZM54 48.4999C54 49.2956 53.6839 50.0587 53.1213 50.6213C52.5587 51.1839 51.7957 51.4999 51 51.4999H9C8.20435 51.4999 7.44129 51.1839 6.87868 50.6213C6.31607 50.0587 6 49.2956 6 48.4999V9.49994C6 8.7043 6.31607 7.94123 6.87868 7.37863C7.44129 6.81602 8.20435 6.49995 9 6.49995H22.68C23.3089 6.49832 23.9225 6.6944 24.4339 7.06047C24.9453 7.42654 25.3287 7.94408 25.53 8.53994L27.15 13.4599C27.3513 14.0558 27.7347 14.5733 28.2461 14.9394C28.7575 15.3055 29.3711 15.5016 30 15.4999H51C51.7957 15.4999 52.5587 15.816 53.1213 16.3786C53.6839 16.9412 54 17.7043 54 18.4999V48.4999Z" fill="#A1A1AA"/>
</svg>
