<svg xmlns="http://www.w3.org/2000/svg" width="85" height="24" fill="none"><g fill="#94a3b8" clip-path="url(#a)"><path d="M18.53 5.88c-1.58-1.58-3.28-.56-4.34.5L4.2 16.4c-1.07 1.06-2.18 2.67-.5 4.34 1.66 1.67 3.27.56 4.33-.5l10.01-10.01c1.06-1.06 2.09-2.75.5-4.34ZM8.97 5.47l2.12 2.12 2.15-2.16.45-.4c-.23-1.15-.88-2.18-2.6-2.18-1.73 0-2.38 1.03-2.6 2.18l.48.44ZM13.24 21.22l-2.15-2.16-2.12 2.12-.48.44c.24 1.17.93 2.23 2.6 2.23s2.35-1.07 2.6-2.24c-.15-.12-.3-.25-.45-.4ZM8.07 10.6H3.98c-1.5 0-3.42.48-3.42 2.72 0 1.68 1.07 2.36 2.24 2.6.13-.16 5.27-5.31 5.27-5.31ZM19.38 10.72c-.13.15-5.27 5.32-5.27 5.32h4.03c1.5 0 3.42-.36 3.42-2.72 0-1.73-1.03-2.38-2.18-2.6ZM9.4 9.27l.74-.73-2.12-2.12c-1.06-1.06-2.67-2.17-4.34-.5-1.22 1.22-.95 2.41-.3 3.38.2-.02 6.03-.03 6.03-.03ZM12.77 17.38l-.73.73 2.15 2.16c1.06 1.06 2.76 2.08 4.34.5 1.18-1.18.91-2.43.26-3.42l-6.02.03ZM63.59 6.36c-.36 0-1 .1-1.7.4-.9.39-1.38.69-1.62 1.08-.9-1.05-2.08-1.38-3.4-1.38-3.9 0-6.67 3.28-6.67 7.96 0 3.92 2.1 6.82 5.1 6.82.9 0 1.71-.37 2.68-1.27.75-.7 1.11-1.15 1.11-1.57a.5.5 0 0 0-.5-.51c-.43 0-.88.36-1.46.36-1.23 0-2.08-1.9-2.08-4.7 0-2.81 1.12-4.71 2.8-4.71 1.12 0 1.97.84 1.97 2.29v8.8c0 .97.9 1.25 2.56 1.25 1.63 0 2.26-.3 2.26-1.24V7.33c0-.6-.39-.97-1.05-.97ZM44.98 6.36c-1.18 0-2.42.43-3.5 1.27-.6.48-1.12 1.03-1.12 1.48 0 .4.27.6.66.6.67 0 .88-.27 1.51-.27.64 0 .94.6.94 1.66v8.84c0 .96.9 1.24 2.56 1.24 1.63 0 2.26-.3 2.26-1.24v-9.68c0-2.3-1.35-3.9-3.31-3.9ZM36.5 6.36c-1.24 0-2.35.43-3.44 1.27-.6.48-1.11 1.03-1.11 1.48 0 .4.27.6.66.6.66 0 .87-.27 1.45-.27.57 0 .87.6.87 1.66v8.84c0 .96.9 1.24 2.57 1.24 1.63 0 2.26-.3 2.26-1.24v-9.68c0-2.3-1.36-3.9-3.26-3.9ZM30.17 6.36c-.46 0-1 .1-1.7.4-1.5.66-2.07 1.08-2.07 2.02v11.16c0 .96.9 1.24 2.56 1.24 1.63 0 2.26-.3 2.26-1.24V7.33c0-.6-.39-.97-1.05-.97ZM83.23 17.1c-1.21.3-1.57.4-2 .4-.5 0-.69-.16-.69-.7V9.26h2.75c.72 0 1-.27 1-1 0-.6-.28-.9-1-.9h-2.75V4.43c0-.9-.3-1.26-.93-1.26-.6 0-1.45.54-3.26 2.08-1.84 1.57-2.9 2.6-2.9 3.32 0 .42.3.69.79.69h1.48v8.14c0 2.39 1.17 3.78 3.22 3.78 1.36 0 2.36-.52 3.53-1.42 1.09-.85 1.78-1.51 1.78-2.08 0-.49-.36-.76-1.02-.58ZM71 0c-.23 0-.99.1-1.68.4-1.5.63-2.08 1.08-2.08 2.01v17.53c0 .96.9 1.24 2.56 1.24 1.63 0 2.26-.3 2.26-1.24V.97c0-.6-.39-.97-1.05-.97Z"/></g><defs><clipPath id="a"><path fill="#fff" d="M.56 0h83.72v24H.56z"/></clipPath></defs></svg>
