<svg width="55" height="24" viewBox="0 0 55 24" fill="none" xmlns="http://www.w3.org/2000/svg">
<g clip-path="url(#clip0_622_18345)">
<path d="M39.3576 11.3841C39.3576 11.3841 39.3576 11.8651 39.8385 11.8651H45.2055C45.6328 11.8651 46.0337 11.7635 46.4052 11.5607C46.7768 11.3586 47.0986 11.0821 47.3684 10.7325C47.639 10.3829 47.8528 9.9721 48.011 9.49886C48.1679 9.02561 48.247 8.51904 48.247 7.97801C48.247 7.41437 48.1572 6.89592 47.9768 6.42326C47.7959 5.94944 47.5546 5.53859 47.2497 5.18899C46.9457 4.83939 46.5968 4.5689 46.2026 4.37744C45.8079 4.18719 45.4088 4.09087 45.0028 4.09087H39.8385C39.8385 4.09087 39.3576 4.09087 39.3576 4.57126V11.3841ZM35.1737 23.9998C35.1737 23.9998 34.6927 23.9998 34.6927 23.5194V0.480791C34.6927 0.480791 34.6928 0.000396729 35.1737 0.000396729H45.3066C46.4101 0.000396729 47.4301 0.231079 48.3657 0.693039C49.3008 1.155 50.107 1.76382 50.7821 2.5183C51.459 3.27396 51.9879 4.13011 52.3724 5.08792C52.7546 6.04575 52.9452 7.0089 52.9452 7.97801C52.9452 9.53272 52.5572 10.9472 51.7799 12.2195C51.0017 13.493 49.9483 14.4122 49.0621 14.7873C49.0621 14.7873 48.6195 14.9746 48.8746 15.3825L54.0097 23.5925C54.0097 23.5925 54.2639 23.9998 53.7835 23.9998H49.4724C49.4724 23.9998 48.9915 23.9998 48.7359 23.5925L44.2096 16.3629C44.2096 16.3629 43.954 15.955 43.4736 15.955H39.8385C39.8385 15.955 39.3576 15.955 39.3576 16.436V23.5194C39.3576 23.5194 39.3576 23.9998 38.8766 23.9998H35.1737Z" fill="#94a3b8"/>
<path d="M27.5256 0.295045V8.76258C27.5256 8.9736 27.7819 9.07765 27.9293 8.92667L32.0567 4.69289C32.1452 4.60134 32.1452 4.45569 32.0567 4.36412L27.9293 0.13095C27.7819 -0.0200646 27.5256 0.083981 27.5256 0.295045Z" fill="#94a3b8"/>
<path d="M27.8627 12.9388C27.8627 12.9388 27.5256 13.2848 27.5256 13.7681V23.5086C27.5256 23.5086 27.5256 23.992 28.009 23.992H31.7326C31.7326 23.992 32.216 23.992 32.216 23.5086V8.95706C32.216 8.95706 32.216 8.47373 31.8789 8.81973L27.8627 12.9388Z" fill="#94a3b8"/>
<path d="M20.9085 24C20.9085 24 20.4276 24 20.4276 23.519V9.28028C20.4276 9.28028 20.4276 8.79988 20.2177 9.2321L14.4524 20.6117C14.4524 20.6117 14.2425 21.0439 13.7615 21.0439H12.1884C12.1884 21.0439 11.7074 21.0439 11.4969 20.6117L5.73161 9.2321C5.73161 9.2321 5.52112 8.79988 5.52112 9.28028V23.519C5.52112 23.519 5.52112 24 5.04074 24H1.33731C1.33731 24 0.856323 24 0.856323 23.519V0.480987C0.856323 0.480987 0.856324 0 1.33731 0H5.37903C5.37903 0 5.85943 0 6.0681 0.433422L12.7496 13.8802C12.7496 13.8802 12.9577 14.3137 13.1676 13.8814L19.9145 0.432828C19.9145 0.432828 20.1244 0 20.6047 0H24.612C24.612 0 25.0929 0 25.0929 0.480987V23.519C25.0929 23.519 25.093 24 24.612 24H20.9085Z" fill="#94a3b8"/>
</g>
<defs>
<clipPath id="clip0_622_18345">
<rect width="53.3333" height="24" fill="white" transform="translate(0.856323)"/>
</clipPath>
</defs>
</svg>
