<svg width="85" height="24" viewBox="0 0 85 24" fill="none" xmlns="http://www.w3.org/2000/svg">
<g clip-path="url(#clip0_622_18350)">
<path d="M37.1441 12.9085C38.0871 12.9085 38.7486 12.4341 39.1643 11.393L39.6168 10.2762H28.893C27.0429 10.2762 22.8895 12.7377 22.8895 14.3647C22.9269 15.5951 24.0027 17.0337 25.0601 17.753L26.7789 15.0085C26.3067 14.7247 25.7589 14.3097 25.7398 13.7591C25.7398 13.2487 26.3067 12.9085 26.7973 12.9085H29.9314L25.5224 23.8031H28.449C28.8648 23.8031 29.1471 23.5772 29.3554 23.1212L33.4996 12.9085H37.1441ZM82.778 14.1367C81.4184 15.6191 80.0751 15.9854 77.8904 15.9854C77.4747 15.2668 76.5288 14.9068 75.3034 14.9068C73.0947 14.9068 72.1297 16.421 69.9958 16.421C68.1747 16.421 66.3365 15.2668 65.1274 15.173L64.3911 16.2692C64.9947 16.6292 65.3356 17.141 65.3356 18.0487C65.3356 19.5635 63.9196 22.0998 62.409 22.0998C61.8055 22.0998 61.617 21.3607 61.9565 20.5278L66.0662 10.2762H64.3869C63.1897 10.2762 62.8198 10.7499 62.4041 11.7155L60.1255 17.3859C58.9354 20.225 57.1227 21.588 56.085 21.588C55.5175 21.588 55.3862 21.1715 55.6135 20.6224L57.8215 15.1722H55.9707C55.3678 15.1722 54.7446 15.3424 54.2342 16.5339L53.762 17.688C52.6114 20.5087 50.949 21.588 49.9869 21.588C49.4765 21.588 49.25 21.2661 49.5147 20.604L50.666 17.765C51.2518 16.1174 51.2335 15.0007 49.5902 15.0007C47.853 15.0007 46.2669 16.5537 45.3796 17.5553L48.2864 10.2755H46.4864C45.6133 10.2755 45.0761 10.5035 44.6236 11.6393L42.3775 17.3852C41.1683 20.3944 37.9213 21.7581 36.6754 21.7581C35.8453 21.7581 35.4288 21.3798 35.4288 20.6217C35.4288 19.1831 36.8638 17.4607 38.4683 17.4607H39.0535C39.7142 17.4607 40.1681 17.1205 40.4695 16.4195L40.9989 15.1715H38.9596C35.3533 15.1715 32.0688 18.4454 32.2008 21.9466C32.2382 23.2715 33.0507 23.9725 34.5231 23.9725C36.638 23.9725 38.9596 22.8741 40.9996 20.7734L39.7721 23.8017H41.7175C42.5293 23.8017 43.0198 23.4226 43.4356 22.4393C44.4168 20.1106 45.5695 17.5744 47.0038 17.5744C47.4387 17.5744 47.6455 17.9153 47.4387 18.4264L46.3424 21.0939C45.6824 22.704 45.7947 23.9908 47.5516 23.9908C49.0043 23.9908 50.6095 23.1586 52.2528 21.4532C51.837 22.9299 52.0453 23.9908 53.6688 23.9908C55.2351 23.9908 57.105 22.9108 58.8034 21.0184C58.521 22.8353 59.522 23.9718 61.5408 23.9718C64.826 23.9718 68.2255 20.9061 68.2255 17.5744C68.2255 17.5744 68.5643 17.6125 68.8855 17.6125C69.4142 17.6125 70.2238 17.4226 70.6763 17.2334C69.8653 18.2365 69.3358 19.6377 69.3358 21.0762C69.3358 22.8551 70.3756 23.9915 72.2074 23.9915C75.4382 23.9915 77.5707 20.981 77.9173 18.5337C75.3111 18.7264 73.6869 19.788 72.9718 21.9911C72.7925 22.5424 72.6231 22.8162 72.165 22.8162C71.8438 22.8162 71.5735 22.5875 71.5735 22.2092C71.5735 21.3551 72.7537 20.3675 73.3318 19.2148C73.9657 17.952 73.9481 16.1202 74.9653 16.1202C75.2857 16.1202 75.4763 16.3574 75.4763 16.6892C75.4763 17.3217 74.8326 18.1052 74.3794 18.852C75.7685 17.9711 76.8676 17.8701 78.1311 17.7438C80.906 17.4664 82.4462 16.7294 82.7794 14.1353M57.3104 13.3913H55.4815L56.2064 11.6386C56.6038 10.692 57.2293 10.2748 58.022 10.2748H59.8121L59.1034 12.029C58.7448 12.9367 58.1589 13.3913 57.3104 13.3913ZM9.89137 12.6953C9.89137 12.18 9.62525 11.9266 9.21584 11.9266C7.70737 11.9266 7.64737 14.9294 6.9309 16.4238C5.74361 18.8993 4.18361 20.0817 4.18361 21.1998C4.18361 21.8393 4.56902 22.104 4.98337 22.104C5.64831 22.104 5.8629 21.7631 6.11208 20.9217C7.33608 16.7965 9.63514 15.6325 13.5528 15.4468C13.2394 18.9572 10.0114 23.9986 4.94525 23.9986C2.12666 23.9986 0.508077 22.4132 0.508077 19.6257C0.508077 15.1193 4.34666 10.0595 9.43184 10.0595C11.2029 10.0595 12.6443 10.601 13.238 11.6054C19.2203 11.8122 21.2173 9.70378 21.2173 8.09719C21.2173 6.82378 20.0427 6.39319 18.1558 6.39319C13.7963 6.39319 9.72125 9.07131 4.14549 9.07131C1.66996 9.07131 0.19043 8.21648 0.19043 6.74684C0.19043 2.16354 13.1603 4.90448 13.1603 0.799071C13.1603 0.493424 12.9895 0.208247 12.7798 -0.00210571C13.4285 0.131306 15.0422 0.491306 15.0422 1.67578C15.0422 5.72401 5.2869 3.65437 5.2869 6.15531C5.2869 6.74754 5.79937 7.07013 6.77137 7.07013C10.6368 7.07013 14.702 4.12378 18.2173 4.12378C21.7918 4.12378 22.9805 6.11719 22.9805 7.9666C22.9805 10.9179 19.929 14.2348 13.6064 14.501C11.1288 14.6047 9.86172 14.8242 8.38925 15.7715C9.14455 14.5751 9.89278 13.6779 9.89278 12.696L9.89137 12.6953Z" fill="#94a3b8"/>
</g>
<defs>
<clipPath id="clip0_622_18350">
<rect width="84" height="24" fill="white" transform="translate(0.189697)"/>
</clipPath>
</defs>
</svg>
