<svg width="342" height="164" viewBox="0 0 342 164" fill="none" xmlns="http://www.w3.org/2000/svg">
<g opacity="0.62">
<rect opacity="0.55" x="26.666" y="52" width="75" height="8" rx="4" fill="#27272A"/>
<rect opacity="0.55" x="112.666" y="52" width="75" height="8" rx="4" fill="#27272A"/>
<rect opacity="0.55" x="26.666" y="69" width="75" height="8" rx="4" fill="#27272A"/>
<rect x="13.1641" y="10.5" width="315" height="143" rx="6.5" stroke="url(#paint0_diamond_884_44808)" stroke-opacity="0.48"/>
<rect opacity="0.55" x="25.666" y="35" width="216" height="8" rx="4" fill="#27272A"/>
<rect opacity="0.55" x="186.666" y="52" width="102" height="8" rx="4" fill="#27272A"/>
<rect opacity="0.55" x="25.666" y="94" width="90" height="48" rx="4" fill="#27272A"/>
<rect opacity="0.55" x="125.666" y="94" width="90" height="48" rx="4" fill="#27272A"/>
<rect opacity="0.55" x="224.666" y="94" width="9" height="48" rx="4" fill="#27272A"/>
<rect opacity="0.55" x="26.6641" y="22" width="4" height="4" rx="2" fill="#3F3F46"/>
<rect opacity="0.55" x="34.6641" y="22" width="4" height="4" rx="2" fill="#3F3F46"/>
<rect opacity="0.55" x="42.6641" y="22" width="4" height="4" rx="2" fill="#3F3F46"/>
</g>
<g filter="url(#filter0_d_884_44808)">
<path d="M141.787 60.9204L167.295 45.0761C169.571 43.6974 172.4 43.6397 174.716 44.9249L202.066 59.8719C204.368 61.1493 205.816 63.5608 205.87 66.2068L206.034 95.4439C206.087 98.0802 204.753 100.551 202.519 101.95L176.627 118.167C174.338 119.601 171.462 119.681 169.111 118.377L142.375 103.542C140.01 102.23 138.158 99.7232 138.176 97.0044L138.176 67.2834C138.193 64.6803 139.562 62.268 141.787 60.9204Z" fill="#18181B"/>
<path d="M142.305 61.7757L142.305 61.7757L142.314 61.7698L167.817 45.9286C169.788 44.7374 172.232 44.69 174.231 45.7993L174.237 45.8024L201.581 60.7464C201.581 60.7468 201.582 60.7473 201.583 60.7478C203.568 61.8504 204.821 63.9315 204.87 66.2201C204.87 66.2224 204.87 66.2248 204.87 66.2271L205.034 95.4495L205.034 95.4568L205.034 95.4642C205.08 97.7491 203.924 99.8903 201.989 101.102L176.097 117.32C174.114 118.562 171.627 118.629 169.596 117.503L142.86 102.668C140.728 101.485 139.161 99.2748 139.176 97.0109V97.0044L139.176 67.29C139.176 67.2889 139.176 67.2879 139.176 67.2868C139.192 65.032 140.378 62.9426 142.305 61.7757Z" stroke="url(#paint1_linear_884_44808)" stroke-width="2"/>
</g>
<path d="M179.475 95.0479H164.157V68.2146H179.475M180.55 65.1215L177.831 65.1103L177.742 62.6495H165.754L165.843 65.1103L163.143 65.1089C161.745 65.1089 161.095 65.9252 161.095 67.3244L161.104 95.5572C161.104 96.9563 161.753 98.1063 163.151 98.1063L180.558 98.119C181.975 98.119 182.605 96.9881 182.605 95.5698L182.597 67.337C182.597 65.9379 181.948 65.1215 180.55 65.1215ZM177.56 71.1312H166.071L166.058 74.2506H177.547L177.56 71.1312ZM177.56 77.7562H166.071L166.075 80.8422H177.563L177.56 77.7562Z" fill="url(#paint2_linear_884_44808)"/>
<path d="M166.123 83.9228H177.612L177.598 87.0422H166.109L166.123 83.9228Z" fill="url(#paint3_linear_884_44808)"/>
<path d="M166.087 77.1202H177.576L177.58 93.2061H166.091L166.087 77.1202Z" fill="url(#paint4_linear_884_44808)"/>
<defs>
<filter id="filter0_d_884_44808" x="107.894" y="13.718" width="128.423" height="135.866" filterUnits="userSpaceOnUse" color-interpolation-filters="sRGB">
<feFlood flood-opacity="0" result="BackgroundImageFix"/>
<feColorMatrix in="SourceAlpha" type="matrix" values="0 0 0 0 0 0 0 0 0 0 0 0 0 0 0 0 0 0 127 0" result="hardAlpha"/>
<feOffset/>
<feGaussianBlur stdDeviation="15.141"/>
<feComposite in2="hardAlpha" operator="out"/>
<feColorMatrix type="matrix" values="0 0 0 0 1 0 0 0 0 1 0 0 0 0 1 0 0 0 0.07 0"/>
<feBlend mode="normal" in2="BackgroundImageFix" result="effect1_dropShadow_884_44808"/>
<feBlend mode="normal" in="SourceGraphic" in2="effect1_dropShadow_884_44808" result="shape"/>
</filter>
<radialGradient id="paint0_diamond_884_44808" cx="0" cy="0" r="1" gradientUnits="userSpaceOnUse" gradientTransform="translate(302.182 41.5438) rotate(167.296) scale(309.539 681.497)">
<stop stop-color="white" stop-opacity="0.34"/>
<stop offset="0.322917" stop-color="white" stop-opacity="0.828854"/>
<stop offset="0.625" stop-color="white" stop-opacity="0.08"/>
<stop offset="1" stop-color="white" stop-opacity="0.47"/>
</radialGradient>
<linearGradient id="paint1_linear_884_44808" x1="138.841" y1="67.0947" x2="205.802" y2="100.542" gradientUnits="userSpaceOnUse">
<stop stop-color="#40DDFF"/>
<stop offset="1" stop-color="#008AA9"/>
</linearGradient>
<linearGradient id="paint2_linear_884_44808" x1="161.036" y1="70.2294" x2="186.179" y2="78.4318" gradientUnits="userSpaceOnUse">
<stop stop-color="#40DDFF"/>
<stop offset="1" stop-color="#008AA9"/>
</linearGradient>
<linearGradient id="paint3_linear_884_44808" x1="161.036" y1="70.2294" x2="186.179" y2="78.4318" gradientUnits="userSpaceOnUse">
<stop stop-color="#40DDFF"/>
<stop offset="1" stop-color="#008AA9"/>
</linearGradient>
<linearGradient id="paint4_linear_884_44808" x1="161.036" y1="70.2294" x2="186.179" y2="78.4318" gradientUnits="userSpaceOnUse">
<stop stop-color="#40DDFF"/>
<stop offset="1" stop-color="#008AA9"/>
</linearGradient>
</defs>
</svg>
