<svg width="342" height="164" viewBox="0 0 342 164" fill="none" xmlns="http://www.w3.org/2000/svg">
<path fill-rule="evenodd" clip-rule="evenodd" d="M207.864 71C204.404 71 201.599 68.3137 201.599 65H195.334C195.334 71.6274 200.944 77 207.864 77H216.218H235.014H266.876V71H235.014H216.218H207.864ZM270.516 71H298.962V77H270.516V71ZM331.334 71H302.888V77H331.334V71Z" fill="url(#paint0_linear_934_45312)"/>
<path fill-rule="evenodd" clip-rule="evenodd" d="M332.334 85L332.334 91H296.21V85L332.334 85ZM244.599 85H222.84V85H206.797C199.914 85 194.334 90.3726 194.334 97H200.566C200.566 93.6863 203.356 91 206.797 91H233.801L244.599 91V85ZM292.465 85H250.178V91H292.465V85Z" fill="url(#paint1_linear_934_45312)"/>
<path fill-rule="evenodd" clip-rule="evenodd" d="M137.896 66C141.33 66 144.115 68.6863 144.115 72H150.334C150.334 65.3726 144.765 60 137.896 60H129.602H110.946H79.3156V66H110.946H129.602H137.896ZM75.7052 66H47.4677V60H75.7052V66ZM15.334 66H43.5714V60H15.334V66Z" fill="url(#paint2_linear_934_45312)"/>
<path fill-rule="evenodd" clip-rule="evenodd" d="M11.334 78L11.334 84H47.4532V78L11.334 78ZM96.0745 78H117.83V78H133.872C140.755 78 146.334 83.3726 146.334 90H140.103C140.103 86.6863 137.314 84 133.872 84H106.872L96.0745 84V78ZM50.2035 78H92.4846V84H50.2035V78Z" fill="url(#paint3_linear_934_45312)"/>
<path fill-rule="evenodd" clip-rule="evenodd" d="M16.334 103L16.334 97H52.4532V103L16.334 103ZM101.074 103H122.83V103H138.872C145.755 103 151.334 97.6274 151.334 91H145.103C145.103 94.3137 142.314 97 138.872 97H111.872L101.074 97V103ZM55.2035 103H97.4846V97H55.2035V103Z" fill="url(#paint4_linear_934_45312)"/>
<path fill-rule="evenodd" clip-rule="evenodd" d="M157.194 100.843C153.757 100.843 150.971 103.459 150.971 106.687V107.119L150.993 107.119L150.992 113.313C150.992 119.768 145.419 125 138.544 125H88.8347V119.157H138.544C141.981 119.157 144.768 116.541 144.768 113.313V108.012L144.746 108.012L144.747 106.687C144.747 100.232 150.32 95 157.194 95H169.334V100.843H157.194ZM84.3195 119.157H21.334V125H84.3195V119.157Z" fill="url(#paint5_linear_934_45312)"/>
<path fill-rule="evenodd" clip-rule="evenodd" d="M157.194 64.1567C153.757 64.1567 150.97 61.5405 150.97 58.3133V57.8812L150.992 57.8812L150.991 51.6866C150.991 45.2322 145.418 39.9999 138.544 39.9999H88.8336V45.8432H138.544C141.981 45.8432 144.767 48.4594 144.767 51.6866V56.9881L144.745 56.9881L144.746 58.3133C144.746 64.7677 150.32 70 157.194 70H169.334V64.1567H157.194ZM84.3204 45.8434H21.334V40H84.3204V45.8434Z" fill="url(#paint6_linear_934_45312)"/>
<g filter="url(#filter0_d_934_45312)">
<path d="M141.512 61.8525L166.321 46.0718C168.535 44.6986 171.287 44.6412 173.539 45.9212L200.139 60.8083C202.378 62.0805 203.787 64.4823 203.839 67.1178L203.998 96.2376C204.051 98.8633 202.752 101.324 200.581 102.717L175.398 118.87C173.172 120.298 170.374 120.378 168.087 119.079L142.084 104.304C139.784 102.997 137.983 100.5 138 97.7919L138 68.1901C138.017 65.5974 139.348 63.1948 141.512 61.8525Z" fill="#18181B"/>
<path d="M142.039 62.7023L142.039 62.7024L142.049 62.6963L166.853 46.9187C168.757 45.74 171.115 45.6936 173.045 46.7906L173.051 46.7938L199.645 61.6778C199.646 61.6783 199.647 61.6788 199.648 61.6793C201.568 62.7716 202.791 64.8414 202.839 67.1306C202.839 67.133 202.839 67.1353 202.839 67.1376L202.999 96.2431L202.999 96.2503L202.999 96.2575C203.044 98.5431 201.914 100.674 200.041 101.876L174.858 118.028C172.942 119.257 170.543 119.324 168.581 118.209L142.578 103.434C140.516 102.263 138.986 100.064 139 97.7983L139 97.7919L139 68.1965C139 68.1955 139 68.1944 139 68.1934C139.016 65.938 140.175 63.8588 142.039 62.7023Z" stroke="url(#paint7_linear_934_45312)" stroke-width="2"/>
</g>
<path fill-rule="evenodd" clip-rule="evenodd" d="M170.01 66.6821C170.302 66.4821 170.647 66.375 171 66.375C171.353 66.375 171.698 66.4821 171.99 66.6821C172.281 66.8821 172.505 67.1656 172.631 67.4954L176.208 76.7925L185.505 80.3687C185.834 80.4955 186.118 80.7193 186.318 81.0105C186.518 81.3017 186.625 81.6467 186.625 82C186.625 82.3533 186.518 82.6983 186.318 82.9895C186.118 83.2807 185.834 83.5045 185.505 83.6313L176.208 87.2075L172.631 96.5046C172.505 96.8344 172.281 97.1179 171.99 97.3179C171.698 97.5179 171.353 97.625 171 97.625C170.647 97.625 170.302 97.5179 170.01 97.3179C169.719 97.1179 169.495 96.8344 169.369 96.5046L165.792 87.2075L156.495 83.6313C156.166 83.5045 155.882 83.2807 155.682 82.9895C155.482 82.6983 155.375 82.3533 155.375 82C155.375 81.6467 155.482 81.3017 155.682 81.0105C155.882 80.7193 156.166 80.4955 156.495 80.3687L165.792 76.7925L169.369 67.4954C169.495 67.1656 169.719 66.8821 170.01 66.6821ZM165.897 76.7522L165.897 76.7523L165.897 76.7522ZM170.765 68.2138L170.765 68.2134L171 68.1229L171.235 68.2134L171.235 68.2138C171.235 68.2137 171.235 68.2135 171.235 68.2134L171 68.1229L170.765 68.2134C170.765 68.2135 170.765 68.2137 170.765 68.2138ZM171 68.8252L167.619 77.6149C167.619 77.6149 167.619 77.615 167.619 77.615C167.531 77.8433 167.396 78.0506 167.223 78.2235C167.051 78.3964 166.843 78.5311 166.615 78.6189C166.615 78.6189 166.615 78.619 166.615 78.619L157.825 82L166.615 85.381C166.615 85.381 166.615 85.3811 166.615 85.3811C166.843 85.4689 167.051 85.6036 167.223 85.7765C167.396 85.9494 167.531 86.1567 167.619 86.385C167.619 86.385 167.619 86.3851 167.619 86.3851L171 95.1748L174.381 86.3851C174.381 86.3851 174.381 86.385 174.381 86.385C174.469 86.1568 174.604 85.9495 174.777 85.7765C174.949 85.6036 175.157 85.4689 175.385 85.3811C175.385 85.3811 175.385 85.381 175.385 85.381L184.175 82L175.385 78.619C175.385 78.619 175.385 78.6189 175.385 78.6189C175.157 78.5311 174.949 78.3964 174.777 78.2235C174.604 78.0505 174.469 77.8432 174.381 77.615C174.381 77.615 174.381 77.6149 174.381 77.6149L171 68.8252ZM184.787 82.2353C184.787 82.2353 184.786 82.2352 184.786 82.2352L184.787 82.2353ZM184.786 81.7648C184.786 81.7648 184.787 81.7647 184.787 81.7647L184.786 81.7648ZM170.765 95.7866C170.765 95.7865 170.765 95.7864 170.765 95.7863L170.765 95.7866ZM171.235 95.7863C171.235 95.7864 171.235 95.7865 171.235 95.7866L171.235 95.7863ZM157.214 81.7648C157.214 81.7648 157.214 81.7647 157.213 81.7647L157.123 82L157.213 82.2353C157.214 82.2353 157.214 82.2352 157.214 82.2352L157.213 82.2353L157.123 82L157.213 81.7647L157.214 81.7648Z" fill="url(#paint8_linear_934_45312)"/>
<defs>
<filter id="filter0_d_934_45312" x="107.718" y="14.718" width="126.564" height="135.564" filterUnits="userSpaceOnUse" color-interpolation-filters="sRGB">
<feFlood flood-opacity="0" result="BackgroundImageFix"/>
<feColorMatrix in="SourceAlpha" type="matrix" values="0 0 0 0 0 0 0 0 0 0 0 0 0 0 0 0 0 0 127 0" result="hardAlpha"/>
<feOffset/>
<feGaussianBlur stdDeviation="15.141"/>
<feComposite in2="hardAlpha" operator="out"/>
<feColorMatrix type="matrix" values="0 0 0 0 1 0 0 0 0 1 0 0 0 0 1 0 0 0 0.07 0"/>
<feBlend mode="normal" in2="BackgroundImageFix" result="effect1_dropShadow_934_45312"/>
<feBlend mode="normal" in="SourceGraphic" in2="effect1_dropShadow_934_45312" result="shape"/>
</filter>
<linearGradient id="paint0_linear_934_45312" x1="212.571" y1="71" x2="315.005" y2="102.491" gradientUnits="userSpaceOnUse">
<stop stop-color="#3F3F46"/>
<stop offset="0.541667" stop-color="#3F3F46"/>
<stop offset="0.973958" stop-color="#3F3F46" stop-opacity="0"/>
</linearGradient>
<linearGradient id="paint1_linear_934_45312" x1="213.434" y1="91" x2="315.256" y2="122.077" gradientUnits="userSpaceOnUse">
<stop stop-color="#3F3F46"/>
<stop offset="0.541667" stop-color="#3F3F46"/>
<stop offset="0.973958" stop-color="#3F3F46" stop-opacity="0"/>
</linearGradient>
<linearGradient id="paint2_linear_934_45312" x1="133.224" y1="66" x2="31.414" y2="34.9312" gradientUnits="userSpaceOnUse">
<stop stop-color="#3F3F46"/>
<stop offset="0.541667" stop-color="#3F3F46"/>
<stop offset="0.973958" stop-color="#3F3F46" stop-opacity="0"/>
</linearGradient>
<linearGradient id="paint3_linear_934_45312" x1="129.224" y1="84" x2="27.4139" y2="115.069" gradientUnits="userSpaceOnUse">
<stop stop-color="#3F3F46"/>
<stop offset="0.541667" stop-color="#3F3F46"/>
<stop offset="0.973958" stop-color="#3F3F46" stop-opacity="0"/>
</linearGradient>
<linearGradient id="paint4_linear_934_45312" x1="134.224" y1="97" x2="32.4139" y2="65.9312" gradientUnits="userSpaceOnUse">
<stop stop-color="#3F3F46"/>
<stop offset="0.541667" stop-color="#3F3F46"/>
<stop offset="0.973958" stop-color="#3F3F46" stop-opacity="0"/>
</linearGradient>
<linearGradient id="paint5_linear_934_45312" x1="155.762" y1="110" x2="31.9127" y2="117.185" gradientUnits="userSpaceOnUse">
<stop stop-color="#3F3F46"/>
<stop offset="0.541667" stop-color="#3F3F46"/>
<stop offset="0.973958" stop-color="#3F3F46" stop-opacity="0"/>
</linearGradient>
<linearGradient id="paint6_linear_934_45312" x1="155.762" y1="55.0001" x2="31.9127" y2="47.8153" gradientUnits="userSpaceOnUse">
<stop stop-color="#3F3F46"/>
<stop offset="0.541667" stop-color="#3F3F46"/>
<stop offset="0.973958" stop-color="#3F3F46" stop-opacity="0"/>
</linearGradient>
<linearGradient id="paint7_linear_934_45312" x1="138.647" y1="68.0021" x2="204.382" y2="100.066" gradientUnits="userSpaceOnUse">
<stop stop-color="#F7D14C"/>
<stop offset="1" stop-color="#A38108"/>
</linearGradient>
<linearGradient id="paint8_linear_934_45312" x1="155.288" y1="73.0532" x2="186.634" y2="89.9154" gradientUnits="userSpaceOnUse">
<stop stop-color="#F7D14C"/>
<stop offset="1" stop-color="#A38108"/>
</linearGradient>
</defs>
</svg>
