<svg width="342" height="164" viewBox="0 0 341 222" fill="none" xmlns="http://www.w3.org/2000/svg">
<rect x="46.5" y="66.5" width="278" height="22" rx="1.5" fill="#18181B" stroke="#27272A"/>
<rect x="82" y="75" width="233" height="5.19388" rx="2.59694" fill="#3F3F46"/>
<rect x="55.5" y="70.5" width="14" height="14" rx="1.5" fill="#18181B" stroke="#27272A"/>
<path d="M64.078 74.1113H60.1725C60.0349 74.115 59.9044 74.1727 59.8092 74.2721C59.714 74.3714 59.6619 74.5043 59.6641 74.6419V81.3586C59.6619 81.4961 59.714 81.629 59.8092 81.7284C59.9044 81.8277 60.0349 81.8855 60.1725 81.8891H65.8225C65.96 81.8855 66.0905 81.8277 66.1857 81.7284C66.2809 81.629 66.333 81.4961 66.3308 81.3586V76.3113L64.078 74.1113ZM63.9947 74.803L65.6614 76.4419H63.9947V74.803ZM60.2197 81.3336V74.6669H63.553V76.8891H65.7752V81.3336H60.2197Z" fill="white"/>
<rect x="47" y="128" width="277" height="21" rx="1" fill="#18181B" stroke="#27272A"/>
<rect x="82" y="136" width="233" height="5" rx="2.5" fill="#3F3F46"/>
<rect x="56.5" y="131.5" width="14" height="14" rx="1.5" fill="#18181B" stroke="#27272A"/>
<path d="M65.08 135.112H61.1744C61.0369 135.116 60.9063 135.174 60.8112 135.273C60.716 135.372 60.6638 135.505 60.6661 135.643V142.36C60.6638 142.497 60.716 142.63 60.8112 142.729C60.9063 142.829 61.0369 142.886 61.1744 142.89H66.8244C66.962 142.886 67.0925 142.829 67.1877 142.729C67.2829 142.63 67.335 142.497 67.3328 142.36V137.312L65.08 135.112ZM64.9966 135.804L66.6633 137.443H64.9966V135.804ZM61.2216 142.335V135.668H64.555V137.89H66.7772V142.335H61.2216Z" fill="white"/>
<g filter="url(#filter0_d_884_44705)">
<rect x="98" y="106" width="180" height="5" rx="2.5" fill="#3F3F46"/>
<rect x="73.3262" y="101.326" width="14.3476" height="14.3476" rx="2.2833" fill="#18181B" stroke="#27272A" stroke-width="0.652372"/>
<path d="M82.08 105.112H78.1744C78.0369 105.116 77.9063 105.174 77.8112 105.273C77.716 105.372 77.6638 105.505 77.6661 105.643V112.36C77.6638 112.497 77.716 112.63 77.8112 112.729C77.9063 112.829 78.0369 112.886 78.1744 112.89H83.8244C83.962 112.886 84.0925 112.829 84.1877 112.729C84.2829 112.63 84.335 112.497 84.3328 112.36V107.312L82.08 105.112ZM81.9966 105.804L83.6633 107.443H81.9966V105.804ZM78.2216 112.335V105.668H81.555V107.89H83.7772V112.335H78.2216Z" fill="white"/>
</g>
<rect x="17" y="43" width="89" height="7" rx="3.5" fill="#3F3F46"/>
<g opacity="0.7" filter="url(#filter1_b_884_44705)">
<path d="M20.9139 72.0529C20.9139 74.7997 23.1139 77.0265 25.8278 77.0265H40V82H25.8278C20.4 82 16 77.5465 16 72.0529L16 64.4569C16 63.1 17.1 62 18.4569 62C19.8139 62 20.9139 63.1 20.9139 64.4569L20.9139 72.0529Z" fill="url(#paint0_linear_884_44705)"/>
</g>
<g opacity="0.7" filter="url(#filter2_b_884_44705)">
<path d="M20.9139 130.65C20.9139 133.508 23.1139 135.825 25.8278 135.825H40V141H25.8278C20.4 141 16 136.366 16 130.65L16 63.4569C16 62.1 17.1 61 18.4569 61C19.8139 61 20.9139 62.1 20.9139 63.4569L20.9139 130.65Z" fill="url(#paint1_linear_884_44705)"/>
</g>
<g opacity="0.7" filter="url(#filter3_b_884_44705)">
<path d="M20.9394 101.696C20.9394 104.541 23.1509 106.848 25.879 106.848L63.9999 106.848V112L25.879 112C20.4229 112 15.9999 107.387 15.9999 101.696L15.9999 63.4698C15.9999 62.1058 17.1056 61 18.4696 61C19.8337 61 20.9394 62.1058 20.9394 63.4698L20.9394 101.696Z" fill="url(#paint2_linear_884_44705)"/>
</g>
<g filter="url(#filter4_d_884_44705)">
<rect x="98" y="167" width="137" height="5" rx="2.5" fill="#3F3F46"/>
<rect x="73.5" y="162.5" width="14" height="14" rx="1.5" fill="#18181B" stroke="#27272A"/>
<path d="M82.08 166.112H78.1744C78.0369 166.116 77.9063 166.174 77.8112 166.273C77.716 166.372 77.6638 166.505 77.6661 166.643V173.36C77.6638 173.497 77.716 173.63 77.8112 173.729C77.9063 173.829 78.0369 173.886 78.1744 173.89H83.8244C83.962 173.886 84.0925 173.829 84.1877 173.729C84.2829 173.63 84.335 173.497 84.3328 173.36V168.312L82.08 166.112ZM81.9966 166.804L83.6633 168.443H81.9966V166.804ZM78.2216 173.335V166.668H81.555V168.89H83.7772V173.335H78.2216Z" fill="white"/>
</g>
<g opacity="0.7" filter="url(#filter5_b_884_44705)">
<path d="M21.9394 163.624C21.9394 166.489 24.1509 168.812 26.879 168.812H64.9999V174H26.879C21.4229 174 16.9999 169.355 16.9999 163.624L16.9999 64.4698C16.9999 63.1058 18.1056 62 19.4696 62C20.8337 62 21.9394 63.1058 21.9394 64.4698L21.9394 163.624Z" fill="url(#paint3_linear_884_44705)"/>
</g>
<g filter="url(#filter6_d_884_44705)">
<g filter="url(#filter7_d_884_44705)">
<path d="M141.384 90.4692L166.892 74.6249C169.168 73.2462 171.998 73.1886 174.314 74.4737L201.663 89.4208C203.965 90.6981 205.414 93.1096 205.467 95.7556L205.631 124.993C205.685 127.629 204.35 130.1 202.117 131.498L176.225 147.716C173.936 149.15 171.059 149.23 168.709 147.926L141.972 133.091C139.608 131.779 137.756 129.272 137.774 126.553L137.774 96.8323C137.791 94.2292 139.16 91.8168 141.384 90.4692Z" fill="#18181B"/>
<path d="M204.632 125.013C204.635 125.156 204.633 125.298 204.626 125.439C204.53 127.56 203.399 129.516 201.586 130.651L175.694 146.869C173.723 148.104 171.223 148.177 169.194 147.051L142.458 132.217C142.408 132.189 142.358 132.161 142.309 132.132C140.255 130.931 138.759 128.758 138.774 126.56L138.774 126.553L138.774 96.8388C138.774 96.8378 138.774 96.8367 138.774 96.8357C138.79 94.5808 139.976 92.4914 141.902 91.3245L141.902 91.3246L141.912 91.3187L167.415 75.4775C167.415 75.4772 167.416 75.477 167.416 75.4768C169.376 74.2925 171.832 74.24 173.829 75.3481L173.834 75.3512L201.178 90.2952C201.179 90.2957 201.18 90.2962 201.181 90.2967C203.164 91.3985 204.419 93.4924 204.467 95.7689C204.467 95.7712 204.468 95.7736 204.468 95.776L204.631 124.998L204.631 125.006L204.632 125.013Z" stroke="url(#paint4_linear_884_44705)" stroke-width="2"/>
</g>
<path d="M188.587 101.814C188.583 101.814 188.579 101.813 188.576 101.81C188.572 101.807 188.571 101.802 188.571 101.798C188.334 101.394 187.994 101.06 187.586 100.83L173.149 92.709C172.758 92.4906 172.317 92.376 171.869 92.376C171.421 92.376 170.981 92.4906 170.589 92.709L156.152 100.83C155.744 101.06 155.405 101.394 155.168 101.798C155.168 101.802 155.166 101.807 155.163 101.81C155.16 101.813 155.156 101.814 155.151 101.814V101.847C154.924 102.23 154.805 102.666 154.807 103.111V119.287C154.807 119.755 154.932 120.214 155.169 120.617C155.405 121.021 155.744 121.355 156.152 121.584L170.589 129.705C170.953 129.903 171.357 130.016 171.771 130.033H172C172.404 130.015 172.797 129.903 173.149 129.705L187.586 121.584C187.994 121.355 188.333 121.021 188.569 120.617C188.806 120.214 188.931 119.755 188.932 119.287V103.111C188.934 102.656 188.815 102.208 188.587 101.814ZM171.869 94.9895L184.945 102.339L172.017 109.689L158.81 102.339L171.869 94.9895ZM157.432 104.571L170.704 111.97L170.573 126.686L157.432 119.287V104.571ZM173.198 126.67L173.329 111.97L186.307 104.587V119.287L173.198 126.67Z" fill="url(#paint5_linear_884_44705)"/>
</g>
<defs>
<filter id="filter0_d_884_44705" x="65.1715" y="93.1715" width="220.657" height="30.6569" filterUnits="userSpaceOnUse" color-interpolation-filters="sRGB">
<feFlood flood-opacity="0" result="BackgroundImageFix"/>
<feColorMatrix in="SourceAlpha" type="matrix" values="0 0 0 0 0 0 0 0 0 0 0 0 0 0 0 0 0 0 127 0" result="hardAlpha"/>
<feOffset/>
<feGaussianBlur stdDeviation="3.91423"/>
<feComposite in2="hardAlpha" operator="out"/>
<feColorMatrix type="matrix" values="0 0 0 0 1 0 0 0 0 1 0 0 0 0 1 0 0 0 0.1 0"/>
<feBlend mode="normal" in2="BackgroundImageFix" result="effect1_dropShadow_884_44705"/>
<feBlend mode="normal" in="SourceGraphic" in2="effect1_dropShadow_884_44705" result="shape"/>
</filter>
<filter id="filter1_b_884_44705" x="-216.11" y="-170.11" width="488.22" height="484.22" filterUnits="userSpaceOnUse" color-interpolation-filters="sRGB">
<feFlood flood-opacity="0" result="BackgroundImageFix"/>
<feGaussianBlur in="BackgroundImageFix" stdDeviation="116.055"/>
<feComposite in2="SourceAlpha" operator="in" result="effect1_backgroundBlur_884_44705"/>
<feBlend mode="normal" in="SourceGraphic" in2="effect1_backgroundBlur_884_44705" result="shape"/>
</filter>
<filter id="filter2_b_884_44705" x="-216.11" y="-171.11" width="488.22" height="544.22" filterUnits="userSpaceOnUse" color-interpolation-filters="sRGB">
<feFlood flood-opacity="0" result="BackgroundImageFix"/>
<feGaussianBlur in="BackgroundImageFix" stdDeviation="116.055"/>
<feComposite in2="SourceAlpha" operator="in" result="effect1_backgroundBlur_884_44705"/>
<feBlend mode="normal" in="SourceGraphic" in2="effect1_backgroundBlur_884_44705" result="shape"/>
</filter>
<filter id="filter3_b_884_44705" x="-216.11" y="-171.11" width="512.22" height="515.22" filterUnits="userSpaceOnUse" color-interpolation-filters="sRGB">
<feFlood flood-opacity="0" result="BackgroundImageFix"/>
<feGaussianBlur in="BackgroundImageFix" stdDeviation="116.055"/>
<feComposite in2="SourceAlpha" operator="in" result="effect1_backgroundBlur_884_44705"/>
<feBlend mode="normal" in="SourceGraphic" in2="effect1_backgroundBlur_884_44705" result="shape"/>
</filter>
<filter id="filter4_d_884_44705" x="65.1715" y="154.172" width="177.657" height="30.6569" filterUnits="userSpaceOnUse" color-interpolation-filters="sRGB">
<feFlood flood-opacity="0" result="BackgroundImageFix"/>
<feColorMatrix in="SourceAlpha" type="matrix" values="0 0 0 0 0 0 0 0 0 0 0 0 0 0 0 0 0 0 127 0" result="hardAlpha"/>
<feOffset/>
<feGaussianBlur stdDeviation="3.91423"/>
<feComposite in2="hardAlpha" operator="out"/>
<feColorMatrix type="matrix" values="0 0 0 0 1 0 0 0 0 1 0 0 0 0 1 0 0 0 0.1 0"/>
<feBlend mode="normal" in2="BackgroundImageFix" result="effect1_dropShadow_884_44705"/>
<feBlend mode="normal" in="SourceGraphic" in2="effect1_dropShadow_884_44705" result="shape"/>
</filter>
<filter id="filter5_b_884_44705" x="-215.11" y="-170.11" width="512.22" height="576.22" filterUnits="userSpaceOnUse" color-interpolation-filters="sRGB">
<feFlood flood-opacity="0" result="BackgroundImageFix"/>
<feGaussianBlur in="BackgroundImageFix" stdDeviation="116.055"/>
<feComposite in2="SourceAlpha" operator="in" result="effect1_backgroundBlur_884_44705"/>
<feBlend mode="normal" in="SourceGraphic" in2="effect1_backgroundBlur_884_44705" result="shape"/>
</filter>
<filter id="filter6_d_884_44705" x="64.7734" y="0.548828" width="213.859" height="221.302" filterUnits="userSpaceOnUse" color-interpolation-filters="sRGB">
<feFlood flood-opacity="0" result="BackgroundImageFix"/>
<feColorMatrix in="SourceAlpha" type="matrix" values="0 0 0 0 0 0 0 0 0 0 0 0 0 0 0 0 0 0 127 0" result="hardAlpha"/>
<feOffset/>
<feGaussianBlur stdDeviation="36.5"/>
<feComposite in2="hardAlpha" operator="out"/>
<feColorMatrix type="matrix" values="0 0 0 0 0.0470588 0 0 0 0 0.0470588 0 0 0 0 0.0509804 0 0 0 1 0"/>
<feBlend mode="normal" in2="BackgroundImageFix" result="effect1_dropShadow_884_44705"/>
<feBlend mode="normal" in="SourceGraphic" in2="effect1_dropShadow_884_44705" result="shape"/>
</filter>
<filter id="filter7_d_884_44705" x="107.491" y="43.2669" width="128.423" height="135.866" filterUnits="userSpaceOnUse" color-interpolation-filters="sRGB">
<feFlood flood-opacity="0" result="BackgroundImageFix"/>
<feColorMatrix in="SourceAlpha" type="matrix" values="0 0 0 0 0 0 0 0 0 0 0 0 0 0 0 0 0 0 127 0" result="hardAlpha"/>
<feOffset/>
<feGaussianBlur stdDeviation="15.141"/>
<feComposite in2="hardAlpha" operator="out"/>
<feColorMatrix type="matrix" values="0 0 0 0 1 0 0 0 0 1 0 0 0 0 1 0 0 0 0.07 0"/>
<feBlend mode="normal" in2="BackgroundImageFix" result="effect1_dropShadow_884_44705"/>
<feBlend mode="normal" in="SourceGraphic" in2="effect1_dropShadow_884_44705" result="shape"/>
</filter>
<linearGradient id="paint0_linear_884_44705" x1="16" y1="66.3788" x2="39.801" y2="55.4493" gradientUnits="userSpaceOnUse">
<stop stop-color="#A1A1AA" stop-opacity="0.58"/>
<stop offset="0.541667" stop-color="#A1A1AA" stop-opacity="0.29"/>
<stop offset="0.973958" stop-color="#A1A1AA" stop-opacity="0"/>
</linearGradient>
<linearGradient id="paint1_linear_884_44705" x1="30.7167" y1="99.6629" x2="54.3081" y2="130.406" gradientUnits="userSpaceOnUse">
<stop stop-color="#A1A1AA" stop-opacity="0.58"/>
<stop offset="0.541667" stop-color="#A1A1AA" stop-opacity="0.29"/>
<stop offset="1" stop-color="#A1A1AA" stop-opacity="0"/>
</linearGradient>
<linearGradient id="paint2_linear_884_44705" x1="16" y1="81.7603" x2="63.8095" y2="115.082" gradientUnits="userSpaceOnUse">
<stop stop-color="#A1A1AA" stop-opacity="0.58"/>
<stop offset="0.541667" stop-color="#A1A1AA" stop-opacity="0.29"/>
<stop offset="0.973958" stop-color="#A1A1AA" stop-opacity="0"/>
</linearGradient>
<linearGradient id="paint3_linear_884_44705" x1="17" y1="107.591" x2="81.5335" y2="128.072" gradientUnits="userSpaceOnUse">
<stop stop-color="#A1A1AA" stop-opacity="0.58"/>
<stop offset="0.541667" stop-color="#A1A1AA" stop-opacity="0.29"/>
<stop offset="0.973958" stop-color="#A1A1AA" stop-opacity="0"/>
</linearGradient>
<linearGradient id="paint4_linear_884_44705" x1="138.439" y1="96.6436" x2="205.4" y2="130.091" gradientUnits="userSpaceOnUse">
<stop stop-color="#FF9040"/>
<stop offset="1" stop-color="#E15E00"/>
</linearGradient>
<linearGradient id="paint5_linear_884_44705" x1="154.712" y1="100.423" x2="190.372" y2="117.807" gradientUnits="userSpaceOnUse">
<stop stop-color="#FFA666"/>
<stop offset="1" stop-color="#E15E00"/>
</linearGradient>
</defs>
</svg>
