<svg width="115" height="120" viewBox="0 0 115 120" fill="none" xmlns="http://www.w3.org/2000/svg">
<g filter="url(#filter0_d_1108_50667)">
<path d="M34.4348 44.0326L53.9815 31.8288C55.7255 30.7669 57.8938 30.7225 59.6686 31.7124L80.6261 43.2251C82.3902 44.2089 83.4998 46.0663 83.5411 48.1044L83.6668 70.6238C83.7079 72.6543 82.685 74.5574 80.9738 75.6347L61.1331 88.1262C59.379 89.2305 57.1747 89.2923 55.3732 88.2876L34.8856 76.8615C33.0735 75.8509 31.6544 73.9199 31.6681 71.8257L31.6682 48.9337C31.6812 46.9287 32.7301 45.0706 34.4348 44.0326Z" fill="#18181B"/>
<path d="M34.9549 44.8868L34.9549 44.8868L34.9644 44.8809L54.5061 32.6802C55.9434 31.8072 57.7247 31.7733 59.1816 32.5857L59.1815 32.5857L59.1872 32.5888L80.139 44.0985C80.1399 44.0989 80.1408 44.0994 80.1416 44.0999C81.5883 44.9079 82.5046 46.4345 82.5411 48.1176L82.6668 70.6293L82.6668 70.6367L82.667 70.644C82.701 72.3256 81.8538 73.899 80.441 74.7885L60.6003 87.2799C59.1537 88.1907 57.3405 88.2398 55.8603 87.4143L35.3727 75.9882C33.7949 75.1082 32.6573 73.4741 32.6681 71.8323V71.8257L32.6681 48.9402C32.6681 48.9392 32.6682 48.9381 32.6682 48.9371C32.68 47.278 33.5488 45.7429 34.9549 44.8868Z" stroke="url(#paint0_linear_1108_50667)" stroke-width="2"/>
</g>
<g clip-path="url(#clip0_1108_50667)">
<path d="M73.0794 57.4L70.0044 51.5125C69.7617 51.049 69.3469 50.6991 68.8492 50.5379C68.3515 50.3767 67.8104 50.4169 67.3419 50.65L64.4294 52.1125H62.3794L58.2544 50.2375C57.8209 50.0484 57.3358 50.0131 56.8794 50.1375L50.7919 51.9125L47.9919 50.5125C47.5215 50.2836 46.9804 50.247 46.4834 50.4103C45.9863 50.5737 45.5725 50.9241 45.3294 51.3875L42.2544 57.275C42.1308 57.5093 42.055 57.766 42.0314 58.0299C42.0078 58.2938 42.0369 58.5598 42.1169 58.8125C42.2863 59.3223 42.6502 59.7446 43.1294 59.9875L46.1294 61.4875L52.8794 66.7625C53.0996 66.9373 53.3557 67.0611 53.6294 67.125L60.8794 68.9375C61.0347 68.9775 61.1942 68.9985 61.3544 69C61.8875 68.9956 62.3982 68.7851 62.7794 68.4125L67.3794 63.8125H67.3919C67.3919 63.8 67.4044 63.8 67.4044 63.7875H67.4294L69.2919 61.575L72.2044 60.1125C72.4425 59.9965 72.6549 59.8338 72.8288 59.6341C73.0027 59.4344 73.1347 59.2017 73.2169 58.95C73.2974 58.6953 73.3266 58.4272 73.303 58.1612C73.2794 57.8952 73.2034 57.6365 73.0794 57.4ZM66.5044 61.75L61.7544 58.3C61.5812 58.1749 61.3724 58.1086 61.1586 58.1108C60.9449 58.1131 60.7376 58.1837 60.5669 58.3125L58.9669 59.5125C58.4453 59.8962 57.8146 60.1032 57.1669 60.1032C56.5193 60.1032 55.8886 59.8962 55.3669 59.5125L54.6919 59L59.5794 54.1125H64.0669L67.4669 60.6375L66.5044 61.75ZM47.1044 52.3125L49.3044 53.4125L46.2294 59.3L44.0294 58.2L47.1044 52.3125ZM61.3544 67L54.1169 65.1875L47.9419 60.3625L51.3419 53.8375L57.4294 52.0625L58.3919 52.5L58.1669 52.6875L53.2794 57.5875C53.0751 57.7889 52.9168 58.0322 52.8154 58.3007C52.7141 58.5691 52.672 58.8564 52.6922 59.1426C52.7124 59.4289 52.7944 59.7073 52.9324 59.9589C53.0705 60.2105 53.2613 60.4292 53.4919 60.6L54.1669 61.1125C55.034 61.7577 56.0861 62.1062 57.1669 62.1062C58.2478 62.1062 59.2999 61.7577 60.1669 61.1125L61.1794 60.35L65.1294 63.225L61.3544 67ZM71.3044 58.325L69.1044 59.4375L66.0294 53.55L68.2294 52.4375L71.3044 58.325ZM56.6419 70.85C56.5867 71.067 56.461 71.2596 56.2845 71.3975C56.1081 71.5355 55.8909 71.6111 55.6669 71.6125C55.5863 71.6122 55.5062 71.5995 55.4294 71.575L51.6544 70.6375C51.3483 70.5601 51.0652 70.41 50.8294 70.2L48.0169 67.75C47.9185 67.6646 47.8377 67.5607 47.7794 67.4441C47.7211 67.3276 47.6863 67.2007 47.677 67.0707C47.6677 66.9407 47.6841 66.8101 47.7253 66.6864C47.7665 66.5628 47.8316 66.4484 47.9169 66.35C48.0023 66.2515 48.1062 66.1707 48.2228 66.1124C48.3393 66.0541 48.4662 66.0193 48.5962 66.01C48.7262 66.0007 48.8568 66.0171 48.9805 66.0583C49.1041 66.0995 49.2185 66.1646 49.3169 66.25L52.1419 68.7L55.9044 69.6375C56.1618 69.7026 56.3832 69.8661 56.5212 70.0929C56.6591 70.3196 56.7025 70.5915 56.6419 70.85Z" fill="black"/>
<path d="M73.0794 57.4L70.0044 51.5125C69.7617 51.049 69.3469 50.6991 68.8492 50.5379C68.3515 50.3767 67.8104 50.4169 67.3419 50.65L64.4294 52.1125H62.3794L58.2544 50.2375C57.8209 50.0484 57.3358 50.0131 56.8794 50.1375L50.7919 51.9125L47.9919 50.5125C47.5215 50.2836 46.9804 50.247 46.4834 50.4103C45.9863 50.5737 45.5725 50.9241 45.3294 51.3875L42.2544 57.275C42.1308 57.5093 42.055 57.766 42.0314 58.0299C42.0078 58.2938 42.0369 58.5598 42.1169 58.8125C42.2863 59.3223 42.6502 59.7446 43.1294 59.9875L46.1294 61.4875L52.8794 66.7625C53.0996 66.9373 53.3557 67.0611 53.6294 67.125L60.8794 68.9375C61.0347 68.9775 61.1942 68.9985 61.3544 69C61.8875 68.9956 62.3982 68.7851 62.7794 68.4125L67.3794 63.8125H67.3919C67.3919 63.8 67.4044 63.8 67.4044 63.7875H67.4294L69.2919 61.575L72.2044 60.1125C72.4425 59.9965 72.6549 59.8338 72.8288 59.6341C73.0027 59.4344 73.1347 59.2017 73.2169 58.95C73.2974 58.6953 73.3266 58.4272 73.303 58.1612C73.2794 57.8952 73.2034 57.6365 73.0794 57.4ZM66.5044 61.75L61.7544 58.3C61.5812 58.1749 61.3724 58.1086 61.1586 58.1108C60.9449 58.1131 60.7376 58.1837 60.5669 58.3125L58.9669 59.5125C58.4453 59.8962 57.8146 60.1032 57.1669 60.1032C56.5193 60.1032 55.8886 59.8962 55.3669 59.5125L54.6919 59L59.5794 54.1125H64.0669L67.4669 60.6375L66.5044 61.75ZM47.1044 52.3125L49.3044 53.4125L46.2294 59.3L44.0294 58.2L47.1044 52.3125ZM61.3544 67L54.1169 65.1875L47.9419 60.3625L51.3419 53.8375L57.4294 52.0625L58.3919 52.5L58.1669 52.6875L53.2794 57.5875C53.0751 57.7889 52.9168 58.0322 52.8154 58.3007C52.7141 58.5691 52.672 58.8564 52.6922 59.1426C52.7124 59.4289 52.7944 59.7073 52.9324 59.9589C53.0705 60.2105 53.2613 60.4292 53.4919 60.6L54.1669 61.1125C55.034 61.7577 56.0861 62.1062 57.1669 62.1062C58.2478 62.1062 59.2999 61.7577 60.1669 61.1125L61.1794 60.35L65.1294 63.225L61.3544 67ZM71.3044 58.325L69.1044 59.4375L66.0294 53.55L68.2294 52.4375L71.3044 58.325ZM56.6419 70.85C56.5867 71.067 56.461 71.2596 56.2845 71.3975C56.1081 71.5355 55.8909 71.6111 55.6669 71.6125C55.5863 71.6122 55.5062 71.5995 55.4294 71.575L51.6544 70.6375C51.3483 70.5601 51.0652 70.41 50.8294 70.2L48.0169 67.75C47.9185 67.6646 47.8377 67.5607 47.7794 67.4441C47.7211 67.3276 47.6863 67.2007 47.677 67.0707C47.6677 66.9407 47.6841 66.8101 47.7253 66.6864C47.7665 66.5628 47.8316 66.4484 47.9169 66.35C48.0023 66.2515 48.1062 66.1707 48.2228 66.1124C48.3393 66.0541 48.4662 66.0193 48.5962 66.01C48.7262 66.0007 48.8568 66.0171 48.9805 66.0583C49.1041 66.0995 49.2185 66.1646 49.3169 66.25L52.1419 68.7L55.9044 69.6375C56.1618 69.7026 56.3832 69.8661 56.5212 70.0929C56.6591 70.3196 56.7025 70.5915 56.6419 70.85Z" fill="url(#paint1_linear_1108_50667)"/>
</g>
<defs>
<filter id="filter0_d_1108_50667" x="0.667969" y="0" width="114" height="120" filterUnits="userSpaceOnUse" color-interpolation-filters="sRGB">
<feFlood flood-opacity="0" result="BackgroundImageFix"/>
<feColorMatrix in="SourceAlpha" type="matrix" values="0 0 0 0 0 0 0 0 0 0 0 0 0 0 0 0 0 0 127 0" result="hardAlpha"/>
<feOffset/>
<feGaussianBlur stdDeviation="15.5"/>
<feComposite in2="hardAlpha" operator="out"/>
<feColorMatrix type="matrix" values="0 0 0 0 1 0 0 0 0 1 0 0 0 0 1 0 0 0 0.07 0"/>
<feBlend mode="normal" in2="BackgroundImageFix" result="effect1_dropShadow_1108_50667"/>
<feBlend mode="normal" in="SourceGraphic" in2="effect1_dropShadow_1108_50667" result="shape"/>
</filter>
<linearGradient id="paint0_linear_1108_50667" x1="32.1778" y1="48.7883" x2="83.594" y2="74.3398" gradientUnits="userSpaceOnUse">
<stop stop-color="white"/>
<stop offset="1" stop-color="#71717A"/>
</linearGradient>
<linearGradient id="paint1_linear_1108_50667" x1="41.9362" y1="54.6693" x2="67.0684" y2="74.2997" gradientUnits="userSpaceOnUse">
<stop stop-color="white"/>
<stop offset="1" stop-color="#71717A"/>
</linearGradient>
<clipPath id="clip0_1108_50667">
<rect width="32" height="32" fill="white" transform="translate(41.668 44)"/>
</clipPath>
</defs>
</svg>
