<svg width="115" height="119" viewBox="0 0 115 119" fill="none" xmlns="http://www.w3.org/2000/svg">
<g filter="url(#filter0_d_1108_50662)">
<path d="M34.0989 43.8079L53.6455 31.8146C55.3896 30.7709 57.5578 30.7273 59.3327 31.7001L80.2902 43.0143C82.0542 43.9812 83.1639 45.8066 83.2051 47.8095L83.3308 69.9406C83.3719 71.9361 82.3491 73.8064 80.6379 74.8652L60.7971 87.1412C59.043 88.2265 56.8388 88.2873 55.0373 87.2999L34.5496 76.0708C32.7376 75.0777 31.3185 73.1799 31.3321 71.1218L31.3322 48.6245C31.3453 46.6541 32.3942 44.828 34.0989 43.8079Z" fill="#18181B"/>
<path d="M34.6124 44.666L34.6124 44.6661L34.6219 44.6603L54.1636 32.6699C55.6038 31.8103 57.3916 31.7765 58.8521 32.577L58.8521 32.577L58.8576 32.58L79.8095 43.8912C79.8105 43.8917 79.8114 43.8922 79.8123 43.8928C81.2604 44.6877 82.1688 46.1834 82.2052 47.8229L82.3309 69.9463L82.3309 69.9537L82.3311 69.9612C82.3648 71.5994 81.5252 73.1402 80.1117 74.0148L60.271 86.2908C58.8216 87.1876 57.0019 87.2363 55.5179 86.423L35.0303 75.1939C33.449 74.3272 32.3215 72.7251 32.3321 71.1285V71.1218L32.3322 48.6311C32.3322 48.63 32.3322 48.629 32.3322 48.6279C32.3441 47.0116 33.2053 45.508 34.6124 44.666Z" stroke="url(#paint0_linear_1108_50662)" stroke-width="2"/>
</g>
<path d="M69.8378 51.6799C69.7923 51.5096 69.7135 51.3501 69.6059 51.2105C69.4984 51.0709 69.3642 50.954 69.2112 50.8666L62.2778 46.8666C62.1265 46.7778 61.9591 46.7199 61.7852 46.696C61.6114 46.6721 61.4346 46.6828 61.2649 46.7274C61.0952 46.772 60.9359 46.8496 60.7963 46.9559C60.6567 47.0621 60.5394 47.1949 60.4512 47.3466L57.3312 52.7599L54.2112 47.3466C54.123 47.1949 54.0057 47.0621 53.866 46.9559C53.7264 46.8496 53.5672 46.772 53.3975 46.7274C53.2278 46.6828 53.051 46.6721 52.8771 46.696C52.7033 46.7199 52.5359 46.7778 52.3845 46.8666L45.4512 50.8666C45.2982 50.954 45.164 51.0709 45.0564 51.2105C44.9489 51.3501 44.87 51.5096 44.8245 51.6799C44.7363 52.0178 44.7841 52.3769 44.9578 52.6799L50.2912 61.7866C49.6962 62.8766 49.3672 64.0919 49.3312 65.3332C49.328 66.5443 49.5998 67.7402 50.1261 68.8309C50.6525 69.9216 51.4195 70.8786 52.3695 71.6297C53.3195 72.3808 54.4276 72.9064 55.6103 73.1669C56.793 73.4274 58.0195 73.416 59.1971 73.1335C60.3747 72.8511 61.4729 72.3049 62.4087 71.5363C63.3446 70.7676 64.0937 69.7965 64.5996 68.6962C65.1056 67.5959 65.3551 66.3951 65.3293 65.1843C65.3036 63.9735 65.0034 62.7844 64.4512 61.7066L69.6512 52.6932C69.748 52.5451 69.8143 52.3793 69.8464 52.2053C69.8784 52.0313 69.8755 51.8527 69.8378 51.6799ZM47.9978 52.5066L52.6112 49.8399L56.9045 57.3332C55.0744 57.4463 53.3402 58.1909 51.9978 59.4399L47.9978 52.5066ZM57.3312 70.6666C55.9167 70.6666 54.5601 70.1047 53.5599 69.1045C52.5597 68.1043 51.9978 66.7477 51.9978 65.3332C51.9978 63.9187 52.5597 62.5622 53.5599 61.562C54.5601 60.5618 55.9167 59.9999 57.3312 59.9999C58.7457 59.9999 60.1022 60.5618 61.1024 61.562C62.1026 62.5622 62.6645 63.9187 62.6645 65.3332C62.6645 66.7477 62.1026 68.1043 61.1024 69.1045C60.1022 70.1047 58.7457 70.6666 57.3312 70.6666ZM62.6645 59.3999C61.9406 58.7387 61.0995 58.2187 60.1845 57.8666L58.8778 55.4266L62.1045 49.8399L66.7178 52.5066L62.6645 59.3999Z" fill="url(#paint1_linear_1108_50662)"/>
<defs>
<filter id="filter0_d_1108_50662" x="0.332031" y="0" width="114" height="119" filterUnits="userSpaceOnUse" color-interpolation-filters="sRGB">
<feFlood flood-opacity="0" result="BackgroundImageFix"/>
<feColorMatrix in="SourceAlpha" type="matrix" values="0 0 0 0 0 0 0 0 0 0 0 0 0 0 0 0 0 0 127 0" result="hardAlpha"/>
<feOffset/>
<feGaussianBlur stdDeviation="15.5"/>
<feComposite in2="hardAlpha" operator="out"/>
<feColorMatrix type="matrix" values="0 0 0 0 1 0 0 0 0 1 0 0 0 0 1 0 0 0 0.07 0"/>
<feBlend mode="normal" in2="BackgroundImageFix" result="effect1_dropShadow_1108_50662"/>
<feBlend mode="normal" in="SourceGraphic" in2="effect1_dropShadow_1108_50662" result="shape"/>
</filter>
<linearGradient id="paint0_linear_1108_50662" x1="31.8419" y1="48.4816" x2="82.9001" y2="74.3003" gradientUnits="userSpaceOnUse">
<stop stop-color="white"/>
<stop offset="1" stop-color="#71717A"/>
</linearGradient>
<linearGradient id="paint1_linear_1108_50662" x1="44.7113" y1="52.3832" x2="70.5434" y2="65.4543" gradientUnits="userSpaceOnUse">
<stop stop-color="white"/>
<stop offset="1" stop-color="#71717A"/>
</linearGradient>
</defs>
</svg>
