<svg width="53" height="58" viewBox="0 0 53 58" fill="none" xmlns="http://www.w3.org/2000/svg">
<g clip-path="url(#clip0_1108_50667)">
<g filter="url(#filter0_d_1108_50667)">
<path d="M3.43484 13.0326L22.9815 0.828849C24.7255 -0.233089 26.8938 -0.277496 28.6686 0.712369L49.6261 12.2251C51.3902 13.2089 52.4998 15.0663 52.5411 17.1044L52.6668 39.6238C52.7079 41.6543 51.685 43.5574 49.9738 44.6347L30.1331 57.1262C28.379 58.2305 26.1747 58.2923 24.3732 57.2876L3.88557 45.8615C2.07355 44.8509 0.654416 42.9199 0.668066 40.8257L0.668161 17.9337C0.681232 15.9287 1.73012 14.0706 3.43484 13.0326Z" fill="#18181B"/>
<path d="M3.95492 13.8868L3.95495 13.8868L3.96444 13.8809L23.5061 1.6802C24.9434 0.80723 26.7247 0.773251 28.1816 1.58573L28.1815 1.58574L28.1872 1.58883L49.139 13.0985C49.1399 13.0989 49.1408 13.0994 49.1416 13.0999C50.5883 13.9079 51.5046 15.4345 51.5411 17.1176L51.6668 39.6293L51.6668 39.6367L51.667 39.644C51.701 41.3256 50.8538 42.899 49.441 43.7885L29.6003 56.2799C28.1537 57.1907 26.3405 57.2398 24.8603 56.4143L4.37265 44.9882C2.7949 44.1082 1.65734 42.4741 1.66807 40.8323V40.8257L1.66814 17.9402C1.66815 17.9392 1.66815 17.9381 1.66816 17.9371C1.68005 16.278 2.54879 14.7429 3.95492 13.8868Z" stroke="url(#paint0_linear_1108_50667)" stroke-width="2"/>
</g>
<g clip-path="url(#clip1_1108_50667)">
<path d="M42.0794 26.4L39.0044 20.5125C38.7617 20.049 38.3469 19.6991 37.8492 19.5379C37.3515 19.3767 36.8104 19.4169 36.3419 19.65L33.4294 21.1125H31.3794L27.2544 19.2375C26.8209 19.0484 26.3358 19.0131 25.8794 19.1375L19.7919 20.9125L16.9919 19.5125C16.5215 19.2836 15.9804 19.247 15.4834 19.4103C14.9863 19.5737 14.5725 19.9241 14.3294 20.3875L11.2544 26.275C11.1308 26.5093 11.055 26.766 11.0314 27.0299C11.0078 27.2938 11.0369 27.5598 11.1169 27.8125C11.2863 28.3223 11.6502 28.7446 12.1294 28.9875L15.1294 30.4875L21.8794 35.7625C22.0996 35.9373 22.3557 36.0611 22.6294 36.125L29.8794 37.9375C30.0347 37.9775 30.1942 37.9985 30.3544 38C30.8875 37.9956 31.3982 37.7851 31.7794 37.4125L36.3794 32.8125H36.3919C36.3919 32.8 36.4044 32.8 36.4044 32.7875H36.4294L38.2919 30.575L41.2044 29.1125C41.4425 28.9965 41.6549 28.8338 41.8288 28.6341C42.0027 28.4344 42.1347 28.2017 42.2169 27.95C42.2974 27.6953 42.3266 27.4272 42.303 27.1612C42.2794 26.8952 42.2034 26.6365 42.0794 26.4ZM35.5044 30.75L30.7544 27.3C30.5812 27.1749 30.3724 27.1086 30.1586 27.1108C29.9449 27.1131 29.7376 27.1837 29.5669 27.3125L27.9669 28.5125C27.4453 28.8962 26.8146 29.1032 26.1669 29.1032C25.5193 29.1032 24.8886 28.8962 24.3669 28.5125L23.6919 28L28.5794 23.1125H33.0669L36.4669 29.6375L35.5044 30.75ZM16.1044 21.3125L18.3044 22.4125L15.2294 28.3L13.0294 27.2L16.1044 21.3125ZM30.3544 36L23.1169 34.1875L16.9419 29.3625L20.3419 22.8375L26.4294 21.0625L27.3919 21.5L27.1669 21.6875L22.2794 26.5875C22.0751 26.7889 21.9168 27.0322 21.8154 27.3007C21.7141 27.5691 21.672 27.8564 21.6922 28.1426C21.7124 28.4289 21.7944 28.7073 21.9324 28.9589C22.0705 29.2105 22.2613 29.4292 22.4919 29.6L23.1669 30.1125C24.034 30.7577 25.0861 31.1062 26.1669 31.1062C27.2478 31.1062 28.2999 30.7577 29.1669 30.1125L30.1794 29.35L34.1294 32.225L30.3544 36ZM40.3044 27.325L38.1044 28.4375L35.0294 22.55L37.2294 21.4375L40.3044 27.325ZM25.6419 39.85C25.5867 40.067 25.461 40.2596 25.2845 40.3975C25.1081 40.5355 24.8909 40.6111 24.6669 40.6125C24.5863 40.6122 24.5062 40.5995 24.4294 40.575L20.6544 39.6375C20.3483 39.5601 20.0652 39.41 19.8294 39.2L17.0169 36.75C16.9185 36.6646 16.8377 36.5607 16.7794 36.4441C16.7211 36.3276 16.6863 36.2007 16.677 36.0707C16.6677 35.9407 16.6841 35.8101 16.7253 35.6864C16.7665 35.5628 16.8316 35.4484 16.9169 35.35C17.0023 35.2515 17.1062 35.1707 17.2228 35.1124C17.3393 35.0541 17.4662 35.0193 17.5962 35.01C17.7262 35.0007 17.8568 35.0171 17.9805 35.0583C18.1041 35.0995 18.2185 35.1646 18.3169 35.25L21.1419 37.7L24.9044 38.6375C25.1618 38.7026 25.3832 38.8661 25.5212 39.0929C25.6591 39.3196 25.7025 39.5915 25.6419 39.85Z" fill="black"/>
<path d="M42.0794 26.4L39.0044 20.5125C38.7617 20.049 38.3469 19.6991 37.8492 19.5379C37.3515 19.3767 36.8104 19.4169 36.3419 19.65L33.4294 21.1125H31.3794L27.2544 19.2375C26.8209 19.0484 26.3358 19.0131 25.8794 19.1375L19.7919 20.9125L16.9919 19.5125C16.5215 19.2836 15.9804 19.247 15.4834 19.4103C14.9863 19.5737 14.5725 19.9241 14.3294 20.3875L11.2544 26.275C11.1308 26.5093 11.055 26.766 11.0314 27.0299C11.0078 27.2938 11.0369 27.5598 11.1169 27.8125C11.2863 28.3223 11.6502 28.7446 12.1294 28.9875L15.1294 30.4875L21.8794 35.7625C22.0996 35.9373 22.3557 36.0611 22.6294 36.125L29.8794 37.9375C30.0347 37.9775 30.1942 37.9985 30.3544 38C30.8875 37.9956 31.3982 37.7851 31.7794 37.4125L36.3794 32.8125H36.3919C36.3919 32.8 36.4044 32.8 36.4044 32.7875H36.4294L38.2919 30.575L41.2044 29.1125C41.4425 28.9965 41.6549 28.8338 41.8288 28.6341C42.0027 28.4344 42.1347 28.2017 42.2169 27.95C42.2974 27.6953 42.3266 27.4272 42.303 27.1612C42.2794 26.8952 42.2034 26.6365 42.0794 26.4ZM35.5044 30.75L30.7544 27.3C30.5812 27.1749 30.3724 27.1086 30.1586 27.1108C29.9449 27.1131 29.7376 27.1837 29.5669 27.3125L27.9669 28.5125C27.4453 28.8962 26.8146 29.1032 26.1669 29.1032C25.5193 29.1032 24.8886 28.8962 24.3669 28.5125L23.6919 28L28.5794 23.1125H33.0669L36.4669 29.6375L35.5044 30.75ZM16.1044 21.3125L18.3044 22.4125L15.2294 28.3L13.0294 27.2L16.1044 21.3125ZM30.3544 36L23.1169 34.1875L16.9419 29.3625L20.3419 22.8375L26.4294 21.0625L27.3919 21.5L27.1669 21.6875L22.2794 26.5875C22.0751 26.7889 21.9168 27.0322 21.8154 27.3007C21.7141 27.5691 21.672 27.8564 21.6922 28.1426C21.7124 28.4289 21.7944 28.7073 21.9324 28.9589C22.0705 29.2105 22.2613 29.4292 22.4919 29.6L23.1669 30.1125C24.034 30.7577 25.0861 31.1062 26.1669 31.1062C27.2478 31.1062 28.2999 30.7577 29.1669 30.1125L30.1794 29.35L34.1294 32.225L30.3544 36ZM40.3044 27.325L38.1044 28.4375L35.0294 22.55L37.2294 21.4375L40.3044 27.325ZM25.6419 39.85C25.5867 40.067 25.461 40.2596 25.2845 40.3975C25.1081 40.5355 24.8909 40.6111 24.6669 40.6125C24.5863 40.6122 24.5062 40.5995 24.4294 40.575L20.6544 39.6375C20.3483 39.5601 20.0652 39.41 19.8294 39.2L17.0169 36.75C16.9185 36.6646 16.8377 36.5607 16.7794 36.4441C16.7211 36.3276 16.6863 36.2007 16.677 36.0707C16.6677 35.9407 16.6841 35.8101 16.7253 35.6864C16.7665 35.5628 16.8316 35.4484 16.9169 35.35C17.0023 35.2515 17.1062 35.1707 17.2228 35.1124C17.3393 35.0541 17.4662 35.0193 17.5962 35.01C17.7262 35.0007 17.8568 35.0171 17.9805 35.0583C18.1041 35.0995 18.2185 35.1646 18.3169 35.25L21.1419 37.7L24.9044 38.6375C25.1618 38.7026 25.3832 38.8661 25.5212 39.0929C25.6591 39.3196 25.7025 39.5915 25.6419 39.85Z" fill="url(#paint1_linear_1108_50667)"/>
</g>
</g>
<defs>
<filter id="filter0_d_1108_50667" x="-30.332" y="-31" width="114" height="120" filterUnits="userSpaceOnUse" color-interpolation-filters="sRGB">
<feFlood flood-opacity="0" result="BackgroundImageFix"/>
<feColorMatrix in="SourceAlpha" type="matrix" values="0 0 0 0 0 0 0 0 0 0 0 0 0 0 0 0 0 0 127 0" result="hardAlpha"/>
<feOffset/>
<feGaussianBlur stdDeviation="15.5"/>
<feComposite in2="hardAlpha" operator="out"/>
<feColorMatrix type="matrix" values="0 0 0 0 1 0 0 0 0 1 0 0 0 0 1 0 0 0 0.07 0"/>
<feBlend mode="normal" in2="BackgroundImageFix" result="effect1_dropShadow_1108_50667"/>
<feBlend mode="normal" in="SourceGraphic" in2="effect1_dropShadow_1108_50667" result="shape"/>
</filter>
<linearGradient id="paint0_linear_1108_50667" x1="1.17783" y1="17.7883" x2="52.594" y2="43.3398" gradientUnits="userSpaceOnUse">
<stop stop-color="white"/>
<stop offset="1" stop-color="#71717A"/>
</linearGradient>
<linearGradient id="paint1_linear_1108_50667" x1="10.9362" y1="23.6693" x2="36.0684" y2="43.2997" gradientUnits="userSpaceOnUse">
<stop stop-color="white"/>
<stop offset="1" stop-color="#71717A"/>
</linearGradient>
<clipPath id="clip0_1108_50667">
<rect width="52" height="58" fill="white" transform="translate(0.667969)"/>
</clipPath>
<clipPath id="clip1_1108_50667">
<rect width="32" height="32" fill="white" transform="translate(10.668 13)"/>
</clipPath>
</defs>
</svg>
