<svg width="52" height="57" viewBox="0 0 52 57" fill="none" xmlns="http://www.w3.org/2000/svg">
<g clip-path="url(#clip0_1185_59211)">
<g filter="url(#filter0_d_1185_59211)">
<path d="M2.76688 12.8079L22.3135 0.814559C24.0575 -0.22907 26.2258 -0.272712 28.0007 0.700086L48.9581 12.0143C50.7222 12.9812 51.8318 14.8066 51.8731 16.8095L51.9988 38.9406C52.0399 40.9361 51.0171 42.8064 49.3059 43.8652L29.4651 56.1412C27.711 57.2265 25.5067 57.2873 23.7053 56.2999L3.21761 45.0708C1.40558 44.0777 -0.0135523 42.1799 9.76433e-05 40.1218L0.000191899 17.6245C0.013263 15.6541 1.06215 13.828 2.76688 12.8079Z" fill="white"/>
<path d="M3.28036 13.666L3.28039 13.6661L3.28986 13.6603L22.8315 1.66994C24.2718 0.810257 26.0595 0.776518 27.52 1.57701L27.52 1.57703L27.5256 1.58004L48.4775 12.8912C48.4784 12.8917 48.4793 12.8922 48.4803 12.8928C49.9284 13.6877 50.8368 15.1834 50.8732 16.8229L50.9988 38.9463L50.9989 38.9537L50.999 38.9612C51.0328 40.5994 50.1932 42.1402 48.7797 43.0148L28.9389 55.2908C27.4896 56.1876 25.6699 56.2363 24.1859 55.423L3.69824 44.1939C2.11701 43.3272 0.989486 41.7251 1.0001 40.1285V40.1218L1.00017 17.6311C1.00018 17.63 1.00018 17.629 1.00019 17.6279C1.01202 16.0116 1.87328 14.508 3.28036 13.666Z" stroke="url(#paint0_linear_1185_59211)" stroke-width="2"/>
</g>
<path d="M27.0442 38.3337H37.453C37.7836 38.3337 38.1084 38.2475 38.3947 38.0836C38.681 37.9198 38.9187 37.6841 39.0839 37.4003C39.2492 37.1165 39.3361 36.7946 39.3359 36.4669C39.3358 36.1392 39.2486 35.8174 39.0831 35.5337L32.0929 23.5337C31.9276 23.25 31.69 23.0144 31.4037 22.8506C31.1175 22.6867 30.7928 22.6005 30.4622 22.6005C30.1317 22.6005 29.807 22.6867 29.5207 22.8506C29.2345 23.0144 28.9968 23.25 28.8316 23.5337L27.0442 26.6041L23.5496 20.6001C23.3842 20.3164 23.1464 20.0808 22.8601 19.917C22.5738 19.7532 22.249 19.667 21.9184 19.667C21.5878 19.667 21.2631 19.7532 20.9767 19.917C20.6904 20.0808 20.4526 20.3164 20.2873 20.6001L11.5888 35.5337C11.4233 35.8174 11.3361 36.1392 11.3359 36.4669C11.3358 36.7946 11.4227 37.1165 11.5879 37.4003C11.7532 37.6841 11.9909 37.9198 12.2772 38.0836C12.5635 38.2475 12.8883 38.3337 13.2189 38.3337H19.7527C22.3414 38.3337 24.2505 37.2066 25.5642 35.0079L28.7535 29.5337L30.4617 26.6041L35.5885 35.404H28.7535L27.0442 38.3337ZM19.6462 35.401L15.0864 35.4L21.9215 23.6675L25.3319 29.5337L23.0485 33.4546C22.1761 34.8813 21.185 35.401 19.6462 35.401Z" fill="url(#paint1_linear_1185_59211)"/>
</g>
<defs>
<filter id="filter0_d_1185_59211" x="-31" y="-31" width="114" height="119" filterUnits="userSpaceOnUse" color-interpolation-filters="sRGB">
<feFlood flood-opacity="0" result="BackgroundImageFix"/>
<feColorMatrix in="SourceAlpha" type="matrix" values="0 0 0 0 0 0 0 0 0 0 0 0 0 0 0 0 0 0 127 0" result="hardAlpha"/>
<feOffset/>
<feGaussianBlur stdDeviation="15.5"/>
<feComposite in2="hardAlpha" operator="out"/>
<feColorMatrix type="matrix" values="0 0 0 0 1 0 0 0 0 1 0 0 0 0 1 0 0 0 0.07 0"/>
<feBlend mode="normal" in2="BackgroundImageFix" result="effect1_dropShadow_1185_59211"/>
<feBlend mode="normal" in="SourceGraphic" in2="effect1_dropShadow_1185_59211" result="shape"/>
</filter>
<linearGradient id="paint0_linear_1185_59211" x1="0.509863" y1="17.4816" x2="51.5681" y2="43.3003" gradientUnits="userSpaceOnUse">
<stop stop-color="#E4E4E7"/>
<stop offset="1" stop-color="#71717A"/>
</linearGradient>
<linearGradient id="paint1_linear_1185_59211" x1="11.2579" y1="23.6561" x2="33.1907" y2="41.3539" gradientUnits="userSpaceOnUse">
<stop stop-color="#E4E4E7"/>
<stop offset="1" stop-color="#71717A"/>
</linearGradient>
<clipPath id="clip0_1185_59211">
<rect width="52" height="57" fill="white"/>
</clipPath>
</defs>
</svg>
