<svg width="114" height="119" viewBox="0 0 114 119" fill="none" xmlns="http://www.w3.org/2000/svg">
<g filter="url(#filter0_d_1108_50569)">
<path d="M33.7669 43.8079L53.3135 31.8146C55.0575 30.7709 57.2258 30.7273 59.0007 31.7001L79.9581 43.0143C81.7222 43.9812 82.8318 45.8066 82.8731 47.8095L82.9988 69.9406C83.0399 71.9361 82.0171 73.8064 80.3059 74.8652L60.4651 87.1412C58.711 88.2265 56.5067 88.2873 54.7053 87.2999L34.2176 76.0708C32.4056 75.0777 30.9864 73.1799 31.0001 71.1218L31.0002 48.6245C31.0133 46.6541 32.0622 44.828 33.7669 43.8079Z" fill="#18181B"/>
<path d="M80.0443 73.8386C79.9585 73.9 79.8703 73.9587 79.7797 74.0148L59.939 86.2908C58.4976 87.1826 56.6683 87.2355 55.1859 86.423L34.6982 75.1939C33.1187 74.3282 31.9895 72.7157 32.0001 71.1285L32.0001 71.1218L32.0002 48.6311C32.0002 48.63 32.0002 48.629 32.0002 48.6279C32.012 47.0116 32.8733 45.508 34.2804 44.666L34.2804 44.6661L34.2899 44.6603L53.8315 32.6699C55.264 31.8149 57.061 31.7773 58.52 32.577L58.52 32.577L58.5256 32.58L79.4775 43.8912C79.4784 43.8917 79.4793 43.8922 79.4803 43.8928C80.9269 44.6869 81.837 46.1923 81.8732 47.8229L81.9988 69.9463L81.9989 69.9537L81.999 69.9612C82.0306 71.4929 81.2962 72.9426 80.0443 73.8386Z" stroke="url(#paint0_linear_1108_50569)" stroke-width="2"/>
</g>
<path d="M58.0442 69.3337H68.453C68.7836 69.3337 69.1084 69.2475 69.3947 69.0836C69.681 68.9198 69.9187 68.6841 70.0839 68.4003C70.2492 68.1165 70.3361 67.7946 70.3359 67.4669C70.3358 67.1392 70.2486 66.8174 70.0831 66.5337L63.0929 54.5337C62.9276 54.25 62.69 54.0144 62.4037 53.8506C62.1175 53.6867 61.7928 53.6005 61.4622 53.6005C61.1317 53.6005 60.807 53.6867 60.5207 53.8506C60.2345 54.0144 59.9968 54.25 59.8316 54.5337L58.0442 57.6041L54.5496 51.6001C54.3842 51.3164 54.1464 51.0808 53.8601 50.917C53.5738 50.7532 53.249 50.667 52.9184 50.667C52.5878 50.667 52.2631 50.7532 51.9767 50.917C51.6904 51.0808 51.4526 51.3164 51.2873 51.6001L42.5888 66.5337C42.4233 66.8174 42.3361 67.1392 42.3359 67.4669C42.3358 67.7946 42.4227 68.1165 42.5879 68.4003C42.7532 68.6841 42.9909 68.9198 43.2772 69.0836C43.5635 69.2475 43.8883 69.3337 44.2189 69.3337H50.7527C53.3414 69.3337 55.2505 68.2066 56.5642 66.0079L59.7535 60.5337L61.4617 57.6041L66.5885 66.404H59.7535L58.0442 69.3337ZM50.6462 66.401L46.0864 66.4L52.9215 54.6675L56.3319 60.5337L54.0485 64.4546C53.1761 65.8813 52.185 66.401 50.6462 66.401Z" fill="url(#paint1_linear_1108_50569)"/>
<defs>
<filter id="filter0_d_1108_50569" x="0" y="0" width="114" height="119" filterUnits="userSpaceOnUse" color-interpolation-filters="sRGB">
<feFlood flood-opacity="0" result="BackgroundImageFix"/>
<feColorMatrix in="SourceAlpha" type="matrix" values="0 0 0 0 0 0 0 0 0 0 0 0 0 0 0 0 0 0 127 0" result="hardAlpha"/>
<feOffset/>
<feGaussianBlur stdDeviation="15.5"/>
<feComposite in2="hardAlpha" operator="out"/>
<feColorMatrix type="matrix" values="0 0 0 0 1 0 0 0 0 1 0 0 0 0 1 0 0 0 0.07 0"/>
<feBlend mode="normal" in2="BackgroundImageFix" result="effect1_dropShadow_1108_50569"/>
<feBlend mode="normal" in="SourceGraphic" in2="effect1_dropShadow_1108_50569" result="shape"/>
</filter>
<linearGradient id="paint0_linear_1108_50569" x1="31.5099" y1="48.4816" x2="82.5681" y2="74.3003" gradientUnits="userSpaceOnUse">
<stop stop-color="white"/>
<stop offset="1" stop-color="#71717A"/>
</linearGradient>
<linearGradient id="paint1_linear_1108_50569" x1="42.2579" y1="54.6561" x2="64.1907" y2="72.3539" gradientUnits="userSpaceOnUse">
<stop stop-color="white"/>
<stop offset="1" stop-color="#71717A"/>
</linearGradient>
</defs>
</svg>
