<svg width="341" height="164" viewBox="0 0 341 164" fill="none" xmlns="http://www.w3.org/2000/svg">
<g clip-path="url(#clip0_937_45048)">
<g filter="url(#filter0_d_937_45048)">
<rect x="16.5" y="106.5" width="39" height="39" rx="19.5" fill="#18181B" stroke="#27272A"/>
<path d="M35.9998 114.89C36.2945 114.89 36.5771 115.007 36.7855 115.215C36.9938 115.423 37.1109 115.706 37.1109 116.001V119.334C37.1109 119.629 36.9938 119.911 36.7855 120.12C36.5771 120.328 36.2945 120.445 35.9998 120.445C35.7051 120.445 35.4225 120.328 35.2141 120.12C35.0057 119.911 34.8887 119.629 34.8887 119.334V116.001C34.8887 115.706 35.0057 115.423 35.2141 115.215C35.4225 115.007 35.7051 114.89 35.9998 114.89ZM35.9998 131.556C36.2945 131.556 36.5771 131.673 36.7855 131.882C36.9938 132.09 37.1109 132.373 37.1109 132.667V136.001C37.1109 136.295 36.9938 136.578 36.7855 136.786C36.5771 136.995 36.2945 137.112 35.9998 137.112C35.7051 137.112 35.4225 136.995 35.2141 136.786C35.0057 136.578 34.8887 136.295 34.8887 136.001V132.667C34.8887 132.373 35.0057 132.09 35.2141 131.882C35.4225 131.673 35.7051 131.556 35.9998 131.556ZM47.1109 126.001C47.1109 126.295 46.9938 126.578 46.7855 126.786C46.5771 126.995 46.2945 127.112 45.9998 127.112H42.6664C42.3718 127.112 42.0891 126.995 41.8808 126.786C41.6724 126.578 41.5553 126.295 41.5553 126.001C41.5553 125.706 41.6724 125.423 41.8808 125.215C42.0891 125.007 42.3718 124.89 42.6664 124.89H45.9998C46.2945 124.89 46.5771 125.007 46.7855 125.215C46.9938 125.423 47.1109 125.706 47.1109 126.001ZM30.4442 126.001C30.4442 126.295 30.3272 126.578 30.1188 126.786C29.9104 126.995 29.6278 127.112 29.3331 127.112H25.9998C25.7051 127.112 25.4225 126.995 25.2141 126.786C25.0057 126.578 24.8887 126.295 24.8887 126.001C24.8887 125.706 25.0057 125.423 25.2141 125.215C25.4225 125.007 25.7051 124.89 25.9998 124.89H29.3331C29.6278 124.89 29.9104 125.007 30.1188 125.215C30.3272 125.423 30.4442 125.706 30.4442 126.001ZM43.8564 133.857C43.6481 134.066 43.3655 134.183 43.0709 134.183C42.7763 134.183 42.4937 134.066 42.2853 133.857L39.9287 131.501C39.7263 131.291 39.6143 131.011 39.6168 130.719C39.6193 130.428 39.7362 130.149 39.9422 129.943C40.1482 129.737 40.4269 129.62 40.7182 129.618C41.0096 129.615 41.2902 129.727 41.4998 129.93L43.8564 132.285C43.9598 132.388 44.0417 132.511 44.0976 132.646C44.1535 132.781 44.1823 132.925 44.1823 133.071C44.1823 133.217 44.1535 133.362 44.0976 133.497C44.0417 133.632 43.9598 133.754 43.8564 133.857ZM32.0709 122.072C31.8625 122.28 31.58 122.397 31.2853 122.397C30.9907 122.397 30.7081 122.28 30.4998 122.072L28.1442 119.716C27.9357 119.508 27.8186 119.225 27.8184 118.931C27.8183 118.636 27.9353 118.353 28.1437 118.145C28.352 117.936 28.6346 117.819 28.9294 117.819C29.2241 117.819 29.5068 117.936 29.7153 118.144L32.0709 120.501C32.2792 120.709 32.3962 120.992 32.3962 121.286C32.3962 121.581 32.2792 121.864 32.0709 122.072ZM28.1442 133.857C27.9359 133.649 27.8189 133.366 27.8189 133.072C27.8189 132.777 27.9359 132.495 28.1442 132.286L30.5009 129.93C30.6034 129.824 30.726 129.739 30.8616 129.681C30.9971 129.622 31.1429 129.592 31.2904 129.59C31.438 129.589 31.5843 129.617 31.7208 129.673C31.8574 129.729 31.9815 129.812 32.0858 129.916C32.1901 130.02 32.2726 130.144 32.3285 130.281C32.3843 130.417 32.4125 130.564 32.4112 130.711C32.4099 130.859 32.3792 131.005 32.321 131.14C32.2628 131.276 32.1781 131.398 32.072 131.501L29.7164 133.857C29.6133 133.961 29.4907 134.043 29.3558 134.099C29.2209 134.155 29.0764 134.183 28.9303 134.183C28.7843 134.183 28.6397 134.155 28.5048 134.099C28.37 134.043 28.2474 133.961 28.1442 133.857ZM39.9287 122.072C39.7204 121.864 39.6034 121.581 39.6034 121.286C39.6034 120.992 39.7204 120.709 39.9287 120.501L42.2842 118.144C42.4926 117.936 42.7752 117.818 43.0699 117.818C43.3647 117.818 43.6474 117.935 43.8559 118.144C44.0644 118.352 44.1816 118.635 44.1817 118.929C44.1818 119.224 44.0648 119.507 43.8564 119.715L41.4998 122.072C41.2914 122.28 41.0089 122.397 40.7142 122.397C40.4196 122.397 40.137 122.28 39.9287 122.072Z" fill="#71717A"/>
</g>
<g filter="url(#filter1_d_937_45048)">
<rect x="273.5" y="97.5" width="44" height="44" rx="22" fill="#18181B" stroke="#27272A"/>
<path d="M297.383 134L296.486 132.625C296.976 131.95 297.199 131.102 297.111 130.257C297.023 129.412 296.629 128.636 296.013 128.089C294.976 127.175 294.265 125.915 293.999 124.518C291.358 128.5 292.729 130.696 293.999 132.643L293.068 134C291.3 133.649 289.713 132.634 288.599 131.144C287.486 129.654 286.921 127.788 287.009 125.893C287.009 125.893 286.654 122.036 290.868 118.268C290.868 118.268 295.64 113.607 293.982 110.161L295.183 109C297.016 110.356 298.419 112.265 299.207 114.476C299.995 116.687 300.132 119.098 299.6 121.393C300.002 120.98 300.324 120.489 300.548 119.946L302.021 119.821C302.139 120.036 305.135 125.054 303.527 129.286C302.954 130.548 302.093 131.64 301.02 132.463C299.948 133.286 298.698 133.814 297.383 134ZM293.999 121.589L295.471 122.286C295.393 123.1 295.492 123.923 295.762 124.691C296.032 125.459 296.465 126.151 297.028 126.714C297.753 127.272 298.303 128.047 298.605 128.939C298.907 129.831 298.947 130.798 298.72 131.714C299.42 131.456 300.062 131.05 300.609 130.522C301.156 129.994 301.596 129.355 301.902 128.643C302.477 126.469 302.228 124.145 301.208 122.161C300.888 122.709 300.422 123.147 299.869 123.42C299.316 123.693 298.699 123.789 298.094 123.696L297.502 122.482C298.243 120.791 298.496 118.906 298.228 117.064C297.96 115.222 297.184 113.504 295.996 112.125C295.759 115.911 292.086 119.411 291.968 119.607C288.464 122.75 288.701 125.661 288.701 125.786C288.635 126.889 288.85 127.99 289.323 128.976C289.796 129.962 290.511 130.796 291.392 131.393C290.394 128.893 290.394 125.893 294.049 121.589H293.999Z" fill="#71717A"/>
</g>
<path fill-rule="evenodd" clip-rule="evenodd" d="M164.747 96.3002C164.747 99.5823 161.947 102.243 158.494 102.243H132.829V102.22H114.675C114.415 102.22 114.156 102.228 113.899 102.243H113.524V102.27C107.158 102.822 102.171 107.91 102.171 114.106L102.17 120.406H102.181C102.021 123.553 99.286 126.057 95.9358 126.057H46V132H95.9358C102.842 132 108.44 126.679 108.44 120.115L108.441 113.815H108.43C108.581 110.841 111.031 108.441 114.127 108.186H158.494C165.4 108.186 170.999 102.864 170.999 96.3002L171 90.0002L164.747 90V96.3002Z" fill="url(#paint0_linear_937_45048)"/>
<path fill-rule="evenodd" clip-rule="evenodd" d="M205.507 37.7446C205.347 34.5857 202.604 32.0714 199.243 32.0714H180.037V31.9656H179.544C176.081 31.9656 173.273 34.6364 173.273 37.9311V48.2556L167 48.2554L167.001 37.9311C167.001 31.3418 172.617 26 179.544 26H194.766V26.1058H199.243C206.17 26.1058 211.786 31.4476 211.786 38.037L211.787 44.3612H211.776C211.936 47.5201 214.68 50.0344 218.04 50.0344H235.234V50.0127H250.456C253.919 50.0127 256.727 47.3418 256.727 44.0471V37.7227L263 37.7229L262.999 44.0471C262.999 50.6365 257.383 55.9783 250.456 55.9783H236.25V56H218.04C211.113 56 205.497 50.6582 205.497 44.0689L205.496 37.7446H205.507Z" fill="url(#paint1_linear_937_45048)"/>
<path fill-rule="evenodd" clip-rule="evenodd" d="M79.2534 60.3002C79.2534 63.5823 82.0526 66.2429 85.5056 66.2429H111.171V66.2204H129.325C129.585 66.2204 129.844 66.228 130.101 66.2429H130.476V66.2701C136.842 66.8222 141.829 71.9105 141.829 78.1058L141.83 84.4058H141.819C141.979 87.5526 144.714 90.0573 148.064 90.0573H198V96H148.064C141.158 96 135.56 90.6787 135.56 84.1146L135.559 77.8146H135.57C135.419 74.8413 132.969 72.4413 129.873 72.1857H85.5056C78.5997 72.1857 73.0013 66.8644 73.0013 60.3002L73.0001 54.0002L79.2534 54V60.3002Z" fill="url(#paint2_linear_937_45048)"/>
<path d="M291.752 90.7641C291.752 87.5155 288.956 84.882 285.506 84.882H186V79H285.506C292.405 79 297.999 84.267 297.999 90.7641L298 96.9998L291.752 97V90.7641Z" fill="url(#paint3_linear_937_45048)"/>
<g filter="url(#filter2_d_937_45048)">
<g filter="url(#filter3_d_937_45048)">
<path d="M139.565 60.8525L164.75 45.0718C166.997 43.6986 169.791 43.6412 172.078 44.9212L199.081 59.8083C201.354 61.0805 202.783 63.4823 202.836 66.1178L202.998 95.2376C203.051 97.8633 201.734 100.324 199.529 101.717L173.965 117.87C171.705 119.298 168.864 119.378 166.543 118.079L140.146 103.304C137.811 101.997 135.983 99.4998 136 96.7919L136 67.1901C136.017 64.5974 137.369 62.1948 139.565 60.8525Z" fill="#18181B"/>
<path d="M140.086 61.7058L140.086 61.7059L140.096 61.6999L165.276 45.9223C167.216 44.7391 169.621 44.6922 171.589 45.7938L171.595 45.7969L198.592 60.6809C198.593 60.6814 198.594 60.6819 198.595 60.6824C200.55 61.778 201.788 63.8486 201.837 66.1307C201.837 66.1331 201.837 66.1355 201.837 66.1379L201.998 95.2432L201.999 95.2505L201.999 95.2578C202.045 97.5363 200.901 99.6675 198.995 100.872L173.431 117.025C171.478 118.258 169.031 118.325 167.032 117.206L140.634 102.431C138.534 101.256 136.985 99.0559 137 96.7984V96.7919L137 67.1966C137 67.1955 137 67.1945 137 67.1935C137.016 64.945 138.189 62.8655 140.086 61.7058Z" stroke="url(#paint4_linear_937_45048)" stroke-width="2"/>
</g>
<path d="M188.422 82.5001C188.421 84.2141 187.911 85.8892 186.958 87.3139C186.005 88.7386 184.651 89.8489 183.068 90.5046C181.484 91.1604 179.742 91.3321 178.06 90.9981C176.379 90.6641 174.835 89.8394 173.622 88.6282L173.55 88.5559L164.892 78.7856C164.161 78.068 163.234 77.5824 162.227 77.3897C161.22 77.1971 160.179 77.3059 159.235 77.7027C158.29 78.0994 157.483 78.7663 156.916 79.6198C156.348 80.4733 156.046 81.4753 156.046 82.5001C156.046 83.5249 156.348 84.5269 156.916 85.3803C157.483 86.2338 158.29 86.9007 159.235 87.2975C160.179 87.6942 161.22 87.8031 162.227 87.6104C163.234 87.4178 164.161 86.9322 164.892 86.2145L165.34 85.7087C165.645 85.3637 166.074 85.1539 166.534 85.1254C166.993 85.097 167.445 85.2522 167.79 85.5569C168.135 85.8616 168.345 86.2909 168.373 86.7504C168.402 87.2098 168.247 87.6617 167.942 88.0067L167.451 88.5559L167.378 88.6282C166.574 89.434 165.619 90.0734 164.567 90.5096C163.516 90.9458 162.389 91.1703 161.25 91.1703C160.112 91.1703 158.984 90.9458 157.933 90.5096C156.881 90.0734 155.926 89.434 155.122 88.6282C153.911 87.4154 153.086 85.8709 152.752 84.1898C152.418 82.5086 152.59 80.7662 153.246 79.1825C153.901 77.5989 155.012 76.2451 156.436 75.2921C157.861 74.3391 159.536 73.8297 161.25 73.8282C162.389 73.8236 163.518 74.0462 164.57 74.483C165.623 74.9198 166.577 75.5619 167.378 76.3719L167.451 76.4442L176.108 86.2145C176.84 86.9322 177.767 87.4178 178.773 87.6104C179.78 87.8031 180.821 87.6942 181.766 87.2975C182.711 86.9007 183.517 86.2338 184.085 85.3803C184.652 84.5269 184.955 83.5249 184.955 82.5001C184.955 81.4753 184.652 80.4733 184.085 79.6198C183.517 78.7663 182.711 78.0994 181.766 77.7027C180.821 77.3059 179.78 77.1971 178.773 77.3897C177.767 77.5824 176.84 78.068 176.108 78.7856L175.66 79.2915C175.355 79.6365 174.926 79.8463 174.466 79.8747C174.007 79.9032 173.555 79.748 173.21 79.4432C172.865 79.1385 172.655 78.7092 172.627 78.2498C172.598 77.7903 172.754 77.3384 173.058 76.9934L173.55 76.4442L173.622 76.3719C174.835 75.1607 176.379 74.336 178.06 74.002C179.742 73.6681 181.484 73.8398 183.068 74.4955C184.651 75.1512 186.005 76.2615 186.958 77.6862C187.911 79.1109 188.421 80.786 188.422 82.5001Z" fill="url(#paint5_linear_937_45048)"/>
</g>
<g filter="url(#filter4_d_937_45048)">
<rect x="54.5" y="11.5" width="45" height="45" rx="22.5" fill="#18181B" stroke="#27272A"/>
<path d="M69 44.6663L74.5467 28.5463L73.4533 25.9997H71.6667V23.333H74.3333C74.8933 23.333 75.3733 23.6797 75.5733 24.173L83.2133 41.9997H85V44.6663H82.3333C81.76 44.6663 81.28 44.3063 81.0933 43.813L76.1067 32.1997L71.8267 44.6663H69Z" fill="#71717A"/>
</g>
<g filter="url(#filter5_d_937_45048)">
<rect x="239.5" y="3.5" width="40" height="40" rx="20" fill="#18181B" stroke="#27272A"/>
<path d="M271.238 26.4723C271.271 26.5908 271.281 26.7148 271.266 26.8371C271.251 26.9594 271.212 27.0775 271.151 27.1844C271.09 27.2914 271.008 27.3851 270.91 27.46C270.812 27.5349 270.701 27.5896 270.581 27.6208L267.64 28.4176L268.425 31.3473C268.459 31.4658 268.468 31.5898 268.454 31.7121C268.439 31.8344 268.4 31.9525 268.338 32.0594C268.277 32.1664 268.195 32.2601 268.098 32.335C268 32.4099 267.888 32.4646 267.769 32.4958L267.523 32.5309C267.317 32.5304 267.118 32.4625 266.955 32.3376C266.792 32.2127 266.674 32.0377 266.621 31.8395L265.695 28.3708L260.937 25.6286V31.1129L263.48 33.6442C263.656 33.8219 263.755 34.062 263.755 34.3122C263.755 34.5623 263.656 34.8024 263.48 34.9801C263.301 35.1534 263.061 35.2503 262.812 35.2503C262.563 35.2503 262.323 35.1534 262.144 34.9801L259.999 32.8239L257.855 34.9801C257.673 35.1296 257.441 35.206 257.206 35.1945C256.971 35.1829 256.748 35.0842 256.581 34.9176C256.415 34.751 256.316 34.5283 256.305 34.293C256.293 34.0576 256.369 33.8263 256.519 33.6442L259.062 31.1129V25.6286L254.304 28.3708L253.378 31.8395C253.324 32.0377 253.207 32.2127 253.044 32.3376C252.881 32.4625 252.681 32.5304 252.476 32.5309L252.23 32.4958C252.111 32.4646 251.999 32.4099 251.901 32.335C251.803 32.2601 251.722 32.1664 251.66 32.0594C251.599 31.9525 251.56 31.8344 251.545 31.7121C251.53 31.5898 251.54 31.4658 251.574 31.3473L252.359 28.4176L249.417 27.6208C249.291 27.5955 249.172 27.5446 249.066 27.4712C248.961 27.3979 248.872 27.3036 248.804 27.1943C248.736 27.0849 248.692 26.9629 248.674 26.8357C248.655 26.7085 248.663 26.5788 248.697 26.4548C248.731 26.3309 248.79 26.2151 248.87 26.1149C248.951 26.0146 249.051 25.932 249.165 25.8721C249.278 25.8122 249.403 25.7763 249.531 25.7667C249.659 25.757 249.788 25.7738 249.91 25.8161L253.367 26.7418L258.124 23.9997L253.367 21.2575L249.91 22.1833C249.83 22.2064 249.747 22.2183 249.663 22.2184C249.438 22.2165 249.22 22.1331 249.051 21.9838C248.882 21.8344 248.772 21.629 248.742 21.4052C248.712 21.1815 248.764 20.9545 248.888 20.7659C249.012 20.5773 249.2 20.4398 249.417 20.3786L252.359 19.5817L251.574 16.652C251.527 16.4191 251.57 16.1772 251.695 15.9751C251.82 15.773 252.017 15.6259 252.246 15.5634C252.475 15.5009 252.72 15.5277 252.93 15.6384C253.14 15.7491 253.3 15.9355 253.378 16.1598L254.304 19.6286L259.062 22.3708V16.8864L256.519 14.3551C256.369 14.173 256.293 13.9417 256.305 13.7064C256.316 13.471 256.415 13.2484 256.581 13.0817C256.748 12.9151 256.971 12.8164 257.206 12.8049C257.441 12.7933 257.673 12.8697 257.855 13.0192L259.999 15.1754L262.144 13.0192C262.326 12.8697 262.557 12.7933 262.793 12.8049C263.028 12.8164 263.251 12.9151 263.417 13.0817C263.584 13.2484 263.683 13.471 263.694 13.7064C263.706 13.9417 263.629 14.173 263.48 14.3551L260.937 16.8864V22.3708L265.695 19.6286L266.621 16.1598C266.646 16.0338 266.697 15.9143 266.77 15.8088C266.843 15.7033 266.938 15.614 267.047 15.5464C267.156 15.4789 267.278 15.4345 267.406 15.4161C267.533 15.3977 267.662 15.4057 267.786 15.4395C267.91 15.4733 268.026 15.5323 268.126 15.6127C268.227 15.6931 268.309 15.7933 268.369 15.907C268.429 16.0207 268.465 16.1455 268.475 16.2737C268.484 16.4018 268.467 16.5306 268.425 16.652L267.64 19.5817L270.581 20.3786C270.799 20.4398 270.987 20.5773 271.111 20.7659C271.235 20.9545 271.286 21.1815 271.256 21.4052C271.227 21.629 271.117 21.8344 270.948 21.9838C270.778 22.1331 270.561 22.2165 270.335 22.2184L270.089 22.1833L266.632 21.2575L261.874 23.9997L266.632 26.7418L270.089 25.8161C270.208 25.7824 270.332 25.7728 270.454 25.7877C270.576 25.8026 270.694 25.8417 270.801 25.9029C270.908 25.964 271.002 26.0458 271.077 26.1436C271.152 26.2414 271.207 26.3531 271.238 26.4723Z" fill="#71717A"/>
</g>
</g>
<defs>
<filter id="filter0_d_937_45048" x="4" y="94" width="64" height="64" filterUnits="userSpaceOnUse" color-interpolation-filters="sRGB">
<feFlood flood-opacity="0" result="BackgroundImageFix"/>
<feColorMatrix in="SourceAlpha" type="matrix" values="0 0 0 0 0 0 0 0 0 0 0 0 0 0 0 0 0 0 127 0" result="hardAlpha"/>
<feOffset/>
<feGaussianBlur stdDeviation="6"/>
<feComposite in2="hardAlpha" operator="out"/>
<feColorMatrix type="matrix" values="0 0 0 0 1 0 0 0 0 1 0 0 0 0 1 0 0 0 0.1 0"/>
<feBlend mode="normal" in2="BackgroundImageFix" result="effect1_dropShadow_937_45048"/>
<feBlend mode="normal" in="SourceGraphic" in2="effect1_dropShadow_937_45048" result="shape"/>
</filter>
<filter id="filter1_d_937_45048" x="261" y="85" width="69" height="69" filterUnits="userSpaceOnUse" color-interpolation-filters="sRGB">
<feFlood flood-opacity="0" result="BackgroundImageFix"/>
<feColorMatrix in="SourceAlpha" type="matrix" values="0 0 0 0 0 0 0 0 0 0 0 0 0 0 0 0 0 0 127 0" result="hardAlpha"/>
<feOffset/>
<feGaussianBlur stdDeviation="6"/>
<feComposite in2="hardAlpha" operator="out"/>
<feColorMatrix type="matrix" values="0 0 0 0 1 0 0 0 0 1 0 0 0 0 1 0 0 0 0.1 0"/>
<feBlend mode="normal" in2="BackgroundImageFix" result="effect1_dropShadow_937_45048"/>
<feBlend mode="normal" in="SourceGraphic" in2="effect1_dropShadow_937_45048" result="shape"/>
</filter>
<filter id="filter2_d_937_45048" x="105" y="13" width="129" height="137" filterUnits="userSpaceOnUse" color-interpolation-filters="sRGB">
<feFlood flood-opacity="0" result="BackgroundImageFix"/>
<feColorMatrix in="SourceAlpha" type="matrix" values="0 0 0 0 0 0 0 0 0 0 0 0 0 0 0 0 0 0 127 0" result="hardAlpha"/>
<feOffset/>
<feGaussianBlur stdDeviation="15.5"/>
<feComposite in2="hardAlpha" operator="out"/>
<feColorMatrix type="matrix" values="0 0 0 0 1 0 0 0 0 1 0 0 0 0 1 0 0 0 0.07 0"/>
<feBlend mode="normal" in2="BackgroundImageFix" result="effect1_dropShadow_937_45048"/>
<feBlend mode="normal" in="SourceGraphic" in2="effect1_dropShadow_937_45048" result="shape"/>
</filter>
<filter id="filter3_d_937_45048" x="105.718" y="13.718" width="127.564" height="135.564" filterUnits="userSpaceOnUse" color-interpolation-filters="sRGB">
<feFlood flood-opacity="0" result="BackgroundImageFix"/>
<feColorMatrix in="SourceAlpha" type="matrix" values="0 0 0 0 0 0 0 0 0 0 0 0 0 0 0 0 0 0 127 0" result="hardAlpha"/>
<feOffset/>
<feGaussianBlur stdDeviation="15.141"/>
<feComposite in2="hardAlpha" operator="out"/>
<feColorMatrix type="matrix" values="0 0 0 0 1 0 0 0 0 1 0 0 0 0 1 0 0 0 0.07 0"/>
<feBlend mode="normal" in2="BackgroundImageFix" result="effect1_dropShadow_937_45048"/>
<feBlend mode="normal" in="SourceGraphic" in2="effect1_dropShadow_937_45048" result="shape"/>
</filter>
<filter id="filter4_d_937_45048" x="42" y="-1" width="70" height="70" filterUnits="userSpaceOnUse" color-interpolation-filters="sRGB">
<feFlood flood-opacity="0" result="BackgroundImageFix"/>
<feColorMatrix in="SourceAlpha" type="matrix" values="0 0 0 0 0 0 0 0 0 0 0 0 0 0 0 0 0 0 127 0" result="hardAlpha"/>
<feOffset/>
<feGaussianBlur stdDeviation="6"/>
<feComposite in2="hardAlpha" operator="out"/>
<feColorMatrix type="matrix" values="0 0 0 0 1 0 0 0 0 1 0 0 0 0 1 0 0 0 0.1 0"/>
<feBlend mode="normal" in2="BackgroundImageFix" result="effect1_dropShadow_937_45048"/>
<feBlend mode="normal" in="SourceGraphic" in2="effect1_dropShadow_937_45048" result="shape"/>
</filter>
<filter id="filter5_d_937_45048" x="227" y="-9" width="65" height="65" filterUnits="userSpaceOnUse" color-interpolation-filters="sRGB">
<feFlood flood-opacity="0" result="BackgroundImageFix"/>
<feColorMatrix in="SourceAlpha" type="matrix" values="0 0 0 0 0 0 0 0 0 0 0 0 0 0 0 0 0 0 127 0" result="hardAlpha"/>
<feOffset/>
<feGaussianBlur stdDeviation="6"/>
<feComposite in2="hardAlpha" operator="out"/>
<feColorMatrix type="matrix" values="0 0 0 0 1 0 0 0 0 1 0 0 0 0 1 0 0 0 0.1 0"/>
<feBlend mode="normal" in2="BackgroundImageFix" result="effect1_dropShadow_937_45048"/>
<feBlend mode="normal" in="SourceGraphic" in2="effect1_dropShadow_937_45048" result="shape"/>
</filter>
<linearGradient id="paint0_linear_937_45048" x1="134.566" y1="99.6483" x2="52.1798" y2="130.015" gradientUnits="userSpaceOnUse">
<stop stop-color="#3F3F46"/>
<stop offset="0.541667" stop-color="#3F3F46"/>
<stop offset="0.973958" stop-color="#3F3F46" stop-opacity="0"/>
</linearGradient>
<linearGradient id="paint1_linear_937_45048" x1="178.2" y1="50.1548" x2="264.902" y2="32.7713" gradientUnits="userSpaceOnUse">
<stop stop-color="#3F3F46"/>
<stop offset="0.541667" stop-color="#3F3F46"/>
<stop offset="0.973958" stop-color="#3F3F46" stop-opacity="0"/>
</linearGradient>
<linearGradient id="paint2_linear_937_45048" x1="128.814" y1="81.2429" x2="71.1068" y2="60.0332" gradientUnits="userSpaceOnUse">
<stop stop-color="#3F3F46"/>
<stop offset="0.541667" stop-color="#3F3F46"/>
<stop offset="0.973958" stop-color="#3F3F46" stop-opacity="0"/>
</linearGradient>
<linearGradient id="paint3_linear_937_45048" x1="247.991" y1="85.3245" x2="284.893" y2="113.68" gradientUnits="userSpaceOnUse">
<stop stop-color="#3F3F46"/>
<stop offset="0.541667" stop-color="#3F3F46"/>
<stop offset="0.973958" stop-color="#3F3F46" stop-opacity="0"/>
</linearGradient>
<linearGradient id="paint4_linear_937_45048" x1="136.657" y1="67.0021" x2="202.999" y2="99.8526" gradientUnits="userSpaceOnUse">
<stop stop-color="#36E4DA"/>
<stop offset="1" stop-color="#117D77"/>
</linearGradient>
<linearGradient id="paint5_linear_937_45048" x1="152.486" y1="77.5342" x2="173.217" y2="100.579" gradientUnits="userSpaceOnUse">
<stop stop-color="#36E4DA"/>
<stop offset="1" stop-color="#117D77"/>
</linearGradient>
<clipPath id="clip0_937_45048">
<rect width="341" height="164" fill="white"/>
</clipPath>
</defs>
</svg>
