<svg width="491" height="422" viewBox="0 0 491 422" fill="none" xmlns="http://www.w3.org/2000/svg">
<g clip-path="url(#clip0_3322_14951)">
<circle cx="444" cy="377" r="250.5" stroke="#A1A1AA" stroke-linecap="round" stroke-dasharray="5 5"/>
<circle cx="441" cy="376" r="174.5" stroke="#A1A1AA" stroke-linecap="round" stroke-dasharray="5 5"/>
<g filter="url(#filter0_d_3322_14951)">
<circle cx="438.5" cy="374.5" r="106.5" fill="#FAFAFA"/>
</g>
<g filter="url(#filter1_d_3322_14951)">
<circle cx="412.838" cy="216.173" r="4.83873" fill="#4429AB"/>
</g>
<g filter="url(#filter2_d_3322_14951)">
<circle cx="389.932" cy="29.8374" r="29.4542" fill="#FAFAFA"/>
</g>
<path fill-rule="evenodd" clip-rule="evenodd" d="M370.987 40.2657C372.258 39.5845 381.219 30.8012 385.482 26.5239L386.268 23.5857L387.263 23.6816L391.636 32.3311L391.635 32.3312L395.976 40.8769L395.447 41.7256L392.637 40.5629C386.649 41.3474 374.1 43.1641 372.786 43.7593L371.924 42.0649L371.921 42.0665L370.987 40.2657Z" fill="#CFCFCF"/>
<circle cx="382.702" cy="42.2797" r="2.59642" transform="rotate(-1.75762 382.702 42.2797)" stroke="#CFCFCF" stroke-width="1.5"/>
<path d="M395.971 17.8048L390.183 12.7063L384.438 17.854L376.889 18.5145L376.32 26.3906L378.269 27.1615L378.761 20.3584L385.277 19.7883L390.194 15.3816L395.149 19.7462L401.669 20.2607L402.219 27.0594L406.518 32.2736L402.264 37.5244L401.772 44.3275L395.256 44.8976L396.095 46.8319L403.644 46.1713L404.213 38.2953L409.102 32.2626L404.162 26.2719L403.526 18.4009L395.971 17.8048Z" fill="#4429AB"/>
<line x1="395.043" y1="78.0592" x2="409.32" y2="195.558" stroke="#4429AB" stroke-width="2"/>
<g filter="url(#filter3_d_3322_14951)">
<circle cx="215.447" cy="325.775" r="4.83873" transform="rotate(-77.2039 215.447 325.775)" fill="#4429AB"/>
</g>
<line x1="72.0258" y1="311.854" x2="189.768" y2="323.955" stroke="#4429AB" stroke-width="2"/>
<g filter="url(#filter4_d_3322_14951)">
<circle cx="29.1657" cy="306.927" r="29.4542" fill="#FAFAFA"/>
</g>
<rect x="27.1851" y="298.283" width="8.82643" height="13.9533" fill="#4429AB"/>
<rect x="14.1996" y="307.46" width="10.8519" height="4.79329" fill="#4429AB"/>
<rect x="18.2011" y="301.447" width="6.85047" height="4.06262" fill="#4429AB"/>
<path fill-rule="evenodd" clip-rule="evenodd" d="M42.485 297.349C43.907 297.349 45.5507 296.244 45.5507 294.822C45.5507 293.4 44.398 292.247 42.976 292.247C41.6159 292.247 40.502 293.302 40.4078 294.638L40.3616 294.632L37.8084 314.496H13.2178V316.948H18.0515C17.5516 317.414 17.2388 318.078 17.2388 318.814C17.2388 320.222 18.3798 321.363 19.7874 321.363C21.1949 321.363 22.3359 320.222 22.3359 318.814C22.3359 318.078 22.0231 317.414 21.5233 316.948H31.2288C30.7729 317.409 30.4914 318.042 30.4914 318.741C30.4914 320.149 31.6324 321.29 33.04 321.29C34.4474 321.29 35.5884 320.149 35.5884 318.741C35.5884 318.042 35.3069 317.409 34.851 316.948H38.0076C39.2487 316.948 40.2548 315.942 40.2548 314.701L42.485 297.349Z" fill="#C4C4C4"/>
</g>
<defs>
<filter id="filter0_d_3322_14951" x="328" y="265" width="221" height="221" filterUnits="userSpaceOnUse" color-interpolation-filters="sRGB">
<feFlood flood-opacity="0" result="BackgroundImageFix"/>
<feColorMatrix in="SourceAlpha" type="matrix" values="0 0 0 0 0 0 0 0 0 0 0 0 0 0 0 0 0 0 127 0" result="hardAlpha"/>
<feOffset dy="1"/>
<feGaussianBlur stdDeviation="2"/>
<feComposite in2="hardAlpha" operator="out"/>
<feColorMatrix type="matrix" values="0 0 0 0 0 0 0 0 0 0 0 0 0 0 0 0 0 0 0.25 0"/>
<feBlend mode="normal" in2="BackgroundImageFix" result="effect1_dropShadow_3322_14951"/>
<feBlend mode="normal" in="SourceGraphic" in2="effect1_dropShadow_3322_14951" result="shape"/>
</filter>
<filter id="filter1_d_3322_14951" x="400.999" y="205.334" width="23.6774" height="23.6775" filterUnits="userSpaceOnUse" color-interpolation-filters="sRGB">
<feFlood flood-opacity="0" result="BackgroundImageFix"/>
<feColorMatrix in="SourceAlpha" type="matrix" values="0 0 0 0 0 0 0 0 0 0 0 0 0 0 0 0 0 0 127 0" result="hardAlpha"/>
<feMorphology radius="3" operator="dilate" in="SourceAlpha" result="effect1_dropShadow_3322_14951"/>
<feOffset dy="1"/>
<feGaussianBlur stdDeviation="2"/>
<feComposite in2="hardAlpha" operator="out"/>
<feColorMatrix type="matrix" values="0 0 0 0 0.266667 0 0 0 0 0.160784 0 0 0 0 0.670588 0 0 0 0.25 0"/>
<feBlend mode="normal" in2="BackgroundImageFix" result="effect1_dropShadow_3322_14951"/>
<feBlend mode="normal" in="SourceGraphic" in2="effect1_dropShadow_3322_14951" result="shape"/>
</filter>
<filter id="filter2_d_3322_14951" x="356.478" y="-2.61682" width="66.9084" height="66.9084" filterUnits="userSpaceOnUse" color-interpolation-filters="sRGB">
<feFlood flood-opacity="0" result="BackgroundImageFix"/>
<feColorMatrix in="SourceAlpha" type="matrix" values="0 0 0 0 0 0 0 0 0 0 0 0 0 0 0 0 0 0 127 0" result="hardAlpha"/>
<feOffset dy="1"/>
<feGaussianBlur stdDeviation="2"/>
<feComposite in2="hardAlpha" operator="out"/>
<feColorMatrix type="matrix" values="0 0 0 0 0 0 0 0 0 0 0 0 0 0 0 0 0 0 0.25 0"/>
<feBlend mode="normal" in2="BackgroundImageFix" result="effect1_dropShadow_3322_14951"/>
<feBlend mode="normal" in="SourceGraphic" in2="effect1_dropShadow_3322_14951" result="shape"/>
</filter>
<filter id="filter3_d_3322_14951" x="203.607" y="314.936" width="23.6796" height="23.6796" filterUnits="userSpaceOnUse" color-interpolation-filters="sRGB">
<feFlood flood-opacity="0" result="BackgroundImageFix"/>
<feColorMatrix in="SourceAlpha" type="matrix" values="0 0 0 0 0 0 0 0 0 0 0 0 0 0 0 0 0 0 127 0" result="hardAlpha"/>
<feMorphology radius="3" operator="dilate" in="SourceAlpha" result="effect1_dropShadow_3322_14951"/>
<feOffset dy="1"/>
<feGaussianBlur stdDeviation="2"/>
<feComposite in2="hardAlpha" operator="out"/>
<feColorMatrix type="matrix" values="0 0 0 0 0.266667 0 0 0 0 0.160784 0 0 0 0 0.670588 0 0 0 0.25 0"/>
<feBlend mode="normal" in2="BackgroundImageFix" result="effect1_dropShadow_3322_14951"/>
<feBlend mode="normal" in="SourceGraphic" in2="effect1_dropShadow_3322_14951" result="shape"/>
</filter>
<filter id="filter4_d_3322_14951" x="-4.28851" y="274.472" width="66.9085" height="66.9084" filterUnits="userSpaceOnUse" color-interpolation-filters="sRGB">
<feFlood flood-opacity="0" result="BackgroundImageFix"/>
<feColorMatrix in="SourceAlpha" type="matrix" values="0 0 0 0 0 0 0 0 0 0 0 0 0 0 0 0 0 0 127 0" result="hardAlpha"/>
<feOffset dy="1"/>
<feGaussianBlur stdDeviation="2"/>
<feComposite in2="hardAlpha" operator="out"/>
<feColorMatrix type="matrix" values="0 0 0 0 0 0 0 0 0 0 0 0 0 0 0 0 0 0 0.25 0"/>
<feBlend mode="normal" in2="BackgroundImageFix" result="effect1_dropShadow_3322_14951"/>
<feBlend mode="normal" in="SourceGraphic" in2="effect1_dropShadow_3322_14951" result="shape"/>
</filter>
<clipPath id="clip0_3322_14951">
<rect width="491" height="422" fill="white"/>
</clipPath>
</defs>
</svg>
