<svg width="313" height="239" viewBox="0 0 313 239" fill="none" xmlns="http://www.w3.org/2000/svg">
<path d="M28.6355 198.903L73.5812 224.888M28.6355 198.903C24.5298 196.529 22 192.139 22 187.387M28.6355 198.903L28.5621 198.861C24.5011 196.513 22 192.178 22 187.487L22 187.387M73.5812 224.888C77.5944 227.208 82.5243 227.26 86.5849 225.024M73.5812 224.888V224.888C77.5645 227.191 82.5543 227.243 86.5849 225.024V225.024M86.5849 225.024L134.123 198.853M134.123 198.853C138.364 196.518 141 192.052 141 187.2M134.123 198.853L134.198 198.811C138.394 196.502 141 192.092 141 187.303L141 187.2M141 187.2L141 81.4711M141 81.4711C141 76.6479 138.395 72.2031 134.192 69.8567M141 81.4711L141 81.3693C141 76.6081 138.424 72.2195 134.267 69.8985L134.192 69.8567M134.192 69.8567L86.6556 43.316M86.6556 43.316C82.5586 41.0285 77.5611 41.0812 73.513 43.4547M86.6556 43.316V43.316C82.589 41.0455 77.5309 41.099 73.513 43.4547V43.4547M73.513 43.4547L28.5656 69.8083M28.5656 69.8083C24.4993 72.1924 22 76.5608 22 81.2839M28.5656 69.8083L28.4927 69.851C24.4709 72.2091 22 76.5221 22 81.1842L22 81.2839M22 81.2839L22 187.387" stroke="#00DC82" stroke-width="9.11106"/>
<path d="M264.536 10.1894L242.253 23.151M264.536 10.1894C266.571 9.00543 269.086 8.99796 271.132 10.1699M264.536 10.1894V10.1894C266.572 9.0053 269.088 8.99923 271.132 10.1699V10.1699M242.253 23.151C240.264 24.3083 239.025 26.4202 238.984 28.7215M242.253 23.151V23.151C240.264 24.308 239.025 26.4206 238.984 28.7215V28.7215M238.984 28.7215L238.515 55.6626M238.515 55.6626C238.473 58.0663 239.745 60.3036 241.833 61.5001M238.515 55.6626V55.6626C238.473 58.0665 239.747 60.305 241.833 61.5001V61.5001M241.833 61.5001L265.447 75.0275M265.447 75.0275C267.523 76.2169 270.08 76.1902 272.128 74.9577M265.447 75.0275V75.0275C267.521 76.2156 270.08 76.1904 272.128 74.9577V74.9577M272.128 74.9577L295.289 61.0168M295.289 61.0168C297.285 59.8152 298.496 57.6485 298.474 55.3186M295.289 61.0168V61.0168C297.285 59.8155 298.496 57.648 298.474 55.3186V55.3186M298.474 55.3186L298.226 29.449M298.226 29.449C298.203 27.1086 296.94 24.9542 294.906 23.7894M298.226 29.449V29.449C298.203 27.1084 296.938 24.9529 294.906 23.7894V23.7894M294.906 23.7894L271.132 10.1699" stroke="#00DC82" stroke-width="6.62209"/>
<path d="M193.536 111.19L171.253 124.151M193.536 111.19C195.571 110.006 198.086 109.998 200.132 111.17M193.536 111.19V111.19C195.571 110.006 198.088 109.999 200.132 111.17V111.17M171.253 124.151C169.264 125.309 168.024 127.42 167.984 129.722M171.253 124.151V124.151C169.264 125.308 168.024 127.421 167.984 129.722V129.722M167.984 129.722L167.515 156.663M167.515 156.663C167.473 159.067 168.745 161.304 170.833 162.5M167.515 156.663V156.663C167.473 159.067 168.747 161.305 170.833 162.5V162.5M170.833 162.5L194.447 176.028M194.447 176.028C196.523 177.217 199.08 177.19 201.128 175.958M194.447 176.028V176.028C196.521 177.216 199.08 177.191 201.128 175.958V175.958M201.128 175.958L224.289 162.017M224.289 162.017C226.285 160.815 227.496 158.649 227.474 156.319M224.289 162.017V162.017C226.285 160.816 227.496 158.648 227.474 156.319V156.319M227.474 156.319L227.225 130.449M227.225 130.449C227.203 128.109 225.939 125.954 223.906 124.79M227.225 130.449V130.449C227.203 128.109 225.937 125.953 223.906 124.79V124.79M223.906 124.79L200.132 111.17" stroke="#00DC82" stroke-width="6.62209"/>
</svg>
