<svg width="28" height="28" viewBox="0 0 28 28" fill="none" xmlns="http://www.w3.org/2000/svg">
<path d="M14.0001 0.995605C10.8341 0.995737 7.7714 2.12242 5.36007 4.17407C2.94874 6.22571 1.34612 9.06843 0.838962 12.1936C0.331805 15.3187 0.953208 18.5224 2.59198 21.2313C4.23076 23.9402 6.77997 25.9776 9.78348 26.9789C10.4501 27.0956 10.7001 26.6956 10.7001 26.3456C10.7001 26.0289 10.6835 24.9789 10.6835 23.8623C7.33345 24.4789 6.46678 23.0456 6.20012 22.2956C5.90422 21.5662 5.43515 20.9198 4.83345 20.4123C4.36678 20.1623 3.70012 19.5456 4.81677 19.529C5.24315 19.5752 5.6521 19.7236 6.00896 19.9615C6.36582 20.1994 6.66007 20.5198 6.86678 20.8956C7.04915 21.2232 7.29436 21.5116 7.58837 21.7443C7.88238 21.9769 8.21942 22.1493 8.58016 22.2515C8.9409 22.3537 9.31827 22.3837 9.69062 22.3397C10.063 22.2958 10.423 22.1789 10.7501 21.9956C10.8078 21.3178 11.1099 20.684 11.6001 20.2123C8.63345 19.879 5.53345 18.7289 5.53345 13.629C5.51471 12.3038 6.0037 11.0217 6.90012 10.0456C6.49249 8.89394 6.54019 7.63002 7.03345 6.51231C7.03345 6.51231 8.15008 6.1623 10.7001 7.87898C12.8818 7.27894 15.1851 7.27894 17.3668 7.87898C19.9168 6.14565 21.0335 6.51231 21.0335 6.51231C21.5268 7.63001 21.5745 8.89395 21.1668 10.0456C22.0659 11.0201 22.5553 12.3033 22.5335 13.629C22.5335 18.7456 19.4168 19.879 16.4501 20.2123C16.7683 20.5348 17.0134 20.922 17.1687 21.3477C17.324 21.7733 17.3859 22.2273 17.3501 22.679C17.3501 24.4623 17.3334 25.8956 17.3334 26.3456C17.3334 26.6957 17.5834 27.1123 18.2501 26.979C21.2483 25.9695 23.7902 23.9273 25.422 21.217C27.0538 18.5067 27.6693 15.3047 27.1586 12.1826C26.648 9.06046 25.0444 6.22143 22.6341 4.17229C20.2238 2.12314 17.1637 0.997252 14.0001 0.995605Z" fill="#0C0C0D"/>
</svg>
