<svg width="153" height="167" viewBox="0 0 153 167" fill="none" xmlns="http://www.w3.org/2000/svg">
<g filter="url(#filter0_b_6466_60332)">
<path d="M66.3187 163.982L8.5314 129.089C3.23632 125.892 1.35267e-05 120.158 1.32673e-05 113.972L1.32527e-05 113.625L-4.8259e-06 53.9395L-4.84024e-06 53.5976C-5.09815e-06 47.4483 3.19729 41.7413 8.4415 38.53L66.231 3.14253C71.4357 -0.0445894 77.861 -0.115421 83.1287 2.95622L144.247 38.595C149.667 41.7556 153 47.5576 153 53.8319L153 54.1908L153 113.375L153 113.739C153 120.048 149.628 125.877 144.158 129.022L83.0378 164.165C77.8169 167.167 71.4785 167.098 66.3187 163.982Z" fill="url(#paint0_linear_6466_60332)" fill-opacity="0.3"/>
</g>
<defs>
<filter id="filter0_b_6466_60332" x="-15.0267" y="-14.3256" width="183.053" height="195.72" filterUnits="userSpaceOnUse" color-interpolation-filters="sRGB">
<feFlood flood-opacity="0" result="BackgroundImageFix"/>
<feGaussianBlur in="BackgroundImage" stdDeviation="7.51337"/>
<feComposite in2="SourceAlpha" operator="in" result="effect1_backgroundBlur_6466_60332"/>
<feBlend mode="normal" in="SourceGraphic" in2="effect1_backgroundBlur_6466_60332" result="shape"/>
</filter>
<linearGradient id="paint0_linear_6466_60332" x1="76.4099" y1="169" x2="-21.4971" y2="-38.6187" gradientUnits="userSpaceOnUse">
<stop stop-color="#00DC82"/>
<stop offset="0.5" stop-color="#36E4DA"/>
<stop offset="1" stop-color="#0047E1"/>
</linearGradient>
</defs>
</svg>
