<svg width="52" height="58" viewBox="0 0 52 58" fill="none" xmlns="http://www.w3.org/2000/svg">
<g filter="url(#filter0_b_6466_60347)">
<path d="M22.5397 56.298L2.89956 44.4631C1.10017 43.3788 4.59863e-06 41.4314 4.51051e-06 39.3305L4.50579e-06 39.2179L-1.63685e-06 18.9736L-1.64151e-06 18.8626C-1.72911e-06 16.7741 1.0869 14.8361 2.86901 13.747L22.5099 1.74426C24.2788 0.663249 26.4626 0.63922 28.2529 1.68106L49.025 13.7691C50.8669 14.8409 52 16.8113 52 18.9423L52 19.0589L52 39.133L52 39.2511C52 41.3942 50.8537 43.3736 48.9949 44.4402L28.222 56.3601C26.4476 57.3783 24.2933 57.3548 22.5397 56.298Z" fill="url(#paint0_linear_6466_60347)" fill-opacity="0.3"/>
</g>
<defs>
<filter id="filter0_b_6466_60347" x="-15.0267" y="-14.1107" width="82.0535" height="86.2449" filterUnits="userSpaceOnUse" color-interpolation-filters="sRGB">
<feFlood flood-opacity="0" result="BackgroundImageFix"/>
<feGaussianBlur in="BackgroundImage" stdDeviation="7.51337"/>
<feComposite in2="SourceAlpha" operator="in" result="effect1_backgroundBlur_6466_60347"/>
<feBlend mode="normal" in="SourceGraphic" in2="effect1_backgroundBlur_6466_60347" result="shape"/>
</filter>
<linearGradient id="paint0_linear_6466_60347" x1="25.9694" y1="58" x2="-7.19601" y2="-12.4722" gradientUnits="userSpaceOnUse">
<stop stop-color="#00DC82"/>
<stop offset="0.5" stop-color="#36E4DA"/>
<stop offset="1" stop-color="#0047E1"/>
</linearGradient>
</defs>
</svg>
