<svg width="664" height="96" viewBox="0 0 664 96" fill="none" xmlns="http://www.w3.org/2000/svg">
<path d="M96.03 86.95V88.63L63.64 95.68H61.95L57.08 82.76C47.85 91.32 36.94 95.68 26.36 95.68C10.58 95.68 0 87.46 0 75.04C0 55.57 22.16 42.47 56.07 41.3V30.39C56.07 19.14 46.84 11.59 32.74 11.59C23.51 11.59 23.85 11.21 15.62 14.06L14.95 11.71C26.7 3.64999 34.92 0 49.02 0C69.67 0 84.6 10.74 84.6 27.02V81.58L96.03 86.95ZM41.48 83.93C46.86 83.93 51.89 81.75 56.09 78.56V44.82C38.63 46.5 28.56 55.23 28.56 69.16C28.56 77.72 32.58 83.93 41.48 83.93Z" fill="white"/>
<path d="M87.8101 49.52C87.8101 19.81 108.12 0 138 0C150.08 0 162.16 3.01999 170.06 7.04999L168.89 26.36L167.04 26.02L139.84 5.03999C125.41 5.03999 117.01 19.31 117.01 43.31C117.01 67.15 127.92 83.09 145.72 83.09C154.78 83.09 165.53 80.57 172.41 76.38L174.09 78.23C164.18 87.79 151.26 95.68 131.45 95.68C105.26 95.68 87.8101 77.22 87.8101 49.52Z" fill="white"/>
<path d="M271.07 85.06V86.95L240.56 95.68H238.87L233.83 82.25C223.76 91.14 212.01 95.68 201.27 95.68C184.99 95.68 173.24 84.94 173.24 68.66V20.27V13.98V11.05L200.1 5.67H201.77V65.3C201.77 76.04 207.99 83.09 217.39 83.09C223.77 83.09 228.63 81.08 233.01 77.38V14.6L222.77 8.73V7.04999L259.87 0H261.55V81.58L271.07 85.06Z" fill="white"/>
<path d="M433.77 92.32V94H383.74V92.32L393.82 87.28V30.38C393.82 19.63 387.44 12.58 377.87 12.58C371.15 12.58 366.12 14.93 361.59 19.13C362.26 21.48 362.59 24.17 362.59 27.02V87.28L373.5 92.32V94H323.98V92.32L334.05 87.28V30.38C334.05 19.63 327.67 12.58 318.1 12.58C311.89 12.58 307.02 14.6 302.83 18.12V87.11L313.74 92.32V94H263.72V92.32L274.29 87.28V14.61L264.05 8.73V7.04999L298.63 0H300.31L301.99 13.26C312.06 4.52999 323.64 0 334.22 0C346.13 0 355.54 5.53999 359.9 14.77C370.47 5.19999 382.73 0 393.97 0C410.42 0 422.34 10.74 422.34 27.03V87.12L433.77 92.32Z" fill="white"/>
<path d="M502.72 80.15L504.23 82C493.99 91.57 490.01 95.68 469.36 95.68C443.18 95.68 425.72 77.22 425.72 49.52C425.72 19.81 444.85 0 473.22 0C498.91 0 515.86 17.8 515.86 44.49H455.1V46.17C455.1 68.33 466.18 83.1 484.47 83.1C493.87 83.09 495.67 84.35 502.72 80.15ZM455.1 40.96L487.5 39.45C487.5 15.78 482.46 5.03999 471.72 5.03999C460.97 5.03999 455.76 16.45 455.1 40.96Z" fill="white"/>
<path d="M620.77 92.32V94H570.24V92.32L580.82 87.28V30.38C580.82 19.63 574.27 12.58 564.37 12.58C557.65 12.58 552.45 14.76 547.93 18.45V87.27L559.33 92.31V93.99H508.81V92.31L519.38 87.27V14.61L509.14 8.73V7.04999L543.72 0H545.41L547.08 13.43C557.49 4.69999 569.41 0 580.49 0C597.27 0 609.36 10.74 609.36 27.03V87.29L620.77 92.32Z" fill="white"/>
<path d="M648.5 95.39C639.4 95.39 633.59 89.72 633.59 81.07C633.59 72.72 639.4 67.05 648.5 67.05C657.6 67.05 663.42 72.72 663.42 81.07C663.42 89.72 657.6 95.39 648.5 95.39Z" fill="#E5342A"/>
</svg>
