<svg width="48" height="48" viewBox="0 0 48 48" fill="none" xmlns="http://www.w3.org/2000/svg">
<path d="M30.1846 5.40924C29.2944 5.81671 28.9257 6.68875 28.9257 8.35533V14.5308C28.9257 15.9939 29.3501 16.9947 30.1082 17.4366C31.252 18.1033 32.4093 18.0906 33.4924 17.6283C34.4038 17.2394 34.897 16.1969 34.897 14.5308V8.35533C34.897 6.90132 34.442 5.86021 33.7518 5.45229C32.7532 4.86217 31.4044 4.85129 30.1846 5.40924ZM19.1889 19.8419C17.0717 20.1361 14.9352 20.9121 13.7374 22.604C12.3711 24.5335 12.1274 26.9117 12.0514 29.148C11.9745 31.4033 11.9511 33.3351 12.22 35.3801L18.4867 34.9976C18.4867 34.9976 18.3486 28.6802 18.5851 25.9753C18.6332 25.4196 18.8841 25.2365 19.2595 25.1114C19.7887 24.9346 20.9658 24.6998 23.5592 24.6722C26.0837 24.645 27.2747 24.8961 27.8305 25.0828C28.5143 25.3126 28.5642 25.6213 28.575 25.9046C28.704 29.2876 28.6874 34.3603 28.6874 34.3603L35.0804 33.9637C35.0804 33.9637 35.2414 30.5299 35.1087 29.1339C34.8956 26.8967 34.8794 24.3304 33.4366 22.6185C32.0442 20.966 29.9508 20.0124 27.9991 19.8424C24.9574 19.5772 22.1717 19.4268 19.1889 19.8419Z" fill="white"/>
<path opacity="0.8" d="M34.5603 37.3345L12.979 38.6802C13.5131 40.0811 14.7635 41.1195 15.8592 41.7536C16.7854 42.2894 17.9027 42.6334 19.1611 42.7875C20.3333 42.9307 21.8129 43 23.5588 43C25.3194 43 26.7964 42.9316 27.9708 42.7875C29.2261 42.6334 30.32 42.2681 31.2588 41.7677C33.1184 40.776 34.1412 39.0876 34.5603 37.3345Z" fill="white"/>
</svg>
