<svg width="605" height="890" viewBox="0 0 605 890" fill="none" xmlns="http://www.w3.org/2000/svg">
<g filter="url(#filter0_d_333_15810)">
<path d="M409.336 47.8617C392.234 55.6893 385.152 72.4417 385.152 104.458V223.092C385.152 251.198 393.305 270.423 407.868 278.913C429.841 291.721 452.073 291.477 472.88 282.596C490.388 275.125 499.863 255.099 499.863 223.092V104.458C499.863 76.5254 491.122 56.5251 477.864 48.6887C458.68 37.3522 432.769 37.1432 409.336 47.8617ZM198.103 325.121C157.431 330.772 116.386 345.679 93.3768 378.182C67.1282 415.248 62.4468 460.934 60.9871 503.895C59.5102 547.221 59.061 584.331 64.2261 623.617L184.612 616.269C184.612 616.269 181.96 494.909 186.504 442.945C187.428 432.271 192.247 428.753 199.459 426.35C209.625 422.954 232.238 418.444 282.057 417.913C330.556 417.39 353.436 422.214 364.111 425.801C377.249 430.216 378.207 436.145 378.415 441.587C380.893 506.577 380.574 604.026 380.574 604.026L503.387 596.408C503.387 596.408 506.479 530.443 503.931 503.625C499.837 460.647 499.526 411.347 471.809 378.461C445.06 346.715 404.845 328.395 367.35 325.13C308.919 320.036 255.403 317.146 198.103 325.121Z" fill="white"/>
<path d="M493.394 661.161L78.8062 687.013C89.0672 713.926 113.087 733.874 134.136 746.055C151.929 756.347 173.392 762.956 197.568 765.916C220.085 768.668 248.511 770 282.049 770C315.872 770 344.246 768.685 366.806 765.916C390.921 762.956 411.936 755.938 429.97 746.325C465.694 727.274 485.344 694.84 493.394 661.161Z" fill="#B2D8D8"/>
</g>
<defs>
<filter id="filter0_d_333_15810" x="0" y="0" width="604.938" height="890" filterUnits="userSpaceOnUse" color-interpolation-filters="sRGB">
<feFlood flood-opacity="0" result="BackgroundImageFix"/>
<feColorMatrix in="SourceAlpha" type="matrix" values="0 0 0 0 0 0 0 0 0 0 0 0 0 0 0 0 0 0 127 0" result="hardAlpha"/>
<feOffset dx="20" dy="40"/>
<feGaussianBlur stdDeviation="40"/>
<feComposite in2="hardAlpha" operator="out"/>
<feColorMatrix type="matrix" values="0 0 0 0 0.008378 0 0 0 0 0.217008 0 0 0 0 0.217008 0 0 0 1 0"/>
<feBlend mode="normal" in2="BackgroundImageFix" result="effect1_dropShadow_333_15810"/>
<feBlend mode="normal" in="SourceGraphic" in2="effect1_dropShadow_333_15810" result="shape"/>
</filter>
</defs>
</svg>
