<?xml version="1.0" encoding="UTF-8"?>
<svg id="Layer_1" xmlns="http://www.w3.org/2000/svg" xmlns:xlink="http://www.w3.org/1999/xlink" version="1.1" viewBox="0 0 432 432">
  <!-- Generator: Adobe Illustrator 29.2.1, SVG Export Plug-In . SVG Version: 2.1.0 Build 116)  -->
  <defs>
    <style>
      .st0 {
        fill: url(#linear-gradient2);
      }

      .st1 {
        fill: url(#linear-gradient1);
      }

      .st2 {
        fill: url(#linear-gradient3);
      }

      .st3 {
        fill: url(#linear-gradient6);
      }

      .st4 {
        fill: url(#linear-gradient8);
      }

      .st5 {
        fill: url(#linear-gradient7);
      }

      .st6 {
        fill: url(#linear-gradient5);
      }

      .st7 {
        fill: url(#linear-gradient4);
      }

      .st8 {
        fill: #ef5136;
      }

      .st9 {
        fill: url(#linear-gradient);
      }

      .st10 {
        fill: #fff;
      }

      .st11 {
        opacity: .75;
      }
    </style>
    <linearGradient id="linear-gradient" x1="49.14" y1="311.13" x2="48.68" y2="273.16" gradientUnits="userSpaceOnUse">
      <stop offset="0" stop-color="#fff" stop-opacity="0"/>
      <stop offset="1" stop-color="#000"/>
    </linearGradient>
    <linearGradient id="linear-gradient1" x1="382.2" y1="307.07" x2="381.74" y2="269.1" gradientUnits="userSpaceOnUse">
      <stop offset="0" stop-color="#fff" stop-opacity="0"/>
      <stop offset="1" stop-color="#000"/>
    </linearGradient>
    <linearGradient id="linear-gradient2" x1="91.73" y1="310.61" x2="91.27" y2="272.64" gradientUnits="userSpaceOnUse">
      <stop offset="0" stop-color="#fff" stop-opacity="0"/>
      <stop offset="1" stop-color="#000"/>
    </linearGradient>
    <linearGradient id="linear-gradient3" x1="290.66" y1="308.19" x2="290.2" y2="270.21" gradientUnits="userSpaceOnUse">
      <stop offset="0" stop-color="#fff" stop-opacity="0"/>
      <stop offset="1" stop-color="#000"/>
    </linearGradient>
    <linearGradient id="linear-gradient4" x1="340.35" y1="307.58" x2="339.89" y2="269.61" gradientUnits="userSpaceOnUse">
      <stop offset="0" stop-color="#fff" stop-opacity="0"/>
      <stop offset="1" stop-color="#000"/>
    </linearGradient>
    <linearGradient id="linear-gradient5" x1="135.43" y1="310.37" x2="134.96" y2="272.39" gradientUnits="userSpaceOnUse">
      <stop offset="0" stop-color="#fff" stop-opacity="0"/>
      <stop offset="1" stop-color="#000"/>
    </linearGradient>
    <linearGradient id="linear-gradient6" x1="174.46" y1="309.6" x2="174" y2="271.63" gradientUnits="userSpaceOnUse">
      <stop offset="0" stop-color="#fff" stop-opacity="0"/>
      <stop offset="1" stop-color="#000"/>
    </linearGradient>
    <linearGradient id="linear-gradient7" x1="216.55" y1="311.91" x2="216.93" y2="274" gradientUnits="userSpaceOnUse">
      <stop offset=".21" stop-color="#fff" stop-opacity="0"/>
      <stop offset="1" stop-color="#000"/>
    </linearGradient>
    <linearGradient id="linear-gradient8" x1="252.33" y1="309.63" x2="251.87" y2="271.65" gradientUnits="userSpaceOnUse">
      <stop offset="0" stop-color="#fff" stop-opacity="0"/>
      <stop offset="1" stop-color="#000"/>
    </linearGradient>
  </defs>
  <rect class="st10" x="10.64" y="10.64" width="410.72" height="410.72" rx="59.65" ry="59.65"/>
  <g>
    <path d="M44.04,208.98c0-11.69,0-13.79-.15-16.19-.15-2.55-.75-3.75-3.22-4.27-.45-.08-1.2-.08-1.87-.15-.67-.07-1.27-.15-1.27-.52,0-.45.38-.6,1.2-.6,2.92,0,5.77.23,8.47.23,1.5,0,16.71,0,18.44-.08,1.72-.08,3.07-.08,3.67-.45.22-.15.53-.3.67-.3.3,0,.45.3.45.67s-.3,1.42-.45,2.32c-.3,2.17-.3,3.37-.45,5.47,0,.9-.37,1.5-.67,1.5-.38,0-.45-.3-.53-.97-.07-1.05-.37-2.85-1.42-3.75-.9-.75-2.25-1.35-4.42-1.42-3.82-.08-7.64-.15-11.47-.23-.45,0-.67.23-.67.83v20.68c0,.45.08.67.53.67,3.07,0,7.34,0,10.42-.08,3.97-.07,4.95-.15,6-1.42.38-.45.52-.75.82-.75s.38.22.38.6c0,.45-.38,1.72-.6,4.2-.22,2.25-.22,4.05-.3,5.17-.08.83-.15,1.27-.52,1.27-.45,0-.53-.52-.6-1.27-.15-1.65-.38-4.27-4.27-4.8-1.87-.22-10.04-.22-11.32-.22-.38,0-.53.15-.53.67v6.37c0,6.37,0,11.69.23,15.14.22,3.37,1.05,5.02,3.07,5.25.97.15,2.25.22,3.07.3.67.07.9.22.9.52,0,.38-.37.52-1.2.52-4.2,0-8.84-.22-9.22-.22h-.67c-1.5.08-4.87.22-6.67.22-.83,0-1.2-.15-1.2-.6,0-.22.15-.38.82-.45.75-.08,1.42-.15,1.95-.3,1.57-.45,2.1-1.57,2.32-4.87.23-3.22.3-8.47.3-15.51v-13.19Z"/>
    <path d="M112.66,208.3c0-11.69,0-13.79-.15-16.19-.15-2.55-.52-3.75-3-4.27-.6-.15-1.87-.22-2.55-.22-.53,0-.83-.15-.83-.45,0-.45.38-.6,1.2-.6,3.37,0,8.09.22,8.47.22.9,0,5.62-.22,10.12-.22,7.42,0,21.13-.67,30.05,8.54,3.75,3.9,7.27,10.12,7.27,19.04,0,9.44-3.9,16.71-8.09,21.13-3.22,3.37-9.97,8.62-22.71,8.62-3.22,0-7.19-.22-10.42-.45-3.3-.23-5.85-.45-6.22-.45-.15,0-1.42,0-3,.08-1.5,0-3.22.15-4.35.15-.82,0-1.2-.15-1.2-.6,0-.22.15-.45.75-.45.82-.08,1.42-.15,2.1-.3,1.5-.3,1.87-1.95,2.17-4.12.37-3.15.37-9.07.37-16.26v-13.19ZM118.96,216.39c0,7.94.07,14.84.15,16.26.08,1.87.22,4.87.82,5.69.97,1.42,3.9,3,12.74,3,6.97,0,13.41-2.55,17.84-6.97,3.9-3.82,6-11.02,6-17.91,0-9.52-4.12-15.66-7.19-18.89-7.04-7.42-15.59-8.47-24.51-8.47-1.5,0-4.27.22-4.87.52-.67.3-.9.67-.9,1.5-.07,2.55-.07,10.19-.07,15.96v9.29Z"/>
    <path d="M180.87,209.24c0-11.38,0-13.46-.17-15.81-.17-2.43-.78-3.65-3.3-4.17-.52-.09-1.39-.17-2.09-.17-.61,0-1.13-.26-1.13-.52,0-.52.43-.69,1.3-.69,1.74,0,4.08.17,8.95.26.43,0,15.89,0,17.63-.09,1.74-.09,2.69-.17,3.39-.43.52-.17.61-.26.96-.26.17,0,.35.17.35.61,0,.52-.52,1.74-.7,3.91-.09,1.48-.17,2.87-.26,4.52,0,.78-.17,1.3-.61,1.3s-.61-.35-.61-.96c-.09-1.3-.35-2.17-.61-2.78-.52-1.74-1.3-2.34-5.65-2.61-1.13-.09-9.73-.17-9.9-.17-.26,0-.43.17-.43.7v19.72c0,.52.09.87.52.87,1.04,0,9.9-.09,11.73-.26,2-.09,3.3-.35,3.99-1.3.35-.52.61-.69.96-.69.17,0,.35.09.35.52s-.35,2.08-.61,4.6c-.26,2.43-.26,4.17-.35,5.3-.09.7-.26.96-.61.96-.43,0-.52-.52-.52-1.13,0-.52-.09-1.39-.26-2.09-.35-1.13-.87-2.34-4.17-2.6-2-.17-9.03-.35-10.42-.35-.52,0-.61.26-.61.61v6.34c0,2.69-.09,10.34,0,11.81.17,3.21.61,4.86,2.43,5.64,1.3.61,3.39.78,6.34.78,1.65,0,4.43.09,6.6-.52,2.61-.78,3.21-2.52,3.91-5.73.17-.87.43-1.22.78-1.22.52,0,.52.78.52,1.3,0,.61-.7,6.08-.96,7.56-.35,1.74-.96,1.91-3.82,1.91-5.73,0-8.16-.17-11.2-.17-3.04-.09-7.03-.26-10.25-.26-2,0-3.65.26-5.73.26-.78,0-1.22-.17-1.22-.61,0-.35.35-.61.78-.61.52,0,1.13-.09,1.74-.26,1.56-.35,2.61-1.48,2.78-6.86.09-2.95.17-6.51.17-13.11v-13.03Z"/>
    <path d="M232.64,221.75c0,11.19.3,16.06,1.67,17.43,1.22,1.22,3.2,1.75,9.13,1.75,4.03,0,7.38-.08,9.21-2.28.99-1.22,1.75-3.12,1.98-4.57.08-.61.23-.99.68-.99.38,0,.46.3.46,1.14s-.53,5.4-1.14,7.61c-.53,1.75-.76,2.05-4.8,2.05-6.55,0-13.02-.46-20.4-.46-2.36,0-4.64.23-7.46.23-.84,0-1.22-.15-1.22-.61,0-.23.15-.46.61-.46.68,0,1.6-.15,2.28-.3,1.52-.3,1.9-1.98,2.21-4.19.38-3.2.38-9.21.38-16.52v-13.4c0-11.87,0-14.01-.15-16.44-.15-2.59-.76-3.81-3.27-4.34-.61-.15-1.9-.23-2.59-.23-.3,0-.61-.15-.61-.46,0-.46.38-.61,1.22-.61,3.42,0,8.22.23,8.6.23s5.94-.23,8.22-.23c.84,0,1.22.15,1.22.61,0,.3-.3.46-.61.46-.53,0-1.6.08-2.51.23-2.21.38-2.82,1.67-2.97,4.34-.15,2.44-.15,4.57-.15,16.44v13.55Z"/>
    <path d="M270.1,209.48c0-11.44,0-13.53-.17-15.87-.17-2.34-.69-3.64-2.51-3.99-.87-.17-1.47-.17-1.99-.26-.61-.09-.95-.26-.95-.61,0-.43.35-.61,1.3-.61,2.69,0,7.63.26,7.89.26.35,0,5.37-.26,7.8-.26.87,0,1.3.17,1.3.61,0,.35-.26.52-.95.61-.52.09-.95.09-1.56.17-2.51.35-2.77,1.65-2.95,4.16-.17,2.34-.09,4.34-.09,15.78v13c0,6.68-.08,12.75.35,15.87.35,2.51.69,3.47,2.95,3.99,1.13.26,2.95.35,3.29.35.78.09.95.26.95.61s-.35.61-1.21.61c-4.42,0-9.45-.26-9.88-.26-.26,0-5.38.26-7.8.26-.78,0-1.39-.17-1.39-.61,0-.35.35-.61,1.13-.61.43,0,1.39-.09,2.08-.26,1.47-.35,1.74-2.08,2-4.16.43-3.12.43-9.28.43-15.78v-13Z"/>
    <path d="M319.94,222.6c0,6.64.08,12.76.43,15.95.26,2.07.43,3.28,2.59,3.8,1.03.26,2.67.34,3.36.34s1.04.26,1.04.52c0,.43-.26.69-1.12.69-4.4,0-9.49-.26-9.83-.26s-5.43.26-7.68.26c-.95,0-1.29-.17-1.29-.6,0-.26.26-.6.95-.6s1.21,0,1.9-.09c1.64-.26,1.9-1.29,2.24-4.23.34-3.1.34-9.31.34-15.78v-30.79c-2.84,0-7.42,0-10.87.09-5.52.09-6.73.95-7.93,2.76-.78,1.21-1.12,2.24-1.29,2.67-.26.6-.43.69-.78.69s-.43-.34-.43-.78c-.08-.52,1.21-6.21,1.73-8.54.26-1.04.52-1.38.78-1.38.6,0,2.24.78,3.79.95,3.02.34,5.43.43,5.52.43h28.29c2.42,0,5-.17,6.21-.43,1.12-.26,1.38-.34,1.64-.34.34,0,.52.43.52.78,0,2.42-.17,8.11-.17,8.8,0,.78-.34,1.03-.6,1.03-.43,0-.6-.34-.6-1.03,0-.26,0-.35-.08-1.21-.34-3.45-1.47-4.31-10.18-4.4-3.28,0-5.95-.09-8.45-.09v30.79Z"/>
    <path d="M363.35,225.1c0-4.14-.6-5.69-1.9-7.93-.52-.95-10.52-17.25-13.19-20.96-2.33-3.28-3.19-4.31-4.4-5.26-1.21-.86-2.33-1.21-4.05-1.29-.52,0-.95-.26-.95-.69,0-.26.34-.52,1.03-.52,1.38,0,7.93.26,8.11.26.52,0,3.36-.26,6.56-.26.86,0,1.12.26,1.12.52,0,.35-.26.52-.95.69-1.21.26-1.38.69-1.38,1.38,0,.86.52,1.72,1.12,2.85,1.12,2.16,12.51,20.44,13.8,22.6,1.38-3.02,11.04-18.8,12.25-20.96,1.64-2.85,1.98-3.62,1.98-4.57,0-1.12-1.04-1.12-1.98-1.29-.69-.09-.95-.34-.95-.69,0-.26.17-.52,1.03-.52,2.07,0,3.88.26,5.26.26,1.12,0,6.12-.26,7.59-.26.78,0,1.04.26,1.04.52,0,.43-.43.69-1.04.69-1.81.09-3.1.26-4.31,1.12-1.29.86-1.81,1.64-3.19,3.54-5,6.9-13.37,20.96-14.66,23.98-1.04,2.67-.86,4.57-.86,6.81v6.3c0,.6,0,3.8.17,6.9.17,2.07.35,3.54,3.02,4.05,1.12.26,2.59.34,3.19.34.69,0,.95.26.95.52,0,.43-.26.69-1.04.69-4.31,0-9.66-.26-9.92-.26-.17,0-5.35.26-7.76.26-.86,0-1.21-.26-1.21-.69,0-.26.26-.52.86-.52.69,0,1.47-.09,2.16-.26,1.47-.26,2.07-2.07,2.24-4.14.26-3.1.26-6.21.26-6.9v-6.3Z"/>
    <path d="M81.32,243.8c-.22-.07-.86.3-1.04-.15-.2-.5-.1-1.14-.05-1.71.03-.32.41-.34.68-.4,1.15-.26,2.25-.62,3.34-1.05.88-.35,1.32-.98,1.41-1.87.1-.95.21-1.91.22-2.86.02-5.1,0-10.21.02-15.31,0-.93-.1-1.85-.22-2.77-.13-1.09-1.24-1.81-2.45-1.53-.85.2-1.73.03-2.57.29-.11.03-.33.02-.35-.04-.23-.55-.08-1.13-.11-1.7-.02-.43.32-.48.64-.56,2.92-.81,5.75-1.86,8.45-3.25.37-.19.71-.44,1.08-.61.29-.13.55-.53.94-.2.37.32.82.55.75,1.22-.73,7.28-.68,14.59-.65,21.89,0,1.78-.07,3.58.24,5.36.18,1.04.68,1.69,1.65,2,1.06.34,2.11.68,3.18.99,1.15.33.46,1.23.57,1.85.13.78-.57.44-.87.42-1.85-.09-3.7-.35-5.55-.33-3.04.02-6.08.2-9.31.32Z"/>
    <path class="st8" d="M362.38,172.52c-1.34-.71-2.67-1.41-4.01-2.13-19.38-10.36-39.35-19.38-60.23-26.32-13.68-4.55-27.59-8.13-41.83-10.41-13.52-2.16-27.1-3.1-40.79-2.47-17.69.81-34.81,4.25-51.26,10.84-12.61,5.05-24.26,11.78-34.96,20.15-6.1,4.78-11.79,10-17.04,15.71-4.15,4.52-8.02,9.26-11.45,14.36-1.14,1.7-1.95,3.6-3.19,5.25-3.12,4.13-7.99,5.12-12.64,2.86-5.47-2.65-8.25-11.61-2.7-17.52,3.64-3.88,7.36-7.68,11.27-11.3,10.03-9.3,20.88-17.49,32.73-24.35,14.21-8.22,29.32-14.18,45.3-17.94,10.22-2.41,20.59-3.84,31.07-4.41,9.57-.52,19.13-.32,28.68.5,18.21,1.58,35.98,5.33,53.42,10.74,19.54,6.05,38.29,14.01,56.36,23.58,6.95,3.68,13.76,7.59,20.39,11.81.37.23.82.39,1.04.8-.05.08-.09.16-.14.25Z"/>
    <g class="st11">
      <path class="st9" d="M46.92,277.39c2.32,0,4.64.46,6.49,1.61,2.97,1.88,3.66,4.79,3.66,6.36,0,3.07-1.21,5.45-6.28,9.01l-1.2.84c-4.13,2.88-5.25,4.26-5.25,6.44,0,2.8,2.32,4.45,5.29,4.45,3.96,0,5.12-1.61,5.38-2.03.26-.42.52-1.46.56-1.92.04-.31.09-.5.34-.5.21,0,.3.27.3.88,0,2.61.17,3.87.17,4.06s-.09.27-.43.27-.69.04-1.5.19c-1.08.23-2.32.38-4,.38-5.46,0-8.9-2.8-8.9-6.9,0-2.61,1.03-4.99,5.59-8.32l1.93-1.42c3.7-2.72,4.95-4.26,4.95-6.9,0-2.45-2.02-5.1-6.15-5.1-2.88,0-5.72,1.07-6.37,3.91-.13.54-.13,1.07-.13,1.42,0,.31-.04.42-.3.42-.21,0-.3-.19-.34-.61-.04-.61-.21-2.15-.21-4.06,0-1.04.04-1.19.65-1.46,1.76-.77,3.74-1.04,5.76-1.04Z"/>
    </g>
    <g class="st11">
      <path class="st1" d="M380.04,277.39c2.32,0,4.64.46,6.49,1.61,2.97,1.88,3.66,4.79,3.66,6.36,0,3.07-1.2,5.45-6.28,9.01l-1.2.84c-4.13,2.88-5.25,4.26-5.25,6.44,0,2.8,2.32,4.45,5.29,4.45,3.96,0,5.12-1.61,5.38-2.03.26-.42.51-1.46.56-1.92.04-.31.08-.5.34-.5.21,0,.3.27.3.88,0,2.61.17,3.87.17,4.06s-.09.27-.43.27-.69.04-1.5.19c-1.08.23-2.32.38-4,.38-5.46,0-8.9-2.8-8.9-6.9,0-2.61,1.03-4.99,5.59-8.32l1.93-1.42c3.7-2.72,4.95-4.26,4.95-6.9,0-2.45-2.02-5.1-6.15-5.1-2.88,0-5.72,1.07-6.36,3.91-.13.54-.13,1.07-.13,1.42,0,.31-.04.42-.3.42-.22,0-.3-.19-.34-.61-.04-.61-.22-2.15-.22-4.06,0-1.04.04-1.19.65-1.46,1.76-.77,3.74-1.04,5.76-1.04Z"/>
    </g>
    <g class="st11">
      <path class="st0" d="M91.31,277.39c9.51,0,15.8,6.96,15.8,15.49,0,8.97-6.74,14.24-15.58,14.24-11.03,0-15.62-8.88-15.62-14.82,0-6.79,4.46-14.91,15.4-14.91ZM92.43,278.9c-7.5,0-12.36,5.8-12.36,14.55s5,12.28,11.2,12.28,11.65-5,11.65-13.97c0-11.34-7.5-12.86-10.49-12.86Z"/>
    </g>
    <g class="st11">
      <path class="st2" d="M290.27,277.39c9.51,0,15.8,6.96,15.8,15.49,0,8.97-6.74,14.24-15.58,14.24-11.02,0-15.62-8.88-15.62-14.82,0-6.79,4.46-14.91,15.4-14.91ZM291.38,278.9c-7.5,0-12.36,5.8-12.36,14.55s5,12.28,11.2,12.28,11.65-5,11.65-13.97c0-11.34-7.5-12.86-10.49-12.86Z"/>
    </g>
    <g class="st11">
      <path class="st7" d="M327.4,283.33c0-3.51-.2-4.63-1.19-4.9-.59-.19-1.3-.23-1.62-.23-.2,0-.32-.08-.32-.23,0-.27.24-.31.63-.31,1.78,0,3.44.12,3.79.12s1.94-.12,4.19-.12c.47,0,.71.08.71.31,0,.15-.12.23-.32.23-.36,0-1.23.04-1.98.23-1.07.31-1.46,1.31-1.54,4.47l-.51,18.48c1.26-1.39,5.73-6.25,10.31-11.07,4.19-4.4,9.88-10.07,10.32-10.45,2.09-2.04,2.57-2.47,2.88-2.47.28,0,.36.19.36,2.74l.08,22.53c0,2.66.28,3.24,1.38,3.47.48.08.71.12,1.03.15.28.04.43.12.43.27,0,.23-.28.27-.71.27-1.62,0-2.92-.12-3.36-.12s-2.33.12-4.11.12c-.47,0-.79-.04-.79-.27,0-.15.12-.27.55-.27.35,0,.99-.04,1.7-.19,1.23-.31,1.5-1.16,1.54-3.66l.43-19.59c-1.26,1.27-5.57,5.98-9.49,10.07-6.09,6.36-11.97,12.57-12.57,13.23-.4.39-1.07,1.23-1.38,1.23s-.43-.42-.43-1.93c.04-7.48-.04-2.47-.04-16.39v-5.71Z"/>
    </g>
    <g class="st11">
      <path class="st6" d="M132.82,295.56c0,5.92-.04,6.9.05,8.11.09,1.3.37,2.02,1.66,2.2.46.04.92.09,1.24.09.28,0,.51.13.51.31s-.14.31-.6.31c-1.29,0-4.09-.13-4.74-.13-.09,0-2.85.13-4.78.13-.46,0-.69-.09-.69-.31,0-.18.18-.31.51-.31.37,0,.87,0,1.15-.04,1.56-.18,1.75-.99,1.84-2.24.09-1.21.09-2.2.09-8.11v-6.72c0-3.45.09-6.55-.18-8.25-.14-1.08-.41-1.97-1.2-2.11-.37-.09-.74-.09-1.1-.09s-.5-.13-.5-.27c0-.27.28-.36.74-.36,1.61,0,2.53.13,4.05.13,4.6,0,8.04-.22,11.17-.22,2.21,0,2.16.22,2.44,1.12.28,1.03.55,3.59.55,4.03s-.09.58-.28.58c-.23,0-.32-.18-.37-.54-.09-.67-.41-1.57-.87-2.24-1.01-1.25-2.85-1.25-4.87-1.25-3.17,0-4.09.27-4.83.9-.78.72-.97,3.32-.97,8.47v6.81Z"/>
    </g>
    <g class="st11">
      <path class="st3" d="M166.78,295.68c0,5.92,0,6.95.04,8.16.09,1.25.27,2.02,1.34,2.15.36.04.72.09.99.09.22,0,.54.09.54.31s-.13.31-.63.31c-1.21,0-3.86-.13-4.21-.13-.31,0-2.73.13-4.66.13-.49,0-.67-.09-.67-.36,0-.13.18-.27.49-.27.36,0,.9-.04,1.17-.09,1.39-.18,1.61-.94,1.66-2.15.13-1.21.13-2.24.13-8.16v-5.56c0-5.56,1.39-8.25,3.32-10.04,2.91-2.69,7.13-2.69,8.38-2.69,2.42,0,5.29.22,8.2,2.69,3.18,2.73,3.63,7.58,3.63,11.61v3.99c0,5.87,0,6.9.04,8.11.09,1.3.27,2.11,1.52,2.24.45.04.54.04.81.04s.45.13.45.31c0,.22-.18.31-.63.31-1.25,0-3.18-.13-3.41-.13-.18,0-2.42.13-4.35.13-.4,0-.63-.09-.63-.36,0-.13.18-.27.45-.27.4,0,.94-.04,1.25-.09,1.43-.22,1.57-.9,1.66-2.2.09-1.21.09-2.24.09-8.11v-4.75c0-3.9-.4-7.31-2.2-9.37-1.7-1.97-3.81-2.6-6.14-2.6-1.84,0-3.99.36-5.92,2.06-1.7,1.52-2.73,3.85-2.73,9.32v5.33Z"/>
    </g>
    <path class="st5" d="M218.53,305.12c1.63-.04,3.27-.04,4.9-.08,3.74-.08,4.67-.95,4.79-2.09,0-.15.04-.27.04-.42.04-.53.12-.65.31-.65.16,0,.27.15.27.49,0,.42.12,3.04.12,4.18,0,.23,0,.46-.19.46-.16,0-.51-.11-1.09-.19-.62-.11-1.52-.19-2.76-.19h-14.59c-.47,0-1.95.08-3.07.19-1.05.08-1.44.46-1.71.46-.16,0-.31-.5-.39-.72-.08-.3-.86-3.58-.86-3.96,0-.23.08-.34.19-.34.16,0,.27.08.39.38.12.27.23.53.66,1.18.62.91,1.56,1.18,3.97,1.22,1.91.04,3.85.04,5.76.08v-16.09c0-3.65,0-6.66-.19-8.26-.16-1.1-.35-1.94-1.13-2.09-.35-.08-.82-.15-1.17-.15-.23,0-.31-.11-.31-.23,0-.23.19-.3.62-.3,1.17,0,3.62.11,3.81.11s2.65-.11,4.79-.11c.43,0,.62.11.62.3,0,.11-.08.23-.31.23-.35,0-1.21.08-1.75.15-1.17.15-1.4.99-1.52,2.09-.2,1.6-.2,4.6-.2,8.26v16.09Z"/>
    <g class="st11">
      <path class="st4" d="M249.85,289.33c0-3.33,0-6.48-.22-8.08-.13-1.07-.26-1.95-1.01-2.13-.35-.09-.83-.13-1.05-.13-.39,0-.57-.13-.57-.31,0-.22.31-.31.7-.31,1.23,0,3.81.13,3.94.13.22,0,2.76-.13,4.99-.13.44,0,.61.13.61.31s-.09.27-.48.31c-.17,0-1.09.04-1.67.18-1.14.27-1.31.75-1.49,2.04-.22,1.6-.17,4.71-.17,8.13v6.66c0,5.86-.04,6.88.04,8.08.09,1.29.22,1.95,1.49,2.13.31.04.53.04.79.09.35.04.48.13.48.31,0,.22-.22.31-.66.31-1.23,0-3.77-.13-3.94-.13-.13,0-2.63.13-3.99.13-.48,0-.66-.09-.66-.31,0-.18.18-.27.48-.31.26-.04.57-.04,1.01-.13.92-.18,1.18-.84,1.27-2.04s.09-2.27.09-8.13v-6.66Z"/>
    </g>
    <path d="M41.16,277.72c-.6-.27-.65-.42-.65-1.46,0-1.92.17-3.45.21-4.06.04-.42.13-.61.34-.61.26,0,.3.12.3.42,0,.34,0,.88.13,1.42.65,2.84,3.48,3.91,6.37,3.91,4.13,0,6.15-2.65,6.15-5.1,0-2.65-1.25-4.18-4.95-6.9l-1.93-1.42c-4.56-3.34-5.59-5.71-5.59-8.32,0-4.1,3.44-6.9,8.9-6.9,1.68,0,2.92.15,4,.38.82.15,1.16.19,1.5.19s.43.08.43.27-.17,1.46-.17,4.06c0,.61-.09.88-.3.88-.26,0-.3-.19-.34-.5-.04-.46-.3-1.5-.56-1.92-.26-.42-1.42-2.03-5.38-2.03-2.97,0-5.29,1.65-5.29,4.45,0,2.19,1.12,3.57,5.25,6.44l1.2.84c5.07,3.57,6.28,5.94,6.28,9.01,0,1.57-.69,4.49-3.66,6.36-1.85,1.15-4.17,1.61-6.49,1.61-2.02,0-4-.27-5.76-1.04Z"/>
    <path d="M374.27,277.72c-.6-.27-.65-.42-.65-1.46,0-1.92.17-3.45.22-4.06.04-.42.13-.61.34-.61.26,0,.3.12.3.42,0,.34,0,.88.13,1.42.65,2.84,3.48,3.91,6.36,3.91,4.13,0,6.15-2.65,6.15-5.1,0-2.65-1.25-4.18-4.95-6.9l-1.93-1.42c-4.56-3.34-5.59-5.71-5.59-8.32,0-4.1,3.44-6.9,8.9-6.9,1.68,0,2.92.15,4,.38.82.15,1.16.19,1.5.19s.43.08.43.27-.17,1.46-.17,4.06c0,.61-.09.88-.3.88-.26,0-.3-.19-.34-.5-.04-.46-.3-1.5-.56-1.92-.26-.42-1.42-2.03-5.38-2.03-2.97,0-5.29,1.65-5.29,4.45,0,2.19,1.12,3.57,5.25,6.44l1.2.84c5.08,3.57,6.28,5.94,6.28,9.01,0,1.57-.69,4.49-3.66,6.36-1.85,1.15-4.17,1.61-6.49,1.61-2.02,0-4-.27-5.76-1.04Z"/>
    <path d="M75.91,263.84c0-5.94,4.6-14.82,15.62-14.82,8.84,0,15.58,5.27,15.58,14.24s-6.29,15.49-15.8,15.49c-10.94,0-15.4-8.12-15.4-14.91ZM102.92,264.38c0-8.97-5.54-13.97-11.65-13.97s-11.2,3.84-11.2,12.28,4.87,14.55,12.36,14.55c2.99,0,10.49-1.52,10.49-12.86Z"/>
    <path d="M274.87,263.84c0-5.94,4.6-14.82,15.62-14.82,8.84,0,15.58,5.27,15.58,14.24s-6.29,15.49-15.8,15.49c-10.94,0-15.4-8.12-15.4-14.91ZM301.88,264.38c0-8.97-5.53-13.97-11.65-13.97s-11.2,3.84-11.2,12.28,4.87,14.55,12.36,14.55c2.99,0,10.49-1.52,10.49-12.86Z"/>
    <path d="M327.4,267.11c0-13.92.08-8.91.04-16.39,0-1.5.12-1.93.43-1.93s.99.85,1.38,1.23c.59.66,6.48,6.87,12.57,13.23,3.91,4.09,8.22,8.79,9.49,10.07l-.43-19.59c-.04-2.51-.32-3.36-1.54-3.66-.71-.16-1.34-.19-1.7-.19-.43,0-.55-.12-.55-.27,0-.23.32-.27.79-.27,1.78,0,3.68.12,4.11.12s1.74-.12,3.36-.12c.43,0,.71.04.71.27,0,.15-.16.23-.43.27-.32.04-.55.08-1.03.15-1.11.23-1.38.81-1.38,3.47l-.08,22.53c0,2.55-.08,2.74-.36,2.74-.32,0-.79-.42-2.88-2.47-.43-.39-6.13-6.06-10.32-10.45-4.58-4.82-9.05-9.68-10.31-11.07l.51,18.48c.08,3.16.47,4.17,1.54,4.47.75.19,1.62.23,1.98.23.2,0,.32.08.32.23,0,.23-.24.31-.71.31-2.25,0-3.83-.12-4.19-.12s-2.01.12-3.79.12c-.4,0-.63-.04-.63-.31,0-.15.12-.23.32-.23.32,0,1.03-.04,1.62-.23.99-.27,1.19-1.39,1.19-4.9v-5.71Z"/>
    <path d="M132.82,267.68c0,5.16.18,7.76.97,8.47.74.63,1.65.9,4.83.9,2.02,0,3.86,0,4.87-1.25.46-.67.78-1.57.87-2.24.05-.36.14-.54.37-.54.18,0,.28.13.28.58s-.28,3-.55,4.03c-.28.9-.23,1.12-2.44,1.12-3.13,0-6.57-.22-11.17-.22-1.52,0-2.44.13-4.05.13-.46,0-.74-.09-.74-.36,0-.13.14-.27.5-.27s.74,0,1.1-.09c.78-.13,1.06-1.03,1.2-2.11.28-1.7.18-4.8.18-8.25v-6.72c0-5.92,0-6.9-.09-8.11-.09-1.25-.28-2.06-1.84-2.24-.28-.04-.78-.04-1.15-.04-.32,0-.51-.13-.51-.31,0-.22.23-.31.69-.31,1.93,0,4.69.13,4.78.13.64,0,3.45-.13,4.74-.13.46,0,.6.13.6.31s-.23.31-.51.31c-.32,0-.78.04-1.24.09-1.29.18-1.56.9-1.66,2.2-.09,1.21-.05,2.2-.05,8.11v6.81Z"/>
    <path d="M166.78,265.8c0,5.47,1.03,7.8,2.73,9.32,1.93,1.7,4.08,2.06,5.92,2.06,2.33,0,4.44-.63,6.14-2.6,1.79-2.06,2.2-5.47,2.2-9.37v-4.75c0-5.87,0-6.9-.09-8.11-.09-1.3-.22-1.97-1.66-2.2-.31-.04-.85-.09-1.25-.09-.27,0-.45-.13-.45-.27,0-.27.22-.36.63-.36,1.93,0,4.17.13,4.35.13.22,0,2.15-.13,3.41-.13.45,0,.63.09.63.31,0,.18-.18.31-.45.31s-.36,0-.81.04c-1.26.13-1.43.94-1.52,2.24-.04,1.21-.04,2.24-.04,8.11v3.99c0,4.03-.45,8.88-3.63,11.61-2.91,2.46-5.78,2.69-8.2,2.69-1.25,0-5.47,0-8.38-2.69-1.93-1.79-3.32-4.48-3.32-10.04v-5.56c0-5.92,0-6.95-.13-8.16-.04-1.21-.27-1.97-1.66-2.15-.27-.04-.81-.09-1.17-.09-.31,0-.49-.13-.49-.27,0-.27.18-.36.67-.36,1.93,0,4.35.13,4.66.13.36,0,3-.13,4.21-.13.49,0,.63.09.63.31s-.31.31-.54.31c-.27,0-.63.04-.99.09-1.08.13-1.25.9-1.34,2.15-.04,1.21-.04,2.24-.04,8.16v5.33Z"/>
    <path d="M218.53,267.72c0,3.65,0,6.66.2,8.26.12,1.1.35,1.94,1.52,2.09.54.08,1.4.15,1.75.15.23,0,.31.11.31.23,0,.19-.19.3-.62.3-2.14,0-4.59-.11-4.79-.11s-2.65.11-3.81.11c-.43,0-.62-.08-.62-.3,0-.11.08-.23.31-.23.35,0,.82-.08,1.17-.15.78-.15.97-.99,1.13-2.09.19-1.6.19-4.6.19-8.26v-16.09c-1.91.04-3.85.04-5.76.08-2.41.04-3.35.3-3.97,1.22-.43.65-.54.91-.66,1.18-.12.3-.23.38-.39.38-.12,0-.19-.11-.19-.34,0-.38.78-3.65.86-3.96.08-.23.23-.72.39-.72.27,0,.66.38,1.71.46,1.13.11,2.61.19,3.07.19h14.59c1.25,0,2.14-.08,2.76-.19.58-.08.93-.19,1.09-.19.19,0,.19.23.19.46,0,1.14-.12,3.77-.12,4.18,0,.34-.12.49-.27.49-.2,0-.27-.11-.31-.65,0-.15-.04-.27-.04-.42-.12-1.14-1.05-2.02-4.79-2.09-1.63-.04-3.27-.04-4.9-.08v16.09Z"/>
    <path d="M249.85,261.12c0-5.86,0-6.93-.09-8.13s-.35-1.87-1.27-2.04c-.44-.09-.75-.09-1.01-.13-.31-.04-.48-.13-.48-.31,0-.22.18-.31.66-.31,1.36,0,3.86.13,3.99.13.17,0,2.72-.13,3.94-.13.44,0,.66.09.66.31,0,.18-.13.27-.48.31-.26.04-.48.04-.79.09-1.27.18-1.4.84-1.49,2.13-.09,1.2-.04,2.22-.04,8.08v6.66c0,3.42-.04,6.53.17,8.13.17,1.29.35,1.78,1.49,2.04.57.13,1.49.18,1.67.18.4.04.48.13.48.31s-.18.31-.61.31c-2.23,0-4.77-.13-4.99-.13-.13,0-2.72.13-3.94.13-.39,0-.7-.09-.7-.31,0-.18.18-.31.57-.31.22,0,.7-.04,1.05-.13.74-.18.88-1.07,1.01-2.13.22-1.6.22-4.75.22-8.08v-6.66Z"/>
  </g>
</svg>