<svg width="256" height="256" xmlns="http://www.w3.org/2000/svg"><path d="M300.069 360.634c-1.208-.902-2.417-1.799-3.623-2.708-17.514-13.198-35.562-24.681-54.429-33.524-12.358-5.792-24.937-10.354-37.807-13.252-12.214-2.75-24.494-3.943-36.866-3.144-15.983 1.032-31.457 5.417-46.326 13.802-11.397 6.43-21.927 15-31.594 25.668a159.19 159.19 0 0 0-15.395 20.003c-3.75 5.755-7.252 11.8-10.346 18.29-1.032 2.165-1.759 4.59-2.886 6.69-2.822 5.258-7.223 6.514-11.425 3.643-4.944-3.378-7.453-14.78-2.44-22.317 3.29-4.944 6.656-9.782 10.185-14.395 9.063-11.846 18.867-22.28 29.576-31.014 12.844-10.474 26.495-18.066 40.936-22.855 9.239-3.063 18.605-4.885 28.077-5.611 8.647-.665 17.287-.413 25.915.642 16.458 2.012 32.518 6.793 48.28 13.672 17.662 7.709 34.602 17.845 50.934 30.027a265.128 265.128 0 0 1 18.426 15.043c.333.298.738.495.935 1.025l-.127.315" style="fill:#ef3c30;fill-opacity:1;fill-rule:nonzero;stroke:none;stroke-width:.107284" transform="translate(-44.196 -247.573)"/><path d="M79.72 355.188c0-37.863 0-44.661-.488-52.428-.487-8.255-2.429-12.138-10.436-13.835-1.458-.243-3.884-.243-6.068-.49-2.186-.24-4.127-.482-4.127-1.696 0-1.454 1.214-1.94 3.882-1.94 9.47 0 18.691.728 27.43.728 4.853 0 54.124 0 59.71-.242 5.58-.243 9.948-.243 11.89-1.458.726-.482 1.702-.971 2.185-.971.971 0 1.459.971 1.459 2.186 0 1.214-.976 4.608-1.46 7.523-.97 7.038-.97 10.924-1.458 17.719 0 2.911-1.21 4.855-2.18 4.855-1.215 0-1.46-.972-1.702-3.158-.241-3.394-1.211-9.22-4.612-12.132-2.912-2.43-7.28-4.372-14.32-4.612-12.376-.243-24.754-.486-37.135-.732-1.455 0-2.186.732-2.186 2.675v66.985c0 1.458.244 2.186 1.701 2.186 9.95 0 23.786 0 33.738-.246 12.865-.24 16.021-.482 19.417-4.609 1.214-1.454 1.698-2.425 2.67-2.425.97 0 1.214.728 1.214 1.943 0 1.454-1.215 5.58-1.942 13.59-.728 7.28-.728 13.106-.97 16.746-.245 2.672-.485 4.126-1.7 4.126-1.457 0-1.701-1.697-1.942-4.126-.487-5.34-1.214-13.832-13.835-15.535-6.068-.726-32.525-.726-36.65-.726-1.214 0-1.701.486-1.701 2.186v20.63c0 20.627 0 37.863.731 49.027.727 10.924 3.397 16.261 9.953 16.993 3.152.483 7.279.726 9.948.972 2.185.24 2.913.725 2.913 1.697 0 1.214-1.211 1.697-3.884 1.697-13.592 0-28.638-.725-29.853-.725h-2.186c-4.854.242-15.773.725-21.599.725-2.672 0-3.883-.483-3.883-1.94 0-.729.484-1.214 2.668-1.454 2.426-.246 4.612-.49 6.31-.972 5.098-1.46 6.796-5.097 7.523-15.778.731-10.435.974-27.429.974-50.242v-42.717" style="display:inline;fill:#fff;fill-opacity:1;fill-rule:nonzero;stroke:#000;stroke-width:2.47247;stroke-dasharray:none;stroke-opacity:1" transform="translate(-44.196 -247.573)"/><path d="M179.072 461.9c-3.716-1.653-3.983-2.596-3.983-8.987 0-11.825 1.062-21.287 1.325-25.068.27-2.603.8-3.788 2.125-3.788 1.595 0 1.856.716 1.856 2.61 0 2.121 0 5.434.795 8.746 3.983 17.5 21.493 24.125 39.266 24.125 25.468 0 37.94-16.322 37.94-31.459 0-16.322-7.695-25.784-30.514-42.574l-11.932-8.753c-28.127-20.572-34.49-35.24-34.49-51.328 0-25.303 21.223-42.568 54.91-42.568 10.348 0 18.044.943 24.677 2.368 5.038.944 7.163 1.172 9.284 1.172 2.125 0 2.657.481 2.657 1.666 0 1.184-1.062 8.981-1.062 25.068 0 3.782-.532 5.44-1.858 5.44-1.595 0-1.858-1.183-2.125-3.071-.262-2.844-1.858-9.234-3.443-11.831-1.595-2.603-8.76-12.54-33.168-12.54-18.303 0-32.632 10.177-32.632 27.443 0 13.478 6.903 21.99 32.372 39.737l7.426 5.2c31.3 21.997 38.734 36.659 38.734 55.59 0 9.69-4.244 27.665-22.548 39.256-11.41 7.1-25.74 9.937-40.06 9.937-12.47 0-24.676-1.66-35.552-6.39" style="fill:#fff;fill-opacity:1;fill-rule:nonzero;stroke:#000;stroke-width:2.47247;stroke-dasharray:none;stroke-opacity:1" transform="translate(-44.196 -247.573)"/></svg>