<svg xmlns="http://www.w3.org/2000/svg" width="50" height="50" viewBox="0 0 55.01 55.01">
  <path fill="#fff" d="m48.82,37.68c0,5.3,0,10.59,0,15.89,0,.15,0,.33-.08.46-.19.35-.59.42-.9.17-.28-.23-.53-.5-.79-.76-1.28-1.28-2.6-2.52-3.82-3.85-.72-.78-2.39-.78-3.1,0-1.26,1.37-2.62,2.66-3.94,3.97-.73.72-1.59.93-2.55.57-.32-.12-.63-.35-.87-.59-1.33-1.3-2.64-2.6-3.94-3.93-.63-.65-1.34-.72-2.16-.54-.4.09-.69.3-.96.58-1.3,1.3-2.62,2.58-3.89,3.9-.9.94-2.49,1-3.48-.01-1.29-1.32-2.61-2.61-3.91-3.92-.62-.63-1.35-.72-2.17-.55-.39.08-.67.29-.94.56-1.45,1.46-2.92,2.91-4.37,4.38-.21.21-.43.31-.73.28-.27-.03-.47-.21-.49-.48,0-.08,0-.17,0-.25,0-10.57,0-21.15.01-31.72,0-.58.12-1.16.2-1.74.07-.52.14-1.03.24-1.54.13-.69.26-1.39.45-2.07.22-.8.46-1.6.77-2.37.34-.84.73-1.66,1.17-2.45.63-1.16,1.36-2.25,2.18-3.29.66-.84,1.39-1.6,2.15-2.32.69-.64,1.43-1.24,2.18-1.8,1.09-.82,2.29-1.48,3.54-2.05,1.23-.56,2.5-1.03,3.81-1.3.82-.17,1.65-.32,2.5-.4,1.37-.13,2.73-.05,4.09-.07.43,0,.86.11,1.3.18.03,0,.05.02.08.02.63-.04,1.21.19,1.81.34.53.14,1.08.23,1.6.4,1.61.52,3.12,1.24,4.57,2.13.92.56,1.78,1.2,2.57,1.93.59.54,1.2,1.08,1.75,1.66.5.53.96,1.1,1.4,1.67,1.01,1.31,1.89,2.7,2.53,4.22.48,1.14.89,2.32,1.27,3.5.22.67.32,1.38.46,2.07.12.59.21,1.19.32,1.78,0,.04.01.07.01.11.04,1,.11,2,.11,2.99.01,4.75,0,9.51,0,14.26Zm-12.88-10.05c2.96.29,5.88-2.79,5.69-5.47.24-3.62-2.78-5.95-5.51-6.02-3.37-.09-5.94,2.65-5.98,5.71-.04,3.1,2.56,6,5.8,5.78Zm-17.39,0c3.48.15,5.77-2.66,5.85-5.49.09-3.46-2.6-5.98-5.76-5.98-3.14,0-5.6,2.44-5.75,5.68-.14,3.02,2.76,6.05,5.66,5.79Z"/>
</svg>