<svg xmlns="http://www.w3.org/2000/svg" viewBox="0 0 136.94 62.59"><defs><style>.cls-1{fill:#fff;}.cls-2{fill:#5bf3c7;}</style></defs><g id="Ebene_2" data-name="Ebene 2"><g id="Ebene_1-2" data-name="Ebene 1"><rect class="cls-1" x="1.3" width="52.27" height="7.4" rx="1.76"/><rect class="cls-2" x="1.3" y="28.6" width="66.08" height="7.4" rx="1.76"/><rect class="cls-2" x="59.02" width="52.27" height="7.4" rx="1.76"/><rect class="cls-1" x="31.88" y="14.3" width="52.27" height="7.4" rx="1.76"/><rect class="cls-2" x="89.58" y="14.3" width="20.71" height="7.4" rx="1.76"/><rect class="cls-2" x="1.3" y="14.3" width="26.14" height="7.4" rx="1.76"/><rect class="cls-1" x="70.34" y="28.6" width="38.96" height="7.4" rx="1.76"/><circle class="cls-2" cx="120.17" cy="3.95" r="3.95"/><circle class="cls-2" cx="132.99" cy="3.95" r="3.95"/><circle class="cls-1" cx="120.16" cy="17.75" r="3.95"/><path class="cls-1" d="M2.42,58.52A2.15,2.15,0,0,0,4.64,60.2c1,0,1.84-.35,1.84-1.26,0-.48-.27-.91-1.42-1.32l-1.33-.45C1,56.24.61,54.54.61,53.53.61,51.32,2.34,50,4.74,50a4.18,4.18,0,0,1,4.1,2.68l-2.21,1.1a1.94,1.94,0,0,0-1.89-1.38c-.84,0-1.49.33-1.49,1.13,0,.32.09.9,1.32,1.32l1.29.45c2.75.86,3.24,2.5,3.26,3.62,0,2.58-2.24,3.71-4.39,3.71C2.38,62.59.25,61.26,0,59Z"/><path class="cls-1" d="M16.78,62.4H14.07V50.15h2.71Z"/><path class="cls-1" d="M27.07,62.4H22.49V50.15h4.58c4,0,6.51,2.75,6.51,6.13S31.08,62.4,27.07,62.4Zm0-10.1H25.2v8h1.87a4,4,0,0,0,0-8Z"/><path class="cls-1" d="M38.53,62.4V50.15h8.14V52.3H41.25v3H46v2.16H41.25v2.78h5.42V62.4Z"/><path class="cls-1" d="M53.2,58.52a2.15,2.15,0,0,0,2.22,1.68c1,0,1.84-.35,1.84-1.26,0-.48-.26-.91-1.42-1.32l-1.33-.45c-2.71-.93-3.11-2.63-3.11-3.64,0-2.21,1.73-3.57,4.13-3.57a4.16,4.16,0,0,1,4.09,2.68l-2.2,1.1a2,2,0,0,0-1.89-1.38c-.84,0-1.49.33-1.49,1.13,0,.32.09.9,1.31,1.32l1.3.45c2.75.86,3.23,2.5,3.25,3.62,0,2.58-2.24,3.71-4.39,3.71-2.35,0-4.48-1.33-4.73-3.6Z"/><path class="cls-1" d="M73.43,50.15v2.28H70v10H67.27v-10H63.82V50.15Z"/><path class="cls-1" d="M84.84,57.85c.31,1.3.8,2.35,2,2.35a1.9,1.9,0,0,0,1.24-.53l1,1.88a4,4,0,0,1-2.73,1c-2.9,0-3.79-3.25-3.93-4.55H80.78V62.4h-2.7V50.15h5.45a3.78,3.78,0,0,1,3.9,4A3.71,3.71,0,0,1,84.84,57.85Zm-1.66-2a1.73,1.73,0,0,0,0-3.44h-2.4v3.44Z"/><path class="cls-1" d="M93.24,62.4V50.15h8.14V52.3H96v3h4.71v2.16H96v2.78h5.43V62.4Z"/><path class="cls-1" d="M105.1,62.4l4.73-12.25h2.64l4.8,12.25h-2.84l-.87-2.29v0h-4.82v0l-.84,2.29Zm4.38-4.48h3.31L111.16,53Z"/><path class="cls-1" d="M127.47,62.26,124.41,55l-.65,7.45h-2.71l1.13-12.25h2.73l3.43,8.24,3.43-8.24h2.73l1.14,12.25h-2.71L132.28,55l-3.06,7.31Z"/></g></g></svg>