<svg width="615" height="125" viewBox="0 0 615 125" fill="none" xmlns="http://www.w3.org/2000/svg">
<path d="M107.065 122.743C106.487 123.746 107.209 125 108.366 125H152.548L129.105 84.4927L107.065 122.743Z" fill="white"/>
<path d="M181.614 78.8659L137.409 2.14969C136.642 0.820139 135.226 -2.22761e-05 133.694 -2.22761e-05H87.7744C86.6179 -2.22761e-05 85.8946 1.25653 86.4765 2.26L157.175 124.424C157.817 124.053 158.365 123.516 158.747 122.85L181.614 83.1647C182.379 81.8349 182.379 80.1964 181.614 78.8659" fill="white"/>
<path d="M75.1228 2.25749C75.7015 1.25463 74.9789 0.000497114 73.8225 0.000497114H29.6392L53.0823 40.5083L75.1228 2.25749Z" fill="white"/>
<path d="M25.0132 0.576639C24.3709 0.947695 23.8245 1.48491 23.4417 2.15039L0.574803 41.8358C-0.191601 43.1656 -0.191601 44.8041 0.574803 46.1346L44.7784 122.851C45.5459 124.18 46.9617 125 48.4947 125H94.4137C95.5702 125 96.2927 123.744 95.7117 122.74L25.0132 0.576639Z" fill="white"/>
<path d="M409.359 83.5901L396.7 46.7843H381.646L402.822 104.499H415.893L437.07 46.7843H422.015L409.359 83.5901" fill="white"/>
<path d="M492.632 74.7358C489.791 72.5538 486.46 71.1211 483.108 69.9125C480.857 69.1016 478.559 68.4737 476.375 67.483C474.739 66.7419 472.981 66.0893 472.203 64.34C471.58 62.9364 471.698 61.2263 472.591 59.9625C473.916 58.0883 476.545 57.6703 478.682 57.6703C481.715 57.6703 486.571 59.1466 491.756 62.4441L497.793 52.1449C494.538 49.6713 491.201 47.9517 487.781 46.9907C484.362 46.0296 481.329 45.5478 478.682 45.5478C474.712 45.5478 471.278 46.0296 468.385 46.9907C465.49 47.9517 463.284 49.2727 461.767 50.9503C460.251 52.627 459.147 54.4119 458.458 56.3078C457.77 58.203 457.423 60.3087 457.423 62.6147C457.423 64.6479 457.809 66.5466 458.582 68.3047C459.354 70.0627 460.292 71.5057 461.394 72.6322C462.497 73.761 463.931 74.8455 465.697 75.8907C467.46 76.9352 469.047 77.7437 470.453 78.3221C471.858 78.9 473.553 79.517 475.54 80.179C478.408 81.1668 480.641 82.2243 482.241 83.3502C483.84 84.4789 484.64 85.9494 484.64 87.7612C484.64 90.5696 482.895 92.8814 480.13 93.4511C477.021 94.0922 473.544 93.5477 470.454 93.028C467.005 92.4488 463.614 91.5537 460.286 90.486L456.099 101.286C464.813 104.253 471.899 105.736 477.36 105.736C481.424 105.736 485.242 105.504 489.057 103.926C490.186 103.459 491.4 102.788 492.698 101.907C496.195 99.5317 498.016 95.4646 498.555 91.3839C499.109 87.1885 498.662 81.9211 496.063 78.426C494.97 76.9547 494.087 75.8528 492.632 74.7358" fill="white"/>
<path d="M600.518 46.8525V76.6009L582.612 46.8525H568.245V104.567H582.612V74.7522L600.518 104.567H614.885V46.8525H600.518Z" fill="white"/>
<path d="M551.029 86.0656C551.029 86.0656 551.029 86.0541 551.029 86.0534C551.021 86.2871 551.012 86.6108 550.999 87.0369C550.979 87.0557 550.967 87.0768 550.973 87.1036C550.975 87.1166 550.98 87.132 550.99 87.1501L550.941 87.3411C550.911 87.6241 550.811 87.947 550.688 88.3281C550.416 89.0779 549.869 90.0717 548.803 91.0602C547.74 92.0213 546.133 92.9838 544.118 93.3025C543.523 93.4112 542.941 93.4556 542.3 93.4461C541.661 93.4556 541.079 93.4112 540.484 93.3025C538.469 92.9838 536.862 92.0213 535.799 91.0602C534.733 90.0717 534.187 89.0779 533.914 88.3281C533.791 87.947 533.691 87.6241 533.661 87.3411L533.611 87.1501C533.622 87.132 533.627 87.1166 533.629 87.1036C533.633 87.0768 533.622 87.0557 533.603 87.0369C533.59 86.6108 533.581 86.2871 533.573 86.0534C533.573 86.0541 533.573 86.0656 533.573 86.0656C533.573 86.0656 533.566 85.7891 533.573 86.0534C533.573 85.9212 533.577 73.0932 533.568 64.7924C533.629 63.6367 534.009 62.1387 535.397 60.6542C536.739 59.2105 539.08 58.0142 541.579 57.9054C541.821 57.8873 542.06 57.9243 542.3 57.9243C542.542 57.9243 542.779 57.8873 543.022 57.9054C545.522 58.0142 547.863 59.2105 549.206 60.6542C550.591 62.1387 550.973 63.6367 551.034 64.7924C551.012 74.0513 551.029 85.9212 551.029 86.0534C551.036 85.7891 551.042 85.6433 551.042 85.6433L551.029 86.0656V86.0656ZM565.39 65.161C565.341 64.5601 565.295 63.9525 565.246 63.3385C564.696 58.3881 561.765 53.6011 557.731 50.5715C553.695 47.4553 548.726 45.8881 543.557 45.6233C543.143 45.6051 542.721 45.6109 542.3 45.6109C541.881 45.6109 541.457 45.6051 541.044 45.6233C535.876 45.8881 530.907 47.4553 526.871 50.5715C522.837 53.6011 519.906 58.3881 519.354 63.3385C519.307 63.9525 519.259 64.5601 519.212 65.161C519.203 65.5494 519.194 65.9333 519.186 66.3129C519.171 67.0461 519.207 86.0656 519.207 86.0656L519.22 86.4874C519.22 86.4874 519.272 87.0217 519.369 88.0232C519.434 88.4755 519.516 88.9815 519.624 89.5337C519.682 89.8089 519.742 90.0964 519.805 90.3961C519.88 90.6429 519.958 90.8999 520.04 91.1662C520.359 92.2303 520.859 93.3917 521.513 94.6198C522.853 97.0573 525.057 99.5739 528.001 101.567C530.935 103.564 534.642 104.98 538.721 105.506C539.867 105.68 541.096 105.736 542.3 105.728C543.506 105.736 544.735 105.68 545.881 105.506C549.961 104.98 553.665 103.564 556.601 101.567C559.545 99.5739 561.749 97.0573 563.089 94.6198C563.744 93.3917 564.243 92.2303 564.562 91.1662C564.644 90.8999 564.722 90.6429 564.797 90.3961C564.86 90.0964 564.92 89.8089 564.978 89.5337C565.084 88.9815 565.168 88.4755 565.233 88.0232C565.33 87.0217 565.382 86.4874 565.382 86.4874L565.395 86.0656C565.395 86.0656 565.431 67.0461 565.416 66.3129C565.406 65.9333 565.397 65.5494 565.39 65.161" fill="white"/>
<path d="M501.737 104.499H516.103V46.7849H501.737V104.499V104.499Z" fill="white"/>
<path d="M439.197 104.499H453.564V46.7849H439.197V104.499V104.499Z" fill="white"/>
<path d="M365.156 104.601H379.522V46.8857H365.156V104.601V104.601Z" fill="white"/>
<path d="M234.601 85.4404V85.4521L234.614 85.0376C234.614 85.0376 234.61 85.1807 234.601 85.4404Z" fill="white"/>
<path d="M249.818 86.0618C249.825 85.7968 249.829 85.6517 249.829 85.6517L249.818 86.0733V86.0618C249.81 86.2948 249.801 86.6185 249.786 87.0453C249.767 87.0641 249.756 87.0845 249.76 87.1113C249.764 87.1252 249.769 87.1405 249.779 87.1585L249.73 87.3495C249.7 87.6318 249.6 87.9547 249.476 88.3366C249.204 89.0856 248.658 90.0794 247.592 91.0679C246.529 92.029 244.922 92.9915 242.907 93.3102C242.31 93.4191 241.73 93.4633 241.089 93.4538C240.449 93.4633 239.868 93.4191 239.273 93.3102C237.256 92.9915 235.651 92.029 234.588 91.0679C233.522 90.0794 232.975 89.0856 232.701 88.3366C232.578 87.9547 232.478 87.6318 232.45 87.3495L232.399 87.1585C232.411 87.1405 232.416 87.1252 232.418 87.1113C232.422 87.0845 232.411 87.0641 232.392 87.0453C232.379 86.6185 232.37 86.2948 232.362 86.0618V86.0733L232.349 85.6517C232.349 85.6517 232.353 85.7968 232.362 86.0618C232.362 85.9826 232.377 52.2101 232.377 46.7851H217.975C217.983 51.9815 217.996 86.0733 217.996 86.0733L218.007 86.4951C218.007 86.4951 218.059 87.0301 218.158 88.0311C218.223 88.4839 218.305 88.9899 218.413 89.5422C218.471 89.8174 218.531 90.1048 218.594 90.4038C218.669 90.6506 218.747 90.9076 218.829 91.1748C219.148 92.2388 219.647 93.4001 220.302 94.6282C221.642 97.0658 223.846 99.5816 226.79 101.575C229.724 103.572 233.43 104.988 237.508 105.514C238.656 105.688 239.885 105.745 241.089 105.735C242.293 105.745 243.524 105.688 244.67 105.514C248.749 104.988 252.454 103.572 255.39 101.575C258.334 99.5816 260.537 97.0658 261.876 94.6282C262.532 93.4001 263.032 92.2388 263.351 91.1748C263.433 90.9076 263.509 90.6506 263.586 90.4038C263.647 90.1048 263.709 89.8174 263.766 89.5422C263.873 88.9899 263.957 88.4839 264.022 88.0311C264.119 87.0301 264.171 86.4951 264.171 86.4951L264.184 86.0733C264.184 86.0733 264.197 51.9815 264.205 46.7851H249.801C249.803 52.2101 249.818 85.9826 249.818 86.0618" fill="white"/>
<path d="M347.613 85.2835C347.635 85.4454 347.624 85.6146 347.605 85.7865C347.488 86.9014 347.221 87.9606 346.694 88.9607C345.84 90.5808 344.294 92.201 342.318 92.2344C341.625 92.246 335.702 92.2417 330.724 92.235V59.0476C335.702 59.0418 341.625 59.0366 342.316 59.0491C343.019 59.1115 343.377 59.2087 343.934 59.4504C344.965 59.902 346.017 60.9565 346.714 62.3052C347.066 62.9693 347.32 63.7033 347.475 64.4124C347.538 64.7368 347.626 65.2223 347.592 65.2681C347.622 64.9466 347.613 85.2835 347.613 85.2835V85.2835ZM361.713 63.6509C361.508 62.2413 361.213 61.3114 360.874 60.2482C360.197 58.1772 359.116 56.3343 357.881 54.6779C355.419 51.3528 351.955 48.9052 348.107 47.6197C346.218 46.9781 344.048 46.7843 342.316 46.793C341.625 46.8046 316.357 46.7843 316.357 46.7843V104.499H330.724C330.724 104.499 341.625 104.478 342.316 104.49C343.838 104.416 343.379 104.54 344.923 104.354C345.491 104.275 346.153 104.184 346.653 104.058C347.137 103.925 347.626 103.791 348.118 103.655C351.97 102.359 355.422 99.906 357.88 96.5872C359.117 94.936 360.186 93.0938 360.866 91.0294C361.207 89.9994 361.515 88.9412 361.688 87.827C361.793 87.276 361.877 86.7179 361.908 86.1414C361.955 85.6094 361.998 84.8814 361.996 84.6071C362.074 81.6508 362.069 69.616 361.99 66.6597C361.918 65.0257 361.953 65.4154 361.713 63.6509" fill="white"/>
<path d="M299.415 69.7953C299.362 70.0319 299.288 70.2619 299.208 70.4994C298.906 71.4575 298.242 72.3511 297.397 72.9753C296.98 73.3004 296.495 73.487 296.01 73.6526C295.431 73.7817 295.291 73.8601 293.965 73.8906C292.787 73.9109 287.28 73.9073 282.6 73.9001V59.0359C287.28 59.0286 292.787 59.0258 293.965 59.0461C295.289 59.0758 295.431 59.1543 296.01 59.2834C296.493 59.449 296.978 59.6355 297.397 59.9614C298.24 60.5849 298.906 61.4785 299.208 62.4366C299.286 62.674 299.361 62.9041 299.413 63.1414C299.437 63.3322 299.53 63.7351 299.476 63.6996C299.484 63.7518 299.491 63.7155 299.493 63.7787V69.158C299.491 69.2204 299.485 69.1842 299.478 69.2364C299.532 69.2015 299.437 69.6043 299.415 69.7953V69.7953ZM312.758 58.7544C312.416 57.8325 312.032 56.9346 311.542 56.0955C309.624 52.7203 306.712 50.1298 303.462 48.5815C301.831 47.8128 300.129 47.2923 298.434 46.9861C296.818 46.6936 294.765 46.7901 293.965 46.7791C292.599 46.7618 268.234 46.7473 268.234 46.7473V104.499H282.6V86.1699C287.196 86.1734 292.601 86.1741 293.965 86.1569C294.767 86.1459 296.82 86.2423 298.436 85.9506C300.131 85.6436 301.833 85.1232 303.462 84.3544C306.713 82.8062 309.624 80.2164 311.544 76.8405C312.032 76.0013 312.418 75.1034 312.759 74.1816C313.662 71.7485 314.046 68.93 314.02 66.349C314.044 63.767 313.66 61.1875 312.758 58.7544" fill="white"/>
</svg>
