<svg width="48" height="48" viewBox="0 0 48 48" fill="none" xmlns="http://www.w3.org/2000/svg">
<path d="M24 21C22.8972 21 22 20.8431 22 18.7672V11.3179C22 9.24205 22.8972 9 24 9C25.1028 9 26 9.24205 26 11.3179V18.7672C26 20.8431 25.1028 21 24 21Z" fill="white"/>
<path d="M9 32.2427C9 39.8285 15.729 46 24 46C32.271 46 39 39.8285 39 32.2427V15.6646C39 8.72911 33.3753 2.97584 26.09 2.04034L26.0642 6.12574C28.0981 6.91799 29.5407 8.90677 29.5407 11.2349V18.9418C29.5407 21.3131 28.0442 23.3323 25.9505 24.0938L25.9186 29.1482C25.9118 30.2153 25.0474 31.075 23.9878 31.0682C22.9282 31.0614 22.0747 30.1907 22.0814 29.1235L22.1136 24.0394C20.0952 23.2395 18.6666 21.2587 18.6666 18.9418V11.2349C18.6666 8.87486 20.149 6.86352 22.2271 6.09383L22.253 2C14.8019 2.7962 9 8.62067 9 15.6646V32.2427Z" fill="white"/>
</svg>
