<svg width="28" height="28" viewBox="0 0 28 28" fill="none" xmlns="http://www.w3.org/2000/svg">
<path d="M14.0003 0.666504C6.66699 0.666504 0.666992 6.6665 0.666992 13.9998C0.666992 21.3332 6.66699 27.3332 14.0003 27.3332C21.3337 27.3332 27.3337 21.3332 27.3337 13.9998C27.3337 6.6665 21.3337 0.666504 14.0003 0.666504ZM19.6003 11.7332L13.2003 18.1332C12.667 18.6665 11.867 18.6665 11.3337 18.1332L8.40033 15.1998C7.86699 14.6665 7.86699 13.8665 8.40033 13.3332C8.93366 12.7998 9.73366 12.7998 10.267 13.3332L12.267 15.3332L17.7337 9.8665C18.267 9.33317 19.067 9.33317 19.6003 9.8665C20.1337 10.3998 20.1337 11.1998 19.6003 11.7332Z" fill="#18181B"/>
</svg>
