<svg width="40" height="32" viewBox="0 0 40 32" fill="none" xmlns="http://www.w3.org/2000/svg">
<path d="M33.5659 3.39511C33.5551 3.37367 33.5371 3.35687 33.5153 3.34772C30.9867 2.1634 28.3183 1.31889 25.5769 0.835323C25.552 0.830597 25.5262 0.834007 25.5033 0.845068C25.4804 0.85613 25.4615 0.87428 25.4493 0.896938C25.086 1.57016 24.7561 2.26166 24.4611 2.96882C21.506 2.51089 18.5001 2.51089 15.545 2.96882C15.248 2.25987 14.9129 1.56819 14.5412 0.896938C14.5284 0.874773 14.5094 0.857041 14.4867 0.846051C14.4639 0.835061 14.4384 0.831323 14.4136 0.835323C11.6719 1.31788 9.0033 2.16245 6.47504 3.34778C6.45339 3.35715 6.43513 3.37314 6.42277 3.39356C1.36675 11.1014 -0.0182866 18.6196 0.661165 26.0448C0.663076 26.063 0.668553 26.0807 0.67727 26.0966C0.685987 26.1126 0.697765 26.1267 0.711905 26.1379C3.65598 28.3632 6.94896 30.0618 10.4503 31.1612C10.475 31.1687 10.5013 31.1684 10.5258 31.1602C10.5502 31.152 10.5717 31.1364 10.5872 31.1154C11.3392 30.0708 12.0055 28.9647 12.5794 27.8084C12.5873 27.7925 12.5918 27.7751 12.5926 27.7573C12.5935 27.7396 12.5906 27.7218 12.5842 27.7053C12.5778 27.6887 12.5681 27.6737 12.5556 27.6613C12.5431 27.6489 12.5282 27.6393 12.5118 27.6331C11.4611 27.2227 10.4438 26.728 9.46956 26.1535C9.45186 26.1429 9.437 26.128 9.42628 26.1101C9.41557 26.0922 9.40932 26.0719 9.40811 26.051C9.4069 26.0301 9.41075 26.0092 9.41933 25.9902C9.4279 25.9711 9.44094 25.9545 9.45729 25.9418C9.66171 25.7855 9.86626 25.6229 10.0615 25.4586C10.0788 25.444 10.0998 25.4347 10.1221 25.4316C10.1443 25.4286 10.167 25.4319 10.1875 25.4413C16.57 28.4148 23.48 28.4148 29.787 25.4413C29.8076 25.4313 29.8305 25.4275 29.8531 25.4303C29.8757 25.4331 29.897 25.4424 29.9146 25.4571C30.1099 25.6213 30.3144 25.7855 30.5203 25.9418C30.5368 25.9544 30.5499 25.9709 30.5586 25.9898C30.5674 26.0088 30.5714 26.0297 30.5703 26.0506C30.5692 26.0715 30.5631 26.0919 30.5526 26.1098C30.542 26.1278 30.5272 26.1428 30.5096 26.1535C29.5376 26.7328 28.5194 27.2272 27.4659 27.6316C27.4495 27.6379 27.4346 27.6477 27.4223 27.6604C27.4099 27.673 27.4002 27.6881 27.394 27.7048C27.3877 27.7215 27.385 27.7394 27.3859 27.7572C27.3869 27.775 27.3915 27.7925 27.3995 27.8084C27.983 28.9583 28.6484 30.063 29.3903 31.1136C29.4053 31.1351 29.4266 31.1513 29.4512 31.1598C29.4758 31.1683 29.5023 31.1687 29.5271 31.161C33.0347 30.0653 36.3335 28.3666 39.2813 26.1379C39.2956 26.1272 39.3076 26.1135 39.3163 26.0978C39.3251 26.082 39.3304 26.0645 39.332 26.0464C40.1454 17.4621 37.9702 10.0054 33.5659 3.39511ZM13.5326 21.5237C11.611 21.5237 10.0276 19.7235 10.0276 17.5127C10.0276 15.3019 11.5803 13.5016 13.5326 13.5016C15.5002 13.5016 17.0682 15.3175 17.0375 17.5125C17.0375 19.7235 15.4848 21.5237 13.5326 21.5237ZM26.4915 21.5237C24.57 21.5237 22.9866 19.7235 22.9866 17.5127C22.9866 15.3019 24.5393 13.5016 26.4915 13.5016C28.4592 13.5016 30.0272 15.3175 29.9965 17.5125C29.9965 19.7235 28.4592 21.5237 26.4915 21.5237Z" fill="white"/>
</svg>
