<svg width="301" height="222" viewBox="0 0 301 222" fill="none" xmlns="http://www.w3.org/2000/svg">
<path d="M34.9897 141.063L15.2641 153.315M34.9897 141.063C36.7497 139.997 38.9378 139.952 40.7289 140.946M34.9897 141.063V141.063C36.7403 140.003 38.9386 139.953 40.7289 140.946V140.946M15.2641 153.315C13.5438 154.358 12.4853 156.223 12.4721 158.236M15.2641 153.315V153.315C13.5424 154.358 12.4853 156.222 12.4721 158.236V158.236M12.4721 158.236L12.7763 181.221M12.7763 181.221C12.7625 183.323 13.8904 185.261 15.719 186.275M12.7763 181.221V181.221C12.7626 183.312 13.8912 185.261 15.719 186.275V186.275M15.719 186.275L36.3942 197.747M36.3942 197.747C38.2121 198.756 40.4366 198.694 42.2068 197.585M36.3942 197.747V197.747C38.2113 198.755 40.4462 198.687 42.2068 197.585V197.585M42.2068 197.585L62.2291 185.044M62.2291 185.044C63.9548 183.963 64.9882 182.05 64.9468 180.013M62.2291 185.044V185.044C63.9561 183.962 64.9882 182.051 64.9468 180.013V180.013M64.9468 180.013L64.8199 157.403M64.8199 157.403C64.7783 155.357 63.6585 153.492 61.8783 152.505M64.8199 157.403V157.403C64.7785 155.368 63.6577 153.492 61.8783 152.505V152.505M61.8783 152.505L40.7289 140.946" stroke="url(#paint0_linear_5112_46518)" stroke-width="6.17"/>
<path d="M227.368 85.2446L189.221 63.2252M227.368 85.2446C230.853 87.2561 233 90.9766 233 95.0034M227.368 85.2446V85.2446C230.853 87.2562 233 90.9796 233 95.0034V95.0034M189.221 63.2252C185.815 61.2591 181.631 61.2153 178.184 63.1097M189.221 63.2252V63.2252C185.815 61.2594 181.63 61.2156 178.184 63.1097V63.1097M178.184 63.1097L137.837 85.2872M137.837 85.2872C134.237 87.2658 132 91.0504 132 95.1615M137.837 85.2872V85.2872C134.237 87.2659 132 91.0535 132 95.1615V95.1615M132 95.1615V184.755M132 184.755C132 188.842 134.211 192.609 137.778 194.597M132 184.755V184.755C132 188.839 134.211 192.609 137.778 194.597V194.597M137.778 194.597L178.124 217.087M178.124 217.087C181.602 219.026 185.843 218.981 189.279 216.97M178.124 217.087V217.087C181.601 219.025 185.844 218.981 189.279 216.97V216.97M189.279 216.97L227.428 194.638M227.428 194.638C230.879 192.618 233 188.916 233 184.914M227.428 194.638V194.638C230.879 192.618 233 188.913 233 184.914V184.914M233 184.914L233 95.0034" stroke="url(#paint1_linear_5112_46518)" stroke-width="6.08"/>
<path d="M257.99 8.93413L238.264 21.1866M257.99 8.93413C259.75 7.86796 261.938 7.82337 263.729 8.81718M257.99 8.93413V8.93413C259.74 7.87366 261.939 7.82381 263.729 8.81718V8.81718M238.264 21.1866C236.544 22.2287 235.485 24.0942 235.472 26.1071M238.264 21.1866V21.1866C236.542 22.2296 235.485 24.0927 235.472 26.1071V26.1071M235.472 26.1071L235.776 49.092M235.776 49.092C235.762 51.1945 236.89 53.1317 238.719 54.1463M235.776 49.092V49.092C235.763 51.183 236.891 53.1321 238.719 54.1463V54.1463M238.719 54.1463L259.394 65.618M259.394 65.618C261.212 66.6266 263.437 66.5646 265.207 65.4558M259.394 65.618V65.618C261.211 66.6262 263.446 66.5586 265.207 65.4558V65.4558M265.207 65.4558L285.229 52.9146M285.229 52.9146C286.955 51.8337 287.988 49.9207 287.947 47.8837M285.229 52.9146V52.9146C286.956 51.8329 287.988 49.9225 287.947 47.8837V47.8837M287.947 47.8837L287.82 25.2746M287.82 25.2746C287.778 23.2284 286.658 21.3636 284.878 20.3758M287.82 25.2746V25.2746C287.778 23.2392 286.658 21.3631 284.878 20.3758V20.3758M284.878 20.3758L263.729 8.81718" stroke="url(#paint2_linear_5112_46518)" stroke-width="6.17"/>
<defs>
<linearGradient id="paint0_linear_5112_46518" x1="12.5927" y1="154.815" x2="47.4509" y2="197.796" gradientUnits="userSpaceOnUse">
<stop stop-color="#00DC82"/>
<stop offset="0.5" stop-color="#36E4DA"/>
<stop offset="1" stop-color="#0047E1"/>
</linearGradient>
<linearGradient id="paint1_linear_5112_46518" x1="182.559" y1="60.0586" x2="114.481" y2="182.301" gradientUnits="userSpaceOnUse">
<stop stop-color="#00DC82"/>
<stop offset="0.5" stop-color="#36E4DA"/>
<stop offset="1" stop-color="#0047E1"/>
</linearGradient>
<linearGradient id="paint2_linear_5112_46518" x1="235.593" y1="22.6857" x2="270.451" y2="65.6672" gradientUnits="userSpaceOnUse">
<stop stop-color="#00DC82"/>
<stop offset="0.5" stop-color="#36E4DA"/>
<stop offset="1" stop-color="#0047E1"/>
</linearGradient>
</defs>
</svg>
