<svg width="44" height="44" viewBox="0 0 44 44" fill="none" xmlns="http://www.w3.org/2000/svg">
<path d="M21.9997 0.86792C16.8549 0.868133 11.8781 2.699 7.95966 6.03292C4.04125 9.36685 1.43699 13.9863 0.612856 19.0646C-0.211275 24.143 0.798505 29.3489 3.46152 33.7509C6.12453 38.1529 10.267 41.4636 15.1477 43.0908C16.231 43.2804 16.6373 42.6305 16.6373 42.0616C16.6373 41.5471 16.6102 39.8408 16.6102 38.0263C11.1664 39.0283 9.75807 36.6992 9.32473 35.4805C8.8439 34.2952 8.08166 33.2447 7.1039 32.42C6.34557 32.0138 5.26223 31.0117 7.0768 30.9846C7.76967 31.0598 8.43421 31.3009 9.0141 31.6875C9.59399 32.0741 10.0722 32.5948 10.4081 33.2054C10.7044 33.7377 11.1029 34.2064 11.5806 34.5845C12.0584 34.9626 12.6061 35.2427 13.1923 35.4087C13.7785 35.5748 14.3917 35.6235 14.9968 35.5522C15.6019 35.4808 16.1869 35.2908 16.7184 34.9929C16.8122 33.8914 17.3031 32.8616 18.0997 32.0951C13.2789 31.5534 8.2414 29.6846 8.2414 21.3972C8.21095 19.2438 9.00555 17.1604 10.4622 15.5742C9.79984 13.7027 9.87735 11.6489 10.6789 9.83257C10.6789 9.83257 12.4934 9.2638 16.6372 12.0534C20.1825 11.0783 23.9253 11.0783 27.4706 12.0534C31.6143 9.23674 33.4289 9.83257 33.4289 9.83257C34.2306 11.6488 34.3081 13.7027 33.6456 15.5742C35.1066 17.1577 35.9019 19.2429 35.8664 21.3972C35.8664 29.7117 30.8018 31.5534 25.981 32.0951C26.4981 32.6192 26.8963 33.2484 27.1486 33.94C27.401 34.6316 27.5016 35.3695 27.4435 36.1034C27.4435 39.0014 27.4164 41.3304 27.4164 42.0617C27.4164 42.6305 27.8226 43.3076 28.906 43.0909C33.7781 41.4504 37.9086 38.1319 40.5603 33.7277C43.212 29.3235 44.2121 24.1202 43.3823 19.0468C42.5525 13.9733 39.9466 9.35989 36.0299 6.03003C32.1132 2.70016 27.1406 0.870596 21.9997 0.86792Z" fill="white"/>
</svg>
