<svg width="59" height="40" viewBox="0 0 59 40" fill="none" xmlns="http://www.w3.org/2000/svg">
<path opacity="0.17" d="M24.138 14.155C22.052 14.155 20.3633 14.9 19.072 16.39C17.88 17.7807 17.284 19.7177 17.284 22.201V39.634H0V20.711C0 14.5523 1.83767 9.58567 5.513 5.811C9.18833 1.937 13.9563 0 19.817 0H26.82V14.155H24.138ZM56.173 14.155C54.1863 14.155 52.5473 14.9 51.256 16.39C50.064 17.7807 49.468 19.7177 49.468 22.201V39.634H32.184V20.711C32.184 14.5523 33.972 9.58567 37.548 5.811C41.2233 1.937 45.9913 0 51.852 0H58.855V14.155H56.173Z" fill="url(#paint0_linear_5112_46126)"/>
<defs>
<linearGradient id="paint0_linear_5112_46126" x1="-2.61374e-07" y1="19.7937" x2="49.9524" y2="-1.29445" gradientUnits="userSpaceOnUse">
<stop stop-color="#00DC82"/>
<stop offset="0.5" stop-color="#36E4DA"/>
<stop offset="1" stop-color="#0047E1"/>
</linearGradient>
</defs>
</svg>
