<svg width="44" height="36" viewBox="0 0 44 36" fill="none" xmlns="http://www.w3.org/2000/svg">
<path d="M43.6663 4.56663C42.0377 5.27317 40.3154 5.74024 38.553 5.9533C40.4124 4.84249 41.8058 3.09499 42.4747 1.03497C40.7274 2.0751 38.8147 2.80794 36.8197 3.20163C35.4862 1.75554 33.7104 0.792941 31.7709 0.464811C29.8314 0.13668 27.8379 0.461576 26.1029 1.38854C24.3679 2.31551 22.9897 3.79212 22.1844 5.58678C21.379 7.38144 21.1921 9.39264 21.653 11.305C18.1201 11.1263 14.6643 10.2064 11.5101 8.605C8.35589 7.00363 5.57384 4.75663 3.34467 2.00997C2.56281 3.37533 2.15197 4.92158 2.15301 6.49497C2.15024 7.95613 2.50881 9.3953 3.19681 10.6844C3.88481 11.9734 4.88088 13.0723 6.09634 13.8833C4.68363 13.8449 3.30109 13.4658 2.06634 12.7783V12.8866C2.07693 14.9339 2.79433 16.9147 4.09719 18.4939C5.40005 20.0731 7.2084 21.1539 9.21634 21.5533C8.44339 21.7885 7.6409 21.9125 6.83301 21.9216C6.27377 21.9151 5.71592 21.8644 5.16467 21.77C5.73648 23.5311 6.84302 25.0701 8.33034 26.173C9.81765 27.2758 11.6118 27.8877 13.463 27.9233C10.3369 30.383 6.47742 31.7255 2.49967 31.7366C1.77543 31.739 1.05177 31.6956 0.333008 31.6066C4.39427 34.2289 9.1271 35.6209 13.9613 35.615C17.2973 35.6496 20.6068 35.0192 23.6964 33.7605C26.786 32.5018 29.5939 30.64 31.9559 28.284C34.318 25.928 36.1869 23.125 37.4535 20.0386C38.7202 16.9522 39.3591 13.6444 39.333 10.3083C39.333 9.93997 39.333 9.54997 39.333 9.15997C41.0332 7.89206 42.4995 6.33772 43.6663 4.56663Z" fill="white"/>
</svg>
