<svg width="48" height="34" viewBox="0 0 48 34" fill="none" xmlns="http://www.w3.org/2000/svg">
<path d="M47.8332 12.0383C47.9404 8.93705 47.2622 5.859 45.8616 3.08997C44.9113 1.95376 43.5925 1.187 42.1349 0.923299C36.1062 0.37627 30.0525 0.152061 23.9999 0.251632C17.9693 0.147542 11.9374 0.364516 5.9299 0.901632C4.74217 1.11769 3.64302 1.67479 2.76656 2.50497C0.816562 4.3033 0.599895 7.37997 0.383229 9.97997C0.0688717 14.6547 0.0688717 19.3452 0.383229 24.02C0.445911 25.4833 0.663799 26.9359 1.03323 28.3533C1.29447 29.4476 1.82303 30.46 2.57156 31.3C3.45398 32.1741 4.57873 32.7629 5.7999 32.99C10.471 33.5666 15.1777 33.8055 19.8832 33.705C27.4666 33.8133 34.1182 33.705 41.9832 33.0983C43.2344 32.8852 44.3908 32.2956 45.2982 31.4083C45.9048 30.8014 46.3579 30.0587 46.6199 29.2416C47.3948 26.864 47.7753 24.3755 47.7466 21.875C47.8332 20.6616 47.8332 13.3383 47.8332 12.0383ZM19.1032 23.175V9.7633L31.9299 16.5016C28.3332 18.495 23.5882 20.7483 19.1032 23.175Z" fill="white"/>
</svg>
