<svg width="342" height="69" viewBox="0 0 342 69" fill="none" xmlns="http://www.w3.org/2000/svg">
<g clip-path="url(#clip0_3875_2483)">
<path fill-rule="evenodd" clip-rule="evenodd" d="M21.6273 4.37012L35.5 28.3698H7.75464L21.6273 4.37012Z" fill="#00C58E"/>
<path fill-rule="evenodd" clip-rule="evenodd" d="M29.3261 7.35254L41.4647 28.3696H17.1875L29.3261 7.35254Z" fill="#108775"/>
<path fill-rule="evenodd" clip-rule="evenodd" d="M26.3397 12.4873L35.4995 28.3337H17.1875L26.3397 12.4873Z" fill="#35495E"/>
</g>
<path d="M13.0696 64.375V63.583C13.5829 63.187 14.0742 62.7873 14.5436 62.384C15.0129 61.9807 15.4309 61.581 15.7976 61.185C16.1716 60.7817 16.4612 60.3893 16.6666 60.008C16.8792 59.6193 16.9856 59.249 16.9856 58.897C16.9856 58.6477 16.9379 58.4167 16.8426 58.204C16.7546 57.9913 16.6116 57.819 16.4136 57.687C16.2156 57.5477 15.9516 57.478 15.6216 57.478C15.2989 57.478 15.0312 57.5477 14.8186 57.687C14.6059 57.8263 14.4446 58.0133 14.3346 58.248C14.2246 58.4753 14.1696 58.7283 14.1696 59.007H13.1136C13.1209 58.479 13.2346 58.0317 13.4546 57.665C13.6746 57.2983 13.9752 57.0197 14.3566 56.829C14.7379 56.6383 15.1669 56.543 15.6436 56.543C16.1349 56.543 16.5602 56.6347 16.9196 56.818C17.2862 56.994 17.5722 57.2543 17.7776 57.599C17.9829 57.9437 18.0856 58.358 18.0856 58.842C18.0856 59.194 18.0122 59.546 17.8656 59.898C17.7262 60.2427 17.5356 60.58 17.2936 60.91C17.0516 61.24 16.7802 61.559 16.4796 61.867C16.1862 62.1677 15.8782 62.4537 15.5556 62.725C15.2402 62.9963 14.9396 63.242 14.6536 63.462H18.3276V64.375H13.0696ZM22.4652 64.507C21.8052 64.507 21.2369 64.342 20.7602 64.012C20.2835 63.6747 19.9169 63.209 19.6602 62.615C19.4035 62.0137 19.2752 61.317 19.2752 60.525C19.2752 59.733 19.4035 59.04 19.6602 58.446C19.9169 57.8447 20.2835 57.379 20.7602 57.049C21.2369 56.7117 21.8052 56.543 22.4652 56.543C23.1252 56.543 23.6899 56.7117 24.1592 57.049C24.6285 57.379 24.9915 57.8447 25.2482 58.446C25.5049 59.04 25.6332 59.733 25.6332 60.525C25.6332 61.317 25.5049 62.0137 25.2482 62.615C24.9915 63.209 24.6285 63.6747 24.1592 64.012C23.6899 64.342 23.1252 64.507 22.4652 64.507ZM22.4652 63.528C22.8612 63.528 23.2095 63.407 23.5102 63.165C23.8182 62.923 24.0602 62.5783 24.2362 62.131C24.4195 61.6837 24.5112 61.1483 24.5112 60.525C24.5112 59.8943 24.4195 59.359 24.2362 58.919C24.0602 58.4717 23.8182 58.1307 23.5102 57.896C23.2095 57.654 22.8612 57.533 22.4652 57.533C22.0619 57.533 21.7025 57.654 21.3872 57.896C21.0792 58.1307 20.8372 58.4717 20.6612 58.919C20.4852 59.359 20.3972 59.8943 20.3972 60.525C20.3972 61.1483 20.4852 61.6837 20.6612 62.131C20.8372 62.5783 21.0792 62.923 21.3872 63.165C21.7025 63.407 22.0619 63.528 22.4652 63.528ZM28.0403 64.375V57.918L26.5443 58.369V57.5L28.4473 56.675H29.1623V64.375H28.0403ZM33.5915 64.507C33.0269 64.507 32.5539 64.4043 32.1725 64.199C31.7912 63.9863 31.4832 63.704 31.2485 63.352C31.0212 63 30.8562 62.604 30.7535 62.164C30.6509 61.724 30.5995 61.273 30.5995 60.811C30.5995 59.9603 30.7169 59.216 30.9515 58.578C31.1862 57.94 31.5235 57.4413 31.9635 57.082C32.4109 56.7227 32.9499 56.543 33.5805 56.543C34.0792 56.543 34.5082 56.6383 34.8675 56.829C35.2269 57.0197 35.5092 57.2727 35.7145 57.588C35.9199 57.9033 36.0409 58.2517 36.0775 58.633H35.0545C34.9885 58.2663 34.8235 57.984 34.5595 57.786C34.3029 57.5807 33.9729 57.478 33.5695 57.478C33.2029 57.478 32.8765 57.5917 32.5905 57.819C32.3119 58.0463 32.0919 58.3873 31.9305 58.842C31.7692 59.2893 31.6775 59.865 31.6555 60.569C31.6555 60.5763 31.6555 60.5873 31.6555 60.602C31.6555 60.6167 31.6555 60.6313 31.6555 60.646C31.7655 60.426 31.9195 60.2243 32.1175 60.041C32.3229 59.8577 32.5649 59.711 32.8435 59.601C33.1222 59.491 33.4265 59.436 33.7565 59.436C34.1892 59.436 34.5889 59.5387 34.9555 59.744C35.3295 59.942 35.6302 60.228 35.8575 60.602C36.0849 60.976 36.1985 61.4123 36.1985 61.911C36.1985 62.3583 36.0885 62.78 35.8685 63.176C35.6559 63.572 35.3552 63.8947 34.9665 64.144C34.5779 64.386 34.1195 64.507 33.5915 64.507ZM33.5145 63.55C33.8225 63.55 34.0939 63.484 34.3285 63.352C34.5705 63.2127 34.7612 63.0257 34.9005 62.791C35.0399 62.549 35.1095 62.2703 35.1095 61.955C35.1095 61.6397 35.0399 61.3647 34.9005 61.13C34.7612 60.888 34.5705 60.701 34.3285 60.569C34.0865 60.437 33.8152 60.371 33.5145 60.371C33.2065 60.371 32.9279 60.4407 32.6785 60.58C32.4365 60.7193 32.2422 60.91 32.0955 61.152C31.9562 61.3867 31.8865 61.658 31.8865 61.966C31.8865 62.274 31.9562 62.549 32.0955 62.791C32.2422 63.0257 32.4365 63.2127 32.6785 63.352C32.9279 63.484 33.2065 63.55 33.5145 63.55Z" fill="#94A3B8"/>
<g clip-path="url(#clip1_3875_2483)">
<g clip-path="url(#clip2_3875_2483)">
<path d="M123.837 10.9865L122.735 12.8955L118.965 6.36511L107.39 26.4097H115.227C115.227 27.464 116.082 28.3187 117.136 28.3187H107.39C106.708 28.3187 106.078 27.9546 105.737 27.364C105.397 26.7734 105.397 26.0458 105.738 25.4552L117.312 5.41061C117.653 4.81993 118.283 4.45605 118.965 4.45605C119.647 4.45605 120.277 4.81993 120.618 5.41061L123.837 10.9865Z" fill="#00C58E"/>
<path d="M132.192 25.454L124.939 12.8944L123.837 10.9854L122.735 12.8944L115.483 25.454C115.142 26.0446 115.142 26.7723 115.483 27.3629C115.824 27.9535 116.454 28.3175 117.136 28.3175H130.537C131.219 28.3175 131.849 27.9539 132.19 27.3632C132.531 26.7725 132.532 26.0447 132.19 25.454H132.192ZM117.136 26.4085L123.837 14.8034L130.537 26.4085L117.136 26.4085Z" fill="#2F495E"/>
<path d="M137.378 27.3616C137.037 27.9521 136.407 28.3161 135.725 28.3161H130.537C131.591 28.3161 132.446 27.4614 132.446 26.4071H135.721L126.429 10.3134L124.94 12.8929L123.837 10.9839L124.776 9.35885C125.117 8.76817 125.747 8.4043 126.429 8.4043C127.111 8.4043 127.741 8.76817 128.082 9.35885L137.378 25.4526C137.719 26.0432 137.719 26.7709 137.378 27.3616Z" fill="#108775"/>
</g>
</g>
<path d="M109.938 64.375V63.583C110.451 63.187 110.943 62.7873 111.412 62.384C111.881 61.9807 112.299 61.581 112.666 61.185C113.04 60.7817 113.33 60.3893 113.535 60.008C113.748 59.6193 113.854 59.249 113.854 58.897C113.854 58.6477 113.806 58.4167 113.711 58.204C113.623 57.9913 113.48 57.819 113.282 57.687C113.084 57.5477 112.82 57.478 112.49 57.478C112.167 57.478 111.9 57.5477 111.687 57.687C111.474 57.8263 111.313 58.0133 111.203 58.248C111.093 58.4753 111.038 58.7283 111.038 59.007H109.982C109.989 58.479 110.103 58.0317 110.323 57.665C110.543 57.2983 110.844 57.0197 111.225 56.829C111.606 56.6383 112.035 56.543 112.512 56.543C113.003 56.543 113.429 56.6347 113.788 56.818C114.155 56.994 114.441 57.2543 114.646 57.599C114.851 57.9437 114.954 58.358 114.954 58.842C114.954 59.194 114.881 59.546 114.734 59.898C114.595 60.2427 114.404 60.58 114.162 60.91C113.92 61.24 113.649 61.559 113.348 61.867C113.055 62.1677 112.747 62.4537 112.424 62.725C112.109 62.9963 111.808 63.242 111.522 63.462H115.196V64.375H109.938ZM119.333 64.507C118.673 64.507 118.105 64.342 117.628 64.012C117.152 63.6747 116.785 63.209 116.528 62.615C116.272 62.0137 116.143 61.317 116.143 60.525C116.143 59.733 116.272 59.04 116.528 58.446C116.785 57.8447 117.152 57.379 117.628 57.049C118.105 56.7117 118.673 56.543 119.333 56.543C119.993 56.543 120.558 56.7117 121.027 57.049C121.497 57.379 121.86 57.8447 122.116 58.446C122.373 59.04 122.501 59.733 122.501 60.525C122.501 61.317 122.373 62.0137 122.116 62.615C121.86 63.209 121.497 63.6747 121.027 64.012C120.558 64.342 119.993 64.507 119.333 64.507ZM119.333 63.528C119.729 63.528 120.078 63.407 120.378 63.165C120.686 62.923 120.928 62.5783 121.104 62.131C121.288 61.6837 121.379 61.1483 121.379 60.525C121.379 59.8943 121.288 59.359 121.104 58.919C120.928 58.4717 120.686 58.1307 120.378 57.896C120.078 57.654 119.729 57.533 119.333 57.533C118.93 57.533 118.571 57.654 118.255 57.896C117.947 58.1307 117.705 58.4717 117.529 58.919C117.353 59.359 117.265 59.8943 117.265 60.525C117.265 61.1483 117.353 61.6837 117.529 62.131C117.705 62.5783 117.947 62.923 118.255 63.165C118.571 63.407 118.93 63.528 119.333 63.528ZM124.909 64.375V57.918L123.413 58.369V57.5L125.316 56.675H126.031V64.375H124.909ZM130.174 64.507C129.675 64.507 129.246 64.4117 128.887 64.221C128.535 64.0303 128.256 63.7773 128.051 63.462C127.853 63.1393 127.728 62.791 127.677 62.417H128.7C128.773 62.7837 128.938 63.0697 129.195 63.275C129.459 63.473 129.789 63.572 130.185 63.572C130.551 63.572 130.87 63.4657 131.142 63.253C131.42 63.033 131.64 62.703 131.802 62.263C131.97 61.823 132.066 61.2657 132.088 60.591C132.095 60.5617 132.099 60.5323 132.099 60.503C132.099 60.4663 132.099 60.4333 132.099 60.404C131.989 60.624 131.831 60.8257 131.626 61.009C131.428 61.1923 131.189 61.339 130.911 61.449C130.639 61.559 130.335 61.614 129.998 61.614C129.572 61.614 129.173 61.515 128.799 61.317C128.425 61.1117 128.124 60.822 127.897 60.448C127.669 60.074 127.556 59.6377 127.556 59.139C127.556 58.6917 127.662 58.27 127.875 57.874C128.087 57.478 128.388 57.159 128.777 56.917C129.173 56.6677 129.635 56.543 130.163 56.543C130.727 56.543 131.2 56.6493 131.582 56.862C131.963 57.0673 132.267 57.346 132.495 57.698C132.729 58.05 132.898 58.446 133.001 58.886C133.103 59.326 133.155 59.777 133.155 60.239C133.155 61.0823 133.037 61.8267 132.803 62.472C132.568 63.11 132.231 63.6087 131.791 63.968C131.351 64.3273 130.812 64.507 130.174 64.507ZM130.24 60.679C130.548 60.679 130.826 60.6093 131.076 60.47C131.325 60.3307 131.519 60.1437 131.659 59.909C131.805 59.667 131.879 59.392 131.879 59.084C131.879 58.7687 131.805 58.4937 131.659 58.259C131.519 58.017 131.325 57.83 131.076 57.698C130.826 57.566 130.548 57.5 130.24 57.5C129.939 57.5 129.668 57.5697 129.426 57.709C129.184 57.841 128.993 58.028 128.854 58.27C128.714 58.5047 128.645 58.7797 128.645 59.095C128.645 59.4103 128.714 59.689 128.854 59.931C128.993 60.1657 129.184 60.349 129.426 60.481C129.668 60.613 129.939 60.679 130.24 60.679Z" fill="#94A3B8"/>
<g clip-path="url(#clip3_3875_2483)">
<path fill-rule="evenodd" clip-rule="evenodd" d="M217.735 5.70083C216.748 4.00467 214.282 4.00467 213.295 5.70083L202.544 24.1863C201.558 25.8825 202.791 28.0027 204.764 28.0027H213.155C212.313 27.2657 212.002 25.9919 212.639 24.8989L220.782 10.9409L217.735 5.70083Z" fill="#80EEC0"/>
<path d="M224.547 9.76153C225.363 8.37376 227.404 8.37376 228.22 9.76153L237.118 24.886C237.934 26.2738 236.914 28.0085 235.281 28.0085H217.486C215.853 28.0085 214.833 26.2738 215.649 24.886L224.547 9.76153Z" fill="#00DC82"/>
</g>
<path d="M208.291 64.375V63.583C208.805 63.187 209.296 62.7873 209.765 62.384C210.235 61.9807 210.653 61.581 211.019 61.185C211.393 60.7817 211.683 60.3893 211.888 60.008C212.101 59.6193 212.207 59.249 212.207 58.897C212.207 58.6477 212.16 58.4167 212.064 58.204C211.976 57.9913 211.833 57.819 211.635 57.687C211.437 57.5477 211.173 57.478 210.843 57.478C210.521 57.478 210.253 57.5477 210.04 57.687C209.828 57.8263 209.666 58.0133 209.556 58.248C209.446 58.4753 209.391 58.7283 209.391 59.007H208.335C208.343 58.479 208.456 58.0317 208.676 57.665C208.896 57.2983 209.197 57.0197 209.578 56.829C209.96 56.6383 210.389 56.543 210.865 56.543C211.357 56.543 211.782 56.6347 212.141 56.818C212.508 56.994 212.794 57.2543 212.999 57.599C213.205 57.9437 213.307 58.358 213.307 58.842C213.307 59.194 213.234 59.546 213.087 59.898C212.948 60.2427 212.757 60.58 212.515 60.91C212.273 61.24 212.002 61.559 211.701 61.867C211.408 62.1677 211.1 62.4537 210.777 62.725C210.462 62.9963 210.161 63.242 209.875 63.462H213.549V64.375H208.291ZM217.687 64.507C217.027 64.507 216.459 64.342 215.982 64.012C215.505 63.6747 215.139 63.209 214.882 62.615C214.625 62.0137 214.497 61.317 214.497 60.525C214.497 59.733 214.625 59.04 214.882 58.446C215.139 57.8447 215.505 57.379 215.982 57.049C216.459 56.7117 217.027 56.543 217.687 56.543C218.347 56.543 218.912 56.7117 219.381 57.049C219.85 57.379 220.213 57.8447 220.47 58.446C220.727 59.04 220.855 59.733 220.855 60.525C220.855 61.317 220.727 62.0137 220.47 62.615C220.213 63.209 219.85 63.6747 219.381 64.012C218.912 64.342 218.347 64.507 217.687 64.507ZM217.687 63.528C218.083 63.528 218.431 63.407 218.732 63.165C219.04 62.923 219.282 62.5783 219.458 62.131C219.641 61.6837 219.733 61.1483 219.733 60.525C219.733 59.8943 219.641 59.359 219.458 58.919C219.282 58.4717 219.04 58.1307 218.732 57.896C218.431 57.654 218.083 57.533 217.687 57.533C217.284 57.533 216.924 57.654 216.609 57.896C216.301 58.1307 216.059 58.4717 215.883 58.919C215.707 59.359 215.619 59.8943 215.619 60.525C215.619 61.1483 215.707 61.6837 215.883 62.131C216.059 62.5783 216.301 62.923 216.609 63.165C216.924 63.407 217.284 63.528 217.687 63.528ZM221.966 64.375V63.583C222.479 63.187 222.971 62.7873 223.44 62.384C223.909 61.9807 224.327 61.581 224.694 61.185C225.068 60.7817 225.358 60.3893 225.563 60.008C225.776 59.6193 225.882 59.249 225.882 58.897C225.882 58.6477 225.834 58.4167 225.739 58.204C225.651 57.9913 225.508 57.819 225.31 57.687C225.112 57.5477 224.848 57.478 224.518 57.478C224.195 57.478 223.928 57.5477 223.715 57.687C223.502 57.8263 223.341 58.0133 223.231 58.248C223.121 58.4753 223.066 58.7283 223.066 59.007H222.01C222.017 58.479 222.131 58.0317 222.351 57.665C222.571 57.2983 222.872 57.0197 223.253 56.829C223.634 56.6383 224.063 56.543 224.54 56.543C225.031 56.543 225.457 56.6347 225.816 56.818C226.183 56.994 226.469 57.2543 226.674 57.599C226.879 57.9437 226.982 58.358 226.982 58.842C226.982 59.194 226.909 59.546 226.762 59.898C226.623 60.2427 226.432 60.58 226.19 60.91C225.948 61.24 225.677 61.559 225.376 61.867C225.083 62.1677 224.775 62.4537 224.452 62.725C224.137 62.9963 223.836 63.242 223.55 63.462H227.224V64.375H221.966ZM229.611 64.375V57.918L228.115 58.369V57.5L230.018 56.675H230.733V64.375H229.611Z" fill="#94A3B8"/>
<path d="M320.84 27.9379H334.032C334.451 27.9379 334.862 27.831 335.225 27.6278C335.588 27.4245 335.889 27.1322 336.099 26.7802C336.308 26.4282 336.418 26.0289 336.418 25.6225C336.418 25.2161 336.307 24.8169 336.098 24.4651L327.239 9.58119C327.029 9.22927 326.728 8.93702 326.365 8.73383C326.002 8.53063 325.591 8.42366 325.172 8.42366C324.753 8.42366 324.342 8.53063 323.979 8.73383C323.616 8.93702 323.315 9.22927 323.105 9.58119L320.84 13.3894L316.411 5.94252C316.202 5.59062 315.9 5.29842 315.538 5.09526C315.175 4.89211 314.763 4.78516 314.344 4.78516C313.925 4.78516 313.514 4.89211 313.151 5.09526C312.788 5.29842 312.487 5.59062 312.277 5.94252L301.253 24.4651C301.043 24.8169 300.933 25.2161 300.933 25.6225C300.932 26.0289 301.043 26.4282 301.252 26.7802C301.461 27.1322 301.763 27.4245 302.126 27.6278C302.488 27.831 302.9 27.9379 303.319 27.9379H311.599C314.88 27.9379 317.3 26.54 318.965 23.8129L323.006 17.0231L325.171 13.3894L331.669 24.3042H323.006L320.84 27.9379ZM311.464 24.3005L305.686 24.2992L314.348 9.74704L318.67 17.0231L315.776 21.8863C314.671 23.6558 313.415 24.3005 311.464 24.3005Z" fill="#00DC82"/>
<path d="M306.103 64.375V63.583C306.616 63.187 307.108 62.7873 307.577 62.384C308.046 61.9807 308.464 61.581 308.831 61.185C309.205 60.7817 309.495 60.3893 309.7 60.008C309.913 59.6193 310.019 59.249 310.019 58.897C310.019 58.6477 309.971 58.4167 309.876 58.204C309.788 57.9913 309.645 57.819 309.447 57.687C309.249 57.5477 308.985 57.478 308.655 57.478C308.332 57.478 308.065 57.5477 307.852 57.687C307.639 57.8263 307.478 58.0133 307.368 58.248C307.258 58.4753 307.203 58.7283 307.203 59.007H306.147C306.154 58.479 306.268 58.0317 306.488 57.665C306.708 57.2983 307.009 57.0197 307.39 56.829C307.771 56.6383 308.2 56.543 308.677 56.543C309.168 56.543 309.594 56.6347 309.953 56.818C310.32 56.994 310.606 57.2543 310.811 57.599C311.016 57.9437 311.119 58.358 311.119 58.842C311.119 59.194 311.046 59.546 310.899 59.898C310.76 60.2427 310.569 60.58 310.327 60.91C310.085 61.24 309.814 61.559 309.513 61.867C309.22 62.1677 308.912 62.4537 308.589 62.725C308.274 62.9963 307.973 63.242 307.687 63.462H311.361V64.375H306.103ZM315.499 64.507C314.839 64.507 314.27 64.342 313.794 64.012C313.317 63.6747 312.95 63.209 312.694 62.615C312.437 62.0137 312.309 61.317 312.309 60.525C312.309 59.733 312.437 59.04 312.694 58.446C312.95 57.8447 313.317 57.379 313.794 57.049C314.27 56.7117 314.839 56.543 315.499 56.543C316.159 56.543 316.723 56.7117 317.193 57.049C317.662 57.379 318.025 57.8447 318.282 58.446C318.538 59.04 318.667 59.733 318.667 60.525C318.667 61.317 318.538 62.0137 318.282 62.615C318.025 63.209 317.662 63.6747 317.193 64.012C316.723 64.342 316.159 64.507 315.499 64.507ZM315.499 63.528C315.895 63.528 316.243 63.407 316.544 63.165C316.852 62.923 317.094 62.5783 317.27 62.131C317.453 61.6837 317.545 61.1483 317.545 60.525C317.545 59.8943 317.453 59.359 317.27 58.919C317.094 58.4717 316.852 58.1307 316.544 57.896C316.243 57.654 315.895 57.533 315.499 57.533C315.095 57.533 314.736 57.654 314.421 57.896C314.113 58.1307 313.871 58.4717 313.695 58.919C313.519 59.359 313.431 59.8943 313.431 60.525C313.431 61.1483 313.519 61.6837 313.695 62.131C313.871 62.5783 314.113 62.923 314.421 63.165C314.736 63.407 315.095 63.528 315.499 63.528ZM319.778 64.375V63.583C320.291 63.187 320.782 62.7873 321.252 62.384C321.721 61.9807 322.139 61.581 322.506 61.185C322.88 60.7817 323.169 60.3893 323.375 60.008C323.587 59.6193 323.694 59.249 323.694 58.897C323.694 58.6477 323.646 58.4167 323.551 58.204C323.463 57.9913 323.32 57.819 323.122 57.687C322.924 57.5477 322.66 57.478 322.33 57.478C322.007 57.478 321.739 57.5477 321.527 57.687C321.314 57.8263 321.153 58.0133 321.043 58.248C320.933 58.4753 320.878 58.7283 320.878 59.007H319.822C319.829 58.479 319.943 58.0317 320.163 57.665C320.383 57.2983 320.683 57.0197 321.065 56.829C321.446 56.6383 321.875 56.543 322.352 56.543C322.843 56.543 323.268 56.6347 323.628 56.818C323.994 56.994 324.28 57.2543 324.486 57.599C324.691 57.9437 324.794 58.358 324.794 58.842C324.794 59.194 324.72 59.546 324.574 59.898C324.434 60.2427 324.244 60.58 324.002 60.91C323.76 61.24 323.488 61.559 323.188 61.867C322.894 62.1677 322.586 62.4537 322.264 62.725C321.948 62.9963 321.648 63.242 321.362 63.462H325.036V64.375H319.778ZM326.212 64.375V63.583C326.726 63.187 327.217 62.7873 327.686 62.384C328.156 61.9807 328.574 61.581 328.94 61.185C329.314 60.7817 329.604 60.3893 329.809 60.008C330.022 59.6193 330.128 59.249 330.128 58.897C330.128 58.6477 330.081 58.4167 329.985 58.204C329.897 57.9913 329.754 57.819 329.556 57.687C329.358 57.5477 329.094 57.478 328.764 57.478C328.442 57.478 328.174 57.5477 327.961 57.687C327.749 57.8263 327.587 58.0133 327.477 58.248C327.367 58.4753 327.312 58.7283 327.312 59.007H326.256C326.264 58.479 326.377 58.0317 326.597 57.665C326.817 57.2983 327.118 57.0197 327.499 56.829C327.881 56.6383 328.31 56.543 328.786 56.543C329.278 56.543 329.703 56.6347 330.062 56.818C330.429 56.994 330.715 57.2543 330.92 57.599C331.126 57.9437 331.228 58.358 331.228 58.842C331.228 59.194 331.155 59.546 331.008 59.898C330.869 60.2427 330.678 60.58 330.436 60.91C330.194 61.24 329.923 61.559 329.622 61.867C329.329 62.1677 329.021 62.4537 328.698 62.725C328.383 62.9963 328.082 63.242 327.796 63.462H331.47V64.375H326.212Z" fill="#94A3B8"/>
<line y1="40.5" x2="342" y2="40.5" stroke="url(#paint0_linear_3875_2483)"/>
<circle cx="23.2258" cy="41" r="3" fill="#CBD5E1"/>
<circle cx="121.226" cy="41" r="3" fill="#CBD5E1"/>
<circle cx="219.226" cy="41" r="3" fill="#CBD5E1"/>
<circle cx="317.226" cy="41" r="3" fill="#CBD5E1"/>
<defs>
<linearGradient id="paint0_linear_3875_2483" x1="-30.375" y1="40.9997" x2="372.516" y2="41" gradientUnits="userSpaceOnUse">
<stop stop-color="#CBD5E1" stop-opacity="0"/>
<stop offset="0.510417" stop-color="#CBD5E1"/>
<stop offset="1" stop-color="#CBD5E1" stop-opacity="0"/>
</linearGradient>
<clipPath id="clip0_3875_2483">
<rect width="34.2854" height="23.9998" fill="white" transform="translate(7.75586 4.375)"/>
</clipPath>
<clipPath id="clip1_3875_2483">
<rect width="32.5711" height="23.9998" fill="white" transform="translate(105.481 4.375)"/>
</clipPath>
<clipPath id="clip2_3875_2483">
<rect width="32.2145" height="23.9998" fill="white" transform="translate(105.482 4.375)"/>
</clipPath>
<clipPath id="clip3_3875_2483">
<rect width="35.9997" height="23.9998" fill="white" transform="translate(201.62 4.375)"/>
</clipPath>
</defs>
</svg>
