<svg width="1216" height="232" viewBox="0 0 1216 232" fill="none" xmlns="http://www.w3.org/2000/svg">
<line y1="139.5" x2="1216" y2="139.5" stroke="url(#paint0_linear_3860_9173)"/>
<circle cx="239" cy="139" r="6" fill="#CBD5E1"/>
<circle cx="485" cy="139" r="6" fill="#CBD5E1"/>
<circle cx="731" cy="139" r="6" fill="#CBD5E1"/>
<circle cx="977" cy="139" r="6" fill="#CBD5E1"/>
<path fill-rule="evenodd" clip-rule="evenodd" d="M234.433 63L259.867 107H209L234.433 63Z" fill="#00C58E"/>
<path fill-rule="evenodd" clip-rule="evenodd" d="M248.549 68.4688L270.803 107H226.295L248.549 68.4688Z" fill="#108775"/>
<path fill-rule="evenodd" clip-rule="evenodd" d="M243.074 77.8789L259.867 106.931H226.295L243.074 77.8789Z" fill="#35495E"/>
<path d="M219.18 177V175.56C220.1 174.84 220.973 174.113 221.8 173.38C222.64 172.647 223.387 171.92 224.04 171.2C224.693 170.467 225.207 169.753 225.58 169.06C225.967 168.353 226.16 167.68 226.16 167.04C226.16 166.587 226.08 166.167 225.92 165.78C225.76 165.393 225.507 165.08 225.16 164.84C224.813 164.587 224.347 164.46 223.76 164.46C223.187 164.46 222.707 164.587 222.32 164.84C221.947 165.093 221.66 165.433 221.46 165.86C221.273 166.273 221.18 166.733 221.18 167.24H219.26C219.273 166.28 219.473 165.467 219.86 164.8C220.26 164.133 220.8 163.627 221.48 163.28C222.173 162.933 222.947 162.76 223.8 162.76C224.68 162.76 225.447 162.927 226.1 163.26C226.753 163.58 227.26 164.053 227.62 164.68C227.98 165.293 228.16 166.047 228.16 166.94C228.16 167.58 228.033 168.22 227.78 168.86C227.527 169.487 227.18 170.1 226.74 170.7C226.313 171.3 225.833 171.88 225.3 172.44C224.767 172.987 224.22 173.507 223.66 174C223.1 174.493 222.567 174.94 222.06 175.34H228.58V177H219.18ZM236.308 177.24C235.055 177.24 233.975 176.94 233.068 176.34C232.161 175.727 231.468 174.88 230.988 173.8C230.508 172.707 230.268 171.44 230.268 170C230.268 168.56 230.508 167.3 230.988 166.22C231.468 165.127 232.155 164.28 233.048 163.68C233.955 163.067 235.035 162.76 236.288 162.76C237.555 162.76 238.635 163.067 239.528 163.68C240.421 164.28 241.108 165.127 241.588 166.22C242.068 167.3 242.308 168.56 242.308 170C242.308 171.44 242.068 172.707 241.588 173.8C241.108 174.88 240.415 175.727 239.508 176.34C238.615 176.94 237.548 177.24 236.308 177.24ZM236.288 175.46C237.061 175.46 237.748 175.24 238.348 174.8C238.948 174.36 239.415 173.733 239.748 172.92C240.095 172.107 240.268 171.133 240.268 170C240.268 168.867 240.095 167.893 239.748 167.08C239.415 166.267 238.948 165.647 238.348 165.22C237.748 164.78 237.061 164.56 236.288 164.56C235.515 164.56 234.828 164.78 234.228 165.22C233.628 165.647 233.155 166.267 232.808 167.08C232.475 167.893 232.308 168.867 232.308 170C232.308 171.133 232.475 172.107 232.808 172.92C233.155 173.733 233.628 174.36 234.228 174.8C234.828 175.24 235.515 175.46 236.288 175.46ZM246.174 177V165.26L243.834 165.82V164.34L246.934 163H248.234V177H246.174ZM256.24 177.24C255.213 177.24 254.346 177.053 253.64 176.68C252.933 176.293 252.366 175.78 251.94 175.14C251.526 174.487 251.22 173.76 251.02 172.96C250.833 172.16 250.74 171.347 250.74 170.52C250.74 168.973 250.953 167.62 251.38 166.46C251.806 165.3 252.426 164.393 253.24 163.74C254.066 163.087 255.053 162.76 256.2 162.76C257.106 162.76 257.88 162.94 258.52 163.3C259.173 163.647 259.686 164.12 260.06 164.72C260.433 165.307 260.653 165.953 260.72 166.66H258.88C258.746 165.953 258.446 165.413 257.98 165.04C257.513 164.653 256.913 164.46 256.18 164.46C255.526 164.46 254.94 164.667 254.42 165.08C253.9 165.48 253.486 166.093 253.18 166.92C252.886 167.733 252.713 168.78 252.66 170.06C252.66 170.073 252.66 170.093 252.66 170.12C252.66 170.133 252.66 170.153 252.66 170.18C252.873 169.793 253.166 169.433 253.54 169.1C253.913 168.767 254.353 168.507 254.86 168.32C255.366 168.12 255.926 168.02 256.54 168.02C257.326 168.02 258.066 168.207 258.76 168.58C259.453 168.94 260.013 169.46 260.44 170.14C260.866 170.82 261.08 171.613 261.08 172.52C261.08 173.333 260.88 174.1 260.48 174.82C260.093 175.54 259.533 176.127 258.8 176.58C258.08 177.02 257.226 177.24 256.24 177.24ZM256.1 175.5C256.673 175.5 257.186 175.373 257.64 175.12C258.106 174.867 258.466 174.527 258.72 174.1C258.973 173.66 259.1 173.16 259.1 172.6C259.1 172.027 258.973 171.527 258.72 171.1C258.466 170.66 258.106 170.32 257.64 170.08C257.186 169.84 256.673 169.72 256.1 169.72C255.526 169.72 255.006 169.853 254.54 170.12C254.086 170.373 253.726 170.72 253.46 171.16C253.206 171.6 253.08 172.087 253.08 172.62C253.08 173.18 253.206 173.673 253.46 174.1C253.726 174.527 254.093 174.867 254.56 175.12C255.026 175.373 255.54 175.5 256.1 175.5Z" fill="#94A3B8"/>
<g clip-path="url(#clip0_3860_9173)">
<path d="M489.653 75.1181L487.632 78.618L480.719 66.6455L459.5 103.394H473.867C473.867 105.327 475.434 106.894 477.367 106.894H459.5C458.25 106.894 457.094 106.227 456.469 105.144C455.844 104.061 455.844 102.727 456.47 101.644L477.689 64.8955C478.314 63.8126 479.47 63.1455 480.72 63.1455C481.97 63.1455 483.126 63.8126 483.751 64.8955L489.653 75.1181Z" fill="#00C58E"/>
<path d="M504.971 101.644L491.674 78.618L489.653 75.1182L487.632 78.618L474.336 101.644C473.711 102.727 473.711 104.061 474.336 105.144C474.961 106.227 476.116 106.894 477.367 106.894H501.936C503.186 106.894 504.342 106.227 504.967 105.145C505.593 104.062 505.593 102.727 504.968 101.644H504.971ZM477.367 103.394L489.653 82.1179L501.936 103.394L477.367 103.394Z" fill="#2F495E"/>
<path d="M514.477 105.144C513.852 106.227 512.697 106.894 511.447 106.894H501.936C503.869 106.894 505.436 105.327 505.436 103.394H511.439L494.404 73.8886L491.674 78.6179L489.653 75.118L491.374 72.1387C491.999 71.0558 493.154 70.3887 494.405 70.3887C495.655 70.3887 496.81 71.0558 497.436 72.1387L514.477 101.644C515.102 102.727 515.102 104.061 514.477 105.144Z" fill="#108775"/>
</g>
<path d="M464.18 177V175.56C465.1 174.84 465.973 174.113 466.8 173.38C467.64 172.647 468.387 171.92 469.04 171.2C469.693 170.467 470.207 169.753 470.58 169.06C470.967 168.353 471.16 167.68 471.16 167.04C471.16 166.587 471.08 166.167 470.92 165.78C470.76 165.393 470.507 165.08 470.16 164.84C469.813 164.587 469.347 164.46 468.76 164.46C468.187 164.46 467.707 164.587 467.32 164.84C466.947 165.093 466.66 165.433 466.46 165.86C466.273 166.273 466.18 166.733 466.18 167.24H464.26C464.273 166.28 464.473 165.467 464.86 164.8C465.26 164.133 465.8 163.627 466.48 163.28C467.173 162.933 467.947 162.76 468.8 162.76C469.68 162.76 470.447 162.927 471.1 163.26C471.753 163.58 472.26 164.053 472.62 164.68C472.98 165.293 473.16 166.047 473.16 166.94C473.16 167.58 473.033 168.22 472.78 168.86C472.527 169.487 472.18 170.1 471.74 170.7C471.313 171.3 470.833 171.88 470.3 172.44C469.767 172.987 469.22 173.507 468.66 174C468.1 174.493 467.567 174.94 467.06 175.34H473.58V177H464.18ZM481.308 177.24C480.055 177.24 478.975 176.94 478.068 176.34C477.161 175.727 476.468 174.88 475.988 173.8C475.508 172.707 475.268 171.44 475.268 170C475.268 168.56 475.508 167.3 475.988 166.22C476.468 165.127 477.155 164.28 478.048 163.68C478.955 163.067 480.035 162.76 481.288 162.76C482.555 162.76 483.635 163.067 484.528 163.68C485.421 164.28 486.108 165.127 486.588 166.22C487.068 167.3 487.308 168.56 487.308 170C487.308 171.44 487.068 172.707 486.588 173.8C486.108 174.88 485.415 175.727 484.508 176.34C483.615 176.94 482.548 177.24 481.308 177.24ZM481.288 175.46C482.061 175.46 482.748 175.24 483.348 174.8C483.948 174.36 484.415 173.733 484.748 172.92C485.095 172.107 485.268 171.133 485.268 170C485.268 168.867 485.095 167.893 484.748 167.08C484.415 166.267 483.948 165.647 483.348 165.22C482.748 164.78 482.061 164.56 481.288 164.56C480.515 164.56 479.828 164.78 479.228 165.22C478.628 165.647 478.155 166.267 477.808 167.08C477.475 167.893 477.308 168.867 477.308 170C477.308 171.133 477.475 172.107 477.808 172.92C478.155 173.733 478.628 174.36 479.228 174.8C479.828 175.24 480.515 175.46 481.288 175.46ZM491.174 177V165.26L488.834 165.82V164.34L491.934 163H493.234V177H491.174ZM500.78 177.24C499.873 177.24 499.093 177.067 498.44 176.72C497.8 176.36 497.293 175.88 496.92 175.28C496.56 174.68 496.34 174.033 496.26 173.34H498.12C498.253 174.047 498.553 174.593 499.02 174.98C499.486 175.353 500.08 175.54 500.8 175.54C501.466 175.54 502.053 175.34 502.56 174.94C503.08 174.54 503.493 173.933 503.8 173.12C504.106 172.293 504.28 171.253 504.32 170C504.32 169.973 504.32 169.947 504.32 169.92C504.32 169.88 504.32 169.847 504.32 169.82C504.106 170.207 503.813 170.567 503.44 170.9C503.066 171.233 502.626 171.5 502.12 171.7C501.613 171.887 501.053 171.98 500.44 171.98C499.666 171.98 498.926 171.8 498.22 171.44C497.526 171.067 496.966 170.54 496.54 169.86C496.113 169.18 495.9 168.387 495.9 167.48C495.9 166.667 496.093 165.9 496.48 165.18C496.88 164.46 497.44 163.88 498.16 163.44C498.893 162.987 499.753 162.76 500.74 162.76C501.766 162.76 502.633 162.953 503.34 163.34C504.046 163.713 504.606 164.227 505.02 164.88C505.446 165.52 505.753 166.24 505.94 167.04C506.14 167.84 506.24 168.653 506.24 169.48C506.24 171.013 506.026 172.367 505.6 173.54C505.173 174.7 504.553 175.607 503.74 176.26C502.926 176.913 501.94 177.24 500.78 177.24ZM500.88 170.28C501.453 170.28 501.966 170.153 502.42 169.9C502.886 169.633 503.253 169.28 503.52 168.84C503.786 168.4 503.92 167.913 503.92 167.38C503.92 166.82 503.786 166.327 503.52 165.9C503.253 165.46 502.886 165.12 502.42 164.88C501.966 164.627 501.453 164.5 500.88 164.5C500.306 164.5 499.786 164.627 499.32 164.88C498.866 165.133 498.513 165.473 498.26 165.9C498.006 166.327 497.88 166.827 497.88 167.4C497.88 167.973 498.006 168.48 498.26 168.92C498.513 169.347 498.866 169.68 499.32 169.92C499.786 170.16 500.306 170.28 500.88 170.28Z" fill="#94A3B8"/>
<g clip-path="url(#clip1_3860_9173)">
<path fill-rule="evenodd" clip-rule="evenodd" d="M727.542 65.4416C725.733 62.332 721.212 62.332 719.403 65.4416L699.693 99.332C697.884 102.442 700.145 106.329 703.762 106.329H719.15C717.604 104.978 717.031 102.641 718.201 100.636L733.129 75.0476L727.542 65.4416Z" fill="#80EEC0"/>
<path d="M740.031 72.875C741.528 70.3307 745.269 70.3307 746.766 72.875L763.078 100.603C764.575 103.148 762.704 106.328 759.71 106.328H727.086C724.093 106.328 722.222 103.148 723.719 100.603L740.031 72.875Z" fill="#00DC82"/>
</g>
<path d="M710.18 177V175.56C711.1 174.84 711.973 174.113 712.8 173.38C713.64 172.647 714.387 171.92 715.04 171.2C715.693 170.467 716.207 169.753 716.58 169.06C716.967 168.353 717.16 167.68 717.16 167.04C717.16 166.587 717.08 166.167 716.92 165.78C716.76 165.393 716.507 165.08 716.16 164.84C715.813 164.587 715.347 164.46 714.76 164.46C714.187 164.46 713.707 164.587 713.32 164.84C712.947 165.093 712.66 165.433 712.46 165.86C712.273 166.273 712.18 166.733 712.18 167.24H710.26C710.273 166.28 710.473 165.467 710.86 164.8C711.26 164.133 711.8 163.627 712.48 163.28C713.173 162.933 713.947 162.76 714.8 162.76C715.68 162.76 716.447 162.927 717.1 163.26C717.753 163.58 718.26 164.053 718.62 164.68C718.98 165.293 719.16 166.047 719.16 166.94C719.16 167.58 719.033 168.22 718.78 168.86C718.527 169.487 718.18 170.1 717.74 170.7C717.313 171.3 716.833 171.88 716.3 172.44C715.767 172.987 715.22 173.507 714.66 174C714.1 174.493 713.567 174.94 713.06 175.34H719.58V177H710.18ZM727.308 177.24C726.055 177.24 724.975 176.94 724.068 176.34C723.161 175.727 722.468 174.88 721.988 173.8C721.508 172.707 721.268 171.44 721.268 170C721.268 168.56 721.508 167.3 721.988 166.22C722.468 165.127 723.155 164.28 724.048 163.68C724.955 163.067 726.035 162.76 727.288 162.76C728.555 162.76 729.635 163.067 730.528 163.68C731.421 164.28 732.108 165.127 732.588 166.22C733.068 167.3 733.308 168.56 733.308 170C733.308 171.44 733.068 172.707 732.588 173.8C732.108 174.88 731.415 175.727 730.508 176.34C729.615 176.94 728.548 177.24 727.308 177.24ZM727.288 175.46C728.061 175.46 728.748 175.24 729.348 174.8C729.948 174.36 730.415 173.733 730.748 172.92C731.095 172.107 731.268 171.133 731.268 170C731.268 168.867 731.095 167.893 730.748 167.08C730.415 166.267 729.948 165.647 729.348 165.22C728.748 164.78 728.061 164.56 727.288 164.56C726.515 164.56 725.828 164.78 725.228 165.22C724.628 165.647 724.155 166.267 723.808 167.08C723.475 167.893 723.308 168.867 723.308 170C723.308 171.133 723.475 172.107 723.808 172.92C724.155 173.733 724.628 174.36 725.228 174.8C725.828 175.24 726.515 175.46 727.288 175.46ZM735.258 177V175.56C736.178 174.84 737.051 174.113 737.878 173.38C738.718 172.647 739.465 171.92 740.118 171.2C740.771 170.467 741.285 169.753 741.658 169.06C742.045 168.353 742.238 167.68 742.238 167.04C742.238 166.587 742.158 166.167 741.998 165.78C741.838 165.393 741.585 165.08 741.238 164.84C740.891 164.587 740.425 164.46 739.838 164.46C739.265 164.46 738.785 164.587 738.398 164.84C738.025 165.093 737.738 165.433 737.538 165.86C737.351 166.273 737.258 166.733 737.258 167.24H735.338C735.351 166.28 735.551 165.467 735.938 164.8C736.338 164.133 736.878 163.627 737.558 163.28C738.251 162.933 739.025 162.76 739.878 162.76C740.758 162.76 741.525 162.927 742.178 163.26C742.831 163.58 743.338 164.053 743.698 164.68C744.058 165.293 744.238 166.047 744.238 166.94C744.238 167.58 744.111 168.22 743.858 168.86C743.605 169.487 743.258 170.1 742.818 170.7C742.391 171.3 741.911 171.88 741.378 172.44C740.845 172.987 740.298 173.507 739.738 174C739.178 174.493 738.645 174.94 738.138 175.34H744.658V177H735.258ZM748.502 177V165.26L746.163 165.82V164.34L749.263 163H750.562V177H748.502Z" fill="#94A3B8"/>
<path d="M979.498 106.206H1003.68C1004.45 106.206 1005.2 106.01 1005.87 105.637C1006.54 105.265 1007.09 104.729 1007.47 104.083C1007.86 103.438 1008.06 102.706 1008.06 101.961C1008.06 101.216 1007.85 100.484 1007.47 99.839L991.228 72.5516C990.844 71.9064 990.292 71.3706 989.627 70.9981C988.962 70.6256 988.207 70.4294 987.439 70.4294C986.671 70.4294 985.917 70.6256 985.252 70.9981C984.587 71.3706 984.034 71.9064 983.651 72.5516L979.498 79.5335L971.378 65.8806C970.994 65.2355 970.441 64.6998 969.776 64.3273C969.111 63.9549 968.356 63.7588 967.588 63.7588C966.82 63.7588 966.065 63.9549 965.4 64.3273C964.735 64.6998 964.182 65.2355 963.798 65.8806L943.587 99.839C943.203 100.484 943 101.216 943 101.961C943 102.706 943.202 103.438 943.586 104.083C943.969 104.729 944.522 105.265 945.187 105.637C945.852 106.01 946.607 106.206 947.375 106.206H962.556C968.571 106.206 973.007 103.643 976.059 98.6433L983.469 86.1953L987.438 79.5335L999.35 99.544H983.469L979.498 106.206ZM962.309 99.5372L951.714 99.5349L967.595 72.8557L975.519 86.1953L970.214 95.1112C968.187 98.3552 965.884 99.5372 962.309 99.5372Z" fill="#00DC82"/>
<path d="M953.18 177V175.56C954.1 174.84 954.973 174.113 955.8 173.38C956.64 172.647 957.387 171.92 958.04 171.2C958.693 170.467 959.207 169.753 959.58 169.06C959.967 168.353 960.16 167.68 960.16 167.04C960.16 166.587 960.08 166.167 959.92 165.78C959.76 165.393 959.507 165.08 959.16 164.84C958.813 164.587 958.347 164.46 957.76 164.46C957.187 164.46 956.707 164.587 956.32 164.84C955.947 165.093 955.66 165.433 955.46 165.86C955.273 166.273 955.18 166.733 955.18 167.24H953.26C953.273 166.28 953.473 165.467 953.86 164.8C954.26 164.133 954.8 163.627 955.48 163.28C956.173 162.933 956.947 162.76 957.8 162.76C958.68 162.76 959.447 162.927 960.1 163.26C960.753 163.58 961.26 164.053 961.62 164.68C961.98 165.293 962.16 166.047 962.16 166.94C962.16 167.58 962.033 168.22 961.78 168.86C961.527 169.487 961.18 170.1 960.74 170.7C960.313 171.3 959.833 171.88 959.3 172.44C958.767 172.987 958.22 173.507 957.66 174C957.1 174.493 956.567 174.94 956.06 175.34H962.58V177H953.18ZM970.308 177.24C969.055 177.24 967.975 176.94 967.068 176.34C966.161 175.727 965.468 174.88 964.988 173.8C964.508 172.707 964.268 171.44 964.268 170C964.268 168.56 964.508 167.3 964.988 166.22C965.468 165.127 966.155 164.28 967.048 163.68C967.955 163.067 969.035 162.76 970.288 162.76C971.555 162.76 972.635 163.067 973.528 163.68C974.421 164.28 975.108 165.127 975.588 166.22C976.068 167.3 976.308 168.56 976.308 170C976.308 171.44 976.068 172.707 975.588 173.8C975.108 174.88 974.415 175.727 973.508 176.34C972.615 176.94 971.548 177.24 970.308 177.24ZM970.288 175.46C971.061 175.46 971.748 175.24 972.348 174.8C972.948 174.36 973.415 173.733 973.748 172.92C974.095 172.107 974.268 171.133 974.268 170C974.268 168.867 974.095 167.893 973.748 167.08C973.415 166.267 972.948 165.647 972.348 165.22C971.748 164.78 971.061 164.56 970.288 164.56C969.515 164.56 968.828 164.78 968.228 165.22C967.628 165.647 967.155 166.267 966.808 167.08C966.475 167.893 966.308 168.867 966.308 170C966.308 171.133 966.475 172.107 966.808 172.92C967.155 173.733 967.628 174.36 968.228 174.8C968.828 175.24 969.515 175.46 970.288 175.46ZM978.258 177V175.56C979.178 174.84 980.051 174.113 980.878 173.38C981.718 172.647 982.465 171.92 983.118 171.2C983.771 170.467 984.285 169.753 984.658 169.06C985.045 168.353 985.238 167.68 985.238 167.04C985.238 166.587 985.158 166.167 984.998 165.78C984.838 165.393 984.585 165.08 984.238 164.84C983.891 164.587 983.425 164.46 982.838 164.46C982.265 164.46 981.785 164.587 981.398 164.84C981.025 165.093 980.738 165.433 980.538 165.86C980.351 166.273 980.258 166.733 980.258 167.24H978.338C978.351 166.28 978.551 165.467 978.938 164.8C979.338 164.133 979.878 163.627 980.558 163.28C981.251 162.933 982.025 162.76 982.878 162.76C983.758 162.76 984.525 162.927 985.178 163.26C985.831 163.58 986.338 164.053 986.698 164.68C987.058 165.293 987.238 166.047 987.238 166.94C987.238 167.58 987.111 168.22 986.858 168.86C986.605 169.487 986.258 170.1 985.818 170.7C985.391 171.3 984.911 171.88 984.378 172.44C983.845 172.987 983.298 173.507 982.738 174C982.178 174.493 981.645 174.94 981.138 175.34H987.658V177H978.258ZM989.743 177V175.56C990.663 174.84 991.536 174.113 992.363 173.38C993.203 172.647 993.949 171.92 994.603 171.2C995.256 170.467 995.769 169.753 996.143 169.06C996.529 168.353 996.723 167.68 996.723 167.04C996.723 166.587 996.643 166.167 996.483 165.78C996.323 165.393 996.069 165.08 995.723 164.84C995.376 164.587 994.909 164.46 994.323 164.46C993.749 164.46 993.269 164.587 992.883 164.84C992.509 165.093 992.223 165.433 992.023 165.86C991.836 166.273 991.743 166.733 991.743 167.24H989.823C989.836 166.28 990.036 165.467 990.423 164.8C990.823 164.133 991.363 163.627 992.043 163.28C992.736 162.933 993.509 162.76 994.363 162.76C995.243 162.76 996.009 162.927 996.663 163.26C997.316 163.58 997.823 164.053 998.183 164.68C998.543 165.293 998.723 166.047 998.723 166.94C998.723 167.58 998.596 168.22 998.343 168.86C998.089 169.487 997.743 170.1 997.303 170.7C996.876 171.3 996.396 171.88 995.863 172.44C995.329 172.987 994.783 173.507 994.223 174C993.663 174.493 993.129 174.94 992.623 175.34H999.143V177H989.743Z" fill="#94A3B8"/>
<defs>
<linearGradient id="paint0_linear_3860_9173" x1="-108" y1="140" x2="1324.5" y2="140.004" gradientUnits="userSpaceOnUse">
<stop stop-color="#CBD5E1" stop-opacity="0"/>
<stop offset="0.510417" stop-color="#CBD5E1"/>
<stop offset="1" stop-color="#CBD5E1" stop-opacity="0"/>
</linearGradient>
<clipPath id="clip0_3860_9173">
<rect width="59.7143" height="44" fill="white" transform="translate(456 63)"/>
</clipPath>
<clipPath id="clip1_3860_9173">
<rect width="66" height="44" fill="white" transform="translate(698 63)"/>
</clipPath>
</defs>
</svg>
