<svg width="51" height="58" viewBox="0 0 51 58" fill="none" xmlns="http://www.w3.org/2000/svg">
<g clip-path="url(#clip0_3714_75930)">
<path d="M4.84149 15.3227L4.84152 15.3227L4.84865 15.3182L22.1362 4.37921C23.4473 3.57184 25.0714 3.54018 26.4008 4.29161L26.405 4.29396L44.9401 14.6133C44.9408 14.6138 44.9415 14.6142 44.9422 14.6146C46.2638 15.3626 47.1047 16.7791 47.1378 18.3448L47.249 38.5289H47.2489L47.2491 38.5397C47.2803 40.1033 46.5029 41.5622 45.2133 42.3851L27.6619 53.5843C26.3424 54.4262 24.6895 54.4717 23.3391 53.7084L5.21539 43.4643C3.79003 42.6586 2.74014 41.1507 2.75007 39.6072H2.75009V39.6024L2.75015 19.0833C2.75016 19.0825 2.75016 19.0817 2.75017 19.081C2.76088 17.5381 3.55785 16.1148 4.84149 15.3227Z" fill="transparent" stroke="url(#paint0_linear_3714_75930)" stroke-width="1.5"/>
<path fill-rule="evenodd" clip-rule="evenodd" d="M24 22.5C20.9624 22.5 18.5 24.9624 18.5 28C18.5 31.0376 20.9624 33.5 24 33.5C25.519 33.5 26.893 32.8852 27.8891 31.8891C28.8852 30.893 29.5 29.519 29.5 28C29.5 24.9624 27.0376 22.5 24 22.5ZM17 28C17 24.134 20.134 21 24 21C27.866 21 31 24.134 31 28C31 29.6625 30.4197 31.1906 29.4517 32.3911L32.7803 35.7197C33.0732 36.0126 33.0732 36.4874 32.7803 36.7803C32.4874 37.0732 32.0126 37.0732 31.7197 36.7803L28.3911 33.4517C27.1906 34.4197 25.6625 35 24 35C20.134 35 17 31.866 17 28Z" fill="url(#paint1_linear_3714_75930)"/>
<path fill-rule="evenodd" clip-rule="evenodd" d="M24 22.5C20.9624 22.5 18.5 24.9624 18.5 28C18.5 31.0376 20.9624 33.5 24 33.5C25.519 33.5 26.893 32.8852 27.8891 31.8891C28.8852 30.893 29.5 29.519 29.5 28C29.5 24.9624 27.0376 22.5 24 22.5ZM17 28C17 24.134 20.134 21 24 21C27.866 21 31 24.134 31 28C31 29.6625 30.4197 31.1906 29.4517 32.3911L32.7803 35.7197C33.0732 36.0126 33.0732 36.4874 32.7803 36.7803C32.4874 37.0732 32.0126 37.0732 31.7197 36.7803L28.3911 33.4517C27.1906 34.4197 25.6625 35 24 35C20.134 35 17 31.866 17 28Z" fill="url(#paint2_linear_3714_75930)"/>
</g>
<defs>
<linearGradient id="paint0_linear_3714_75930" x1="2.45103" y1="18.9481" x2="48.174" y2="41.3679" gradientUnits="userSpaceOnUse">
<stop stop-color="#30FFAA"/>
<stop offset="1" stop-color="#007E4A"/>
</linearGradient>
<linearGradient id="paint1_linear_3714_75930" x1="16.9554" y1="24.4193" x2="33.0045" y2="33.0527" gradientUnits="userSpaceOnUse">
<stop stop-color="#00DC82"/>
<stop offset="1" stop-color="#003F25"/>
</linearGradient>
<linearGradient id="paint2_linear_3714_75930" x1="16.9554" y1="24.4193" x2="33.0045" y2="33.0527" gradientUnits="userSpaceOnUse">
<stop stop-color="#30FFAA"/>
<stop offset="1" stop-color="#007E4A"/>
</linearGradient>
<clipPath id="clip0_3714_75930">
<rect width="51" height="58" fill="white"/>
</clipPath>
</defs>
</svg>
