<svg xmlns="http://www.w3.org/2000/svg" width="29" height="24" fill="none"><g fill="white" clip-path="url(#a)"><path fill-rule="evenodd" d="M14.46 24a17.07 17.07 0 0 1-5.6-.94 15.5 15.5 0 0 1-4.58-2.57 12.5 12.5 0 0 1-3.09-3.82A10.48 10.48 0 0 1 .06 12a10.16 10.16 0 0 1 1.13-4.67 12.52 12.52 0 0 1 3.09-3.81A14 14 0 0 1 8.85.94a16.9 16.9 0 0 1 13.66 1.1 14.17 14.17 0 0 1 3.89 3.24A10.5 10.5 0 0 1 28.86 12a10.2 10.2 0 0 1-1.13 4.67 11.72 11.72 0 0 1-3.1 3.82 14.37 14.37 0 0 1-4.56 2.57 16.18 16.18 0 0 1-5.61.94Zm0-20.91c-3.63 0-7.04.92-9.6 2.6C2.29 7.4.88 9.63.88 12c0 2.38 1.41 4.62 3.98 6.3 2.56 1.7 5.97 2.61 9.6 2.61 3.62 0 7.03-.92 9.6-2.6 2.56-1.69 3.97-3.93 3.97-6.3 0-2.4-1.41-4.63-3.97-6.31a17.68 17.68 0 0 0-9.6-2.61Z" clip-rule="evenodd"/><path d="M5.02 10.34h.09c.76 0 1 .66 1.09 1.1h1.79c-.17-2.12-1.9-2.6-2.97-2.6-2.27 0-3.21 1.56-3.21 3.76 0 1.43.58 3.38 3.1 3.38 2.46 0 3-1.95 3.06-2.66H6.18c0 .32-.3 1.2-1.2 1.2-1.33 0-1.36-1.48-1.36-2.22 0-.84.3-1.96 1.4-1.96Z"/><path fill-rule="evenodd" d="M11.87 8.83c-1.8 0-3.43 1.13-3.43 3.58s1.63 3.57 3.43 3.57c1.8 0 3.43-1.12 3.43-3.57 0-2.45-1.63-3.58-3.43-3.58Zm0 5.64c-1.36 0-1.61-1.2-1.61-2.06 0-.87.25-2.07 1.6-2.07 1.37 0 1.62 1.2 1.62 2.07 0 .86-.25 2.06-1.61 2.06Z" clip-rule="evenodd"/><path d="M17.6 10.18h-.03V9.01h-1.7v6.79h1.77v-3.53c0-.76.25-1.63 1.63-1.63.16 0 .35 0 .5.03V8.86a3.03 3.03 0 0 0-.34-.03c-1.07 0-1.47.67-1.84 1.35Z"/><path fill-rule="evenodd" d="M25.85 14.47V10.8c0-1.67-1.73-1.97-2.67-1.97-1.38 0-2.8.3-3 2.38h1.7c.05-.4.2-.95 1.08-.95.46 0 1.16.04 1.16.8 0 .38-.34.5-.61.53l-1.6.24c-1.12.17-1.95.84-1.95 2.17 0 1.4 1.04 1.98 2.05 1.98 1.2 0 1.76-.56 2.16-.98.04.38.07.48.17.8h1.9v-.27c-.21-.07-.39-.25-.39-1.06Zm-1.73-1.1c0 .82-.8 1.33-1.57 1.33-.34 0-.82-.19-.82-.81 0-.74.54-.91 1.2-1.03.73-.11 1.02-.22 1.2-.37v.87Z" clip-rule="evenodd"/></g><defs><clipPath id="a"><path fill="#fff" d="M.06 0h28.8v24H.06z"/></clipPath></defs></svg>
