<svg width="52" height="58" viewBox="0 0 52 58" fill="none" xmlns="http://www.w3.org/2000/svg">
<g clip-path="url(#clip0_3714_75952)">
<path d="M5.50751 15.3227L5.50753 15.3227L5.51467 15.3182L22.8022 4.37921C24.1133 3.57184 25.7374 3.54018 27.0668 4.29161L27.071 4.29396L45.6061 14.6133C45.6068 14.6138 45.6075 14.6142 45.6082 14.6146C46.9298 15.3626 47.7707 16.7791 47.8038 18.3448L47.915 38.5289H47.9149L47.9151 38.5397C47.9463 40.1033 47.1689 41.5622 45.8793 42.3851L28.3279 53.5843C27.0084 54.4262 25.3555 54.4717 24.0051 53.7084L5.88141 43.4643C4.45604 42.6586 3.40616 41.1507 3.41609 39.6072H3.4161V39.6024L3.41617 19.0833C3.41617 19.0825 3.41618 19.0817 3.41619 19.081C3.4269 17.5381 4.22386 16.1148 5.50751 15.3227Z" fill="transparent" stroke="url(#paint0_linear_3714_75952)" stroke-width="1.5"/>
<path d="M32.8333 30.6668H32V24.8335C32 24.1705 31.7366 23.5346 31.2678 23.0657C30.7989 22.5969 30.163 22.3335 29.5 22.3335H21.1667C20.5036 22.3335 19.8677 22.5969 19.3989 23.0657C18.9301 23.5346 18.6667 24.1705 18.6667 24.8335V30.6668H17.8333C17.6123 30.6668 17.4004 30.7546 17.2441 30.9109C17.0878 31.0672 17 31.2792 17 31.5002V33.1668C17 33.8299 17.2634 34.4658 17.7322 34.9346C18.2011 35.4034 18.837 35.6668 19.5 35.6668H31.1667C31.8297 35.6668 32.4656 35.4034 32.9344 34.9346C33.4033 34.4658 33.6667 33.8299 33.6667 33.1668V31.5002C33.6667 31.2792 33.5789 31.0672 33.4226 30.9109C33.2663 30.7546 33.0543 30.6668 32.8333 30.6668ZM20.3333 24.8335C20.3333 24.6125 20.4211 24.4005 20.5774 24.2442C20.7337 24.088 20.9457 24.0002 21.1667 24.0002H29.5C29.721 24.0002 29.933 24.088 30.0893 24.2442C30.2455 24.4005 30.3333 24.6125 30.3333 24.8335V30.6668H20.3333V24.8335ZM32 33.1668C32 33.3878 31.9122 33.5998 31.7559 33.7561C31.5996 33.9124 31.3877 34.0002 31.1667 34.0002H19.5C19.279 34.0002 19.067 33.9124 18.9107 33.7561C18.7545 33.5998 18.6667 33.3878 18.6667 33.1668V32.3335H32V33.1668Z" fill="url(#paint1_linear_3714_75952)"/>
<path d="M32.8333 30.6668H32V24.8335C32 24.1705 31.7366 23.5346 31.2678 23.0657C30.7989 22.5969 30.163 22.3335 29.5 22.3335H21.1667C20.5036 22.3335 19.8677 22.5969 19.3989 23.0657C18.9301 23.5346 18.6667 24.1705 18.6667 24.8335V30.6668H17.8333C17.6123 30.6668 17.4004 30.7546 17.2441 30.9109C17.0878 31.0672 17 31.2792 17 31.5002V33.1668C17 33.8299 17.2634 34.4658 17.7322 34.9346C18.2011 35.4034 18.837 35.6668 19.5 35.6668H31.1667C31.8297 35.6668 32.4656 35.4034 32.9344 34.9346C33.4033 34.4658 33.6667 33.8299 33.6667 33.1668V31.5002C33.6667 31.2792 33.5789 31.0672 33.4226 30.9109C33.2663 30.7546 33.0543 30.6668 32.8333 30.6668ZM20.3333 24.8335C20.3333 24.6125 20.4211 24.4005 20.5774 24.2442C20.7337 24.088 20.9457 24.0002 21.1667 24.0002H29.5C29.721 24.0002 29.933 24.088 30.0893 24.2442C30.2455 24.4005 30.3333 24.6125 30.3333 24.8335V30.6668H20.3333V24.8335ZM32 33.1668C32 33.3878 31.9122 33.5998 31.7559 33.7561C31.5996 33.9124 31.3877 34.0002 31.1667 34.0002H19.5C19.279 34.0002 19.067 33.9124 18.9107 33.7561C18.7545 33.5998 18.6667 33.3878 18.6667 33.1668V32.3335H32V33.1668Z" fill="url(#paint2_linear_3714_75952)"/>
</g>
<defs>
<linearGradient id="paint0_linear_3714_75952" x1="3.11705" y1="18.9481" x2="48.8401" y2="41.3679" gradientUnits="userSpaceOnUse">
<stop stop-color="#30FFAA"/>
<stop offset="1" stop-color="#007E4A"/>
</linearGradient>
<linearGradient id="paint1_linear_3714_75952" x1="16.9535" y1="25.1829" x2="31.7974" y2="35.1642" gradientUnits="userSpaceOnUse">
<stop stop-color="#00DC82"/>
<stop offset="1" stop-color="#003F25"/>
</linearGradient>
<linearGradient id="paint2_linear_3714_75952" x1="16.9535" y1="25.1829" x2="31.7974" y2="35.1642" gradientUnits="userSpaceOnUse">
<stop stop-color="#30FFAA"/>
<stop offset="1" stop-color="#007E4A"/>
</linearGradient>
<clipPath id="clip0_3714_75952">
<rect width="51" height="58" fill="white" transform="translate(0.666016)"/>
</clipPath>
</defs>
</svg>
