<svg width="52" height="58" viewBox="0 0 52 58" fill="none" xmlns="http://www.w3.org/2000/svg">
<path d="M5.17548 15.3227L5.1755 15.3227L5.18264 15.3182L22.4702 4.37921C23.7813 3.57184 25.4054 3.54018 26.7347 4.29161L26.739 4.29396L45.2741 14.6133C45.2748 14.6138 45.2755 14.6142 45.2762 14.6146C46.5978 15.3626 47.4387 16.7791 47.4718 18.3448L47.5829 38.5289H47.5829L47.5831 38.5397C47.6143 40.1033 46.8369 41.5622 45.5473 42.3851L27.9958 53.5843C26.6763 54.4262 25.0235 54.4717 23.6731 53.7084L5.54938 43.4643C4.12401 42.6586 3.07413 41.1507 3.08406 39.6072H3.08407V39.6024L3.08414 19.0833C3.08414 19.0825 3.08415 19.0817 3.08415 19.081C3.09487 17.5381 3.89183 16.1148 5.17548 15.3227Z" fill="transparent" stroke="url(#paint0_linear_3714_75972)" stroke-width="1.5"/>
<path d="M34 35.0002H32V32.0002C32 31.735 31.8946 31.4806 31.7071 31.2931C31.5196 31.1056 31.2652 31.0002 31 31.0002H26V28.2902L27.13 28.8802C27.2948 28.9664 27.4804 29.005 27.6658 28.9915C27.8513 28.9781 28.0294 28.9131 28.18 28.8041C28.3307 28.695 28.4479 28.5461 28.5185 28.374C28.5892 28.202 28.6105 28.0137 28.58 27.8302L28.18 25.4602L29.9 23.7702C30.0303 23.643 30.1233 23.4826 30.1692 23.3064C30.215 23.1302 30.2118 22.9448 30.16 22.7702C30.102 22.5925 29.9954 22.4346 29.8522 22.3144C29.7091 22.1942 29.5351 22.1165 29.35 22.0902L27 21.7202L25.9 19.5602C25.8181 19.3911 25.6903 19.2485 25.5311 19.1488C25.3719 19.049 25.1879 18.9961 25 18.9961C24.8121 18.9961 24.6281 19.049 24.4689 19.1488C24.3097 19.2485 24.1819 19.3911 24.1 19.5602L23 21.7202L20.61 22.0702C20.4249 22.0965 20.2509 22.1742 20.1077 22.2944C19.9646 22.4146 19.858 22.5725 19.8 22.7502C19.7482 22.9248 19.745 23.1102 19.7908 23.2864C19.8367 23.4626 19.9297 23.623 20.06 23.7502L21.82 25.4602L21.42 27.8302C21.3895 28.0137 21.4108 28.202 21.4815 28.374C21.5521 28.5461 21.6693 28.695 21.82 28.8041C21.9706 28.9131 22.1487 28.9781 22.3342 28.9915C22.5196 29.005 22.7052 28.9664 22.87 28.8802L24 28.2902V31.0002H19C18.7348 31.0002 18.4804 31.1056 18.2929 31.2931C18.1054 31.4806 18 31.735 18 32.0002V35.0002H16C15.7348 35.0002 15.4804 35.1056 15.2929 35.2931C15.1054 35.4806 15 35.735 15 36.0002V38.0002C15 38.2654 15.1054 38.5198 15.2929 38.7073C15.4804 38.8948 15.7348 39.0002 16 39.0002C16.2652 39.0002 16.5196 38.8948 16.7071 38.7073C16.8946 38.5198 17 38.2654 17 38.0002V37.0002H21V38.0002C21 38.2654 21.1054 38.5198 21.2929 38.7073C21.4804 38.8948 21.7348 39.0002 22 39.0002C22.2652 39.0002 22.5196 38.8948 22.7071 38.7073C22.8946 38.5198 23 38.2654 23 38.0002V36.0002C23 35.735 22.8946 35.4806 22.7071 35.2931C22.5196 35.1056 22.2652 35.0002 22 35.0002H20V33.0002H30V35.0002H28C27.7348 35.0002 27.4804 35.1056 27.2929 35.2931C27.1054 35.4806 27 35.735 27 36.0002V38.0002C27 38.2654 27.1054 38.5198 27.2929 38.7073C27.4804 38.8948 27.7348 39.0002 28 39.0002C28.2652 39.0002 28.5196 38.8948 28.7071 38.7073C28.8946 38.5198 29 38.2654 29 38.0002V37.0002H33V38.0002C33 38.2654 33.1054 38.5198 33.2929 38.7073C33.4804 38.8948 33.7348 39.0002 34 39.0002C34.2652 39.0002 34.5196 38.8948 34.7071 38.7073C34.8946 38.5198 35 38.2654 35 38.0002V36.0002C35 35.735 34.8946 35.4806 34.7071 35.2931C34.5196 35.1056 34.2652 35.0002 34 35.0002ZM25 25.6302C24.8359 25.631 24.6744 25.6722 24.53 25.7502L23.73 26.1702L23.88 25.2702C23.9062 25.111 23.8936 24.9478 23.8431 24.7946C23.7926 24.6414 23.7057 24.5026 23.59 24.3902L22.94 23.7502L23.84 23.6202C24.001 23.5987 24.1544 23.5383 24.2868 23.4442C24.4192 23.3501 24.5267 23.2252 24.6 23.0802L25 22.2602L25.4 23.0802C25.4733 23.2252 25.5808 23.3501 25.7132 23.4442C25.8456 23.5383 25.999 23.5987 26.16 23.6202L27.06 23.7502L26.41 24.3902C26.2943 24.5026 26.2074 24.6414 26.1569 24.7946C26.1064 24.9478 26.0938 25.111 26.12 25.2702L26.27 26.1702L25.47 25.7502C25.3256 25.6722 25.1641 25.631 25 25.6302Z" fill="url(#paint1_linear_3714_75972)"/>
<path d="M34 35.0002H32V32.0002C32 31.735 31.8946 31.4806 31.7071 31.2931C31.5196 31.1056 31.2652 31.0002 31 31.0002H26V28.2902L27.13 28.8802C27.2948 28.9664 27.4804 29.005 27.6658 28.9915C27.8513 28.9781 28.0294 28.9131 28.18 28.8041C28.3307 28.695 28.4479 28.5461 28.5185 28.374C28.5892 28.202 28.6105 28.0137 28.58 27.8302L28.18 25.4602L29.9 23.7702C30.0303 23.643 30.1233 23.4826 30.1692 23.3064C30.215 23.1302 30.2118 22.9448 30.16 22.7702C30.102 22.5925 29.9954 22.4346 29.8522 22.3144C29.7091 22.1942 29.5351 22.1165 29.35 22.0902L27 21.7202L25.9 19.5602C25.8181 19.3911 25.6903 19.2485 25.5311 19.1488C25.3719 19.049 25.1879 18.9961 25 18.9961C24.8121 18.9961 24.6281 19.049 24.4689 19.1488C24.3097 19.2485 24.1819 19.3911 24.1 19.5602L23 21.7202L20.61 22.0702C20.4249 22.0965 20.2509 22.1742 20.1077 22.2944C19.9646 22.4146 19.858 22.5725 19.8 22.7502C19.7482 22.9248 19.745 23.1102 19.7908 23.2864C19.8367 23.4626 19.9297 23.623 20.06 23.7502L21.82 25.4602L21.42 27.8302C21.3895 28.0137 21.4108 28.202 21.4815 28.374C21.5521 28.5461 21.6693 28.695 21.82 28.8041C21.9706 28.9131 22.1487 28.9781 22.3342 28.9915C22.5196 29.005 22.7052 28.9664 22.87 28.8802L24 28.2902V31.0002H19C18.7348 31.0002 18.4804 31.1056 18.2929 31.2931C18.1054 31.4806 18 31.735 18 32.0002V35.0002H16C15.7348 35.0002 15.4804 35.1056 15.2929 35.2931C15.1054 35.4806 15 35.735 15 36.0002V38.0002C15 38.2654 15.1054 38.5198 15.2929 38.7073C15.4804 38.8948 15.7348 39.0002 16 39.0002C16.2652 39.0002 16.5196 38.8948 16.7071 38.7073C16.8946 38.5198 17 38.2654 17 38.0002V37.0002H21V38.0002C21 38.2654 21.1054 38.5198 21.2929 38.7073C21.4804 38.8948 21.7348 39.0002 22 39.0002C22.2652 39.0002 22.5196 38.8948 22.7071 38.7073C22.8946 38.5198 23 38.2654 23 38.0002V36.0002C23 35.735 22.8946 35.4806 22.7071 35.2931C22.5196 35.1056 22.2652 35.0002 22 35.0002H20V33.0002H30V35.0002H28C27.7348 35.0002 27.4804 35.1056 27.2929 35.2931C27.1054 35.4806 27 35.735 27 36.0002V38.0002C27 38.2654 27.1054 38.5198 27.2929 38.7073C27.4804 38.8948 27.7348 39.0002 28 39.0002C28.2652 39.0002 28.5196 38.8948 28.7071 38.7073C28.8946 38.5198 29 38.2654 29 38.0002V37.0002H33V38.0002C33 38.2654 33.1054 38.5198 33.2929 38.7073C33.4804 38.8948 33.7348 39.0002 34 39.0002C34.2652 39.0002 34.5196 38.8948 34.7071 38.7073C34.8946 38.5198 35 38.2654 35 38.0002V36.0002C35 35.735 34.8946 35.4806 34.7071 35.2931C34.5196 35.1056 34.2652 35.0002 34 35.0002ZM25 25.6302C24.8359 25.631 24.6744 25.6722 24.53 25.7502L23.73 26.1702L23.88 25.2702C23.9062 25.111 23.8936 24.9478 23.8431 24.7946C23.7926 24.6414 23.7057 24.5026 23.59 24.3902L22.94 23.7502L23.84 23.6202C24.001 23.5987 24.1544 23.5383 24.2868 23.4442C24.4192 23.3501 24.5267 23.2252 24.6 23.0802L25 22.2602L25.4 23.0802C25.4733 23.2252 25.5808 23.3501 25.7132 23.4442C25.8456 23.5383 25.999 23.5987 26.16 23.6202L27.06 23.7502L26.41 24.3902C26.2943 24.5026 26.2074 24.6414 26.1569 24.7946C26.1064 24.9478 26.0938 25.111 26.12 25.2702L26.27 26.1702L25.47 25.7502C25.3256 25.6722 25.1641 25.631 25 25.6302Z" fill="url(#paint2_linear_3714_75972)"/>
<defs>
<linearGradient id="paint0_linear_3714_75972" x1="2.78502" y1="18.9481" x2="48.508" y2="41.3679" gradientUnits="userSpaceOnUse">
<stop stop-color="#30FFAA"/>
<stop offset="1" stop-color="#007E4A"/>
</linearGradient>
<linearGradient id="paint1_linear_3714_75972" x1="14.9443" y1="23.271" x2="35.0074" y2="34.0616" gradientUnits="userSpaceOnUse">
<stop stop-color="#00DC82"/>
<stop offset="1" stop-color="#003F25"/>
</linearGradient>
<linearGradient id="paint2_linear_3714_75972" x1="14.9443" y1="23.271" x2="35.0074" y2="34.0616" gradientUnits="userSpaceOnUse">
<stop stop-color="#30FFAA"/>
<stop offset="1" stop-color="#007E4A"/>
</linearGradient>
</defs>
</svg>
