<svg width="52" height="58" viewBox="0 0 52 58" fill="none" xmlns="http://www.w3.org/2000/svg">
<path d="M5.50751 15.3227L5.50753 15.3227L5.51467 15.3182L22.8022 4.37921C24.1133 3.57184 25.7374 3.54018 27.0668 4.29161L27.071 4.29396L45.6061 14.6133C45.6068 14.6138 45.6075 14.6142 45.6082 14.6146C46.9298 15.3626 47.7707 16.7791 47.8038 18.3448L47.915 38.5289H47.9149L47.9151 38.5397C47.9463 40.1033 47.1689 41.5622 45.8793 42.3851L28.3279 53.5843C27.0084 54.4262 25.3555 54.4717 24.0051 53.7084L5.88141 43.4643C4.45604 42.6586 3.40616 41.1507 3.41609 39.6072H3.4161V39.6024L3.41617 19.0833C3.41617 19.0825 3.41618 19.0817 3.41619 19.081C3.4269 17.5381 4.22386 16.1148 5.50751 15.3227Z" fill="transparent" stroke="url(#paint0_linear_3714_75983)" stroke-width="1.5"/>
<path d="M31.9806 20.8039C31.8871 20.3365 31.4767 20 31 20C30.5233 20 30.1129 20.3365 30.0194 20.8039L29.7809 21.9964C29.7017 22.3923 29.3923 22.7017 28.9964 22.7809L27.8039 23.0194C27.3365 23.1129 27 23.5233 27 24C27 24.4767 27.3365 24.8871 27.8039 24.9806L28.9964 25.2191C29.3923 25.2983 29.7017 25.6077 29.7809 26.0036L30.0194 27.1961C30.1129 27.6635 30.5233 28 31 28C31.4767 28 31.8871 27.6635 31.9806 27.1961L32.2191 26.0036C32.2983 25.6077 32.6077 25.2983 33.0036 25.2191L34.1961 24.9806C34.6635 24.8871 35 24.4767 35 24C35 23.5233 34.6635 23.1129 34.1961 23.0194L33.0036 22.7809C32.6077 22.7017 32.2983 22.3923 32.2191 21.9964L31.9806 20.8039Z" fill="url(#paint1_linear_3714_75983)"/>
<path d="M31.9806 20.8039C31.8871 20.3365 31.4767 20 31 20C30.5233 20 30.1129 20.3365 30.0194 20.8039L29.7809 21.9964C29.7017 22.3923 29.3923 22.7017 28.9964 22.7809L27.8039 23.0194C27.3365 23.1129 27 23.5233 27 24C27 24.4767 27.3365 24.8871 27.8039 24.9806L28.9964 25.2191C29.3923 25.2983 29.7017 25.6077 29.7809 26.0036L30.0194 27.1961C30.1129 27.6635 30.5233 28 31 28C31.4767 28 31.8871 27.6635 31.9806 27.1961L32.2191 26.0036C32.2983 25.6077 32.6077 25.2983 33.0036 25.2191L34.1961 24.9806C34.6635 24.8871 35 24.4767 35 24C35 23.5233 34.6635 23.1129 34.1961 23.0194L33.0036 22.7809C32.6077 22.7017 32.2983 22.3923 32.2191 21.9964L31.9806 20.8039Z" fill="url(#paint2_linear_3714_75983)"/>
<path d="M22.9487 24.6838C22.8126 24.2754 22.4304 24 22 24C21.5696 24 21.1874 24.2754 21.0513 24.6838L20.3675 26.7351C20.268 27.0337 20.0337 27.268 19.7351 27.3675L17.6838 28.0513C17.2754 28.1874 17 28.5696 17 29C17 29.4304 17.2754 29.8126 17.6838 29.9487L19.7351 30.6325C20.0337 30.732 20.268 30.9663 20.3675 31.2649L21.0513 33.3162C21.1874 33.7246 21.5696 34 22 34C22.4304 34 22.8126 33.7246 22.9487 33.3162L23.6325 31.2649C23.732 30.9663 23.9663 30.732 24.2649 30.6325L26.3162 29.9487C26.7246 29.8126 27 29.4304 27 29C27 28.5696 26.7246 28.1874 26.3162 28.0513L24.2649 27.3675C23.9663 27.268 23.732 27.0337 23.6325 26.7351L22.9487 24.6838Z" fill="url(#paint3_linear_3714_75983)"/>
<path d="M22.9487 24.6838C22.8126 24.2754 22.4304 24 22 24C21.5696 24 21.1874 24.2754 21.0513 24.6838L20.3675 26.7351C20.268 27.0337 20.0337 27.268 19.7351 27.3675L17.6838 28.0513C17.2754 28.1874 17 28.5696 17 29C17 29.4304 17.2754 29.8126 17.6838 29.9487L19.7351 30.6325C20.0337 30.732 20.268 30.9663 20.3675 31.2649L21.0513 33.3162C21.1874 33.7246 21.5696 34 22 34C22.4304 34 22.8126 33.7246 22.9487 33.3162L23.6325 31.2649C23.732 30.9663 23.9663 30.732 24.2649 30.6325L26.3162 29.9487C26.7246 29.8126 27 29.4304 27 29C27 28.5696 26.7246 28.1874 26.3162 28.0513L24.2649 27.3675C23.9663 27.268 23.732 27.0337 23.6325 26.7351L22.9487 24.6838Z" fill="url(#paint4_linear_3714_75983)"/>
<path d="M29.9487 32.6838C29.8126 32.2754 29.4304 32 29 32C28.5696 32 28.1874 32.2754 28.0513 32.6838L27.8675 33.2351C27.768 33.5337 27.5337 33.768 27.2351 33.8675L26.6838 34.0513C26.2754 34.1874 26 34.5696 26 35C26 35.4304 26.2754 35.8126 26.6838 35.9487L27.2351 36.1325C27.5337 36.232 27.768 36.4663 27.8675 36.7649L28.0513 37.3162C28.1874 37.7246 28.5696 38 29 38C29.4304 38 29.8126 37.7246 29.9487 37.3162L30.1325 36.7649C30.232 36.4663 30.4663 36.232 30.7649 36.1325L31.3162 35.9487C31.7246 35.8126 32 35.4304 32 35C32 34.5696 31.7246 34.1874 31.3162 34.0513L30.7649 33.8675C30.4663 33.768 30.232 33.5337 30.1325 33.2351L29.9487 32.6838Z" fill="url(#paint5_linear_3714_75983)"/>
<path d="M29.9487 32.6838C29.8126 32.2754 29.4304 32 29 32C28.5696 32 28.1874 32.2754 28.0513 32.6838L27.8675 33.2351C27.768 33.5337 27.5337 33.768 27.2351 33.8675L26.6838 34.0513C26.2754 34.1874 26 34.5696 26 35C26 35.4304 26.2754 35.8126 26.6838 35.9487L27.2351 36.1325C27.5337 36.232 27.768 36.4663 27.8675 36.7649L28.0513 37.3162C28.1874 37.7246 28.5696 38 29 38C29.4304 38 29.8126 37.7246 29.9487 37.3162L30.1325 36.7649C30.232 36.4663 30.4663 36.232 30.7649 36.1325L31.3162 35.9487C31.7246 35.8126 32 35.4304 32 35C32 34.5696 31.7246 34.1874 31.3162 34.0513L30.7649 33.8675C30.4663 33.768 30.232 33.5337 30.1325 33.2351L29.9487 32.6838Z" fill="url(#paint6_linear_3714_75983)"/>
<defs>
<linearGradient id="paint0_linear_3714_75983" x1="3.11705" y1="18.9481" x2="48.8401" y2="41.3679" gradientUnits="userSpaceOnUse">
<stop stop-color="#30FFAA"/>
<stop offset="1" stop-color="#007E4A"/>
</linearGradient>
<linearGradient id="paint1_linear_3714_75983" x1="16.9498" y1="23.8467" x2="35.005" y2="33.5593" gradientUnits="userSpaceOnUse">
<stop stop-color="#00DC82"/>
<stop offset="1" stop-color="#003F25"/>
</linearGradient>
<linearGradient id="paint2_linear_3714_75983" x1="16.9498" y1="23.8467" x2="35.005" y2="33.5593" gradientUnits="userSpaceOnUse">
<stop stop-color="#30FFAA"/>
<stop offset="1" stop-color="#007E4A"/>
</linearGradient>
<linearGradient id="paint3_linear_3714_75983" x1="16.9498" y1="23.8467" x2="35.005" y2="33.5593" gradientUnits="userSpaceOnUse">
<stop stop-color="#00DC82"/>
<stop offset="1" stop-color="#003F25"/>
</linearGradient>
<linearGradient id="paint4_linear_3714_75983" x1="16.9498" y1="23.8467" x2="35.005" y2="33.5593" gradientUnits="userSpaceOnUse">
<stop stop-color="#30FFAA"/>
<stop offset="1" stop-color="#007E4A"/>
</linearGradient>
<linearGradient id="paint5_linear_3714_75983" x1="16.9498" y1="23.8467" x2="35.005" y2="33.5593" gradientUnits="userSpaceOnUse">
<stop stop-color="#00DC82"/>
<stop offset="1" stop-color="#003F25"/>
</linearGradient>
<linearGradient id="paint6_linear_3714_75983" x1="16.9498" y1="23.8467" x2="35.005" y2="33.5593" gradientUnits="userSpaceOnUse">
<stop stop-color="#30FFAA"/>
<stop offset="1" stop-color="#007E4A"/>
</linearGradient>
</defs>
</svg>
