<svg width="49" height="12" viewBox="0 0 49 12" fill="none" xmlns="http://www.w3.org/2000/svg">
<path d="M10.4302 12H17.1216C17.3341 12 17.5429 11.9446 17.7269 11.8393C17.911 11.7339 18.0638 11.5824 18.17 11.4C18.2762 11.2175 18.3321 11.0106 18.332 10.7999C18.3319 10.5893 18.2759 10.3824 18.1695 10.2L13.6758 2.48577C13.5696 2.30337 13.4168 2.1519 13.2327 2.04658C13.0487 1.94127 12.84 1.88583 12.6275 1.88583C12.415 1.88583 12.2063 1.94127 12.0222 2.04658C11.8382 2.1519 11.6854 2.30337 11.5792 2.48577L10.4302 4.45958L8.18366 0.599858C8.07735 0.417471 7.92449 0.266021 7.74042 0.160727C7.55636 0.0554319 7.34758 0 7.13505 0C6.92253 0 6.71375 0.0554319 6.52968 0.160727C6.34562 0.266021 6.19276 0.417471 6.08645 0.599858L0.494561 10.2C0.38818 10.3824 0.332124 10.5893 0.332031 10.7999C0.331939 11.0106 0.387813 11.2175 0.494034 11.4C0.600255 11.5824 0.753078 11.7339 0.937131 11.8393C1.12118 11.9446 1.32998 12 1.54251 12H5.74279C7.40699 12 8.63427 11.2755 9.47876 9.86203L11.529 6.34291L12.6272 4.45958L15.923 10.1167H11.529L10.4302 12ZM5.67431 10.1147L2.74306 10.1141L7.13701 2.57173L9.32942 6.34291L7.86151 8.86349C7.30069 9.78059 6.66357 10.1147 5.67431 10.1147Z" fill="black"/>
<path d="M26.8526 11.8953V10.1881H22.7029V2.70244H20.7324V11.8953H26.8526Z" fill="black"/>
<path d="M30.5316 12.0004C31.3015 12.0004 31.9931 11.6852 32.3194 11.1993V11.8953H34.1463V5.27645H32.3194V5.93309C31.954 5.47344 31.3015 5.17139 30.5055 5.17139C28.5872 5.17139 27.4258 6.52406 27.4258 8.58589C27.4258 10.6477 28.5872 12.0004 30.5316 12.0004ZM30.8187 10.4245C29.853 10.4245 29.2136 9.68904 29.2136 8.58589C29.2136 7.46961 29.853 6.73418 30.8187 6.73418C31.7974 6.73418 32.4368 7.46961 32.4368 8.58589C32.4368 9.68904 31.7974 10.4245 30.8187 10.4245Z" fill="black"/>
<path d="M39.3063 12.0004C41.2507 12.0004 42.4513 10.6477 42.4513 8.58589C42.4513 6.52406 41.2507 5.17139 39.3324 5.17139C38.5103 5.17139 37.8709 5.48657 37.5055 5.97248V2.40039H35.6916V11.8953H37.5055V11.173C37.8709 11.6852 38.5495 12.0004 39.3063 12.0004ZM39.0193 10.4245C38.0405 10.4245 37.4011 9.68904 37.4011 8.58589C37.4011 7.46961 38.0405 6.73418 39.0193 6.73418C39.9719 6.73418 40.6243 7.46961 40.6243 8.58589C40.6243 9.68904 39.9719 10.4245 39.0193 10.4245Z" fill="black"/>
<path d="M45.7747 12.0004C47.3146 12.0004 48.3324 11.173 48.3324 9.91229C48.3324 6.91804 44.7308 8.45456 44.7308 7.1019C44.7308 6.68165 45.0831 6.45839 45.592 6.45839C46.0879 6.45839 46.5968 6.76045 46.6751 7.32515H48.2541C48.1889 6.02501 47.1188 5.17139 45.5398 5.17139C44.1957 5.17139 43.1909 5.99875 43.1909 7.16756C43.1909 9.95169 46.7273 8.62529 46.7273 9.97796C46.7273 10.3457 46.3358 10.6215 45.7747 10.6215C45.0961 10.6215 44.6394 10.2537 44.5742 9.66277H43.0082C43.0735 11.0942 44.1696 12.0004 45.7747 12.0004Z" fill="black"/>
</svg>
