<svg width="32" height="32" viewBox="0 0 32 32" fill="none" xmlns="http://www.w3.org/2000/svg">
<path d="M17.9523 26.4393H29.848C30.2259 26.4393 30.5971 26.3429 30.9243 26.1596C31.2494 25.9784 31.5211 25.7148 31.712 25.3953C31.9004 25.0796 31.9999 24.7189 32 24.3513C31.9996 23.9837 31.8997 23.6231 31.7111 23.3076L23.7221 9.88559C23.5312 9.56623 23.2595 9.30275 22.9345 9.12159C22.6057 8.93785 22.2352 8.84149 21.8585 8.84172C21.4808 8.84172 21.1097 8.93826 20.7825 9.12146C20.4575 9.30265 20.1859 9.56619 19.9949 9.88559L17.9523 13.32L13.9584 6.60453C13.7673 6.28515 13.4955 6.02167 13.1704 5.84053C12.8415 5.65686 12.471 5.56055 12.0943 5.56079C11.7164 5.56079 11.3453 5.65719 11.018 5.84039C10.6929 6.02154 10.4211 6.28502 10.23 6.60439L0.289067 23.3077C0.100407 23.6232 0.000528169 23.9838 1.34051e-07 24.3513C-0.000133199 24.7179 0.0992002 25.078 0.288 25.3953C0.478937 25.7148 0.75062 25.9784 1.07573 26.1596C1.40293 26.3429 1.77413 26.4393 2.152 26.4393H9.61907C12.5777 26.4393 14.7596 25.1788 16.2608 22.7195L19.9057 16.5965L21.858 13.32L27.7172 23.1627H19.9057L17.9523 26.4393ZM9.49733 23.1592L4.28627 23.158L12.0977 10.0352L15.9953 16.5965L13.3857 20.9821C12.3887 22.5777 11.2561 23.1592 9.49733 23.1592Z" fill="#00DC82"/>
</svg>
