<svg xmlns="http://www.w3.org/2000/svg" width="32" height="32" fill="none"><mask id="a" width="32" height="32" x="0" y="0" maskUnits="userSpaceOnUse" style="mask-type:luminance"><path fill="#fff" d="M32 0H0v32h32V0Z"/></mask><g mask="url(#a)"><path fill="#ECDC5A" d="M31.9142 32.0223H.0247c-.0008-.0029-.0024-.0057-.0024-.0086L.0222.0237h31.9984v31.9986h-.1064Zm-5.5021-11.0878c-.0511-.0583-.0993-.1192-.1536-.1744-.6008-.6109-1.3574-.7383-2.163-.6655-.6986.0631-1.2971.3706-1.8144.8399-.0279.0253-.0584.0478-.0987.0806 0-.0654.0026-.1131-.0004-.1605-.0151-.2321-.1241-.4081-.3306-.5139-.2024-.1036-.4093-.0937-.6002.0282-.2123.1356-.2847.3441-.2845.5891.0015 1.8353.0008 3.6706.0008 5.5059 0 .1145-.0023.2291.0005.3435.0071.2946.1633.528.4005.6027.4162.131.8132-.1576.8138-.5965.0016-1.2593.0013-2.5185.0001-3.7777-.0003-.3547.0893-.6799.3155-.9568.5271-.6451 1.2096-.9175 2.0353-.8235.4021.0459.727.2325.9499.5771.2092.3234.2808.6885.2837 1.0644.0079 1.0376.0048 2.0753.0059 3.1129.0004.2843-.0044.5688.0012.853.0087.4446.4866.7198.8779.5086.2489-.1343.3373-.354.337-.6253-.0015-1.178.0019-2.356-.0026-3.534-.001-.2797-.0105-.5612-.043-.8388-.0602-.5146-.2031-1.0038-.5311-1.439Zm-7.6602-.6577c-.0731.0052-.1492-.0009-.2188.0176-.2898.0771-.4496.3075-.4498.6421-.0007 1.2002.0018 2.4005-.0023 3.6007-.0007.1985-.011.4-.046.5947-.0925.5142-.3682.8993-.8629 1.0944-.4819.1901-.9781.1967-1.4771.0612-.3785-.1027-.6687-.3199-.8583-.6649-.1358-.2474-.202-.5171-.2069-.796-.0099-.5649-.0066-1.13-.0072-1.695-.0008-.7312.001-1.4625-.0007-2.1937-.0008-.3601-.24-.6429-.5529-.6612-.3876-.0227-.6609.2413-.6614.6454-.0013 1.2335-.0029 2.4669.0009 3.7004.0014.441.0487.8759.2166 1.291.3185.7875.9128 1.2629 1.7102 1.4942.5019.1456 1.0189.1545 1.5369.0935.4001-.0471.7827-.1563 1.1313-.3588.823-.4783 1.2418-1.2221 1.2683-2.1508.039-1.3616.0231-2.7249.0245-4.0875.0005-.3419-.2006-.5688-.5444-.6273Z"/><path fill="#111827" d="M26.4164 20.9411c.3237.4286.4666.9178.5268 1.4324.0325.2776.042.5591.043.8388.0045 1.178.0011 2.356.0026 3.534.0003.2713-.0881.491-.337.6253-.3913.2112-.8693-.064-.8779-.5086-.0056-.2843-.0009-.5687-.0011-.853-.0012-1.0377.0018-2.0753-.006-3.1129-.0029-.3759-.0745-.741-.2837-1.0644-.2228-.3447-.5478-.5313-.9499-.5771-.8256-.094-1.5082.1784-2.0353.8235-.2261.2769-.3159.6021-.3155.9567.0012 1.2593.0015 2.5185-.0001 3.7778-.0006.4389-.3976.7275-.8137.5965-.2373-.0747-.3935-.3081-.4006-.6027-.0027-.1145-.0004-.229-.0004-.3435 0-1.8353.0006-3.6706-.0009-5.506-.0002-.2449.0723-.4534.2845-.589.1909-.122.3978-.1318.6001-.0282.2065.1058.3156.2817.3307.5139.003.0473.0004.0951.0004.1604.0403-.0327.0708-.0552.0987-.0806.5173-.4692 1.1158-.7767 1.8144-.8398.8055-.0728 1.5622.0546 2.163.6655.0542.0552.1025.1161.1579.181ZM18.7618 20.2773c.3339.0581.535.2849.5345.6268-.0014 1.3626.0145 2.7259-.0245 4.0875-.0265.9288-.4453 1.6725-1.2683 2.1508-.3486.2026-.7312.3118-1.1313.3588-.518.061-1.035.0522-1.5369-.0934-.7974-.2314-1.3917-.7068-1.7102-1.4943-.1679-.4151-.2152-.85-.2166-1.291-.0038-1.2334-.0022-2.4669-.0009-3.7004.0005-.4041.2738-.668.6614-.6454.3129.0184.5521.3012.5529.6613.0017.7312-.0001 1.4624.0007 2.1936.0006.565-.0027 1.1302.0072 1.695.0049.2789.0711.5487.2069.796.1896.3451.4798.5622.8583.665.4989.1354.9952.1288 1.4771-.0613.4947-.195.7704-.5802.8629-1.0943.035-.1948.0453-.3962.046-.5947.0041-1.2003.0016-2.4005.0023-3.6007.0002-.3346.16-.5651.4498-.6422.0696-.0185.1457-.0124.2287-.0171Z"/></g></svg>
