<svg width="52" height="58" viewBox="0 0 52 58" fill="none" xmlns="http://www.w3.org/2000/svg">
<g clip-path="url(#clip0_3714_75942)">
<path d="M5.17548 15.3227L5.1755 15.3227L5.18264 15.3182L22.4702 4.37921C23.7813 3.57184 25.4054 3.54018 26.7347 4.29161L26.739 4.29396L45.2741 14.6133C45.2748 14.6138 45.2755 14.6142 45.2762 14.6146C46.5978 15.3626 47.4387 16.7791 47.4718 18.3448L47.5829 38.5289H47.5829L47.5831 38.5397C47.6143 40.1033 46.8369 41.5622 45.5473 42.3851L27.9958 53.5843C26.6763 54.4262 25.0235 54.4717 23.6731 53.7084L5.54938 43.4643C4.12401 42.6586 3.07413 41.1507 3.08406 39.6072H3.08407V39.6024L3.08414 19.0833C3.08414 19.0825 3.08415 19.0817 3.08415 19.081C3.09487 17.5381 3.89183 16.1148 5.17548 15.3227Z" fill="transparent" stroke="url(#paint0_linear_3714_75942)" stroke-width="1.5"/>
<g clip-path="url(#clip1_3714_75942)">
<path d="M19.3832 27.4557C19.1561 29.1924 19.0182 30.9571 18.9742 32.7451C21.3875 33.7527 23.6828 34.9864 25.8337 36.4198C27.9846 34.9864 30.28 33.7527 32.6933 32.7451C32.6492 30.9572 32.5113 29.1924 32.2843 27.4558M19.3832 27.4557C18.6534 27.2104 17.9148 26.9844 17.168 26.7783C19.8725 24.8826 22.7732 23.2478 25.8338 21.9106C28.8943 23.2478 31.7951 24.8826 34.4996 26.7783C33.7527 26.9844 33.0141 27.2105 32.2843 27.4558M19.3832 27.4557C21.6225 28.2084 23.7786 29.1426 25.8338 30.2407C27.889 29.1426 30.045 28.2085 32.2843 27.4558M21.4587 31.5002C21.8039 31.5002 22.0837 31.2204 22.0837 30.8752C22.0837 30.53 21.8039 30.2502 21.4587 30.2502C21.1136 30.2502 20.8337 30.53 20.8337 30.8752C20.8337 31.2204 21.1136 31.5002 21.4587 31.5002ZM21.4587 31.5002V28.4372C22.8683 27.5614 24.3284 26.7593 25.8337 26.0363M19.9943 35.6607C20.9706 34.6844 21.4587 33.4048 21.4587 32.1252V30.8752" stroke="url(#paint1_linear_3714_75942)" stroke-width="1.25" stroke-linecap="round" stroke-linejoin="round"/>
<path d="M19.3832 27.4557C19.1561 29.1924 19.0182 30.9571 18.9742 32.7451C21.3875 33.7527 23.6828 34.9864 25.8337 36.4198C27.9846 34.9864 30.28 33.7527 32.6933 32.7451C32.6492 30.9572 32.5113 29.1924 32.2843 27.4558M19.3832 27.4557C18.6534 27.2104 17.9148 26.9844 17.168 26.7783C19.8725 24.8826 22.7732 23.2478 25.8338 21.9106C28.8943 23.2478 31.7951 24.8826 34.4996 26.7783C33.7527 26.9844 33.0141 27.2105 32.2843 27.4558M19.3832 27.4557C21.6225 28.2084 23.7786 29.1426 25.8338 30.2407C27.889 29.1426 30.045 28.2085 32.2843 27.4558M21.4587 31.5002C21.8039 31.5002 22.0837 31.2204 22.0837 30.8752C22.0837 30.53 21.8039 30.2502 21.4587 30.2502C21.1136 30.2502 20.8337 30.53 20.8337 30.8752C20.8337 31.2204 21.1136 31.5002 21.4587 31.5002ZM21.4587 31.5002V28.4372C22.8683 27.5614 24.3284 26.7593 25.8337 26.0363M19.9943 35.6607C20.9706 34.6844 21.4587 33.4048 21.4587 32.1252V30.8752" stroke="url(#paint2_linear_3714_75942)" stroke-width="1.25" stroke-linecap="round" stroke-linejoin="round"/>
</g>
</g>
<defs>
<linearGradient id="paint0_linear_3714_75942" x1="2.78502" y1="18.9481" x2="48.508" y2="41.3679" gradientUnits="userSpaceOnUse">
<stop stop-color="#30FFAA"/>
<stop offset="1" stop-color="#007E4A"/>
</linearGradient>
<linearGradient id="paint1_linear_3714_75942" x1="17.1197" y1="25.0113" x2="32.9844" y2="35.2058" gradientUnits="userSpaceOnUse">
<stop stop-color="#00DC82"/>
<stop offset="1" stop-color="#003F25"/>
</linearGradient>
<linearGradient id="paint2_linear_3714_75942" x1="17.1197" y1="25.0113" x2="32.9844" y2="35.2058" gradientUnits="userSpaceOnUse">
<stop stop-color="#30FFAA"/>
<stop offset="1" stop-color="#007E4A"/>
</linearGradient>
<clipPath id="clip0_3714_75942">
<rect width="51" height="58" fill="white" transform="translate(0.333984)"/>
</clipPath>
<clipPath id="clip1_3714_75942">
<rect width="20" height="20" fill="white" transform="translate(15.834 19)"/>
</clipPath>
</defs>
</svg>
