<svg xmlns="http://www.w3.org/2000/svg" width="116" height="24" fill="none"><g fill="white" clip-path="url(#a)"><path d="M48.38 13.52h-2.72v-1.7h7.41v1.7h-2.72v7.8h-1.97v-7.8Zm5.6 3.74h2.93a1.37 1.37 0 0 0-1.44-1.33c-.83 0-1.33.41-1.49 1.33Zm4.77 1.81c-.26 1.44-1.52 2.35-3.15 2.35-2.25 0-3.4-1.76-3.4-3.42 0-1.69 1.02-3.4 3.27-3.4 2.33 0 3.27 1.71 3.27 3.22 0 .25-.02.45-.03.6h-4.75c.13.93.72 1.5 1.64 1.5.73 0 1.22-.28 1.36-.85h1.79Zm.98-1.06a3.3 3.3 0 0 1 3.42-3.42c1.73 0 3.11 1.05 3.23 2.6h-1.84c-.1-.6-.67-1.03-1.34-1.03-.98 0-1.56.77-1.56 1.85s.59 1.84 1.59 1.84c.67 0 1.2-.4 1.34-1h1.86c-.2 1.47-1.56 2.57-3.28 2.57a3.3 3.3 0 0 1-3.42-3.41m7.69-6.19h1.82v3.8c.39-.65 1.1-1.03 2.03-1.03 1.48 0 2.45 1.08 2.45 2.6v4.13H71.9V17.6c0-.8-.53-1.38-1.3-1.38-.8 0-1.36.62-1.36 1.47v3.63h-1.82v-9.5Zm7.63 2.88h1.84v.92c.37-.65 1.1-1.03 2.01-1.03 1.5 0 2.47 1.08 2.47 2.6v4.13h-1.84V17.6c0-.8-.5-1.38-1.27-1.38-.8 0-1.37.62-1.37 1.47v3.63h-1.84V14.7ZM87.46 18c0-1.1-.67-1.84-1.65-1.84-.99 0-1.66.75-1.66 1.85 0 1.09.67 1.84 1.66 1.84.98 0 1.65-.75 1.65-1.84Zm-5.15 0a3.34 3.34 0 0 1 3.5-3.4c2.03 0 3.49 1.44 3.49 3.4a3.34 3.34 0 0 1-3.5 3.42 3.34 3.34 0 0 1-3.49-3.41Zm8.04-6.18h1.83v9.5h-1.83v-9.5Zm8.02 6.19c0-1.1-.67-1.85-1.65-1.85-.99 0-1.66.75-1.66 1.85 0 1.09.67 1.84 1.66 1.84.98 0 1.65-.75 1.65-1.84Zm-5.15 0a3.34 3.34 0 0 1 3.5-3.42c2.03 0 3.5 1.45 3.5 3.42a3.34 3.34 0 0 1-3.5 3.41 3.34 3.34 0 0 1-3.5-3.41Zm12.75 0c0-1.12-.65-1.85-1.63-1.85-.98 0-1.62.73-1.62 1.85s.64 1.84 1.62 1.84c.98 0 1.63-.72 1.63-1.84Zm1.72-3.31v7.01c0 1.38-1 2.29-2.5 2.29h-3.34v-1.43h3.05c.55 0 .96-.44.96-1.05v-.87c-.34.49-1.04.77-1.81.77-1.96 0-3.13-1.35-3.13-3.41s1.17-3.42 3.1-3.42c.8 0 1.46.3 1.83.76v-.65h1.84Zm5.36 0-1.38 4.27-1.4-4.27h-1.86l2.4 6.57-.97 2.73h1.75l.93-2.7 2.4-6.6h-1.87ZM45.1 0h2l1.76 6.6L50.75 0h1.67l1.89 6.6L56.08 0h2l-2.72 9.5h-1.94l-1.83-6.42-1.83 6.42h-1.91L45.1 0Zm38.95 0h2l1.76 6.6L89.7 0h1.67l1.89 6.6L95.03 0h2L94.3 9.5h-1.95l-1.82-6.42-1.83 6.42H86.8L84.06 0ZM62.8 6.2c0-1.1-.67-1.85-1.65-1.85-.98 0-1.66.74-1.66 1.85 0 1.09.67 1.84 1.66 1.84.98 0 1.65-.75 1.65-1.84Zm-5.14 0a3.34 3.34 0 0 1 3.49-3.42c2.04 0 3.5 1.45 3.5 3.42a3.34 3.34 0 0 1-3.5 3.41 3.34 3.34 0 0 1-3.5-3.41ZM68.77 4.4c-.9 0-1.31.75-1.31 1.88V9.5h-1.84V2.88h1.84v1.1c.35-.83.85-1.1 1.65-1.1h.75V4.4h-1.09ZM70.63 0h1.83v9.5h-1.83V0Zm7.96 6.19c0-1.12-.65-1.85-1.62-1.85-.97 0-1.62.73-1.62 1.85 0 1.1.65 1.84 1.62 1.84.97 0 1.62-.74 1.62-1.84Zm-5.05 0c0-2.07 1.18-3.42 3.1-3.42.83 0 1.47.32 1.84.8V0h1.83v9.5h-1.83v-.72c-.36.5-1.05.82-1.8.82-1.95 0-3.14-1.35-3.14-3.41m24.32 3.3h1.84V2.89h-1.84V9.5Zm-.05-7.56h1.94V0H97.8v1.93Zm7.93 4.26c0-1.12-.64-1.85-1.61-1.85-.98 0-1.62.73-1.62 1.85 0 1.1.64 1.84 1.61 1.84.98 0 1.62-.74 1.62-1.84Zm-5.04 0c0-2.07 1.18-3.42 3.1-3.42.83 0 1.47.32 1.84.8V0h1.83v9.5h-1.83v-.72c-.37.5-1.05.82-1.81.82-1.95 0-3.13-1.35-3.13-3.41m9.59-.75h2.92a1.37 1.37 0 0 0-1.44-1.33c-.83 0-1.33.41-1.48 1.33m4.77 1.81c-.27 1.43-1.53 2.35-3.16 2.35-2.24 0-3.4-1.76-3.4-3.43 0-1.68 1.03-3.4 3.27-3.4 2.34 0 3.27 1.72 3.27 3.23l-.02.6h-4.76c.13.93.72 1.5 1.64 1.5.74 0 1.23-.28 1.37-.85h1.79ZM26.16 16.42 31 21.26c.04.04.1.06.15.06h6.06a.21.21 0 0 0 .15-.36l-7.88-7.87 4.85-4.85a.21.21 0 0 0 0-.3L31.3 4.92a.21.21 0 0 0-.3 0L17.98 17.93a.21.21 0 0 0 0 .3l3.03 3.04a.21.21 0 0 0 .15.06.21.21 0 0 0 .15-.06l4.85-4.85ZM25.86.07l-4.7 4.7-4.7-4.7A.21.21 0 0 0 16.3 0h-6.05a.21.21 0 0 0-.16.37l7.74 7.72-1.67 1.67L6.47.06A.22.22 0 0 0 6.32 0H.27A.21.21 0 0 0 .1.37l15.9 15.9a.21.21 0 0 0 .31 0L32.22.37a.22.22 0 0 0-.16-.37h-6.05a.22.22 0 0 0-.16.07m10 0-2.88 2.88a.21.21 0 0 0-.07.15.21.21 0 0 0 .07.15l3.02 3.03a.21.21 0 0 0 .3 0L42.22.37a.21.21 0 0 0-.16-.37H36a.22.22 0 0 0-.16.07"/></g><defs><clipPath id="a"><path fill="#fff" d="M.05 0h115v24H.05z"/></clipPath></defs></svg>
