<svg width="44" height="44" viewBox="0 0 44 44" fill="none" xmlns="http://www.w3.org/2000/svg">
<path d="M29.5528 36.3652C29.2773 36.3651 29.008 36.2834 28.7789 36.1303C28.5498 35.9772 28.3713 35.7596 28.2658 35.505C28.1604 35.2505 28.1328 34.9704 28.1865 34.7001C28.2403 34.4299 28.3729 34.1816 28.5677 33.9868L34.0308 28.523L28.5677 23.0585C28.4384 22.9291 28.3357 22.7755 28.2657 22.6065C28.1957 22.4375 28.1597 22.2563 28.1597 22.0734C28.1597 21.8904 28.1957 21.7092 28.2657 21.5402C28.3357 21.3712 28.4383 21.2176 28.5677 21.0882C28.6971 20.9589 28.8507 20.8562 29.0197 20.7862C29.1887 20.7162 29.3699 20.6802 29.5528 20.6802C29.7358 20.6802 29.917 20.7162 30.086 20.7862C30.255 20.8562 30.4086 20.9589 30.538 21.0882L36.9862 27.5378C37.1156 27.6672 37.2183 27.8208 37.2883 27.9898C37.3584 28.1588 37.3944 28.34 37.3944 28.523C37.3944 28.7059 37.3584 28.8871 37.2883 29.0561C37.2183 29.2252 37.1156 29.3788 36.9862 29.5081L30.5379 35.9569C30.4087 36.0865 30.2552 36.1893 30.0861 36.2594C29.9171 36.3294 29.7358 36.3654 29.5528 36.3652Z" fill="#009D5D"/>
<path d="M20.9073 35.9331C20.6318 35.933 20.3624 35.8513 20.1334 35.6982C19.9043 35.545 19.7257 35.3275 19.6203 35.0729C19.5149 34.8183 19.4873 34.5382 19.541 34.268C19.5948 33.9977 19.7274 33.7495 19.9222 33.5546L25.3853 28.0908L19.9222 22.6264C19.7928 22.497 19.6902 22.3434 19.6202 22.1744C19.5502 22.0054 19.5142 21.8242 19.5142 21.6412C19.5142 21.4583 19.5502 21.2771 19.6202 21.1081C19.6902 20.9391 19.7928 20.7855 19.9222 20.6561C20.0516 20.5267 20.2052 20.4241 20.3742 20.3541C20.5432 20.2841 20.7244 20.248 20.9073 20.248C21.0903 20.248 21.2715 20.2841 21.4405 20.3541C21.6095 20.4241 21.7631 20.5267 21.8925 20.6561L28.3407 27.1057C28.4701 27.2351 28.5728 27.3886 28.6428 27.5577C28.7129 27.7267 28.7489 27.9079 28.7489 28.0908C28.7489 28.2738 28.7129 28.455 28.6428 28.624C28.5728 28.793 28.4701 28.9466 28.3407 29.076L21.8924 35.5248C21.7632 35.6544 21.6097 35.7572 21.4406 35.8273C21.2716 35.8973 21.0903 35.9333 20.9073 35.9331Z" fill="#00DC82"/>
<path d="M27.3553 29.4841H14.2982C12.4512 29.482 10.6805 28.7473 9.37443 27.4413C8.0684 26.1352 7.33371 24.3645 7.33154 22.5175V9.45974C7.33154 9.0902 7.47834 8.7358 7.73964 8.4745C8.00094 8.2132 8.35534 8.06641 8.72488 8.06641C9.09441 8.06641 9.44881 8.2132 9.71011 8.4745C9.97141 8.7358 10.1182 9.0902 10.1182 9.45974V22.5175C10.1194 23.6257 10.5602 24.6882 11.3438 25.4718C12.1275 26.2555 13.19 26.6963 14.2982 26.6975H27.3553C27.7248 26.6975 28.0792 26.8443 28.3405 27.1056C28.6018 27.3669 28.7486 27.7213 28.7486 28.0908C28.7486 28.4603 28.6018 28.8147 28.3405 29.076C28.0792 29.3373 27.7248 29.4841 27.3553 29.4841Z" fill="#00DC82"/>
</svg>
