<svg width="646" height="427" viewBox="0 0 646 427" fill="none" xmlns="http://www.w3.org/2000/svg">
<g opacity="0.5">
<mask id="mask0_4452_42706" style="mask-type:alpha" maskUnits="userSpaceOnUse" x="0" y="0" width="660" height="427">
<path d="M115.378 172.878L135.522 138.13C137.363 134.956 140.766 133 144.45 133H187.264C187.268 133 187.272 133 187.276 133C190.018 133.003 192.604 134.09 194.505 135.957C195.14 136.58 195.698 137.29 196.16 138.076L216.591 172.825C218.431 175.955 218.472 179.818 216.698 182.986L196.123 219.737C195.582 220.703 194.897 221.561 194.103 222.288C192.895 223.395 191.435 224.201 189.847 224.635C188.97 224.874 188.054 225 187.119 225H144.595C143.61 225 142.645 224.86 141.725 224.595C140.011 224.101 138.453 223.17 137.208 221.897C136.57 221.245 136.014 220.503 135.561 219.683L115.272 182.931C114.719 181.929 114.346 180.859 114.154 179.765C113.894 178.288 113.963 176.768 114.359 175.316C114.588 174.474 114.928 173.654 115.378 172.878Z" fill="url(#paint0_linear_4452_42706)"/>
<path d="M219.378 104.878L239.522 70.13C241.363 66.9558 244.766 65 248.45 65H291.264C291.268 65 291.272 65 291.276 65C294.018 65.0032 296.604 66.0896 298.505 67.9566C299.14 68.5798 299.698 69.29 300.16 70.0759L320.591 104.825C322.431 107.955 322.472 111.818 320.698 114.986L300.123 151.737C299.582 152.703 298.897 153.561 298.103 154.288C296.895 155.395 295.435 156.201 293.847 156.635C292.97 156.874 292.054 157 291.119 157H248.595C247.61 157 246.645 156.86 245.725 156.595C244.011 156.101 242.453 155.17 241.208 153.897C240.57 153.245 240.014 152.503 239.561 151.683L219.272 114.931C218.719 113.929 218.346 112.859 218.154 111.765C217.894 110.288 217.963 108.768 218.359 107.316C218.588 106.474 218.928 105.654 219.378 104.878Z" fill="url(#paint1_linear_4452_42706)"/>
<path d="M105.378 301.878L125.522 267.13C127.363 263.956 130.766 262 134.45 262H177.264C177.268 262 177.272 262 177.276 262C180.018 262.003 182.604 263.09 184.505 264.957C185.14 265.58 185.698 266.29 186.16 267.076L206.591 301.825C208.431 304.955 208.472 308.818 206.698 311.986L186.123 348.737C185.582 349.703 184.897 350.561 184.103 351.288C182.895 352.395 181.435 353.201 179.847 353.634C178.97 353.874 178.054 354 177.119 354H134.595C133.61 354 132.645 353.86 131.725 353.595C130.011 353.101 128.453 352.17 127.208 350.897C126.57 350.245 126.014 349.503 125.561 348.683L105.272 311.931C104.719 310.929 104.346 309.859 104.154 308.765C103.894 307.288 103.963 305.768 104.359 304.316C104.588 303.474 104.928 302.654 105.378 301.878Z" fill="url(#paint2_linear_4452_42706)"/>
<path d="M1.37781 218.878L21.5224 184.13C23.3626 180.956 26.7664 179 30.4503 179H73.264C73.2681 179 73.2721 179 73.2761 179C76.0178 179.003 78.6044 180.09 80.5055 181.957C81.1401 182.58 81.6983 183.29 82.1604 184.076L102.591 218.825C104.431 221.955 104.472 225.818 102.698 228.986L82.1228 265.737C81.5817 266.703 80.8965 267.561 80.1025 268.288C78.8948 269.395 77.4353 270.201 75.8474 270.634C74.9701 270.874 74.0537 271 73.1189 271H30.5949C29.6097 271 28.6451 270.86 27.7253 270.595C26.0113 270.101 24.453 269.17 23.2076 267.897C22.5697 267.245 22.0139 266.503 21.5613 265.683L1.27214 228.931C0.718966 227.929 0.346437 226.859 0.154085 225.765C-0.105536 224.288 -0.0369232 222.768 0.358764 221.316C0.588381 220.474 0.928139 219.654 1.37781 218.878Z" fill="url(#paint3_linear_4452_42706)"/>
<path d="M219.378 239.878L239.522 205.13C241.363 201.956 244.766 200 248.45 200H291.264C291.268 200 291.272 200 291.276 200C294.018 200.003 296.604 201.09 298.505 202.957C299.14 203.58 299.698 204.29 300.16 205.076L320.591 239.825C322.431 242.955 322.472 246.818 320.698 249.986L300.123 286.737C299.582 287.703 298.897 288.561 298.103 289.288C296.895 290.395 295.435 291.201 293.847 291.634C292.97 291.874 292.054 292 291.119 292H248.595C247.61 292 246.645 291.86 245.725 291.595C244.011 291.101 242.453 290.17 241.208 288.897C240.57 288.245 240.014 287.503 239.561 286.683L219.272 249.931C218.719 248.929 218.346 247.859 218.154 246.765C217.894 245.288 217.963 243.768 218.359 242.316C218.588 241.474 218.928 240.654 219.378 239.878Z" fill="url(#paint4_linear_4452_42706)"/>
<path d="M441.378 106.878L461.522 72.13C463.363 68.9558 466.766 67 470.45 67H513.264C513.268 67 513.272 67 513.276 67C516.018 67.0032 518.604 68.0896 520.505 69.9566C521.14 70.5798 521.698 71.29 522.16 72.0759L542.591 106.825C544.431 109.955 544.472 113.818 542.698 116.986L522.123 153.737C521.582 154.703 520.897 155.561 520.103 156.288C518.895 157.395 517.435 158.201 515.847 158.635C514.97 158.874 514.054 159 513.119 159H470.595C469.61 159 468.645 158.86 467.725 158.595C466.011 158.101 464.453 157.17 463.208 155.897C462.57 155.245 462.014 154.503 461.561 153.683L441.272 116.931C440.719 115.929 440.346 114.859 440.154 113.765C439.894 112.288 439.963 110.768 440.359 109.316C440.588 108.474 440.928 107.654 441.378 106.878Z" fill="url(#paint5_linear_4452_42706)"/>
<path d="M329.378 172.878L349.522 138.13C351.363 134.956 354.766 133 358.45 133H401.264C401.268 133 401.272 133 401.276 133C404.018 133.003 406.604 134.09 408.505 135.957C409.14 136.58 409.698 137.29 410.16 138.076L430.591 172.825C432.431 175.955 432.472 179.818 430.698 182.986L410.123 219.737C409.582 220.703 408.897 221.561 408.103 222.288C406.895 223.395 405.435 224.201 403.847 224.635C402.97 224.874 402.054 225 401.119 225H358.595C357.61 225 356.645 224.86 355.725 224.595C354.011 224.101 352.453 223.17 351.208 221.897C350.57 221.245 350.014 220.503 349.561 219.683L329.272 182.931C328.719 181.929 328.346 180.859 328.154 179.765C327.894 178.288 327.963 176.768 328.359 175.316C328.588 174.474 328.928 173.654 329.378 172.878Z" fill="url(#paint6_linear_4452_42706)"/>
<path d="M551.378 39.8779L571.522 5.12998C573.363 1.95581 576.766 0 580.45 0H623.264C623.268 0 623.272 2.33222e-06 623.276 6.9957e-06C626.018 0.00318594 628.604 1.08963 630.505 2.95658C631.14 3.57981 631.698 4.29002 632.16 5.07594L652.591 39.8252C654.431 42.9548 654.472 46.8184 652.698 49.9859L632.123 86.7366C631.582 87.7032 630.897 88.5605 630.103 89.288C628.895 90.3946 627.435 91.2008 625.847 91.6345C624.97 91.8741 624.054 92 623.119 92H580.595C579.61 92 578.645 91.8602 577.725 91.5949C576.011 91.1005 574.453 90.1705 573.208 88.8973C572.57 88.2452 572.014 87.503 571.561 86.6833L551.272 49.9312C550.719 48.9292 550.346 47.8587 550.154 46.7646C549.894 45.2879 549.963 43.7683 550.359 42.3162C550.588 41.4735 550.928 40.6536 551.378 39.8779Z" fill="url(#paint7_linear_4452_42706)"/>
<path d="M329.378 39.8779L349.522 5.12998C351.363 1.95581 354.766 0 358.45 0H401.264C401.268 0 401.272 2.33222e-06 401.276 6.9957e-06C404.018 0.00318594 406.604 1.08963 408.505 2.95658C409.14 3.57981 409.698 4.29002 410.16 5.07594L430.591 39.8252C432.431 42.9548 432.472 46.8184 430.698 49.9859L410.123 86.7366C409.582 87.7032 408.897 88.5605 408.103 89.288C406.895 90.3946 405.435 91.2008 403.847 91.6345C402.97 91.8741 402.054 92 401.119 92H358.595C357.61 92 356.645 91.8602 355.725 91.5949C354.011 91.1005 352.453 90.1705 351.208 88.8973C350.57 88.2452 350.014 87.503 349.561 86.6833L329.272 49.9312C328.719 48.9292 328.346 47.8587 328.154 46.7646C327.894 45.2879 327.963 43.7683 328.359 42.3162C328.588 41.4735 328.928 40.6536 329.378 39.8779Z" fill="url(#paint8_linear_4452_42706)"/>
<path d="M215.378 374.878L235.522 340.13C237.363 336.956 240.766 335 244.45 335H287.264C287.268 335 287.272 335 287.276 335C290.018 335.003 292.604 336.09 294.505 337.957C295.14 338.58 295.698 339.29 296.16 340.076L316.591 374.825C318.431 377.955 318.472 381.818 316.698 384.986L296.123 421.737C295.582 422.703 294.897 423.561 294.103 424.288C292.895 425.395 291.435 426.201 289.847 426.634C288.97 426.874 288.054 427 287.119 427H244.595C243.61 427 242.645 426.86 241.725 426.595C240.011 426.101 238.453 425.17 237.208 423.897C236.57 423.245 236.014 422.503 235.561 421.683L215.272 384.931C214.719 383.929 214.346 382.859 214.154 381.765C213.894 380.288 213.963 378.768 214.359 377.316C214.588 376.474 214.928 375.654 215.378 374.878Z" fill="url(#paint9_linear_4452_42706)"/>
<path d="M446.378 374.878L466.522 340.13C468.363 336.956 471.766 335 475.45 335H518.264C518.268 335 518.272 335 518.276 335C521.018 335.003 523.604 336.09 525.505 337.957C526.14 338.58 526.698 339.29 527.16 340.076L547.591 374.825C549.431 377.955 549.472 381.818 547.698 384.986L527.123 421.737C526.582 422.703 525.897 423.561 525.103 424.288C523.895 425.395 522.435 426.201 520.847 426.634C519.97 426.874 519.054 427 518.119 427H475.595C474.61 427 473.645 426.86 472.725 426.595C471.011 426.101 469.453 425.17 468.208 423.897C467.57 423.245 467.014 422.503 466.561 421.683L446.272 384.931C445.719 383.929 445.346 382.859 445.154 381.765C444.894 380.288 444.963 378.768 445.359 377.316C445.588 376.474 445.928 375.654 446.378 374.878Z" fill="url(#paint10_linear_4452_42706)"/>
<path d="M443.378 230.878L463.522 196.13C465.363 192.956 468.766 191 472.45 191H515.264C515.268 191 515.272 191 515.276 191C518.018 191.003 520.604 192.09 522.505 193.957C523.14 194.58 523.698 195.29 524.16 196.076L544.591 230.825C546.431 233.955 546.472 237.818 544.698 240.986L524.123 277.737C523.582 278.703 522.897 279.561 522.103 280.288C520.895 281.395 519.435 282.201 517.847 282.634C516.97 282.874 516.054 283 515.119 283H472.595C471.61 283 470.645 282.86 469.725 282.595C468.011 282.101 466.453 281.17 465.208 279.897C464.57 279.245 464.014 278.503 463.561 277.683L443.272 240.931C442.719 239.929 442.346 238.859 442.154 237.765C441.894 236.288 441.963 234.768 442.359 233.316C442.588 232.474 442.928 231.654 443.378 230.878Z" fill="url(#paint11_linear_4452_42706)"/>
<path d="M329.378 306.878L349.522 272.13C351.363 268.956 354.766 267 358.45 267H401.264C401.268 267 401.272 267 401.276 267C404.018 267.003 406.604 268.09 408.505 269.957C409.14 270.58 409.698 271.29 410.16 272.076L430.591 306.825C432.431 309.955 432.472 313.818 430.698 316.986L410.123 353.737C409.582 354.703 408.897 355.561 408.103 356.288C406.895 357.395 405.435 358.201 403.847 358.634C402.97 358.874 402.054 359 401.119 359H358.595C357.61 359 356.645 358.86 355.725 358.595C354.011 358.101 352.453 357.17 351.208 355.897C350.57 355.245 350.014 354.503 349.561 353.683L329.272 316.931C328.719 315.929 328.346 314.859 328.154 313.765C327.894 312.288 327.963 310.768 328.359 309.316C328.588 308.474 328.928 307.654 329.378 306.878Z" fill="url(#paint12_linear_4452_42706)"/>
<path d="M557.378 306.878L577.522 272.13C579.363 268.956 582.766 267 586.45 267H629.264C629.268 267 629.272 267 629.276 267C632.018 267.003 634.604 268.09 636.505 269.957C637.14 270.58 637.698 271.29 638.16 272.076L658.591 306.825C660.431 309.955 660.472 313.818 658.698 316.986L638.123 353.737C637.582 354.703 636.897 355.561 636.103 356.288C634.895 357.395 633.435 358.201 631.847 358.634C630.97 358.874 630.054 359 629.119 359H586.595C585.61 359 584.645 358.86 583.725 358.595C582.011 358.101 580.453 357.17 579.208 355.897C578.57 355.245 578.014 354.503 577.561 353.683L557.272 316.931C556.719 315.929 556.346 314.859 556.154 313.765C555.894 312.288 555.963 310.768 556.359 309.316C556.588 308.474 556.928 307.654 557.378 306.878Z" fill="url(#paint13_linear_4452_42706)"/>
<path d="M557.378 162.878L577.522 128.13C579.363 124.956 582.766 123 586.45 123H629.264C629.268 123 629.272 123 629.276 123C632.018 123.003 634.604 124.09 636.505 125.957C637.14 126.58 637.698 127.29 638.16 128.076L658.591 162.825C660.431 165.955 660.472 169.818 658.698 172.986L638.123 209.737C637.582 210.703 636.897 211.561 636.103 212.288C634.895 213.395 633.435 214.201 631.847 214.635C630.97 214.874 630.054 215 629.119 215H586.595C585.61 215 584.645 214.86 583.725 214.595C582.011 214.101 580.453 213.17 579.208 211.897C578.57 211.245 578.014 210.503 577.561 209.683L557.272 172.931C556.719 171.929 556.346 170.859 556.154 169.765C555.894 168.288 555.963 166.768 556.359 165.316C556.588 164.474 556.928 163.654 557.378 162.878Z" fill="url(#paint14_linear_4452_42706)"/>
</mask>
<g mask="url(#mask0_4452_42706)">
<g filter="url(#filter0_f_4452_42706)">
<path d="M115.378 172.878L135.522 138.13C137.363 134.956 140.766 133 144.45 133H187.264C187.268 133 187.272 133 187.276 133C190.018 133.003 192.604 134.09 194.505 135.957C195.14 136.58 195.698 137.29 196.16 138.076L216.591 172.825C218.431 175.955 218.472 179.818 216.698 182.986L196.123 219.737C195.582 220.703 194.897 221.561 194.103 222.288C192.895 223.395 191.435 224.201 189.847 224.635C188.97 224.874 188.054 225 187.119 225H144.595C143.61 225 142.645 224.86 141.725 224.595C140.011 224.101 138.453 223.17 137.208 221.897C136.57 221.245 136.014 220.503 135.561 219.683L115.272 182.931C114.719 181.929 114.346 180.859 114.154 179.765C113.894 178.288 113.963 176.768 114.359 175.316C114.588 174.474 114.928 173.654 115.378 172.878Z" fill="url(#paint15_linear_4452_42706)"/>
<path d="M219.378 104.878L239.522 70.13C241.363 66.9558 244.766 65 248.45 65H291.264C291.268 65 291.272 65 291.276 65C294.018 65.0032 296.604 66.0896 298.505 67.9566C299.14 68.5798 299.698 69.29 300.16 70.0759L320.591 104.825C322.431 107.955 322.472 111.818 320.698 114.986L300.123 151.737C299.582 152.703 298.897 153.561 298.103 154.288C296.895 155.395 295.435 156.201 293.847 156.635C292.97 156.874 292.054 157 291.119 157H248.595C247.61 157 246.645 156.86 245.725 156.595C244.011 156.101 242.453 155.17 241.208 153.897C240.57 153.245 240.014 152.503 239.561 151.683L219.272 114.931C218.719 113.929 218.346 112.859 218.154 111.765C217.894 110.288 217.963 108.768 218.359 107.316C218.588 106.474 218.928 105.654 219.378 104.878Z" fill="url(#paint16_linear_4452_42706)"/>
<path d="M105.378 301.878L125.522 267.13C127.363 263.956 130.766 262 134.45 262H177.264C177.268 262 177.272 262 177.276 262C180.018 262.003 182.604 263.09 184.505 264.957C185.14 265.58 185.698 266.29 186.16 267.076L206.591 301.825C208.431 304.955 208.472 308.818 206.698 311.986L186.123 348.737C185.582 349.703 184.897 350.561 184.103 351.288C182.895 352.395 181.435 353.201 179.847 353.634C178.97 353.874 178.054 354 177.119 354H134.595C133.61 354 132.645 353.86 131.725 353.595C130.011 353.101 128.453 352.17 127.208 350.897C126.57 350.245 126.014 349.503 125.561 348.683L105.272 311.931C104.719 310.929 104.346 309.859 104.154 308.765C103.894 307.288 103.963 305.768 104.359 304.316C104.588 303.474 104.928 302.654 105.378 301.878Z" fill="url(#paint17_linear_4452_42706)"/>
<path d="M1.37781 218.878L21.5224 184.13C23.3626 180.956 26.7664 179 30.4503 179H73.264C73.2681 179 73.2721 179 73.2761 179C76.0178 179.003 78.6044 180.09 80.5055 181.957C81.1401 182.58 81.6983 183.29 82.1604 184.076L102.591 218.825C104.431 221.955 104.472 225.818 102.698 228.986L82.1228 265.737C81.5817 266.703 80.8965 267.561 80.1025 268.288C78.8948 269.395 77.4353 270.201 75.8474 270.634C74.9701 270.874 74.0537 271 73.1189 271H30.5949C29.6097 271 28.6451 270.86 27.7253 270.595C26.0113 270.101 24.453 269.17 23.2076 267.897C22.5697 267.245 22.0139 266.503 21.5613 265.683L1.27214 228.931C0.718966 227.929 0.346437 226.859 0.154085 225.765C-0.105536 224.288 -0.0369232 222.768 0.358764 221.316C0.588381 220.474 0.928139 219.654 1.37781 218.878Z" fill="url(#paint18_linear_4452_42706)"/>
<path d="M219.378 239.878L239.522 205.13C241.363 201.956 244.766 200 248.45 200H291.264C291.268 200 291.272 200 291.276 200C294.018 200.003 296.604 201.09 298.505 202.957C299.14 203.58 299.698 204.29 300.16 205.076L320.591 239.825C322.431 242.955 322.472 246.818 320.698 249.986L300.123 286.737C299.582 287.703 298.897 288.561 298.103 289.288C296.895 290.395 295.435 291.201 293.847 291.634C292.97 291.874 292.054 292 291.119 292H248.595C247.61 292 246.645 291.86 245.725 291.595C244.011 291.101 242.453 290.17 241.208 288.897C240.57 288.245 240.014 287.503 239.561 286.683L219.272 249.931C218.719 248.929 218.346 247.859 218.154 246.765C217.894 245.288 217.963 243.768 218.359 242.316C218.588 241.474 218.928 240.654 219.378 239.878Z" fill="url(#paint19_linear_4452_42706)"/>
<path d="M441.378 106.878L461.522 72.13C463.363 68.9558 466.766 67 470.45 67H513.264C513.268 67 513.272 67 513.276 67C516.018 67.0032 518.604 68.0896 520.505 69.9566C521.14 70.5798 521.698 71.29 522.16 72.0759L542.591 106.825C544.431 109.955 544.472 113.818 542.698 116.986L522.123 153.737C521.582 154.703 520.897 155.561 520.103 156.288C518.895 157.395 517.435 158.201 515.847 158.635C514.97 158.874 514.054 159 513.119 159H470.595C469.61 159 468.645 158.86 467.725 158.595C466.011 158.101 464.453 157.17 463.208 155.897C462.57 155.245 462.014 154.503 461.561 153.683L441.272 116.931C440.719 115.929 440.346 114.859 440.154 113.765C439.894 112.288 439.963 110.768 440.359 109.316C440.588 108.474 440.928 107.654 441.378 106.878Z" fill="url(#paint20_linear_4452_42706)"/>
<path d="M329.378 172.878L349.522 138.13C351.363 134.956 354.766 133 358.45 133H401.264C401.268 133 401.272 133 401.276 133C404.018 133.003 406.604 134.09 408.505 135.957C409.14 136.58 409.698 137.29 410.16 138.076L430.591 172.825C432.431 175.955 432.472 179.818 430.698 182.986L410.123 219.737C409.582 220.703 408.897 221.561 408.103 222.288C406.895 223.395 405.435 224.201 403.847 224.635C402.97 224.874 402.054 225 401.119 225H358.595C357.61 225 356.645 224.86 355.725 224.595C354.011 224.101 352.453 223.17 351.208 221.897C350.57 221.245 350.014 220.503 349.561 219.683L329.272 182.931C328.719 181.929 328.346 180.859 328.154 179.765C327.894 178.288 327.963 176.768 328.359 175.316C328.588 174.474 328.928 173.654 329.378 172.878Z" fill="url(#paint21_linear_4452_42706)"/>
<path d="M551.378 39.8779L571.522 5.12998C573.363 1.95581 576.766 0 580.45 0H623.264C623.268 0 623.272 2.33222e-06 623.276 6.9957e-06C626.018 0.00318594 628.604 1.08963 630.505 2.95658C631.14 3.57981 631.698 4.29002 632.16 5.07594L652.591 39.8252C654.431 42.9548 654.472 46.8184 652.698 49.9859L632.123 86.7366C631.582 87.7032 630.897 88.5605 630.103 89.288C628.895 90.3946 627.435 91.2008 625.847 91.6345C624.97 91.8741 624.054 92 623.119 92H580.595C579.61 92 578.645 91.8602 577.725 91.5949C576.011 91.1005 574.453 90.1705 573.208 88.8973C572.57 88.2452 572.014 87.503 571.561 86.6833L551.272 49.9312C550.719 48.9292 550.346 47.8587 550.154 46.7646C549.894 45.2879 549.963 43.7683 550.359 42.3162C550.588 41.4735 550.928 40.6536 551.378 39.8779Z" fill="url(#paint22_linear_4452_42706)"/>
<path d="M329.378 39.8779L349.522 5.12998C351.363 1.95581 354.766 0 358.45 0H401.264C401.268 0 401.272 2.33222e-06 401.276 6.9957e-06C404.018 0.00318594 406.604 1.08963 408.505 2.95658C409.14 3.57981 409.698 4.29002 410.16 5.07594L430.591 39.8252C432.431 42.9548 432.472 46.8184 430.698 49.9859L410.123 86.7366C409.582 87.7032 408.897 88.5605 408.103 89.288C406.895 90.3946 405.435 91.2008 403.847 91.6345C402.97 91.8741 402.054 92 401.119 92H358.595C357.61 92 356.645 91.8602 355.725 91.5949C354.011 91.1005 352.453 90.1705 351.208 88.8973C350.57 88.2452 350.014 87.503 349.561 86.6833L329.272 49.9312C328.719 48.9292 328.346 47.8587 328.154 46.7646C327.894 45.2879 327.963 43.7683 328.359 42.3162C328.588 41.4735 328.928 40.6536 329.378 39.8779Z" fill="url(#paint23_linear_4452_42706)"/>
<path d="M215.378 374.878L235.522 340.13C237.363 336.956 240.766 335 244.45 335H287.264C287.268 335 287.272 335 287.276 335C290.018 335.003 292.604 336.09 294.505 337.957C295.14 338.58 295.698 339.29 296.16 340.076L316.591 374.825C318.431 377.955 318.472 381.818 316.698 384.986L296.123 421.737C295.582 422.703 294.897 423.561 294.103 424.288C292.895 425.395 291.435 426.201 289.847 426.634C288.97 426.874 288.054 427 287.119 427H244.595C243.61 427 242.645 426.86 241.725 426.595C240.011 426.101 238.453 425.17 237.208 423.897C236.57 423.245 236.014 422.503 235.561 421.683L215.272 384.931C214.719 383.929 214.346 382.859 214.154 381.765C213.894 380.288 213.963 378.768 214.359 377.316C214.588 376.474 214.928 375.654 215.378 374.878Z" fill="url(#paint24_linear_4452_42706)"/>
<path d="M446.378 374.878L466.522 340.13C468.363 336.956 471.766 335 475.45 335H518.264C518.268 335 518.272 335 518.276 335C521.018 335.003 523.604 336.09 525.505 337.957C526.14 338.58 526.698 339.29 527.16 340.076L547.591 374.825C549.431 377.955 549.472 381.818 547.698 384.986L527.123 421.737C526.582 422.703 525.897 423.561 525.103 424.288C523.895 425.395 522.435 426.201 520.847 426.634C519.97 426.874 519.054 427 518.119 427H475.595C474.61 427 473.645 426.86 472.725 426.595C471.011 426.101 469.453 425.17 468.208 423.897C467.57 423.245 467.014 422.503 466.561 421.683L446.272 384.931C445.719 383.929 445.346 382.859 445.154 381.765C444.894 380.288 444.963 378.768 445.359 377.316C445.588 376.474 445.928 375.654 446.378 374.878Z" fill="url(#paint25_linear_4452_42706)"/>
<path d="M443.378 230.878L463.522 196.13C465.363 192.956 468.766 191 472.45 191H515.264C515.268 191 515.272 191 515.276 191C518.018 191.003 520.604 192.09 522.505 193.957C523.14 194.58 523.698 195.29 524.16 196.076L544.591 230.825C546.431 233.955 546.472 237.818 544.698 240.986L524.123 277.737C523.582 278.703 522.897 279.561 522.103 280.288C520.895 281.395 519.435 282.201 517.847 282.634C516.97 282.874 516.054 283 515.119 283H472.595C471.61 283 470.645 282.86 469.725 282.595C468.011 282.101 466.453 281.17 465.208 279.897C464.57 279.245 464.014 278.503 463.561 277.683L443.272 240.931C442.719 239.929 442.346 238.859 442.154 237.765C441.894 236.288 441.963 234.768 442.359 233.316C442.588 232.474 442.928 231.654 443.378 230.878Z" fill="url(#paint26_linear_4452_42706)"/>
<path d="M329.378 306.878L349.522 272.13C351.363 268.956 354.766 267 358.45 267H401.264C401.268 267 401.272 267 401.276 267C404.018 267.003 406.604 268.09 408.505 269.957C409.14 270.58 409.698 271.29 410.16 272.076L430.591 306.825C432.431 309.955 432.472 313.818 430.698 316.986L410.123 353.737C409.582 354.703 408.897 355.561 408.103 356.288C406.895 357.395 405.435 358.201 403.847 358.634C402.97 358.874 402.054 359 401.119 359H358.595C357.61 359 356.645 358.86 355.725 358.595C354.011 358.101 352.453 357.17 351.208 355.897C350.57 355.245 350.014 354.503 349.561 353.683L329.272 316.931C328.719 315.929 328.346 314.859 328.154 313.765C327.894 312.288 327.963 310.768 328.359 309.316C328.588 308.474 328.928 307.654 329.378 306.878Z" fill="url(#paint27_linear_4452_42706)"/>
<path d="M557.378 306.878L577.522 272.13C579.363 268.956 582.766 267 586.45 267H629.264C629.268 267 629.272 267 629.276 267C632.018 267.003 634.604 268.09 636.505 269.957C637.14 270.58 637.698 271.29 638.16 272.076L658.591 306.825C660.431 309.955 660.472 313.818 658.698 316.986L638.123 353.737C637.582 354.703 636.897 355.561 636.103 356.288C634.895 357.395 633.435 358.201 631.847 358.634C630.97 358.874 630.054 359 629.119 359H586.595C585.61 359 584.645 358.86 583.725 358.595C582.011 358.101 580.453 357.17 579.208 355.897C578.57 355.245 578.014 354.503 577.561 353.683L557.272 316.931C556.719 315.929 556.346 314.859 556.154 313.765C555.894 312.288 555.963 310.768 556.359 309.316C556.588 308.474 556.928 307.654 557.378 306.878Z" fill="url(#paint28_linear_4452_42706)"/>
<path d="M557.378 162.878L577.522 128.13C579.363 124.956 582.766 123 586.45 123H629.264C629.268 123 629.272 123 629.276 123C632.018 123.003 634.604 124.09 636.505 125.957C637.14 126.58 637.698 127.29 638.16 128.076L658.591 162.825C660.431 165.955 660.472 169.818 658.698 172.986L638.123 209.737C637.582 210.703 636.897 211.561 636.103 212.288C634.895 213.395 633.435 214.201 631.847 214.635C630.97 214.874 630.054 215 629.119 215H586.595C585.61 215 584.645 214.86 583.725 214.595C582.011 214.101 580.453 213.17 579.208 211.897C578.57 211.245 578.014 210.503 577.561 209.683L557.272 172.931C556.719 171.929 556.346 170.859 556.154 169.765C555.894 168.288 555.963 166.768 556.359 165.316C556.588 164.474 556.928 163.654 557.378 162.878Z" fill="url(#paint29_linear_4452_42706)"/>
</g>
</g>
</g>
<defs>
<filter id="filter0_f_4452_42706" x="-137" y="-137" width="934" height="701" filterUnits="userSpaceOnUse" color-interpolation-filters="sRGB">
<feFlood flood-opacity="0" result="BackgroundImageFix"/>
<feBlend mode="normal" in="SourceGraphic" in2="BackgroundImageFix" result="shape"/>
<feGaussianBlur stdDeviation="68.5" result="effect1_foregroundBlur_4452_42706"/>
</filter>
<linearGradient id="paint0_linear_4452_42706" x1="-2.93104e-06" y1="213.249" x2="553.184" y2="-29.8331" gradientUnits="userSpaceOnUse">
<stop stop-color="#00DC82"/>
<stop offset="0.5" stop-color="#36E4DA"/>
<stop offset="1" stop-color="#0047E1"/>
</linearGradient>
<linearGradient id="paint1_linear_4452_42706" x1="-2.93104e-06" y1="213.249" x2="553.184" y2="-29.8331" gradientUnits="userSpaceOnUse">
<stop stop-color="#00DC82"/>
<stop offset="0.5" stop-color="#36E4DA"/>
<stop offset="1" stop-color="#0047E1"/>
</linearGradient>
<linearGradient id="paint2_linear_4452_42706" x1="-2.93104e-06" y1="213.249" x2="553.184" y2="-29.8331" gradientUnits="userSpaceOnUse">
<stop stop-color="#00DC82"/>
<stop offset="0.5" stop-color="#36E4DA"/>
<stop offset="1" stop-color="#0047E1"/>
</linearGradient>
<linearGradient id="paint3_linear_4452_42706" x1="-2.93104e-06" y1="213.249" x2="553.184" y2="-29.8331" gradientUnits="userSpaceOnUse">
<stop stop-color="#00DC82"/>
<stop offset="0.5" stop-color="#36E4DA"/>
<stop offset="1" stop-color="#0047E1"/>
</linearGradient>
<linearGradient id="paint4_linear_4452_42706" x1="-2.93104e-06" y1="213.249" x2="553.184" y2="-29.8331" gradientUnits="userSpaceOnUse">
<stop stop-color="#00DC82"/>
<stop offset="0.5" stop-color="#36E4DA"/>
<stop offset="1" stop-color="#0047E1"/>
</linearGradient>
<linearGradient id="paint5_linear_4452_42706" x1="-2.93104e-06" y1="213.249" x2="553.184" y2="-29.8331" gradientUnits="userSpaceOnUse">
<stop stop-color="#00DC82"/>
<stop offset="0.5" stop-color="#36E4DA"/>
<stop offset="1" stop-color="#0047E1"/>
</linearGradient>
<linearGradient id="paint6_linear_4452_42706" x1="-2.93104e-06" y1="213.249" x2="553.184" y2="-29.8331" gradientUnits="userSpaceOnUse">
<stop stop-color="#00DC82"/>
<stop offset="0.5" stop-color="#36E4DA"/>
<stop offset="1" stop-color="#0047E1"/>
</linearGradient>
<linearGradient id="paint7_linear_4452_42706" x1="-2.93104e-06" y1="213.249" x2="553.184" y2="-29.8331" gradientUnits="userSpaceOnUse">
<stop stop-color="#00DC82"/>
<stop offset="0.5" stop-color="#36E4DA"/>
<stop offset="1" stop-color="#0047E1"/>
</linearGradient>
<linearGradient id="paint8_linear_4452_42706" x1="-2.93104e-06" y1="213.249" x2="553.184" y2="-29.8331" gradientUnits="userSpaceOnUse">
<stop stop-color="#00DC82"/>
<stop offset="0.5" stop-color="#36E4DA"/>
<stop offset="1" stop-color="#0047E1"/>
</linearGradient>
<linearGradient id="paint9_linear_4452_42706" x1="-2.93104e-06" y1="213.249" x2="553.184" y2="-29.8331" gradientUnits="userSpaceOnUse">
<stop stop-color="#00DC82"/>
<stop offset="0.5" stop-color="#36E4DA"/>
<stop offset="1" stop-color="#0047E1"/>
</linearGradient>
<linearGradient id="paint10_linear_4452_42706" x1="-2.93104e-06" y1="213.249" x2="553.184" y2="-29.8331" gradientUnits="userSpaceOnUse">
<stop stop-color="#00DC82"/>
<stop offset="0.5" stop-color="#36E4DA"/>
<stop offset="1" stop-color="#0047E1"/>
</linearGradient>
<linearGradient id="paint11_linear_4452_42706" x1="-2.93104e-06" y1="213.249" x2="553.184" y2="-29.8331" gradientUnits="userSpaceOnUse">
<stop stop-color="#00DC82"/>
<stop offset="0.5" stop-color="#36E4DA"/>
<stop offset="1" stop-color="#0047E1"/>
</linearGradient>
<linearGradient id="paint12_linear_4452_42706" x1="-2.93104e-06" y1="213.249" x2="553.184" y2="-29.8331" gradientUnits="userSpaceOnUse">
<stop stop-color="#00DC82"/>
<stop offset="0.5" stop-color="#36E4DA"/>
<stop offset="1" stop-color="#0047E1"/>
</linearGradient>
<linearGradient id="paint13_linear_4452_42706" x1="-2.93104e-06" y1="213.249" x2="553.184" y2="-29.8331" gradientUnits="userSpaceOnUse">
<stop stop-color="#00DC82"/>
<stop offset="0.5" stop-color="#36E4DA"/>
<stop offset="1" stop-color="#0047E1"/>
</linearGradient>
<linearGradient id="paint14_linear_4452_42706" x1="-2.93104e-06" y1="213.249" x2="553.184" y2="-29.8331" gradientUnits="userSpaceOnUse">
<stop stop-color="#00DC82"/>
<stop offset="0.5" stop-color="#36E4DA"/>
<stop offset="1" stop-color="#0047E1"/>
</linearGradient>
<linearGradient id="paint15_linear_4452_42706" x1="-2.93104e-06" y1="213.249" x2="553.184" y2="-29.8331" gradientUnits="userSpaceOnUse">
<stop stop-color="#00DC82"/>
<stop offset="0.5" stop-color="#36E4DA"/>
<stop offset="1" stop-color="#0047E1"/>
</linearGradient>
<linearGradient id="paint16_linear_4452_42706" x1="-2.93104e-06" y1="213.249" x2="553.184" y2="-29.8331" gradientUnits="userSpaceOnUse">
<stop stop-color="#00DC82"/>
<stop offset="0.5" stop-color="#36E4DA"/>
<stop offset="1" stop-color="#0047E1"/>
</linearGradient>
<linearGradient id="paint17_linear_4452_42706" x1="-2.93104e-06" y1="213.249" x2="553.184" y2="-29.8331" gradientUnits="userSpaceOnUse">
<stop stop-color="#00DC82"/>
<stop offset="0.5" stop-color="#36E4DA"/>
<stop offset="1" stop-color="#0047E1"/>
</linearGradient>
<linearGradient id="paint18_linear_4452_42706" x1="-2.93104e-06" y1="213.249" x2="553.184" y2="-29.8331" gradientUnits="userSpaceOnUse">
<stop stop-color="#00DC82"/>
<stop offset="0.5" stop-color="#36E4DA"/>
<stop offset="1" stop-color="#0047E1"/>
</linearGradient>
<linearGradient id="paint19_linear_4452_42706" x1="-2.93104e-06" y1="213.249" x2="553.184" y2="-29.8331" gradientUnits="userSpaceOnUse">
<stop stop-color="#00DC82"/>
<stop offset="0.5" stop-color="#36E4DA"/>
<stop offset="1" stop-color="#0047E1"/>
</linearGradient>
<linearGradient id="paint20_linear_4452_42706" x1="-2.93104e-06" y1="213.249" x2="553.184" y2="-29.8331" gradientUnits="userSpaceOnUse">
<stop stop-color="#00DC82"/>
<stop offset="0.5" stop-color="#36E4DA"/>
<stop offset="1" stop-color="#0047E1"/>
</linearGradient>
<linearGradient id="paint21_linear_4452_42706" x1="-2.93104e-06" y1="213.249" x2="553.184" y2="-29.8331" gradientUnits="userSpaceOnUse">
<stop stop-color="#00DC82"/>
<stop offset="0.5" stop-color="#36E4DA"/>
<stop offset="1" stop-color="#0047E1"/>
</linearGradient>
<linearGradient id="paint22_linear_4452_42706" x1="-2.93104e-06" y1="213.249" x2="553.184" y2="-29.8331" gradientUnits="userSpaceOnUse">
<stop stop-color="#00DC82"/>
<stop offset="0.5" stop-color="#36E4DA"/>
<stop offset="1" stop-color="#0047E1"/>
</linearGradient>
<linearGradient id="paint23_linear_4452_42706" x1="-2.93104e-06" y1="213.249" x2="553.184" y2="-29.8331" gradientUnits="userSpaceOnUse">
<stop stop-color="#00DC82"/>
<stop offset="0.5" stop-color="#36E4DA"/>
<stop offset="1" stop-color="#0047E1"/>
</linearGradient>
<linearGradient id="paint24_linear_4452_42706" x1="-2.93104e-06" y1="213.249" x2="553.184" y2="-29.8331" gradientUnits="userSpaceOnUse">
<stop stop-color="#00DC82"/>
<stop offset="0.5" stop-color="#36E4DA"/>
<stop offset="1" stop-color="#0047E1"/>
</linearGradient>
<linearGradient id="paint25_linear_4452_42706" x1="-2.93104e-06" y1="213.249" x2="553.184" y2="-29.8331" gradientUnits="userSpaceOnUse">
<stop stop-color="#00DC82"/>
<stop offset="0.5" stop-color="#36E4DA"/>
<stop offset="1" stop-color="#0047E1"/>
</linearGradient>
<linearGradient id="paint26_linear_4452_42706" x1="-2.93104e-06" y1="213.249" x2="553.184" y2="-29.8331" gradientUnits="userSpaceOnUse">
<stop stop-color="#00DC82"/>
<stop offset="0.5" stop-color="#36E4DA"/>
<stop offset="1" stop-color="#0047E1"/>
</linearGradient>
<linearGradient id="paint27_linear_4452_42706" x1="-2.93104e-06" y1="213.249" x2="553.184" y2="-29.8331" gradientUnits="userSpaceOnUse">
<stop stop-color="#00DC82"/>
<stop offset="0.5" stop-color="#36E4DA"/>
<stop offset="1" stop-color="#0047E1"/>
</linearGradient>
<linearGradient id="paint28_linear_4452_42706" x1="-2.93104e-06" y1="213.249" x2="553.184" y2="-29.8331" gradientUnits="userSpaceOnUse">
<stop stop-color="#00DC82"/>
<stop offset="0.5" stop-color="#36E4DA"/>
<stop offset="1" stop-color="#0047E1"/>
</linearGradient>
<linearGradient id="paint29_linear_4452_42706" x1="-2.93104e-06" y1="213.249" x2="553.184" y2="-29.8331" gradientUnits="userSpaceOnUse">
<stop stop-color="#00DC82"/>
<stop offset="0.5" stop-color="#36E4DA"/>
<stop offset="1" stop-color="#0047E1"/>
</linearGradient>
</defs>
</svg>
