<svg width="539" height="249" viewBox="0 0 539 249" fill="none" xmlns="http://www.w3.org/2000/svg">
<path d="M5.19799 23.764L5.19801 23.7641L5.20269 23.7612L40.3452 2.30819C40.346 2.30773 40.3468 2.30727 40.3476 2.30681C43.3688 0.5163 47.1334 0.454275 50.2213 2.14534L50.2239 2.14672L88.2525 22.6372C88.253 22.6375 88.2535 22.6378 88.254 22.638C91.3216 24.3186 93.2559 27.4746 93.341 30.927C93.341 30.928 93.341 30.9291 93.341 30.9301L93.7132 70.8231L93.7134 70.8295C93.797 74.2681 92.0337 77.4932 89.0719 79.3097L53.216 101.301C50.1772 103.165 46.3491 103.257 43.2141 101.54L6.03365 81.1786C2.88084 79.452 0.931475 76.1718 0.942388 72.623L0.942303 72.6163L0.427926 32.0575C0.427929 32.0564 0.427933 32.0552 0.427937 32.0541C0.439503 28.6578 2.24611 25.5145 5.19799 23.764Z" fill="#F4F4F5" stroke="#D4D4D8" stroke-width="0.855856"/>
<path d="M5.19799 169.259L5.19801 169.259L5.20269 169.256L40.3452 147.803C40.346 147.803 40.3468 147.802 40.3476 147.802C43.3688 146.011 47.1334 145.949 50.2213 147.64L50.2239 147.642L88.2525 168.132C88.253 168.133 88.2535 168.133 88.254 168.133C91.3216 169.814 93.2559 172.97 93.341 176.422C93.341 176.423 93.341 176.424 93.341 176.425L93.7132 216.318L93.7134 216.325C93.797 219.763 92.0337 222.988 89.0719 224.805L53.216 246.796C50.1772 248.66 46.3491 248.752 43.2141 247.035L6.03365 226.674C2.88084 224.947 0.931475 221.667 0.942388 218.118L0.942303 218.111L0.427926 177.553C0.427929 177.551 0.427933 177.55 0.427937 177.549C0.439503 174.153 2.24611 171.01 5.19799 169.259Z" fill="#F4F4F5" stroke="#D4D4D8" stroke-width="0.855856"/>
<path d="M148.126 23.764L148.126 23.7641L148.13 23.7612L183.273 2.30819C183.274 2.30773 183.275 2.30727 183.275 2.30681C186.297 0.5163 190.061 0.454275 193.149 2.14534L193.152 2.14672L231.18 22.6372C231.181 22.6375 231.181 22.6378 231.182 22.638C234.249 24.3186 236.184 27.4746 236.269 30.927C236.269 30.928 236.269 30.9291 236.269 30.9301L236.641 70.8231L236.641 70.8295C236.725 74.2681 234.961 77.4932 232 79.3097L196.144 101.301C193.105 103.165 189.277 103.257 186.142 101.54L148.961 81.1786C145.809 79.452 143.859 76.1718 143.87 72.623L143.87 72.6163L143.356 32.0575C143.356 32.0564 143.356 32.0552 143.356 32.0541C143.367 28.6578 145.174 25.5145 148.126 23.764Z" fill="#F4F4F5" stroke="#D4D4D8" stroke-width="0.855856"/>
<path d="M291.053 23.764L291.053 23.7641L291.058 23.7612L326.201 2.30819C326.201 2.30773 326.202 2.30727 326.203 2.30681C329.224 0.5163 332.989 0.454275 336.077 2.14534L336.079 2.14672L374.108 22.6372C374.108 22.6375 374.109 22.6378 374.109 22.638C377.177 24.3186 379.111 27.4746 379.196 30.927C379.196 30.928 379.196 30.9291 379.197 30.9301L379.569 70.8231L379.569 70.8295C379.652 74.2681 377.889 77.4932 374.927 79.3097L339.071 101.301C336.033 103.165 332.205 103.257 329.07 101.54L291.889 81.1786C288.736 79.452 286.787 76.1718 286.798 72.623L286.798 72.6163L286.283 32.0575C286.283 32.0564 286.283 32.0552 286.283 32.0541C286.295 28.6578 288.102 25.5145 291.053 23.764Z" fill="#F4F4F5" stroke="#D4D4D8" stroke-width="0.855856"/>
<path d="M148.126 169.259L148.126 169.259L148.13 169.256L183.273 147.803C183.274 147.803 183.275 147.802 183.275 147.802C186.297 146.011 190.061 145.949 193.149 147.64L193.152 147.642L231.18 168.132C231.181 168.133 231.181 168.133 231.182 168.133C234.249 169.814 236.184 172.97 236.269 176.422C236.269 176.423 236.269 176.424 236.269 176.425L236.641 216.318L236.641 216.325C236.725 219.763 234.961 222.988 232 224.805L196.144 246.796C193.105 248.66 189.277 248.752 186.142 247.035L148.961 226.674C145.809 224.947 143.859 221.667 143.87 218.118L143.87 218.111L143.356 177.553C143.356 177.551 143.356 177.55 143.356 177.549C143.367 174.153 145.174 171.01 148.126 169.259Z" fill="#F4F4F5" stroke="#D4D4D8" stroke-width="0.855856"/>
<path d="M291.053 169.259L291.053 169.259L291.058 169.256L326.201 147.803C326.201 147.803 326.202 147.802 326.203 147.802C329.224 146.011 332.989 145.949 336.077 147.64L336.079 147.642L374.108 168.132C374.108 168.133 374.109 168.133 374.109 168.133C377.177 169.814 379.111 172.97 379.196 176.422C379.196 176.423 379.196 176.424 379.197 176.425L379.569 216.318L379.569 216.325C379.652 219.763 377.889 222.988 374.927 224.805L339.071 246.796C336.033 248.66 332.205 248.752 329.07 247.035L291.889 226.674C288.736 224.947 286.787 221.667 286.798 218.118L286.798 218.111L286.283 177.553C286.283 177.551 286.283 177.55 286.283 177.549C286.295 174.153 288.102 171.01 291.053 169.259Z" fill="#F4F4F5" stroke="#D4D4D8" stroke-width="0.855856"/>
<circle cx="34.99" cy="51.4139" r="3.32305" fill="#D4D4D8"/>
<circle cx="47.4998" cy="51.4139" r="3.32305" fill="#D4D4D8"/>
<circle cx="60.0105" cy="51.4139" r="3.32305" fill="#D4D4D8"/>
<circle cx="177.919" cy="51.4139" r="3.32305" fill="#D4D4D8"/>
<circle cx="190.429" cy="51.4139" r="3.32305" fill="#D4D4D8"/>
<circle cx="202.939" cy="51.4139" r="3.32305" fill="#D4D4D8"/>
<circle cx="320.846" cy="51.4139" r="3.32305" fill="#D4D4D8"/>
<circle cx="333.356" cy="51.4139" r="3.32305" fill="#D4D4D8"/>
<circle cx="345.867" cy="51.4139" r="3.32305" fill="#D4D4D8"/>
<circle cx="34.99" cy="197.237" r="3.32305" fill="#D4D4D8"/>
<circle cx="47.4998" cy="197.237" r="3.32305" fill="#D4D4D8"/>
<circle cx="60.0105" cy="197.237" r="3.32305" fill="#D4D4D8"/>
<circle cx="177.919" cy="197.237" r="3.32305" fill="#D4D4D8"/>
<circle cx="190.429" cy="197.237" r="3.32305" fill="#D4D4D8"/>
<circle cx="202.939" cy="197.237" r="3.32305" fill="#D4D4D8"/>
<circle cx="320.846" cy="197.237" r="3.32305" fill="#D4D4D8"/>
<circle cx="333.356" cy="197.237" r="3.32305" fill="#D4D4D8"/>
<circle cx="345.867" cy="197.237" r="3.32305" fill="#D4D4D8"/>
<path fill-rule="evenodd" clip-rule="evenodd" d="M480.296 72.5071C484.667 69.8819 490.115 69.7628 494.586 72.2165C494.59 72.2189 494.595 72.2213 494.599 72.2237L531.428 92.1789L531.44 92.1855C535.887 94.6317 538.673 99.2437 538.776 104.287L538.777 104.319L538.998 143.368C539.003 143.654 538.999 143.939 538.987 144.223C538.79 148.905 536.282 153.217 532.247 155.722L497.37 177.381C492.969 180.113 487.425 180.273 482.884 177.775L446.869 157.964C446.734 157.89 446.6 157.813 446.466 157.734C442.451 155.365 438.971 150.878 439 145.492C439 145.486 439 145.481 439 145.476L439 105.798L439 105.784C439.033 100.835 441.652 96.25 445.913 93.6805L480.275 72.5194L480.296 72.5071ZM484.761 79.7901L450.403 100.948L450.383 100.961C448.667 101.991 447.608 103.837 447.591 105.828C447.591 105.832 447.591 105.836 447.591 105.84L447.591 145.518L447.591 145.532C447.579 147.207 448.855 149.309 451.034 150.507L487.049 170.319C488.836 171.302 491.058 171.243 492.813 170.154L527.69 148.495C527.716 148.479 527.741 148.463 527.766 148.447C529.448 147.367 530.449 145.498 530.408 143.507L530.408 143.475L530.187 104.434C530.136 102.437 529.022 100.608 527.285 99.6475C527.282 99.6457 527.279 99.6437 527.275 99.6419L490.447 79.6866L490.435 79.68C488.679 78.7144 486.503 78.7527 484.761 79.7901Z" fill="#18181B"/>
<path d="M481.666 134.167C481.304 134.167 480.949 134.275 480.648 134.476C480.346 134.677 480.111 134.964 479.973 135.299C479.834 135.634 479.797 136.002 479.868 136.358C479.939 136.714 480.114 137.04 480.37 137.297C480.626 137.553 480.953 137.728 481.309 137.798C481.664 137.869 482.033 137.833 482.368 137.694C482.703 137.555 482.989 137.32 483.191 137.019C483.392 136.717 483.5 136.363 483.5 136C483.5 135.514 483.307 135.048 482.963 134.704C482.619 134.36 482.153 134.167 481.666 134.167ZM481.666 123.167C481.304 123.167 480.949 123.275 480.648 123.476C480.346 123.677 480.111 123.964 479.973 124.299C479.834 124.634 479.797 125.002 479.868 125.358C479.939 125.714 480.114 126.04 480.37 126.297C480.626 126.553 480.953 126.728 481.309 126.798C481.664 126.869 482.033 126.833 482.368 126.694C482.703 126.555 482.989 126.32 483.191 126.019C483.392 125.717 483.5 125.363 483.5 125C483.5 124.514 483.307 124.048 482.963 123.704C482.619 123.36 482.153 123.167 481.666 123.167ZM496.333 106.667H481.666C479.721 106.667 477.856 107.44 476.481 108.815C475.106 110.19 474.333 112.055 474.333 114V136C474.333 137.945 475.106 139.811 476.481 141.186C477.856 142.561 479.721 143.334 481.666 143.334H496.333C498.278 143.334 500.143 142.561 501.518 141.186C502.894 139.811 503.666 137.945 503.666 136V114C503.666 112.055 502.894 110.19 501.518 108.815C500.143 107.44 498.278 106.667 496.333 106.667ZM500 136C500 136.973 499.613 137.905 498.926 138.593C498.238 139.281 497.305 139.667 496.333 139.667H481.666C480.694 139.667 479.761 139.281 479.074 138.593C478.386 137.905 478 136.973 478 136V131.307C479.107 131.974 480.374 132.328 481.666 132.334H496.333C497.625 132.328 498.892 131.974 500 131.307V136ZM500 125C500 125.973 499.613 126.905 498.926 127.593C498.238 128.281 497.305 128.667 496.333 128.667H481.666C480.694 128.667 479.761 128.281 479.074 127.593C478.386 126.905 478 125.973 478 125V120.307C479.107 120.974 480.374 121.328 481.666 121.334H496.333C497.625 121.328 498.892 120.974 500 120.307V125ZM496.333 117.667H481.666C480.694 117.667 479.761 117.281 479.074 116.593C478.386 115.905 478 114.973 478 114C478 113.028 478.386 112.095 479.074 111.408C479.761 110.72 480.694 110.334 481.666 110.334H496.333C497.305 110.334 498.238 110.72 498.926 111.408C499.613 112.095 500 113.028 500 114C500 114.973 499.613 115.905 498.926 116.593C498.238 117.281 497.305 117.667 496.333 117.667Z" fill="#18181B"/>
</svg>
