<svg width="100" height="110" viewBox="0 0 100 110" fill="none" xmlns="http://www.w3.org/2000/svg">
<path fill-rule="evenodd" clip-rule="evenodd" d="M41.2957 2.50609C45.6668 -0.119101 51.1145 -0.238162 55.586 2.21548C55.5905 2.2179 55.5949 2.22032 55.5993 2.22276L92.4279 22.178L92.4399 22.1846C96.8867 24.6307 99.6725 29.2427 99.776 34.2861L99.7767 34.3175L99.9977 73.3666C100.003 73.6529 99.9994 73.9381 99.9874 74.222C99.7898 78.9038 97.2817 83.2156 93.2472 85.721L58.3697 107.38C53.9694 110.112 48.4249 110.272 43.8838 107.774L7.86902 87.9628C7.73408 87.8885 7.59961 87.8119 7.46575 87.7329C3.45051 85.3637 -0.0287401 80.8767 0.000179002 75.4905C0.000206391 75.4854 0.000237808 75.4803 0.000271641 75.4752L0.000344947 35.7968L0.000437183 35.7828C0.0331485 30.8337 2.65198 26.2491 6.91291 23.6795L41.2752 2.51841L41.2957 2.50609ZM45.7611 9.78913L11.4035 30.9474L11.3829 30.9597C9.66712 31.9902 8.60819 33.8362 8.59082 35.8267C8.59079 35.8307 8.59076 35.8347 8.59073 35.8387L8.59066 75.5171L8.59056 75.5311C8.57949 77.2061 9.85512 79.308 12.0338 80.5065L48.0485 100.318C49.8361 101.301 52.058 101.242 53.8128 100.153L88.6903 78.494C88.7156 78.4783 88.7408 78.4625 88.7657 78.4464C90.4475 77.366 91.4492 75.4972 91.4083 73.5058L91.4077 73.4744L91.1867 34.4326C91.1361 32.4364 90.0224 30.6068 88.2855 29.6466C88.282 29.6447 88.2786 29.6428 88.2752 29.6409L51.4465 9.68567L51.4346 9.67907C49.6791 8.7134 47.5026 8.75169 45.7611 9.78913Z" fill="#18181B"/>
<path d="M42.6666 64.166C42.304 64.166 41.9495 64.2735 41.648 64.475C41.3465 64.6764 41.1116 64.9628 40.9728 65.2978C40.834 65.6328 40.7977 66.0014 40.8685 66.357C40.9392 66.7126 41.1138 67.0393 41.3702 67.2957C41.6266 67.5521 41.9533 67.7267 42.3089 67.7975C42.6646 67.8682 43.0332 67.8319 43.3682 67.6931C43.7032 67.5544 43.9895 67.3194 44.1909 67.0179C44.3924 66.7164 44.4999 66.3619 44.4999 65.9993C44.4999 65.5131 44.3068 65.0468 43.9629 64.703C43.6191 64.3592 43.1528 64.166 42.6666 64.166ZM42.6666 53.166C42.304 53.166 41.9495 53.2735 41.648 53.475C41.3465 53.6764 41.1116 53.9628 40.9728 54.2978C40.834 54.6328 40.7977 55.0014 40.8685 55.357C40.9392 55.7126 41.1138 56.0393 41.3702 56.2957C41.6266 56.5521 41.9533 56.7267 42.3089 56.7975C42.6646 56.8682 43.0332 56.8319 43.3682 56.6931C43.7032 56.5544 43.9895 56.3194 44.1909 56.0179C44.3924 55.7164 44.4999 55.3619 44.4999 54.9993C44.4999 54.5131 44.3068 54.0468 43.9629 53.703C43.6191 53.3592 43.1528 53.166 42.6666 53.166ZM57.3333 36.666H42.6666C40.7217 36.666 38.8564 37.4386 37.4811 38.8139C36.1059 40.1892 35.3333 42.0544 35.3333 43.9993V65.9993C35.3333 67.9443 36.1059 69.8095 37.4811 71.1848C38.8564 72.5601 40.7217 73.3327 42.6666 73.3327H57.3333C59.2782 73.3327 61.1434 72.5601 62.5187 71.1848C63.894 69.8095 64.6666 67.9443 64.6666 65.9993V43.9993C64.6666 42.0544 63.894 40.1892 62.5187 38.8139C61.1434 37.4386 59.2782 36.666 57.3333 36.666ZM60.9999 65.9993C60.9999 66.9718 60.6136 67.9044 59.926 68.5921C59.2383 69.2797 58.3057 69.666 57.3333 69.666H42.6666C41.6941 69.666 40.7615 69.2797 40.0739 68.5921C39.3862 67.9044 38.9999 66.9718 38.9999 65.9993V61.306C40.1072 61.9725 41.3742 62.3273 42.6666 62.3327H57.3333C58.6257 62.3273 59.8926 61.9725 60.9999 61.306V65.9993ZM60.9999 54.9993C60.9999 55.9718 60.6136 56.9044 59.926 57.5921C59.2383 58.2797 58.3057 58.666 57.3333 58.666H42.6666C41.6941 58.666 40.7615 58.2797 40.0739 57.5921C39.3862 56.9044 38.9999 55.9718 38.9999 54.9993V50.306C40.1072 50.9725 41.3742 51.3273 42.6666 51.3327H57.3333C58.6257 51.3273 59.8926 50.9725 60.9999 50.306V54.9993ZM57.3333 47.666H42.6666C41.6941 47.666 40.7615 47.2797 40.0739 46.5921C39.3862 45.9044 38.9999 44.9718 38.9999 43.9993C38.9999 43.0269 39.3862 42.0943 40.0739 41.4066C40.7615 40.719 41.6941 40.3327 42.6666 40.3327H57.3333C58.3057 40.3327 59.2383 40.719 59.926 41.4066C60.6136 42.0943 60.9999 43.0269 60.9999 43.9993C60.9999 44.9718 60.6136 45.9044 59.926 46.5921C59.2383 47.2797 58.3057 47.666 57.3333 47.666Z" fill="#18181B"/>
</svg>
