<svg width="566" height="292" viewBox="0 0 566 292" fill="none" xmlns="http://www.w3.org/2000/svg">
<rect x="429" y="149" width="37" height="1" rx="0.5" stroke="#00DC82" stroke-width="6.53846"/>
<path d="M31.9797 192.891L67.127 171.435C70.279 169.566 74.2059 169.501 77.4269 171.265L115.458 191.757C118.659 193.51 120.681 196.806 120.769 200.415L121.141 240.314C121.229 243.907 119.386 247.274 116.296 249.17L80.4397 271.161C77.2697 273.105 73.2777 273.201 70.0085 271.41L32.8281 251.049C29.5397 249.248 27.5031 245.825 27.5144 242.117L27 201.551C27.0109 198.001 28.8988 194.718 31.9797 192.891Z" fill="#18181B"/>
<path d="M84.6663 216.92C84.6525 216.798 84.6256 216.677 84.5863 216.56V216.44C84.5222 216.303 84.4367 216.177 84.333 216.067L76.333 208.067C76.2228 207.963 76.0968 207.878 75.9597 207.814H75.8397C75.7042 207.736 75.5546 207.686 75.3997 207.667H67.333C66.2721 207.667 65.2547 208.088 64.5046 208.839C63.7544 209.589 63.333 210.606 63.333 211.667V230.334C63.333 231.395 63.7544 232.412 64.5046 233.162C65.2547 233.912 66.2721 234.334 67.333 234.334H80.6663C81.7272 234.334 82.7446 233.912 83.4948 233.162C84.2449 232.412 84.6663 231.395 84.6663 230.334V217C84.6663 217 84.6663 217 84.6663 216.92ZM76.6663 212.214L80.1197 215.667H77.9997C77.6461 215.667 77.3069 215.527 77.0569 215.276C76.8068 215.026 76.6663 214.687 76.6663 214.334V212.214ZM81.9997 230.334C81.9997 230.687 81.8592 231.026 81.6091 231.276C81.3591 231.527 81.02 231.667 80.6663 231.667H67.333C66.9794 231.667 66.6402 231.527 66.3902 231.276C66.1402 231.026 65.9997 230.687 65.9997 230.334V211.667C65.9997 211.313 66.1402 210.974 66.3902 210.724C66.6402 210.474 66.9794 210.334 67.333 210.334H73.9997V214.334C73.9997 215.395 74.4211 216.412 75.1712 217.162C75.9214 217.912 76.9388 218.334 77.9997 218.334H81.9997V230.334Z" fill="white"/>
<path d="M31.9797 47.3959L67.127 25.9401C70.279 24.0709 74.2059 24.0061 77.4269 25.77L115.458 46.2619C118.659 48.0151 120.681 51.3108 120.769 54.9197L121.141 94.8191C121.229 98.4118 119.386 101.779 116.296 103.674L80.4398 125.666C77.2697 127.61 73.2777 127.705 70.0085 125.915L32.8281 105.554C29.5397 103.753 27.5031 100.33 27.5144 96.6217L27 56.0562C27.0109 52.5062 28.8988 49.223 31.9797 47.3959Z" fill="#18181B"/>
<path d="M84.6663 71.9203C84.6525 71.7978 84.6256 71.6772 84.5863 71.5603V71.4403C84.5222 71.3032 84.4367 71.1772 84.333 71.067L76.333 63.067C76.2228 62.9633 76.0968 62.8778 75.9597 62.8137H75.8397C75.7042 62.736 75.5546 62.6861 75.3997 62.667H67.333C66.2721 62.667 65.2547 63.0884 64.5046 63.8386C63.7544 64.5887 63.333 65.6061 63.333 66.667V85.3337C63.333 86.3945 63.7544 87.4119 64.5046 88.1621C65.2547 88.9122 66.2721 89.3337 67.333 89.3337H80.6663C81.7272 89.3337 82.7446 88.9122 83.4948 88.1621C84.2449 87.4119 84.6663 86.3945 84.6663 85.3337V72.0003C84.6663 72.0003 84.6663 72.0003 84.6663 71.9203ZM76.6663 67.2137L80.1197 70.667H77.9997C77.6461 70.667 77.3069 70.5265 77.0569 70.2765C76.8068 70.0264 76.6663 69.6873 76.6663 69.3337V67.2137ZM81.9997 85.3337C81.9997 85.6873 81.8592 86.0264 81.6091 86.2765C81.3591 86.5265 81.02 86.667 80.6663 86.667H67.333C66.9794 86.667 66.6402 86.5265 66.3902 86.2765C66.1402 86.0264 65.9997 85.6873 65.9997 85.3337V66.667C65.9997 66.3134 66.1402 65.9742 66.3902 65.7242C66.6402 65.4741 66.9794 65.3337 67.333 65.3337H73.9997V69.3337C73.9997 70.3945 74.4211 71.4119 75.1712 72.1621C75.9214 72.9122 76.9388 73.3337 77.9997 73.3337H81.9997V85.3337Z" fill="white"/>
<path d="M174.907 192.891L210.055 171.435C213.207 169.566 217.134 169.501 220.355 171.265L258.386 191.757C261.587 193.51 263.609 196.806 263.697 200.415L264.069 240.314C264.156 243.907 262.314 247.274 259.223 249.17L223.367 271.161C220.197 273.105 216.205 273.201 212.936 271.41L175.756 251.049C172.467 249.248 170.431 245.825 170.442 242.117L169.928 201.551C169.939 198.001 171.826 194.718 174.907 192.891Z" fill="#18181B"/>
<path d="M227.666 216.92C227.652 216.798 227.626 216.677 227.586 216.56V216.44C227.522 216.303 227.437 216.177 227.333 216.067L219.333 208.067C219.223 207.963 219.097 207.878 218.96 207.814H218.84C218.704 207.736 218.555 207.686 218.4 207.667H210.333C209.272 207.667 208.255 208.088 207.505 208.839C206.754 209.589 206.333 210.606 206.333 211.667V230.334C206.333 231.395 206.754 232.412 207.505 233.162C208.255 233.912 209.272 234.334 210.333 234.334H223.666C224.727 234.334 225.745 233.912 226.495 233.162C227.245 232.412 227.666 231.395 227.666 230.334V217C227.666 217 227.666 217 227.666 216.92ZM219.666 212.214L223.12 215.667H221C220.646 215.667 220.307 215.527 220.057 215.276C219.807 215.026 219.666 214.687 219.666 214.334V212.214ZM225 230.334C225 230.687 224.859 231.026 224.609 231.276C224.359 231.527 224.02 231.667 223.666 231.667H210.333C209.979 231.667 209.64 231.527 209.39 231.276C209.14 231.026 209 230.687 209 230.334V211.667C209 211.313 209.14 210.974 209.39 210.724C209.64 210.474 209.979 210.334 210.333 210.334H217V214.334C217 215.395 217.421 216.412 218.171 217.162C218.921 217.912 219.939 218.334 221 218.334H225V230.334Z" fill="white"/>
<path d="M174.907 47.3959L210.055 25.9401C213.207 24.0709 217.134 24.0061 220.355 25.77L258.386 46.2619C261.587 48.0151 263.609 51.3108 263.697 54.9197L264.069 94.8191C264.156 98.4118 262.314 101.779 259.223 103.674L223.367 125.666C220.197 127.61 216.205 127.705 212.936 125.915L175.756 105.554C172.467 103.753 170.431 100.33 170.442 96.6217L169.928 56.0562C169.939 52.5062 171.826 49.223 174.907 47.3959Z" fill="#18181B"/>
<path d="M227.666 71.9203C227.652 71.7978 227.626 71.6772 227.586 71.5603V71.4403C227.522 71.3032 227.437 71.1772 227.333 71.067L219.333 63.067C219.223 62.9633 219.097 62.8778 218.96 62.8137H218.84C218.704 62.736 218.555 62.6861 218.4 62.667H210.333C209.272 62.667 208.255 63.0884 207.505 63.8386C206.754 64.5887 206.333 65.6061 206.333 66.667V85.3337C206.333 86.3945 206.754 87.4119 207.505 88.1621C208.255 88.9122 209.272 89.3337 210.333 89.3337H223.666C224.727 89.3337 225.745 88.9122 226.495 88.1621C227.245 87.4119 227.666 86.3945 227.666 85.3337V72.0003C227.666 72.0003 227.666 72.0003 227.666 71.9203ZM219.666 67.2137L223.12 70.667H221C220.646 70.667 220.307 70.5265 220.057 70.2765C219.807 70.0264 219.666 69.6873 219.666 69.3337V67.2137ZM225 85.3337C225 85.6873 224.859 86.0264 224.609 86.2765C224.359 86.5265 224.02 86.667 223.666 86.667H210.333C209.979 86.667 209.64 86.5265 209.39 86.2765C209.14 86.0264 209 85.6873 209 85.3337V66.667C209 66.3134 209.14 65.9742 209.39 65.7242C209.64 65.4741 209.979 65.3337 210.333 65.3337H217V69.3337C217 70.3945 217.421 71.4119 218.171 72.1621C218.921 72.9122 219.939 73.3337 221 73.3337H225V85.3337Z" fill="white"/>
<path d="M317.835 192.891L352.982 171.435C356.134 169.566 360.061 169.501 363.282 171.265L401.314 191.757C404.515 193.51 406.537 196.806 406.624 200.415L406.997 240.314C407.084 243.907 405.241 247.274 402.151 249.17L366.295 271.161C363.125 273.105 359.133 273.201 355.864 271.41L318.684 251.049C315.395 249.248 313.359 245.825 313.37 242.117L312.855 201.551C312.866 198.001 314.754 194.718 317.835 192.891Z" fill="#18181B"/>
<path d="M370.666 216.92C370.652 216.798 370.626 216.677 370.586 216.56V216.44C370.522 216.303 370.437 216.177 370.333 216.067L362.333 208.067C362.223 207.963 362.097 207.878 361.96 207.814H361.84C361.704 207.736 361.555 207.686 361.4 207.667H353.333C352.272 207.667 351.255 208.088 350.505 208.839C349.754 209.589 349.333 210.606 349.333 211.667V230.334C349.333 231.395 349.754 232.412 350.505 233.162C351.255 233.912 352.272 234.334 353.333 234.334H366.666C367.727 234.334 368.745 233.912 369.495 233.162C370.245 232.412 370.666 231.395 370.666 230.334V217C370.666 217 370.666 217 370.666 216.92ZM362.666 212.214L366.12 215.667H364C363.646 215.667 363.307 215.527 363.057 215.276C362.807 215.026 362.666 214.687 362.666 214.334V212.214ZM368 230.334C368 230.687 367.859 231.026 367.609 231.276C367.359 231.527 367.02 231.667 366.666 231.667H353.333C352.979 231.667 352.64 231.527 352.39 231.276C352.14 231.026 352 230.687 352 230.334V211.667C352 211.313 352.14 210.974 352.39 210.724C352.64 210.474 352.979 210.334 353.333 210.334H360V214.334C360 215.395 360.421 216.412 361.171 217.162C361.921 217.912 362.939 218.334 364 218.334H368V230.334Z" fill="white"/>
<path d="M317.835 47.3959L352.982 25.9401C356.134 24.0709 360.061 24.0061 363.282 25.77L401.314 46.2619C404.515 48.0151 406.537 51.3108 406.624 54.9197L406.997 94.8191C407.084 98.4118 405.241 101.779 402.151 103.674L366.295 125.666C363.125 127.61 359.133 127.705 355.864 125.915L318.684 105.554C315.395 103.753 313.359 100.33 313.37 96.6217L312.855 56.0562C312.866 52.5062 314.754 49.223 317.835 47.3959Z" fill="#18181B"/>
<path d="M370.666 71.9203C370.652 71.7978 370.626 71.6772 370.586 71.5603V71.4403C370.522 71.3032 370.437 71.1772 370.333 71.067L362.333 63.067C362.223 62.9633 362.097 62.8778 361.96 62.8137H361.84C361.704 62.736 361.555 62.6861 361.4 62.667H353.333C352.272 62.667 351.255 63.0884 350.505 63.8386C349.754 64.5887 349.333 65.6061 349.333 66.667V85.3337C349.333 86.3945 349.754 87.4119 350.505 88.1621C351.255 88.9122 352.272 89.3337 353.333 89.3337H366.666C367.727 89.3337 368.745 88.9122 369.495 88.1621C370.245 87.4119 370.666 86.3945 370.666 85.3337V72.0003C370.666 72.0003 370.666 72.0003 370.666 71.9203ZM362.666 67.2137L366.12 70.667H364C363.646 70.667 363.307 70.5265 363.057 70.2765C362.807 70.0264 362.666 69.6873 362.666 69.3337V67.2137ZM368 85.3337C368 85.6873 367.859 86.0264 367.609 86.2765C367.359 86.5265 367.02 86.667 366.666 86.667H353.333C352.979 86.667 352.64 86.5265 352.39 86.2765C352.14 86.0264 352 85.6873 352 85.3337V66.667C352 66.3134 352.14 65.9742 352.39 65.7242C352.64 65.4741 352.979 65.3337 353.333 65.3337H360V69.3337C360 70.3945 360.421 71.4119 361.171 72.1621C361.921 72.9122 362.939 73.3337 364 73.3337H368V85.3337Z" fill="white"/>
<path fill-rule="evenodd" clip-rule="evenodd" d="M507.296 96.5071C511.667 93.8819 517.115 93.7628 521.586 96.2165C521.59 96.2189 521.595 96.2213 521.599 96.2237L558.428 116.179L558.44 116.186C562.887 118.632 565.673 123.244 565.776 128.287L565.777 128.319L565.998 167.368C566.003 167.654 565.999 167.939 565.987 168.223C565.79 172.905 563.282 177.217 559.247 179.722L524.37 201.381C519.969 204.113 514.425 204.273 509.884 201.775L473.869 181.964C473.734 181.89 473.6 181.813 473.466 181.734C469.451 179.365 465.971 174.878 466 169.492C466 169.486 466 169.481 466 169.476L466 129.798L466 129.784C466.033 124.835 468.652 120.25 472.913 117.681L507.275 96.5194L507.296 96.5071ZM511.761 103.79L477.403 124.948L477.383 124.961C475.667 125.991 474.608 127.837 474.591 129.828C474.591 129.832 474.591 129.836 474.591 129.84L474.591 169.518L474.591 169.532C474.579 171.207 475.855 173.309 478.034 174.507L514.049 194.319C515.836 195.302 518.058 195.243 519.813 194.154L554.69 172.495C554.716 172.479 554.741 172.463 554.766 172.447C556.448 171.367 557.449 169.498 557.408 167.507L557.408 167.475L557.187 128.434C557.136 126.437 556.022 124.608 554.285 123.648C554.282 123.646 554.279 123.644 554.275 123.642L517.447 103.687L517.435 103.68C515.679 102.714 513.503 102.753 511.761 103.79Z" fill="#18181B"/>
<path d="M508.666 158.167C508.304 158.167 507.949 158.275 507.648 158.476C507.346 158.677 507.111 158.964 506.973 159.299C506.834 159.634 506.797 160.002 506.868 160.358C506.939 160.714 507.114 161.04 507.37 161.297C507.626 161.553 507.953 161.728 508.309 161.798C508.664 161.869 509.033 161.833 509.368 161.694C509.703 161.555 509.989 161.32 510.191 161.019C510.392 160.717 510.5 160.363 510.5 160C510.5 159.514 510.307 159.048 509.963 158.704C509.619 158.36 509.153 158.167 508.666 158.167ZM508.666 147.167C508.304 147.167 507.949 147.275 507.648 147.476C507.346 147.677 507.111 147.964 506.973 148.299C506.834 148.634 506.797 149.002 506.868 149.358C506.939 149.714 507.114 150.04 507.37 150.297C507.626 150.553 507.953 150.728 508.309 150.798C508.664 150.869 509.033 150.833 509.368 150.694C509.703 150.555 509.989 150.32 510.191 150.019C510.392 149.717 510.5 149.363 510.5 149C510.5 148.514 510.307 148.048 509.963 147.704C509.619 147.36 509.153 147.167 508.666 147.167ZM523.333 130.667H508.666C506.721 130.667 504.856 131.44 503.481 132.815C502.106 134.19 501.333 136.055 501.333 138V160C501.333 161.945 502.106 163.811 503.481 165.186C504.856 166.561 506.721 167.334 508.666 167.334H523.333C525.278 167.334 527.143 166.561 528.518 165.186C529.894 163.811 530.666 161.945 530.666 160V138C530.666 136.055 529.894 134.19 528.518 132.815C527.143 131.44 525.278 130.667 523.333 130.667ZM527 160C527 160.973 526.613 161.905 525.926 162.593C525.238 163.281 524.305 163.667 523.333 163.667H508.666C507.694 163.667 506.761 163.281 506.074 162.593C505.386 161.905 505 160.973 505 160V155.307C506.107 155.974 507.374 156.328 508.666 156.334H523.333C524.625 156.328 525.892 155.974 527 155.307V160ZM527 149C527 149.973 526.613 150.905 525.926 151.593C525.238 152.281 524.305 152.667 523.333 152.667H508.666C507.694 152.667 506.761 152.281 506.074 151.593C505.386 150.905 505 149.973 505 149V144.307C506.107 144.974 507.374 145.328 508.666 145.334H523.333C524.625 145.328 525.892 144.974 527 144.307V149ZM523.333 141.667H508.666C507.694 141.667 506.761 141.281 506.074 140.593C505.386 139.905 505 138.973 505 138C505 137.028 505.386 136.095 506.074 135.408C506.761 134.72 507.694 134.334 508.666 134.334H523.333C524.305 134.334 525.238 134.72 525.926 135.408C526.613 136.095 527 137.028 527 138C527 138.973 526.613 139.905 525.926 140.593C525.238 141.281 524.305 141.667 523.333 141.667Z" fill="#18181B"/>
<rect x="4" y="4" width="422" height="284" rx="11.2088" stroke="#00DC82" stroke-width="6.53846"/>
</svg>
