<svg width="238" height="249" viewBox="0 0 238 249" fill="none" xmlns="http://www.w3.org/2000/svg">
<path d="M4.97972 168.399L40.127 146.943C43.279 145.074 47.2059 145.009 50.4269 146.773L88.4581 167.265C91.6594 169.018 93.6811 172.314 93.7689 175.923L94.1412 215.822C94.2285 219.415 92.386 222.782 89.2957 224.677L53.4397 246.669C50.2697 248.613 46.2777 248.708 43.0085 246.918L5.8281 226.557C2.53969 224.756 0.503063 221.332 0.514409 217.625L0 177.059C0.0108623 173.509 1.89875 170.226 4.97972 168.399Z" fill="#18181B"/>
<path d="M57.6663 192.427C57.6525 192.305 57.6256 192.184 57.5863 192.067V191.947C57.5222 191.81 57.4367 191.684 57.333 191.574L49.333 183.574C49.2228 183.47 49.0968 183.385 48.9597 183.32H48.8397C48.7042 183.243 48.5546 183.193 48.3997 183.174H40.333C39.2721 183.174 38.2547 183.595 37.5046 184.345C36.7544 185.096 36.333 186.113 36.333 187.174V205.84C36.333 206.901 36.7544 207.919 37.5046 208.669C38.2547 209.419 39.2721 209.84 40.333 209.84H53.6663C54.7272 209.84 55.7446 209.419 56.4948 208.669C57.2449 207.919 57.6663 206.901 57.6663 205.84V192.507C57.6663 192.507 57.6663 192.507 57.6663 192.427ZM49.6663 187.72L53.1197 191.174H50.9997C50.6461 191.174 50.3069 191.033 50.0569 190.783C49.8068 190.533 49.6663 190.194 49.6663 189.84V187.72ZM54.9997 205.84C54.9997 206.194 54.8592 206.533 54.6091 206.783C54.3591 207.033 54.02 207.174 53.6663 207.174H40.333C39.9794 207.174 39.6402 207.033 39.3902 206.783C39.1402 206.533 38.9997 206.194 38.9997 205.84V187.174C38.9997 186.82 39.1402 186.481 39.3902 186.231C39.6402 185.981 39.9794 185.84 40.333 185.84H46.9997V189.84C46.9997 190.901 47.4211 191.919 48.1712 192.669C48.9214 193.419 49.9388 193.84 50.9997 193.84H54.9997V205.84Z" fill="white"/>
<path d="M4.97972 22.9047L40.127 1.44891C43.279 -0.420288 47.2059 -0.485145 50.4269 1.27879L88.4581 21.7707C91.6594 23.5238 93.6811 26.8196 93.7689 30.4285L94.1412 70.3279C94.2285 73.9206 92.386 77.2879 89.2957 79.1832L53.4398 101.175C50.2697 103.119 46.2777 103.214 43.0085 101.424L5.8281 81.0627C2.53969 79.2618 0.503063 75.8383 0.514409 72.1305L0 31.5649C0.0108623 28.015 1.89875 24.7318 4.97972 22.9047Z" fill="#18181B"/>
<path d="M57.6663 47.4272C57.6525 47.3047 57.6256 47.184 57.5863 47.0672V46.9472C57.5222 46.8101 57.4367 46.684 57.333 46.5738L49.333 38.5738C49.2228 38.4701 49.0968 38.3846 48.9597 38.3205H48.8397C48.7042 38.2428 48.5546 38.193 48.3997 38.1738H40.333C39.2721 38.1738 38.2547 38.5953 37.5046 39.3454C36.7544 40.0955 36.333 41.113 36.333 42.1738V60.8405C36.333 61.9014 36.7544 62.9188 37.5046 63.6689C38.2547 64.4191 39.2721 64.8405 40.333 64.8405H53.6663C54.7272 64.8405 55.7446 64.4191 56.4948 63.6689C57.2449 62.9188 57.6663 61.9014 57.6663 60.8405V47.5072C57.6663 47.5072 57.6663 47.5072 57.6663 47.4272ZM49.6663 42.7205L53.1197 46.1738H50.9997C50.6461 46.1738 50.3069 46.0334 50.0569 45.7833C49.8068 45.5333 49.6663 45.1941 49.6663 44.8405V42.7205ZM54.9997 60.8405C54.9997 61.1941 54.8592 61.5333 54.6091 61.7833C54.3591 62.0334 54.02 62.1738 53.6663 62.1738H40.333C39.9794 62.1738 39.6402 62.0334 39.3902 61.7833C39.1402 61.5333 38.9997 61.1941 38.9997 60.8405V42.1738C38.9997 41.8202 39.1402 41.4811 39.3902 41.231C39.6402 40.981 39.9794 40.8405 40.333 40.8405H46.9997V44.8405C46.9997 45.9014 47.4211 46.9188 48.1712 47.6689C48.9214 48.4191 49.9388 48.8405 50.9997 48.8405H54.9997V60.8405Z" fill="white"/>
<path d="M147.907 168.399L183.055 146.943C186.207 145.074 190.134 145.009 193.355 146.773L231.386 167.265C234.587 169.018 236.609 172.314 236.697 175.923L237.069 215.822C237.156 219.415 235.314 222.782 232.223 224.677L196.367 246.669C193.197 248.613 189.205 248.708 185.936 246.918L148.756 226.557C145.467 224.756 143.431 221.332 143.442 217.625L142.928 177.059C142.939 173.509 144.826 170.226 147.907 168.399Z" fill="#18181B"/>
<path d="M200.666 192.427C200.652 192.305 200.626 192.184 200.586 192.067V191.947C200.522 191.81 200.437 191.684 200.333 191.574L192.333 183.574C192.223 183.47 192.097 183.385 191.96 183.32H191.84C191.704 183.243 191.555 183.193 191.4 183.174H183.333C182.272 183.174 181.255 183.595 180.505 184.345C179.754 185.096 179.333 186.113 179.333 187.174V205.84C179.333 206.901 179.754 207.919 180.505 208.669C181.255 209.419 182.272 209.84 183.333 209.84H196.666C197.727 209.84 198.745 209.419 199.495 208.669C200.245 207.919 200.666 206.901 200.666 205.84V192.507C200.666 192.507 200.666 192.507 200.666 192.427ZM192.666 187.72L196.12 191.174H194C193.646 191.174 193.307 191.033 193.057 190.783C192.807 190.533 192.666 190.194 192.666 189.84V187.72ZM198 205.84C198 206.194 197.859 206.533 197.609 206.783C197.359 207.033 197.02 207.174 196.666 207.174H183.333C182.979 207.174 182.64 207.033 182.39 206.783C182.14 206.533 182 206.194 182 205.84V187.174C182 186.82 182.14 186.481 182.39 186.231C182.64 185.981 182.979 185.84 183.333 185.84H190V189.84C190 190.901 190.421 191.919 191.171 192.669C191.921 193.419 192.939 193.84 194 193.84H198V205.84Z" fill="white"/>
<path d="M147.907 22.9047L183.055 1.44891C186.207 -0.420288 190.134 -0.485145 193.355 1.27879L231.386 21.7707C234.587 23.5238 236.609 26.8196 236.697 30.4285L237.069 70.3279C237.156 73.9206 235.314 77.2879 232.223 79.1832L196.367 101.175C193.197 103.119 189.205 103.214 185.936 101.424L148.756 81.0627C145.467 79.2618 143.431 75.8383 143.442 72.1305L142.928 31.5649C142.939 28.015 144.826 24.7318 147.907 22.9047Z" fill="#18181B"/>
<path d="M200.666 47.4272C200.652 47.3047 200.626 47.184 200.586 47.0672V46.9472C200.522 46.8101 200.437 46.684 200.333 46.5738L192.333 38.5738C192.223 38.4701 192.097 38.3846 191.96 38.3205H191.84C191.704 38.2428 191.555 38.193 191.4 38.1738H183.333C182.272 38.1738 181.255 38.5953 180.505 39.3454C179.754 40.0955 179.333 41.113 179.333 42.1738V60.8405C179.333 61.9014 179.754 62.9188 180.505 63.6689C181.255 64.4191 182.272 64.8405 183.333 64.8405H196.666C197.727 64.8405 198.745 64.4191 199.495 63.6689C200.245 62.9188 200.666 61.9014 200.666 60.8405V47.5072C200.666 47.5072 200.666 47.5072 200.666 47.4272ZM192.666 42.7205L196.12 46.1738H194C193.646 46.1738 193.307 46.0334 193.057 45.7833C192.807 45.5333 192.666 45.1941 192.666 44.8405V42.7205ZM198 60.8405C198 61.1941 197.859 61.5333 197.609 61.7833C197.359 62.0334 197.02 62.1738 196.666 62.1738H183.333C182.979 62.1738 182.64 62.0334 182.39 61.7833C182.14 61.5333 182 61.1941 182 60.8405V42.1738C182 41.8202 182.14 41.4811 182.39 41.231C182.64 40.981 182.979 40.8405 183.333 40.8405H190V44.8405C190 45.9014 190.421 46.9188 191.171 47.6689C191.921 48.4191 192.939 48.8405 194 48.8405H198V60.8405Z" fill="white"/>
</svg>
