<svg width="380" height="249" viewBox="0 0 380 249" fill="none" xmlns="http://www.w3.org/2000/svg">
<path d="M4.97972 168.891L40.127 147.435C43.279 145.566 47.2059 145.501 50.4269 147.265L88.4581 167.757C91.6594 169.51 93.6811 172.806 93.7689 176.415L94.1412 216.314C94.2285 219.907 92.386 223.274 89.2957 225.17L53.4397 247.161C50.2697 249.105 46.2777 249.201 43.0085 247.41L5.8281 227.049C2.53969 225.248 0.503063 221.825 0.514409 218.117L0 177.551C0.0108623 174.001 1.89875 170.718 4.97972 168.891Z" fill="#18181B"/>
<path d="M57.6663 192.919C57.6525 192.797 57.6256 192.676 57.5863 192.559V192.439C57.5222 192.302 57.4367 192.176 57.333 192.066L49.333 184.066C49.2228 183.962 49.0968 183.877 48.9597 183.813H48.8397C48.7042 183.735 48.5546 183.685 48.3997 183.666H40.333C39.2721 183.666 38.2547 184.087 37.5046 184.838C36.7544 185.588 36.333 186.605 36.333 187.666V206.333C36.333 207.394 36.7544 208.411 37.5046 209.161C38.2547 209.911 39.2721 210.333 40.333 210.333H53.6663C54.7272 210.333 55.7446 209.911 56.4948 209.161C57.2449 208.411 57.6663 207.394 57.6663 206.333V192.999C57.6663 192.999 57.6663 192.999 57.6663 192.919ZM49.6663 188.213L53.1197 191.666H50.9997C50.6461 191.666 50.3069 191.526 50.0569 191.275C49.8068 191.025 49.6663 190.686 49.6663 190.333V188.213ZM54.9997 206.333C54.9997 206.686 54.8592 207.025 54.6091 207.275C54.3591 207.526 54.02 207.666 53.6663 207.666H40.333C39.9794 207.666 39.6402 207.526 39.3902 207.275C39.1402 207.025 38.9997 206.686 38.9997 206.333V187.666C38.9997 187.312 39.1402 186.973 39.3902 186.723C39.6402 186.473 39.9794 186.333 40.333 186.333H46.9997V190.333C46.9997 191.394 47.4211 192.411 48.1712 193.161C48.9214 193.911 49.9388 194.333 50.9997 194.333H54.9997V206.333Z" fill="white"/>
<path d="M4.97972 23.3969L40.127 1.9411C43.279 0.0718996 47.2059 0.00704229 50.4269 1.77098L88.4581 22.2629C91.6594 24.016 93.6811 27.3118 93.7689 30.9207L94.1412 70.8201C94.2285 74.4128 92.386 77.78 89.2957 79.6754L53.4398 101.667C50.2697 103.611 46.2777 103.706 43.0085 101.916L5.8281 81.5549C2.53969 79.754 0.503063 76.3305 0.514409 72.6227L0 32.0571C0.0108623 28.5072 1.89875 25.224 4.97972 23.3969Z" fill="#18181B"/>
<path d="M57.6663 47.9193C57.6525 47.7969 57.6256 47.6762 57.5863 47.5593V47.4393C57.5222 47.3023 57.4367 47.1762 57.333 47.066L49.333 39.066C49.2228 38.9623 49.0968 38.8768 48.9597 38.8127H48.8397C48.7042 38.735 48.5546 38.6851 48.3997 38.666H40.333C39.2721 38.666 38.2547 39.0874 37.5046 39.8376C36.7544 40.5877 36.333 41.6051 36.333 42.666V61.3327C36.333 62.3935 36.7544 63.411 37.5046 64.1611C38.2547 64.9113 39.2721 65.3327 40.333 65.3327H53.6663C54.7272 65.3327 55.7446 64.9113 56.4948 64.1611C57.2449 63.411 57.6663 62.3935 57.6663 61.3327V47.9993C57.6663 47.9993 57.6663 47.9993 57.6663 47.9193ZM49.6663 43.2127L53.1197 46.666H50.9997C50.6461 46.666 50.3069 46.5255 50.0569 46.2755C49.8068 46.0254 49.6663 45.6863 49.6663 45.3327V43.2127ZM54.9997 61.3327C54.9997 61.6863 54.8592 62.0254 54.6091 62.2755C54.3591 62.5255 54.02 62.666 53.6663 62.666H40.333C39.9794 62.666 39.6402 62.5255 39.3902 62.2755C39.1402 62.0254 38.9997 61.6863 38.9997 61.3327V42.666C38.9997 42.3124 39.1402 41.9733 39.3902 41.7232C39.6402 41.4732 39.9794 41.3327 40.333 41.3327H46.9997V45.3327C46.9997 46.3935 47.4211 47.411 48.1712 48.1611C48.9214 48.9113 49.9388 49.3327 50.9997 49.3327H54.9997V61.3327Z" fill="white"/>
<path d="M147.907 168.891L183.055 147.435C186.207 145.566 190.134 145.501 193.355 147.265L231.386 167.757C234.587 169.51 236.609 172.806 236.697 176.415L237.069 216.314C237.156 219.907 235.314 223.274 232.223 225.17L196.367 247.161C193.197 249.105 189.205 249.201 185.936 247.41L148.756 227.049C145.467 225.248 143.431 221.825 143.442 218.117L142.928 177.551C142.939 174.001 144.826 170.718 147.907 168.891Z" fill="#18181B"/>
<path d="M200.666 192.919C200.652 192.797 200.626 192.676 200.586 192.559V192.439C200.522 192.302 200.437 192.176 200.333 192.066L192.333 184.066C192.223 183.962 192.097 183.877 191.96 183.813H191.84C191.704 183.735 191.555 183.685 191.4 183.666H183.333C182.272 183.666 181.255 184.087 180.505 184.838C179.754 185.588 179.333 186.605 179.333 187.666V206.333C179.333 207.394 179.754 208.411 180.505 209.161C181.255 209.911 182.272 210.333 183.333 210.333H196.666C197.727 210.333 198.745 209.911 199.495 209.161C200.245 208.411 200.666 207.394 200.666 206.333V192.999C200.666 192.999 200.666 192.999 200.666 192.919ZM192.666 188.213L196.12 191.666H194C193.646 191.666 193.307 191.526 193.057 191.275C192.807 191.025 192.666 190.686 192.666 190.333V188.213ZM198 206.333C198 206.686 197.859 207.025 197.609 207.275C197.359 207.526 197.02 207.666 196.666 207.666H183.333C182.979 207.666 182.64 207.526 182.39 207.275C182.14 207.025 182 206.686 182 206.333V187.666C182 187.312 182.14 186.973 182.39 186.723C182.64 186.473 182.979 186.333 183.333 186.333H190V190.333C190 191.394 190.421 192.411 191.171 193.161C191.921 193.911 192.939 194.333 194 194.333H198V206.333Z" fill="white"/>
<path d="M147.907 23.3969L183.055 1.9411C186.207 0.0718996 190.134 0.00704229 193.355 1.77098L231.386 22.2629C234.587 24.016 236.609 27.3118 236.697 30.9207L237.069 70.8201C237.156 74.4128 235.314 77.78 232.223 79.6754L196.367 101.667C193.197 103.611 189.205 103.706 185.936 101.916L148.756 81.5549C145.467 79.754 143.431 76.3305 143.442 72.6227L142.928 32.0571C142.939 28.5072 144.826 25.224 147.907 23.3969Z" fill="#18181B"/>
<path d="M200.666 47.9193C200.652 47.7969 200.626 47.6762 200.586 47.5593V47.4393C200.522 47.3023 200.437 47.1762 200.333 47.066L192.333 39.066C192.223 38.9623 192.097 38.8768 191.96 38.8127H191.84C191.704 38.735 191.555 38.6851 191.4 38.666H183.333C182.272 38.666 181.255 39.0874 180.505 39.8376C179.754 40.5877 179.333 41.6051 179.333 42.666V61.3327C179.333 62.3935 179.754 63.411 180.505 64.1611C181.255 64.9113 182.272 65.3327 183.333 65.3327H196.666C197.727 65.3327 198.745 64.9113 199.495 64.1611C200.245 63.411 200.666 62.3935 200.666 61.3327V47.9993C200.666 47.9993 200.666 47.9993 200.666 47.9193ZM192.666 43.2127L196.12 46.666H194C193.646 46.666 193.307 46.5255 193.057 46.2755C192.807 46.0254 192.666 45.6863 192.666 45.3327V43.2127ZM198 61.3327C198 61.6863 197.859 62.0254 197.609 62.2755C197.359 62.5255 197.02 62.666 196.666 62.666H183.333C182.979 62.666 182.64 62.5255 182.39 62.2755C182.14 62.0254 182 61.6863 182 61.3327V42.666C182 42.3124 182.14 41.9733 182.39 41.7232C182.64 41.4732 182.979 41.3327 183.333 41.3327H190V45.3327C190 46.3935 190.421 47.411 191.171 48.1611C191.921 48.9113 192.939 49.3327 194 49.3327H198V61.3327Z" fill="white"/>
<path d="M290.835 168.891L325.982 147.435C329.134 145.566 333.061 145.501 336.282 147.265L374.314 167.757C377.515 169.51 379.537 172.806 379.624 176.415L379.997 216.314C380.084 219.907 378.241 223.274 375.151 225.17L339.295 247.161C336.125 249.105 332.133 249.201 328.864 247.41L291.684 227.049C288.395 225.248 286.359 221.825 286.37 218.117L285.855 177.551C285.866 174.001 287.754 170.718 290.835 168.891Z" fill="#18181B"/>
<path d="M343.666 192.919C343.652 192.797 343.626 192.676 343.586 192.559V192.439C343.522 192.302 343.437 192.176 343.333 192.066L335.333 184.066C335.223 183.962 335.097 183.877 334.96 183.813H334.84C334.704 183.735 334.555 183.685 334.4 183.666H326.333C325.272 183.666 324.255 184.087 323.505 184.838C322.754 185.588 322.333 186.605 322.333 187.666V206.333C322.333 207.394 322.754 208.411 323.505 209.161C324.255 209.911 325.272 210.333 326.333 210.333H339.666C340.727 210.333 341.745 209.911 342.495 209.161C343.245 208.411 343.666 207.394 343.666 206.333V192.999C343.666 192.999 343.666 192.999 343.666 192.919ZM335.666 188.213L339.12 191.666H337C336.646 191.666 336.307 191.526 336.057 191.275C335.807 191.025 335.666 190.686 335.666 190.333V188.213ZM341 206.333C341 206.686 340.859 207.025 340.609 207.275C340.359 207.526 340.02 207.666 339.666 207.666H326.333C325.979 207.666 325.64 207.526 325.39 207.275C325.14 207.025 325 206.686 325 206.333V187.666C325 187.312 325.14 186.973 325.39 186.723C325.64 186.473 325.979 186.333 326.333 186.333H333V190.333C333 191.394 333.421 192.411 334.171 193.161C334.921 193.911 335.939 194.333 337 194.333H341V206.333Z" fill="white"/>
<path d="M290.835 23.3969L325.982 1.9411C329.134 0.0718996 333.061 0.00704229 336.282 1.77098L374.314 22.2629C377.515 24.016 379.537 27.3118 379.624 30.9207L379.997 70.8201C380.084 74.4128 378.241 77.78 375.151 79.6754L339.295 101.667C336.125 103.611 332.133 103.706 328.864 101.916L291.684 81.5549C288.395 79.754 286.359 76.3305 286.37 72.6227L285.855 32.0571C285.866 28.5072 287.754 25.224 290.835 23.3969Z" fill="#18181B"/>
<path d="M343.666 47.9193C343.652 47.7969 343.626 47.6762 343.586 47.5593V47.4393C343.522 47.3023 343.437 47.1762 343.333 47.066L335.333 39.066C335.223 38.9623 335.097 38.8768 334.96 38.8127H334.84C334.704 38.735 334.555 38.6851 334.4 38.666H326.333C325.272 38.666 324.255 39.0874 323.505 39.8376C322.754 40.5877 322.333 41.6051 322.333 42.666V61.3327C322.333 62.3935 322.754 63.411 323.505 64.1611C324.255 64.9113 325.272 65.3327 326.333 65.3327H339.666C340.727 65.3327 341.745 64.9113 342.495 64.1611C343.245 63.411 343.666 62.3935 343.666 61.3327V47.9993C343.666 47.9993 343.666 47.9993 343.666 47.9193ZM335.666 43.2127L339.12 46.666H337C336.646 46.666 336.307 46.5255 336.057 46.2755C335.807 46.0254 335.666 45.6863 335.666 45.3327V43.2127ZM341 61.3327C341 61.6863 340.859 62.0254 340.609 62.2755C340.359 62.5255 340.02 62.666 339.666 62.666H326.333C325.979 62.666 325.64 62.5255 325.39 62.2755C325.14 62.0254 325 61.6863 325 61.3327V42.666C325 42.3124 325.14 41.9733 325.39 41.7232C325.64 41.4732 325.979 41.3327 326.333 41.3327H333V45.3327C333 46.3935 333.421 47.411 334.171 48.1611C334.921 48.9113 335.939 49.3327 337 49.3327H341V61.3327Z" fill="white"/>
</svg>
