<svg width="380" height="249" viewBox="0 0 380 249" fill="none" xmlns="http://www.w3.org/2000/svg">
<path d="M5.19799 23.765L5.19801 23.765L5.20269 23.7622L40.3452 2.30917C40.346 2.30871 40.3468 2.30825 40.3476 2.30779C43.3688 0.517277 47.1334 0.455252 50.2213 2.14632L50.2239 2.1477L88.2525 22.6382C88.253 22.6385 88.2535 22.6387 88.254 22.639C91.3216 24.3196 93.2559 27.4755 93.341 30.928C93.341 30.929 93.341 30.9301 93.341 30.9311L93.7132 70.8241L93.7134 70.8305C93.797 74.2691 92.0337 77.4941 89.0719 79.3106L53.216 101.302C50.1772 103.166 46.3491 103.258 43.2141 101.541L6.03365 81.1795C2.88084 79.4529 0.931475 76.1728 0.942388 72.624L0.942303 72.6172L0.427926 32.0584C0.427929 32.0573 0.427933 32.0562 0.427937 32.0551C0.439503 28.6588 2.24611 25.5155 5.19799 23.765Z" fill="#F4F4F5" stroke="#D4D4D8" stroke-width="0.855856"/>
<path d="M5.19799 169.259L5.19801 169.259L5.20269 169.256L40.3452 147.803C40.346 147.803 40.3468 147.802 40.3476 147.802C43.3688 146.011 47.1334 145.949 50.2213 147.64L50.2239 147.642L88.2525 168.132C88.253 168.133 88.2535 168.133 88.254 168.133C91.3216 169.814 93.2559 172.97 93.341 176.422C93.341 176.423 93.341 176.424 93.341 176.425L93.7132 216.318L93.7134 216.325C93.797 219.763 92.0337 222.988 89.0719 224.805L53.216 246.796C50.1772 248.66 46.3491 248.752 43.2141 247.035L6.03365 226.674C2.88084 224.947 0.931475 221.667 0.942388 218.118L0.942303 218.111L0.427926 177.553C0.427929 177.551 0.427933 177.55 0.427937 177.549C0.439503 174.153 2.24611 171.01 5.19799 169.259Z" fill="#F4F4F5" stroke="#D4D4D8" stroke-width="0.855856"/>
<path d="M148.126 23.765L148.126 23.765L148.13 23.7622L183.273 2.30917C183.274 2.30871 183.275 2.30825 183.275 2.30779C186.297 0.517277 190.061 0.455252 193.149 2.14632L193.152 2.1477L231.18 22.6382C231.181 22.6385 231.181 22.6387 231.182 22.639C234.249 24.3196 236.184 27.4755 236.269 30.928C236.269 30.929 236.269 30.9301 236.269 30.9311L236.641 70.8241L236.641 70.8305C236.725 74.2691 234.961 77.4941 232 79.3106L196.144 101.302C193.105 103.166 189.277 103.258 186.142 101.541L148.961 81.1795C145.809 79.4529 143.859 76.1728 143.87 72.624L143.87 72.6172L143.356 32.0584C143.356 32.0573 143.356 32.0562 143.356 32.0551C143.367 28.6588 145.174 25.5155 148.126 23.765Z" fill="#F4F4F5" stroke="#D4D4D8" stroke-width="0.855856"/>
<path d="M291.053 23.765L291.053 23.765L291.058 23.7622L326.201 2.30917C326.201 2.30871 326.202 2.30825 326.203 2.30779C329.224 0.517277 332.989 0.455252 336.077 2.14632L336.079 2.1477L374.108 22.6382C374.108 22.6385 374.109 22.6387 374.109 22.639C377.177 24.3196 379.111 27.4755 379.196 30.928C379.196 30.929 379.196 30.9301 379.197 30.9311L379.569 70.8241L379.569 70.8305C379.652 74.2691 377.889 77.4941 374.927 79.3106L339.071 101.302C336.033 103.166 332.205 103.258 329.07 101.541L291.889 81.1795C288.736 79.4529 286.787 76.1728 286.798 72.624L286.798 72.6172L286.283 32.0584C286.283 32.0573 286.283 32.0562 286.283 32.0551C286.295 28.6588 288.102 25.5155 291.053 23.765Z" fill="#F4F4F5" stroke="#D4D4D8" stroke-width="0.855856"/>
<path d="M148.126 169.259L148.126 169.259L148.13 169.256L183.273 147.803C183.274 147.803 183.275 147.802 183.275 147.802C186.297 146.011 190.061 145.949 193.149 147.64L193.152 147.642L231.18 168.132C231.181 168.133 231.181 168.133 231.182 168.133C234.249 169.814 236.184 172.97 236.269 176.422C236.269 176.423 236.269 176.424 236.269 176.425L236.641 216.318L236.641 216.325C236.725 219.763 234.961 222.988 232 224.805L196.144 246.796C193.105 248.66 189.277 248.752 186.142 247.035L148.961 226.674C145.809 224.947 143.859 221.667 143.87 218.118L143.87 218.111L143.356 177.553C143.356 177.551 143.356 177.55 143.356 177.549C143.367 174.153 145.174 171.01 148.126 169.259Z" fill="#F4F4F5" stroke="#D4D4D8" stroke-width="0.855856"/>
<path d="M291.053 169.259L291.053 169.259L291.058 169.256L326.201 147.803C326.201 147.803 326.202 147.802 326.203 147.802C329.224 146.011 332.989 145.949 336.077 147.64L336.079 147.642L374.108 168.132C374.108 168.133 374.109 168.133 374.109 168.133C377.177 169.814 379.111 172.97 379.196 176.422C379.196 176.423 379.196 176.424 379.197 176.425L379.569 216.318L379.569 216.325C379.652 219.763 377.889 222.988 374.927 224.805L339.071 246.796C336.033 248.66 332.205 248.752 329.07 247.035L291.889 226.674C288.736 224.947 286.787 221.667 286.798 218.118L286.798 218.111L286.283 177.553C286.283 177.551 286.283 177.55 286.283 177.549C286.295 174.153 288.102 171.01 291.053 169.259Z" fill="#F4F4F5" stroke="#D4D4D8" stroke-width="0.855856"/>
<circle cx="34.99" cy="51.4148" r="3.32305" fill="#D4D4D8"/>
<circle cx="47.4998" cy="51.4148" r="3.32305" fill="#D4D4D8"/>
<circle cx="60.0105" cy="51.4148" r="3.32305" fill="#D4D4D8"/>
<circle cx="177.919" cy="51.4148" r="3.32305" fill="#D4D4D8"/>
<circle cx="190.429" cy="51.4148" r="3.32305" fill="#D4D4D8"/>
<circle cx="202.939" cy="51.4148" r="3.32305" fill="#D4D4D8"/>
<circle cx="320.846" cy="51.4148" r="3.32305" fill="#D4D4D8"/>
<circle cx="333.356" cy="51.4148" r="3.32305" fill="#D4D4D8"/>
<circle cx="345.867" cy="51.4148" r="3.32305" fill="#D4D4D8"/>
<circle cx="34.99" cy="197.237" r="3.32305" fill="#D4D4D8"/>
<circle cx="47.4998" cy="197.237" r="3.32305" fill="#D4D4D8"/>
<circle cx="60.0105" cy="197.237" r="3.32305" fill="#D4D4D8"/>
<circle cx="177.919" cy="197.237" r="3.32305" fill="#D4D4D8"/>
<circle cx="190.429" cy="197.237" r="3.32305" fill="#D4D4D8"/>
<circle cx="202.939" cy="197.237" r="3.32305" fill="#D4D4D8"/>
<circle cx="320.846" cy="197.237" r="3.32305" fill="#D4D4D8"/>
<circle cx="333.356" cy="197.237" r="3.32305" fill="#D4D4D8"/>
<circle cx="345.867" cy="197.237" r="3.32305" fill="#D4D4D8"/>
</svg>
