<svg width="95" height="249" viewBox="0 0 95 249" fill="none" xmlns="http://www.w3.org/2000/svg">
<path d="M94.9966 70.8181C95.084 74.4096 93.2405 77.7787 90.1511 79.6735M89.3135 22.2609C92.5098 24.0113 94.5366 27.3093 94.6243 30.9187M51.2823 1.76902C48.0665 0.00792012 44.135 0.069653 40.9824 1.93914M0.855469 32.0552C0.866329 28.5063 2.75528 25.2214 5.83519 23.395M94.5688 70.8285C94.6524 74.2659 92.8882 77.4928 89.9274 79.3087L54.0715 101.3C51.0327 103.164 47.2045 103.256 44.0695 101.539L6.88912 81.1776C3.73631 79.451 1.78694 76.1709 1.79786 72.622L1.79777 72.6153L1.28339 32.0565C1.2834 32.0554 1.2834 32.0543 1.28341 32.0532C1.29497 28.6579 3.10264 25.5129 6.05346 23.763L6.05348 23.7631L6.05816 23.7602L41.2007 2.30722C41.2015 2.30676 41.2023 2.3063 41.203 2.30583C44.2246 0.515107 47.9939 0.456058 51.0768 2.14435L51.0793 2.14574L89.108 22.6362C89.1085 22.6365 89.109 22.6368 89.1095 22.6371C92.1721 24.3149 94.1114 27.4732 94.1964 30.926C94.1965 30.9271 94.1965 30.9281 94.1965 30.9291L94.5687 70.8221L94.5688 70.8285Z" fill="#F4F4F5" stroke="#D4D4D8" stroke-width="0.855856"/>
<path d="M94.9966 216.314C95.084 219.906 93.2405 223.275 90.1511 225.17M89.3135 167.757C92.5098 169.507 94.5366 172.805 94.6243 176.415M51.2823 147.265C48.0665 145.504 44.135 145.566 40.9824 147.435M0.855469 177.551C0.866329 174.002 2.75528 170.717 5.83519 168.891M94.5688 216.325C94.6524 219.762 92.8882 222.989 89.9274 224.805L54.0715 246.796C51.0327 248.66 47.2045 248.752 44.0695 247.035L6.88912 226.674C3.73631 224.947 1.78694 221.667 1.79786 218.118L1.79777 218.111L1.28339 177.553C1.2834 177.551 1.2834 177.55 1.28341 177.549C1.29497 174.154 3.10264 171.009 6.05346 169.259L6.05348 169.259L6.05816 169.256L41.2007 147.803C41.2015 147.803 41.2023 147.802 41.203 147.802C44.2246 146.011 47.9939 145.952 51.0768 147.64L51.0793 147.642L89.108 168.132C89.1085 168.133 89.109 168.133 89.1095 168.133C92.1721 169.811 94.1114 172.969 94.1964 176.422C94.1965 176.423 94.1965 176.424 94.1965 176.425L94.5687 216.318L94.5688 216.325Z" fill="#F4F4F5" stroke="#D4D4D8" stroke-width="0.855856"/>
<circle cx="35.8465" cy="51.4129" r="3.32305" fill="#D4D4D8"/>
<circle cx="48.3562" cy="51.4129" r="3.32305" fill="#D4D4D8"/>
<circle cx="60.867" cy="51.4129" r="3.32305" fill="#D4D4D8"/>
<circle cx="35.8465" cy="197.237" r="3.32305" fill="#D4D4D8"/>
<circle cx="48.3562" cy="197.237" r="3.32305" fill="#D4D4D8"/>
<circle cx="60.867" cy="197.237" r="3.32305" fill="#D4D4D8"/>
</svg>
