<svg width="24" height="24" viewBox="0 0 24 24" fill="none" xmlns="http://www.w3.org/2000/svg">
<path d="M8.18 4H10.28C10.5452 4 10.7996 3.89464 10.9871 3.70711C11.1746 3.51957 11.28 3.26522 11.28 3C11.28 2.73478 11.1746 2.48043 10.9871 2.29289C10.7996 2.10536 10.5452 2 10.28 2H8.18C7.91478 2 7.66043 2.10536 7.47289 2.29289C7.28536 2.48043 7.18 2.73478 7.18 3C7.18 3.26522 7.28536 3.51957 7.47289 3.70711C7.66043 3.89464 7.91478 4 8.18 4ZM3 11.28C3.26522 11.28 3.51957 11.1746 3.70711 10.9871C3.89464 10.7996 4 10.5452 4 10.28V8.18C4 7.91478 3.89464 7.66043 3.70711 7.47289C3.51957 7.28536 3.26522 7.18 3 7.18C2.73478 7.18 2.48043 7.28536 2.29289 7.47289C2.10536 7.66043 2 7.91478 2 8.18V10.28C2 10.5452 2.10536 10.7996 2.29289 10.9871C2.48043 11.1746 2.73478 11.28 3 11.28ZM14.46 4C14.46 4.26522 14.5654 4.51957 14.7529 4.70711C14.9404 4.89464 15.1948 5 15.46 5C15.7252 5 15.9796 4.89464 16.1671 4.70711C16.3546 4.51957 16.46 4.26522 16.46 4V3C16.46 2.73478 16.3546 2.48043 16.1671 2.29289C15.9796 2.10536 15.7252 2 15.46 2H14.46C14.1948 2 13.9404 2.10536 13.7529 2.29289C13.5654 2.48043 13.46 2.73478 13.46 3C13.46 3.26522 13.5654 3.51957 13.7529 3.70711C13.9404 3.89464 14.1948 4 14.46 4V4ZM21 7.54H16.46C16.46 7.27478 16.3546 7.02043 16.1671 6.83289C15.9796 6.64536 15.7252 6.54 15.46 6.54C15.1948 6.54 14.9404 6.64536 14.7529 6.83289C14.5654 7.02043 14.46 7.27478 14.46 7.54H8.54C8.27478 7.54 8.02043 7.64536 7.83289 7.83289C7.64536 8.02043 7.54 8.27478 7.54 8.54V14.46C7.27478 14.46 7.02043 14.5654 6.83289 14.7529C6.64536 14.9404 6.54 15.1948 6.54 15.46C6.54 15.7252 6.64536 15.9796 6.83289 16.1671C7.02043 16.3546 7.27478 16.46 7.54 16.46V21C7.54 21.2652 7.64536 21.5196 7.83289 21.7071C8.02043 21.8946 8.27478 22 8.54 22H21C21.2652 22 21.5196 21.8946 21.7071 21.7071C21.8946 21.5196 22 21.2652 22 21V8.54C22 8.27478 21.8946 8.02043 21.7071 7.83289C21.5196 7.64536 21.2652 7.54 21 7.54V7.54ZM20 20H9.54V15.47V9.54H20V20ZM4 2H3C2.73478 2 2.48043 2.10536 2.29289 2.29289C2.10536 2.48043 2 2.73478 2 3V4C2 4.26522 2.10536 4.51957 2.29289 4.70711C2.48043 4.89464 2.73478 5 3 5C3.26522 5 3.51957 4.89464 3.70711 4.70711C3.89464 4.51957 4 4.26522 4 4C4.26522 4 4.51957 3.89464 4.70711 3.70711C4.89464 3.51957 5 3.26522 5 3C5 2.73478 4.89464 2.48043 4.70711 2.29289C4.51957 2.10536 4.26522 2 4 2V2ZM4 14.46C4 14.1948 3.89464 13.9404 3.70711 13.7529C3.51957 13.5654 3.26522 13.46 3 13.46C2.73478 13.46 2.48043 13.5654 2.29289 13.7529C2.10536 13.9404 2 14.1948 2 14.46V15.46C2 15.7252 2.10536 15.9796 2.29289 16.1671C2.48043 16.3546 2.73478 16.46 3 16.46H4C4.26522 16.46 4.51957 16.3546 4.70711 16.1671C4.89464 15.9796 5 15.7252 5 15.46C5 15.1948 4.89464 14.9404 4.70711 14.7529C4.51957 14.5654 4.26522 14.46 4 14.46Z" fill="#ffffff"/>
</svg>
