<svg width="55" height="28" viewBox="0 0 55 28" fill="none" xmlns="http://www.w3.org/2000/svg">
<path d="M33.2102 19.3131C33.2461 19.5278 33.3088 19.7335 33.4074 19.9303V21.7194H33.3806C33.3268 21.7552 33.273 21.7999 33.2192 21.8357C33.2192 21.8536 33.2192 21.8715 33.2192 21.8894C33.2192 21.9162 33.2192 21.943 33.2192 21.9699V22.0325H30.3234V22.0146C30.2876 21.952 30.2517 21.8983 30.2069 21.8446L29.2566 21.7462C29.0504 21.9609 28.8083 22.1219 28.5304 22.2293H28.4856C27.7594 22.2293 27.3559 22.2651 26.9435 22.2651C26.5849 22.4261 26.2174 22.5513 25.8319 22.6229H25.805V22.605C25.6794 22.4708 25.6077 22.2919 25.6077 22.113C25.6077 21.9699 25.6346 21.8536 25.6346 21.791V21.0306L25.6615 21.0127C25.7243 20.9769 25.787 20.9322 25.8408 20.8696C25.8856 20.807 25.9036 20.7265 25.8946 20.646C25.8767 20.5118 25.8408 20.3865 25.796 20.2702V20.2166L25.8408 20.1897C25.9932 20.1182 26.1098 20.0019 26.1994 19.8588C26.2263 19.7872 26.2443 19.7067 26.2353 19.6351C26.2353 19.5099 26.2174 19.3847 26.1905 19.2594V19.2057L26.2353 19.1789C26.298 19.1431 26.3608 19.0984 26.4056 19.0447C26.4415 18.9821 26.4594 18.9105 26.4505 18.839C26.4415 18.7227 26.4236 18.6064 26.3877 18.4901V18.4364C26.3877 18.3291 26.5311 18.1412 26.5849 17.9534C26.6298 17.7655 26.6567 17.5777 26.6477 17.3809C26.6477 17.1125 26.6208 16.8442 26.576 16.5758C26.5491 16.4148 26.4863 16.2717 26.3877 16.1375C26.2443 15.6992 26.1725 15.2429 26.1815 14.7778C26.1905 14.1516 26.2532 13.5254 26.3698 12.9082L27.5083 9.87571C27.4366 9.81309 27.3739 9.74153 27.3201 9.66102C27.3111 9.62524 27.3111 9.58945 27.3201 9.55367C27.3201 9.48211 27.3201 9.44633 27.3201 9.37477V9.33004L27.338 9.31215C27.4904 9.16008 27.5801 8.96328 27.607 8.74859C27.607 8.65019 27.607 8.58757 27.607 8.52495C27.607 8.46234 27.607 8.47128 27.607 8.42656C27.6518 8.20292 28.1269 7.63042 28.1807 7.10264C28.1807 7.02213 28.1807 6.94162 28.1807 6.86111C28.1807 6.7001 28.1807 6.54802 28.1807 6.53908C28.4856 5.63559 28.9338 4.79473 29.5076 4.03437V3.32769H29.5345C29.6062 3.28296 29.669 3.22034 29.6959 3.13983C29.6959 3.08616 29.6959 3.13983 29.5972 3.00565H28.5842V2.96987C28.5483 2.88936 28.4945 2.82674 28.4318 2.76413C28.3511 2.69256 28.2435 2.65678 28.1359 2.66573C27.9207 2.69256 27.6966 2.73729 27.4904 2.79096C27.338 2.87147 27.2304 3.0146 27.1856 3.18456C27.0153 3.5871 26.9077 3.99859 26.8449 4.42797C26.6656 5.56403 26.4774 5.72505 26.2353 5.75188H26.1367C26.0291 5.75188 25.9215 5.8145 25.8856 5.92185L25.8408 5.97552L25.796 5.9129C25.7153 5.84134 25.5988 5.73399 25.5629 5.7161L25.5181 5.68927V5.63559C25.5808 5.49247 25.6077 5.34934 25.6077 5.19727C25.6077 4.99153 25.5181 4.89313 25.5091 4.66949C25.545 4.49059 25.6526 4.32957 25.796 4.22222V0.69774H32.3675V0.733523C32.484 0.921376 32.493 0.912431 32.493 0.912431H32.6454H32.7082V1.14501C32.5378 1.34181 32.4751 2.02166 31.9192 2.56733C31.9372 2.68362 31.9461 2.80885 31.9461 2.92514C31.9461 3.02354 31.9372 3.13089 31.9192 3.22929C31.8296 3.55132 31.6323 3.82863 31.3544 4.00753C31.3723 4.12382 31.3813 4.24906 31.3813 4.36535C31.3813 4.47269 31.3723 4.57109 31.3455 4.66949C31.211 5.00047 30.9779 4.8484 30.9689 5.23305C30.9689 5.23305 30.8613 5.95763 30.7627 6.42279C30.6641 6.88795 30.431 7.14736 30.431 7.49623C30.422 7.55885 30.422 7.61252 30.431 7.67514L30.3772 9.54473H30.3503C30.0724 9.71469 30.1172 10.7792 29.6152 11.307V11.9689C29.4628 12.3715 29.1759 12.3536 29.0504 12.8724V15.064L28.4766 16.71C28.4766 16.7726 28.4945 17.0052 28.4945 17.2646C28.4945 17.4077 28.4856 17.5598 28.4676 17.7029C28.3511 18.2128 28.1538 18.7048 27.8759 19.1521L27.7952 19.2863C27.7952 19.3041 27.7952 19.322 27.7952 19.331C27.7683 19.5457 27.7056 19.7604 27.6159 19.9661C27.5801 20.1182 27.5263 20.2702 27.4456 20.4044C27.4815 20.4581 27.5352 20.4939 27.598 20.5028C27.6518 20.4581 27.6966 20.4044 27.7235 20.3329L27.7594 20.2702L27.8221 20.2971C27.9207 20.3508 28.0373 20.3686 28.1538 20.3686C28.369 20.3686 28.5931 20.2881 28.8711 20.2881C28.9428 20.2881 28.9607 20.2255 28.9786 20.0734C28.9876 19.8945 29.0504 19.7246 29.1669 19.5904C29.4538 19.2863 30.0903 19.2236 30.2338 19.1163C31.0137 18.5796 31.3275 18.83 31.8385 18.0071L31.8834 17.9355L31.9461 17.9981C32.0089 18.0607 32.0716 18.1234 32.1254 18.186H33.0847V18.2218C33.2461 18.3559 33.3626 18.5438 33.4164 18.7495C33.2909 18.9195 33.2192 19.1163 33.2102 19.3131ZM38.0694 15.4576C38.0873 16.2359 38.0604 17.0141 37.9887 17.7834V17.8103H37.9707C37.7914 18.1055 37.657 18.4275 37.5852 18.7585C37.4866 19.1879 37.2983 19.5904 37.0384 19.9393V21.0306L37.0115 21.0485C36.7873 21.1827 36.7515 22.0235 36.4646 22.3724V23.0523L36.4377 23.0702C36.3839 23.1059 36.3301 23.1507 36.2763 23.1954V24.072L36.2494 24.0899C36.1687 24.1973 36.0522 24.2778 35.9177 24.3136C35.8729 24.3136 35.837 24.2957 35.8191 24.2599C35.7832 24.2688 35.7474 24.2867 35.7115 24.3046L35.6039 24.3672V23.1775L35.0302 21.299V20.7622C35.066 20.3239 34.0888 20.0108 34.0798 19.1073V19.0805C34.806 18.2486 35.2453 17.202 35.317 16.1017C35.3439 15.9854 34.824 15.6097 34.2681 15.3234C33.8288 15.1088 33.4164 14.8583 33.0219 14.581H32.6723L32.8337 15.064V16.1106C33.0937 16.1733 33.255 16.4863 33.4074 16.5132C33.4612 16.5221 33.5061 16.5669 33.5061 16.6205C33.3985 16.7994 33.2999 16.9783 33.2102 17.1662V17.2288H33.1385C33.1385 17.2288 32.5558 17.193 32.0716 17.193C31.8923 17.1841 31.713 17.202 31.5337 17.2288C30.6282 17.533 29.5883 17.9176 29.5883 17.9176H29.5345L29.5076 17.8729C29.2566 17.4614 29.4717 17.5777 29.2386 17.2467L29.2117 17.202L29.2386 17.1662C29.4269 16.8799 29.66 16.6205 29.92 16.3879C29.92 16.1196 29.9827 15.8602 30.0993 15.6097C30.2965 15.3145 30.7269 15.234 30.682 15.1266C30.6462 15.064 30.5924 15.0104 30.5207 14.9835L30.4848 14.9567V14.912C30.4848 14.912 30.5565 14.3037 30.6193 13.9727C30.6282 13.9101 30.6372 13.8564 30.6551 13.7938C30.6013 13.6238 30.5655 13.4449 30.5655 13.266C30.5565 13.1229 30.6013 12.9887 30.682 12.8724C30.7358 12.8187 30.7896 12.774 30.8524 12.7293V11.9063H30.8793C30.9779 11.8705 31.0496 11.7632 31.0406 11.6558C31.0406 11.5932 31.0406 11.629 30.9868 11.5843C30.8882 11.5395 30.8255 11.4322 30.8434 11.3159C30.8344 11.2622 30.8344 11.2175 30.8434 11.1638C30.8613 11.0744 30.8703 10.976 30.8703 10.8865C30.8703 10.6987 30.8255 10.5824 30.8255 10.4124C30.8255 10.323 30.8344 10.2425 30.8613 10.162C30.9689 9.92938 31.1034 9.70575 31.2558 9.5C31.3992 9.16008 31.471 8.79332 31.471 8.42656V8.38183H31.5068C31.9461 8.15819 31.6861 7.19209 32.0178 6.42279C32.1344 6.08286 32.3137 5.76978 32.5468 5.49247C32.5468 5.47458 32.5468 5.44774 32.5468 5.42985C32.5468 5.29567 32.484 5.17938 32.4751 5.02731C32.4751 4.9468 32.502 4.87524 32.5468 4.81262C32.6006 4.75 32.6633 4.70527 32.7351 4.66055C32.8426 4.29379 32.9771 3.92703 33.1475 3.5871C33.2281 3.37241 33.3537 3.18456 33.524 3.02354V2.15584L33.5509 2.13795C33.6136 2.10217 33.6674 2.04849 33.6943 1.97693C33.7481 1.86959 33.8378 1.78013 33.9543 1.72646C34.1336 1.72646 34.1516 1.54755 34.1605 1.28814C34.1605 1.21657 34.1605 1.14501 34.1605 1.07345C34.1605 0.805085 34.2054 0.483052 34.5729 0.483052C35.2095 0.509888 35.1377 1.5565 35.2095 1.6549C35.7205 2.77307 35.8639 2.59416 35.8818 2.87147V3.43503C35.8818 3.91808 36.5722 5.7161 36.5811 5.72505L37.1818 8.08663C37.2446 8.1403 37.2894 8.18503 37.3521 8.22081H37.379V9.06168C37.4956 9.15113 37.5763 9.28531 37.5852 9.42844C37.5852 9.50895 37.5583 9.56262 37.5673 9.5984C37.5852 9.68785 37.648 9.76836 37.7376 9.80414H37.7645V10.9223H37.7107C37.7107 10.9223 37.7107 10.9581 37.7107 10.976C37.7466 11.6648 37.8363 12.3446 37.9707 13.0245V13.0603C38.0514 13.427 38.0694 14.4468 38.0694 15.4576ZM33.2999 12.613C33.3088 12.7293 33.2999 12.8366 33.273 12.944V12.9708C33.3895 12.9619 33.5061 12.9619 33.6226 12.9708C33.8109 12.9708 33.9992 12.9887 34.1874 13.0245C34.7433 13.1408 35.066 13.5344 35.4157 13.6417H35.577C35.577 13.3734 35.6039 12.4162 35.6039 11.6469C35.6039 11.2086 35.6039 10.8508 35.577 10.7166C35.4694 10.5019 35.4157 10.2604 35.4246 10.0278C35.4336 9.76836 35.3529 9.50895 35.2095 9.29426C34.9853 9.07957 34.6895 9.19586 34.4205 8.91855C34.2681 8.72175 34.1516 8.50706 34.0709 8.27448L34.044 9.15113V9.18691H34.0171C33.9005 9.29426 33.8288 9.42844 33.8019 9.58051C33.7661 9.74153 33.6316 9.87571 33.4702 9.91149C33.4792 10.3319 33.4164 10.7524 33.2819 11.1549C33.273 11.2444 33.273 11.3428 33.2819 11.4322C33.2371 11.7811 33.2999 12.2641 33.2999 12.613ZM25.3746 16.0301L25.2939 16.048C24.9981 16.1106 25.1326 16.3522 24.8905 16.6116C24.8367 16.8889 24.8188 17.1751 24.8367 17.4524C24.8367 18.3023 24.8995 19.4562 24.8995 19.4562V19.5367H24.8278C24.5588 19.5904 24.3167 19.7246 24.1285 19.9124L24.1105 19.9482H21.923L21.9051 19.9124C21.7796 19.7156 21.7796 19.7156 21.7706 19.7246C21.7617 19.7335 21.672 19.7246 21.5375 19.7246C21.3941 19.7067 21.2506 19.7782 21.17 19.9035C21.1072 20.0466 20.9638 20.1361 20.8113 20.145C20.5782 20.1003 20.3541 19.9929 20.1748 19.8409H18.6776V19.8051C18.57 19.7156 18.4983 19.5904 18.4714 19.4562C18.4983 19.3847 18.5431 19.322 18.6059 19.2684L18.7404 19.1252V17.8639H18.7673C18.9466 17.7298 18.9287 17.7476 18.9376 17.7119C18.9466 17.6761 18.9376 17.6403 18.9376 17.5687C18.9376 17.5598 18.9376 17.5508 18.9376 17.5508L18.9107 17.4793C18.8838 17.4167 18.848 17.3362 18.8121 17.2557C18.7583 17.1304 18.6866 17.0141 18.5969 16.9157L18.5342 16.871L18.579 16.8173C18.6507 16.7189 18.6956 16.6026 18.6956 16.4774C18.6956 16.3432 18.6507 16.218 18.57 16.1196C18.5611 16.0212 18.5611 15.9138 18.57 15.8154C18.57 15.2161 18.7852 14.4915 18.7852 14.1427V14.0443L18.8121 14.0264C19.0004 13.919 18.9376 13.2928 19.1707 12.8187C19.359 12.4878 19.5831 12.1836 19.8431 11.8974C19.9238 11.2891 20.2107 10.7255 20.6589 10.2961C20.7038 10.0815 21.0444 8.38183 21.3851 7.87194C21.4658 7.80038 21.5555 7.72882 21.6451 7.6662L21.8603 7.51412C21.8603 7.40678 21.9948 7.0758 22.6223 6.51224C22.5596 6.29755 22.5327 6.06497 22.5327 5.84134C22.5237 5.64454 22.5685 5.44774 22.6402 5.26883C23.0526 4.97364 23.2947 4.30273 23.9671 3.69445V2.33475L21.8513 2.31686C21.5375 2.61205 20.7127 2.63889 20.7038 3.73917V3.81074H20.6141C20.4707 3.82863 20.3272 3.8823 20.2017 3.96281C20.0583 4.02542 19.9597 4.15066 19.9238 4.30273V5.84134C19.8431 6.11864 19.7086 6.37806 19.5293 6.6017L19.4845 6.67326L19.4217 6.61064C19.3142 6.53013 19.2424 6.4049 19.2424 6.27072C19.2424 6.19915 19.2424 6.14548 19.2424 6.1097C19.2335 6.0113 19.1707 5.93079 19.0811 5.89501H19.0542V5.85028C19.0542 5.85028 19.0004 5.45669 18.9555 5.20622C18.9555 5.10782 18.9376 5.00942 18.9018 4.91996L18.8569 4.89313V4.83945C18.9555 4.5532 19.0183 4.258 19.0362 3.96281C19.0542 3.77495 18.9914 3.5871 18.8749 3.44397C18.8211 3.3903 18.7583 3.33663 18.6956 3.30085H18.6687V1.44021C18.7673 1.31497 18.8211 1.1629 18.848 1.00188C18.848 1.00188 18.848 0.975047 18.848 0.966102V0.885594H18.9287C21.6272 0.885594 21.8782 0.885594 24.5319 0.885594H24.6036V1.95904C24.6036 2.12006 24.7829 2.14689 24.7919 2.4242V5.9129L24.765 5.93079C24.5947 6.10075 24.514 6.34228 24.5319 6.58381C24.5319 6.75377 24.5588 6.92373 24.5947 7.09369V7.13842L24.5498 7.16526C23.994 7.54991 23.7071 9.09746 23.3754 9.49106V10.3677H23.3306C23.3306 10.3677 22.5596 10.6987 22.4161 11.1012C22.3803 11.2086 22.3623 11.3249 22.3713 11.4411C22.3713 11.6022 22.3892 11.7721 22.4251 11.9331V11.9958L22.3713 12.0137C21.7437 12.2552 20.7217 15.0998 20.7396 15.2429V15.7618H20.6589L20.6948 15.7976C20.6769 15.8244 20.6679 15.8423 20.6589 15.8691C20.632 15.9317 20.5962 16.0301 20.5424 16.1464C20.4527 16.3879 20.3362 16.701 20.2196 17.0231C20.0762 17.5598 19.8969 18.0786 19.6728 18.5796C19.7714 18.7316 19.7803 18.7316 19.7893 18.7316C19.7983 18.7316 19.87 18.7316 19.9597 18.7316C20.13 18.7316 20.2017 18.6332 20.9279 18.2933C21.2417 18.2844 21.5555 18.2128 21.8334 18.0876C22.0575 17.8282 22.2547 17.5419 22.4251 17.2467C22.6492 16.8352 23.0526 16.54 23.5188 16.4416C23.5637 16.1464 23.6802 15.8691 23.8685 15.6365L23.9312 15.5739L23.9761 15.6544C24.003 15.7081 24.0388 15.7618 24.0747 15.8065C24.6843 15.5292 24.4064 15.234 24.7291 14.8493V14.8225H25.267V14.8941C25.267 14.8941 25.267 14.9656 25.267 15.0819C25.267 15.3771 25.3119 15.6634 25.4015 15.9407L25.3746 16.0301ZM9.049 17.3093C9.049 17.5419 9.18348 18.0071 9.18348 18.4364C9.18348 18.5348 9.17452 18.6422 9.15659 18.7406C9.0759 19.0716 8.96832 19.3936 8.82487 19.6977C8.60971 20.0019 8.4304 20.3239 8.26903 20.6549C8.13455 21.0843 8.0449 21.5226 8.00008 21.9788V22.0235H7.96421C7.54285 22.2203 7.13942 22.444 6.75391 22.7034C6.40427 22.9002 6.09945 23.1686 5.87532 23.5085V23.5532H5.8305C5.4181 23.6069 5.01466 23.6874 4.62019 23.7947C4.60226 23.7947 4.58433 23.8037 4.5664 23.8126C4.52158 23.8752 4.45882 23.92 4.37813 23.9289C4.154 23.8931 4.10918 23.6337 3.95677 23.6516C3.84919 23.6695 3.74161 23.7232 3.67885 23.8126C3.57127 24.0273 3.29335 24.0273 2.9706 24.0273C2.58509 24.0184 2.19063 23.9826 1.81409 23.92C1.74237 23.9468 1.66168 23.9647 1.58099 23.9557C1.37479 23.9557 1.10584 23.911 0.962394 23.911H0.890673L0.854812 24.0273L0.792055 23.9647C0.711368 23.8931 0.594821 23.7858 0.55896 23.7679L0.433447 23.6874L0.567925 23.6427C0.774125 23.5622 0.962394 23.4637 1.1417 23.3385V23.3117C1.1417 23.2848 1.16859 23.2312 1.18652 23.1775C1.20445 23.1238 1.26721 22.9091 1.31204 22.7392C1.40169 22.3903 1.50031 21.9609 1.56306 21.6299C1.56306 20.5118 1.62582 19.9393 1.62582 19.3578C1.62582 19.0358 1.60789 18.7137 1.56306 18.3917C1.56306 18.2575 1.48238 17.2288 1.39272 16.4774C1.39272 15.2698 1.46444 14.0353 1.46444 13.3018C1.46444 13.1587 1.46444 13.0424 1.46444 12.944V12.8366H1.53617C1.63478 12.8277 1.72444 12.7651 1.76926 12.6667L1.7334 11.6916L1.58996 11.3875V9.992C1.61685 9.83993 1.67961 9.70575 1.76926 9.58051C1.79616 9.48211 1.80512 9.38371 1.79616 9.29426C1.79616 9.1064 1.79616 8.90961 1.77823 8.85593L1.58099 8.52495V3.6855H1.60789C1.78719 3.55132 1.78719 3.55132 1.78719 3.52448C1.78719 3.49765 1.78719 3.41714 1.78719 3.27401C1.78719 3.13089 1.78719 3.06827 1.78719 3.05038C1.74237 3.00565 1.70651 2.95198 1.67064 2.89831H1.50927C1.50031 2.92514 1.47341 2.94303 1.44651 2.94303C1.41962 2.94303 1.38376 2.94303 1.36583 2.92514H1.30307C1.26721 2.9162 1.24032 2.88936 1.24928 2.85358C1.24928 2.83569 1.25825 2.80885 1.27618 2.79991L1.17756 2.68362L0.54103 2.08428C0.505169 2.01271 0.460343 1.95904 0.397587 1.90537C0.352761 1.87853 0.325865 1.82486 0.33483 1.78013C0.33483 1.74435 0.33483 1.69068 0.33483 1.58333C0.3169 1.48494 0.325865 1.37759 0.370691 1.28814C0.433447 1.22552 0.487239 1.1629 0.532065 1.08239V1.04661H1.58099C1.82305 0.948212 2.08304 0.885594 2.34303 0.876648C2.70164 0.831921 3.06922 0.805085 3.19473 0.805085L4.18987 0.831921C5.2119 0.831921 5.58844 0.733523 6.11738 0.733523C6.41324 0.733523 6.70909 0.760358 6.99597 0.814031H7.0408V0.858758C7.14838 1.10028 7.33665 1.29708 7.56975 1.41337H7.67733C7.85663 1.41337 8.02697 1.4581 8.17938 1.5565C8.77108 2.06639 9.12969 2.79096 9.16555 3.56921C9.16555 4.11488 9.29106 4.63371 9.29106 5.03625C9.30899 5.25094 9.24624 5.46563 9.10279 5.62665L8.39454 6.95057C8.06283 7.48729 7.68629 7.99718 7.27389 8.47128C7.32768 8.55179 7.39941 8.62335 7.48906 8.66808C7.69526 8.78437 7.91939 8.84699 8.15248 8.86488C8.29593 8.88277 8.40351 9.00801 8.40351 9.16008C8.37661 9.36582 8.30489 9.55367 8.17938 9.72364C8.17041 9.74153 8.17041 9.75942 8.17938 9.77731C8.17938 9.83993 8.19731 9.90254 8.22421 9.95622C8.23317 9.992 8.26007 10.0188 8.29593 10.0278C8.29593 10.0278 8.29593 10.0278 8.32282 10.0009L8.36765 9.92938L8.41247 9.97411C8.57385 10.0815 8.6904 10.2335 8.75315 10.4124C8.75315 10.4393 8.69936 10.3856 8.93246 10.5645L8.96832 10.5913V10.6361C8.8697 11.0654 8.81591 11.5127 8.80694 11.96C8.79798 12.2731 8.85177 12.5862 8.95935 12.8724C9.01314 13.0334 9.33589 13.1139 9.36279 13.3555C9.36279 13.4091 9.33589 13.4628 9.30003 13.4986C9.30003 13.5702 9.30003 13.7491 9.30003 13.9369C9.30003 14.0622 9.30003 14.1963 9.30003 14.3037C9.30003 14.3305 9.30003 14.3484 9.30003 14.3752C9.30003 14.9746 9.40761 15.5471 9.40761 16.0749C9.43451 16.4774 9.31796 16.871 9.08486 17.202C9.05797 17.2378 9.049 17.2825 9.05797 17.3272H9.049V17.3093ZM6.4491 4.15066C6.44013 4.11488 6.45806 4.0791 6.48496 4.06121L6.76288 3.86441C6.4491 3.75706 6.17117 3.94492 5.91118 3.42608H5.82153L4.9788 3.55132L5.03259 3.43503C5.05052 3.40819 5.05949 3.37241 5.05949 3.34558L4.98777 3.38136C4.96087 3.47081 4.94294 3.56026 4.94294 3.64972C4.93398 3.76601 4.86225 3.85546 4.75467 3.90019V7.54991C4.81743 7.53202 4.88019 7.51412 4.95191 7.51412C5.02363 7.51412 5.09535 7.53202 5.15811 7.57674C5.53464 7.46045 5.38224 6.53013 6.48496 6.4049C6.48496 6.3065 6.48496 6.15443 6.48496 5.96657C6.48496 5.52825 6.48496 5.00942 6.67323 4.80367C6.57461 4.58004 6.50289 4.37429 6.4491 4.15066ZM6.6015 17.1483C6.6015 17.0231 6.67323 16.9068 6.66426 16.8263C6.66426 16.7726 6.6284 16.7189 6.58357 16.6921L6.49392 16.6384L6.58357 16.5758C6.63736 16.54 6.66426 16.4863 6.6553 16.4237C6.6553 16.2001 6.40427 15.8065 6.3953 15.4308C6.38634 15.2429 6.47599 15.073 6.6284 14.9567C6.67323 14.7509 6.61943 14.5452 6.49392 14.3842C6.34151 14.2232 6.27876 14.0085 6.31462 13.7938C6.31462 13.5791 6.50289 13.2034 6.50289 12.9798C6.51185 12.9261 6.49392 12.8814 6.4491 12.8456L6.38634 12.8098L6.41323 12.7472C6.44909 12.6846 6.45806 12.613 6.45806 12.5414C6.44909 12.3804 6.38634 12.2283 6.27876 12.1031L6.17117 11.9868H6.32358H6.36841C6.30565 11.8884 6.25186 11.7721 6.216 11.6648C6.216 11.6201 6.23393 11.5843 6.26979 11.5574C6.28772 11.5395 6.29669 11.5127 6.29669 11.4859C6.23393 11.3159 6.13531 11.1638 6.00084 11.0476C5.71395 10.8776 5.45396 10.6718 5.2119 10.4393L4.73674 9.94727C4.73674 10.1977 4.73674 10.645 4.73674 11.0565C4.73674 11.3517 4.73674 11.629 4.73674 11.8079V11.8258C4.64709 11.96 4.60226 12.121 4.61123 12.291C4.6202 12.5862 4.65606 12.8814 4.72778 13.1676L4.52158 14.1516H4.49468C4.40503 14.1784 4.35124 14.2589 4.35124 14.3484C4.35124 14.3484 4.35124 14.3484 4.35124 14.3663C4.35124 14.4647 4.40503 14.5452 4.49468 14.581H4.53951V18.177V18.1949C4.45882 18.2486 4.39607 18.3291 4.36917 18.4186C4.36917 18.4812 4.36917 18.5348 4.34227 18.5617C4.34227 18.5885 4.32434 18.6064 4.31538 18.6243C4.31538 18.8121 4.31538 19.2326 4.31538 20.145C4.31538 20.145 4.31538 20.6191 4.34227 20.807C4.35124 20.8249 4.35124 20.8428 4.34227 20.8517C4.28848 21.0038 4.2078 21.1558 4.12711 21.29L3.99263 21.5405C4.16297 21.5226 4.34227 21.4868 4.50365 21.4331L4.94294 21.0306H4.96984C5.29258 21.0306 5.69602 20.3508 5.96497 20.154C6.23393 19.9572 6.11738 19.1521 6.23393 18.517V18.5348V18.4991C6.23393 18.4722 6.26083 18.4186 6.27876 18.3649C6.29669 18.3112 6.35944 18.1055 6.40427 17.9623C6.47599 17.7298 6.52082 17.4882 6.55668 17.2467C6.56564 17.2199 6.58357 17.1751 6.6015 17.1483ZM46.0484 20.4134C46.0932 20.4939 46.1201 20.5923 46.1201 20.6907C46.1201 20.8159 46.0932 20.9322 46.0394 21.0396C45.9318 21.2811 46.0036 21.3437 45.5463 23.5621V23.6427L45.4746 23.6248C45.1698 23.5443 44.865 23.419 44.596 23.258C43.5829 22.274 43.314 22.2114 42.8837 22.2114H42.534V22.1577C42.534 22.1309 42.534 22.113 42.534 22.0862C42.534 21.7462 43.1078 20.4492 43.2064 19.8856C43.2692 19.2684 43.2961 18.6511 43.2871 18.025C43.2961 17.8192 43.2961 17.6135 43.2871 17.4077C43.2243 16.8352 43.1168 16.2717 42.9823 15.7081C42.8119 14.9209 42.5071 14.1427 42.3009 14.1248H42.2382V14.0621C42.292 13.6238 42.4175 12.9887 42.4175 12.7382C42.4264 12.7114 42.4264 12.6935 42.4175 12.6667C42.1396 12.1299 41.5747 11.0744 41.243 10.9044C41.252 10.9939 41.261 11.0744 41.261 11.1638C41.243 11.4233 41.1623 11.6648 41.0368 11.8884C40.9472 12.0226 40.8844 12.1747 40.8486 12.3267V12.3536C40.8486 12.8545 41.3416 16.8531 41.3416 17.2288V17.2825L41.243 17.363C41.2251 17.3809 41.2161 17.3988 41.2072 17.4167C41.1713 17.4614 41.1534 17.5151 41.1534 17.5687C41.2251 17.6761 41.2789 17.7834 41.3237 17.9087C41.3237 18.1412 41.3596 18.4186 41.3596 18.7048C41.3775 19.0984 41.3148 19.4831 41.1892 19.8498C41.2161 20.2881 41.3865 21.3169 41.3865 21.8178C41.3954 21.8804 41.3954 21.9341 41.3865 21.9967C41.3416 22.0593 41.2879 22.113 41.2161 22.1488C41.2341 22.274 41.243 22.3993 41.243 22.5245C41.2341 22.9449 41.1713 23.3654 41.0637 23.7768L41.0099 24.0184L40.9293 23.7858C40.6065 22.8912 40.0507 22.1041 39.2976 21.5137C38.7417 21.0485 38.2935 20.9143 38.2576 20.637C38.2576 20.637 38.93 18.2754 39.2169 17.9981C39.2528 17.9087 39.2617 17.8192 39.2528 17.7208C39.2528 17.5419 39.2348 17.363 39.2079 17.193C39.1541 17.1662 39.0914 17.1394 39.0376 17.1215L39.0017 17.1036V17.0589C39.0017 17.0231 39.0017 16.4058 39.0017 15.6276C39.0017 14.1337 39.0017 11.9958 39.0017 11.7721C38.9659 11.6469 38.9479 11.5217 38.93 11.3875H38.9031L38.8135 10.5734C38.7328 10.4572 38.688 10.2425 38.6521 10.2335H38.6252V10.162C38.6252 10.162 38.6252 9.95622 38.6252 9.75942C38.6252 9.66996 38.6252 9.58051 38.6252 9.50895C38.5893 9.42844 38.5714 9.33898 38.5624 9.24953C38.5535 9.15113 38.5355 9.06168 38.5086 8.97222L38.4728 8.95433V8.90961C38.4728 8.90961 38.4728 8.89172 38.4728 8.84699C38.4818 8.65913 38.4459 8.46234 38.3831 8.28343C38.3204 8.14925 38.2935 7.99718 38.3114 7.84511C38.3114 7.71987 38.2935 7.58569 38.2756 7.46045H38.2576V6.47646C38.15 6.39595 38.0783 6.27966 38.0604 6.14548C38.0604 6.11865 38.0604 6.09181 38.0604 6.08286C38.0245 6.02025 37.9707 5.96657 37.899 5.93079H37.8721V5.89501C37.8363 5.59981 37.8273 5.30462 37.8273 5.01836C37.8273 4.72317 37.8363 4.42797 37.8721 4.14171V4.10593C38.1859 3.80179 39.0645 3.35452 39.6383 2.54944C39.4948 2.49576 39.1183 2.37947 39.0555 2.36158L39.0286 2.39736C38.9928 2.45104 38.9479 2.48682 38.8852 2.51365C38.8224 2.54049 38.7507 2.55838 38.679 2.56733C38.6073 2.55838 38.5355 2.54049 38.4728 2.49576H38.4369V2.45104C38.3204 2.04849 38.0694 1.69962 37.7287 1.46704C37.397 1.17185 37.1011 1.00188 36.9935 0.912431L36.2942 0.760358V0.617233L39.0645 0.545669C39.2079 0.456215 39.3783 0.411489 39.5486 0.420434C39.6921 0.411489 39.8176 0.491996 39.8714 0.626177H40.8755H40.9203L41.1265 0.733523L41.6554 0.903485L42.4085 1.12712H42.5878C42.6685 1.11817 42.7402 1.11817 42.8209 1.12712C43.1526 1.18974 43.4574 1.34181 43.6995 1.56544C43.834 1.69962 43.9864 1.82486 44.1388 1.9322H44.1836L45.1608 3.98964C45.1967 4.13277 45.2057 4.28484 45.1967 4.42797C45.1967 4.77684 45.1698 5.21516 45.1698 5.21516V5.25094H45.1429C45.116 5.31356 45.0891 5.37618 45.0712 5.4388C45.0532 5.5193 45.0174 5.59981 44.9815 5.68032C44.9815 5.78767 44.9815 5.9129 44.9815 6.02025C44.9815 6.27072 44.9815 6.45857 44.9815 6.5033C44.6229 7.90772 43.9595 9.03484 42.7402 9.07957C42.7402 9.24953 42.7402 9.35688 42.7402 9.42844C42.7492 9.52684 42.7044 9.62524 42.6237 9.68785H42.6685C42.8119 9.68785 42.9375 9.63418 43.1078 9.63418C43.3319 9.63418 43.583 9.75942 43.9864 10.2604C44.1657 10.4035 44.2553 10.6271 44.2374 10.8508C44.2374 10.8955 44.2374 10.9044 44.2733 10.9044C44.3719 10.9402 44.4615 10.976 44.5512 11.0207C44.605 11.0476 44.6408 11.1012 44.6408 11.1638C44.6408 11.1817 44.6408 11.2086 44.6408 11.2265C44.6408 11.307 44.6677 11.3785 44.7036 11.4501C44.7395 11.6648 44.7843 11.8795 44.856 12.0852C44.9367 12.4251 44.9636 12.783 44.9546 13.1318C44.9546 13.4449 44.9815 13.758 45.0353 14.0711C45.0712 14.1069 45.0891 14.1605 45.0891 14.2053C45.0891 14.2679 45.107 14.3395 45.125 14.411C45.125 14.5094 45.1698 14.5989 45.2415 14.6525C45.2684 14.6525 45.2953 14.6347 45.3222 14.6257L45.385 14.581L45.4208 14.6525C45.5194 14.8404 45.7525 16.7368 45.7794 16.8889V16.9157V16.9426C45.7167 17.1662 45.6718 17.4077 45.6629 17.6403C45.7167 17.6761 45.7884 17.7029 45.8601 17.7119H45.887V17.7387C46.0125 17.9534 46.1022 18.1949 46.147 18.4364V18.4633V18.4901C46.1022 18.5438 46.0753 18.6153 46.0753 18.6869C46.1111 18.9016 46.138 19.1073 46.147 19.322C46.138 19.653 46.1022 19.9929 46.0304 20.315L46.0484 20.4134ZM42.5609 6.73588C42.5609 6.59275 42.5788 6.45857 42.6057 6.31544V6.22599H42.6506L42.6775 6.16337C42.6954 6.1097 42.7133 6.05603 42.7492 6.0113V5.62665C42.7671 5.55509 42.7761 5.48352 42.7671 5.40301C42.7671 5.1436 42.6954 4.88418 42.5609 4.6516C42.5609 4.6516 42.274 4.24011 41.9244 3.82863C41.5837 3.41714 41.1713 3.0146 41.0099 3.02354H40.8486V8.65913H41.0727C41.1444 8.66808 41.2161 8.66808 41.2879 8.65913C41.5568 8.60546 41.8078 8.47128 42.0051 8.27448C42.2292 7.80932 42.4085 7.33522 42.5609 6.84322C42.5609 6.81638 42.5609 6.7806 42.5609 6.73588ZM53.3281 9.01695C53.3461 9.33004 53.3192 9.65207 53.2564 9.96516C53.2026 9.96516 53.113 10.314 52.9964 10.4572C52.9964 10.5019 52.9964 10.5466 52.9964 10.6003C52.9964 10.8329 53.0233 11.1012 53.0233 11.3606C53.0323 11.5843 52.9964 11.799 52.8978 11.9958C52.7992 12.2373 52.6468 12.4609 52.4585 12.6488L52.2702 13.6238C52.1985 13.8475 52.1537 14.08 52.1268 14.3126C52.1268 14.4915 52.2344 15.9228 52.2344 16.9962C52.2523 17.363 52.2254 17.7298 52.1626 18.0965C52.0461 18.4096 52.0013 18.7406 52.0192 19.0805C52.0192 19.17 52.0192 19.2684 52.0192 19.3668C52.0371 19.7425 51.9833 20.1092 51.8578 20.467L51.6606 21.5405C51.5889 21.8446 51.4544 22.1309 51.2661 22.3814C51.2213 22.4976 51.1585 22.605 51.0599 22.6944C50.9972 22.7302 50.9434 22.775 50.8985 22.8286C50.8179 23.0523 50.4234 23.1059 49.9751 23.267C49.5358 23.3654 49.1055 23.4995 48.6842 23.6784H48.6304C48.4242 23.6784 48.1642 23.4369 48.0655 23.4459C47.9221 23.589 47.7249 23.6784 47.5187 23.6874C47.2676 23.7411 47.0077 23.7679 46.7477 23.7679C46.6759 23.7768 46.6132 23.7679 46.5504 23.7411L46.4608 23.6963L46.5146 23.6069C46.8642 23.2491 47.0794 22.7839 47.1242 22.283C47.1242 22.2561 47.1242 22.2203 47.1242 22.1846C47.0973 21.8267 47.0256 21.4779 46.9001 21.138L46.8732 21.0753L46.9359 21.0485C47.2139 20.9501 47.7876 20.6817 47.7428 20.5744C47.7518 20.5476 47.7518 20.5207 47.7428 20.4939H47.7159C47.6531 20.5028 47.5904 20.467 47.5635 20.4134L47.3394 19.8588L46.9539 18.9821L47.3035 15.4934C46.9001 14.8851 46.6042 14.2142 46.4428 13.5075V12.944C46.4428 12.783 46.2725 12.7561 46.2546 12.5057C46.2546 12.5057 46.2098 11.8169 46.2098 11.298C46.2008 11.1191 46.2187 10.9402 46.2456 10.7702C46.2008 10.7255 46.147 10.6897 46.1022 10.654L46.0663 10.6182L46.147 9.29426C46.1111 9.19586 46.0842 9.09746 46.0753 8.99906C46.0573 8.88277 46.0394 8.76648 46.0125 8.65019L46.0036 8.59652V4.68738L46.0394 4.66949C46.0932 4.63371 46.147 4.58898 46.2008 4.54426V3.04143H46.2366C46.2904 2.9967 46.3442 2.95198 46.398 2.89831V1.81591C46.2008 1.62806 44.7753 0.250471 44.6946 0.178908L44.596 0.0626188H45.6987V0.0983998C45.7346 0.161018 45.7705 0.214689 45.8153 0.268362H46.4608V0.322034C46.4608 0.509888 47.3663 0.617233 47.7876 1.09134H48.4152V1.12712C48.478 1.22552 48.5497 1.31497 48.6304 1.40443H49.2579L49.2759 1.44021C49.3117 1.50283 49.3476 1.5565 49.3924 1.61017H50.2172V1.64595C50.2531 1.70857 50.2889 1.76224 50.3337 1.81591H51.2123L51.2303 1.8517C51.5082 2.31686 52.073 2.621 52.1895 2.83569C52.835 4.19539 52.7095 4.31168 52.9337 4.4548H52.9605L52.9068 6.42279C52.9516 6.52119 52.9874 6.62853 53.0143 6.73588C53.0412 6.84322 53.0771 6.95951 53.1219 7.05791H53.1399V7.09369C53.1399 7.10264 53.3192 8.18503 53.3281 9.01695ZM50.4324 12.2552C50.4055 11.9331 50.5489 11.629 50.8089 11.4322C50.8448 11.2354 50.9792 10.314 51.2482 10.0546V8.17608C51.1048 7.98823 51.0061 7.77354 50.9792 7.54096C50.9434 7.34416 50.8896 7.14737 50.8358 6.95057C50.6117 6.62853 50.1544 6.51224 50.1096 6.00236C49.6703 5.95763 49.5896 5.56403 49.4103 5.59981C49.0517 5.59981 48.8545 5.57298 48.5855 5.57298H48.2897L48.218 6.28861L48.2717 6.53908C48.2717 6.53908 48.3524 8.61441 48.3524 9.39266C48.3524 9.45527 48.3524 9.51789 48.3524 9.56262C48.3524 9.5984 48.3973 9.64313 48.4152 9.68785L48.4959 9.87571V9.90254C48.5228 10.314 48.6393 10.7166 48.8366 11.0744H48.8724L48.8455 20.1808C49.3655 19.5904 49.6883 18.8479 49.76 18.0697C49.76 18.0428 49.76 18.0071 49.76 17.9534C49.9751 17.2199 50.1993 16.9783 50.28 16.5579C50.28 16.3253 50.28 12.8187 50.4144 12.3536C50.4234 12.3178 50.4234 12.282 50.4324 12.2552ZM17.9694 20.1271L17.8528 20.0734C17.7632 20.0377 17.6646 20.0108 17.5749 20.0108H17.4135H17.3687C17.2701 20.0198 17.1625 20.0556 17.0818 20.1092H17.046L17.0101 20.0824C16.768 20.0108 16.517 19.984 16.257 20.0019C15.755 19.9929 15.2619 20.0466 14.7778 20.1629C14.6702 20.3239 14.5178 20.4492 14.3385 20.5118C14.3116 20.5118 14.2757 20.4939 14.2578 20.476C14.1592 20.4134 14.0695 20.3418 13.9888 20.2613L13.9261 20.2166L13.9709 20.154C14.5267 19.4652 14.213 19.6709 14.8495 19.2505C14.975 18.4364 15.0378 17.6045 15.0109 16.7815V16.5937H15.0378C15.2081 16.4595 15.1991 16.4595 15.2081 16.4148C15.2081 16.3701 15.2081 16.3253 15.2081 16.2359C15.1184 16.0391 15.0557 15.8244 15.0198 15.6186C15.0109 15.3234 15.0915 15.0283 15.2619 14.7867L15.2171 6.64642H15.244C15.2888 6.61064 15.3336 6.57486 15.3784 6.54802H15.4053C15.4053 6.53908 15.4053 6.53013 15.4053 6.53013C15.3695 6.45857 15.2977 6.4049 15.2171 6.38701V6.36017L14.9571 2.20951C14.8853 2.04849 14.7329 1.9322 14.5536 1.91431C14.3833 1.90537 14.2309 1.79802 14.1502 1.64595C14.0426 1.67279 13.9261 1.64595 13.8364 1.57439C13.7737 1.47599 13.693 1.39548 13.5944 1.33286L13.5316 1.28814L13.5764 1.22552C13.6482 1.13607 13.7378 1.01977 13.7647 0.975048L13.7916 0.921375H13.8454C14.4819 1.00188 15.1184 1.02872 15.755 1.01083C16.3108 1.02872 16.8667 1.00188 17.4225 0.930321L17.4763 0.912431L17.5032 0.966102C17.5749 1.07345 17.6556 1.17185 17.7363 1.2613V1.67279H17.6825C17.2163 1.79802 16.7142 2.2274 16.7232 2.57627C16.7232 2.85358 16.7591 2.84463 16.777 2.85358C16.8936 2.92514 16.9473 3.05932 16.9115 3.1935C16.9204 3.32769 16.8487 3.45292 16.7411 3.53343C16.6694 3.56921 16.6246 3.63183 16.6246 3.71234C16.6246 4.32062 16.7142 5.97552 16.7142 7.371C16.7232 7.9435 16.6963 8.52495 16.6336 9.08851C16.6874 9.16902 16.7142 9.25848 16.7142 9.34793C16.7232 9.44633 16.7501 9.55367 16.777 9.64313H16.8039L16.9115 10.2425L16.8756 10.2693C16.8129 10.314 16.7501 10.3588 16.6963 10.4124C16.5887 10.5466 16.5439 10.7076 16.5529 10.8776C16.5529 11.0565 16.5887 11.2265 16.5887 11.3159C16.5798 11.3875 16.5798 11.459 16.5887 11.5395C16.5887 11.7363 16.6067 11.9242 16.6515 12.1121C16.6694 12.2373 16.6515 12.4878 16.6784 12.6309C16.6694 12.6488 16.6694 12.6667 16.6784 12.6846H16.7053V12.7203C16.7232 12.8456 16.7322 12.9708 16.7322 13.0871C16.7322 13.2302 16.7232 13.3823 16.7053 13.5254V13.5523H16.6874C16.6246 13.597 16.5618 13.6417 16.508 13.6954C16.4094 13.7759 16.3467 13.9011 16.3467 14.0353C16.4363 14.4021 16.4991 14.7688 16.5349 15.1445V15.2161C16.5977 15.4666 16.6874 15.7081 16.7949 15.9317L16.8218 15.9496L16.7411 17.3809H16.7142C16.6515 17.4167 16.5887 17.4614 16.5439 17.524C16.4901 17.5866 16.4632 17.6671 16.4632 17.7476C16.4812 17.8997 16.508 18.0428 16.5529 18.186C16.7142 18.839 16.6605 18.4722 17.8528 19.331H17.8797L17.9694 20.1271ZM24.7381 24.2867H22.0665V24.2509C22.0306 24.1973 21.9948 24.1347 21.9499 24.081H21.3044V24.0452C21.2775 23.9557 21.2058 23.8842 21.1072 23.8663H20.9906C20.8562 23.8484 20.7307 23.7768 20.6589 23.6605H18.8031C18.6149 23.6695 18.4356 23.5621 18.3638 23.3832C17.9873 23.3564 15.5936 23.3475 14.3385 23.3475H13.5137L13.4957 23.3117C13.3344 23.1686 13.1461 23.0791 12.9399 23.0344H12.2406C12.1241 23.1507 11.1289 23.7679 11.0482 24.0273L11.0303 24.081H10.9765C10.6 24.0184 10.2234 23.9915 9.84691 23.9826C9.64967 23.9647 9.44347 24.0005 9.26417 24.072L9.20141 24.1078L9.16555 24.0184C9.12969 23.9468 9.06693 23.8842 8.99521 23.8395L8.93246 23.7947L8.97728 23.7321C9.08486 23.6516 9.14762 23.5353 9.15659 23.4101V23.3832L9.72139 23.088C9.94552 22.8734 9.90966 22.9628 10.3938 22.5245V21.6478H10.4207C10.5014 21.6121 10.5641 21.5405 10.5821 21.451C10.5641 21.3616 10.5103 21.29 10.4207 21.2542L10.3759 21.2095V19.6351H10.4296C10.4834 19.5993 10.5372 19.5546 10.591 19.5099V18.8122H10.6179C10.7972 18.678 10.7793 18.6959 10.7793 18.6601C10.7793 18.6243 10.7793 18.5885 10.7793 18.517C10.7614 18.2933 10.6269 18.1055 10.4296 18.0071L10.3759 17.9713V15.3324H10.4207C10.4924 15.3145 10.5552 15.2608 10.5731 15.1893C10.5462 14.9656 10.5283 14.7331 10.5283 14.5094C10.5283 14.2768 10.5462 14.0353 10.5731 13.8027V13.7759H10.6C10.6538 13.7401 10.7076 13.6954 10.7614 13.6507V11.5843H10.7883C10.9048 11.468 10.9855 11.307 11.0034 11.146C11.0034 11.146 11.0034 11.146 11.0034 11.1191C10.9945 10.9581 10.9317 10.806 10.8151 10.6897H10.7883V7.77354C10.7434 7.72882 10.6896 7.68409 10.6269 7.64831H10.6V6.05603H10.6269C10.7524 5.95763 10.8689 5.84134 10.9765 5.72505C10.9765 5.6177 11.0124 5.20622 11.0124 4.8484C11.0124 4.68738 11.0034 4.51742 10.9765 4.3564C10.9227 4.31168 10.8689 4.26695 10.8062 4.22222L10.7434 4.1775L10.8062 4.09699C10.9676 3.81073 11.0751 3.50659 11.12 3.18456C11.0751 2.8178 10.9586 2.45104 10.7883 2.12006C10.6896 2.02166 10.5462 1.98588 10.4117 2.01271H10.3131V2.03955L10.2324 1.98588C10.0083 1.81591 10.3041 1.70857 9.27313 0.948212L9.21038 0.903485L9.2552 0.840867C9.36279 0.760359 9.42554 0.644069 9.43451 0.509888V0.456215H9.77518L9.79311 0.491996C9.82898 0.554614 9.86484 0.608287 9.90966 0.661959H11.4427V0.69774C11.5055 0.894539 11.6758 1.04661 11.882 1.09134C11.9448 1.09134 11.9986 1.0645 12.0882 1.0645C12.133 1.0645 12.1689 1.08239 12.2048 1.10923C12.4647 1.43126 12.7427 1.74435 13.0475 2.02166H13.0744V3.95386L13.0475 3.97175C12.9399 4.00753 12.8771 4.11488 12.8861 4.22222C12.9489 4.39219 13.0744 4.53531 13.2358 4.60687H13.2626V5.48352V5.57298C13.2089 5.60876 13.1551 5.65349 13.1013 5.69821V9.75942C13.2537 9.84887 13.3792 9.97411 13.4778 10.1172C13.5854 10.5466 13.6213 10.9939 13.5854 11.4411C13.5854 12.6667 13.4868 14.2947 13.4868 14.2947V14.3305H13.4599C13.4061 14.3663 13.3523 14.411 13.2985 14.4557V15.8333C13.3523 15.8781 13.4061 15.9228 13.4599 15.9586H13.4868V15.9854C13.4957 16.1106 13.4957 16.2359 13.4868 16.3611C13.4868 16.6831 13.4868 17.0767 13.4868 17.0857V17.1394L13.4509 17.1841C13.2178 17.2199 13.2358 17.3719 13.1371 17.6671C13.2537 17.7476 13.3164 17.8818 13.3164 18.025V18.0876C13.3433 18.2486 13.2716 18.4096 13.1282 18.4812V19.3578L13.1013 19.3757C13.0475 19.4115 12.9937 19.4562 12.9399 19.5009V20.798L12.913 20.8159C12.8234 20.8785 12.7606 20.9769 12.7516 21.0843C12.7516 21.1022 12.7516 21.129 12.7516 21.1469C12.922 21.2811 12.9937 21.4958 12.9578 21.7105C13.3075 21.7105 13.5675 21.7552 13.8902 21.7552C14.0785 21.7552 14.2668 21.7373 14.455 21.7105C14.5895 21.5047 14.7867 21.3437 15.0109 21.2453H15.1005C15.4233 21.2453 16.015 21.5405 16.6605 21.5405C16.9922 21.5494 17.3149 21.46 17.5928 21.2811C17.6556 21.1827 17.7542 21.1201 17.8708 21.1111C18.1039 21.0664 18.3459 21.0396 18.588 21.0306C19.1707 20.9948 19.9686 20.9769 20.7665 20.9769C22.4699 20.9769 24.2271 21.0396 24.2271 21.0396H24.2988V23.4816L24.3167 23.5353L24.4064 23.7142C24.4871 23.8663 24.5678 24.0094 24.6664 24.1525L24.7381 24.2867ZM54.144 1.32392C54.144 1.56544 54.0274 1.88748 53.2385 1.88748C52.4406 1.88748 52.324 1.56544 52.324 1.32392V0.56356C52.324 0.33098 52.4495 0 53.2385 0C54.0274 0 54.144 0.322034 54.144 0.56356V1.32392ZM53.9915 0.545669C53.9915 0.366761 53.866 0.152073 53.2385 0.152073C52.6109 0.152073 52.4854 0.366761 52.4854 0.545669V1.33286C52.4854 1.51177 52.6109 1.73541 53.2385 1.73541C53.866 1.73541 53.9915 1.52072 53.9915 1.34181V0.545669ZM52.9964 1.10028V1.48493C53.0054 1.50283 52.9964 1.52072 52.9785 1.52072H52.9695H52.8709C52.853 1.52072 52.835 1.50283 52.835 1.48493C52.835 1.48493 52.835 1.48493 52.835 1.47599V0.411488C52.8261 0.393598 52.835 0.375707 52.853 0.375707C52.8619 0.375707 52.8619 0.375707 52.8709 0.375707H53.2833C53.615 0.375707 53.6957 0.536724 53.6957 0.67985V0.787194C53.6957 0.921375 53.606 1.03767 53.4716 1.0645L53.6509 1.47599C53.6598 1.49388 53.6509 1.51177 53.6329 1.51177C53.624 1.51177 53.624 1.51177 53.615 1.51177H53.5164C53.4985 1.51177 53.4805 1.49388 53.4805 1.47599L53.3192 1.09134H52.9964V1.10028ZM52.9964 0.518833V0.957157H53.2654C53.3819 0.983994 53.4985 0.91243 53.5254 0.79614C53.5254 0.787195 53.5254 0.778249 53.5254 0.769304V0.69774C53.5074 0.58145 53.3998 0.491997 53.2833 0.509888C53.2743 0.509888 53.2654 0.509888 53.2564 0.509888L52.9964 0.518833Z" fill="currentColor"/>
<path d="M3.96317 27.9823H2.3584V25.8086H3.94524V26.2111L2.90528 26.2022V26.6584H3.90041V27.0609H2.90528V27.5798H3.96317V27.9823Z" fill="currentColor"/>
<path d="M7.94303 27.9352H7.5127L6.38309 26.6202V27.9352H5.87207V25.8867H6.33826L7.43202 27.1391V25.8957H7.94303V27.9352Z" fill="currentColor"/>
<path d="M12.4246 26.2014H11.6356V27.9815H11.0977V26.2014H10.2998V25.7988H12.4246V26.2014Z" fill="currentColor"/>
<path d="M15.8702 27.9831L14.2744 27.9742V25.8184H15.8433V26.2209H14.8123V26.6682H15.7985V27.0707H14.8123V27.5806L15.8702 27.5895V27.9831Z" fill="currentColor"/>
<path d="M19.1753 25.7903C19.5339 25.7545 19.8387 26.0229 19.8746 26.3718C19.8746 26.3807 19.8746 26.3986 19.8746 26.4075C19.8746 26.6401 19.7311 26.8548 19.507 26.9353C19.7311 27.0427 19.7939 27.311 20.0897 27.9372H19.4891C19.256 27.4989 19.1753 27.0606 18.8884 27.0606H18.736V27.9372H18.207V25.7903H19.1753ZM18.736 26.6759H19.0139C19.1484 26.6938 19.2829 26.6043 19.3008 26.4702C19.3008 26.4612 19.3008 26.4433 19.3008 26.4344C19.3008 26.3002 19.1932 26.1839 19.0587 26.1839C19.0408 26.1839 19.0229 26.1839 18.996 26.1929H18.727V26.6759H18.736Z" fill="currentColor"/>
<path d="M23.9042 26.2209H23.1153V27.9921H22.5684V26.212H21.7705V25.8184H23.9042V26.2209Z" fill="currentColor"/>
<path d="M27.6457 27.9917H27.0809L26.9105 27.5533H25.9692L25.7899 27.9917H25.252L26.0947 25.8984H26.7043L27.6457 27.9917ZM26.4174 26.3994L26.1126 27.2134H26.7581L26.4174 26.3994Z" fill="currentColor"/>
<path d="M30.09 27.9457H29.6865V25.7988H30.09V27.9457Z" fill="currentColor"/>
<path d="M34.4552 27.9911H34.0159L32.8414 26.6315V27.9911H32.3125V25.8711H32.7966L33.9262 27.1682V25.88H34.4552V27.9911Z" fill="currentColor"/>
<path d="M38.5399 25.8086H39.0151V28.0002H38.4682V26.6316L37.8765 27.3204H37.7958L37.2041 26.6316V28.0002H36.6572V25.8086H37.1324L37.8317 26.6226L38.5399 25.8086Z" fill="currentColor"/>
<path d="M43.0293 27.9651L41.4873 27.9562V25.8809H43.0114V26.2655H42.0073V26.6949H42.9666V27.0795H42.0073V27.5805H43.0293V27.9651Z" fill="currentColor"/>
<path d="M47.2459 27.9918H46.7977L45.6053 26.6142V27.9918H45.0674V25.8359H45.5605L46.708 27.1599V25.8449H47.2459V27.9918Z" fill="currentColor"/>
<path d="M51.2387 26.2022H50.4497V27.9644H49.9118V26.2022H49.1318V25.8086H51.2387V26.2022Z" fill="currentColor"/>
</svg>
