<svg width="136" height="28" viewBox="0 0 136 28" fill="none" xmlns="http://www.w3.org/2000/svg">
<g clip-path="url(#clip0_1266_1477)">
<path d="M125.652 25.9832V16.6891L132.794 16.9468L133.54 15.0532H125.657V8.44818H129.371C131.343 8.44818 131.954 8.4986 133.517 8.986L134.413 9.26611L134.133 6.70588H122.285L122.464 7.37255C122.643 8.03922 122.794 9.13726 122.794 10.4706V23.9328C122.794 25.2885 122.716 26.2633 122.514 27.0532L122.335 27.7199H134.929L135.338 25.0812L134.52 25.3894C133.652 25.7199 131.937 25.9776 130.346 25.9776H125.663L125.652 25.9832ZM119.405 0.487395C119.405 0.336134 119.405 0.207283 119.383 0.0504202C119.254 0.022409 119.103 0 118.974 0C116.621 0 114.901 1.63585 114.901 4.01681C114.901 4.16807 114.901 4.29692 114.929 4.45378C115.058 4.48179 115.209 4.5042 115.338 4.5042C117.691 4.5042 119.405 2.84034 119.405 0.487395ZM115.159 10.4706V23.9328C115.159 25.2885 115.03 26.2633 114.828 27.0532L114.649 27.7199H118.542L118.363 27.0532C118.156 26.2577 118.033 25.2885 118.033 23.9328V10.493C118.033 9.13725 118.161 8.16247 118.363 7.37255L118.542 6.70588H114.649L114.828 7.37255C115.035 8.16807 115.159 9.13726 115.159 10.4706ZM111.243 27.7199L111.78 25.0812L110.985 25.3389C110.061 25.6471 108.425 25.9776 106.173 25.9776H103.254V10.465C103.254 9.10924 103.355 8.13445 103.562 7.36695L103.741 6.70028H99.8477L100.027 7.36695C100.234 8.16247 100.385 9.13165 100.385 10.465V24.1064C100.385 25.7983 100.307 26.437 100.105 27.1541L99.9485 27.7199H111.237H111.243ZM93.9373 27.7199H97.9541L97.4163 26.9244C96.7272 25.8992 95.9541 24.5714 95.2426 22.8796L88.307 6.29132H87.6908L80.3687 23.0588C79.5507 24.93 79.0634 25.9776 78.4471 26.8964L77.9093 27.7143H80.6208C81.0577 26.437 81.5676 25.1317 82.1054 23.8487L83.59 20.2913H91.0409L92.3463 23.4678C92.9345 24.874 93.4499 26.3081 93.9317 27.7143L93.9373 27.7199ZM90.3799 18.7115H84.2622L87.3323 11.3894L90.3799 18.7115ZM78.1726 16.8964C78.1726 11.0868 73.9989 6.71148 67.4219 6.71148H60.6152L60.7944 7.37815C61.0017 8.17367 61.125 9.14286 61.125 10.4762V24.1176C61.125 25.8095 61.0241 26.4482 60.8169 27.1653L60.6656 27.7311H67.73C74.5143 27.7311 78.1726 22.2017 78.1726 16.902V16.8964ZM75.4051 18.0504C75.4051 22.7619 72.3855 25.9832 67.8533 25.9832H63.9877V8.44818H66.9569C71.8981 8.44818 75.4051 11.8543 75.4051 18.0448V18.0504ZM57.181 7.37815L57.3603 6.71148H54.5984L54.7776 7.37815C54.9849 8.17367 55.1362 9.14286 55.1362 10.4762V19.9216C55.1362 23.507 52.8056 25.7087 49.4555 25.7087C46.1054 25.7087 44.0045 23.5574 44.0045 19.9216V10.4762C44.0045 9.12045 44.1054 8.14566 44.3127 7.37815L44.4919 6.71148H40.604L40.7832 7.37815C40.9905 8.17367 41.1418 9.14286 41.1418 10.4762V20.2297C41.1418 25.014 44.4191 28.0112 49.0241 28.0112C53.6292 28.0112 56.8841 25.014 56.8841 19.972V10.4762C56.8841 9.12045 56.9849 8.14566 57.1922 7.37815H57.181ZM36.0886 27.7255H40.1054L39.5676 26.93C38.8785 25.9048 38.111 24.577 37.3939 22.8852L30.4583 6.29692H29.8421L22.5199 23.0644C21.702 24.9356 21.2146 25.9832 20.5984 26.902L20.0606 27.7199H22.772C23.209 26.4426 23.7188 25.1373 24.2566 23.8543L25.7412 20.2969H33.1922L34.4975 23.4734C35.0858 24.8796 35.5956 26.3137 36.083 27.7199L36.0886 27.7255ZM32.5311 18.7171H26.4135L29.4835 11.395L32.5311 18.7171ZM3.37708 16.6162C3.37708 11.8039 6.75523 8.06723 11.4163 8.06723C13.9485 8.06723 15.7916 9.63025 17.4051 11.8543L18.0718 12.7731L17.9205 8.16807C16.1054 7.04202 14.0045 6.32493 11.4163 6.32493C5.39949 6.32493 0.379883 11.5966 0.379883 17.6639C0.379883 23.7311 4.80565 28.0056 11.0802 28.0056C13.7188 28.0056 16.0998 27.2605 17.7636 26.1625L18.2734 22.2745L17.069 23.6807C15.6628 25.3445 14.1278 26.3697 11.4107 26.3697C7.08577 26.3697 3.37148 22.5546 3.37148 16.6162H3.37708Z" fill="currentColor"/>
</g>
<defs>
<clipPath id="clip0_1266_1477">
<rect width="134.947" height="28" fill="white" transform="translate(0.379883)"/>
</clipPath>
</defs>
</svg>
