<svg width="152" height="16" viewBox="0 0 152 16" fill="none" xmlns="http://www.w3.org/2000/svg">
<g clip-path="url(#clip0_1266_1466)">
<path fill-rule="evenodd" clip-rule="evenodd" d="M67.9397 0.293L71.7557 9.498L75.5717 0.293H78.2967L72.0487 15.39L71.7557 15.684L71.4617 15.39L65.2137 0.293H67.9397ZM54.2277 0.293C55.6957 0.293 57.0877 1.06 57.8547 2.18L56.3877 3.648H55.9257C55.6217 2.998 54.9527 2.6 54.2277 2.6C53.3647 2.6 52.5557 3.31 52.5077 4.214C52.4727 4.894 52.7847 5.319 53.3477 5.682C53.9537 6.073 54.2017 6.236 55.0247 6.688C55.9217 7.181 58.1907 8.148 58.1907 10.693C58.1907 13.202 56.0937 15.536 53.3887 15.536C53.0417 15.536 52.4127 15.497 51.9427 15.389C50.6177 15.068 49.8137 14.567 48.9447 13.544L50.8317 11.615L51.4817 12.16C51.7747 12.39 52.4187 12.853 53.0317 12.936C54.2777 13.105 55.1137 12.281 55.2757 11.468C55.4047 10.826 55.2417 9.868 54.2067 9.372C54.2067 9.372 52.3407 8.335 51.5227 7.862C50.6897 7.38 49.8037 6.064 49.8037 4.487C49.8037 3.313 50.3417 2.176 51.2087 1.384C51.8787 0.77 52.7977 0.293 54.2277 0.293ZM138.973 0L148.743 9.77V0.587L149.037 0.293H150.966L151.26 0.587V15.389H150.798L141.196 5.787V15.096L140.902 15.389H138.973L138.68 15.096V0.293L138.973 0ZM110.166 0.293V2.516L109.872 2.809H107.65V15.389H105.134V2.809H102.618V0.587L102.912 0.293H110.166ZM119.391 0.293V2.516L119.097 2.809H116.875V15.389H114.359V2.809H111.843V0.587L112.137 0.293H119.391ZM2.81873 0.293V12.873H7.85073V15.389H0.302734V0.587L0.595734 0.293H2.81873ZM17.0757 0.293C19.0776 0.293 20.9974 1.08823 22.413 2.50376C23.8285 3.91928 24.6237 5.83915 24.6237 7.841C24.6237 9.84286 23.8285 11.7627 22.413 13.1782C20.9974 14.5938 19.0776 15.389 17.0757 15.389C15.0739 15.389 13.154 14.5938 11.7385 13.1782C10.323 11.7627 9.52773 9.84286 9.52773 7.841C9.52773 5.83915 10.323 3.91928 11.7385 2.50376C13.154 1.08823 15.0739 0.293 17.0757 0.293ZM128.616 0.293C130.618 0.293 132.537 1.08823 133.953 2.50376C135.368 3.91928 136.164 5.83915 136.164 7.841C136.164 9.84286 135.368 11.7627 133.953 13.1782C132.537 14.5938 130.618 15.389 128.616 15.389C126.614 15.389 124.694 14.5938 123.278 13.1782C121.863 11.7627 121.068 9.84286 121.068 7.841C121.068 5.83915 121.863 3.91928 123.278 2.50376C124.694 1.08823 126.614 0.293 128.616 0.293ZM30.2007 0.293L30.4937 0.587V10.357C30.4937 11.0243 30.7588 11.6642 31.2306 12.1361C31.7025 12.6079 32.3424 12.873 33.0097 12.873C33.677 12.873 34.317 12.6079 34.7888 12.1361C35.2607 11.6642 35.5257 11.0243 35.5257 10.357V0.587L35.8197 0.293H37.7487L38.0417 0.587V10.357C38.0417 11.6916 37.5116 12.9715 36.5679 13.9152C35.6242 14.8588 34.3443 15.389 33.0097 15.389C31.6752 15.389 30.3953 14.8588 29.4516 13.9152C28.5079 12.9715 27.9777 11.6916 27.9777 10.357V0.587L28.2717 0.293H30.2007ZM45.5897 0.293V15.096L45.2957 15.389H43.0737V0.587L43.3667 0.293H45.5897ZM83.0357 0.293L83.3287 0.587V10.357C83.3287 11.0243 83.5938 11.6642 84.0656 12.1361C84.5375 12.6079 85.1774 12.873 85.8447 12.873C86.512 12.873 87.152 12.6079 87.6238 12.1361C88.0956 11.6642 88.3607 11.0243 88.3607 10.357V0.587L88.6547 0.293H90.5827L90.8767 0.587V10.357C90.8767 11.6916 90.3466 12.9715 89.4029 13.9152C88.4592 14.8588 87.1793 15.389 85.8447 15.389C84.5101 15.389 83.2302 14.8588 82.2866 13.9152C81.3429 12.9715 80.8127 11.6916 80.8127 10.357V0.587L81.1067 0.293H83.0357ZM98.4247 0.293V15.096L98.1307 15.389H95.9087V0.587L96.2017 0.293H98.4247ZM17.0747 2.81C16.4139 2.81007 15.7595 2.9403 15.1489 3.19327C14.5384 3.44624 13.9836 3.81698 13.5164 4.28434C12.5727 5.22821 12.0426 6.5083 12.0427 7.843C12.0429 9.1777 12.5732 10.4577 13.5171 11.4014C14.4609 12.3451 15.741 12.8751 17.0757 12.875C18.4104 12.875 19.6905 12.3448 20.6342 11.401C21.578 10.4572 22.1082 9.17721 22.1082 7.8425C22.1082 6.5078 21.578 5.22776 20.6342 4.28399C19.6905 3.34021 18.4104 2.81 17.0757 2.81H17.0747ZM128.616 2.81C127.281 2.81 126.001 3.34021 125.057 4.28399C124.113 5.22776 123.583 6.5078 123.583 7.8425C123.583 9.17721 124.113 10.4572 125.057 11.401C126.001 12.3448 127.281 12.875 128.616 12.875C129.95 12.875 131.23 12.3448 132.174 11.401C133.118 10.4572 133.648 9.17721 133.648 7.8425C133.648 6.5078 133.118 5.22776 132.174 4.28399C131.23 3.34021 129.95 2.81 128.616 2.81Z" fill="currentColor"/>
</g>
<defs>
<clipPath id="clip0_1266_1466">
<rect width="151" height="16" fill="white" transform="translate(0.302734)"/>
</clipPath>
</defs>
</svg>
