<svg width="24" height="24" viewBox="0 0 24 24" fill="none" xmlns="http://www.w3.org/2000/svg">
<path d="M15.82 20L13.72 20C13.4548 20 13.2004 20.1054 13.0129 20.2929C12.8254 20.4804 12.72 20.7348 12.72 21C12.72 21.2652 12.8254 21.5196 13.0129 21.7071C13.2004 21.8946 13.4548 22 13.72 22L15.82 22C16.0852 22 16.3396 21.8946 16.5271 21.7071C16.7146 21.5196 16.82 21.2652 16.82 21C16.82 20.7348 16.7146 20.4804 16.5271 20.2929C16.3396 20.1054 16.0852 20 15.82 20ZM21 12.72C20.7348 12.72 20.4804 12.8254 20.2929 13.0129C20.1054 13.2004 20 13.4548 20 13.72L20 15.82C20 16.0852 20.1054 16.3396 20.2929 16.5271C20.4804 16.7146 20.7348 16.82 21 16.82C21.2652 16.82 21.5196 16.7146 21.7071 16.5271C21.8946 16.3396 22 16.0852 22 15.82L22 13.72C22 13.4548 21.8946 13.2004 21.7071 13.0129C21.5196 12.8254 21.2652 12.72 21 12.72ZM9.54 20C9.54 19.7348 9.43464 19.4804 9.24711 19.2929C9.05957 19.1054 8.80522 19 8.54 19C8.27478 19 8.02043 19.1054 7.83289 19.2929C7.64536 19.4804 7.54 19.7348 7.54 20L7.54 21C7.54 21.2652 7.64536 21.5196 7.83289 21.7071C8.02043 21.8946 8.27478 22 8.54 22L9.54 22C9.80522 22 10.0596 21.8946 10.2471 21.7071C10.4346 21.5196 10.54 21.2652 10.54 21C10.54 20.7348 10.4346 20.4804 10.2471 20.2929C10.0596 20.1054 9.80522 20 9.54 20V20ZM3 16.46L7.54 16.46C7.54 16.7252 7.64536 16.9796 7.83289 17.1671C8.02043 17.3546 8.27478 17.46 8.54 17.46C8.80522 17.46 9.05957 17.3546 9.24711 17.1671C9.43464 16.9796 9.54 16.7252 9.54 16.46L15.46 16.46C15.7252 16.46 15.9796 16.3546 16.1671 16.1671C16.3546 15.9796 16.46 15.7252 16.46 15.46L16.46 9.54C16.7252 9.54 16.9796 9.43464 17.1671 9.24711C17.3546 9.05957 17.46 8.80522 17.46 8.54C17.46 8.27478 17.3546 8.02043 17.1671 7.83289C16.9796 7.64536 16.7252 7.54 16.46 7.54L16.46 3C16.46 2.73478 16.3546 2.48043 16.1671 2.29289C15.9796 2.10536 15.7252 2 15.46 2L3 2C2.73478 2 2.48043 2.10536 2.29289 2.29289C2.10535 2.48043 2 2.73479 2 3L2 15.46C2 15.7252 2.10536 15.9796 2.29289 16.1671C2.48043 16.3546 2.73478 16.46 3 16.46V16.46ZM4 4L14.46 4L14.46 8.53L14.46 14.46L4 14.46L4 4ZM20 22L21 22C21.2652 22 21.5196 21.8946 21.7071 21.7071C21.8946 21.5196 22 21.2652 22 21L22 20C22 19.7348 21.8946 19.4804 21.7071 19.2929C21.5196 19.1054 21.2652 19 21 19C20.7348 19 20.4804 19.1054 20.2929 19.2929C20.1054 19.4804 20 19.7348 20 20C19.7348 20 19.4804 20.1054 19.2929 20.2929C19.1054 20.4804 19 20.7348 19 21C19 21.2652 19.1054 21.5196 19.2929 21.7071C19.4804 21.8946 19.7348 22 20 22V22ZM20 9.54C20 9.80522 20.1054 10.0596 20.2929 10.2471C20.4804 10.4346 20.7348 10.54 21 10.54C21.2652 10.54 21.5196 10.4346 21.7071 10.2471C21.8946 10.0596 22 9.80522 22 9.54L22 8.54C22 8.27478 21.8946 8.02043 21.7071 7.83289C21.5196 7.64536 21.2652 7.54 21 7.54L20 7.54C19.7348 7.54 19.4804 7.64536 19.2929 7.83289C19.1054 8.02043 19 8.27478 19 8.54C19 8.80522 19.1054 9.05957 19.2929 9.24711C19.4804 9.43464 19.7348 9.54 20 9.54Z" fill="#27272A"/>
</svg>
