<svg xmlns="http://www.w3.org/2000/svg" width="766" height="364" fill="none" viewBox="0 0 766 364"><g clip-path="url(#a)"><rect width="766" height="364" fill="url(#b)" rx="8"/><rect width="134" height="20" x="16" y="16" fill="#00DC82" fill-opacity=".1" rx="4"/><path fill="#00DC82" d="M26.56 30.144c-.824 0-1.536-.18-2.136-.54-.592-.368-1.052-.876-1.38-1.524-.32-.656-.48-1.416-.48-2.28 0-.856.16-1.612.48-2.268.328-.656.788-1.164 1.38-1.524.6-.368 1.312-.552 2.136-.552.984 0 1.78.236 2.388.708.616.472 1.008 1.136 1.176 1.992h-1.32c-.12-.496-.368-.892-.744-1.188-.368-.296-.868-.444-1.5-.444-.568 0-1.06.132-1.476.396-.416.264-.736.64-.96 1.128-.224.488-.336 1.072-.336 1.752 0 .68.112 1.268.336 1.764.224.488.544.864.96 1.128.416.256.908.384 1.476.384.632 0 1.132-.14 1.5-.42.376-.288.624-.676.744-1.164h1.32c-.168.832-.56 1.484-1.176 1.956-.608.464-1.404.696-2.388.696ZM31.4996 30v-8.64h1.2V30h-1.2Zm2.9317 0v-6.048h1.2V30h-1.2Zm.612-7.188c-.232 0-.424-.072-.576-.216-.144-.144-.216-.328-.216-.552 0-.216.072-.392.216-.528.152-.144.344-.216.576-.216.224 0 .412.072.564.216.152.136.228.312.228.528 0 .224-.076.408-.228.552-.152.144-.34.216-.564.216Zm5.04 7.332c-.576 0-1.088-.132-1.536-.396-.448-.264-.8-.632-1.056-1.104-.248-.472-.372-1.02-.372-1.644 0-.64.124-1.196.372-1.668.256-.48.608-.852 1.056-1.116.448-.272.968-.408 1.56-.408.592 0 1.1.132 1.524.396.424.264.752.616.984 1.056.232.432.348.912.348 1.44 0 .08-.004.168-.012.264 0 .088-.004.188-.012.3h-4.944v-.852h3.768c-.024-.504-.192-.896-.504-1.176-.312-.288-.7-.432-1.164-.432-.328 0-.628.076-.9.228-.272.144-.492.36-.66.648-.16.28-.2401.636-.2401 1.068v.336c0 .448.0801.828.2401 1.14.168.304.388.536.66.696.272.152.568.228.888.228.384 0 .7-.084.948-.252.248-.168.432-.396.552-.684h1.2c-.104.368-.28.7-.528.996-.248.288-.556.516-.924.684-.36.168-.776.252-1.248.252ZM44.2965 30v-6.048h1.08l.072 1.032c.192-.36.464-.644.816-.852.352-.216.756-.324 1.212-.324.48 0 .892.096 1.236.288.344.192.612.484.804.876.192.384.288.868.288 1.452V30h-1.2v-3.456c0-.56-.124-.984-.372-1.272-.248-.288-.608-.432-1.08-.432-.312 0-.592.076-.84.228-.248.144-.448.36-.6.648-.144.288-.216.64-.216 1.056V30h-1.2Zm9.5389 0c-.384 0-.716-.06-.996-.18s-.496-.32-.648-.6c-.152-.28-.228-.66-.228-1.14v-3.108h-1.044v-1.02h1.044l.144-1.512h1.056v1.512h1.716v1.02h-1.716v3.12c0 .344.072.58.216.708.144.12.392.18.744.18h.696V30h-.984Zm2.4393-3.036v-1.008h4.848v1.008h-4.848Zm8.8891 3.18c-.512 0-.96-.084-1.344-.252-.384-.168-.688-.404-.912-.708-.224-.304-.36-.66-.408-1.068h1.224c.04.192.116.368.228.528.12.16.28.288.48.384.208.096.452.144.732.144.264 0 .48-.036.648-.108.176-.08.304-.184.384-.312.08-.136.12-.28.12-.432 0-.224-.056-.392-.168-.504-.104-.12-.264-.212-.48-.276-.208-.072-.46-.136-.756-.192-.28-.048-.552-.112-.816-.192-.256-.088-.488-.196-.696-.324-.2-.128-.36-.288-.48-.48-.12-.2-.18-.444-.18-.732 0-.344.092-.652.276-.924.184-.28.444-.496.78-.648.344-.16.748-.24 1.212-.24.672 0 1.212.16 1.62.48.408.32.648.772.72 1.356h-1.164c-.032-.272-.152-.48-.36-.624-.208-.152-.484-.228-.828-.228s-.608.068-.792.204c-.184.136-.276.316-.276.54 0 .144.052.272.156.384.104.112.256.208.456.288.208.072.46.14.756.204.424.08.804.18 1.14.3.336.12.604.296.804.528.2.232.3.564.3.996.008.376-.088.708-.288.996-.192.288-.468.512-.828.672-.352.16-.772.24-1.26.24ZM69.0367 30v-6.048h1.2V30h-1.2Zm.612-7.188c-.232 0-.424-.072-.576-.216-.144-.144-.216-.328-.216-.552 0-.216.072-.392.216-.528.152-.144.344-.216.576-.216.224 0 .412.072.564.216.152.136.228.312.228.528 0 .224-.076.408-.228.552-.152.144-.34.216-.564.216Zm4.992 7.332c-.576 0-1.084-.136-1.524-.408-.44-.28-.784-.656-1.032-1.128-.24-.48-.36-1.024-.36-1.632 0-.616.12-1.16.36-1.632.248-.472.592-.844 1.032-1.116.448-.28.96-.42 1.536-.42.472 0 .888.096 1.248.288.36.184.64.448.84.792V21.36h1.2V30h-1.08l-.12-.936c-.12.184-.276.36-.468.528-.192.16-.424.292-.696.396-.272.104-.584.156-.936.156Zm.192-1.044c.376 0 .708-.088.996-.264.288-.176.508-.424.66-.744.16-.32.24-.692.24-1.116 0-.424-.08-.792-.24-1.104-.152-.32-.372-.568-.66-.744-.288-.184-.62-.276-.996-.276-.36 0-.684.092-.972.276-.288.176-.512.424-.672.744-.16.312-.24.68-.24 1.104 0 .424.08.796.24 1.116.16.32.384.568.672.744.288.176.612.264.972.264Zm7.4849 1.044c-.576 0-1.088-.132-1.536-.396-.448-.264-.8-.632-1.056-1.104-.248-.472-.372-1.02-.372-1.644 0-.64.124-1.196.372-1.668.256-.48.608-.852 1.056-1.116.448-.272.968-.408 1.56-.408.592 0 1.1.132 1.524.396.424.264.752.616.984 1.056.232.432.348.912.348 1.44 0 .08-.004.168-.012.264 0 .088-.004.188-.012.3h-4.944v-.852h3.768c-.024-.504-.192-.896-.504-1.176-.312-.288-.7-.432-1.164-.432-.328 0-.628.076-.9.228-.272.144-.492.36-.66.648-.16.28-.24.636-.24 1.068v.336c0 .448.08.828.24 1.14.168.304.388.536.66.696.272.152.568.228.888.228.384 0 .7-.084.948-.252.248-.168.432-.396.552-.684h1.2c-.104.368-.28.7-.528.996-.248.288-.556.516-.924.684-.36.168-.776.252-1.248.252ZM89.6012 30v-6.048h1.08l.108 1.14c.136-.272.312-.5.528-.684.216-.192.468-.34.756-.444.296-.104.632-.156 1.008-.156v1.272h-.432c-.248 0-.484.032-.708.096-.224.056-.424.156-.6.3-.168.144-.3.34-.396.588-.096.248-.144.556-.144.924V30h-1.2Zm7.1422.144c-.576 0-1.088-.132-1.536-.396-.448-.264-.8-.632-1.056-1.104-.248-.472-.372-1.02-.372-1.644 0-.64.124-1.196.372-1.668.256-.48.608-.852 1.056-1.116.448-.272.968-.408 1.56-.408.592 0 1.1.132 1.524.396.424.264.752.616.984 1.056.232.432.348.912.348 1.44 0 .08-.004.168-.012.264 0 .088-.004.188-.012.3h-4.944v-.852h3.768c-.024-.504-.192-.896-.504-1.176-.312-.288-.7-.432-1.164-.432-.328 0-.628.076-.9.228-.272.144-.492.36-.66.648-.16.28-.24.636-.24 1.068v.336c0 .448.08.828.24 1.14.168.304.388.536.66.696.272.152.568.228.888.228.384 0 .7-.084.948-.252.248-.168.432-.396.552-.684h1.2c-.104.368-.28.7-.528.996-.248.288-.556.516-.924.684-.36.168-.776.252-1.248.252ZM100.957 30v-6.048h1.08l.072 1.032c.192-.36.464-.644.816-.852.352-.216.756-.324 1.212-.324.48 0 .892.096 1.236.288.344.192.612.484.804.876.192.384.288.868.288 1.452V30h-1.2v-3.456c0-.56-.124-.984-.372-1.272-.248-.288-.608-.432-1.08-.432-.312 0-.592.076-.84.228-.248.144-.448.36-.6.648-.144.288-.216.64-.216 1.056V30h-1.2Zm9.731.144c-.576 0-1.084-.136-1.524-.408-.44-.28-.784-.656-1.032-1.128-.24-.48-.36-1.024-.36-1.632 0-.616.12-1.16.36-1.632.248-.472.592-.844 1.032-1.116.448-.28.96-.42 1.536-.42.472 0 .888.096 1.248.288.36.184.64.448.84.792V21.36h1.2V30h-1.08l-.12-.936c-.12.184-.276.36-.468.528-.192.16-.424.292-.696.396-.272.104-.584.156-.936.156Zm.192-1.044c.376 0 .708-.088.996-.264.288-.176.508-.424.66-.744.16-.32.24-.692.24-1.116 0-.424-.08-.792-.24-1.104-.152-.32-.372-.568-.66-.744-.288-.184-.62-.276-.996-.276-.36 0-.684.092-.972.276-.288.176-.512.424-.672.744-.16.312-.24.68-.24 1.104 0 .424.08.796.24 1.116.16.32.384.568.672.744.288.176.612.264.972.264Zm7.485 1.044c-.576 0-1.088-.132-1.536-.396-.448-.264-.8-.632-1.056-1.104-.248-.472-.372-1.02-.372-1.644 0-.64.124-1.196.372-1.668.256-.48.608-.852 1.056-1.116.448-.272.968-.408 1.56-.408.592 0 1.1.132 1.524.396.424.264.752.616.984 1.056.232.432.348.912.348 1.44 0 .08-.004.168-.012.264 0 .088-.004.188-.012.3h-4.944v-.852h3.768c-.024-.504-.192-.896-.504-1.176-.312-.288-.7-.432-1.164-.432-.328 0-.628.076-.9.228-.272.144-.492.36-.66.648-.16.28-.241.636-.241 1.068v.336c0 .448.081.828.241 1.14.168.304.388.536.66.696.272.152.568.228.888.228.384 0 .7-.084.948-.252.248-.168.432-.396.552-.684h1.2c-.104.368-.28.7-.528.996-.248.288-.556.516-.924.684-.36.168-.776.252-1.248.252Zm4.213-.144v-6.048h1.08l.108 1.14c.136-.272.312-.5.528-.684.216-.192.468-.34.756-.444.296-.104.632-.156 1.008-.156v1.272h-.432c-.248 0-.484.032-.708.096-.224.056-.424.156-.6.3-.168.144-.3.34-.396.588-.096.248-.144.556-.144.924V30h-1.2Zm4.666 0v-6.048h1.2V30h-1.2Zm.612-7.188c-.232 0-.424-.072-.576-.216-.144-.144-.216-.328-.216-.552 0-.216.072-.392.216-.528.152-.144.344-.216.576-.216.224 0 .412.072.564.216.152.136.228.312.228.528 0 .224-.076.408-.228.552-.152.144-.34.216-.564.216ZM130.16 30v-6.048h1.08l.072 1.032c.192-.36.464-.644.816-.852.352-.216.756-.324 1.212-.324.48 0 .892.096 1.236.288.344.192.612.484.804.876.192.384.288.868.288 1.452V30h-1.2v-3.456c0-.56-.124-.984-.372-1.272-.248-.288-.608-.432-1.08-.432-.312 0-.592.076-.84.228-.248.144-.448.36-.6.648-.144.288-.216.64-.216 1.056V30h-1.2Zm9.503 2.784c-.552 0-1.04-.072-1.464-.216-.424-.136-.752-.348-.984-.636-.232-.288-.348-.64-.348-1.056 0-.216.048-.436.144-.66.096-.216.252-.424.468-.624.216-.2.508-.38.876-.54l.672.54c-.408.152-.684.332-.828.54-.136.216-.204.424-.204.624 0 .24.072.44.216.6.144.16.34.28.588.36.256.08.544.12.864.12.312 0 .584-.044.816-.132.232-.088.412-.212.54-.372.128-.16.192-.348.192-.564 0-.256-.096-.472-.288-.648-.192-.168-.56-.268-1.104-.3-.456-.032-.844-.076-1.164-.132-.312-.056-.58-.124-.804-.204-.216-.08-.4-.168-.552-.264-.144-.096-.268-.196-.372-.3v-.276l1.2-1.236.972.336-1.308 1.212.252-.54c.088.056.172.112.252.168.08.048.188.092.324.132.136.04.32.076.552.108.232.032.536.064.912.096.544.04.98.136 1.308.288.336.152.58.356.732.612.152.256.228.56.228.912 0 .344-.096.672-.288.984-.184.312-.476.568-.876.768-.392.2-.9.3-1.524.3Zm0-4.644c-.512 0-.948-.096-1.308-.288-.352-.192-.624-.452-.816-.78-.184-.328-.276-.692-.276-1.092 0-.408.092-.772.276-1.092.192-.328.468-.588.828-.78.36-.2.792-.3 1.296-.3s.932.1 1.284.3c.36.192.632.452.816.78.192.32.288.684.288 1.092 0 .4-.096.764-.288 1.092-.184.328-.456.588-.816.78-.352.192-.78.288-1.284.288Zm0-.96c.392 0 .704-.1.936-.3.232-.208.348-.508.348-.9s-.116-.688-.348-.888c-.232-.208-.544-.312-.936-.312s-.708.104-.948.312c-.24.2-.36.496-.36.888s.12.692.36.9c.24.2.556.3.948.3Zm.984-2.28-.288-.948h2.484v.828l-2.196.12Z"/><rect width="133" height="19" x="16.5" y="16.5" stroke="#00DC82" stroke-opacity=".25" rx="3.5"/><g filter="url(#c)"><path fill="#00DC82" d="M210 5v37H-6V5z"/></g><g clip-path="url(#d)"><g clip-path="url(#e)"><g clip-path="url(#f)"><g clip-path="url(#g)"><rect width="164" height="63" x="495" y="79.5" stroke="#334155" rx="3.5"/><path fill="#fff" d="M515.852 108v-6.941h-2.299v-.759h5.522v.759h-2.299V108h-.924Zm4.339 0v-7.92h.924v3.168c.191-.33.451-.59.781-.781.33-.191.69-.286 1.078-.286.44 0 .814.084 1.122.253.316.169.558.425.726.77.169.337.253.77.253 1.298V108h-.913v-3.399c0-.543-.124-.95-.374-1.221-.242-.271-.579-.407-1.012-.407-.3 0-.579.073-.836.22-.249.147-.451.363-.605.649-.146.279-.22.62-.22 1.023V108h-.924Zm8.791.132c-.514 0-.972-.121-1.375-.363-.396-.249-.708-.598-.935-1.045-.228-.447-.341-.972-.341-1.573 0-.594.113-1.115.341-1.562.227-.447.539-.792.935-1.034.403-.249.869-.374 1.397-.374.55 0 1.012.125 1.386.374.381.242.667.568.858.979.198.403.297.851.297 1.342v.22c0 .073-.004.161-.011.264h-4.51v-.715h3.608c-.015-.543-.18-.957-.495-1.243-.308-.293-.693-.44-1.155-.44-.308 0-.594.073-.858.22-.264.147-.481.363-.649.649-.162.286-.242.642-.242 1.067v.308c0 .477.08.876.242 1.199.168.315.385.554.649.715.264.154.55.231.858.231.403 0 .722-.081.957-.242.242-.161.421-.392.539-.693h.913c-.096.33-.253.623-.473.88-.213.257-.484.462-.814.616-.323.147-.697.22-1.122.22Zm8.579 0c-.447 0-.818-.081-1.111-.242-.293-.161-.513-.378-.66-.649-.147-.271-.22-.561-.22-.869 0-.381.095-.704.286-.968.198-.264.473-.466.825-.605.352-.139.763-.209 1.232-.209h1.452c0-.359-.048-.66-.143-.902-.088-.242-.235-.422-.44-.539-.198-.125-.455-.187-.77-.187-.337 0-.631.084-.88.253-.242.169-.392.418-.451.748h-.946c.044-.389.172-.711.385-.968.22-.264.495-.466.825-.605.337-.139.693-.209 1.067-.209.513 0 .939.095 1.276.286.337.183.587.444.748.781.169.33.253.722.253 1.177V108h-.825l-.055-.99c-.073.154-.169.301-.286.44-.11.132-.242.249-.396.352-.147.103-.319.183-.517.242s-.414.088-.649.088Zm.132-.781c.249 0 .477-.055.682-.165.205-.11.381-.257.528-.44.154-.183.268-.392.341-.627.081-.235.121-.477.121-.726v-.088h-1.375c-.345 0-.627.044-.847.132-.213.088-.367.209-.462.363-.095.154-.143.33-.143.528 0 .205.044.385.132.539.088.154.216.275.385.363.176.081.389.121.638.121Zm4.079 3.069v-8.107h.836l.088.902c.118-.183.264-.352.44-.506.184-.161.4-.29.649-.385.257-.095.554-.143.891-.143.521 0 .979.132 1.375.396.396.257.704.609.924 1.056.228.447.341.961.341 1.54 0 .565-.113 1.071-.341 1.518-.22.447-.531.799-.935 1.056-.396.257-.854.385-1.375.385-.447 0-.843-.092-1.188-.275-.337-.183-.597-.44-.781-.77v3.333h-.924Zm2.783-3.091c.352 0 .664-.088.935-.264.272-.176.484-.425.638-.748.162-.33.242-.719.242-1.166 0-.44-.08-.821-.242-1.144-.154-.33-.366-.583-.638-.759-.271-.176-.583-.264-.935-.264-.366 0-.689.088-.968.264-.271.176-.484.429-.638.759-.146.323-.22.704-.22 1.144 0 .447.074.836.22 1.166.154.323.367.572.638.748.279.176.602.264.968.264Zm4.082 3.091v-8.107h.836l.088.902c.117-.183.264-.352.44-.506.183-.161.399-.29.649-.385.256-.095.553-.143.891-.143.52 0 .979.132 1.375.396.396.257.704.609.924 1.056.227.447.341.961.341 1.54 0 .565-.114 1.071-.341 1.518-.22.447-.532.799-.935 1.056-.396.257-.855.385-1.375.385-.448 0-.844-.092-1.188-.275-.338-.183-.598-.44-.781-.77v3.333h-.924Zm2.783-3.091c.352 0 .663-.088.935-.264.271-.176.484-.425.638-.748.161-.33.242-.719.242-1.166 0-.44-.081-.821-.242-1.144-.154-.33-.367-.583-.638-.759-.272-.176-.583-.264-.935-.264-.367 0-.69.088-.968.264-.272.176-.484.429-.638.759-.147.323-.22.704-.22 1.144 0 .447.073.836.22 1.166.154.323.366.572.638.748.278.176.601.264.968.264Zm7.123.671v-5.687h.924V108h-.924Zm.462-6.82c-.183 0-.337-.059-.462-.176-.117-.125-.176-.279-.176-.462s.059-.33.176-.44c.125-.1173.279-.176.462-.176.176 0 .327.0587.451.176.125.11.187.257.187.44s-.062.337-.187.462c-.124.117-.275.176-.451.176Zm4.172 6.952c-.491 0-.909-.077-1.254-.231-.337-.154-.601-.37-.792-.649-.183-.286-.297-.616-.341-.99h.946c.037.198.11.381.22.55.11.161.268.293.473.396.205.095.458.143.759.143.257 0 .469-.037.638-.11.176-.081.308-.187.396-.319.088-.139.132-.297.132-.473 0-.235-.055-.414-.165-.539-.103-.132-.257-.231-.462-.297-.198-.073-.444-.132-.737-.176-.293-.044-.565-.103-.814-.176-.242-.081-.451-.183-.627-.308s-.312-.282-.407-.473c-.095-.191-.143-.418-.143-.682 0-.315.084-.594.253-.836.169-.249.403-.44.704-.572.308-.139.675-.209 1.1-.209.609 0 1.093.143 1.452.429.367.286.583.697.649 1.232h-.913c-.037-.279-.161-.495-.374-.649-.205-.154-.48-.231-.825-.231-.367 0-.645.07-.836.209-.183.139-.275.323-.275.55 0 .161.044.304.132.429.095.125.242.231.44.319.205.088.469.154.792.198.403.059.755.147 1.056.264.301.11.535.279.704.506.169.227.249.539.242.935.007.367-.081.682-.264.946-.176.264-.422.466-.737.605-.315.139-.689.209-1.122.209Zm6.418-.132v-5.687h.836l.055.935c.168-.337.414-.598.737-.781.322-.191.693-.286 1.111-.286.425 0 .795.084 1.111.253.315.161.561.411.737.748.176.337.264.763.264 1.276V108h-.924v-3.443c0-.528-.125-.924-.374-1.188-.25-.264-.591-.396-1.023-.396-.294 0-.565.07-.814.209-.242.139-.437.348-.583.627-.14.271-.209.601-.209.99V108h-.924Zm8.824.132c-.528 0-.998-.121-1.408-.363-.411-.249-.734-.598-.968-1.045-.228-.447-.341-.968-.341-1.562 0-.609.117-1.133.352-1.573.234-.447.557-.792.968-1.034.418-.249.891-.374 1.419-.374.535 0 1.008.125 1.419.374.41.242.729.587.957 1.034.227.44.341.964.341 1.573 0 .594-.118 1.115-.352 1.562-.228.447-.55.796-.968 1.045-.411.242-.884.363-1.419.363Zm0-.792c.337 0 .641-.081.913-.242.271-.161.484-.403.638-.726.161-.33.242-.737.242-1.221 0-.484-.077-.887-.231-1.21-.154-.323-.367-.565-.638-.726-.272-.161-.572-.242-.902-.242-.323 0-.62.081-.891.242-.272.161-.492.403-.66.726-.162.323-.242.73-.242 1.221 0 .477.08.88.242 1.21.161.323.374.565.638.726.271.161.568.242.891.242Zm5.039.66-1.672-5.687h.924l1.265 4.631h-.077l1.364-4.631h1.045l1.364 4.62-.066.011 1.254-4.631h.935L588.122 108h-.946l-1.419-4.84h.066l-1.419 4.84h-.946Zm10.328 0v-5.687h.836l.077 1.056c.125-.257.29-.473.495-.649.205-.176.455-.308.748-.396.293-.095.623-.143.99-.143v.968h-.473c-.227 0-.447.029-.66.088-.205.059-.392.158-.561.297-.161.132-.29.315-.385.55-.095.227-.143.517-.143.869V108h-.924Zm6.416.132c-.513 0-.971-.121-1.375-.363-.396-.249-.707-.598-.935-1.045-.227-.447-.341-.972-.341-1.573 0-.594.114-1.115.341-1.562.228-.447.539-.792.935-1.034.404-.249.869-.374 1.397-.374.55 0 1.012.125 1.386.374.382.242.668.568.858.979.198.403.297.851.297 1.342v.22c0 .073-.003.161-.011.264h-4.51v-.715h3.608c-.014-.543-.179-.957-.495-1.243-.308-.293-.693-.44-1.155-.44-.308 0-.594.073-.858.22-.264.147-.48.363-.649.649-.161.286-.242.642-.242 1.067v.308c0 .477.081.876.242 1.199.169.315.385.554.649.715.264.154.55.231.858.231.404 0 .723-.081.957-.242.242-.161.422-.392.539-.693h.913c-.095.33-.253.623-.473.88-.212.257-.484.462-.814.616-.322.147-.696.22-1.122.22Zm3.821-.132v-5.687h.836l.055.935c.169-.337.415-.598.737-.781.323-.191.693-.286 1.111-.286.426 0 .796.084 1.111.253.316.161.561.411.737.748.176.337.264.763.264 1.276V108h-.924v-3.443c0-.528-.124-.924-.374-1.188-.249-.264-.59-.396-1.023-.396-.293 0-.564.07-.814.209-.242.139-.436.348-.583.627-.139.271-.209.601-.209.99V108h-.924Zm8.758.132c-.52 0-.982-.128-1.386-.385-.396-.264-.707-.62-.935-1.067-.22-.455-.33-.968-.33-1.54 0-.572.11-1.078.33-1.518.228-.447.539-.799.935-1.056.404-.257.869-.385 1.397-.385.448 0 .836.092 1.166.275.338.183.602.44.792.77v-3.146h.924V108h-.836l-.077-.913c-.117.176-.267.345-.451.506-.176.161-.392.293-.649.396-.249.095-.542.143-.88.143Zm.11-.803c.367 0 .686-.088.957-.264.279-.176.492-.425.638-.748.154-.33.231-.719.231-1.166 0-.44-.077-.821-.231-1.144-.146-.33-.359-.583-.638-.759-.271-.176-.59-.264-.957-.264-.344 0-.656.088-.935.264-.271.176-.487.429-.649.759-.154.323-.231.704-.231 1.144 0 .447.077.836.231 1.166.162.323.378.572.649.748.279.176.591.264.935.264Zm6.744.803c-.514 0-.972-.121-1.375-.363-.396-.249-.708-.598-.935-1.045-.228-.447-.341-.972-.341-1.573 0-.594.113-1.115.341-1.562.227-.447.539-.792.935-1.034.403-.249.869-.374 1.397-.374.55 0 1.012.125 1.386.374.381.242.667.568.858.979.198.403.297.851.297 1.342v.22c0 .073-.004.161-.011.264h-4.51v-.715h3.608c-.015-.543-.18-.957-.495-1.243-.308-.293-.693-.44-1.155-.44-.308 0-.594.073-.858.22-.264.147-.481.363-.649.649-.162.286-.242.642-.242 1.067v.308c0 .477.08.876.242 1.199.168.315.385.554.649.715.264.154.55.231.858.231.403 0 .722-.081.957-.242.242-.161.421-.392.539-.693h.913c-.096.33-.253.623-.473.88-.213.257-.484.462-.814.616-.323.147-.697.22-1.122.22Zm3.821-.132v-5.687h.836l.077 1.056c.125-.257.29-.473.495-.649.205-.176.455-.308.748-.396.293-.095.623-.143.99-.143v.968h-.473c-.227 0-.447.029-.66.088-.205.059-.392.158-.561.297-.161.132-.29.315-.385.55-.095.227-.143.517-.143.869V108h-.924Zm6.416.132c-.513 0-.972-.121-1.375-.363-.396-.249-.708-.598-.935-1.045-.227-.447-.341-.972-.341-1.573 0-.594.114-1.115.341-1.562.227-.447.539-.792.935-1.034.403-.249.869-.374 1.397-.374.55 0 1.012.125 1.386.374.381.242.667.568.858.979.198.403.297.851.297 1.342v.22c0 .073-.004.161-.011.264h-4.51v-.715h3.608c-.015-.543-.18-.957-.495-1.243-.308-.293-.693-.44-1.155-.44-.308 0-.594.073-.858.22-.264.147-.48.363-.649.649-.161.286-.242.642-.242 1.067v.308c0 .477.081.876.242 1.199.169.315.385.554.649.715.264.154.55.231.858.231.403 0 .722-.081.957-.242.242-.161.422-.392.539-.693h.913c-.095.33-.253.623-.473.88-.213.257-.484.462-.814.616-.323.147-.697.22-1.122.22Zm6.241 0c-.52 0-.982-.128-1.386-.385-.396-.264-.707-.62-.935-1.067-.22-.455-.33-.968-.33-1.54 0-.572.11-1.078.33-1.518.228-.447.539-.799.935-1.056.404-.257.869-.385 1.397-.385.448 0 .836.092 1.166.275.338.183.602.44.792.77v-3.146h.924V108h-.836l-.077-.913c-.117.176-.267.345-.451.506-.176.161-.392.293-.649.396-.249.095-.542.143-.88.143Zm.11-.803c.367 0 .686-.088.957-.264.279-.176.492-.425.638-.748.154-.33.231-.719.231-1.166 0-.44-.077-.821-.231-1.144-.146-.33-.359-.583-.638-.759-.271-.176-.59-.264-.957-.264-.344 0-.656.088-.935.264-.271.176-.487.429-.649.759-.154.323-.231.704-.231 1.144 0 .447.077.836.231 1.166.162.323.378.572.649.748.279.176.591.264.935.264Zm-96.739 14.803c-.447 0-.818-.081-1.111-.242-.293-.161-.513-.378-.66-.649-.147-.271-.22-.561-.22-.869 0-.381.095-.704.286-.968.198-.264.473-.466.825-.605.352-.139.763-.209 1.232-.209h1.452c0-.359-.048-.66-.143-.902-.088-.242-.235-.422-.44-.539-.198-.125-.455-.187-.77-.187-.337 0-.631.084-.88.253-.242.169-.392.418-.451.748h-.946c.044-.389.172-.711.385-.968.22-.264.495-.466.825-.605.337-.139.693-.209 1.067-.209.513 0 .939.095 1.276.286.337.183.587.444.748.781.169.33.253.722.253 1.177V122h-.825l-.055-.99c-.073.154-.169.301-.286.44-.11.132-.242.249-.396.352-.147.103-.319.183-.517.242s-.414.088-.649.088Zm.132-.781c.249 0 .477-.055.682-.165.205-.11.381-.257.528-.44.154-.183.268-.392.341-.627.081-.235.121-.477.121-.726v-.088h-1.375c-.345 0-.627.044-.847.132-.213.088-.367.209-.462.363-.095.154-.143.33-.143.528 0 .205.044.385.132.539.088.154.216.275.385.363.176.081.389.121.638.121Zm4.079.649v-5.687h.836l.055.935c.169-.337.415-.598.737-.781.323-.191.693-.286 1.111-.286.426 0 .796.084 1.111.253.316.161.561.411.737.748.176.337.264.763.264 1.276V122h-.924v-3.443c0-.528-.124-.924-.374-1.188-.249-.264-.59-.396-1.023-.396-.293 0-.564.07-.814.209-.242.139-.436.348-.583.627-.139.271-.209.601-.209.99V122h-.924Zm8.758.132c-.52 0-.982-.128-1.386-.385-.396-.264-.707-.62-.935-1.067-.22-.455-.33-.968-.33-1.54 0-.572.11-1.078.33-1.518.228-.447.539-.799.935-1.056.404-.257.869-.385 1.397-.385.448 0 .836.092 1.166.275.338.183.602.44.792.77v-3.146h.924V122h-.836l-.077-.913c-.117.176-.267.345-.451.506-.176.161-.392.293-.649.396-.249.095-.542.143-.88.143Zm.11-.803c.367 0 .686-.088.957-.264.279-.176.492-.425.638-.748.154-.33.231-.719.231-1.166 0-.44-.077-.821-.231-1.144-.146-.33-.359-.583-.638-.759-.271-.176-.59-.264-.957-.264-.344 0-.656.088-.935.264-.271.176-.487.429-.649.759-.154.323-.231.704-.231 1.144 0 .447.077.836.231 1.166.162.323.378.572.649.748.279.176.591.264.935.264Zm7.366.671v-5.687h.924V122h-.924Zm.462-6.82c-.183 0-.337-.059-.462-.176-.117-.125-.176-.279-.176-.462s.059-.33.176-.44c.125-.117.279-.176.462-.176.176 0 .326.059.451.176.125.11.187.257.187.44s-.062.337-.187.462c-.125.117-.275.176-.451.176Zm2.082 6.82v-5.687h.836l.055.935c.168-.337.414-.598.737-.781.322-.191.693-.286 1.111-.286.425 0 .795.084 1.111.253.315.161.561.411.737.748.176.337.264.763.264 1.276V122h-.924v-3.443c0-.528-.125-.924-.374-1.188-.25-.264-.591-.396-1.023-.396-.294 0-.565.07-.814.209-.242.139-.437.348-.583.627-.14.271-.209.601-.209.99V122h-.924Zm8.56 0c-.33 0-.616-.051-.858-.154-.242-.103-.429-.275-.561-.517-.125-.249-.187-.583-.187-1.001v-3.234h-.99v-.781h.99l.121-1.397h.803v1.397h1.628v.781h-1.628v3.234c0 .345.069.579.209.704.139.117.385.176.737.176h.638V122h-.902Zm4.451.132c-.513 0-.971-.121-1.375-.363-.396-.249-.707-.598-.935-1.045-.227-.447-.341-.972-.341-1.573 0-.594.114-1.115.341-1.562.228-.447.539-.792.935-1.034.404-.249.869-.374 1.397-.374.55 0 1.012.125 1.386.374.382.242.668.568.858.979.198.403.297.851.297 1.342v.22c0 .073-.003.161-.011.264h-4.51v-.715h3.608c-.014-.543-.179-.957-.495-1.243-.308-.293-.693-.44-1.155-.44-.308 0-.594.073-.858.22-.264.147-.48.363-.649.649-.161.286-.242.642-.242 1.067v.308c0 .477.081.876.242 1.199.169.315.385.554.649.715.264.154.55.231.858.231.404 0 .723-.081.957-.242.242-.161.422-.392.539-.693h.913c-.095.33-.253.623-.473.88-.212.257-.484.462-.814.616-.322.147-.696.22-1.122.22Zm3.822-.132v-5.687h.836l.077 1.056c.124-.257.289-.473.495-.649.205-.176.454-.308.748-.396.293-.095.623-.143.99-.143v.968h-.473c-.228 0-.448.029-.66.088-.206.059-.393.158-.561.297-.162.132-.29.315-.385.55-.096.227-.143.517-.143.869V122h-.924Zm6.015.132c-.447 0-.818-.081-1.111-.242-.293-.161-.513-.378-.66-.649-.147-.271-.22-.561-.22-.869 0-.381.095-.704.286-.968.198-.264.473-.466.825-.605.352-.139.763-.209 1.232-.209h1.452c0-.359-.048-.66-.143-.902-.088-.242-.235-.422-.44-.539-.198-.125-.455-.187-.77-.187-.337 0-.631.084-.88.253-.242.169-.392.418-.451.748h-.946c.044-.389.172-.711.385-.968.22-.264.495-.466.825-.605.337-.139.693-.209 1.067-.209.513 0 .939.095 1.276.286.337.183.587.444.748.781.169.33.253.722.253 1.177V122h-.825l-.055-.99c-.073.154-.169.301-.286.44-.11.132-.242.249-.396.352-.147.103-.319.183-.517.242s-.414.088-.649.088Zm.132-.781c.249 0 .477-.055.682-.165.205-.11.381-.257.528-.44.154-.183.268-.392.341-.627.081-.235.121-.477.121-.726v-.088h-1.375c-.345 0-.627.044-.847.132-.213.088-.367.209-.462.363-.095.154-.143.33-.143.528 0 .205.044.385.132.539.088.154.216.275.385.363.176.081.389.121.638.121Zm6.587.781c-.528 0-.997-.125-1.408-.374-.41-.249-.737-.598-.979-1.045-.234-.447-.352-.964-.352-1.551 0-.601.118-1.122.352-1.562.242-.447.569-.796.979-1.045.411-.249.88-.374 1.408-.374.653 0 1.199.176 1.639.528.448.345.734.81.858 1.397h-.946c-.08-.359-.267-.638-.561-.836-.286-.198-.619-.297-1.001-.297-.33 0-.63.084-.902.253-.264.161-.476.403-.638.726-.161.323-.242.722-.242 1.199 0 .359.044.678.132.957.096.271.224.502.385.693.162.183.349.323.561.418.22.088.455.132.704.132.257 0 .492-.044.704-.132.22-.088.404-.216.55-.385.154-.176.257-.385.308-.627h.946c-.117.572-.399 1.038-.847 1.397-.447.352-.997.528-1.65.528Zm5.891-.132c-.33 0-.616-.051-.858-.154-.242-.103-.429-.275-.561-.517-.125-.249-.187-.583-.187-1.001v-3.234h-.99v-.781h.99l.121-1.397h.803v1.397h1.628v.781h-1.628v3.234c0 .345.07.579.209.704.139.117.385.176.737.176h.638V122h-.902Zm2.281 0v-5.687h.924V122h-.924Zm.462-6.82c-.183 0-.337-.059-.462-.176-.117-.125-.176-.279-.176-.462s.059-.33.176-.44c.125-.117.279-.176.462-.176.176 0 .327.059.451.176.125.11.187.257.187.44s-.062.337-.187.462c-.124.117-.275.176-.451.176Zm3.732 6.82-2.156-5.687h.979l1.716 4.796 1.738-4.796h.946L605.473 122h-1.067Zm6.399.132c-.514 0-.972-.121-1.375-.363-.396-.249-.708-.598-.935-1.045-.228-.447-.341-.972-.341-1.573 0-.594.113-1.115.341-1.562.227-.447.539-.792.935-1.034.403-.249.869-.374 1.397-.374.55 0 1.012.125 1.386.374.381.242.667.568.858.979.198.403.297.851.297 1.342v.22c0 .073-.004.161-.011.264h-4.51v-.715h3.608c-.015-.543-.18-.957-.495-1.243-.308-.293-.693-.44-1.155-.44-.308 0-.594.073-.858.22-.264.147-.481.363-.649.649-.162.286-.242.642-.242 1.067v.308c0 .477.08.876.242 1.199.168.315.385.554.649.715.264.154.55.231.858.231.403 0 .722-.081.957-.242.242-.161.421-.392.539-.693h.913c-.096.33-.253.623-.473.88-.213.257-.484.462-.814.616-.323.147-.697.22-1.122.22Zm4.173-.077c-.176 0-.326-.059-.451-.176-.117-.125-.176-.275-.176-.451s.059-.323.176-.44c.125-.125.275-.187.451-.187.191 0 .341.062.451.187.117.117.176.264.176.44s-.059.326-.176.451c-.11.117-.26.176-.451.176Z"/></g><g clip-path="url(#h)"><circle cx="659" cy="140.705" r="8" fill="#020420" stroke="#334155"/><path fill="#fff" d="M658.981 143.825c-.446 0-.856-.08-1.23-.24-.366-.167-.66-.413-.88-.74-.213-.333-.326-.75-.34-1.25h1c.007.253.067.483.18.69.114.207.277.373.49.5.22.12.48.18.78.18.3 0 .55-.057.75-.17.207-.113.36-.267.46-.46.107-.193.16-.41.16-.65 0-.3-.073-.543-.22-.73-.14-.187-.333-.327-.58-.42-.24-.093-.51-.14-.81-.14h-.52v-.84h.52c.42 0 .754-.097 1-.29.254-.193.38-.467.38-.82 0-.293-.096-.533-.29-.72-.193-.187-.476-.28-.85-.28-.373 0-.67.107-.89.32-.213.213-.333.483-.36.81h-.99c.02-.393.124-.74.31-1.04.194-.307.454-.54.78-.7.334-.167.717-.25 1.15-.25.467 0 .857.083 1.17.25.32.16.56.377.72.65.167.273.25.573.25.9 0 .247-.046.477-.14.69-.093.207-.226.387-.4.54-.173.153-.383.263-.63.33.267.053.507.157.72.31.214.153.38.353.5.6.12.24.18.52.18.84 0 .38-.09.733-.27 1.06-.18.32-.446.58-.8.78-.346.193-.78.29-1.3.29Z"/></g></g><g clip-path="url(#i)"><rect width="165" height="125" x="494.5" y="159.186" fill="url(#j)" fill-opacity=".12" rx="4"/><circle cx="502" cy="166.686" r="1.5" fill="#F1F5F9" fill-opacity=".3"/><circle cx="506.693" cy="166.686" r="1.5" fill="#F1F5F9" fill-opacity=".3"/><circle cx="511.693" cy="166.686" r="1.5" fill="#F1F5F9" fill-opacity=".3"/><path fill="url(#k)" fill-rule="evenodd" d="M502.5 172.186c-1.105 0-2 .895-2 2v26c0 1.104.895 2 2 2h149c1.105 0 2-.896 2-2v-26c0-1.105-.895-2-2-2h-149Zm-2 37c0-1.105.895-2 2-2h26c1.105 0 2 .895 2 2 0 1.104-.895 2-2 2h-26c-1.105 0-2-.896-2-2Zm0 6.5c0-1.381 1.119-2.5 2.5-2.5h60c1.381 0 2.5 1.119 2.5 2.5 0 1.38-1.119 2.5-2.5 2.5h-60c-1.381 0-2.5-1.12-2.5-2.5Zm0 9.5c0-1.105.895-2 2-2h68c1.105 0 2 .895 2 2v25c0 1.104-.895 2-2 2h-68c-1.105 0-2-.896-2-2v-25Zm82-2c-1.105 0-2 .895-2 2v25c0 1.104.895 2 2 2h69c1.105 0 2-.896 2-2v-25c0-1.105-.895-2-2-2h-69Zm-82 39c0-1.105.895-2 2-2h68c1.105 0 2 .895 2 2v26c0 1.104-.895 2-2 2h-68c-1.105 0-2-.896-2-2v-26Zm81-2c-1.105 0-2 .895-2 2v26c0 1.104.895 2 2 2h69c1.105 0 2-.896 2-2v-26c0-1.105-.895-2-2-2h-69Z" clip-rule="evenodd"/></g><rect width="164" height="124" x="495" y="159.686" stroke="url(#l)" stroke-opacity=".3" rx="3.5"/></g><path stroke="#334155" d="M270 113.615h22M467 112.91h22"/><g clip-path="url(#m)"><g clip-path="url(#n)"><rect width="165" height="125" x="98.5" y="159" fill="url(#o)" fill-opacity=".12" rx="4"/><circle cx="106" cy="166.5" r="1.5" fill="#F1F5F9" fill-opacity=".3"/><circle cx="110.5" cy="166.5" r="1.5" fill="#F1F5F9" fill-opacity=".3"/><circle cx="115" cy="166.5" r="1.5" fill="#F1F5F9" fill-opacity=".3"/><path fill="#CBD5E1" d="M177.375 222.125h-3.75c-.166 0-.325-.066-.442-.183-.117-.117-.183-.276-.183-.442v-3.75c0-.166.066-.325.183-.442.117-.117.276-.183.442-.183.166 0 .325.066.442.183.117.117.183.276.183.442v1.863c1.209-1.363 3.329-3.113 6.25-3.113 3.345 0 5.358 1.974 5.442 2.058.118.117.184.276.184.442 0 .166-.065.325-.182.442-.117.118-.276.184-.442.184-.166 0-.325-.065-.443-.182-.021-.021-1.753-1.694-4.559-1.694-2.734 0-4.705 1.926-5.669 3.125h2.544c.166 0 .325.066.442.183.117.117.183.276.183.442 0 .166-.066.325-.183.442-.117.117-.276.183-.442.183Zm10 3.75h-3.75c-.166 0-.325.066-.442.183-.117.117-.183.276-.183.442 0 .166.066.325.183.442.117.117.276.183.442.183h2.544c-.964 1.199-2.935 3.125-5.669 3.125-2.806 0-4.538-1.673-4.559-1.694-.118-.117-.277-.182-.443-.182-.166 0-.325.066-.442.184-.117.117-.182.276-.182.442 0 .166.066.325.184.442.084.084 2.097 2.058 5.442 2.058 2.921 0 5.041-1.75 6.25-3.113v1.863c0 .166.066.325.183.442.117.117.276.183.442.183.166 0 .325-.066.442-.183.117-.117.183-.276.183-.442v-3.75c0-.166-.066-.325-.183-.442-.117-.117-.276-.183-.442-.183Z"/></g><rect width="164" height="124" x="99" y="159.5" stroke="url(#p)" stroke-opacity=".3" rx="3.5"/><g clip-path="url(#q)"><g clip-path="url(#r)"><rect width="164" height="63" x="99" y="79.5" stroke="#334155" rx="3.5"/><path fill="#fff" d="M124.64 108.41v-7.7h2.706c.542 0 .99.088 1.342.264.359.169.627.403.803.704.176.293.264.623.264.99 0 .396-.088.726-.264.99-.169.264-.393.466-.671.605-.272.139-.561.224-.869.253l.154-.11c.33.007.634.095.913.264.278.169.498.396.66.682.168.286.253.605.253.957 0 .389-.096.744-.286 1.067-.191.315-.473.568-.847.759-.367.183-.822.275-1.364.275h-2.794Zm.924-.77h1.771c.52 0 .924-.121 1.21-.363.293-.249.44-.594.44-1.034 0-.433-.151-.777-.451-1.034-.294-.264-.701-.396-1.221-.396h-1.749v2.827Zm0-3.564h1.716c.498 0 .876-.117 1.133-.352.264-.235.396-.554.396-.957 0-.389-.132-.7-.396-.935-.257-.235-.646-.352-1.166-.352h-1.683v2.596Zm5.67 4.334v-5.687h.836l.077 1.056c.125-.257.29-.473.495-.649.205-.176.455-.308.748-.396.293-.095.623-.143.99-.143v.968h-.473c-.227 0-.447.029-.66.088-.205.059-.392.158-.561.297-.161.132-.29.315-.385.55-.095.227-.143.517-.143.869v3.047h-.924Zm6.482.132c-.528 0-.997-.121-1.408-.363-.411-.249-.733-.598-.968-1.045-.227-.447-.341-.968-.341-1.562 0-.609.117-1.133.352-1.573.235-.447.557-.792.968-1.034.418-.249.891-.374 1.419-.374.535 0 1.008.125 1.419.374.411.242.73.587.957 1.034.227.44.341.964.341 1.573 0 .594-.117 1.115-.352 1.562-.227.447-.55.796-.968 1.045-.411.242-.884.363-1.419.363Zm0-.792c.337 0 .642-.081.913-.242.271-.161.484-.403.638-.726.161-.33.242-.737.242-1.221 0-.484-.077-.887-.231-1.21-.154-.323-.367-.565-.638-.726-.271-.161-.572-.242-.902-.242-.323 0-.62.081-.891.242-.271.161-.491.403-.66.726-.161.323-.242.73-.242 1.221 0 .477.081.88.242 1.21.161.323.374.565.638.726.271.161.568.242.891.242Zm5.04.66-1.672-5.687h.924l1.265 4.631h-.077l1.364-4.631h1.045l1.364 4.62-.066.011 1.254-4.631h.935l-1.672 5.687h-.946l-1.419-4.84h.066l-1.419 4.84h-.946Zm9.474.132c-.491 0-.909-.077-1.254-.231-.337-.154-.601-.37-.792-.649-.183-.286-.297-.616-.341-.99h.946c.037.198.11.381.22.55.11.161.268.293.473.396.205.095.458.143.759.143.257 0 .469-.037.638-.11.176-.081.308-.187.396-.319.088-.139.132-.297.132-.473 0-.235-.055-.414-.165-.539-.103-.132-.257-.231-.462-.297-.198-.073-.444-.132-.737-.176-.293-.044-.565-.103-.814-.176-.242-.081-.451-.183-.627-.308s-.312-.282-.407-.473c-.095-.191-.143-.418-.143-.682 0-.315.084-.594.253-.836.169-.249.403-.44.704-.572.308-.139.675-.209 1.1-.209.609 0 1.093.143 1.452.429.367.286.583.697.649 1.232h-.913c-.037-.279-.161-.495-.374-.649-.205-.154-.48-.231-.825-.231-.367 0-.645.07-.836.209-.183.139-.275.323-.275.55 0 .161.044.304.132.429.095.125.242.231.44.319.205.088.469.154.792.198.403.059.755.147 1.056.264.301.11.535.279.704.506.169.227.249.539.242.935.007.367-.081.682-.264.946-.176.264-.422.466-.737.605-.315.139-.689.209-1.122.209Zm5.895 0c-.514 0-.972-.121-1.375-.363-.396-.249-.708-.598-.935-1.045-.228-.447-.341-.972-.341-1.573 0-.594.113-1.115.341-1.562.227-.447.539-.792.935-1.034.403-.249.869-.374 1.397-.374.55 0 1.012.125 1.386.374.381.242.667.568.858.979.198.403.297.851.297 1.342v.22c0 .073-.004.161-.011.264h-4.51v-.715h3.608c-.015-.543-.18-.957-.495-1.243-.308-.293-.693-.44-1.155-.44-.308 0-.594.073-.858.22-.264.147-.481.363-.649.649-.162.286-.242.642-.242 1.067v.308c0 .477.08.876.242 1.199.168.315.385.554.649.715.264.154.55.231.858.231.403 0 .722-.081.957-.242.242-.161.421-.392.539-.693h.913c-.096.33-.253.623-.473.88-.213.257-.484.462-.814.616-.323.147-.697.22-1.122.22Zm3.821-.132v-5.687h.836l.077 1.056c.124-.257.289-.473.495-.649.205-.176.454-.308.748-.396.293-.095.623-.143.99-.143v.968h-.473c-.228 0-.448.029-.66.088-.206.059-.393.158-.561.297-.162.132-.29.315-.385.55-.096.227-.143.517-.143.869v3.047h-.924Zm9.563.132c-.52 0-.982-.128-1.386-.385-.396-.264-.707-.62-.935-1.067-.22-.455-.33-.968-.33-1.54 0-.572.11-1.078.33-1.518.228-.447.539-.799.935-1.056.404-.257.869-.385 1.397-.385.448 0 .836.092 1.166.275.338.183.602.44.792.77v-3.146h.924v7.92h-.836l-.077-.913c-.117.176-.267.345-.451.506-.176.161-.392.293-.649.396-.249.095-.542.143-.88.143Zm.11-.803c.367 0 .686-.088.957-.264.279-.176.492-.425.638-.748.154-.33.231-.719.231-1.166 0-.44-.077-.821-.231-1.144-.146-.33-.359-.583-.638-.759-.271-.176-.59-.264-.957-.264-.344 0-.656.088-.935.264-.271.176-.487.429-.649.759-.154.323-.231.704-.231 1.144 0 .447.077.836.231 1.166.162.323.378.572.649.748.279.176.591.264.935.264Zm6.81.803c-.528 0-.997-.121-1.408-.363-.411-.249-.733-.598-.968-1.045-.227-.447-.341-.968-.341-1.562 0-.609.117-1.133.352-1.573.235-.447.557-.792.968-1.034.418-.249.891-.374 1.419-.374.535 0 1.008.125 1.419.374.411.242.73.587.957 1.034.227.44.341.964.341 1.573 0 .594-.117 1.115-.352 1.562-.227.447-.55.796-.968 1.045-.411.242-.884.363-1.419.363Zm0-.792c.337 0 .642-.081.913-.242.271-.161.484-.403.638-.726.161-.33.242-.737.242-1.221 0-.484-.077-.887-.231-1.21-.154-.323-.367-.565-.638-.726-.271-.161-.572-.242-.902-.242-.323 0-.62.081-.891.242-.271.161-.491.403-.66.726-.161.323-.242.73-.242 1.221 0 .477.081.88.242 1.21.161.323.374.565.638.726.271.161.568.242.891.242Zm5.039.66-1.672-5.687h.924l1.265 4.631h-.077l1.364-4.631h1.045l1.364 4.62-.066.011 1.254-4.631h.935l-1.672 5.687h-.946l-1.419-4.84h.066l-1.419 4.84h-.946Zm7.385 0v-5.687h.836l.055.935c.169-.337.414-.598.737-.781.323-.191.693-.286 1.111-.286.425 0 .796.084 1.111.253.315.161.561.411.737.748.176.337.264.763.264 1.276v3.542h-.924v-3.443c0-.528-.125-.924-.374-1.188-.249-.264-.59-.396-1.023-.396-.293 0-.565.07-.814.209-.242.139-.436.348-.583.627-.139.271-.209.601-.209.99v3.201h-.924Zm6.338 0v-7.92h.924v7.92h-.924Zm4.957.132c-.528 0-.998-.121-1.408-.363-.411-.249-.734-.598-.968-1.045-.228-.447-.341-.968-.341-1.562 0-.609.117-1.133.352-1.573.234-.447.557-.792.968-1.034.418-.249.891-.374 1.419-.374.535 0 1.008.125 1.419.374.41.242.729.587.957 1.034.227.44.341.964.341 1.573 0 .594-.118 1.115-.352 1.562-.228.447-.55.796-.968 1.045-.411.242-.884.363-1.419.363Zm0-.792c.337 0 .641-.081.913-.242.271-.161.484-.403.638-.726.161-.33.242-.737.242-1.221 0-.484-.077-.887-.231-1.21-.154-.323-.367-.565-.638-.726-.272-.161-.572-.242-.902-.242-.323 0-.62.081-.891.242-.272.161-.492.403-.66.726-.162.323-.242.73-.242 1.221 0 .477.08.88.242 1.21.161.323.374.565.638.726.271.161.568.242.891.242Zm5.881.792c-.447 0-.817-.081-1.111-.242-.293-.161-.513-.378-.66-.649-.146-.271-.22-.561-.22-.869 0-.381.096-.704.286-.968.198-.264.473-.466.825-.605.352-.139.763-.209 1.232-.209h1.452c0-.359-.047-.66-.143-.902-.088-.242-.234-.422-.44-.539-.198-.125-.454-.187-.77-.187-.337 0-.63.084-.88.253-.242.169-.392.418-.451.748h-.946c.044-.389.173-.711.385-.968.22-.264.495-.466.825-.605.338-.139.693-.209 1.067-.209.514 0 .939.095 1.276.286.338.183.587.444.748.781.169.33.253.722.253 1.177v3.575h-.825l-.055-.99c-.073.154-.168.301-.286.44-.11.132-.242.249-.396.352-.146.103-.319.183-.517.242s-.414.088-.649.088Zm.132-.781c.25 0 .477-.055.682-.165.206-.11.382-.257.528-.44.154-.183.268-.392.341-.627.081-.235.121-.477.121-.726v-.088h-1.375c-.344 0-.627.044-.847.132-.212.088-.366.209-.462.363-.095.154-.143.33-.143.528 0 .205.044.385.132.539.088.154.217.275.385.363.176.081.389.121.638.121Zm6.5.781c-.521 0-.983-.128-1.386-.385-.396-.264-.708-.62-.935-1.067-.22-.455-.33-.968-.33-1.54 0-.572.11-1.078.33-1.518.227-.447.539-.799.935-1.056.403-.257.869-.385 1.397-.385.447 0 .836.092 1.166.275.337.183.601.44.792.77v-3.146h.924v7.92h-.836l-.077-.913c-.118.176-.268.345-.451.506-.176.161-.393.293-.649.396-.25.095-.543.143-.88.143Zm.11-.803c.366 0 .685-.088.957-.264.278-.176.491-.425.638-.748.154-.33.231-.719.231-1.166 0-.44-.077-.821-.231-1.144-.147-.33-.36-.583-.638-.759-.272-.176-.591-.264-.957-.264-.345 0-.657.088-.935.264-.272.176-.488.429-.649.759-.154.323-.231.704-.231 1.144 0 .447.077.836.231 1.166.161.323.377.572.649.748.278.176.59.264.935.264Zm6.413.803c-.491 0-.909-.077-1.254-.231-.337-.154-.601-.37-.792-.649-.183-.286-.297-.616-.341-.99h.946c.037.198.11.381.22.55.11.161.268.293.473.396.206.095.459.143.759.143.257 0 .47-.037.638-.11.176-.081.308-.187.396-.319.088-.139.132-.297.132-.473 0-.235-.055-.414-.165-.539-.102-.132-.256-.231-.462-.297-.198-.073-.443-.132-.737-.176-.293-.044-.564-.103-.814-.176-.242-.081-.451-.183-.627-.308s-.311-.282-.407-.473c-.095-.191-.143-.418-.143-.682 0-.315.085-.594.253-.836.169-.249.404-.44.704-.572.308-.139.675-.209 1.1-.209.609 0 1.093.143 1.452.429.367.286.583.697.649 1.232h-.913c-.036-.279-.161-.495-.374-.649-.205-.154-.48-.231-.825-.231-.366 0-.645.07-.836.209-.183.139-.275.323-.275.55 0 .161.044.304.132.429.096.125.242.231.44.319.206.088.47.154.792.198.404.059.756.147 1.056.264.301.11.536.279.704.506.169.227.25.539.242.935.008.367-.08.682-.264.946-.176.264-.421.466-.737.605-.315.139-.689.209-1.122.209Zm8.233 0c-.447 0-.818-.081-1.111-.242-.293-.161-.513-.378-.66-.649-.147-.271-.22-.561-.22-.869 0-.381.095-.704.286-.968.198-.264.473-.466.825-.605.352-.139.763-.209 1.232-.209h1.452c0-.359-.048-.66-.143-.902-.088-.242-.235-.422-.44-.539-.198-.125-.455-.187-.77-.187-.337 0-.631.084-.88.253-.242.169-.392.418-.451.748h-.946c.044-.389.172-.711.385-.968.22-.264.495-.466.825-.605.337-.139.693-.209 1.067-.209.513 0 .939.095 1.276.286.337.183.587.444.748.781.169.33.253.722.253 1.177v3.575h-.825l-.055-.99c-.073.154-.169.301-.286.44-.11.132-.242.249-.396.352-.147.103-.319.183-.517.242s-.414.088-.649.088Zm.132-.781c.249 0 .477-.055.682-.165.205-.11.381-.257.528-.44.154-.183.268-.392.341-.627.081-.235.121-.477.121-.726v-.088h-1.375c-.345 0-.627.044-.847.132-.213.088-.367.209-.462.363-.095.154-.143.33-.143.528 0 .205.044.385.132.539.088.154.216.275.385.363.176.081.389.121.638.121Zm4.079.649v-5.687h.836l.055.935c.169-.337.415-.598.737-.781.323-.191.693-.286 1.111-.286.426 0 .796.084 1.111.253.316.161.561.411.737.748.176.337.264.763.264 1.276v3.542h-.924v-3.443c0-.528-.124-.924-.374-1.188-.249-.264-.59-.396-1.023-.396-.293 0-.564.07-.814.209-.242.139-.436.348-.583.627-.139.271-.209.601-.209.99v3.201h-.924Zm-110.582 14.132c-.513 0-.972-.121-1.375-.363-.396-.249-.708-.598-.935-1.045-.227-.447-.341-.972-.341-1.573 0-.594.114-1.115.341-1.562.227-.447.539-.792.935-1.034.403-.249.869-.374 1.397-.374.55 0 1.012.125 1.386.374.381.242.667.568.858.979.198.403.297.851.297 1.342v.22c0 .073-.004.161-.011.264h-4.51v-.715h3.608c-.015-.543-.18-.957-.495-1.243-.308-.293-.693-.44-1.155-.44-.308 0-.594.073-.858.22-.264.147-.48.363-.649.649-.161.286-.242.642-.242 1.067v.308c0 .477.081.876.242 1.199.169.315.385.554.649.715.264.154.55.231.858.231.403 0 .722-.081.957-.242.242-.161.422-.392.539-.693h.913c-.095.33-.253.623-.473.88-.213.257-.484.462-.814.616-.323.147-.697.22-1.122.22Zm3.821-.132v-5.687h.836l.055.792c.176-.286.411-.51.704-.671.301-.169.624-.253.968-.253.279 0 .532.04.759.121.228.073.426.191.594.352.176.154.316.348.418.583.191-.337.451-.598.781-.781.33-.183.679-.275 1.045-.275.426 0 .792.084 1.1.253.316.169.558.422.726.759.169.337.253.763.253 1.276v3.531h-.913v-3.432c0-.535-.113-.935-.341-1.199-.227-.264-.542-.396-.946-.396-.271 0-.517.073-.737.22-.22.139-.396.348-.528.627-.124.279-.187.616-.187 1.012v3.168h-.924v-3.432c0-.535-.113-.935-.341-1.199-.227-.264-.539-.396-.935-.396-.264 0-.509.073-.737.22-.22.139-.396.348-.528.627s-.198.616-.198 1.012v3.168h-.924Zm9.722 2.42v-8.107h.836l.088.902c.117-.183.264-.352.44-.506.183-.161.4-.29.649-.385.257-.095.554-.143.891-.143.521 0 .979.132 1.375.396.396.257.704.609.924 1.056.227.447.341.961.341 1.54 0 .565-.114 1.071-.341 1.518-.22.447-.532.799-.935 1.056-.396.257-.854.385-1.375.385-.447 0-.843-.092-1.188-.275-.337-.183-.598-.44-.781-.77v3.333h-.924Zm2.783-3.091c.352 0 .664-.088.935-.264.271-.176.484-.425.638-.748.161-.33.242-.719.242-1.166 0-.44-.081-.821-.242-1.144-.154-.33-.367-.583-.638-.759-.271-.176-.583-.264-.935-.264-.367 0-.689.088-.968.264-.271.176-.484.429-.638.759-.147.323-.22.704-.22 1.144 0 .447.073.836.22 1.166.154.323.367.572.638.748.279.176.601.264.968.264Zm6.088.671c-.33 0-.616-.051-.858-.154-.242-.103-.429-.275-.561-.517-.124-.249-.187-.583-.187-1.001v-3.234h-.99v-.781h.99l.121-1.397h.803v1.397h1.628v.781h-1.628v3.234c0 .345.07.579.209.704.14.117.385.176.737.176h.638v.792h-.902Zm2.821 2.42 1.32-3.036h-.319l-2.167-5.071h1.001l1.804 4.367 1.881-4.367h.957l-3.52 8.107h-.957Zm13.411-2.42v-7.7h.924v7.7h-.924Zm-4.917 0v-7.7h.924v7.7h-.924Zm.748-3.542v-.759h4.4v.759h-4.4Zm8.554 3.542v-6.941h-2.299v-.759h5.522v.759h-2.299v6.941h-.924Zm4.405 0v-7.7h1.078l2.662 5.412 2.64-5.412h1.089v7.7h-.924v-6.039l-2.464 5.005h-.693l-2.464-4.972v6.006h-.924Zm9.152 0v-7.7h.924v6.963h3.586v.737h-4.51Zm8.766 0v-7.7h2.101c.895 0 1.632.158 2.211.473.587.308 1.019.752 1.298 1.331.286.572.429 1.261.429 2.068 0 .792-.143 1.474-.429 2.046-.279.572-.711 1.012-1.298 1.32-.579.308-1.316.462-2.211.462H188.4Zm.924-.77h1.155c.741 0 1.331-.121 1.771-.363.44-.249.755-.601.946-1.056.191-.462.286-1.008.286-1.639 0-.645-.095-1.199-.286-1.661-.191-.462-.506-.818-.946-1.067-.44-.249-1.03-.374-1.771-.374h-1.155v6.16Zm8.908.902c-.528 0-.997-.121-1.408-.363-.411-.249-.733-.598-.968-1.045-.227-.447-.341-.968-.341-1.562 0-.609.117-1.133.352-1.573.235-.447.557-.792.968-1.034.418-.249.891-.374 1.419-.374.535 0 1.008.125 1.419.374.411.242.73.587.957 1.034.227.44.341.964.341 1.573 0 .594-.117 1.115-.352 1.562-.227.447-.55.796-.968 1.045-.411.242-.884.363-1.419.363Zm0-.792c.337 0 .642-.081.913-.242.271-.161.484-.403.638-.726.161-.33.242-.737.242-1.221 0-.484-.077-.887-.231-1.21-.154-.323-.367-.565-.638-.726-.271-.161-.572-.242-.902-.242-.323 0-.62.081-.891.242-.271.161-.491.403-.66.726-.161.323-.242.73-.242 1.221 0 .477.081.88.242 1.21.161.323.374.565.638.726.271.161.568.242.891.242Zm6.575.792c-.528 0-.998-.125-1.408-.374-.411-.249-.737-.598-.979-1.045-.235-.447-.352-.964-.352-1.551 0-.601.117-1.122.352-1.562.242-.447.568-.796.979-1.045.41-.249.88-.374 1.408-.374.652 0 1.199.176 1.639.528.447.345.733.81.858 1.397h-.946c-.081-.359-.268-.638-.561-.836-.286-.198-.62-.297-1.001-.297-.33 0-.631.084-.902.253-.264.161-.477.403-.638.726-.162.323-.242.722-.242 1.199 0 .359.044.678.132.957.095.271.223.502.385.693.161.183.348.323.561.418.22.088.454.132.704.132.256 0 .491-.044.704-.132.22-.088.403-.216.55-.385.154-.176.256-.385.308-.627h.946c-.118.572-.4 1.038-.847 1.397-.448.352-.998.528-1.65.528Zm5.876 0c-.425 0-.796-.081-1.111-.242-.315-.169-.561-.422-.737-.759-.176-.345-.264-.77-.264-1.276v-3.542h.924v3.443c0 .528.125.924.374 1.188.249.264.59.396 1.023.396.301 0 .568-.07.803-.209.242-.139.433-.345.572-.616.147-.279.22-.612.22-1.001v-3.201h.924v5.687h-.836l-.055-.935c-.161.337-.403.601-.726.792-.323.183-.693.275-1.111.275Zm4.281-.132v-5.687h.836l.055.792c.176-.286.411-.51.704-.671.301-.169.623-.253.968-.253.279 0 .532.04.759.121.227.073.425.191.594.352.176.154.315.348.418.583.191-.337.451-.598.781-.781.33-.183.678-.275 1.045-.275.425 0 .792.084 1.1.253.315.169.557.422.726.759.169.337.253.763.253 1.276v3.531h-.913v-3.432c0-.535-.114-.935-.341-1.199-.227-.264-.543-.396-.946-.396-.271 0-.517.073-.737.22-.22.139-.396.348-.528.627-.125.279-.187.616-.187 1.012v3.168h-.924v-3.432c0-.535-.114-.935-.341-1.199-.227-.264-.539-.396-.935-.396-.264 0-.51.073-.737.22-.22.139-.396.348-.528.627s-.198.616-.198 1.012v3.168h-.924Zm12.142.132c-.514 0-.972-.121-1.375-.363-.396-.249-.708-.598-.935-1.045-.228-.447-.341-.972-.341-1.573 0-.594.113-1.115.341-1.562.227-.447.539-.792.935-1.034.403-.249.869-.374 1.397-.374.55 0 1.012.125 1.386.374.381.242.667.568.858.979.198.403.297.851.297 1.342v.22c0 .073-.004.161-.011.264h-4.51v-.715h3.608c-.015-.543-.18-.957-.495-1.243-.308-.293-.693-.44-1.155-.44-.308 0-.594.073-.858.22-.264.147-.481.363-.649.649-.162.286-.242.642-.242 1.067v.308c0 .477.08.876.242 1.199.168.315.385.554.649.715.264.154.55.231.858.231.403 0 .722-.081.957-.242.242-.161.421-.392.539-.693h.913c-.096.33-.253.623-.473.88-.213.257-.484.462-.814.616-.323.147-.697.22-1.122.22Zm3.821-.132v-5.687h.836l.055.935c.168-.337.414-.598.737-.781.322-.191.693-.286 1.111-.286.425 0 .795.084 1.111.253.315.161.561.411.737.748.176.337.264.763.264 1.276v3.542h-.924v-3.443c0-.528-.125-.924-.374-1.188-.25-.264-.591-.396-1.023-.396-.294 0-.565.07-.814.209-.242.139-.437.348-.583.627-.14.271-.209.601-.209.99v3.201h-.924Zm8.56 0c-.33 0-.616-.051-.858-.154-.242-.103-.429-.275-.561-.517-.125-.249-.187-.583-.187-1.001v-3.234h-.99v-.781h.99l.121-1.397h.803v1.397h1.628v.781h-1.628v3.234c0 .345.069.579.209.704.139.117.385.176.737.176h.638v.792h-.902Zm2.534.055c-.176 0-.326-.059-.451-.176-.117-.125-.176-.275-.176-.451s.059-.323.176-.44c.125-.125.275-.187.451-.187.191 0 .341.062.451.187.117.117.176.264.176.44s-.059.326-.176.451c-.11.117-.26.176-.451.176Z"/></g><g clip-path="url(#s)"><circle cx="263" cy="141.41" r="8" fill="#020420" stroke="#334155"/><path fill="#fff" d="M262.889 144.41v-5.87l-1.22.31v-.75l1.59-.69h.65v7h-1.02Z"/></g></g></g><g clip-path="url(#t)"><rect width="165" height="125" x="296.5" y="159.41" fill="url(#u)" fill-opacity=".12" rx="4"/><circle cx="304" cy="166.91" r="1.5" fill="#F1F5F9" fill-opacity=".3"/><circle cx="308.5" cy="166.91" r="1.5" fill="#F1F5F9" fill-opacity=".3"/><circle cx="313" cy="166.91" r="1.5" fill="#F1F5F9" fill-opacity=".3"/><path fill="#CBD5E1" d="M375.375 222.535h-3.75c-.166 0-.325-.066-.442-.183-.117-.117-.183-.276-.183-.442v-3.75c0-.166.066-.325.183-.442.117-.117.276-.183.442-.183.166 0 .325.066.442.183.117.117.183.276.183.442v1.863c1.209-1.363 3.329-3.113 6.25-3.113 3.345 0 5.358 1.974 5.442 2.058.118.117.184.276.184.442 0 .166-.065.325-.182.442-.117.118-.276.184-.442.184-.166.001-.325-.065-.443-.182-.021-.021-1.753-1.694-4.559-1.694-2.734 0-4.705 1.926-5.669 3.125h2.544c.166 0 .325.066.442.183.117.117.183.276.183.442 0 .166-.066.325-.183.442-.117.117-.276.183-.442.183Zm10 3.75h-3.75c-.166 0-.325.066-.442.183-.117.117-.183.276-.183.442 0 .166.066.325.183.442.117.117.276.183.442.183h2.544c-.964 1.199-2.935 3.125-5.669 3.125-2.806 0-4.538-1.672-4.559-1.694-.118-.117-.277-.182-.443-.182-.166 0-.325.066-.442.184-.117.117-.182.277-.182.442 0 .166.066.325.184.442.084.084 2.097 2.058 5.442 2.058 2.921 0 5.041-1.75 6.25-3.113v1.863c0 .166.066.325.183.442.117.117.276.183.442.183.166 0 .325-.066.442-.183.117-.117.183-.276.183-.442v-3.75c0-.166-.066-.325-.183-.442-.117-.117-.276-.183-.442-.183Z"/><rect width="164" height="124" x="297" y="159.91" stroke="url(#v)" stroke-opacity=".3" rx="3.5"/><g clip-path="url(#w)"><g clip-path="url(#x)"><rect width="164" height="63" x="297" y="79.5" stroke="#334155" rx="3.5"/><path fill="#fff" d="M318.713 108v-7.7h2.706c.543 0 .99.088 1.342.264.359.169.627.403.803.704.176.293.264.623.264.99 0 .396-.088.726-.264.99-.169.264-.392.466-.671.605-.271.139-.561.224-.869.253l.154-.11c.33.007.634.095.913.264s.499.396.66.682c.169.286.253.605.253.957 0 .389-.095.744-.286 1.067-.191.315-.473.568-.847.759-.367.183-.821.275-1.364.275h-2.794Zm.924-.77h1.771c.521 0 .924-.121 1.21-.363.293-.249.44-.594.44-1.034 0-.433-.15-.777-.451-1.034-.293-.264-.7-.396-1.221-.396h-1.749v2.827Zm0-3.564h1.716c.499 0 .876-.117 1.133-.352.264-.235.396-.554.396-.957 0-.389-.132-.7-.396-.935-.257-.235-.645-.352-1.166-.352h-1.683v2.596Zm5.67 4.334v-5.687h.836l.077 1.056c.125-.257.29-.473.495-.649.205-.176.455-.308.748-.396.293-.095.623-.143.99-.143v.968h-.473c-.227 0-.447.029-.66.088-.205.059-.392.158-.561.297-.161.132-.29.315-.385.55-.095.227-.143.517-.143.869V108h-.924Zm6.482.132c-.528 0-.997-.121-1.408-.363-.41-.249-.733-.598-.968-1.045-.227-.447-.341-.968-.341-1.562 0-.609.118-1.133.352-1.573.235-.447.558-.792.968-1.034.418-.249.891-.374 1.419-.374.536 0 1.009.125 1.419.374.411.242.73.587.957 1.034.228.44.341.964.341 1.573 0 .594-.117 1.115-.352 1.562-.227.447-.55.796-.968 1.045-.41.242-.883.363-1.419.363Zm0-.792c.338 0 .642-.081.913-.242.272-.161.484-.403.638-.726.162-.33.242-.737.242-1.221 0-.484-.077-.887-.231-1.21-.154-.323-.366-.565-.638-.726-.271-.161-.572-.242-.902-.242-.322 0-.619.081-.891.242-.271.161-.491.403-.66.726-.161.323-.242.73-.242 1.221 0 .477.081.88.242 1.21.162.323.374.565.638.726.272.161.569.242.891.242Zm5.04.66-1.672-5.687h.924l1.265 4.631h-.077l1.364-4.631h1.045l1.364 4.62-.066.011 1.254-4.631h.935L341.493 108h-.946l-1.419-4.84h.066l-1.419 4.84h-.946Zm9.474.132c-.491 0-.909-.077-1.254-.231-.337-.154-.601-.37-.792-.649-.183-.286-.297-.616-.341-.99h.946c.037.198.11.381.22.55.11.161.268.293.473.396.206.095.459.143.759.143.257 0 .47-.037.638-.11.176-.081.308-.187.396-.319.088-.139.132-.297.132-.473 0-.235-.055-.414-.165-.539-.102-.132-.256-.231-.462-.297-.198-.073-.443-.132-.737-.176-.293-.044-.564-.103-.814-.176-.242-.081-.451-.183-.627-.308s-.311-.282-.407-.473c-.095-.191-.143-.418-.143-.682 0-.315.085-.594.253-.836.169-.249.404-.44.704-.572.308-.139.675-.209 1.1-.209.609 0 1.093.143 1.452.429.367.286.583.697.649 1.232h-.913c-.036-.279-.161-.495-.374-.649-.205-.154-.48-.231-.825-.231-.366 0-.645.07-.836.209-.183.139-.275.323-.275.55 0 .161.044.304.132.429.096.125.242.231.44.319.206.088.47.154.792.198.404.059.756.147 1.056.264.301.11.536.279.704.506.169.227.25.539.242.935.008.367-.08.682-.264.946-.176.264-.421.466-.737.605-.315.139-.689.209-1.122.209Zm5.895 0c-.514 0-.972-.121-1.375-.363-.396-.249-.708-.598-.935-1.045-.228-.447-.341-.972-.341-1.573 0-.594.113-1.115.341-1.562.227-.447.539-.792.935-1.034.403-.249.869-.374 1.397-.374.55 0 1.012.125 1.386.374.381.242.667.568.858.979.198.403.297.851.297 1.342v.22c0 .073-.004.161-.011.264h-4.51v-.715h3.608c-.015-.543-.18-.957-.495-1.243-.308-.293-.693-.44-1.155-.44-.308 0-.594.073-.858.22-.264.147-.481.363-.649.649-.162.286-.242.642-.242 1.067v.308c0 .477.08.876.242 1.199.168.315.385.554.649.715.264.154.55.231.858.231.403 0 .722-.081.957-.242.242-.161.421-.392.539-.693h.913c-.096.33-.253.623-.473.88-.213.257-.484.462-.814.616-.323.147-.697.22-1.122.22Zm3.821-.132v-5.687h.836l.077 1.056c.125-.257.29-.473.495-.649.205-.176.455-.308.748-.396.293-.095.623-.143.99-.143v.968h-.473c-.227 0-.447.029-.66.088-.205.059-.392.158-.561.297-.161.132-.29.315-.385.55-.095.227-.143.517-.143.869V108h-.924Zm9.564.132c-.521 0-.983-.128-1.386-.385-.396-.264-.708-.62-.935-1.067-.22-.455-.33-.968-.33-1.54 0-.572.11-1.078.33-1.518.227-.447.539-.799.935-1.056.403-.257.869-.385 1.397-.385.447 0 .836.092 1.166.275.337.183.601.44.792.77v-3.146h.924V108h-.836l-.077-.913c-.118.176-.268.345-.451.506-.176.161-.393.293-.649.396-.25.095-.543.143-.88.143Zm.11-.803c.366 0 .685-.088.957-.264.278-.176.491-.425.638-.748.154-.33.231-.719.231-1.166 0-.44-.077-.821-.231-1.144-.147-.33-.36-.583-.638-.759-.272-.176-.591-.264-.957-.264-.345 0-.657.088-.935.264-.272.176-.488.429-.649.759-.154.323-.231.704-.231 1.144 0 .447.077.836.231 1.166.161.323.377.572.649.748.278.176.59.264.935.264Zm6.809.803c-.528 0-.997-.121-1.408-.363-.411-.249-.733-.598-.968-1.045-.227-.447-.341-.968-.341-1.562 0-.609.117-1.133.352-1.573.235-.447.557-.792.968-1.034.418-.249.891-.374 1.419-.374.535 0 1.008.125 1.419.374.411.242.73.587.957 1.034.227.44.341.964.341 1.573 0 .594-.117 1.115-.352 1.562-.227.447-.55.796-.968 1.045-.411.242-.884.363-1.419.363Zm0-.792c.337 0 .642-.081.913-.242.271-.161.484-.403.638-.726.161-.33.242-.737.242-1.221 0-.484-.077-.887-.231-1.21-.154-.323-.367-.565-.638-.726-.271-.161-.572-.242-.902-.242-.323 0-.62.081-.891.242-.271.161-.491.403-.66.726-.161.323-.242.73-.242 1.221 0 .477.081.88.242 1.21.161.323.374.565.638.726.271.161.568.242.891.242Zm5.04.66-1.672-5.687h.924l1.265 4.631h-.077l1.364-4.631h1.045l1.364 4.62-.066.011 1.254-4.631h.935L382.206 108h-.946l-1.419-4.84h.066l-1.419 4.84h-.946Zm7.384 0v-5.687h.836l.055.935c.169-.337.415-.598.737-.781.323-.191.693-.286 1.111-.286.426 0 .796.084 1.111.253.316.161.561.411.737.748.176.337.264.763.264 1.276V108h-.924v-3.443c0-.528-.124-.924-.374-1.188-.249-.264-.59-.396-1.023-.396-.293 0-.564.07-.814.209-.242.139-.436.348-.583.627-.139.271-.209.601-.209.99V108h-.924Zm6.338 0v-7.92h.924V108h-.924Zm4.957.132c-.528 0-.997-.121-1.408-.363-.411-.249-.733-.598-.968-1.045-.227-.447-.341-.968-.341-1.562 0-.609.117-1.133.352-1.573.235-.447.557-.792.968-1.034.418-.249.891-.374 1.419-.374.535 0 1.008.125 1.419.374.411.242.73.587.957 1.034.227.44.341.964.341 1.573 0 .594-.117 1.115-.352 1.562-.227.447-.55.796-.968 1.045-.411.242-.884.363-1.419.363Zm0-.792c.337 0 .642-.081.913-.242.271-.161.484-.403.638-.726.161-.33.242-.737.242-1.221 0-.484-.077-.887-.231-1.21-.154-.323-.367-.565-.638-.726-.271-.161-.572-.242-.902-.242-.323 0-.62.081-.891.242-.271.161-.491.403-.66.726-.161.323-.242.73-.242 1.221 0 .477.081.88.242 1.21.161.323.374.565.638.726.271.161.568.242.891.242Zm5.882.792c-.448 0-.818-.081-1.111-.242-.294-.161-.514-.378-.66-.649-.147-.271-.22-.561-.22-.869 0-.381.095-.704.286-.968.198-.264.473-.466.825-.605.352-.139.762-.209 1.232-.209h1.452c0-.359-.048-.66-.143-.902-.088-.242-.235-.422-.44-.539-.198-.125-.455-.187-.77-.187-.338 0-.631.084-.88.253-.242.169-.393.418-.451.748h-.946c.044-.389.172-.711.385-.968.22-.264.495-.466.825-.605.337-.139.693-.209 1.067-.209.513 0 .938.095 1.276.286.337.183.586.444.748.781.168.33.253.722.253 1.177V108h-.825l-.055-.99c-.074.154-.169.301-.286.44-.11.132-.242.249-.396.352-.147.103-.319.183-.517.242s-.415.088-.649.088Zm.132-.781c.249 0 .476-.055.682-.165.205-.11.381-.257.528-.44.154-.183.267-.392.341-.627.08-.235.121-.477.121-.726v-.088h-1.375c-.345 0-.627.044-.847.132-.213.088-.367.209-.462.363-.096.154-.143.33-.143.528 0 .205.044.385.132.539.088.154.216.275.385.363.176.081.388.121.638.121Zm6.499.781c-.521 0-.983-.128-1.386-.385-.396-.264-.708-.62-.935-1.067-.22-.455-.33-.968-.33-1.54 0-.572.11-1.078.33-1.518.227-.447.539-.799.935-1.056.403-.257.869-.385 1.397-.385.447 0 .836.092 1.166.275.337.183.601.44.792.77v-3.146h.924V108h-.836l-.077-.913c-.117.176-.268.345-.451.506-.176.161-.392.293-.649.396-.249.095-.543.143-.88.143Zm.11-.803c.367 0 .686-.088.957-.264.279-.176.491-.425.638-.748.154-.33.231-.719.231-1.166 0-.44-.077-.821-.231-1.144-.147-.33-.359-.583-.638-.759-.271-.176-.59-.264-.957-.264-.345 0-.656.088-.935.264-.271.176-.488.429-.649.759-.154.323-.231.704-.231 1.144 0 .447.077.836.231 1.166.161.323.378.572.649.748.279.176.59.264.935.264Zm6.413.803c-.491 0-.909-.077-1.254-.231-.337-.154-.601-.37-.792-.649-.183-.286-.297-.616-.341-.99h.946c.037.198.11.381.22.55.11.161.268.293.473.396.206.095.459.143.759.143.257 0 .47-.037.638-.11.176-.081.308-.187.396-.319.088-.139.132-.297.132-.473 0-.235-.055-.414-.165-.539-.102-.132-.256-.231-.462-.297-.198-.073-.443-.132-.737-.176-.293-.044-.564-.103-.814-.176-.242-.081-.451-.183-.627-.308s-.311-.282-.407-.473c-.095-.191-.143-.418-.143-.682 0-.315.085-.594.253-.836.169-.249.404-.44.704-.572.308-.139.675-.209 1.1-.209.609 0 1.093.143 1.452.429.367.286.583.697.649 1.232h-.913c-.036-.279-.161-.495-.374-.649-.205-.154-.48-.231-.825-.231-.366 0-.645.07-.836.209-.183.139-.275.323-.275.55 0 .161.044.304.132.429.096.125.242.231.44.319.206.088.47.154.792.198.404.059.756.147 1.056.264.301.11.536.279.704.506.169.227.25.539.242.935.008.367-.08.682-.264.946-.176.264-.421.466-.737.605-.315.139-.689.209-1.122.209Zm8.233 0c-.447 0-.817-.081-1.111-.242-.293-.161-.513-.378-.66-.649-.146-.271-.22-.561-.22-.869 0-.381.096-.704.286-.968.198-.264.473-.466.825-.605.352-.139.763-.209 1.232-.209h1.452c0-.359-.047-.66-.143-.902-.088-.242-.234-.422-.44-.539-.198-.125-.454-.187-.77-.187-.337 0-.63.084-.88.253-.242.169-.392.418-.451.748h-.946c.044-.389.173-.711.385-.968.22-.264.495-.466.825-.605.338-.139.693-.209 1.067-.209.514 0 .939.095 1.276.286.338.183.587.444.748.781.169.33.253.722.253 1.177V108h-.825l-.055-.99c-.073.154-.168.301-.286.44-.11.132-.242.249-.396.352-.146.103-.319.183-.517.242s-.414.088-.649.088Zm.132-.781c.25 0 .477-.055.682-.165.206-.11.382-.257.528-.44.154-.183.268-.392.341-.627.081-.235.121-.477.121-.726v-.088h-1.375c-.344 0-.627.044-.847.132-.212.088-.366.209-.462.363-.095.154-.143.33-.143.528 0 .205.044.385.132.539.088.154.217.275.385.363.176.081.389.121.638.121Zm4.08.649v-5.687h.836l.055.935c.168-.337.414-.598.737-.781.322-.191.693-.286 1.111-.286.425 0 .795.084 1.111.253.315.161.561.411.737.748.176.337.264.763.264 1.276V108h-.924v-3.443c0-.528-.125-.924-.374-1.188-.25-.264-.591-.396-1.023-.396-.294 0-.565.07-.814.209-.242.139-.437.348-.583.627-.14.271-.209.601-.209.99V108h-.924Zm8.758.132c-.521 0-.983-.128-1.386-.385-.396-.264-.708-.62-.935-1.067-.22-.455-.33-.968-.33-1.54 0-.572.11-1.078.33-1.518.227-.447.539-.799.935-1.056.403-.257.869-.385 1.397-.385.447 0 .836.092 1.166.275.337.183.601.44.792.77v-3.146h.924V108h-.836l-.077-.913c-.118.176-.268.345-.451.506-.176.161-.393.293-.649.396-.25.095-.543.143-.88.143Zm.11-.803c.366 0 .685-.088.957-.264.278-.176.491-.425.638-.748.154-.33.231-.719.231-1.166 0-.44-.077-.821-.231-1.144-.147-.33-.36-.583-.638-.759-.272-.176-.591-.264-.957-.264-.345 0-.657.088-.935.264-.272.176-.488.429-.649.759-.154.323-.231.704-.231 1.144 0 .447.077.836.231 1.166.161.323.377.572.649.748.278.176.59.264.935.264ZM349.987 122v-5.687h.836l.077 1.056c.125-.257.29-.473.495-.649.206-.176.455-.308.748-.396.294-.095.624-.143.99-.143v.968h-.473c-.227 0-.447.029-.66.088-.205.059-.392.158-.561.297-.161.132-.289.315-.385.55-.095.227-.143.517-.143.869V122h-.924Zm6.257.132c-.425 0-.795-.081-1.111-.242-.315-.169-.561-.422-.737-.759-.176-.345-.264-.77-.264-1.276v-3.542h.924v3.443c0 .528.125.924.374 1.188.25.264.591.396 1.023.396.301 0 .569-.07.803-.209.242-.139.433-.345.572-.616.147-.279.22-.612.22-1.001v-3.201h.924V122h-.836l-.055-.935c-.161.337-.403.601-.726.792-.322.183-.693.275-1.111.275Zm4.281-.132v-5.687h.836l.055.935c.169-.337.415-.598.737-.781.323-.191.693-.286 1.111-.286.426 0 .796.084 1.111.253.316.161.561.411.737.748.176.337.264.763.264 1.276V122h-.924v-3.443c0-.528-.124-.924-.374-1.188-.249-.264-.59-.396-1.023-.396-.293 0-.564.07-.814.209-.242.139-.436.348-.583.627-.139.271-.209.601-.209.99V122h-.924Zm8.428.132c-.491 0-.909-.077-1.254-.231-.337-.154-.601-.37-.792-.649-.183-.286-.297-.616-.341-.99h.946c.037.198.11.381.22.55.11.161.268.293.473.396.206.095.459.143.759.143.257 0 .47-.037.638-.11.176-.081.308-.187.396-.319.088-.139.132-.297.132-.473 0-.235-.055-.414-.165-.539-.102-.132-.256-.231-.462-.297-.198-.073-.443-.132-.737-.176-.293-.044-.564-.103-.814-.176-.242-.081-.451-.183-.627-.308s-.311-.282-.407-.473c-.095-.191-.143-.418-.143-.682 0-.315.085-.594.253-.836.169-.249.404-.44.704-.572.308-.139.675-.209 1.1-.209.609 0 1.093.143 1.452.429.367.286.583.697.649 1.232h-.913c-.036-.279-.161-.495-.374-.649-.205-.154-.48-.231-.825-.231-.366 0-.645.07-.836.209-.183.139-.275.323-.275.55 0 .161.044.304.132.429.096.125.242.231.44.319.206.088.47.154.792.198.404.059.756.147 1.056.264.301.11.536.279.704.506.169.227.25.539.242.935.008.367-.08.682-.264.946-.176.264-.421.466-.737.605-.315.139-.689.209-1.122.209Zm8.64-.132c-.33 0-.616-.051-.858-.154-.242-.103-.429-.275-.561-.517-.125-.249-.187-.583-.187-1.001v-3.234h-.99v-.781h.99l.121-1.397h.803v1.397h1.628v.781h-1.628v3.234c0 .345.07.579.209.704.139.117.385.176.737.176h.638V122h-.902Zm2.182 0v-7.92h.924v3.168c.191-.33.451-.59.781-.781.33-.191.69-.286 1.078-.286.44 0 .814.084 1.122.253.316.169.558.425.726.77.169.337.253.77.253 1.298V122h-.913v-3.399c0-.543-.124-.95-.374-1.221-.242-.271-.579-.407-1.012-.407-.3 0-.579.073-.836.22-.249.147-.451.363-.605.649-.146.279-.22.62-.22 1.023V122h-.924Zm8.79.132c-.513 0-.971-.121-1.375-.363-.396-.249-.707-.598-.935-1.045-.227-.447-.341-.972-.341-1.573 0-.594.114-1.115.341-1.562.228-.447.539-.792.935-1.034.404-.249.869-.374 1.397-.374.55 0 1.012.125 1.386.374.382.242.668.568.858.979.198.403.297.851.297 1.342v.22c0 .073-.003.161-.011.264h-4.51v-.715h3.608c-.014-.543-.179-.957-.495-1.243-.308-.293-.693-.44-1.155-.44-.308 0-.594.073-.858.22-.264.147-.48.363-.649.649-.161.286-.242.642-.242 1.067v.308c0 .477.081.876.242 1.199.169.315.385.554.649.715.264.154.55.231.858.231.404 0 .723-.081.957-.242.242-.161.422-.392.539-.693h.913c-.095.33-.253.623-.473.88-.212.257-.484.462-.814.616-.322.147-.696.22-1.122.22Zm8.569 0c-.462 0-.862-.088-1.199-.264-.33-.176-.587-.429-.77-.759-.176-.33-.264-.722-.264-1.177h.935c0 .257.04.491.121.704.088.205.224.37.407.495.191.117.444.176.759.176.308 0 .55-.059.726-.176.183-.117.312-.275.385-.473.081-.205.121-.436.121-.693V114.3h.924v5.665c0 .689-.191 1.225-.572 1.606-.374.374-.898.561-1.573.561Zm6.28 0c-.565 0-1.056-.103-1.474-.308-.418-.205-.741-.491-.968-.858-.228-.367-.341-.792-.341-1.276h.968c0 .301.069.579.209.836.139.249.341.451.605.605.271.147.605.22 1.001.22.344 0 .638-.055.88-.165.249-.117.436-.275.561-.473.132-.198.198-.422.198-.671 0-.286-.063-.521-.187-.704-.125-.191-.297-.345-.517-.462-.213-.125-.462-.231-.748-.319-.279-.095-.58-.198-.902-.308-.624-.205-1.082-.462-1.375-.77-.286-.308-.429-.708-.429-1.199 0-.418.095-.785.286-1.1.198-.315.476-.561.836-.737.366-.183.799-.275 1.298-.275.491 0 .916.092 1.276.275.366.183.652.436.858.759.205.315.308.682.308 1.1h-.968c0-.213-.055-.422-.165-.627-.11-.205-.279-.374-.506-.506-.22-.139-.499-.209-.836-.209-.279-.007-.528.04-.748.143-.213.095-.382.235-.506.418-.118.183-.176.407-.176.671 0 .249.051.451.154.605.11.154.264.286.462.396.205.103.443.198.715.286.271.088.572.187.902.297.374.125.704.279.99.462.293.176.52.403.682.682.168.279.253.634.253 1.067 0 .367-.099.715-.297 1.045-.191.323-.477.587-.858.792-.382.205-.862.308-1.441.308Zm4.246-.077c-.176 0-.327-.059-.451-.176-.118-.125-.176-.275-.176-.451s.058-.323.176-.44c.124-.125.275-.187.451-.187.19 0 .341.062.451.187.117.117.176.264.176.44s-.059.326-.176.451c-.11.117-.261.176-.451.176Z"/></g><g clip-path="url(#y)"><circle cx="461" cy="140.705" r="8" fill="#020420" stroke="#334155"/><path fill="#fff" d="M458.704 143.705v-.72c.467-.36.91-.723 1.33-1.09.42-.367.794-.73 1.12-1.09.334-.367.594-.723.78-1.07.187-.353.28-.69.28-1.01 0-.227-.04-.437-.12-.63-.08-.193-.206-.35-.38-.47-.173-.127-.41-.19-.71-.19-.286 0-.526.063-.72.19-.186.127-.33.297-.43.51-.093.207-.14.437-.14.69h-.97c.007-.48.11-.887.31-1.22.2-.333.47-.587.81-.76.347-.173.734-.26 1.16-.26.447 0 .834.083 1.16.25.327.16.58.397.76.71.18.307.27.683.27 1.13 0 .32-.063.64-.19.96-.126.313-.3.62-.52.92-.213.3-.453.59-.72.87-.266.273-.543.533-.83.78-.28.247-.55.47-.81.67h3.29v.83h-4.73Z"/></g></g></g></g></g><rect width="765" height="363" x=".5" y=".5" stroke="#1E293B" rx="7.5"/><defs><clipPath id="a"><rect width="766" height="364" fill="#fff" rx="8"/></clipPath><clipPath id="d"><path fill="#fff" d="M98.5 79h569v206h-569z"/></clipPath><clipPath id="e"><path fill="#fff" d="M494.5 79h173v206h-173z"/></clipPath><clipPath id="f"><path fill="#fff" d="M494.5 79h173v71h-173z"/></clipPath><clipPath id="g"><path fill="#fff" d="M494.5 79h165v64h-165z"/></clipPath><clipPath id="h"><path fill="#fff" d="M650.5 132h17v18h-17z"/></clipPath><clipPath id="i"><rect width="165" height="125" x="494.5" y="159.186" fill="#fff" rx="4"/></clipPath><clipPath id="m"><path fill="#fff" d="M98.5 79h173v206h-173z"/></clipPath><clipPath id="n"><rect width="165" height="125" x="98.5" y="159" fill="#fff" rx="4"/></clipPath><clipPath id="q"><path fill="#fff" d="M98.5 79h173v71h-173z"/></clipPath><clipPath id="r"><path fill="#fff" d="M98.5 79h165v64h-165z"/></clipPath><clipPath id="s"><path fill="#fff" d="M254.5 132h17v18h-17z"/></clipPath><clipPath id="t"><path fill="#fff" d="M296.5 79h173v206h-173z"/></clipPath><clipPath id="w"><path fill="#fff" d="M296.5 79h173v71h-173z"/></clipPath><clipPath id="x"><path fill="#fff" d="M296.5 79h165v64h-165z"/></clipPath><clipPath id="y"><path fill="#fff" d="M452.5 132h17v18h-17z"/></clipPath><linearGradient id="b" x1="13.5" x2="593.248" y1=".00000602" y2="525.964" gradientUnits="userSpaceOnUse"><stop stop-color="#0F172A"/><stop offset="1" stop-color="#020420"/></linearGradient><linearGradient id="j" x1="577" x2="577" y1="159.186" y2="284.186" gradientUnits="userSpaceOnUse"><stop stop-color="#F1F5F9"/><stop offset="1" stop-color="#F1F5F9" stop-opacity="0"/></linearGradient><linearGradient id="k" x1="577.193" x2="577.193" y1="172.936" y2="290.936" gradientUnits="userSpaceOnUse"><stop stop-color="#00DC82"/><stop offset="1" stop-color="#00DC82" stop-opacity="0"/></linearGradient><linearGradient id="l" x1="577" x2="577" y1="159.186" y2="284.186" gradientUnits="userSpaceOnUse"><stop stop-color="#F1F5F9"/><stop offset="1" stop-color="#F1F5F9" stop-opacity="0"/></linearGradient><linearGradient id="o" x1="181" x2="181" y1="159" y2="284" gradientUnits="userSpaceOnUse"><stop stop-color="#F1F5F9"/><stop offset="1" stop-color="#F1F5F9" stop-opacity="0"/></linearGradient><linearGradient id="p" x1="181" x2="181" y1="159" y2="284" gradientUnits="userSpaceOnUse"><stop stop-color="#F1F5F9"/><stop offset="1" stop-color="#F1F5F9" stop-opacity="0"/></linearGradient><linearGradient id="u" x1="379" x2="379" y1="159.41" y2="284.41" gradientUnits="userSpaceOnUse"><stop stop-color="#F1F5F9"/><stop offset="1" stop-color="#F1F5F9" stop-opacity="0"/></linearGradient><linearGradient id="v" x1="379" x2="379" y1="159.41" y2="284.41" gradientUnits="userSpaceOnUse"><stop stop-color="#F1F5F9"/><stop offset="1" stop-color="#F1F5F9" stop-opacity="0"/></linearGradient><filter id="c" width="968" height="789" x="-382" y="-371" color-interpolation-filters="sRGB" filterUnits="userSpaceOnUse"><feFlood flood-opacity="0" result="BackgroundImageFix"/><feBlend in="SourceGraphic" in2="BackgroundImageFix" result="shape"/><feGaussianBlur result="effect1_foregroundBlur_139_14216" stdDeviation="188"/></filter></defs></svg>
