<svg width="73" height="81" viewBox="0 0 73 81" fill="none" xmlns="http://www.w3.org/2000/svg">
<g clip-path="url(#clip0_1229_53025)">
<g filter="url(#filter0_d_1229_53025)">
<path d="M3.88427 18.2008L31.3247 1.15753C33.7731 -0.325521 36.817 -0.387538 39.3086 0.99486L68.7297 17.073C71.2062 18.447 72.7639 21.0409 72.8218 23.8872L72.9983 55.3366C73.056 58.1724 71.6201 60.8301 69.2178 62.3347L41.3645 79.7796C38.902 81.3219 35.8075 81.4082 33.2786 80.0051L4.51702 64.048C1.97322 62.6367 -0.0190253 59.9398 0.000137076 57.0152L0.000269396 25.0453C0.0186191 22.2452 1.4911 19.6504 3.88427 18.2008Z" fill="#18181B"/>
<path d="M68.256 60.5759C68.223 60.5975 68.1897 60.6187 68.1562 60.6397L40.3029 78.0846C38.4645 79.236 36.1348 79.3026 34.2488 78.2563L5.48731 62.2991C3.41302 61.1483 1.98698 59.03 2.00009 57.0284H2.00014V57.0153L2.00023 25.0584C2.00024 25.0564 2.00025 25.0543 2.00027 25.0523C2.01616 22.9488 3.12392 20.9996 4.92046 19.9114L4.93001 19.9056L4.9395 19.8997L32.3698 2.86282C32.3722 2.86137 32.3746 2.85991 32.377 2.85845C34.2021 1.76076 36.4856 1.71579 38.3383 2.74373L38.3383 2.74376L38.3495 2.74989L67.7594 18.8218C67.7611 18.8228 67.7628 18.8238 67.7645 18.8247C69.6048 19.8481 70.774 21.7948 70.822 23.9142L70.9984 55.3479L70.9984 55.3626L70.9987 55.3773C71.0014 55.5105 70.9998 55.6432 70.9938 55.7751C70.9058 57.7157 69.889 59.5081 68.256 60.5759Z" stroke="url(#paint0_linear_1229_53025)" stroke-width="4"/>
</g>
<path d="M62.0451 36.7752L57.0482 27.208C56.6537 26.4549 55.9798 25.8864 55.171 25.6244C54.3621 25.3623 53.4829 25.4277 52.7217 25.8064L47.9889 28.183H44.6576L37.9545 25.1361C37.25 24.8289 36.4617 24.7715 35.7201 24.9736L25.8279 27.858L21.2779 25.583C20.5134 25.2111 19.6341 25.1516 18.8265 25.417C18.0188 25.6825 17.3463 26.252 16.9514 27.0049L11.9545 36.572C11.7536 36.9529 11.6304 37.3699 11.592 37.7988C11.5537 38.2277 11.6009 38.66 11.7311 39.0705C12.0063 39.899 12.5977 40.5852 13.3764 40.9799L18.2514 43.4174L29.2201 51.9892C29.5778 52.2733 29.994 52.4745 30.4389 52.5783L42.2201 55.5236C42.4723 55.5887 42.7315 55.6228 42.992 55.6252C43.8582 55.6182 44.6881 55.276 45.3076 54.6705L52.7826 47.1955H52.8029C52.8029 47.1752 52.8232 47.1752 52.8232 47.1549H52.8639L55.8904 43.5595L60.6232 41.183C61.0101 40.9945 61.3552 40.7301 61.6378 40.4056C61.9205 40.0811 62.135 39.703 62.2686 39.2939C62.3992 38.8801 62.4468 38.4445 62.4084 38.0122C62.3701 37.5799 62.2466 37.1595 62.0451 36.7752V36.7752ZM51.3607 43.8439L43.642 38.2377C43.3604 38.0344 43.0211 37.9267 42.6738 37.9304C42.3265 37.934 41.9896 38.0488 41.7123 38.258L39.1123 40.208C38.2646 40.8316 37.2397 41.168 36.1873 41.168C35.1349 41.168 34.11 40.8316 33.2623 40.208L32.1654 39.3752L40.1076 31.433H47.3998L52.9248 42.0361L51.3607 43.8439ZM19.8357 28.508L23.4107 30.2955L18.4139 39.8627L14.8389 38.0752L19.8357 28.508ZM42.992 52.3752L31.2311 49.4299L21.1967 41.5892L26.7217 30.9861L36.6139 28.1017L38.1779 28.8127L37.8123 29.1174L29.8701 37.0799C29.5381 37.4072 29.2808 37.8026 29.1161 38.2389C28.9514 38.6751 28.8831 39.1419 28.9159 39.607C28.9487 40.0721 29.0819 40.5247 29.3062 40.9335C29.5305 41.3423 29.8407 41.6976 30.2154 41.9752L31.3123 42.808C32.7213 43.8566 34.4309 44.4229 36.1873 44.4229C37.9437 44.4229 39.6533 43.8566 41.0623 42.808L42.7076 41.5689L49.1264 46.2408L42.992 52.3752ZM59.1607 38.2783L55.5857 40.0861L50.5889 30.5189L54.1639 28.7111L59.1607 38.2783ZM35.3342 58.6314C35.2443 58.9841 35.0401 59.297 34.7534 59.5212C34.4667 59.7454 34.1137 59.8683 33.7498 59.8705C33.6188 59.87 33.4886 59.8495 33.3639 59.8095L27.2295 58.2861C26.7319 58.1604 26.272 57.9166 25.8889 57.5752L21.3186 53.5939C21.1585 53.4552 21.0273 53.2863 20.9326 53.0969C20.8378 52.9075 20.7812 52.7013 20.7661 52.4901C20.751 52.2788 20.7777 52.0667 20.8446 51.8657C20.9115 51.6648 21.0173 51.479 21.1561 51.3189C21.2948 51.1589 21.4636 51.0277 21.653 50.9329C21.8424 50.8381 22.0486 50.7816 22.2599 50.7665C22.4712 50.7514 22.6833 50.7781 22.8843 50.845C23.0852 50.9119 23.271 51.0177 23.4311 51.1564L28.0217 55.1377L34.1357 56.6611C34.5539 56.7669 34.9138 57.0326 35.1379 57.4012C35.3621 57.7697 35.4326 58.2115 35.3342 58.6314V58.6314Z" fill="black"/>
<path d="M62.0451 36.7752L57.0482 27.208C56.6537 26.4549 55.9798 25.8864 55.171 25.6244C54.3621 25.3623 53.4829 25.4277 52.7217 25.8064L47.9889 28.183H44.6576L37.9545 25.1361C37.25 24.8289 36.4617 24.7715 35.7201 24.9736L25.8279 27.858L21.2779 25.583C20.5134 25.2111 19.6341 25.1516 18.8265 25.417C18.0188 25.6825 17.3463 26.252 16.9514 27.0049L11.9545 36.572C11.7536 36.9529 11.6304 37.3699 11.592 37.7988C11.5537 38.2277 11.6009 38.66 11.7311 39.0705C12.0063 39.899 12.5977 40.5852 13.3764 40.9799L18.2514 43.4174L29.2201 51.9892C29.5778 52.2733 29.994 52.4745 30.4389 52.5783L42.2201 55.5236C42.4723 55.5887 42.7315 55.6228 42.992 55.6252C43.8582 55.6182 44.6881 55.276 45.3076 54.6705L52.7826 47.1955H52.8029C52.8029 47.1752 52.8232 47.1752 52.8232 47.1549H52.8639L55.8904 43.5595L60.6232 41.183C61.0101 40.9945 61.3552 40.7301 61.6378 40.4056C61.9205 40.0811 62.135 39.703 62.2686 39.2939C62.3992 38.8801 62.4468 38.4445 62.4084 38.0122C62.3701 37.5799 62.2466 37.1595 62.0451 36.7752V36.7752ZM51.3607 43.8439L43.642 38.2377C43.3604 38.0344 43.0211 37.9267 42.6738 37.9304C42.3265 37.934 41.9896 38.0488 41.7123 38.258L39.1123 40.208C38.2646 40.8316 37.2397 41.168 36.1873 41.168C35.1349 41.168 34.11 40.8316 33.2623 40.208L32.1654 39.3752L40.1076 31.433H47.3998L52.9248 42.0361L51.3607 43.8439ZM19.8357 28.508L23.4107 30.2955L18.4139 39.8627L14.8389 38.0752L19.8357 28.508ZM42.992 52.3752L31.2311 49.4299L21.1967 41.5892L26.7217 30.9861L36.6139 28.1017L38.1779 28.8127L37.8123 29.1174L29.8701 37.0799C29.5381 37.4072 29.2808 37.8026 29.1161 38.2389C28.9514 38.6751 28.8831 39.1419 28.9159 39.607C28.9487 40.0721 29.0819 40.5247 29.3062 40.9335C29.5305 41.3423 29.8407 41.6976 30.2154 41.9752L31.3123 42.808C32.7213 43.8566 34.4309 44.4229 36.1873 44.4229C37.9437 44.4229 39.6533 43.8566 41.0623 42.808L42.7076 41.5689L49.1264 46.2408L42.992 52.3752ZM59.1607 38.2783L55.5857 40.0861L50.5889 30.5189L54.1639 28.7111L59.1607 38.2783ZM35.3342 58.6314C35.2443 58.9841 35.0401 59.297 34.7534 59.5212C34.4667 59.7454 34.1137 59.8683 33.7498 59.8705C33.6188 59.87 33.4886 59.8495 33.3639 59.8095L27.2295 58.2861C26.7319 58.1604 26.272 57.9166 25.8889 57.5752L21.3186 53.5939C21.1585 53.4552 21.0273 53.2863 20.9326 53.0969C20.8378 52.9075 20.7812 52.7013 20.7661 52.4901C20.751 52.2788 20.7777 52.0667 20.8446 51.8657C20.9115 51.6648 21.0173 51.479 21.1561 51.3189C21.2948 51.1589 21.4636 51.0277 21.653 50.9329C21.8424 50.8381 22.0486 50.7816 22.2599 50.7665C22.4712 50.7514 22.6833 50.7781 22.8843 50.845C23.0852 50.9119 23.271 51.0177 23.4311 51.1564L28.0217 55.1377L34.1357 56.6611C34.5539 56.7669 34.9138 57.0326 35.1379 57.4012C35.3621 57.7697 35.4326 58.2115 35.3342 58.6314V58.6314Z" fill="url(#paint1_linear_1229_53025)"/>
</g>
<defs>
<filter id="filter0_d_1229_53025" x="-31" y="-31" width="135" height="143" filterUnits="userSpaceOnUse" color-interpolation-filters="sRGB">
<feFlood flood-opacity="0" result="BackgroundImageFix"/>
<feColorMatrix in="SourceAlpha" type="matrix" values="0 0 0 0 0 0 0 0 0 0 0 0 0 0 0 0 0 0 127 0" result="hardAlpha"/>
<feOffset/>
<feGaussianBlur stdDeviation="15.5"/>
<feComposite in2="hardAlpha" operator="out"/>
<feColorMatrix type="matrix" values="0 0 0 0 1 0 0 0 0 1 0 0 0 0 1 0 0 0 0.07 0"/>
<feBlend mode="normal" in2="BackgroundImageFix" result="effect1_dropShadow_1229_53025"/>
<feBlend mode="normal" in="SourceGraphic" in2="effect1_dropShadow_1229_53025" result="shape"/>
</filter>
<linearGradient id="paint0_linear_1229_53025" x1="0.715769" y1="24.8423" x2="72.7467" y2="60.8253" gradientUnits="userSpaceOnUse">
<stop stop-color="white"/>
<stop offset="1" stop-color="#71717A"/>
</linearGradient>
<linearGradient id="paint1_linear_1229_53025" x1="11.4374" y1="32.3379" x2="52.2772" y2="64.2373" gradientUnits="userSpaceOnUse">
<stop stop-color="white"/>
<stop offset="1" stop-color="#71717A"/>
</linearGradient>
<clipPath id="clip0_1229_53025">
<rect width="73" height="81" fill="white"/>
</clipPath>
</defs>
</svg>
