<svg width="74" height="81" viewBox="0 0 74 81" fill="none" xmlns="http://www.w3.org/2000/svg">
<g clip-path="url(#clip0_1229_53004)">
<g filter="url(#filter0_d_1229_53004)">
<path d="M3.93748 18.2008L31.7538 1.15753C34.2357 -0.325521 37.3213 -0.387538 39.8471 0.99486L69.6712 17.073C72.1816 18.447 73.7607 21.0409 73.8194 23.8872L73.9983 55.3366C74.0568 58.1724 72.6012 60.8302 70.166 62.3347L41.9311 79.7796C39.4349 81.3219 36.298 81.4082 33.7344 80.0051L4.5789 64.048C2.00025 62.6367 -0.0192859 59.9398 0.000138954 57.0152L0.000273086 25.0453C0.0188742 22.2452 1.51153 19.6504 3.93748 18.2008Z" fill="#18181B"/>
<path d="M4.96337 19.9176L4.97289 19.9119L4.98236 19.9061L32.7886 2.86904C34.6635 1.75298 36.9892 1.71064 38.8869 2.74928L38.8869 2.74931L38.898 2.75533L68.711 18.8274C68.7126 18.8283 68.7142 18.8292 68.7158 18.8301C70.5952 19.8609 71.7708 21.796 71.8195 23.9144L71.9983 55.348L71.9984 55.3629L71.9987 55.3779C72.0424 57.4977 70.9547 59.4965 69.1148 60.6333L40.8799 78.0782C38.9927 79.2442 36.6239 79.3066 34.6946 78.2507L5.53911 62.2936C3.42146 61.1346 1.98681 59.0289 2.00009 57.0285H2.00014V57.0153L2.00023 25.0586C2.00024 25.0565 2.00026 25.0545 2.00027 25.0524C2.01632 22.9617 3.13249 21.0116 4.96337 19.9176Z" stroke="url(#paint0_linear_1229_53004)" stroke-width="4"/>
</g>
<path d="M51.625 45.875C50.1899 45.8746 48.7958 46.3536 47.6641 47.2359L42.9719 43.5797C43.3237 42.7654 43.5035 41.8871 43.5 41C43.5034 40.8508 43.4966 40.7015 43.4797 40.5531L46.1813 39.6594C47.0333 40.9626 48.3262 41.9155 49.8232 42.3436C51.3203 42.7716 52.9214 42.6463 54.3337 41.9906C55.7459 41.3348 56.8748 40.1924 57.5137 38.7725C58.1526 37.3526 58.2589 35.7501 57.8131 34.2582C57.3672 32.7663 56.3991 31.4849 55.0858 30.6484C53.7725 29.8119 52.2019 29.4762 50.6615 29.7029C49.121 29.9295 47.7137 30.7033 46.697 31.8826C45.6803 33.062 45.1223 34.5679 45.125 36.125C45.1216 36.2743 45.1284 36.4236 45.1453 36.5719L42.4438 37.4656C41.8565 36.5558 41.0505 35.8076 40.0995 35.2896C39.1486 34.7715 38.0829 34.5001 37 34.5C36.6399 34.5061 36.2804 34.5332 35.9234 34.5813L34.5422 31.4531C35.3104 30.8488 35.931 30.0774 36.3569 29.1976C36.7827 28.3177 37.0026 27.3525 37 26.375C37 25.0894 36.6188 23.8327 35.9046 22.7638C35.1903 21.6949 34.1752 20.8618 32.9875 20.3698C31.7997 19.8778 30.4928 19.7491 29.2319 19.9999C27.971 20.2507 26.8129 20.8698 25.9038 21.7788C24.9948 22.6878 24.3757 23.846 24.1249 25.1069C23.8741 26.3678 24.0028 27.6747 24.4948 28.8624C24.9868 30.0502 25.8199 31.0653 26.8888 31.7796C27.9577 32.4938 29.2144 32.875 30.5 32.875C30.8601 32.8689 31.2196 32.8418 31.5766 32.7938L32.9578 35.9219C32.1896 36.5262 31.569 37.2976 31.1432 38.1774C30.7173 39.0573 30.4974 40.0225 30.5 41C30.5015 42.0306 30.745 43.0464 31.2109 43.9656L25.9906 48.5969C24.7863 47.7907 23.3471 47.4102 21.9017 47.5157C20.4563 47.6213 19.0876 48.2068 18.0131 49.1794C16.9386 50.1519 16.22 51.4556 15.9714 52.8834C15.7227 54.3111 15.9584 55.7811 16.6409 57.0595C17.3234 58.338 18.4136 59.3517 19.7382 59.9396C21.0629 60.5275 22.546 60.6559 23.952 60.3043C25.3579 59.9527 26.6061 59.1413 27.498 57.9991C28.39 56.8568 28.8747 55.4493 28.875 54C28.8735 52.9694 28.63 51.9536 28.1641 51.0344L33.3844 46.4031C34.5151 47.1602 35.8554 47.5422 37.2153 47.4948C38.5752 47.4474 39.8857 46.9731 40.9609 46.1391L45.6531 49.7953C45.3013 50.6097 45.1215 51.4879 45.125 52.375C45.125 53.6606 45.5062 54.9173 46.2205 55.9862C46.9347 57.0551 47.9498 57.8883 49.1376 58.3802C50.3253 58.8722 51.6322 59.0009 52.8931 58.7501C54.154 58.4993 55.3122 57.8802 56.2212 56.9712C57.1302 56.0622 57.7493 54.904 58.0001 53.6431C58.2509 52.3822 58.1222 51.0753 57.6302 49.8876C57.1383 48.6998 56.3051 47.6847 55.2362 46.9705C54.1673 46.2562 52.9106 45.875 51.625 45.875ZM51.625 32.875C52.2678 32.875 52.8962 33.0656 53.4306 33.4227C53.9651 33.7798 54.3816 34.2874 54.6276 34.8813C54.8736 35.4751 54.938 36.1286 54.8126 36.759C54.6872 37.3895 54.3776 37.9686 53.9231 38.4231C53.4686 38.8776 52.8895 39.1872 52.2591 39.3126C51.6286 39.438 50.9751 39.3736 50.3813 39.1276C49.7874 38.8816 49.2798 38.4651 48.9227 37.9306C48.5656 37.3961 48.375 36.7678 48.375 36.125C48.375 35.263 48.7174 34.4364 49.3269 33.8269C49.9364 33.2174 50.7631 32.875 51.625 32.875ZM27.25 26.375C27.25 25.7322 27.4406 25.1039 27.7977 24.5694C28.1548 24.0349 28.6624 23.6184 29.2563 23.3724C29.8501 23.1264 30.5036 23.062 31.1341 23.1875C31.7645 23.3129 32.3436 23.6224 32.7981 24.0769C33.2526 24.5314 33.5622 25.1105 33.6876 25.741C33.813 26.3714 33.7486 27.0249 33.5026 27.6187C33.2566 28.2126 32.8401 28.7202 32.3056 29.0773C31.7712 29.4344 31.1428 29.625 30.5 29.625C29.6381 29.625 28.8114 29.2826 28.2019 28.6731C27.5924 28.0636 27.25 27.237 27.25 26.375ZM22.375 57.25C21.7322 57.25 21.1039 57.0594 20.5694 56.7023C20.0349 56.3452 19.6184 55.8376 19.3724 55.2437C19.1264 54.6499 19.0621 53.9964 19.1875 53.366C19.3129 52.7355 19.6224 52.1564 20.0769 51.7019C20.5314 51.2474 21.1105 50.9379 21.741 50.8125C22.3714 50.687 23.0249 50.7514 23.6187 50.9974C24.2126 51.2434 24.7202 51.6599 25.0773 52.1944C25.4344 52.7289 25.625 53.3572 25.625 54C25.625 54.862 25.2826 55.6886 24.6731 56.2981C24.0636 56.9076 23.237 57.25 22.375 57.25ZM33.75 41C33.75 40.3572 33.9406 39.7289 34.2977 39.1944C34.6548 38.6599 35.1624 38.2434 35.7563 37.9974C36.3501 37.7514 37.0036 37.687 37.6341 37.8125C38.2645 37.9379 38.8436 38.2474 39.2981 38.7019C39.7526 39.1564 40.0622 39.7355 40.1876 40.366C40.313 40.9964 40.2486 41.6499 40.0026 42.2437C39.7566 42.8376 39.3401 43.3452 38.8056 43.7023C38.2712 44.0594 37.6428 44.25 37 44.25C36.1381 44.25 35.3114 43.9076 34.7019 43.2981C34.0924 42.6886 33.75 41.862 33.75 41ZM51.625 55.625C50.9822 55.625 50.3539 55.4344 49.8194 55.0773C49.2849 54.7202 48.8684 54.2126 48.6224 53.6187C48.3764 53.0249 48.3121 52.3714 48.4375 51.741C48.5629 51.1105 48.8724 50.5314 49.3269 50.0769C49.7814 49.6224 50.3605 49.3129 50.991 49.1875C51.6214 49.062 52.2749 49.1264 52.8687 49.3724C53.4626 49.6184 53.9702 50.0349 54.3273 50.5694C54.6844 51.1039 54.875 51.7322 54.875 52.375C54.875 53.237 54.5326 54.0636 53.9231 54.6731C53.3136 55.2826 52.487 55.625 51.625 55.625Z" fill="url(#paint1_linear_1229_53004)"/>
</g>
<defs>
<filter id="filter0_d_1229_53004" x="-31" y="-31" width="136" height="143" filterUnits="userSpaceOnUse" color-interpolation-filters="sRGB">
<feFlood flood-opacity="0" result="BackgroundImageFix"/>
<feColorMatrix in="SourceAlpha" type="matrix" values="0 0 0 0 0 0 0 0 0 0 0 0 0 0 0 0 0 0 127 0" result="hardAlpha"/>
<feOffset/>
<feGaussianBlur stdDeviation="15.5"/>
<feComposite in2="hardAlpha" operator="out"/>
<feColorMatrix type="matrix" values="0 0 0 0 1 0 0 0 0 1 0 0 0 0 1 0 0 0 0.07 0"/>
<feBlend mode="normal" in2="BackgroundImageFix" result="effect1_dropShadow_1229_53004"/>
<feBlend mode="normal" in="SourceGraphic" in2="effect1_dropShadow_1229_53004" result="shape"/>
</filter>
<linearGradient id="paint0_linear_1229_53004" x1="0.725574" y1="24.8423" x2="73.3432" y2="61.6153" gradientUnits="userSpaceOnUse">
<stop stop-color="white"/>
<stop offset="1" stop-color="#71717A"/>
</linearGradient>
<linearGradient id="paint1_linear_1229_53004" x1="15.7572" y1="28.5564" x2="57.3738" y2="51.84" gradientUnits="userSpaceOnUse">
<stop stop-color="white"/>
<stop offset="1" stop-color="#71717A"/>
</linearGradient>
<clipPath id="clip0_1229_53004">
<rect width="74" height="81" fill="white"/>
</clipPath>
</defs>
</svg>
