<svg width="18" height="17" viewBox="0 0 18 17" fill="none" xmlns="http://www.w3.org/2000/svg">
<path d="M9.00033 0.166504C4.41699 0.166504 0.666992 3.9165 0.666992 8.49984C0.666992 13.0832 4.41699 16.8332 9.00033 16.8332C13.5837 16.8332 17.3337 13.0832 17.3337 8.49984C17.3337 3.9165 13.5837 0.166504 9.00033 0.166504ZM12.5003 7.08317L8.50033 11.0832C8.16699 11.4165 7.66699 11.4165 7.33366 11.0832L5.50033 9.24984C5.16699 8.9165 5.16699 8.4165 5.50033 8.08317C5.83366 7.74984 6.33366 7.74984 6.66699 8.08317L7.91699 9.33317L11.3337 5.9165C11.667 5.58317 12.167 5.58317 12.5003 5.9165C12.8337 6.24984 12.8337 6.74984 12.5003 7.08317Z" fill="#00DC82"/>
</svg>
