<svg width="74" height="81" viewBox="0 0 74 81" fill="none" xmlns="http://www.w3.org/2000/svg">
<g clip-path="url(#clip0_1288_53003)">
<g filter="url(#filter0_d_1288_53003)">
<path d="M4.96337 19.9176L4.97289 19.9119L4.98236 19.9061L32.7886 2.86904C34.6635 1.75298 36.9892 1.71064 38.8869 2.74928L38.8869 2.74931L38.898 2.75533L68.711 18.8274C68.7126 18.8283 68.7142 18.8292 68.7158 18.8301C70.5952 19.8609 71.7708 21.796 71.8195 23.9144L71.9983 55.348L71.9984 55.3629L71.9987 55.3779C72.0424 57.4977 70.9547 59.4965 69.1148 60.6333L40.8799 78.0782C38.9927 79.2442 36.6239 79.3066 34.6946 78.2507L5.53911 62.2936C3.42146 61.1346 1.98681 59.0289 2.00009 57.0285H2.00014V57.0153L2.00023 25.0586C2.00024 25.0565 2.00026 25.0545 2.00027 25.0524C2.01632 22.9617 3.13249 21.0116 4.96337 19.9176Z" stroke="url(#paint0_linear_1288_53003)" stroke-width="4" shape-rendering="crispEdges"/>
</g>
<path d="M57.3234 27.4803C57.2494 27.2036 57.1214 26.9444 56.9466 26.7175C56.7718 26.4907 56.5537 26.3007 56.3051 26.1586L45.0384 19.6586C44.7924 19.5145 44.5204 19.4203 44.2379 19.3815C43.9554 19.3427 43.6681 19.36 43.3923 19.4325C43.1166 19.5049 42.8578 19.6311 42.6309 19.8038C42.404 19.9764 42.2134 20.1922 42.0701 20.4386L37.0001 29.2353L31.9301 20.4386C31.7867 20.1922 31.5961 19.9764 31.3692 19.8038C31.1423 19.6311 30.8836 19.5049 30.6078 19.4325C30.3321 19.36 30.0447 19.3427 29.7622 19.3815C29.4798 19.4203 29.2077 19.5145 28.9617 19.6586L17.6951 26.1586C17.4464 26.3007 17.2284 26.4907 17.0536 26.7175C16.8788 26.9444 16.7507 27.2036 16.6767 27.4803C16.5334 28.0294 16.6111 28.6129 16.8934 29.1053L25.5601 43.9036C24.5932 45.675 24.0587 47.6498 24.0001 49.667C23.9949 51.6349 24.4366 53.5784 25.2919 55.3508C26.1471 57.1231 27.3936 58.6782 28.9374 59.8988C30.4811 61.1193 32.2818 61.9734 34.2037 62.3967C36.1256 62.82 38.1185 62.8015 40.0322 62.3425C41.9459 61.8835 43.7304 60.996 45.2511 59.7469C46.7719 58.4979 47.9892 56.9198 48.8113 55.1318C49.6334 53.3438 50.0389 51.3925 49.9971 49.425C49.9553 47.4575 49.4674 45.5251 48.5701 43.7736L57.0201 29.127C57.1773 28.8863 57.2852 28.6168 57.3372 28.3341C57.3893 28.0514 57.3846 27.7612 57.3234 27.4803ZM21.8334 28.8236L29.3301 24.4903L36.3067 36.667C33.3328 36.8507 30.5148 38.0606 28.3334 40.0903L21.8334 28.8236ZM37.0001 58.3336C34.7015 58.3336 32.4971 57.4205 30.8718 55.7952C29.2465 54.1699 28.3334 51.9655 28.3334 49.667C28.3334 47.3684 29.2465 45.164 30.8718 43.5387C32.4971 41.9134 34.7015 41.0003 37.0001 41.0003C39.2986 41.0003 41.503 41.9134 43.1283 43.5387C44.7537 45.164 45.6667 47.3684 45.6667 49.667C45.6667 51.9655 44.7537 54.1699 43.1283 55.7952C41.503 57.4205 39.2986 58.3336 37.0001 58.3336ZM45.6667 40.0253C44.4904 38.9509 43.1236 38.1058 41.6367 37.5336L39.5134 33.5686L44.7567 24.4903L52.2534 28.8236L45.6667 40.0253Z" fill="url(#paint1_linear_1288_53003)"/>
</g>
<defs>
<filter id="filter0_d_1288_53003" x="-31" y="-31" width="136" height="143" filterUnits="userSpaceOnUse" color-interpolation-filters="sRGB">
<feFlood flood-opacity="0" result="BackgroundImageFix"/>
<feColorMatrix in="SourceAlpha" type="matrix" values="0 0 0 0 0 0 0 0 0 0 0 0 0 0 0 0 0 0 127 0" result="hardAlpha"/>
<feOffset/>
<feGaussianBlur stdDeviation="15.5"/>
<feComposite in2="hardAlpha" operator="out"/>
<feColorMatrix type="matrix" values="0 0 0 0 1 0 0 0 0 1 0 0 0 0 1 0 0 0 0.07 0"/>
<feBlend mode="normal" in2="BackgroundImageFix" result="effect1_dropShadow_1288_53003"/>
<feBlend mode="normal" in="SourceGraphic" in2="effect1_dropShadow_1288_53003" result="shape"/>
</filter>
<linearGradient id="paint0_linear_1288_53003" x1="0.725574" y1="24.8423" x2="73.3432" y2="61.6153" gradientUnits="userSpaceOnUse">
<stop stop-color="#E4E4E7"/>
<stop offset="1" stop-color="#71717A"/>
</linearGradient>
<linearGradient id="paint1_linear_1288_53003" x1="16.4928" y1="28.6232" x2="58.4699" y2="49.8637" gradientUnits="userSpaceOnUse">
<stop stop-color="#E4E4E7"/>
<stop offset="1" stop-color="#71717A"/>
</linearGradient>
<clipPath id="clip0_1288_53003">
<rect width="74" height="81" fill="white"/>
</clipPath>
</defs>
</svg>
