<svg width="48" height="48" viewBox="0 0 48 48" fill="none" xmlns="http://www.w3.org/2000/svg">
<path d="M18.2361 22.8462L11.8361 16.3463C11.6869 16.1947 11.5098 16.0746 11.3149 15.9926C11.12 15.9106 10.9111 15.8684 10.7001 15.8684C10.4891 15.8684 10.2802 15.9106 10.0853 15.9926C9.89038 16.0746 9.71328 16.1947 9.5641 16.3463C9.41492 16.4978 9.29658 16.6776 9.21584 16.8756C9.13511 17.0736 9.09355 17.2857 9.09355 17.5C9.09355 17.7143 9.13511 17.9264 9.21584 18.1244C9.29658 18.3224 9.41492 18.5022 9.5641 18.6537L13.2441 22.375H6.6001C6.17575 22.375 5.76878 22.5462 5.46873 22.851C5.16867 23.1557 5.0001 23.569 5.0001 24C5.0001 24.431 5.16867 24.8443 5.46873 25.149C5.76878 25.4538 6.17575 25.625 6.6001 25.625H13.2441L9.5641 29.3463C9.41413 29.4973 9.2951 29.677 9.21387 29.8751C9.13264 30.0731 9.09082 30.2855 9.09082 30.5C9.09082 30.7145 9.13264 30.9269 9.21387 31.1249C9.2951 31.323 9.41413 31.5027 9.5641 31.6537C9.71284 31.8061 9.8898 31.927 10.0848 32.0094C10.2798 32.0919 10.4889 32.1344 10.7001 32.1344C10.9113 32.1344 11.1204 32.0919 11.3154 32.0094C11.5104 31.927 11.6874 31.8061 11.8361 31.6537L18.2361 25.1538C18.3818 24.9992 18.496 24.817 18.5721 24.6175C18.7321 24.2219 18.7321 23.7781 18.5721 23.3825C18.496 23.183 18.3818 23.0008 18.2361 22.8462ZM23.5001 11C23.0758 11 22.6688 11.1712 22.3687 11.476C22.0687 11.7807 21.9001 12.194 21.9001 12.625V35.375C21.9001 35.806 22.0687 36.2193 22.3687 36.524C22.6688 36.8288 23.0758 37 23.5001 37C23.9244 37 24.3314 36.8288 24.6315 36.524C24.9315 36.2193 25.1001 35.806 25.1001 35.375V12.625C25.1001 12.194 24.9315 11.7807 24.6315 11.476C24.3314 11.1712 23.9244 11 23.5001 11Z" fill="#D4D4D8"/>
<path d="M39.1281 12.3875L28.443 22.8506C28.3026 22.9832 28.1912 23.1409 28.1152 23.3147C28.0391 23.4885 28 23.675 28 23.8632C28 24.0515 28.0391 24.2379 28.1152 24.4117C28.1912 24.5855 28.3026 24.7432 28.443 24.8758L39.4379 35.5781C39.5772 35.7118 39.7428 35.8179 39.9253 35.8903C40.1078 35.9627 40.3035 36 40.5012 36C40.6989 36 40.8947 35.9627 41.0772 35.8903C41.2597 35.8179 41.4253 35.7118 41.5645 35.5781C41.8434 35.3109 42 34.9494 42 34.5727C42 34.1959 41.8434 33.8344 41.5645 33.5672L31.6179 23.8632L41.2547 14.4697C41.5314 14.2041 41.6874 13.8455 41.689 13.4714C41.6902 13.2837 41.6524 13.0976 41.5779 12.9239C41.5033 12.7501 41.3935 12.592 41.2547 12.4588C41.1205 12.3203 40.9588 12.2086 40.779 12.13C40.5992 12.0514 40.4048 12.0075 40.207 12.0009C40.0093 11.9943 39.8122 12.025 39.627 12.0914C39.4418 12.1577 39.2722 12.2584 39.1281 12.3875Z" fill="#A1A1AA"/>
</svg>
