<svg width="114" height="20" viewBox="0 0 114 20" fill="none" xmlns="http://www.w3.org/2000/svg">
<path d="M17.1597 3.98059L16.9583 5.43968C16.3224 5.6965 16.1688 5.80286 15.8206 6.06741C14.8769 6.82468 14.5188 8.35695 14.9483 9.79786C15.0074 9.97105 15.1478 10.4142 15.2697 10.992C15.486 12.0097 15.5465 12.9579 15.4474 13.8115C15.3592 14.5992 15.1788 15.2833 14.9024 15.8974C14.6219 16.5206 14.2401 17.0801 13.7328 17.607C13.4119 17.9415 12.6174 18.6701 11.9047 19.0342C10.426 19.792 8.55603 20.0188 6.96694 19.6992C5.2183 19.3474 3.91603 18.6242 2.80057 17.2988L2.78285 17.2774C2.2083 16.5801 1.79194 15.7879 1.54467 14.9215C1.29421 14.0401 1.23239 13.1247 1.36012 12.2015C1.56194 10.7392 2.20103 9.4165 3.20512 8.37514C3.69421 7.86741 4.25557 7.44377 4.87785 7.11332C5.50557 6.7815 6.18057 6.55059 6.88194 6.43105L7.09739 7.69968C6.53239 7.79741 5.98785 7.9815 5.47967 8.25105C4.97967 8.51741 4.52648 8.85968 4.13103 9.26877C3.31694 10.1124 2.79921 11.1888 2.63421 12.3792C2.53148 13.1247 2.58103 13.8606 2.78285 14.5706C2.98012 15.2633 3.31467 15.8983 3.7733 16.4574L3.78512 16.4715C4.71194 17.5697 5.89467 18.287 7.20967 18.546C7.31285 18.567 7.41739 18.5838 7.5233 18.5992C8.76421 18.7701 10.0774 18.5251 11.3201 17.8901C11.8351 17.6265 12.506 17.031 12.8069 16.717C13.6142 15.8756 14.0224 14.9633 14.1701 13.666C14.2533 12.9497 14.1988 12.1397 14.0124 11.2606C13.9006 10.736 13.7197 10.1792 13.7197 10.1792C13.4351 9.23604 13.406 8.25241 13.6315 7.33332C13.7433 6.8765 13.9174 6.45195 14.1465 6.0715C14.3869 5.67332 14.681 5.33195 15.0256 5.05786L15.036 5.04832C15.6347 4.59195 15.8933 4.46241 17.1597 3.98059Z" fill="white"/>
<path d="M6.51948 11.6455C6.22266 11.97 6.0372 12.3828 5.9722 12.8414C5.90402 13.3328 6.0372 13.8623 6.33629 14.2928C6.66175 14.7628 7.28629 15.1655 7.89948 15.2505C8.58993 15.3459 9.17038 15.2178 9.66629 14.8855C10.1272 14.6096 10.6767 14.0514 10.734 12.9441C10.7699 12.2596 10.6022 11.5741 10.5222 11.2464C10.3204 10.4164 10.1295 9.54049 10.1127 8.75958C10.0949 7.94322 10.1899 7.13867 10.3958 6.36731C10.6045 5.58367 10.9258 4.84958 11.3477 4.18685C11.7845 3.49549 12.3263 2.89458 12.954 2.39913L12.9795 2.37822C13.3477 2.09913 13.6586 1.88867 13.9745 1.70503L14.1908 0.160034C13.4836 0.475489 12.9272 0.802307 12.1972 1.35822L12.1595 1.38731C11.4167 1.97231 10.7781 2.68276 10.2608 3.49776C9.76857 4.27094 9.3972 5.12503 9.15357 6.03594C8.91538 6.92276 8.80539 7.84958 8.82584 8.78685C8.84675 9.69322 9.05311 10.6509 9.27129 11.55C9.47902 12.3973 9.65948 13.3441 8.95811 13.8141C8.40175 14.1896 7.67175 13.9641 7.39175 13.5623C7.30357 13.4346 7.22493 13.2555 7.24629 13.0173C7.28084 12.6232 7.54311 12.3459 7.87948 12.2887L7.66266 11.0205C7.21948 11.0955 6.82402 11.3123 6.51948 11.6455Z" fill="white"/>
<path d="M4.88078 9.99097C5.52805 9.32006 6.35487 8.88188 7.27215 8.72552L7.48851 9.99506C6.15715 10.2223 5.1326 11.3073 4.94033 12.6982C4.82396 13.5328 5.04624 14.3396 5.56442 14.9719C6.77987 16.4132 8.50396 16.746 10.2594 15.8169C11.3262 15.2537 11.7567 14.2914 11.8576 13.4019C11.9662 12.4651 11.6471 11.2978 11.5162 10.9273L11.5071 10.9023C10.6103 7.9987 11.4521 4.91097 13.6012 3.21734L13.6085 3.21006C14.309 2.67643 14.749 2.43234 15.6631 2.06506L15.4558 3.55734C15.0562 3.75097 14.7799 3.93506 14.3935 4.22915C12.6649 5.59552 11.9981 8.11734 12.734 10.5114C12.7944 10.6846 13.2935 12.1832 13.1371 13.5478C13.0162 14.5996 12.5671 16.0019 10.8462 16.9628C9.81033 17.5419 8.69669 17.7101 7.66442 17.5673C7.57851 17.5551 7.49351 17.5446 7.41033 17.5246C6.43578 17.2932 5.35396 16.7151 4.58215 15.7996L4.57896 15.7955C3.82351 14.881 3.49896 13.7192 3.66715 12.521C3.80169 11.5501 4.21987 10.6746 4.88078 9.99097Z" fill="white"/>
<path d="M21.9148 13.2469C21.9148 15.406 23.303 16.6178 24.9112 16.6178C26.5857 16.6178 27.3566 15.4497 27.5993 14.6351L29.8466 15.4501C29.3398 17.1247 27.7316 18.9533 24.9112 18.9533C21.7603 18.9533 19.3589 16.5078 19.3589 13.2469C19.3589 9.94192 21.7603 7.56238 24.8453 7.56238C27.7316 7.56238 29.318 9.36874 29.7584 11.0878L27.4671 11.9251C27.2248 10.9774 26.4975 9.91965 24.8671 9.91965C23.303 9.91965 21.9148 11.0878 21.9148 13.2469Z" fill="white"/>
<path d="M33.405 18.6228H30.8491V3.58875H33.405V8.92784C34.1323 7.98056 35.3441 7.5842 36.4678 7.5842C39.1118 7.5842 40.3896 9.47874 40.3896 11.8365V18.6228H37.8337V12.2774C37.8337 10.9556 37.2387 9.89783 35.6305 9.89783C34.2205 9.89783 33.4491 10.9556 33.405 12.3215V18.6228Z" fill="white"/>
<path d="M42.0698 18.6228V7.89276H44.6035V18.6228H42.0698Z" fill="white"/>
<path d="M43.3263 3.01233C44.1945 3.01233 44.8972 3.71551 44.8972 4.58324C44.8972 5.45142 44.1945 6.13369 43.3263 6.13369C42.4791 6.13369 41.7759 5.45187 41.7759 4.58324C41.7759 3.71551 42.4786 3.01233 43.3263 3.01233Z" fill="white"/>
<path d="M46.4585 18.6228V3.58875H49.0144V18.6228H46.4585Z" fill="white"/>
<path d="M50.8433 18.6228V3.58875H53.3992V18.6228H50.8433Z" fill="white"/>
<path d="M55.2357 18.6228V7.89276H57.7694V18.6228H55.2357Z" fill="white"/>
<path d="M56.4932 3.01233C57.3614 3.01233 58.0641 3.71551 58.0641 4.58324C58.0641 5.45142 57.3614 6.13369 56.4932 6.13369C55.6459 6.13369 54.9427 5.45187 54.9427 4.58324C54.9427 3.71551 55.6455 3.01233 56.4932 3.01233Z" fill="white"/>
<path d="M61.2852 15.0973C61.3734 16.0668 62.1002 16.9259 63.4665 16.9259C64.5243 16.9259 65.0747 16.3532 65.0747 15.6918C65.0747 15.1191 64.6784 14.6782 63.8188 14.5023L62.2325 14.1496C60.3375 13.7309 59.3461 12.4973 59.3461 11.0209C59.3461 9.14819 61.0647 7.56183 63.2902 7.56183C66.2865 7.56183 67.2561 9.50047 67.4325 10.5582L65.2734 11.175C65.1852 10.5582 64.7225 9.56683 63.2906 9.56683C62.3875 9.56683 61.7484 10.1396 61.7484 10.8009C61.7484 11.3736 62.167 11.7923 62.8279 11.9246L64.4584 12.255C66.4852 12.6955 67.5429 13.9296 67.5429 15.5159C67.5429 17.1464 66.2211 18.9527 63.4888 18.9527C60.382 18.9527 59.1925 16.9259 59.0602 15.7136L61.2852 15.0973Z" fill="white"/>
<path d="M73.477 18.9091C70.3266 18.9091 68.2993 16.4191 68.2993 13.2027C68.2993 10.0959 70.3484 7.58411 73.4329 7.58411C75.3279 7.58411 76.297 8.57547 76.5834 9.30274V7.89274H79.0734V16.6618C79.0734 17.5432 79.1616 18.4023 79.1834 18.6227H76.7379C76.6939 18.3805 76.628 17.8073 76.628 17.0805C76.1434 18.1159 75.0198 18.9091 73.477 18.9091ZM73.7639 16.7055C75.4384 16.7055 76.6061 15.2732 76.6061 13.2027C76.6061 11.1314 75.4602 9.80911 73.7639 9.80911C72.0452 9.80911 70.8557 11.1314 70.8557 13.2027C70.8552 15.2514 71.9789 16.7055 73.7639 16.7055Z" fill="white"/>
<path d="M84.4442 18.9309C81.8883 18.9309 80.3901 17.0364 80.3901 14.6569V7.89276H82.946V14.1941C82.946 15.5159 83.5629 16.6396 85.1051 16.6396C86.5815 16.6396 87.3524 15.6482 87.3524 14.2382V7.89276H89.9083V16.6618C89.9083 17.5432 89.9742 18.2259 90.0188 18.6228H87.5729C87.5288 18.3805 87.4847 17.8737 87.4847 17.4332C86.956 18.4023 85.7001 18.9309 84.4442 18.9309Z" fill="white"/>
<path d="M93.535 13.2469C93.535 15.406 94.9232 16.6178 96.5314 16.6178C98.2059 16.6178 98.9769 15.4497 99.2196 14.6351L101.467 15.4501C100.96 17.1247 99.3519 18.9533 96.5314 18.9533C93.3805 18.9533 90.9791 16.5078 90.9791 13.2469C90.9791 9.94192 93.3805 7.56238 96.4655 7.56238C99.3519 7.56238 100.938 9.36874 101.379 11.0878L99.0873 11.9251C98.845 10.9774 98.1178 9.91965 96.4873 9.91965C94.9228 9.91965 93.535 11.0878 93.535 13.2469Z" fill="white"/>
<path d="M112.481 15.5601C111.908 17.4333 110.211 18.9533 107.633 18.9533C104.725 18.9533 102.147 16.8383 102.147 13.2028C102.147 9.8092 104.659 7.56238 107.369 7.56238C110.674 7.56238 112.613 9.74329 112.613 13.1365C112.613 13.5551 112.569 13.9078 112.547 13.9519H104.703C104.769 15.5819 106.047 16.7501 107.634 16.7501C109.176 16.7501 109.969 15.9347 110.322 14.8769L112.481 15.5601ZM110.035 12.0792C109.991 10.8233 109.154 9.69965 107.391 9.69965C105.782 9.69965 104.857 10.9333 104.769 12.0792H110.035Z" fill="white"/>
</svg>
