<svg width="24" height="24" viewBox="0 0 24 24" fill="none" xmlns="http://www.w3.org/2000/svg">
<path d="M12 6.253C13.168 5.477 14.754 5 16.5 5C18.247 5 19.832 5.477 21 6.253V19.253C19.832 18.477 18.247 18 16.5 18C14.754 18 13.168 18.477 12 19.253M12 6.253V19.253V6.253ZM12 6.253C10.832 5.477 9.246 5 7.5 5C5.754 5 4.168 5.477 3 6.253V19.253C4.168 18.477 5.754 18 7.5 18C9.246 18 10.832 18.477 12 19.253V6.253Z" stroke="#64748B" stroke-linecap="round" stroke-linejoin="round"/>
<rect x="14" y="8" width="5" height="1" rx="0.5" fill="#64748B"/>
<rect x="5" y="8" width="5" height="1" rx="0.5" fill="#64748B"/>
<rect x="5" y="11" width="5" height="1" rx="0.5" fill="#64748B"/>
<rect x="5" y="14" width="5" height="1" rx="0.5" fill="#64748B"/>
<rect x="14" y="11" width="5" height="1" rx="0.5" fill="#64748B"/>
<rect x="14" y="14" width="5" height="1" rx="0.5" fill="#64748B"/>
</svg>
