<svg width="20" height="20" viewBox="0 0 20 20" fill="none" xmlns="http://www.w3.org/2000/svg">
<path d="M17 9H3M17 9C17.5304 9 18.0391 9.21071 18.4142 9.58579C18.7893 9.96086 19 10.4696 19 11V17C19 17.5304 18.7893 18.0391 18.4142 18.4142C18.0391 18.7893 17.5304 19 17 19H3C2.46957 19 1.96086 18.7893 1.58579 18.4142C1.21071 18.0391 1 17.5304 1 17V11C1 10.4696 1.21071 9.96086 1.58579 9.58579C1.96086 9.21071 2.46957 9 3 9M17 9V7C17 6.46957 16.7893 5.96086 16.4142 5.58579C16.0391 5.21071 15.5304 5 15 5M3 9V7C3 6.46957 3.21071 5.96086 3.58579 5.58579C3.96086 5.21071 4.46957 5 5 5M15 5V3C15 2.46957 14.7893 1.96086 14.4142 1.58579C14.0391 1.21071 13.5304 1 13 1H7C6.46957 1 5.96086 1.21071 5.58579 1.58579C5.21071 1.96086 5 2.46957 5 3V5M15 5H5" stroke="#6B6B76" stroke-linecap="round" stroke-linejoin="round"/>
</svg>
