<svg xmlns="http://www.w3.org/2000/svg" width="766" height="340" fill="none" viewBox="0 0 766 340"><g clip-path="url(#a)"><rect width="766" height="340" fill="url(#b)" rx="8"/><rect width="57" height="20" x="16" y="16" fill="#00DC82" fill-opacity=".1" rx="4"/><path fill="#00DC82" d="M24.82 30.144c-.496 0-.908-.084-1.236-.252-.328-.168-.572-.392-.732-.672-.16-.288-.24-.596-.24-.924 0-.4.104-.74.312-1.02.208-.288.504-.508.888-.66.384-.152.844-.228 1.38-.228h1.572c0-.352-.052-.644-.156-.876-.104-.232-.26-.404-.468-.516-.2-.12-.456-.18-.768-.18-.36 0-.668.088-.924.264-.256.168-.416.42-.48.756h-1.2c.048-.424.192-.784.432-1.08.248-.304.564-.536.948-.696.384-.168.792-.252 1.224-.252.568 0 1.044.1 1.428.3.384.2.672.484.864.852.2.36.3.792.3 1.296V30H26.92l-.096-1.02c-.088.16-.192.312-.312.456-.12.144-.264.268-.432.372-.16.104-.348.184-.564.24-.208.064-.44.096-.696.096Zm.228-.972c.256 0 .488-.052.696-.156.208-.104.384-.244.528-.42.152-.184.264-.388.336-.612.08-.232.124-.468.132-.708v-.036h-1.428c-.344 0-.624.044-.84.132-.208.08-.36.192-.456.336-.096.144-.144.312-.144.504 0 .2.044.372.132.516.096.136.232.244.408.324.176.08.388.12.636.12Zm4.4477 3.468v-8.688h1.08l.12.936c.128-.184.288-.356.48-.516.192-.168.42-.304.684-.408.272-.104.588-.156.948-.156.576 0 1.08.14 1.512.42.44.28.78.66 1.02 1.14.248.472.372 1.012.372 1.62 0 .608-.124 1.152-.372 1.632-.248.472-.592.844-1.032 1.116-.432.272-.936.408-1.512.408-.472 0-.888-.092-1.248-.276-.36-.192-.644-.456-.852-.792v3.564h-1.2Zm3.108-3.54c.368 0 .692-.088.972-.264.288-.176.512-.424.672-.744.168-.32.252-.692.252-1.116 0-.424-.084-.792-.252-1.104-.16-.32-.384-.568-.672-.744-.28-.184-.604-.276-.972-.276-.376 0-.708.092-.996.276-.28.176-.5.424-.66.744-.16.312-.24.68-.24 1.104 0 .424.08.796.24 1.116.16.32.38.568.66.744.288.176.62.264.996.264Zm4.5092 3.54v-8.688h1.08l.12.936c.128-.184.288-.356.48-.516.192-.168.42-.304.684-.408.272-.104.588-.156.948-.156.576 0 1.08.14 1.512.42.44.28.78.66 1.02 1.14.248.472.372 1.012.372 1.62 0 .608-.124 1.152-.372 1.632-.248.472-.592.844-1.032 1.116-.432.272-.936.408-1.512.408-.472 0-.888-.092-1.248-.276-.36-.192-.644-.456-.852-.792v3.564h-1.2Zm3.108-3.54c.368 0 .692-.088.972-.264.288-.176.512-.424.672-.744.168-.32.252-.692.252-1.116 0-.424-.084-.792-.252-1.104-.16-.32-.384-.568-.672-.744-.28-.184-.604-.276-.972-.276-.376 0-.708.092-.996.276-.28.176-.5.424-.66.744-.16.312-.24.68-.24 1.104 0 .424.08.796.24 1.116.16.32.38.568.66.744.288.176.62.264.996.264Zm4.9892.96c-.232 0-.424-.072-.576-.216-.144-.152-.216-.332-.216-.54 0-.216.072-.396.216-.54.152-.152.344-.228.576-.228.232 0 .42.076.564.228.144.144.216.324.216.54 0 .208-.072.388-.216.54-.144.144-.332.216-.564.216Zm3.3336-.06-2.268-6.048h1.26l1.716 4.896 1.728-4.896h1.236L49.9597 30h-1.416Zm6.9728.144c-.472 0-.884-.096-1.236-.288-.344-.192-.612-.48-.804-.864-.184-.384-.276-.868-.276-1.452v-3.588h1.2v3.456c0 .568.124.996.372 1.284.248.288.604.432 1.068.432.312 0 .592-.076.84-.228.256-.152.456-.372.6-.66.144-.288.216-.64.216-1.056v-3.228h1.2V30h-1.068l-.084-1.032c-.184.368-.452.656-.804.864-.352.208-.76.312-1.224.312Zm7.5589 0c-.576 0-1.088-.132-1.536-.396-.448-.264-.8-.632-1.056-1.104-.248-.472-.372-1.02-.372-1.644 0-.64.124-1.196.372-1.668.256-.48.608-.852 1.056-1.116.448-.272.968-.408 1.56-.408.592 0 1.1.132 1.524.396.424.264.752.616.984 1.056.232.432.348.912.348 1.44 0 .08-.004.168-.012.264 0 .088-.004.188-.012.3h-4.944v-.852h3.768c-.024-.504-.192-.896-.504-1.176-.312-.288-.7-.432-1.164-.432-.328 0-.628.076-.9.228-.272.144-.492.36-.66.648-.16.28-.24.636-.24 1.068v.336c0 .448.08.828.24 1.14.168.304.388.536.66.696.272.152.568.228.888.228.384 0 .7-.084.948-.252.248-.168.432-.396.552-.684h1.2c-.104.368-.28.7-.528.996-.248.288-.556.516-.924.684-.36.168-.776.252-1.248.252Z"/><rect width="56" height="19" x="16.5" y="16.5" stroke="#00DC82" stroke-opacity=".25" rx="3.5"/><g filter="url(#c)"><path fill="#00DC82" d="M210 5v37H-6V5z"/></g><rect width="405" height="227" x="180.5" y="56.5" fill="url(#d)" fill-opacity=".24" stroke="url(#e)" stroke-dasharray="2 2" rx="7.5"/><path fill="#F1F5F9" fill-opacity=".3" fill-rule="evenodd" d="M214 108.997c-2.209 0-4 1.791-4 4s1.791 4 4 4h71c2.209 0 4-1.791 4-4s-1.791-4-4-4h-71Zm-1.5 16.004c-1.381 0-2.5 1.119-2.5 2.5s1.119 2.5 2.5 2.5h143c1.381 0 2.5-1.119 2.5-2.5s-1.119-2.5-2.5-2.5h-143Zm-2.5 14.5c0-.828.672-1.5 1.5-1.5h117c.828 0 1.5.672 1.5 1.5s-.672 1.5-1.5 1.5h-117c-.828 0-1.5-.672-1.5-1.5Zm2 11.5c-1.105 0-2 .895-2 2v4c0 1.105.895 2 2 2h35c1.105 0 2-.895 2-2v-4c0-1.105-.895-2-2-2h-35Zm193-38c0-2.209 1.791-4 4-4h142c2.209 0 4 1.791 4 4v42c0 2.209-1.791 4-4 4H409c-2.209 0-4-1.791-4-4v-42Zm-147 38c-1.105 0-2 .895-2 2v4c0 1.105.895 2 2 2h35c1.105 0 2-.895 2-2v-4c0-1.105-.895-2-2-2h-35Z" clip-rule="evenodd"/><path fill="#F1F5F9" fill-opacity=".3" d="M221.22 85.3334h7.435c.236 0 .468-.0616.673-.1786.204-.1171.374-.2854.492-.4881S230 84.234 230 84c0-.2341-.062-.464-.181-.6666l-4.993-8.5714c-.118-.2027-.287-.371-.492-.488-.204-.117-.436-.1786-.672-.1786-.236 0-.468.0616-.673.1786-.204.117-.374.2853-.492.488l-1.277 2.1931-2.496-4.2886c-.118-.2026-.288-.3709-.492-.4879-.205-.117-.437-.1786-.673-.1786-.236 0-.468.0616-.673.1786-.204.117-.374.2853-.492.4879l-6.213 10.6669c-.119.2026-.181.4325-.181.6666 0 .234.062.464.18.6667.118.2027.288.371.492.4881.205.117.437.1786.673.1786h4.667c1.849 0 3.213-.805 4.151-2.3755l2.278-3.9102 1.22-2.0926 3.662 6.2857h-4.882l-1.221 2.0926Zm-5.284-2.0948-3.257-.0007 4.882-8.3804 2.436 4.1902-1.631 2.8007c-.623 1.019-1.331 1.3902-2.43 1.3902Z"/><path stroke="#F1F5F9" stroke-linecap="round" stroke-opacity=".3" stroke-width="3" d="M327.5 80.5h24M369.5 80.5h24M411.5 80.5h24"/><rect width="39" height="8" x="516" y="74" fill="#F1F5F9" fill-opacity=".3" rx="2"/><path fill="url(#f)" fill-opacity=".3" fill-rule="evenodd" d="M210 184.999c0-1.657 1.343-3 3-3h91c1.657 0 3 1.343 3 3v49c0 1.657-1.343 3-3 3h-91c-1.657 0-3-1.343-3-3v-49Zm0 63c0-.552.448-1 1-1h29c.552 0 1 .448 1 1s-.448 1-1 1h-29c-.552 0-1-.448-1-1Zm1 9c-.552 0-1 .448-1 1s.448 1 1 1h86c.552 0 1-.448 1-1s-.448-1-1-1h-86Z" clip-rule="evenodd"/><path fill="url(#g)" fill-opacity=".3" fill-rule="evenodd" d="M457 184.999c0-1.657 1.343-3 3-3h91c1.657 0 3 1.343 3 3v49c0 1.657-1.343 3-3 3h-91c-1.657 0-3-1.343-3-3v-49Zm0 63c0-.552.448-1 1-1h29c.552 0 1 .448 1 1s-.448 1-1 1h-29c-.552 0-1-.448-1-1Zm1 9c-.552 0-1 .448-1 1s.448 1 1 1h86c.552 0 1-.448 1-1s-.448-1-1-1h-86Z" clip-rule="evenodd"/><path fill="url(#h)" fill-opacity=".3" fill-rule="evenodd" d="M334 184.999c0-1.657 1.343-3 3-3h91c1.657 0 3 1.343 3 3v49c0 1.657-1.343 3-3 3h-91c-1.657 0-3-1.343-3-3v-49Zm0 63c0-.552.448-1 1-1h29c.552 0 1 .448 1 1s-.448 1-1 1h-29c-.552 0-1-.448-1-1Zm1 9c-.552 0-1 .448-1 1s.448 1 1 1h86c.552 0 1-.448 1-1s-.448-1-1-1h-86Z" clip-rule="evenodd"/></g><rect width="765" height="339" x=".5" y=".5" stroke="#1E293B" rx="7.5"/><defs><linearGradient id="b" x1="13.5" x2="557.36" y1=".00000563" y2="528.235" gradientUnits="userSpaceOnUse"><stop stop-color="#0F172A"/><stop offset="1" stop-color="#020420"/></linearGradient><linearGradient id="d" x1="383" x2="383" y1="56" y2="284" gradientUnits="userSpaceOnUse"><stop stop-color="#00DC82"/><stop offset="1" stop-color="#00DC82" stop-opacity="0"/></linearGradient><linearGradient id="e" x1="383" x2="383" y1="56" y2="284" gradientUnits="userSpaceOnUse"><stop stop-color="#00DC82"/><stop offset="1" stop-color="#00DC82" stop-opacity="0"/></linearGradient><linearGradient id="f" x1="259.652" x2="259.652" y1="182.144" y2="259.722" gradientUnits="userSpaceOnUse"><stop stop-color="#F1F5F9"/><stop offset="1" stop-color="#F1F5F9" stop-opacity="0"/></linearGradient><linearGradient id="g" x1="506.601" x2="506.601" y1="182.144" y2="259.722" gradientUnits="userSpaceOnUse"><stop stop-color="#F1F5F9"/><stop offset="1" stop-color="#F1F5F9" stop-opacity="0"/></linearGradient><linearGradient id="h" x1="383.422" x2="383.422" y1="182.144" y2="259.722" gradientUnits="userSpaceOnUse"><stop stop-color="#F1F5F9"/><stop offset="1" stop-color="#F1F5F9" stop-opacity="0"/></linearGradient><clipPath id="a"><rect width="766" height="340" fill="#fff" rx="8"/></clipPath><filter id="c" width="968" height="789" x="-382" y="-371" color-interpolation-filters="sRGB" filterUnits="userSpaceOnUse"><feFlood flood-opacity="0" result="BackgroundImageFix"/><feBlend in="SourceGraphic" in2="BackgroundImageFix" result="shape"/><feGaussianBlur result="effect1_foregroundBlur_129_2722" stdDeviation="188"/></filter></defs></svg>
