<svg xmlns="http://www.w3.org/2000/svg" width="766" height="340" fill="none" viewBox="0 0 766 340"><g clip-path="url(#a)"><rect width="766" height="340" fill="url(#b)" rx="8"/><rect width="406" height="228" x="180" y="56" fill="url(#c)" fill-opacity=".12" rx="8"/><rect width="405" height="227" x="180.5" y="56.5" stroke="url(#d)" stroke-opacity=".3" rx="7.5"/><path fill="#F1F5F9" fill-opacity=".3" fill-rule="evenodd" d="M210 112.997c0-2.209 1.791-4 4-4h71c2.209 0 4 1.791 4 4s-1.791 4-4 4h-71c-2.209 0-4-1.791-4-4Zm0 14.504c0-1.381 1.119-2.5 2.5-2.5h143c1.381 0 2.5 1.119 2.5 2.5s-1.119 2.5-2.5 2.5h-143c-1.381 0-2.5-1.119-2.5-2.5Zm1.5 10.5c-.828 0-1.5.672-1.5 1.5s.672 1.5 1.5 1.5h117c.828 0 1.5-.672 1.5-1.5s-.672-1.5-1.5-1.5h-117Zm-1.5 15c0-1.105.895-2 2-2h35c1.105 0 2 .895 2 2v4c0 1.105-.895 2-2 2h-35c-1.105 0-2-.895-2-2v-4Zm48-2c-1.105 0-2 .895-2 2v4c0 1.105.895 2 2 2h35c1.105 0 2-.895 2-2v-4c0-1.105-.895-2-2-2h-35Z" clip-rule="evenodd"/><rect width="149" height="49" x="405.5" y="108.5" fill="url(#e)" fill-opacity=".24" stroke="#00DC82" stroke-dasharray="2 2" rx="3.5"/><path fill="#F1F5F9" fill-opacity=".3" d="M221.22 85.3334h7.435c.236 0 .468-.0616.673-.1786.204-.1171.374-.2854.492-.4881S230 84.234 230 84c0-.2341-.062-.464-.181-.6666l-4.993-8.5714c-.118-.2027-.287-.371-.492-.488-.204-.117-.436-.1786-.672-.1786-.236 0-.468.0616-.673.1786-.204.117-.374.2853-.492.488l-1.277 2.1931-2.496-4.2886c-.118-.2026-.288-.3709-.492-.4879-.205-.117-.437-.1786-.673-.1786-.236 0-.468.0616-.673.1786-.204.117-.374.2853-.492.4879l-6.213 10.6669c-.119.2026-.181.4325-.181.6666 0 .234.062.464.18.6667.118.2027.288.371.492.4881.205.117.437.1786.673.1786h4.667c1.849 0 3.213-.805 4.151-2.3755l2.278-3.9102 1.22-2.0926 3.662 6.2857h-4.882l-1.221 2.0926Zm-5.284-2.0948-3.257-.0007 4.882-8.3804 2.436 4.1902-1.631 2.8007c-.623 1.019-1.331 1.3902-2.43 1.3902Z"/><path stroke="#F1F5F9" stroke-linecap="round" stroke-opacity=".3" stroke-width="3" d="M327.5 80.5h24M369.5 80.5h24M411.5 80.5h24"/><rect width="39" height="8" x="516" y="74" fill="#F1F5F9" fill-opacity=".3" rx="2"/><path fill="url(#f)" fill-opacity=".3" fill-rule="evenodd" d="M210 184.999c0-1.657 1.343-3 3-3h91c1.657 0 3 1.343 3 3v49c0 1.657-1.343 3-3 3h-91c-1.657 0-3-1.343-3-3v-49Zm0 63c0-.552.448-1 1-1h29c.552 0 1 .448 1 1s-.448 1-1 1h-29c-.552 0-1-.448-1-1Zm1 9c-.552 0-1 .448-1 1s.448 1 1 1h86c.552 0 1-.448 1-1s-.448-1-1-1h-86Z" clip-rule="evenodd"/><path fill="url(#g)" fill-opacity=".3" fill-rule="evenodd" d="M457 184.999c0-1.657 1.343-3 3-3h91c1.657 0 3 1.343 3 3v49c0 1.657-1.343 3-3 3h-91c-1.657 0-3-1.343-3-3v-49Zm0 63c0-.552.448-1 1-1h29c.552 0 1 .448 1 1s-.448 1-1 1h-29c-.552 0-1-.448-1-1Zm1 9c-.552 0-1 .448-1 1s.448 1 1 1h86c.552 0 1-.448 1-1s-.448-1-1-1h-86Z" clip-rule="evenodd"/><path fill="url(#h)" fill-opacity=".3" fill-rule="evenodd" d="M334 184.999c0-1.657 1.343-3 3-3h91c1.657 0 3 1.343 3 3v49c0 1.657-1.343 3-3 3h-91c-1.657 0-3-1.343-3-3v-49Zm0 63c0-.552.448-1 1-1h29c.552 0 1 .448 1 1s-.448 1-1 1h-29c-.552 0-1-.448-1-1Zm1 9c-.552 0-1 .448-1 1s.448 1 1 1h86c.552 0 1-.448 1-1s-.448-1-1-1h-86Z" clip-rule="evenodd"/><g filter="url(#i)"><path fill="#00DC82" d="M537 116v32H423v-32z"/></g><rect width="89" height="20" x="16" y="16" fill="#00DC82" fill-opacity=".1" rx="4"/><path fill="#00DC82" d="M25.612 30.144c-.584 0-1.104-.132-1.56-.396-.456-.272-.816-.644-1.08-1.116-.256-.472-.384-1.02-.384-1.644 0-.632.128-1.184.384-1.656.264-.48.624-.852 1.08-1.116.456-.272.976-.408 1.56-.408.736 0 1.352.192 1.848.576.496.384.812.904.948 1.56H27.16c-.08-.352-.264-.624-.552-.816-.28-.192-.616-.288-1.008-.288-.32 0-.616.084-.888.252-.272.16-.492.4-.66.72-.16.312-.24.7-.24 1.164 0 .344.048.652.144.924.096.264.224.488.384.672.168.184.36.324.576.42.216.088.444.132.684.132.264 0 .5-.04.708-.12.216-.088.396-.216.54-.384.152-.168.256-.368.312-.6h1.248c-.136.64-.452 1.156-.948 1.548-.496.384-1.112.576-1.848.576Zm6.9601 0c-.568 0-1.08-.132-1.536-.396-.448-.264-.804-.632-1.068-1.104-.256-.48-.384-1.032-.384-1.656 0-.64.132-1.196.396-1.668.264-.48.624-.852 1.08-1.116.456-.264.968-.396 1.536-.396.576 0 1.088.132 1.536.396.448.264.8.632 1.056 1.104.264.472.396 1.028.396 1.668 0 .64-.132 1.196-.396 1.668-.256.472-.612.84-1.068 1.104-.456.264-.972.396-1.548.396Zm0-1.032c.328 0 .624-.08.888-.24.272-.16.488-.396.648-.708.168-.32.252-.716.252-1.188s-.08-.864-.24-1.176c-.16-.32-.376-.56-.648-.72-.264-.16-.556-.24-.876-.24-.32 0-.616.08-.888.24-.272.16-.492.4-.66.72-.16.312-.24.704-.24 1.176s.08.868.24 1.188c.168.312.384.548.648.708.272.16.564.24.876.24Zm4.4236.888v-6.048h1.08l.084.852c.192-.312.448-.556.768-.732.32-.176.68-.264 1.08-.264.304 0 .58.044.828.132.248.08.468.204.66.372s.348.376.468.624c.216-.352.504-.628.864-.828.368-.2.756-.3 1.164-.3.488 0 .908.1 1.26.3.352.192.62.484.804.876.184.384.276.864.276 1.44V30h-1.188v-3.456c0-.56-.116-.984-.348-1.272-.224-.288-.556-.432-.996-.432-.296 0-.56.076-.792.228-.232.152-.416.372-.552.66-.128.288-.192.64-.192 1.056V30h-1.2v-3.456c0-.56-.116-.984-.348-1.272-.224-.288-.556-.432-.996-.432-.28 0-.536.076-.768.228-.232.152-.416.372-.552.66-.136.288-.204.64-.204 1.056V30h-1.2Zm10.8867 2.64v-8.688h1.08l.12.936c.128-.184.288-.356.48-.516.192-.168.42-.304.684-.408.272-.104.588-.156.948-.156.576 0 1.08.14 1.512.42.44.28.78.66 1.02 1.14.248.472.372 1.012.372 1.62 0 .608-.124 1.152-.372 1.632-.248.472-.592.844-1.032 1.116-.432.272-.936.408-1.512.408-.472 0-.888-.092-1.248-.276-.36-.192-.644-.456-.852-.792v3.564h-1.2Zm3.108-3.54c.368 0 .692-.088.972-.264.288-.176.512-.424.672-.744.168-.32.252-.692.252-1.116 0-.424-.084-.792-.252-1.104-.16-.32-.384-.568-.672-.744-.28-.184-.604-.276-.972-.276-.376 0-.708.092-.996.276-.28.176-.5.424-.66.744-.16.312-.24.68-.24 1.104 0 .424.08.796.24 1.116.16.32.38.568.66.744.288.176.62.264.996.264Zm7.2692 1.044c-.568 0-1.08-.132-1.536-.396-.448-.264-.804-.632-1.068-1.104-.256-.48-.384-1.032-.384-1.656 0-.64.132-1.196.396-1.668.264-.48.624-.852 1.08-1.116.456-.264.968-.396 1.536-.396.576 0 1.088.132 1.536.396.448.264.8.632 1.056 1.104.264.472.396 1.028.396 1.668 0 .64-.132 1.196-.396 1.668-.256.472-.612.84-1.068 1.104-.456.264-.972.396-1.548.396Zm0-1.032c.328 0 .624-.08.888-.24.272-.16.488-.396.648-.708.168-.32.252-.716.252-1.188s-.08-.864-.24-1.176c-.16-.32-.376-.56-.648-.72-.264-.16-.556-.24-.876-.24-.32 0-.616.08-.888.24-.272.16-.492.4-.66.72-.16.312-.24.704-.24 1.176s.08.868.24 1.188c.168.312.384.548.648.708.272.16.564.24.876.24Zm4.4236.888v-6.048h1.08l.072 1.032c.192-.36.464-.644.816-.852.352-.216.756-.324 1.212-.324.48 0 .892.096 1.236.288.344.192.612.484.804.876.192.384.288.868.288 1.452V30h-1.2v-3.456c0-.56-.124-.984-.372-1.272-.248-.288-.608-.432-1.08-.432-.312 0-.592.076-.84.228-.248.144-.448.36-.6.648-.144.288-.216.64-.216 1.056V30h-1.2Zm9.779.144c-.576 0-1.088-.132-1.536-.396-.448-.264-.8-.632-1.056-1.104-.248-.472-.372-1.02-.372-1.644 0-.64.124-1.196.372-1.668.256-.48.608-.852 1.056-1.116.448-.272.968-.408 1.56-.408.592 0 1.1.132 1.524.396.424.264.752.616.984 1.056.232.432.348.912.348 1.44 0 .08-.004.168-.012.264 0 .088-.004.188-.012.3h-4.944v-.852h3.768c-.024-.504-.192-.896-.504-1.176-.312-.288-.7-.432-1.164-.432-.328 0-.628.076-.9.228-.272.144-.492.36-.66.648-.16.28-.24.636-.24 1.068v.336c0 .448.08.828.24 1.14.168.304.388.536.66.696.272.152.568.228.888.228.384 0 .7-.084.948-.252.248-.168.432-.396.552-.684h1.2c-.104.368-.28.7-.528.996-.248.288-.556.516-.924.684-.36.168-.776.252-1.248.252ZM76.6754 30v-6.048h1.08l.072 1.032c.192-.36.464-.644.816-.852.352-.216.756-.324 1.212-.324.48 0 .892.096 1.236.288.344.192.612.484.804.876.192.384.288.868.288 1.452V30h-1.2v-3.456c0-.56-.124-.984-.372-1.272-.248-.288-.608-.432-1.08-.432-.312 0-.592.076-.84.228-.248.144-.448.36-.6.648-.144.288-.216.64-.216 1.056V30h-1.2Zm9.5389 0c-.384 0-.716-.06-.996-.18s-.496-.32-.648-.6c-.152-.28-.228-.66-.228-1.14v-3.108h-1.044v-1.02h1.044l.144-1.512h1.056v1.512h1.716v1.02h-1.716v3.12c0 .344.072.58.216.708.144.12.392.18.744.18h.696V30h-.984Zm4.7073.144c-.512 0-.96-.084-1.344-.252-.384-.168-.688-.404-.912-.708-.224-.304-.36-.66-.408-1.068h1.224c.04.192.116.368.228.528.12.16.28.288.48.384.208.096.452.144.732.144.264 0 .48-.036.648-.108.176-.08.304-.184.384-.312.08-.136.12-.28.12-.432 0-.224-.056-.392-.168-.504-.104-.12-.264-.212-.48-.276-.208-.072-.46-.136-.756-.192-.28-.048-.552-.112-.816-.192-.256-.088-.488-.196-.696-.324-.2-.128-.36-.288-.48-.48-.12-.2-.18-.444-.18-.732 0-.344.092-.652.276-.924.184-.28.444-.496.78-.648.344-.16.748-.24 1.212-.24.672 0 1.212.16 1.62.48.408.32.648.772.72 1.356h-1.164c-.032-.272-.152-.48-.36-.624-.208-.152-.484-.228-.828-.228s-.608.068-.792.204c-.184.136-.276.316-.276.54 0 .144.052.272.156.384.104.112.256.208.456.288.208.072.46.14.756.204.424.08.804.18 1.14.3.336.12.604.296.804.528.2.232.3.564.3.996.008.376-.088.708-.288.996-.192.288-.468.512-.828.672-.352.16-.772.24-1.26.24Zm3.2969 1.068 3-10.44h1.176l-3 10.44h-1.176Z"/><rect width="88" height="19" x="16.5" y="16.5" stroke="#00DC82" stroke-opacity=".25" rx="3.5"/><g filter="url(#j)"><path fill="#00DC82" d="M210 5v37H-6V5z"/></g></g><rect width="765" height="339" x=".5" y=".5" stroke="#1E293B" rx="7.5"/><defs><linearGradient id="b" x1="13.5" x2="557.36" y1=".00000563" y2="528.235" gradientUnits="userSpaceOnUse"><stop stop-color="#0F172A"/><stop offset="1" stop-color="#020420"/></linearGradient><linearGradient id="c" x1="383" x2="383" y1="56" y2="284" gradientUnits="userSpaceOnUse"><stop stop-color="#F1F5F9"/><stop offset="1" stop-color="#F1F5F9" stop-opacity="0"/></linearGradient><linearGradient id="d" x1="383" x2="383" y1="56" y2="284" gradientUnits="userSpaceOnUse"><stop stop-color="#F1F5F9"/><stop offset="1" stop-color="#F1F5F9" stop-opacity="0"/></linearGradient><linearGradient id="e" x1="480" x2="480" y1="108" y2="158" gradientUnits="userSpaceOnUse"><stop stop-color="#00DC82"/><stop offset="1" stop-color="#00DC82" stop-opacity="0"/></linearGradient><linearGradient id="f" x1="259.652" x2="259.652" y1="182.144" y2="259.722" gradientUnits="userSpaceOnUse"><stop stop-color="#F1F5F9"/><stop offset="1" stop-color="#F1F5F9" stop-opacity="0"/></linearGradient><linearGradient id="g" x1="506.601" x2="506.601" y1="182.144" y2="259.722" gradientUnits="userSpaceOnUse"><stop stop-color="#F1F5F9"/><stop offset="1" stop-color="#F1F5F9" stop-opacity="0"/></linearGradient><linearGradient id="h" x1="383.422" x2="383.422" y1="182.144" y2="259.722" gradientUnits="userSpaceOnUse"><stop stop-color="#F1F5F9"/><stop offset="1" stop-color="#F1F5F9" stop-opacity="0"/></linearGradient><filter id="i" width="374" height="292" x="293" y="-14" color-interpolation-filters="sRGB" filterUnits="userSpaceOnUse"><feFlood flood-opacity="0" result="BackgroundImageFix"/><feBlend in="SourceGraphic" in2="BackgroundImageFix" result="shape"/><feGaussianBlur result="effect1_foregroundBlur_129_2757" stdDeviation="65"/></filter><filter id="j" width="968" height="789" x="-382" y="-371" color-interpolation-filters="sRGB" filterUnits="userSpaceOnUse"><feFlood flood-opacity="0" result="BackgroundImageFix"/><feBlend in="SourceGraphic" in2="BackgroundImageFix" result="shape"/><feGaussianBlur result="effect1_foregroundBlur_129_2757" stdDeviation="188"/></filter><clipPath id="a"><rect width="766" height="340" fill="#fff" rx="8"/></clipPath></defs></svg>
