<svg xmlns="http://www.w3.org/2000/svg" width="766" height="340" fill="none" viewBox="0 0 766 340"><g clip-path="url(#a)"><rect width="766" height="340" fill="url(#b)" rx="8"/><rect width="406" height="228" x="180" y="56" fill="url(#c)" fill-opacity=".12" rx="8"/><rect width="405" height="227" x="180.5" y="56.5" stroke="url(#d)" stroke-opacity=".3" rx="7.5"/><rect width="369" height="29" x="198.5" y="64.5" fill="url(#e)" fill-opacity=".2" stroke="#00DC82" stroke-dasharray="2 2" rx="3.5"/><g filter="url(#f)"><path fill="#00DC82" d="M529 74v15H231V74z"/></g><path fill="#F1F5F9" fill-opacity=".3" fill-rule="evenodd" d="M214 108.997c-2.209 0-4 1.791-4 4s1.791 4 4 4h71c2.209 0 4-1.791 4-4s-1.791-4-4-4h-71Zm-1.5 16.004c-1.381 0-2.5 1.119-2.5 2.5s1.119 2.5 2.5 2.5h143c1.381 0 2.5-1.119 2.5-2.5s-1.119-2.5-2.5-2.5h-143Zm-2.5 14.5c0-.828.672-1.5 1.5-1.5h117c.828 0 1.5.672 1.5 1.5s-.672 1.5-1.5 1.5h-117c-.828 0-1.5-.672-1.5-1.5Zm2 11.5c-1.105 0-2 .895-2 2v4c0 1.105.895 2 2 2h35c1.105 0 2-.895 2-2v-4c0-1.105-.895-2-2-2h-35Zm44 2c0-1.105.895-2 2-2h35c1.105 0 2 .895 2 2v4c0 1.105-.895 2-2 2h-35c-1.105 0-2-.895-2-2v-4Zm153-44c-2.209 0-4 1.791-4 4v42c0 2.209 1.791 4 4 4h142c2.209 0 4-1.791 4-4v-42c0-2.209-1.791-4-4-4H409Z" clip-rule="evenodd"/><path fill="#F1F5F9" fill-opacity=".3" d="M221.22 85.3334h7.435c.236 0 .468-.0616.673-.1786.204-.1171.374-.2854.492-.4881S230 84.234 230 84c0-.2341-.062-.464-.181-.6666l-4.993-8.5714c-.118-.2027-.287-.371-.492-.488-.204-.117-.436-.1786-.672-.1786-.236 0-.468.0616-.673.1786-.204.117-.374.2853-.492.488l-1.277 2.1931-2.496-4.2886c-.118-.2026-.288-.3709-.492-.4879-.205-.117-.437-.1786-.673-.1786-.236 0-.468.0616-.673.1786-.204.117-.374.2853-.492.4879l-6.213 10.6669c-.119.2026-.181.4325-.181.6666 0 .234.062.464.18.6667.118.2027.288.371.492.4881.205.117.437.1786.673.1786h4.667c1.849 0 3.213-.805 4.151-2.3755l2.278-3.9102 1.22-2.0926 3.662 6.2857h-4.882l-1.221 2.0926Zm-5.284-2.0948-3.257-.0007 4.882-8.3804 2.436 4.1902-1.631 2.8007c-.623 1.019-1.331 1.3902-2.43 1.3902Z"/><path stroke="#F1F5F9" stroke-linecap="round" stroke-opacity=".3" stroke-width="3" d="M327.5 80.5h24M369.5 80.5h24M411.5 80.5h24"/><rect width="39" height="8" x="516" y="74" fill="#F1F5F9" fill-opacity=".3" rx="2"/><path fill="url(#g)" fill-opacity=".3" fill-rule="evenodd" d="M210 184.999c0-1.657 1.343-3 3-3h91c1.657 0 3 1.343 3 3v49c0 1.657-1.343 3-3 3h-91c-1.657 0-3-1.343-3-3v-49Zm0 63c0-.552.448-1 1-1h29c.552 0 1 .448 1 1s-.448 1-1 1h-29c-.552 0-1-.448-1-1Zm1 9c-.552 0-1 .448-1 1s.448 1 1 1h86c.552 0 1-.448 1-1s-.448-1-1-1h-86Z" clip-rule="evenodd"/><path fill="url(#h)" fill-opacity=".3" fill-rule="evenodd" d="M457 184.999c0-1.657 1.343-3 3-3h91c1.657 0 3 1.343 3 3v49c0 1.657-1.343 3-3 3h-91c-1.657 0-3-1.343-3-3v-49Zm0 63c0-.552.448-1 1-1h29c.552 0 1 .448 1 1s-.448 1-1 1h-29c-.552 0-1-.448-1-1Zm1 9c-.552 0-1 .448-1 1s.448 1 1 1h86c.552 0 1-.448 1-1s-.448-1-1-1h-86Z" clip-rule="evenodd"/><path fill="url(#i)" fill-opacity=".3" fill-rule="evenodd" d="M334 184.999c0-1.657 1.343-3 3-3h91c1.657 0 3 1.343 3 3v49c0 1.657-1.343 3-3 3h-91c-1.657 0-3-1.343-3-3v-49Zm0 63c0-.552.448-1 1-1h29c.552 0 1 .448 1 1s-.448 1-1 1h-29c-.552 0-1-.448-1-1Zm1 9c-.552 0-1 .448-1 1s.448 1 1 1h86c.552 0 1-.448 1-1s-.448-1-1-1h-86Z" clip-rule="evenodd"/><rect width="58" height="20" x="16" y="16" fill="#00DC82" fill-opacity=".1" rx="4"/><path fill="#00DC82" d="M22.804 30v-8.64h1.272V30h-1.272Zm4.8988.144c-.504 0-.92-.084-1.248-.252-.328-.168-.572-.388-.732-.66-.16-.28-.24-.584-.24-.912 0-.576.224-1.032.672-1.368.448-.336 1.088-.504 1.92-.504h1.56v-.108c0-.464-.128-.812-.384-1.044-.248-.232-.572-.348-.972-.348-.352 0-.66.088-.924.264-.256.168-.412.42-.468.756h-1.272c.04-.432.184-.8.432-1.104.256-.312.576-.548.96-.708.392-.168.82-.252 1.284-.252.832 0 1.476.22 1.932.66.456.432.684 1.024.684 1.776V30h-1.104l-.108-1.02c-.168.328-.412.604-.732.828-.32.224-.74.336-1.26.336Zm.252-1.032c.344 0 .632-.08.864-.24.24-.168.424-.388.552-.66.136-.272.22-.572.252-.9h-1.416c-.504 0-.864.088-1.08.264-.208.176-.312.396-.312.66 0 .272.1.488.3.648.208.152.488.228.84.228Zm4.9436 3.528 1.428-3.132h-.348l-2.352-5.46h1.38l1.824 4.404 1.908-4.404h1.344l-3.84 8.592h-1.344Zm8.4748-2.496c-.568 0-1.08-.128-1.536-.384-.448-.264-.804-.628-1.068-1.092-.264-.472-.396-1.02-.396-1.644 0-.624.132-1.168.396-1.632.272-.472.636-.836 1.092-1.092.456-.264.964-.396 1.524-.396.568 0 1.076.132 1.524.396.456.256.816.62 1.08 1.092.272.464.408 1.008.408 1.632 0 .624-.136 1.172-.408 1.644-.264.464-.624.828-1.08 1.092-.456.256-.968.384-1.536.384Zm0-1.092c.304 0 .584-.076.84-.228.264-.152.476-.376.636-.672.16-.304.24-.68.24-1.128 0-.448-.08-.82-.24-1.116-.152-.304-.36-.532-.624-.684-.256-.152-.536-.228-.84-.228-.304 0-.588.076-.852.228-.256.152-.464.38-.624.684-.16.296-.24.668-.24 1.116 0 .448.08.824.24 1.128.16.296.368.52.624.672.256.152.536.228.84.228Zm6.5956 1.092c-.72 0-1.288-.224-1.704-.672-.408-.448-.612-1.116-.612-2.004v-3.42h1.272v3.288c0 1.152.472 1.728 1.416 1.728.472 0 .86-.168 1.164-.504.304-.336.456-.816.456-1.44v-3.072h1.272V30h-1.128l-.096-1.044c-.184.368-.456.66-.816.876-.352.208-.76.312-1.224.312ZM55.3469 30c-.584 0-1.048-.14-1.392-.42-.344-.288-.516-.796-.516-1.524v-2.94h-1.02v-1.068h1.02l.156-1.512h1.116v1.512h1.68v1.068h-1.68v2.94c0 .328.068.556.204.684.144.12.388.18.732.18h.684V30h-.984Zm4.7315.144c-.752 0-1.372-.184-1.86-.552-.488-.368-.768-.856-.84-1.464h1.284c.064.272.216.508.456.708.24.192.556.288.948.288.384 0 .664-.08.84-.24.176-.16.264-.344.264-.552 0-.304-.124-.508-.372-.612-.24-.112-.576-.212-1.008-.3-.336-.072-.672-.168-1.008-.288-.328-.12-.604-.288-.828-.504-.216-.224-.324-.524-.324-.9 0-.52.2-.952.6-1.296.4-.352.96-.528 1.68-.528.664 0 1.2.16 1.608.48.416.32.66.772.732 1.356h-1.224c-.04-.256-.16-.456-.36-.6-.192-.144-.452-.216-.78-.216-.32 0-.568.068-.744.204-.176.128-.264.296-.264.504 0 .208.12.372.36.492.248.12.572.228.972.324.4.088.768.192 1.104.312.344.112.62.28.828.504.208.224.312.552.312.984.008.544-.204.996-.636 1.356-.424.36-1.004.54-1.74.54Zm3.2727 1.092 3-10.488h1.248l-3.012 10.488h-1.236Z"/><rect width="57" height="19" x="16.5" y="16.5" stroke="#00DC82" stroke-opacity=".25" rx="3.5"/><g filter="url(#j)"><path fill="#00DC82" d="M210 5v37H-6V5z"/></g></g><rect width="765" height="339" x=".5" y=".5" stroke="#1E293B" rx="7.5"/><defs><linearGradient id="b" x1="13.5" x2="557.36" y1=".00000563" y2="528.235" gradientUnits="userSpaceOnUse"><stop stop-color="#0F172A"/><stop offset="1" stop-color="#020420"/></linearGradient><linearGradient id="c" x1="383" x2="383" y1="56" y2="284" gradientUnits="userSpaceOnUse"><stop stop-color="#F1F5F9"/><stop offset="1" stop-color="#F1F5F9" stop-opacity="0"/></linearGradient><linearGradient id="d" x1="383" x2="383" y1="56" y2="284" gradientUnits="userSpaceOnUse"><stop stop-color="#F1F5F9"/><stop offset="1" stop-color="#F1F5F9" stop-opacity="0"/></linearGradient><linearGradient id="e" x1="383" x2="382.258" y1="64" y2="93.9816" gradientUnits="userSpaceOnUse"><stop stop-color="#00DC82"/><stop offset="1" stop-color="#00DC82" stop-opacity="0"/></linearGradient><linearGradient id="g" x1="259.652" x2="259.652" y1="182.144" y2="259.722" gradientUnits="userSpaceOnUse"><stop stop-color="#F1F5F9"/><stop offset="1" stop-color="#F1F5F9" stop-opacity="0"/></linearGradient><linearGradient id="h" x1="506.601" x2="506.601" y1="182.144" y2="259.722" gradientUnits="userSpaceOnUse"><stop stop-color="#F1F5F9"/><stop offset="1" stop-color="#F1F5F9" stop-opacity="0"/></linearGradient><linearGradient id="i" x1="383.422" x2="383.422" y1="182.144" y2="259.722" gradientUnits="userSpaceOnUse"><stop stop-color="#F1F5F9"/><stop offset="1" stop-color="#F1F5F9" stop-opacity="0"/></linearGradient><filter id="f" width="622" height="339" x="69" y="-88" color-interpolation-filters="sRGB" filterUnits="userSpaceOnUse"><feFlood flood-opacity="0" result="BackgroundImageFix"/><feBlend in="SourceGraphic" in2="BackgroundImageFix" result="shape"/><feGaussianBlur result="effect1_foregroundBlur_129_2826" stdDeviation="81"/></filter><filter id="j" width="968" height="789" x="-382" y="-371" color-interpolation-filters="sRGB" filterUnits="userSpaceOnUse"><feFlood flood-opacity="0" result="BackgroundImageFix"/><feBlend in="SourceGraphic" in2="BackgroundImageFix" result="shape"/><feGaussianBlur result="effect1_foregroundBlur_129_2826" stdDeviation="188"/></filter><clipPath id="a"><rect width="766" height="340" fill="#fff" rx="8"/></clipPath></defs></svg>
