<svg xmlns="http://www.w3.org/2000/svg" width="766" height="340" fill="none" viewBox="0 0 766 340"><g clip-path="url(#a)"><rect width="766" height="340" fill="url(#b)" rx="8"/><rect width="406" height="228" x="180" y="56" fill="url(#c)" fill-opacity=".12" rx="8"/><rect width="405" height="227" x="180.5" y="56.5" stroke="url(#d)" stroke-opacity=".3" rx="7.5"/><rect width="368" height="174" x="198.5" y="96.5" fill="url(#e)" fill-opacity=".2" stroke="url(#f)" stroke-dasharray="2 2" rx="1.5"/><g filter="url(#g)"><path fill="#00DC82" d="M529 115v37H231v-37z"/></g><path fill="#F1F5F9" fill-opacity=".3" fill-rule="evenodd" d="M214 108.997c-2.209 0-4 1.791-4 4s1.791 4 4 4h71c2.209 0 4-1.791 4-4s-1.791-4-4-4h-71Zm-1.5 16.004c-1.381 0-2.5 1.119-2.5 2.5s1.119 2.5 2.5 2.5h143c1.381 0 2.5-1.119 2.5-2.5s-1.119-2.5-2.5-2.5h-143Zm-2.5 14.5c0-.828.672-1.5 1.5-1.5h117c.828 0 1.5.672 1.5 1.5s-.672 1.5-1.5 1.5h-117c-.828 0-1.5-.672-1.5-1.5Zm2 11.5c-1.105 0-2 .895-2 2v4c0 1.105.895 2 2 2h35c1.105 0 2-.895 2-2v-4c0-1.105-.895-2-2-2h-35Zm44 2c0-1.105.895-2 2-2h35c1.105 0 2 .895 2 2v4c0 1.105-.895 2-2 2h-35c-1.105 0-2-.895-2-2v-4Zm153-44c-2.209 0-4 1.791-4 4v42c0 2.209 1.791 4 4 4h142c2.209 0 4-1.791 4-4v-42c0-2.209-1.791-4-4-4H409Z" clip-rule="evenodd"/><path fill="#F1F5F9" fill-opacity=".3" d="M221.22 85.3334h7.435c.236 0 .468-.0616.673-.1786.204-.1171.374-.2854.492-.4881S230 84.234 230 84c0-.2341-.062-.464-.181-.6666l-4.993-8.5714c-.118-.2027-.287-.371-.492-.488-.204-.117-.436-.1786-.672-.1786-.236 0-.468.0616-.673.1786-.204.117-.374.2853-.492.488l-1.277 2.1931-2.496-4.2886c-.118-.2026-.288-.3709-.492-.4879-.205-.117-.437-.1786-.673-.1786-.236 0-.468.0616-.673.1786-.204.117-.374.2853-.492.4879l-6.213 10.6669c-.119.2026-.181.4325-.181.6666 0 .234.062.464.18.6667.118.2027.288.371.492.4881.205.117.437.1786.673.1786h4.667c1.849 0 3.213-.805 4.151-2.3755l2.278-3.9102 1.22-2.0926 3.662 6.2857h-4.882l-1.221 2.0926Zm-5.284-2.0948-3.257-.0007 4.882-8.3804 2.436 4.1902-1.631 2.8007c-.623 1.019-1.331 1.3902-2.43 1.3902Z"/><path stroke="#F1F5F9" stroke-linecap="round" stroke-opacity=".3" stroke-width="3" d="M327.5 80.5h24M369.5 80.5h24M411.5 80.5h24"/><rect width="39" height="8" x="516" y="74" fill="#F1F5F9" fill-opacity=".3" rx="2"/><path fill="url(#h)" fill-opacity=".3" fill-rule="evenodd" d="M210 184.999c0-1.657 1.343-3 3-3h91c1.657 0 3 1.343 3 3v49c0 1.657-1.343 3-3 3h-91c-1.657 0-3-1.343-3-3v-49Zm0 63c0-.552.448-1 1-1h29c.552 0 1 .448 1 1s-.448 1-1 1h-29c-.552 0-1-.448-1-1Zm1 9c-.552 0-1 .448-1 1s.448 1 1 1h86c.552 0 1-.448 1-1s-.448-1-1-1h-86Z" clip-rule="evenodd"/><path fill="url(#i)" fill-opacity=".3" fill-rule="evenodd" d="M457 184.999c0-1.657 1.343-3 3-3h91c1.657 0 3 1.343 3 3v49c0 1.657-1.343 3-3 3h-91c-1.657 0-3-1.343-3-3v-49Zm0 63c0-.552.448-1 1-1h29c.552 0 1 .448 1 1s-.448 1-1 1h-29c-.552 0-1-.448-1-1Zm1 9c-.552 0-1 .448-1 1s.448 1 1 1h86c.552 0 1-.448 1-1s-.448-1-1-1h-86Z" clip-rule="evenodd"/><path fill="url(#j)" fill-opacity=".3" fill-rule="evenodd" d="M334 184.999c0-1.657 1.343-3 3-3h91c1.657 0 3 1.343 3 3v49c0 1.657-1.343 3-3 3h-91c-1.657 0-3-1.343-3-3v-49Zm0 63c0-.552.448-1 1-1h29c.552 0 1 .448 1 1s-.448 1-1 1h-29c-.552 0-1-.448-1-1Zm1 9c-.552 0-1 .448-1 1s.448 1 1 1h86c.552 0 1-.448 1-1s-.448-1-1-1h-86Z" clip-rule="evenodd"/><rect width="51" height="20" x="16" y="16" fill="#00DC82" fill-opacity=".1" rx="4"/><path fill="#00DC82" d="M22.816 32.64v-8.688h1.08l.12.936c.128-.184.288-.356.48-.516.192-.168.42-.304.684-.408.272-.104.588-.156.948-.156.576 0 1.08.14 1.512.42.44.28.78.66 1.02 1.14.248.472.372 1.012.372 1.62 0 .608-.124 1.152-.372 1.632-.248.472-.592.844-1.032 1.116-.432.272-.936.408-1.512.408-.472 0-.888-.092-1.248-.276-.36-.192-.644-.456-.852-.792v3.564h-1.2Zm3.108-3.54c.368 0 .692-.088.972-.264.288-.176.512-.424.672-.744.168-.32.252-.692.252-1.116 0-.424-.084-.792-.252-1.104-.16-.32-.384-.568-.672-.744-.28-.184-.604-.276-.972-.276-.376 0-.708.092-.996.276-.28.176-.5.424-.66.744-.16.312-.24.68-.24 1.104 0 .424.08.796.24 1.116.16.32.38.568.66.744.288.176.62.264.996.264Zm6.5132 1.044c-.496 0-.908-.084-1.236-.252-.328-.168-.572-.392-.732-.672-.16-.288-.24-.596-.24-.924 0-.4.104-.74.312-1.02.208-.288.504-.508.888-.66.384-.152.844-.228 1.38-.228h1.572c0-.352-.052-.644-.156-.876-.104-.232-.26-.404-.468-.516-.2-.12-.456-.18-.768-.18-.36 0-.668.088-.924.264-.256.168-.416.42-.48.756h-1.2c.048-.424.192-.784.432-1.08.248-.304.564-.536.948-.696.384-.168.792-.252 1.224-.252.568 0 1.044.1 1.428.3.384.2.672.484.864.852.2.36.3.792.3 1.296V30h-1.044l-.096-1.02c-.088.16-.192.312-.312.456-.12.144-.264.268-.432.372-.16.104-.348.184-.564.24-.208.064-.44.096-.696.096Zm.228-.972c.256 0 .488-.052.696-.156.208-.104.384-.244.528-.42.152-.184.264-.388.336-.612.08-.232.124-.468.132-.708v-.036h-1.428c-.344 0-.624.044-.84.132-.208.08-.36.192-.456.336-.096.144-.144.312-.144.504 0 .2.044.372.132.516.096.136.232.244.408.324.176.08.388.12.636.12Zm6.9077 3.612c-.552 0-1.04-.072-1.464-.216-.424-.136-.752-.348-.984-.636-.232-.288-.348-.64-.348-1.056 0-.216.048-.436.144-.66.096-.216.252-.424.468-.624.216-.2.508-.38.876-.54l.672.54c-.408.152-.684.332-.828.54-.136.216-.204.424-.204.624 0 .24.072.44.216.6.144.16.34.28.588.36.256.08.544.12.864.12.312 0 .584-.044.816-.132.232-.088.412-.212.54-.372.128-.16.192-.348.192-.564 0-.256-.096-.472-.288-.648-.192-.168-.56-.268-1.104-.3-.456-.032-.844-.076-1.164-.132-.312-.056-.58-.124-.804-.204-.216-.08-.4-.168-.552-.264-.144-.096-.268-.196-.372-.3v-.276l1.2-1.236.972.336-1.308 1.212.252-.54c.088.056.172.112.252.168.08.048.188.092.324.132.136.04.32.076.552.108.232.032.536.064.912.096.544.04.98.136 1.308.288.336.152.58.356.732.612.152.256.228.56.228.912 0 .344-.096.672-.288.984-.184.312-.476.568-.876.768-.392.2-.9.3-1.524.3Zm0-4.644c-.512 0-.948-.096-1.308-.288-.352-.192-.624-.452-.816-.78-.184-.328-.276-.692-.276-1.092 0-.408.092-.772.276-1.092.192-.328.468-.588.828-.78.36-.2.792-.3 1.296-.3s.932.1 1.284.3c.36.192.632.452.816.78.192.32.288.684.288 1.092 0 .4-.096.764-.288 1.092-.184.328-.456.588-.816.78-.352.192-.78.288-1.284.288Zm0-.96c.392 0 .704-.1.936-.3.232-.208.348-.508.348-.9s-.116-.688-.348-.888c-.232-.208-.544-.312-.936-.312s-.708.104-.948.312c-.24.2-.36.496-.36.888s.12.692.36.9c.24.2.556.3.948.3Zm.984-2.28-.288-.948h2.484v.828l-2.196.12Zm5.9014 5.244c-.576 0-1.088-.132-1.536-.396-.448-.264-.8-.632-1.056-1.104-.248-.472-.372-1.02-.372-1.644 0-.64.124-1.196.372-1.668.256-.48.608-.852 1.056-1.116.448-.272.968-.408 1.56-.408.592 0 1.1.132 1.524.396.424.264.752.616.984 1.056.232.432.348.912.348 1.44 0 .08-.004.168-.012.264 0 .088-.004.188-.012.3h-4.944v-.852h3.768c-.024-.504-.192-.896-.504-1.176-.312-.288-.7-.432-1.164-.432-.328 0-.628.076-.9.228-.272.144-.492.36-.66.648-.16.28-.2401.636-.2401 1.068v.336c0 .448.0801.828.2401 1.14.168.304.388.536.66.696.272.152.568.228.888.228.384 0 .7-.084.948-.252.248-.168.432-.396.552-.684h1.2c-.104.368-.28.7-.528.996-.248.288-.556.516-.924.684-.36.168-.776.252-1.248.252Zm6.5532 0c-.512 0-.96-.084-1.344-.252-.384-.168-.688-.404-.912-.708-.224-.304-.36-.66-.408-1.068h1.224c.04.192.116.368.228.528.12.16.28.288.48.384.208.096.452.144.732.144.264 0 .48-.036.648-.108.176-.08.304-.184.384-.312.08-.136.12-.28.12-.432 0-.224-.056-.392-.168-.504-.104-.12-.264-.212-.48-.276-.208-.072-.46-.136-.756-.192-.28-.048-.552-.112-.816-.192-.256-.088-.488-.196-.696-.324-.2-.128-.36-.288-.48-.48-.12-.2-.18-.444-.18-.732 0-.344.092-.652.276-.924.184-.28.444-.496.78-.648.344-.16.748-.24 1.212-.24.672 0 1.212.16 1.62.48.408.32.648.772.72 1.356h-1.164c-.032-.272-.152-.48-.36-.624-.208-.152-.484-.228-.828-.228s-.608.068-.792.204c-.184.136-.276.316-.276.54 0 .144.052.272.156.384.104.112.256.208.456.288.208.072.46.14.756.204.424.08.804.18 1.14.3.336.12.604.296.804.528.2.232.3.564.3.996.008.376-.088.708-.288.996-.192.288-.468.512-.828.672-.352.16-.772.24-1.26.24Zm3.2969 1.068 3-10.44h1.176l-3 10.44h-1.176Z"/><rect width="50" height="19" x="16.5" y="16.5" stroke="#00DC82" stroke-opacity=".25" rx="3.5"/><g filter="url(#k)"><path fill="#00DC82" d="M210 5v37H-6V5z"/></g></g><rect width="765" height="339" x=".5" y=".5" stroke="#1E293B" rx="7.5"/><defs><linearGradient id="b" x1="13.5" x2="557.36" y1=".00000563" y2="528.235" gradientUnits="userSpaceOnUse"><stop stop-color="#0F172A"/><stop offset="1" stop-color="#020420"/></linearGradient><linearGradient id="c" x1="383" x2="383" y1="56" y2="284" gradientUnits="userSpaceOnUse"><stop stop-color="#F1F5F9"/><stop offset="1" stop-color="#F1F5F9" stop-opacity="0"/></linearGradient><linearGradient id="d" x1="383" x2="383" y1="56" y2="284" gradientUnits="userSpaceOnUse"><stop stop-color="#F1F5F9"/><stop offset="1" stop-color="#F1F5F9" stop-opacity="0"/></linearGradient><linearGradient id="e" x1="382.5" x2="358.169" y1="96" y2="267.477" gradientUnits="userSpaceOnUse"><stop stop-color="#00DC82"/><stop offset="1" stop-color="#00DC82" stop-opacity="0"/></linearGradient><linearGradient id="f" x1="382.5" x2="382.5" y1="96" y2="271" gradientUnits="userSpaceOnUse"><stop stop-color="#00DC82"/><stop offset="1" stop-color="#00DC82" stop-opacity="0"/></linearGradient><linearGradient id="h" x1="259.652" x2="259.652" y1="182.144" y2="259.722" gradientUnits="userSpaceOnUse"><stop stop-color="#F1F5F9"/><stop offset="1" stop-color="#F1F5F9" stop-opacity="0"/></linearGradient><linearGradient id="i" x1="506.601" x2="506.601" y1="182.144" y2="259.722" gradientUnits="userSpaceOnUse"><stop stop-color="#F1F5F9"/><stop offset="1" stop-color="#F1F5F9" stop-opacity="0"/></linearGradient><linearGradient id="j" x1="383.422" x2="383.422" y1="182.144" y2="259.722" gradientUnits="userSpaceOnUse"><stop stop-color="#F1F5F9"/><stop offset="1" stop-color="#F1F5F9" stop-opacity="0"/></linearGradient><filter id="g" width="644" height="383" x="58" y="-58" color-interpolation-filters="sRGB" filterUnits="userSpaceOnUse"><feFlood flood-opacity="0" result="BackgroundImageFix"/><feBlend in="SourceGraphic" in2="BackgroundImageFix" result="shape"/><feGaussianBlur result="effect1_foregroundBlur_129_2791" stdDeviation="86.5"/></filter><filter id="k" width="968" height="789" x="-382" y="-371" color-interpolation-filters="sRGB" filterUnits="userSpaceOnUse"><feFlood flood-opacity="0" result="BackgroundImageFix"/><feBlend in="SourceGraphic" in2="BackgroundImageFix" result="shape"/><feGaussianBlur result="effect1_foregroundBlur_129_2791" stdDeviation="188"/></filter><clipPath id="a"><rect width="766" height="340" fill="#fff" rx="8"/></clipPath></defs></svg>
