<svg width="96" height="96" viewBox="0 0 96 96" fill="none" xmlns="http://www.w3.org/2000/svg">
<path d="M40 8H12C9.79086 8 8 9.79086 8 12V40C8 42.2091 9.79086 44 12 44H40C42.2091 44 44 42.2091 44 40V12C44 9.79086 42.2091 8 40 8Z" fill="#009D5D"/>
<path d="M40 52H12C9.79086 52 8 53.7909 8 56V84C8 86.2091 9.79086 88 12 88H40C42.2091 88 44 86.2091 44 84V56C44 53.7909 42.2091 52 40 52Z" fill="#00DC82"/>
<path d="M84 8H56C53.7909 8 52 9.79086 52 12V40C52 42.2091 53.7909 44 56 44H84C86.2091 44 88 42.2091 88 40V12C88 9.79086 86.2091 8 84 8Z" fill="#00DC82"/>
<path d="M84 52H56C53.7909 52 52 53.7909 52 56V84C52 86.2091 53.7909 88 56 88H84C86.2091 88 88 86.2091 88 84V56C88 53.7909 86.2091 52 84 52Z" fill="#00DC82"/>
</svg>
