<svg width="64" height="64" viewBox="0 0 64 64" fill="none" xmlns="http://www.w3.org/2000/svg">
<path d="M50.667 34.6668H45.3337C43.7337 34.6668 42.667 35.7335 42.667 37.3335C42.667 38.9335 43.7337 40.0002 45.3337 40.0002H47.7337C46.667 46.6668 41.3337 52.0002 34.667 53.0668V29.3335H37.3337C38.9337 29.3335 40.0003 28.2668 40.0003 26.6668C40.0003 25.0668 38.9337 24.0002 37.3337 24.0002H34.667V20.8002C37.867 19.7335 40.0003 16.8002 40.0003 13.3335C40.0003 8.80016 36.5337 5.3335 32.0003 5.3335C27.467 5.3335 24.0003 8.80016 24.0003 13.3335C24.0003 16.8002 26.1337 19.7335 29.3337 20.8002V24.0002H26.667C25.067 24.0002 24.0003 25.0668 24.0003 26.6668C24.0003 28.2668 25.067 29.3335 26.667 29.3335H29.3337V53.0668C22.667 52.0002 17.3337 46.6668 16.267 40.0002H18.667C20.267 40.0002 21.3337 38.9335 21.3337 37.3335C21.3337 35.7335 20.267 34.6668 18.667 34.6668H13.3337C11.7337 34.6668 10.667 35.7335 10.667 37.3335C10.667 49.0668 20.267 58.6668 32.0003 58.6668C43.7337 58.6668 53.3337 49.0668 53.3337 37.3335C53.3337 35.7335 52.267 34.6668 50.667 34.6668ZM32.0003 10.6668C33.6003 10.6668 34.667 11.7335 34.667 13.3335C34.667 14.9335 33.6003 16.0002 32.0003 16.0002C30.4003 16.0002 29.3337 14.9335 29.3337 13.3335C29.3337 11.7335 30.4003 10.6668 32.0003 10.6668Z" fill="#27272A"/>
</svg>
