<svg width="96" height="96" viewBox="0 0 96 96" fill="none" xmlns="http://www.w3.org/2000/svg">
<path d="M62.8284 21.1719L50.8284 9.1719C50.4571 8.80037 50.0162 8.50565 49.531 8.30457C49.0457 8.10349 48.5256 8 48.0003 8C47.4751 8 46.9549 8.10349 46.4697 8.30457C45.9844 8.50565 45.5435 8.80037 45.1722 9.1719L33.1722 21.1719C32.43 21.9236 32.0152 22.9384 32.0186 23.9948C32.0219 25.0511 32.4431 26.0633 33.1901 26.8103C33.9371 27.5572 34.9492 27.9783 36.0056 27.9816C37.062 27.9849 38.0768 27.5702 38.8284 26.8279L44.0004 21.6561V67.9999C44.0004 69.0608 44.4219 70.0782 45.172 70.8283C45.9222 71.5785 46.9396 71.9999 48.0004 71.9999C49.0613 71.9999 50.0787 71.5785 50.8289 70.8283C51.579 70.0782 52.0004 69.0608 52.0004 67.9999V21.6561L57.1724 26.8281C57.9241 27.5704 58.9389 27.9851 59.9953 27.9818C61.0517 27.9784 62.0639 27.5573 62.8108 26.8103C63.5578 26.0633 63.9789 25.0511 63.9822 23.9947C63.9855 22.9383 63.5707 21.9235 62.8284 21.1719Z" fill="#52525B"/>
<path d="M72 36H52V68C52 69.0609 51.5786 70.0783 50.8284 70.8284C50.0783 71.5786 49.0609 72 48 72C46.9391 72 45.9217 71.5786 45.1716 70.8284C44.4214 70.0783 44 69.0609 44 68V36H24C20.8185 36.0035 17.7682 37.2689 15.5186 39.5186C13.2689 41.7682 12.0035 44.8185 12 48V76C12.0035 79.1815 13.2689 82.2318 15.5186 84.4814C17.7682 86.7311 20.8185 87.9965 24 88H72C75.1815 87.9965 78.2318 86.7311 80.4814 84.4814C82.7311 82.2318 83.9965 79.1815 84 76V48C83.9965 44.8185 82.7311 41.7682 80.4814 39.5186C78.2318 37.2689 75.1815 36.0035 72 36Z" fill="#E4E4E7"/>
</svg>
