<svg width="64" height="64" viewBox="0 0 64 64" fill="none" xmlns="http://www.w3.org/2000/svg">
<path d="M56.187 44.8798L50.667 39.2265C49.4796 38.0978 47.9819 37.35 46.3662 37.0792C44.7506 36.8083 43.0908 37.0268 41.6003 37.7065L39.2003 35.3065C42.0284 31.5276 43.32 26.8176 42.8151 22.1247C42.3101 17.4318 40.0461 13.1044 36.4788 10.0137C32.9115 6.92298 28.3057 5.2984 23.5887 5.467C18.8718 5.63561 14.3938 7.58488 11.0562 10.9224C7.71867 14.26 5.7694 18.738 5.60079 23.455C5.43218 28.1719 7.05677 32.7777 10.1475 36.345C13.2382 39.9123 17.5656 42.1763 22.2585 42.6813C26.9514 43.1863 31.6614 41.8947 35.4403 39.0665L37.8136 41.4398C37.0539 42.9322 36.7816 44.6254 37.0351 46.2807C37.2887 47.936 38.0553 49.47 39.227 50.6665L44.8803 56.3198C46.3803 57.818 48.4136 58.6595 50.5336 58.6595C52.6536 58.6595 54.687 57.818 56.187 56.3198C56.9489 55.5748 57.5544 54.685 57.9677 53.7028C58.3811 52.7205 58.594 51.6655 58.594 50.5998C58.594 49.5342 58.3811 48.4792 57.9677 47.4969C57.5544 46.5147 56.9489 45.6249 56.187 44.8798ZM33.5736 33.5732C31.7076 35.4345 29.3318 36.701 26.7463 37.2128C24.1608 37.7245 21.4816 37.4585 19.0472 36.4483C16.6129 35.4382 14.5325 33.7292 13.0689 31.5373C11.6053 29.3454 10.8241 26.7688 10.8241 24.1332C10.8241 21.4975 11.6053 18.921 13.0689 16.7291C14.5325 14.5372 16.6129 12.8282 19.0472 11.818C21.4816 10.8079 24.1608 10.5418 26.7463 11.0536C29.3318 11.5653 31.7076 12.8318 33.5736 14.6932C34.8153 15.9317 35.8005 17.4031 36.4726 19.0229C37.1448 20.6428 37.4908 22.3794 37.4908 24.1332C37.4908 25.887 37.1448 27.6235 36.4726 29.2434C35.8005 30.8633 34.8153 32.3346 33.5736 33.5732ZM52.427 52.4265C52.1791 52.6765 51.8841 52.8748 51.5592 53.0102C51.2342 53.1456 50.8857 53.2153 50.5336 53.2153C50.1816 53.2153 49.8331 53.1456 49.5081 53.0102C49.1831 52.8748 48.8882 52.6765 48.6403 52.4265L42.987 46.7732C42.737 46.5253 42.5386 46.2303 42.4033 45.9054C42.2679 45.5804 42.1982 45.2319 42.1982 44.8798C42.1982 44.5278 42.2679 44.1793 42.4033 43.8543C42.5386 43.5294 42.737 43.2344 42.987 42.9865C43.2349 42.7366 43.5298 42.5382 43.8548 42.4028C44.1797 42.2674 44.5283 42.1977 44.8803 42.1977C45.2323 42.1977 45.5809 42.2674 45.9058 42.4028C46.2308 42.5382 46.5257 42.7366 46.7736 42.9865L52.427 48.6398C52.6769 48.8877 52.8753 49.1827 53.0107 49.5076C53.1461 49.8326 53.2158 50.1811 53.2158 50.5332C53.2158 50.8852 53.1461 51.2338 53.0107 51.5587C52.8753 51.8837 52.6769 52.1786 52.427 52.4265Z" fill="#27272A"/>
</svg>
