<svg width="87" height="296" viewBox="0 0 87 296" fill="none" xmlns="http://www.w3.org/2000/svg">
<path d="M0.685547 8.04927C0.685547 3.631 4.26727 0.0492554 8.68555 0.0492554H86.6965V296H8.68555C4.26727 296 0.685547 292.418 0.685547 288V8.04927Z" fill="#E4E4E7"/>
<rect x="11.4365" y="37.0436" width="38.9737" height="4.03591" rx="2.01796" fill="#A1A1AA"/>
<rect x="11.4365" y="48.478" width="45.0214" height="4.03591" rx="2.01796" fill="#A1A1AA"/>
<rect x="11.4365" y="59.9123" width="38.9737" height="4.03591" rx="2.01796" fill="#A1A1AA"/>
<rect x="11.4365" y="71.3466" width="45.0214" height="4.03591" rx="2.01796" fill="#A1A1AA"/>
<rect x="11.4365" y="82.7807" width="38.9737" height="4.03591" rx="2.01796" fill="#A1A1AA"/>
<path d="M20.8619 22.2468H27.1068C27.3052 22.2468 27.5 22.194 27.6718 22.0936C27.8436 21.9932 27.9862 21.8489 28.0853 21.675C28.1845 21.5012 28.2366 21.304 28.2365 21.1032C28.2364 20.9025 28.1841 20.7053 28.0848 20.5316L23.8909 13.1805C23.7918 13.0066 23.6492 12.8623 23.4775 12.7619C23.3057 12.6616 23.1109 12.6088 22.9126 12.6088C22.7143 12.6088 22.5195 12.6616 22.3477 12.7619C22.176 12.8623 22.0334 13.0066 21.9343 13.1805L20.8619 15.0613L18.7653 11.3833C18.666 11.2095 18.5234 11.0652 18.3516 10.9649C18.1798 10.8645 17.985 10.8117 17.7866 10.8117C17.5883 10.8117 17.3934 10.8645 17.2216 10.9649C17.0499 11.0652 16.9072 11.2095 16.808 11.3833L11.5892 20.5316C11.4899 20.7053 11.4376 20.9025 11.4375 21.1032C11.4374 21.304 11.4896 21.5012 11.5887 21.675C11.6878 21.8489 11.8305 21.9932 12.0022 22.0936C12.174 22.194 12.3689 22.2468 12.5672 22.2468H16.4872C18.0404 22.2468 19.1858 21.5564 19.9739 20.2095L21.8874 16.856L22.9123 15.0613L25.9882 20.4521H21.8874L20.8619 22.2468ZM16.4233 20.4503L13.6877 20.4497L17.7884 13.2624L19.8346 16.856L18.4646 19.2579C17.9412 20.1319 17.3466 20.4503 16.4233 20.4503Z" fill="#0C0C0D"/>
</svg>
