<svg width="140" height="97" viewBox="0 0 140 97" fill="none" xmlns="http://www.w3.org/2000/svg">
<g clip-path="url(#clip0_3280_14647)">
<path d="M108.275 120H180.021C182.3 120 184.539 119.446 186.512 118.393C188.485 117.339 190.124 115.824 191.263 114C192.402 112.175 193.001 110.106 193 107.999C192.999 105.893 192.398 103.824 191.257 102L143.075 24.8577C141.936 23.0337 140.297 21.519 138.324 20.4658C136.351 19.4127 134.113 18.8583 131.835 18.8583C129.556 18.8583 127.318 19.4127 125.345 20.4658C123.372 21.519 121.734 23.0337 120.595 24.8577L108.275 44.5958L84.1869 5.99858C83.047 4.17471 81.408 2.66021 79.4344 1.60727C77.4609 0.554319 75.2223 0 72.9435 0C70.6648 0 68.4262 0.554319 66.4526 1.60727C64.479 2.66021 62.84 4.17471 61.7002 5.99858L1.74268 102C0.602037 103.824 0.000992739 105.893 1.22872e-06 107.999C-0.000990281 110.106 0.598106 112.175 1.73703 114C2.87596 115.824 4.51456 117.339 6.48801 118.393C8.46147 119.446 10.7002 120 12.979 120H58.0153C75.8592 120 89.0184 112.755 98.0732 98.6203L120.056 63.4291L131.831 44.5958L167.169 101.167H120.056L108.275 120ZM57.2811 101.147L25.8515 101.141L72.9645 25.7173L96.472 63.4291L80.7327 88.6349C74.7195 97.8059 67.8882 101.147 57.2811 101.147Z" fill="white"/>
</g>
<defs>
<clipPath id="clip0_3280_14647">
<rect width="140" height="97" fill="white"/>
</clipPath>
</defs>
</svg>
