<svg width="64" height="64" viewBox="0 0 64 64" fill="none" xmlns="http://www.w3.org/2000/svg">
<path d="M50.6663 5.3335H23.9997C21.8779 5.3335 19.8431 6.17635 18.3428 7.67664C16.8425 9.17693 15.9997 11.2118 15.9997 13.3335V16.0002H13.333C11.2113 16.0002 9.17645 16.843 7.67615 18.3433C6.17586 19.8436 5.33301 21.8784 5.33301 24.0002V50.6668C5.33301 52.7886 6.17586 54.8234 7.67615 56.3237C9.17645 57.824 11.2113 58.6668 13.333 58.6668H39.9997C42.1214 58.6668 44.1562 57.824 45.6565 56.3237C47.1568 54.8234 47.9997 52.7886 47.9997 50.6668V48.0002H50.6663C52.7881 48.0002 54.8229 47.1573 56.3232 45.657C57.8235 44.1567 58.6663 42.1219 58.6663 40.0002V13.3335C58.6663 11.2118 57.8235 9.17693 56.3232 7.67664C54.8229 6.17635 52.7881 5.3335 50.6663 5.3335ZM42.6663 50.6668C42.6663 51.3741 42.3854 52.0524 41.8853 52.5525C41.3852 53.0525 40.7069 53.3335 39.9997 53.3335H13.333C12.6258 53.3335 11.9475 53.0525 11.4474 52.5525C10.9473 52.0524 10.6663 51.3741 10.6663 50.6668V32.0002H42.6663V50.6668ZM42.6663 26.6668H10.6663V24.0002C10.6663 23.2929 10.9473 22.6146 11.4474 22.1145C11.9475 21.6144 12.6258 21.3335 13.333 21.3335H39.9997C40.7069 21.3335 41.3852 21.6144 41.8853 22.1145C42.3854 22.6146 42.6663 23.2929 42.6663 24.0002V26.6668ZM53.333 40.0002C53.333 40.7074 53.0521 41.3857 52.552 41.8858C52.0519 42.3859 51.3736 42.6668 50.6663 42.6668H47.9997V24.0002C47.9925 23.0904 47.8301 22.1886 47.5197 21.3335H53.333V40.0002ZM53.333 16.0002H21.333V13.3335C21.333 12.6263 21.614 11.948 22.1141 11.4479C22.6142 10.9478 23.2924 10.6668 23.9997 10.6668H50.6663C51.3736 10.6668 52.0519 10.9478 52.552 11.4479C53.0521 11.948 53.333 12.6263 53.333 13.3335V16.0002Z" fill="#27272A"/>
</svg>
