<svg width="64" height="64" viewBox="0 0 64 64" fill="none" xmlns="http://www.w3.org/2000/svg">
<path d="M31.9997 5.3335C26.7255 5.3335 21.5698 6.89747 17.1845 9.82764C12.7992 12.7578 9.38124 16.9226 7.3629 21.7953C5.34456 26.668 4.81647 32.0297 5.84541 37.2026C6.87435 42.3754 9.41411 47.1269 13.1435 50.8563C16.8729 54.5857 21.6245 57.1255 26.7973 58.1544C31.9701 59.1834 37.3319 58.6553 42.2046 56.637C47.0773 54.6186 51.242 51.2007 54.1722 46.8154C57.1024 42.4301 58.6664 37.2743 58.6664 32.0002C58.6664 28.4982 57.9766 25.0306 56.6365 21.7953C55.2964 18.5599 53.3321 15.6202 50.8559 13.144C48.3796 10.6678 45.4399 8.7035 42.2046 7.36338C38.9692 6.02325 35.5016 5.3335 31.9997 5.3335ZM34.6664 53.1468V50.6668C34.6664 49.9596 34.3854 49.2813 33.8853 48.7812C33.3852 48.2811 32.7069 48.0002 31.9997 48.0002C31.2924 48.0002 30.6142 48.2811 30.1141 48.7812C29.614 49.2813 29.333 49.9596 29.333 50.6668V53.1468C24.6396 52.5517 20.2772 50.4132 16.9319 47.0679C13.5866 43.7226 11.4482 39.3602 10.853 34.6668H13.333C14.0403 34.6668 14.7185 34.3859 15.2186 33.8858C15.7187 33.3857 15.9997 32.7074 15.9997 32.0002C15.9997 31.2929 15.7187 30.6146 15.2186 30.1145C14.7185 29.6144 14.0403 29.3335 13.333 29.3335H10.853C11.4482 24.6401 13.5866 20.2777 16.9319 16.9324C20.2772 13.5871 24.6396 11.4487 29.333 10.8535V13.3335C29.333 14.0407 29.614 14.719 30.1141 15.2191C30.6142 15.7192 31.2924 16.0002 31.9997 16.0002C32.7069 16.0002 33.3852 15.7192 33.8853 15.2191C34.3854 14.719 34.6664 14.0407 34.6664 13.3335V10.8535C39.3597 11.4487 43.7221 13.5871 47.0675 16.9324C50.4128 20.2777 52.5512 24.6401 53.1464 29.3335H50.6664C49.9591 29.3335 49.2808 29.6144 48.7807 30.1145C48.2806 30.6146 47.9997 31.2929 47.9997 32.0002C47.9997 32.7074 48.2806 33.3857 48.7807 33.8858C49.2808 34.3859 49.9591 34.6668 50.6664 34.6668H53.1464C52.5512 39.3602 50.4128 43.7226 47.0675 47.0679C43.7221 50.4132 39.3597 52.5517 34.6664 53.1468ZM40.373 20.1335L27.0397 25.7868C26.4181 26.0561 25.9223 26.5519 25.653 27.1735L19.9997 40.5068C19.7897 40.9958 19.7308 41.5365 19.8306 42.0592C19.9304 42.582 20.1843 43.0629 20.5597 43.4402C21.052 43.9426 21.723 44.2301 22.4264 44.2402C22.7953 44.2405 23.1597 44.1585 23.493 44.0002L36.8264 38.3468C37.4479 38.0775 37.9437 37.5817 38.213 36.9602L43.8664 23.6268C44.0724 23.1382 44.1281 22.5992 44.0263 22.0787C43.9245 21.5583 43.6699 21.08 43.2949 20.705C42.9199 20.33 42.4416 20.0753 41.9211 19.9735C41.4007 19.8717 40.8617 19.9274 40.373 20.1335ZM33.733 33.7335L27.653 36.4002L30.3197 30.3202L36.3997 27.6535L33.733 33.7335Z" fill="#27272A"/>
</svg>
