<svg width="42" height="28" viewBox="0 0 42 28" fill="none" xmlns="http://www.w3.org/2000/svg">
<path d="M23.2258 27.4948H38.6159C39.1047 27.4949 39.585 27.3701 40.0083 27.133C40.4316 26.8959 40.7831 26.5549 41.0274 26.1442C41.2717 25.7335 41.4002 25.2677 41.4 24.7935C41.3998 24.3194 41.2709 23.8537 41.0262 23.4432L30.6906 6.07849C30.4463 5.66791 30.0949 5.32695 29.6717 5.08989C29.2484 4.85283 28.7683 4.72803 28.2796 4.72803C27.7908 4.72803 27.3107 4.85283 26.8875 5.08989C26.4643 5.32695 26.1128 5.66791 25.8685 6.07849L23.2258 10.5215L18.0587 1.83334C17.8142 1.42279 17.4627 1.08188 17.0393 0.844863C16.616 0.607847 16.1358 0.48307 15.647 0.48307C15.1581 0.48307 14.6779 0.607847 14.2546 0.844863C13.8313 1.08188 13.4797 1.42279 13.2352 1.83334L0.373819 23.4432C0.129142 23.8537 0.00021295 24.3194 2.6357e-07 24.7935C-0.000212423 25.2677 0.128298 25.7335 0.372607 26.1442C0.616916 26.5549 0.968407 26.8959 1.39173 27.133C1.81505 27.3701 2.29528 27.4949 2.7841 27.4948H12.4447C16.2724 27.4948 19.0951 25.864 21.0375 22.6823L25.7531 14.7608L28.2788 10.5215L35.8592 23.2555H25.7531L23.2258 27.4948ZM12.2873 23.2511L5.54536 23.2497L15.6515 6.27198L20.694 14.7608L17.3178 20.4346C16.0279 22.499 14.5626 23.2511 12.2873 23.2511Z" fill="#0C0C0D"/>
</svg>
