<svg width="64" height="64" viewBox="0 0 64 64" fill="none" xmlns="http://www.w3.org/2000/svg">
<path d="M45.333 58.6666H13.333C11.2113 58.6666 9.17645 57.8237 7.67615 56.3234C6.17586 54.8231 5.33301 52.7883 5.33301 50.6666V23.9999C5.33301 21.8782 6.17586 19.8433 7.67615 18.3431C9.17645 16.8428 11.2113 15.9999 13.333 15.9999H15.9997C16.0445 13.7403 16.8059 11.5533 18.1741 9.75439C19.5423 7.95548 21.4465 6.63764 23.612 5.99093C25.7776 5.34422 28.0926 5.40208 30.2232 6.15616C32.3538 6.91024 34.1898 8.32157 35.4663 10.1866C36.6622 11.891 37.313 13.9179 37.333 15.9999H45.333C46.0403 15.9999 46.7185 16.2809 47.2186 16.781C47.7187 17.2811 47.9997 17.9593 47.9997 18.6666V26.6666C50.2593 26.7114 52.4463 27.4728 54.2452 28.841C56.0441 30.2092 57.3619 32.1134 58.0087 34.2789C58.6554 36.4445 58.5975 38.7595 57.8434 40.8901C57.0893 43.0207 55.678 44.8566 53.813 46.1332C52.1086 47.3291 50.0816 47.9799 47.9997 47.9999V55.9999C47.9997 56.7072 47.7187 57.3854 47.2186 57.8855C46.7185 58.3856 46.0403 58.6666 45.333 58.6666ZM13.333 21.3332C12.6258 21.3332 11.9475 21.6142 11.4474 22.1143C10.9473 22.6144 10.6663 23.2927 10.6663 23.9999V50.6666C10.6663 51.3738 10.9473 52.0521 11.4474 52.5522C11.9475 53.0523 12.6258 53.3332 13.333 53.3332H42.6663V44.8532C42.664 44.4257 42.7646 44.0038 42.9595 43.6232C43.1544 43.2427 43.438 42.9146 43.7863 42.6666C44.1336 42.4189 44.5352 42.2582 44.9575 42.1979C45.3797 42.1376 45.8103 42.1794 46.213 42.3199C46.973 42.6299 47.8007 42.7364 48.6144 42.6289C49.4281 42.5213 50.1997 42.2034 50.853 41.7066C51.5033 41.31 52.0611 40.7788 52.4888 40.1486C52.9166 39.5184 53.2045 38.804 53.333 38.0532C53.4359 37.2961 53.3748 36.5256 53.1539 35.7941C52.9331 35.0626 52.5577 34.387 52.053 33.8132C51.3705 32.9842 50.4411 32.3948 49.4002 32.131C48.3593 31.8672 47.2613 31.9427 46.2663 32.3466C45.8636 32.4871 45.4331 32.5289 45.0108 32.4686C44.5886 32.4083 44.187 32.2476 43.8397 31.9999C43.4914 31.7519 43.2078 31.4238 43.0129 31.0432C42.8179 30.6627 42.7174 30.2408 42.7197 29.8132V21.3332H34.1863C33.7481 21.3581 33.3105 21.2743 32.9123 21.0895C32.5142 20.9046 32.1679 20.6243 31.9041 20.2734C31.6402 19.9226 31.4671 19.512 31.4001 19.0782C31.333 18.6444 31.3741 18.2007 31.5197 17.7866C31.8297 17.0266 31.9362 16.1989 31.8286 15.3852C31.7211 14.5715 31.4032 13.7999 30.9063 13.1466C30.5126 12.4777 29.9734 11.906 29.3287 11.4738C28.684 11.0416 27.9503 10.76 27.182 10.6498C26.4137 10.5397 25.6305 10.6039 24.8903 10.8376C24.1502 11.0713 23.4721 11.4685 22.9063 11.9999C22.3809 12.521 21.9697 13.1458 21.6989 13.8344C21.428 14.523 21.3034 15.2605 21.333 15.9999C21.3392 16.6116 21.4567 17.217 21.6797 17.7866C21.8207 18.1898 21.8627 18.621 21.8022 19.0439C21.7418 19.4668 21.5807 19.869 21.3324 20.2166C21.0841 20.5642 20.7559 20.8471 20.3755 21.0414C19.9951 21.2357 19.5735 21.3358 19.1463 21.3332H13.333Z" fill="#27272A"/>
</svg>
