<svg width="33" height="26" viewBox="0 0 33 26" fill="none" xmlns="http://www.w3.org/2000/svg">
<path d="M9.81969 0C4.36902 3.75909 0.521484 9.91982 0.521484 16.7071C0.521484 22.2413 3.94151 25.4783 7.89592 25.4783C11.6366 25.4783 14.4154 22.5545 14.4154 19.1087C14.4154 15.6629 11.9572 13.1568 8.75093 13.1568C8.10968 13.1568 7.25467 13.2612 7.04092 13.3657C7.5753 9.8154 10.9953 5.63863 14.4154 3.55025L9.81969 0ZM28.2024 0C22.8586 3.75909 19.011 9.91982 19.011 16.7071C19.011 22.2413 22.431 25.4783 26.3855 25.4783C30.0192 25.4783 32.9049 22.5545 32.9049 19.1087C32.9049 15.6629 30.3399 13.1568 27.1336 13.1568C26.4923 13.1568 25.7442 13.2612 25.5305 13.3657C26.0648 9.8154 29.378 5.63863 32.798 3.55025L28.2024 0Z" fill="#E4E4E7"/>
</svg>
