<svg width="64" height="64" viewBox="0 0 64 64" fill="none" xmlns="http://www.w3.org/2000/svg">
<path d="M55.9997 13.3333H53.333V10.6667C53.333 9.95942 53.0521 9.28115 52.552 8.78105C52.0519 8.28095 51.3736 8 50.6663 8C49.9591 8 49.2808 8.28095 48.7807 8.78105C48.2806 9.28115 47.9997 9.95942 47.9997 10.6667V13.3333H15.9997V10.6667C15.9997 9.95942 15.7187 9.28115 15.2186 8.78105C14.7185 8.28095 14.0403 8 13.333 8C12.6258 8 11.9475 8.28095 11.4474 8.78105C10.9473 9.28115 10.6663 9.95942 10.6663 10.6667V13.3333H7.99967C7.29243 13.3333 6.61415 13.6143 6.11406 14.1144C5.61396 14.6145 5.33301 15.2928 5.33301 16V32C5.33301 32.7072 5.61396 33.3855 6.11406 33.8856C6.61415 34.3857 7.29243 34.6667 7.99967 34.6667H10.6663V53.3333C10.6663 54.0406 10.9473 54.7189 11.4474 55.219C11.9475 55.7191 12.6258 56 13.333 56C14.0403 56 14.7185 55.7191 15.2186 55.219C15.7187 54.7189 15.9997 54.0406 15.9997 53.3333V34.6667H47.9997V53.3333C47.9997 54.0406 48.2806 54.7189 48.7807 55.219C49.2808 55.7191 49.9591 56 50.6663 56C51.3736 56 52.0519 55.7191 52.552 55.219C53.0521 54.7189 53.333 54.0406 53.333 53.3333V34.6667H55.9997C56.7069 34.6667 57.3852 34.3857 57.8853 33.8856C58.3854 33.3855 58.6663 32.7072 58.6663 32V16C58.6663 15.2928 58.3854 14.6145 57.8853 14.1144C57.3852 13.6143 56.7069 13.3333 55.9997 13.3333ZM10.6663 25.3867V18.6667H17.3863L10.6663 25.3867ZM14.2397 29.3333L24.9063 18.6667H33.7863L23.1197 29.3333H14.2397ZM30.6397 29.3333L41.3063 18.6667H49.7863L39.1197 29.3333H30.6397ZM53.333 29.3333H46.6397L53.333 22.64V29.3333Z" fill="#27272A"/>
</svg>
