<svg width="64" height="64" viewBox="0 0 64 64" fill="none" xmlns="http://www.w3.org/2000/svg">
<path fill-rule="evenodd" clip-rule="evenodd" d="M40.2297 13.3336C42.3125 11.2508 45.6893 11.2508 47.7721 13.3336L53.3342 18.8957C55.417 20.9785 55.417 24.3554 53.3342 26.4382L23.7721 56.0003C21.6893 58.083 18.3125 58.083 16.2297 56.0003L10.6676 50.4382C8.58477 48.3554 8.58477 44.9785 10.6676 42.8957L40.2297 13.3336ZM34.4388 26.6669L40.0009 32.229L49.563 22.6669L44.0009 17.1048L34.4388 26.6669Z" fill="#27272A"/>
<path fill-rule="evenodd" clip-rule="evenodd" d="M16.9045 17.7621L16.318 14.2013C16.0102 12.3326 13.3234 12.3326 13.0156 14.2013L12.429 17.7621L8.86831 18.3486C6.99963 18.6564 6.99962 21.3432 8.8683 21.651L12.429 22.2376L13.0156 25.7983C13.3234 27.667 16.0102 27.667 16.318 25.7983L16.9045 22.2376L20.4653 21.651C22.334 21.3432 22.334 18.6564 20.4653 18.3486L16.9045 17.7621Z" fill="#27272A"/>
<path d="M54.7597 38.0103L55.2165 40.7835L57.9896 41.2402C59.6037 41.5061 59.6036 43.8269 57.9896 44.0927L55.2165 44.5495L54.7597 47.3226C54.4938 48.9367 52.1731 48.9366 51.9072 47.3226L51.4504 44.5495L48.6773 44.0927C47.0633 43.8269 47.0633 41.5061 48.6773 41.2402L51.4504 40.7835L51.9072 38.0103C52.1731 36.3963 54.4938 36.3963 54.7597 38.0103Z" fill="#27272A"/>
<path d="M31.8674 5.81937L32.1944 7.80485L34.1799 8.1319C35.5393 8.35581 35.5393 10.3105 34.1799 10.5344L32.1944 10.8614L31.8674 12.8469C31.6435 14.2063 29.6888 14.2063 29.4649 12.8469L29.1379 10.8614L27.1524 10.5344C25.793 10.3105 25.793 8.35581 27.1524 8.1319L29.1379 7.80485L29.4649 5.81937C29.6888 4.45995 31.6435 4.45995 31.8674 5.81937Z" fill="#27272A"/>
</svg>
