<svg width="441" height="120" viewBox="0 0 441 120" fill="none" xmlns="http://www.w3.org/2000/svg">
  <path fill-rule="evenodd" clip-rule="evenodd" d="M160.11 38.934L160.479 45.528C164.688 40.428 170.214 37.878 177.054 37.878C188.907 37.878 194.94 44.682 195.15 58.29V95.994H182.37V59.028C182.37 55.407 181.59 52.728 180.03 50.985C178.47 49.245 175.917 48.375 172.374 48.375C167.217 48.375 163.374 50.715 160.854 55.389V95.994H148.068V38.934H160.116H160.11ZM233.244 97.05C225.144 97.05 218.574 94.494 213.543 89.379C208.509 84.264 205.992 77.451 205.992 68.943V67.362C205.992 61.668 207.087 56.577 209.28 52.095C211.47 47.613 214.551 44.124 218.514 41.625C222.477 39.132 226.896 37.884 231.774 37.884C239.523 37.884 245.514 40.362 249.738 45.318C253.968 50.277 256.08 57.288 256.08 66.36V71.529H218.88C219.27 76.239 220.836 79.965 223.59 82.707C226.344 85.449 229.809 86.82 233.982 86.82C239.838 86.82 244.608 84.45 248.292 79.701L255.183 86.295C252.903 89.703 249.861 92.349 246.057 94.23C242.25 96.111 237.981 97.05 233.247 97.05H233.244ZM231.72 48.168C228.21 48.168 225.381 49.398 223.224 51.858C221.064 54.318 219.69 57.747 219.093 62.142H243.453V61.191C243.171 56.901 242.031 53.661 240.033 51.462C238.032 49.266 235.263 48.168 231.72 48.168V48.168ZM282.015 25.068V38.937H292.065V48.429H282.015V80.28C282.015 82.458 282.447 84.03 283.305 84.999C284.163 85.965 285.699 86.448 287.91 86.448C289.415 86.4438 290.915 86.2666 292.38 85.92V95.835C289.47 96.645 286.665 97.047 283.962 97.047C274.143 97.047 269.232 91.617 269.232 80.754V48.426H259.86V38.934H269.226V25.065H282.009L282.015 25.068ZM315.426 95.997H302.64V14.997H315.426V95.997ZM342.942 95.997H330.156V38.937H342.942V95.997ZM329.367 24.117C329.367 22.152 329.988 20.517 331.233 19.215C332.481 17.916 334.26 17.265 336.573 17.265C338.889 17.265 340.677 17.916 341.943 19.215C343.203 20.517 343.833 22.152 343.833 24.12C343.833 26.052 343.203 27.66 341.943 28.944C340.677 30.228 338.889 30.87 336.573 30.87C334.26 30.87 332.481 30.228 331.233 28.944C329.988 27.663 329.367 26.052 329.367 24.12V24.117ZM361.356 95.997V48.426H352.674V38.934H361.356V33.714C361.356 27.384 363.108 22.5 366.615 19.053C370.125 15.609 375.033 13.887 381.345 13.887C383.592 13.887 385.977 14.202 388.503 14.835L388.188 24.855C386.575 24.5555 384.936 24.4148 383.295 24.435C377.19 24.435 374.139 27.579 374.139 33.873V38.934H385.713V48.426H374.139V95.994H361.356V95.997ZM414.966 77.646L426.54 38.937H440.166L417.546 104.646C414.072 114.243 408.18 119.043 399.867 119.043C398.007 119.043 395.955 118.725 393.711 118.092V108.177L396.132 108.336C399.357 108.336 401.787 107.748 403.419 106.569C405.048 105.393 406.338 103.416 407.286 100.638L409.125 95.733L389.133 38.937H402.918L414.966 77.646Z" fill="#A1A1AA" />
  <path d="M83.6612 42.405L83.6192 42.387C83.5952 42.378 83.5712 42.369 83.5502 42.348C83.5158 42.311 83.4903 42.2667 83.4757 42.2183C83.4612 42.1699 83.4579 42.1188 83.4662 42.069L85.7852 27.891L96.6602 38.769L85.3502 43.581C85.3188 43.5937 85.2851 43.5998 85.2512 43.599H85.2062C85.1912 43.59 85.1762 43.578 85.1462 43.548C84.7253 43.0794 84.222 42.692 83.6612 42.405V42.405ZM99.4352 41.541L111.063 53.169C113.478 55.587 114.687 56.793 115.128 58.191C115.194 58.398 115.248 58.605 115.29 58.818L87.5012 47.049C87.4863 47.0429 87.4713 47.0369 87.4562 47.031C87.3452 46.986 87.2162 46.935 87.2162 46.821C87.2162 46.707 87.3482 46.653 87.4592 46.608L87.4952 46.593L99.4352 41.541ZM114.816 62.55C114.216 63.678 113.046 64.848 111.066 66.831L97.9562 79.938L81.0002 76.407L80.9102 76.389C80.7602 76.365 80.6012 76.338 80.6012 76.203C80.5368 75.5035 80.3291 74.8248 79.9911 74.2091C79.653 73.5934 79.1918 73.0538 78.6362 72.624C78.5672 72.555 78.5852 72.447 78.6062 72.348C78.6062 72.333 78.6062 72.318 78.6122 72.306L81.8012 52.728L81.8132 52.662C81.8312 52.512 81.8582 52.338 81.9932 52.338C82.6766 52.253 83.3363 52.0328 83.9337 51.6903C84.5312 51.3478 85.0545 50.8898 85.4732 50.343C85.5002 50.313 85.5182 50.28 85.5542 50.262C85.6502 50.217 85.7642 50.262 85.8632 50.304L114.813 62.55H114.816ZM94.9412 82.953L73.3832 104.511L77.0732 81.831L77.0792 81.801C77.0822 81.771 77.0882 81.741 77.0972 81.714C77.1272 81.642 77.2052 81.612 77.2802 81.582L77.3162 81.567C78.1242 81.2223 78.8387 80.6907 79.4012 80.016C79.4732 79.932 79.5602 79.851 79.6712 79.836C79.7 79.8313 79.7294 79.8313 79.7582 79.836L94.9382 82.956L94.9412 82.953ZM68.8202 109.074L66.3902 111.504L39.5252 72.678C39.5155 72.6638 39.5055 72.6498 39.4952 72.636C39.4532 72.579 39.4082 72.522 39.4172 72.456C39.4172 72.408 39.4502 72.366 39.4832 72.33L39.5132 72.291C39.5942 72.171 39.6632 72.051 39.7382 71.922L39.7982 71.817L39.8072 71.808C39.8492 71.736 39.8882 71.667 39.9602 71.628C40.0232 71.598 40.1102 71.61 40.1792 71.625L69.9422 77.763C70.0254 77.776 70.1039 77.8101 70.1702 77.862C70.2092 77.901 70.2182 77.943 70.2272 77.991C70.4348 78.7765 70.8212 79.5034 71.3562 80.1149C71.8912 80.7264 72.5603 81.2059 73.3112 81.516C73.3952 81.558 73.3592 81.651 73.3202 81.75C73.3008 81.7934 73.2857 81.8386 73.2752 81.885C72.9002 84.165 69.6842 103.779 68.8202 109.074ZM63.7442 114.147C61.9532 115.92 60.8972 116.859 59.7032 117.237C58.5259 117.609 57.2625 117.609 56.0852 117.237C54.6872 116.793 53.4782 115.587 51.0632 113.169L24.0842 86.19L31.1312 75.261C31.1642 75.207 31.1972 75.159 31.2512 75.12C31.3262 75.066 31.4342 75.09 31.5242 75.12C33.1417 75.608 34.8783 75.52 36.4382 74.871C36.5192 74.841 36.6002 74.82 36.6632 74.877C36.6947 74.9058 36.7229 74.938 36.7472 74.973L63.7442 114.15V114.147ZM21.4832 83.589L15.2942 77.4L27.5162 72.186C27.5474 72.1724 27.5811 72.1653 27.6152 72.165C27.7172 72.165 27.7772 72.267 27.8312 72.36C27.954 72.549 28.0841 72.7331 28.2212 72.912L28.2602 72.96C28.2962 73.011 28.2722 73.062 28.2362 73.11L21.4862 83.589H21.4832ZM12.5552 74.661L4.72521 66.831C3.39321 65.499 2.42721 64.533 1.75521 63.702L25.5632 68.64C25.5931 68.6456 25.6231 68.6506 25.6532 68.655C25.8002 68.679 25.9622 68.706 25.9622 68.844C25.9622 68.994 25.7852 69.063 25.6352 69.12L25.5662 69.15L12.5552 74.661ZM0.387207 59.676C0.41434 59.1716 0.505057 58.6727 0.657207 58.191C1.10121 56.793 2.30721 55.587 4.72521 53.169L14.7452 43.149C19.3587 49.8447 23.9847 56.5317 28.6232 63.21C28.7042 63.318 28.7942 63.438 28.7012 63.528C28.2632 64.011 27.8252 64.539 27.5162 65.112C27.4827 65.1857 27.4311 65.2497 27.3662 65.298C27.3272 65.322 27.2852 65.313 27.2402 65.304H27.2342L0.387207 59.673V59.676ZM17.4272 40.467L30.8942 26.994C32.1632 27.549 36.7742 29.496 40.8932 31.236C44.0132 32.556 46.8572 33.756 47.7512 34.146C47.8412 34.182 47.9222 34.218 47.9612 34.308C47.9852 34.362 47.9732 34.431 47.9612 34.488C47.7479 35.4605 47.7797 36.4708 48.0535 37.4281C48.3274 38.3853 48.8348 39.2595 49.5302 39.972C49.6202 40.062 49.5302 40.191 49.4522 40.302L49.4102 40.365L35.7302 61.554C35.6942 61.614 35.6612 61.665 35.6012 61.704C35.5292 61.749 35.4272 61.728 35.3432 61.707C34.8111 61.5676 34.2642 61.4931 33.7142 61.485C33.2222 61.485 32.6882 61.575 32.1482 61.674H32.1452C32.0852 61.683 32.0312 61.695 31.9832 61.659C31.9302 61.6157 31.8846 61.564 31.8482 61.506L17.4242 40.467H17.4272ZM33.6212 24.273L51.0632 6.83102C53.4782 4.41602 54.6872 3.20702 56.0852 2.76602C57.2625 2.39375 58.5259 2.39375 59.7032 2.76602C61.1012 3.20702 62.3102 4.41602 64.7252 6.83102L68.5052 10.611L56.1002 29.823C56.0695 29.8789 56.0277 29.928 55.9772 29.967C55.9022 30.018 55.7972 29.997 55.7072 29.967C54.7292 29.6702 53.6935 29.6162 52.6899 29.8096C51.6863 30.003 50.7449 30.438 49.9472 31.077C49.8662 31.161 49.7462 31.113 49.6442 31.068C48.0242 30.363 35.4242 25.038 33.6212 24.273V24.273ZM71.1392 13.245L82.5932 24.699L79.8332 41.793V41.838C79.8307 41.877 79.8227 41.9154 79.8092 41.952C79.7792 42.012 79.7192 42.024 79.6592 42.042C79.0691 42.2208 78.5133 42.4976 78.0152 42.861C77.9938 42.8763 77.9737 42.8933 77.9552 42.912C77.9222 42.948 77.8892 42.981 77.8352 42.987C77.7913 42.9884 77.7475 42.9812 77.7062 42.966L60.2522 35.55L60.2192 35.535C60.1082 35.49 59.9762 35.436 59.9762 35.322C59.8736 34.3494 59.5559 33.4117 59.0462 32.577C58.9622 32.439 58.8692 32.295 58.9412 32.154L71.1392 13.245ZM59.3432 39.063L75.7052 45.993C75.7952 46.035 75.8942 46.074 75.9332 46.167C75.9488 46.2229 75.9488 46.2821 75.9332 46.338C75.8852 46.578 75.8432 46.851 75.8432 47.127V47.586C75.8432 47.7 75.7262 47.748 75.6182 47.793L75.5852 47.805C72.9932 48.912 39.1952 63.324 39.1442 63.324C39.0932 63.324 39.0392 63.324 38.9882 63.273C38.8982 63.183 38.9882 63.057 39.0692 62.943C39.0835 62.9232 39.0975 62.9032 39.1112 62.883L52.5572 42.063L52.5812 42.027C52.6592 41.901 52.7492 41.76 52.8932 41.76L53.0282 41.781C53.3342 41.823 53.6042 41.862 53.8772 41.862C55.9172 41.862 57.8072 40.869 58.9472 39.171C58.9744 39.1257 59.0088 39.0851 59.0492 39.051C59.1302 38.991 59.2502 39.021 59.3432 39.063V39.063ZM40.6052 66.618L77.4452 50.907C77.4452 50.907 77.4992 50.907 77.5502 50.958C77.7512 51.159 77.9222 51.294 78.0872 51.42L78.1682 51.471C78.2432 51.513 78.3182 51.561 78.3242 51.639C78.3242 51.669 78.3242 51.687 78.3182 51.714L75.1622 71.1L75.1502 71.178C75.1292 71.328 75.1082 71.499 74.9672 71.499C74.1258 71.5558 73.3109 71.8169 72.5932 72.2597C71.8755 72.7024 71.2765 73.3135 70.8482 74.04L70.8332 74.064C70.7912 74.133 70.7522 74.199 70.6832 74.235C70.6202 74.265 70.5392 74.253 70.4732 74.238L41.0942 68.178C41.0642 68.172 40.6382 66.621 40.6052 66.618V66.618Z" fill="#A1A1AA" />
</svg>
