<svg width="512" height="512" viewBox="0 0 512 512" fill="none" xmlns="http://www.w3.org/2000/svg">
  <path d="M360.05 390.16C336.54 407.29 310.6 418.55 281.74 422.98C256.74 426.81 232.31 424.26 208.07 417.93L205.8 417.37C205.52 417.28 205.25 417.17 204.98 417.06L202.7 416.42C202.444 416.343 202.194 416.25 201.95 416.14L199.64 415.43C199.406 415.368 199.179 415.284 198.96 415.18C197.793 414.365 196.563 413.646 195.28 413.03C104 377.3 61.78 269.14 106.69 182C137.15 122.87 187.09 91.9401 253.83 88.8301C261.28 89.2201 268.75 89.4101 276.18 90.0101C295.11 91.5601 312.97 97.0701 329.86 105.54C348.797 114.911 365.818 127.734 380.05 143.35C389.844 153.986 398.276 165.8 405.15 178.52C421.53 209.19 426.92 241.94 423.06 276.36C420.913 295.191 415.541 313.511 407.18 330.52C398.31 348.75 386.75 365.1 371.76 378.92C370.45 380.13 369.76 382 368.76 383.56C368.712 383.63 368.649 383.689 368.577 383.734C368.505 383.778 368.424 383.808 368.34 383.82L367.64 384.44L367.39 384.66L366.39 385.43L366.13 385.06L366.36 385.45L365.19 386.32L362.43 388.56H362.33L361.16 389.33L361.22 389.27L360.05 390.16ZM154.36 142.76L153.75 143.36L153.44 143.72C151.93 144.36 150.01 144.61 148.98 145.72C143.98 151.05 138.98 156.41 134.48 162.12C114.76 186.93 104.38 215.49 102.18 246.87C100.856 267.147 103.667 287.482 110.44 306.64C119.04 331.54 132.73 353.16 152.37 371.04C167.039 384.362 184.096 394.788 202.64 401.77C225.12 410.36 248.51 412.03 272.26 410.97C273.209 410.795 274.133 410.503 275.01 410.1C279.13 409.54 283.31 409.23 287.37 408.38C335.13 398.38 369.86 370.76 392.48 328.18C411.32 292.7 415.63 254.94 404.93 216.06C383.55 138.35 304.76 84.2501 217.14 107.12C196.18 112.615 176.775 122.883 160.44 137.12L159.12 138.2L159.21 138.12L158.09 139.12L158.17 139.04L157.05 140.04L157.11 139.99L155.71 141.43L155.35 141.68L154.76 142.28C154.76 142.394 154.719 142.505 154.646 142.592C154.573 142.68 154.472 142.739 154.36 142.76Z" fill="#A1A1AA" />
  <path d="M253.83 88.7901C187.09 91.9001 137.15 122.79 106.69 181.96C61.7799 269.14 104 377.3 195.28 413C196.563 413.616 197.793 414.335 198.96 415.15C187.16 409.97 174.57 406.07 163.7 399.39C118.62 371.71 92.3999 331 84.9999 278.74C76.9999 222 94.8499 173.64 135.75 134.09C162.61 108.09 195.17 93.0901 232.47 88.9701C240.22 88.1101 248.03 87.8401 255.81 87.3101L253.83 88.7901Z" fill="#A1A1AA" fill-opacity="0.5" />
  <path d="M362.5 388.48L365.26 386.24L362.5 388.48Z" fill="#A1A1AA" />
  <path d="M199.64 415.43L201.95 416.14L199.64 415.43Z" fill="#61C4A4" />
  <path d="M202.7 416.42L204.98 417.06L202.7 416.42Z" fill="#61C4A4" />
  <path d="M205.8 417.37L208.07 417.93L205.8 417.37Z" fill="#61C4A4" />
  <path d="M367.65 384.4L368.35 383.78C368.309 383.942 368.22 384.087 368.095 384.198C367.971 384.309 367.815 384.379 367.65 384.4V384.4Z" fill="#A1A1AA" />
  <path d="M366.41 385.39L367.41 384.62L366.41 385.39Z" fill="#A1A1AA" />
  <path d="M365.21 386.28L366.38 385.41L365.21 386.28Z" fill="#A1A1AA" />
  <path d="M361.23 389.3L362.4 388.53L361.23 389.3Z" fill="#A1A1AA" />
  <path d="M360.05 390.16L361.29 389.24L360.05 390.16Z" fill="#A1A1AA" />
  <path d="M157.11 140.07L155.71 141.51L157.11 140.07Z" fill="#A1A1AA" />
  <path d="M160.44 137.14L159.12 138.22L160.44 137.14Z" fill="#A1A1AA" />
  <path d="M159.21 138.14L158.09 139.14L159.21 138.14Z" fill="#A1A1AA" />
  <path d="M158.17 139.09L157.05 140.09L158.17 139.09Z" fill="#A1A1AA" />
  <path d="M155.35 141.76C155.317 141.905 155.244 142.038 155.14 142.144C155.036 142.25 154.904 142.325 154.76 142.36L155.35 141.76Z" fill="#A1A1AA" />
  <path d="M154.36 142.76C154.326 142.908 154.25 143.042 154.142 143.148C154.034 143.255 153.898 143.328 153.75 143.36L154.36 142.76Z" fill="#A1A1AA" />
  <path d="M189.6 346.12C188.06 343.58 185.44 341.12 185.15 338.49C181.67 306.05 178.67 273.55 175.25 241.09C171.56 206.09 189.46 172.54 220.64 156.75C251.82 140.96 288.85 146.17 314.92 170.03C317.98 172.84 320.83 175.89 323.78 178.83L325 180C325.91 181.72 326.7 183.52 327.76 185.15C339.49 203.22 344.22 222.99 340.67 244.21C332 296.13 282 326.61 231.9 310.76C228.9 309.76 227.03 310.22 224.9 312.48C215.73 322.37 206.52 332.23 197.07 341.85C195.17 343.83 192.13 344.73 189.6 346.12ZM258.44 261.12C264.298 261.071 270.011 259.289 274.859 255.998C279.706 252.708 283.471 248.057 285.68 242.63C287.889 237.204 288.442 231.246 287.27 225.505C286.099 219.765 283.254 214.5 279.096 210.373C274.937 206.247 269.65 203.443 263.901 202.316C258.152 201.188 252.198 201.788 246.789 204.038C241.38 206.289 236.758 210.09 233.505 214.962C230.252 219.835 228.514 225.561 228.51 231.42C228.518 235.337 229.299 239.214 230.809 242.828C232.319 246.442 234.528 249.723 237.308 252.481C240.089 255.24 243.387 257.422 247.014 258.903C250.64 260.384 254.523 261.134 258.44 261.11V261.12Z" fill="#A1A1AA" />
  <path opacity="0.5" d="M189.6 346.12C192.13 344.73 195.17 343.83 197.11 341.85C206.56 332.23 215.77 322.37 224.94 312.48C227.03 310.22 228.86 309.8 231.94 310.76C282.05 326.61 332.04 296.13 340.71 244.19C344.26 222.97 339.53 203.19 327.8 185.13C326.74 183.5 325.95 181.7 325.04 179.98C329.58 184.47 334.78 188.47 338.57 193.52C377.3 245.12 345.4 319.36 281.34 326.8C269.68 328.16 257.98 327.37 246.85 323.33C242.64 321.8 240.29 322.81 237.48 325.87C228.59 335.55 219.42 344.99 210.32 354.48C205.7 359.3 204.04 359.4 199.04 355.03C195.75 352.19 192.73 349.1 189.6 346.12Z" fill="#A1A1AA" />
  <path d="M325 180L323.76 178.83L325 180Z" fill="#5CCAA7" />
</svg>
