<svg width="118" height="193" viewBox="0 0 118 193" fill="none" xmlns="http://www.w3.org/2000/svg">
  <path d="M99.6381 137.431C110.538 146.621 111.378 158.461 102.408 168.751C101.688 169.571 101.298 171.081 101.438 172.191C102.408 179.871 99.1481 185.561 92.9781 189.561C86.5181 193.741 79.2781 193.961 73.2081 189.541C68.6981 186.251 65.2581 181.281 61.9581 176.611C60.1181 174.021 59.5581 170.531 58.2781 167.071C56.8081 170.891 55.6381 174.491 54.0481 177.911C51.2281 184.001 46.9981 188.841 40.5281 191.241C27.7681 195.971 14.9081 186.431 15.4981 172.841C15.5581 171.561 15.1481 169.881 14.3081 169.001C5.07811 159.361 5.87808 146.521 16.3981 137.751C8.75808 132.561 5.70809 124.191 9.71809 113.031C12.5181 105.261 11.4681 98.9713 8.5481 91.7413C2.9681 77.9313 -0.341918 63.4913 0.0280824 48.4113C0.598082 24.7713 13.5581 8.30127 36.5081 2.70127C51.3081 -0.908733 66.2881 -0.898744 81.0681 2.72126C105.818 8.77126 119.078 27.9813 117.438 54.5213C116.438 70.7013 111.688 85.8713 105.688 100.781C104.818 102.951 105.208 105.761 105.478 108.231C106.108 113.961 107.498 119.651 107.678 125.391C107.868 130.631 105.728 135.201 99.6381 137.431ZM97.7381 128.881C98.3381 128.901 98.9381 128.921 99.5481 128.941C99.5481 124.571 100.978 119.511 99.2681 115.951C94.6681 106.351 97.1881 98.0513 101.518 89.5613C102.048 88.5313 102.378 87.3913 102.738 86.2913C107.428 72.1313 111.088 57.7913 109.008 42.7013C106.948 27.7113 98.9681 17.1213 84.4981 12.1413C67.9181 6.44127 51.0281 6.52127 34.3981 11.6113C19.2681 16.2413 10.5581 26.9512 8.49811 42.6812C6.31811 59.3612 10.2281 75.2312 16.5681 90.3912C19.9481 98.4812 21.5481 105.681 17.5981 114.071C15.4781 118.571 15.4681 124.051 18.3281 130.071C20.3781 123.541 22.0381 118.231 23.6481 113.081C25.0281 119.301 26.5381 125.011 27.5481 130.821C29.1181 139.941 26.5081 148.221 21.3081 155.971C21.0281 152.531 20.7481 149.091 20.4681 145.651C19.9581 145.571 19.4481 145.481 18.9481 145.401C17.9781 147.941 16.5881 150.401 16.1381 153.031C15.4181 157.161 15.9981 161.331 20.4881 163.151C24.7581 164.881 27.4681 161.731 29.6581 158.841C36.2781 150.121 39.2281 140.501 37.2381 129.361C36.3681 124.471 37.0881 119.291 37.0881 114.241C37.6081 114.241 38.1281 114.251 38.6481 114.251C38.6481 118.331 38.4381 122.421 38.6881 126.481C39.3581 137.271 40.6681 148.041 40.8081 158.821C40.8681 163.241 38.7181 167.751 37.1881 172.081C36.8281 173.101 34.8981 173.581 33.6981 174.301C33.0881 173.061 32.1881 171.871 31.9481 170.561C31.6381 168.921 31.8781 167.171 31.8781 165.321C25.0681 167.391 21.8881 172.711 23.9781 177.781C26.3881 183.651 33.3181 186.271 38.9681 183.331C44.3781 180.511 47.6781 175.571 48.6081 169.981C50.1181 160.871 51.0281 151.561 51.0681 142.331C51.1181 131.261 53.1181 120.931 58.4481 110.381C63.3081 121.291 65.6781 131.681 64.9981 142.751C64.3181 153.971 64.6081 165.121 70.0881 175.381C73.5881 181.951 79.1981 185.251 84.8681 184.381C89.9081 183.611 94.3381 178.351 93.6781 173.921C92.9781 169.181 88.6281 165.531 84.1181 166.101C84.2981 167.391 84.8181 168.751 84.5781 169.961C84.2881 171.461 83.3681 172.831 82.7181 174.261C81.4381 173.411 79.5981 172.841 78.9781 171.641C77.6081 169.031 75.9481 166.081 76.0081 163.301C76.3181 147.241 77.0881 131.181 77.7081 115.121C78.2881 115.151 78.8581 115.181 79.4381 115.211C79.0981 121.271 78.7881 127.331 78.4181 133.391C77.7481 144.521 81.3381 154.021 89.5581 161.561C93.0081 164.731 96.6381 164.221 98.9781 160.831C102.008 156.461 100.758 149.341 96.1081 145.691C95.7881 149.281 95.4781 152.711 95.1781 156.131C94.6981 156.141 94.2181 156.141 93.7381 156.151C90.2381 148.481 87.4481 140.551 88.7181 131.881C89.6581 125.511 91.3881 119.251 92.7981 112.761C94.4081 118.001 96.0781 123.441 97.7381 128.881Z" fill="#A1A1AA" />
  <path d="M92.9082 86.8413C92.8382 91.0813 89.3282 94.4013 85.1282 94.2013C81.1182 94.0013 77.9882 90.6614 78.0482 86.6214C78.0982 82.3814 81.6082 79.0813 85.8482 79.2813C89.9282 79.4813 92.9782 82.7413 92.9082 86.8413Z" fill="#A1A1AA" />
  <path d="M38.8482 86.7311C38.8882 90.8311 35.4082 94.3111 31.3082 94.2611C27.1282 94.2111 23.8182 90.7811 23.9182 86.5911C24.0082 82.6411 27.2582 79.4211 31.2282 79.3211C35.4482 79.2211 38.7982 82.4711 38.8482 86.7311Z" fill="#A1A1AA" />
</svg>
