<svg width="142" height="91" viewBox="0 0 142 91" fill="none" xmlns="http://www.w3.org/2000/svg">
  <g clip-path="url(#clip0_225_13)">
    <path d="M110.219 1.68872H94.7744V6.66793H110.219V1.68872Z" fill="#A1A1AA" />
    <path d="M77.9802 26.3322H73.001V1.68872H90.2171V6.58316H77.9802V26.3322Z" fill="#A1A1AA" />
    <path d="M82.7903 8.94604H75.4478V13.9253H82.7903V8.94604Z" fill="#A1A1AA" />
    <path d="M54.0172 28.019C51.2455 28.019 48.5361 27.1971 46.2316 25.6573C43.927 24.1174 42.1308 21.9288 41.0702 19.3681C40.0095 16.8074 39.732 13.9897 40.2727 11.2713C40.8134 8.55288 42.1481 6.05586 44.108 4.096C46.0678 2.13614 48.5648 0.801457 51.2832 0.260732C54.0017 -0.279992 56.8194 -0.00247301 59.38 1.0582C61.9407 2.11887 64.1294 3.91505 65.6692 6.2196C67.2091 8.52415 68.031 11.2336 68.031 14.0052C68.0268 17.7207 66.5491 21.2827 63.9219 23.9099C61.2947 26.5371 57.7326 28.0149 54.0172 28.019V28.019ZM54.0172 4.97933C52.2146 4.97933 50.4525 5.51386 48.9537 6.51534C47.4548 7.51681 46.2867 8.94024 45.5968 10.6056C44.907 12.271 44.7265 14.1036 45.0782 15.8715C45.4299 17.6395 46.2979 19.2635 47.5725 20.5381C48.8472 21.8128 50.4711 22.6808 52.2391 23.0325C54.0071 23.3842 55.8396 23.2037 57.505 22.5138C59.1704 21.824 60.5939 20.6558 61.5953 19.157C62.5968 17.6582 63.1313 15.8961 63.1313 14.0935C63.1272 11.6775 62.1657 9.36168 60.4573 7.65334C58.749 5.945 56.4332 4.98344 54.0172 4.97933V4.97933Z" fill="#A1A1AA" />
    <path d="M113.934 89.9634H109.376C107.417 89.9664 105.478 89.5543 103.689 88.7542C101.9 87.9542 100.3 86.7843 98.9959 85.3215C97.696 83.8457 96.7171 82.1158 96.1215 80.2415C95.5258 78.3672 95.3263 76.3895 95.5357 74.4341C95.8954 71.3634 97.2696 68.5006 99.4404 66.2993C101.611 64.098 104.455 62.6842 107.52 62.2819C109.636 61.9877 111.792 62.1934 113.815 62.8823C115.837 63.5712 117.67 64.7242 119.167 66.249L115.707 69.7939C114.728 68.8316 113.543 68.1039 112.243 67.6655C110.942 67.2271 109.558 67.0894 108.197 67.2628C106.221 67.5196 104.39 68.4334 102.997 69.8572C101.604 71.2809 100.73 73.1319 100.517 75.1123C100.378 76.3681 100.501 77.6392 100.878 78.8451C101.256 80.0509 101.88 81.1652 102.71 82.1174C103.545 83.0591 104.572 83.8102 105.723 84.3198C106.873 84.8294 108.12 85.0855 109.378 85.0707H111.909L115.024 81.9565V76.2074H106.837V71.2282H120.003V83.9721L113.934 89.9634Z" fill="#A1A1AA" />
    <path d="M117.307 57.4721H100.091V32.8286H117.307V37.8078H104.986V52.4929H117.307V57.4721Z" fill="#A1A1AA" />
    <path d="M109.882 40.0862H102.54V45.0654H109.882V40.0862Z" fill="#A1A1AA" />
    <path d="M105.323 4.13477H100.344V26.3302H105.323V4.13477Z" fill="#A1A1AA" />
    <path d="M12.6589 65.9961H7.67969V88.2763H12.6589V65.9961Z" fill="#A1A1AA" />
    <path d="M25.8249 63.6331H20.8457V88.2765H25.8249V63.6331Z" fill="#A1A1AA" />
    <path d="M48.0202 63.6331H43.041V88.2765H48.0202V63.6331Z" fill="#A1A1AA" />
    <path d="M58.6535 63.6331H53.6743V88.2765H58.6535V63.6331Z" fill="#A1A1AA" />
    <path d="M17.8078 63.5481H2.36328V68.5273H17.8078V63.5481Z" fill="#A1A1AA" />
    <path d="M28.1884 57.3871H23.2075L17.9757 44.8975L12.7439 57.3871H7.67989L0 33.5879L4.72662 32.0688L10.4653 49.9598L15.5293 37.8076H20.339L25.403 49.9598L31.2265 32.0688L35.8683 33.5879L28.1884 57.3871Z" fill="#A1A1AA" fill-opacity="0.5" />
    <path d="M45.4874 74.688H23.292V79.6672H45.4874V74.688Z" fill="#A1A1AA" />
    <path d="M86.0824 90.0481L81.8627 88.2765V73.1693L71.7347 89.2886L67.1776 87.9392V70.3839L65.7434 71.8181L62.2832 68.2732L67.9372 62.8735L72.1569 64.6452V79.4132L82.2848 63.2939L86.8419 64.6434V82.2904L88.4457 80.7714L91.9059 84.2316L86.0824 90.0481Z" fill="#A1A1AA" />
    <path d="M49.0329 59.076C45.8034 58.2963 42.9723 56.3586 41.0765 53.6303C39.1806 50.902 38.3519 47.5729 38.7474 44.2742C39.1429 40.9755 40.7351 37.9367 43.2222 35.7339C45.7093 33.5312 48.9182 32.3176 52.2405 32.3235C55.1489 32.3231 57.9835 33.2384 60.3426 34.9394L61.2716 33.4204L65.8287 34.7699V57.4722H60.8477V43.3788L51.6488 57.9791L49.0329 59.076ZM52.1471 37.3027C50.1847 37.3084 48.2827 37.9823 46.7545 39.2135C45.2263 40.4447 44.1631 42.1598 43.7401 44.0761C43.317 45.9924 43.5593 47.9956 44.427 49.7558C45.2948 51.516 46.7362 52.928 48.5139 53.7594L57.628 39.2439C56.0844 37.9756 54.1449 37.2887 52.1471 37.3027V37.3027Z" fill="#A1A1AA" />
    <path d="M76.7995 35.3613H71.8203V57.5567H76.7995V35.3613Z" fill="#A1A1AA" />
    <path d="M83.8895 48.1033H71.8203V32.9131H83.8895C85.9038 32.9131 87.8357 33.7133 89.26 35.1376C90.6844 36.562 91.4846 38.4939 91.4846 40.5082C91.4846 42.5226 90.6844 44.4544 89.26 45.8788C87.8357 47.3031 85.9038 48.1033 83.8895 48.1033ZM76.7165 43.2089H83.8895C84.6057 43.2089 85.2927 42.9243 85.7991 42.4179C86.3056 41.9114 86.5901 41.2245 86.5901 40.5082C86.5901 39.7919 86.3056 39.105 85.7991 38.5985C85.2927 38.0921 84.6057 37.8075 83.8895 37.8075H76.7148L76.7165 43.2089Z" fill="#A1A1AA" />
    <path d="M86.9889 42.3976L82.7373 44.9893L91.1272 58.753L95.3788 56.1614L86.9889 42.3976Z" fill="#A1A1AA" />
    <path d="M141.107 8.94604H123.806V13.9253H141.107V8.94604Z" fill="#A1A1AA" />
    <path d="M30.2971 6.75115C30.0411 6.14931 29.6683 5.6042 29.2003 5.14735C28.4566 4.49561 27.4868 4.16198 26.4996 4.21829C26.0633 4.1595 25.6195 4.19347 25.1972 4.31799C24.7749 4.4425 24.3837 4.65476 24.0491 4.94087C23.7144 5.22698 23.444 5.5805 23.2554 5.97831C23.0668 6.37612 22.9643 6.80927 22.9546 7.24942C22.9546 8.00893 23.2072 9.3584 25.6553 10.2875L28.1864 11.2996C32.8283 13.156 34.0947 15.8566 34.0947 18.7269C34.1442 19.804 33.9685 20.8796 33.5788 21.885C33.1892 22.8904 32.5941 23.8035 31.8317 24.5659C31.0692 25.3283 30.1562 25.9234 29.1508 26.313C28.1454 26.7027 27.0698 26.8784 25.9927 26.8289C24.8794 26.891 23.7668 26.6949 22.7419 26.2558C21.7169 25.8167 20.8074 25.1466 20.0844 24.2978C18.8162 22.9671 18.042 21.2422 17.8906 19.4103L21.6968 18.566C21.6698 19.7315 22.0586 20.8686 22.7937 21.7736C23.3456 22.4403 24.0903 22.9201 24.9256 23.147C25.7608 23.374 26.6459 23.337 27.4593 23.0412C28.2728 22.7455 28.9748 22.2053 29.4693 21.4949C29.9637 20.7844 30.2263 19.9384 30.221 19.0729C30.1605 18.0596 29.774 17.093 29.1192 16.3173C28.4645 15.5416 27.5765 14.9983 26.5878 14.7684L24.1363 13.7563C22.716 13.3584 21.4559 12.526 20.5326 11.3759C19.6092 10.2258 19.069 8.81551 18.9875 7.34284C19.0035 6.41376 19.2096 5.4978 19.593 4.65139C19.9765 3.80498 20.5292 3.04604 21.2171 2.42136C21.905 1.79667 22.7135 1.31946 23.5928 1.01912C24.4722 0.718788 25.4037 0.601693 26.33 0.675053C28.1659 0.594236 29.9666 1.19573 31.3854 2.36363C32.2016 3.063 32.8627 3.92511 33.3265 4.89476L30.2971 6.75115Z" fill="#A1A1AA" />
    <path d="M25.9931 27.2597C24.8149 27.3166 23.6394 27.1028 22.5567 26.6346C21.474 26.1664 20.513 25.4564 19.7475 24.559C18.4324 23.1548 17.6555 21.3313 17.5537 19.4102V19.0642L22.1956 18.0521V18.559C22.1682 19.6329 22.5273 20.6809 23.2077 21.5123C23.55 21.9638 23.999 22.3234 24.5144 22.5589C25.0297 22.7944 25.5955 22.8985 26.1609 22.8618C26.6605 22.8764 27.1576 22.7872 27.6209 22.5998C28.0842 22.4125 28.5035 22.131 28.8525 21.7733C29.2014 21.4156 29.4724 20.9893 29.6481 20.5215C29.8239 20.0537 29.9007 19.5546 29.8737 19.0556C29.8737 16.777 28.2699 15.848 26.4983 15.0884L24.0519 14.0936C20.507 12.5746 18.6506 10.2874 18.6506 7.34627C18.6622 6.36033 18.8763 5.38729 19.2794 4.48745C19.6825 3.58762 20.2661 2.78016 20.9941 2.11512C21.7221 1.45009 22.5789 0.941648 23.5114 0.621313C24.4439 0.300978 25.4323 0.175575 26.4153 0.252876C28.3469 0.174777 30.2406 0.804776 31.7405 2.02449C32.5787 2.79017 33.2659 3.70623 33.7664 4.72517L34.019 5.07119L30.128 7.34627L29.955 6.92412C29.7171 6.38309 29.3729 5.89537 28.9429 5.48987C28.2669 4.90219 27.3894 4.59954 26.4948 4.64559C24.5537 4.64559 23.3807 5.65769 23.3807 7.26149C23.3807 7.68363 23.3807 8.95006 25.8288 9.96217L28.3599 10.9743C32.5796 12.6628 34.5208 15.194 34.5208 18.7389C34.5803 19.8742 34.4005 21.0093 33.993 22.0705C33.5854 23.1318 32.9592 24.0954 32.155 24.8989C31.3509 25.7025 30.3867 26.3279 29.3251 26.7346C28.2635 27.1413 27.1283 27.3202 25.9931 27.2597V27.2597ZM18.398 19.7493C18.5633 21.3561 19.2443 22.8662 20.3392 24.0538C21.0354 24.8572 21.9081 25.4885 22.889 25.8985C23.8698 26.3085 24.9323 26.486 25.9931 26.4171C27.0157 26.4704 28.038 26.3082 28.9939 25.9411C29.9498 25.5739 30.8179 25.0101 31.542 24.2861C32.266 23.562 32.8298 22.6939 33.197 21.738C33.5641 20.7821 33.7263 19.7598 33.673 18.7372C33.673 16.7113 33.083 13.758 28.0191 11.7321L25.4879 10.72C23.5468 9.96044 22.5347 8.77878 22.5347 7.25976C22.5462 6.76466 22.6607 6.27738 22.8709 5.82898C23.0811 5.38057 23.3824 4.98087 23.7556 4.65534C24.1288 4.32982 24.5658 4.0856 25.0386 3.93826C25.5114 3.79093 26.0097 3.74369 26.5018 3.79957C27.5757 3.77217 28.6237 4.13134 29.455 4.81168C29.8657 5.22292 30.2333 5.67509 30.5519 6.16115L32.9152 4.7269C32.4732 3.93316 31.9006 3.21959 31.2215 2.61619C29.8723 1.50411 28.1584 0.932578 26.4118 1.01239C25.5403 0.935183 24.6621 1.03865 23.8324 1.3163C23.0027 1.59396 22.2391 2.03984 21.5896 2.62606C20.9401 3.21228 20.4185 3.92621 20.0574 4.72322C19.6964 5.52023 19.5037 6.38316 19.4914 7.25803C19.4914 9.95871 21.0952 11.8999 24.3859 13.2494L26.8339 14.2615C27.8951 14.5424 28.8411 15.15 29.5378 15.9983C30.2346 16.8466 30.6468 17.8925 30.7163 18.9881C30.7418 19.5973 30.642 20.2052 30.4231 20.7743C30.2042 21.3434 29.8709 21.8615 29.4437 22.2966C29.0166 22.7317 28.5047 23.0745 27.9397 23.3039C27.3748 23.5332 26.7688 23.6442 26.1592 23.6299C25.4646 23.6463 24.7756 23.5026 24.1455 23.2097C23.5154 22.9169 22.9613 22.4829 22.526 21.9414C21.9032 21.0726 21.5244 20.0528 21.4291 18.9881L18.398 19.7493Z" fill="#A1A1AA" />
    <path d="M137.732 69.204C137.476 68.6022 137.103 68.0571 136.635 67.6002C135.891 66.9485 134.922 66.6149 133.934 66.6712C133.497 66.6123 133.053 66.6465 132.63 66.7714C132.208 66.8963 131.816 67.1092 131.481 67.3961C131.147 67.6829 130.876 68.0373 130.688 68.4359C130.5 68.8346 130.398 69.2685 130.389 69.7092C130.389 70.4687 130.642 71.8182 133.09 72.7473L135.621 73.7594C140.263 75.6158 141.529 78.3164 141.529 81.1867C141.579 82.2638 141.403 83.3394 141.014 84.3448C140.624 85.3502 140.029 86.2633 139.266 87.0257C138.504 87.7881 137.591 88.3832 136.586 88.7728C135.58 89.1625 134.505 89.3382 133.427 89.2887C132.314 89.3508 131.202 89.1547 130.177 88.7156C129.152 88.2765 128.242 87.6064 127.519 86.7576C126.305 85.3974 125.565 83.6799 125.41 81.8631L129.216 81.0188C129.189 82.1844 129.578 83.3215 130.313 84.2264C130.865 84.8932 131.61 85.373 132.445 85.5999C133.28 85.8269 134.165 85.7899 134.979 85.4941C135.792 85.1983 136.494 84.6582 136.989 83.9477C137.483 83.2373 137.746 82.3913 137.741 81.5258C137.68 80.5125 137.294 79.5459 136.639 78.7702C135.984 77.9945 135.096 77.4511 134.107 77.2213L131.659 76.2092C130.239 75.8113 128.979 74.9789 128.056 73.8288C127.132 72.6786 126.592 71.2684 126.51 69.7957C126.526 68.8666 126.733 67.9507 127.116 67.1043C127.499 66.2579 128.052 65.4989 128.74 64.8742C129.428 64.2496 130.236 63.7723 131.116 63.472C131.995 63.1717 132.927 63.0546 133.853 63.1279C135.692 63.045 137.496 63.6466 138.917 64.8165C139.733 65.5159 140.394 66.378 140.858 67.3476L137.732 69.204Z" fill="#A1A1AA" />
    <path d="M133.427 89.7123C132.249 89.7692 131.073 89.5554 129.991 89.0872C128.908 88.619 127.947 87.909 127.182 87.0116C125.867 85.6074 125.09 83.7839 124.988 81.8628V81.5168L129.63 80.5047V81.0116C129.602 82.0855 129.961 83.1335 130.642 83.9649C130.984 84.4164 131.433 84.776 131.948 85.0115C132.464 85.247 133.03 85.3511 133.595 85.3144C134.095 85.329 134.592 85.2398 135.055 85.0524C135.518 84.8651 135.938 84.5836 136.287 84.2259C136.636 83.8682 136.906 83.4419 137.082 82.9741C137.258 82.5063 137.335 82.0072 137.308 81.5082C137.308 79.2296 135.704 78.3006 133.932 77.541L131.484 76.5289C127.939 75.0099 126.083 72.7227 126.083 69.7816C126.095 68.7956 126.309 67.8226 126.712 66.9227C127.115 66.0229 127.698 65.2155 128.426 64.5504C129.154 63.8854 130.011 63.377 130.944 63.0566C131.876 62.7363 132.865 62.6109 133.848 62.6882C135.776 62.6122 137.667 63.2421 139.164 64.4598C140.002 65.2255 140.69 66.1415 141.19 67.1605L141.363 67.5065L137.477 69.7989L137.304 69.3767C137.066 68.8357 136.722 68.348 136.292 67.9425C135.616 67.3548 134.739 67.0521 133.844 67.0982C131.903 67.0982 130.73 68.1103 130.73 69.7141C130.73 70.1362 130.73 71.4027 133.178 72.4148L135.709 73.4269C139.929 75.1155 141.87 77.6466 141.87 81.1915C141.932 82.3202 141.757 83.4493 141.356 84.506C140.954 85.5627 140.336 86.5236 139.54 87.3265C138.745 88.1294 137.79 88.7566 136.737 89.1675C135.684 89.5785 134.556 89.7641 133.427 89.7123V89.7123ZM125.747 82.2019C125.912 83.8088 126.593 85.3189 127.688 86.5064C128.385 87.3098 129.257 87.9411 130.238 88.3511C131.219 88.7611 132.282 88.9386 133.342 88.8697C134.365 88.923 135.387 88.7608 136.343 88.3937C137.299 88.0265 138.167 87.4627 138.891 86.7387C139.615 86.0146 140.179 85.1465 140.546 84.1906C140.913 83.2347 141.076 82.2124 141.022 81.1898C141.022 79.1639 140.432 76.2106 135.368 74.1847L132.837 73.1726C130.896 72.413 129.884 71.2314 129.884 69.7124C129.895 69.2173 130.01 68.73 130.22 68.2816C130.43 67.8332 130.732 67.4335 131.105 67.108C131.478 66.7824 131.915 66.5382 132.388 66.3909C132.861 66.2435 133.359 66.1963 133.851 66.2522C134.925 66.2248 135.973 66.5839 136.804 67.2643C137.215 67.6755 137.583 68.1277 137.901 68.6137L140.265 67.2643C139.824 66.4715 139.253 65.7586 138.576 65.1553C137.227 64.0432 135.513 63.4717 133.766 63.5515C132.895 63.4743 132.017 63.5777 131.187 63.8554C130.357 64.1331 129.594 64.579 128.944 65.1652C128.295 65.7514 127.773 66.4653 127.412 67.2623C127.051 68.0593 126.858 68.9223 126.846 69.7971C126.846 72.4978 128.45 74.439 131.74 75.7885L134.188 76.8006C135.25 77.0815 136.196 77.6891 136.892 78.5374C137.589 79.3857 138.001 80.4316 138.071 81.5272C138.096 82.1364 137.996 82.7443 137.778 83.3134C137.559 83.8825 137.225 84.4006 136.798 84.8357C136.371 85.2708 135.859 85.6137 135.294 85.843C134.729 86.0723 134.123 86.1833 133.514 86.169C132.819 86.1854 132.13 86.0417 131.5 85.7488C130.87 85.456 130.316 85.022 129.88 84.4805C129.258 83.6117 128.879 82.5919 128.784 81.5272L125.747 82.2019Z" fill="#A1A1AA" />
  </g>
  <defs>
    <clipPath id="clip0_225_13">
      <rect width="141.868" height="90.048" fill="#A1A1AA" />
    </clipPath>
  </defs>
</svg>
