<svg width="533" height="120" viewBox="0 0 533 120" fill="none" xmlns="http://www.w3.org/2000/svg">
  <g clip-path="url(#clip0_224_19)">
    <path d="M266.85 30C246.15 30 231.224 43.5 231.224 63.75C231.224 84 248.006 97.5 268.726 97.5C281.231 97.5 292.256 92.55 299.081 84.2063L284.737 75.9187C280.95 80.0626 275.194 82.4813 268.726 82.4813C259.744 82.4813 252.113 77.7937 249.281 70.2937H301.819C302.231 68.1937 302.476 66.0187 302.476 63.7313C302.476 43.5 287.569 30 266.85 30ZM249.131 57.1874C251.474 49.7063 257.887 45 266.85 45C275.831 45 282.244 49.7063 284.569 57.1874H249.131ZM244.894 9.375L192.937 99.375L140.963 9.375H160.444L192.919 65.625L225.394 9.375H244.894ZM69.2813 0L138.563 120H0L69.2813 0ZM377.85 63.75C377.85 75 385.2 82.5 396.6 82.5C404.326 82.5 410.119 78.9937 413.1 73.275L427.5 81.5813C421.537 91.5187 410.363 97.5 396.6 97.5C375.881 97.5 360.976 84 360.976 63.75C360.976 43.5 375.9 30 396.6 30C410.363 30 421.519 35.9813 427.5 45.9187L413.1 54.225C410.119 48.5063 404.326 45 396.6 45C385.219 45 377.85 52.5 377.85 63.75ZM532.5 9.375V95.625H515.626V9.375H532.5ZM468.75 30C448.05 30 433.126 43.5 433.126 63.75C433.126 84 449.926 97.5 470.626 97.5C483.131 97.5 494.156 92.55 500.981 84.2063L486.637 75.9187C482.85 80.0626 477.094 82.4813 470.626 82.4813C461.644 82.4813 454.013 77.7937 451.181 70.2937H503.719C504.131 68.1937 504.374 66.0187 504.374 63.7313C504.374 43.5 489.469 30 468.75 30ZM451.031 57.1874C453.376 49.7063 459.769 45 468.75 45C477.731 45 484.144 49.7063 486.469 57.1874H451.031ZM355.35 31.875V50.0437C353.476 49.5 351.487 49.125 349.35 49.125C338.456 49.125 330.6 56.625 330.6 67.875V95.625H313.726V31.875H330.6V49.125C330.6 39.6 341.681 31.875 355.35 31.875Z" fill="#A1A1AA" />
  </g>
  <defs>
    <clipPath id="clip0_224_19">
      <rect width="532.56" height="120" fill="#A1A1AA" />
    </clipPath>
  </defs>
</svg>
