<svg width="642" height="134" viewBox="0 0 642 134" fill="none" xmlns="http://www.w3.org/2000/svg">
  <path d="M454.621 58.8379H447.222V67.4487H454.621V92.5789H464.954V67.4487H473.815V58.8379H464.954V56.9887C464.954 55.7135 465.358 54.7672 466.165 54.1502C466.973 53.5333 468.164 53.225 469.736 53.225C470.385 53.2237 471.035 53.2553 471.681 53.3207C472.397 53.4015 473.112 53.5188 473.815 53.672V45.1249C472.968 44.9251 472.102 44.7758 471.233 44.6788C470.271 44.5562 469.301 44.4921 468.33 44.4873C463.908 44.4873 460.518 45.5504 458.16 47.6762C455.798 49.802 454.621 52.8425 454.621 56.7973V58.8379Z" fill="#A1A1AA" />
  <path d="M274.818 85.754L280.941 77.7812C283.216 79.6998 285.75 81.289 288.468 82.5014C290.79 83.4762 293.284 83.9751 295.802 83.9681C298.311 83.9681 300.278 83.5851 301.702 82.8198C303.126 82.0548 303.838 80.9917 303.839 79.6308C303.862 79.0701 303.742 78.5128 303.491 78.0109C303.24 77.509 302.867 77.0786 302.404 76.7607C301.447 76.0809 299.863 75.5496 297.652 75.1663L287.83 73.444C284.215 72.806 281.43 71.4245 279.474 69.2987C277.518 67.1724 276.54 64.4723 276.54 61.1977C276.54 56.9039 278.167 53.5126 281.42 51.0245C284.672 48.5373 289.148 47.2937 294.846 47.2937C298.266 47.3113 301.66 47.8931 304.891 49.0155C308.046 50.0422 310.993 51.6186 313.598 53.672L307.794 61.7721C305.72 60.099 303.41 58.7443 300.937 57.7536C298.749 56.9118 296.425 56.4797 294.081 56.4784C291.869 56.4784 290.115 56.8293 288.819 57.5306C287.52 58.2319 286.872 59.1782 286.873 60.3691C286.851 60.8688 286.953 61.3659 287.171 61.8169C287.387 62.2674 287.712 62.6574 288.117 62.952C288.946 63.569 290.296 64.0261 292.167 64.3234L301.415 65.8542C305.71 66.5348 308.973 67.9593 311.206 70.1273C313.438 72.2957 314.554 75.1021 314.554 78.5466C314.554 83.0542 312.8 86.6261 309.292 89.2621C305.785 91.8991 301.012 93.2173 294.973 93.2165C291.322 93.2024 287.704 92.5327 284.29 91.2391C280.836 89.9784 277.631 88.1217 274.818 85.754Z" fill="#A1A1AA" />
  <path d="M158.226 92.5789L140.176 47.9314H152.039L164.732 81.1617L177.68 47.9314H189.097L170.791 92.5789H158.226Z" fill="#A1A1AA" />
  <path d="M198.728 58.8379V78.2279C198.681 79.0442 198.808 79.861 199.099 80.6251C199.39 81.3891 199.84 82.0829 200.418 82.6608C200.996 83.2392 201.69 83.6884 202.454 83.9795C203.218 84.2711 204.034 84.3976 204.851 84.351C206.057 84.3743 207.254 84.1345 208.359 83.6493C209.354 83.2018 210.228 82.5243 210.91 81.6724V58.8379H221.243V92.5789H210.91V90.2827C209.648 91.233 208.236 91.9659 206.732 92.4511C205.157 92.9649 203.51 93.2235 201.853 93.2165C197.899 93.2165 194.667 91.9413 192.158 89.39C189.649 86.8382 188.395 83.5852 188.395 79.6309V58.8379H198.728Z" fill="#A1A1AA" />
  <path fill-rule="evenodd" clip-rule="evenodd" d="M252.017 92.005C254.408 91.103 256.622 89.7861 258.555 88.1139L251.73 82.0549C250.894 82.8804 249.895 83.5216 248.795 83.9361C247.573 84.3963 246.275 84.6233 244.969 84.6058C243.154 84.6479 241.37 84.1245 239.866 83.1075C238.456 82.1524 237.35 80.813 236.677 79.2484H260.723V76.6967C260.744 74.1845 260.312 71.6894 259.447 69.3304C258.666 67.1699 257.462 65.1859 255.907 63.4944C254.346 61.8231 252.453 60.4952 250.35 59.5946C248.248 58.6943 245.981 58.2412 243.694 58.264C241.321 58.2456 238.968 58.7014 236.773 59.6033C234.687 60.4557 232.79 61.7133 231.192 63.3025C229.6 64.9044 228.333 66.7997 227.461 68.8838C226.542 71.0522 226.075 73.3853 226.089 75.7403C226.076 78.1019 226.565 80.4389 227.524 82.5972C228.445 84.6932 229.767 86.5893 231.415 88.178C233.099 89.7817 235.082 91.0385 237.251 91.8772C239.547 92.7783 241.993 93.2328 244.459 93.2166C247.029 93.2552 249.587 92.8451 252.017 92.005ZM239.101 68.0868C240.369 67.1396 241.919 66.6451 243.502 66.6833C245.084 66.6574 246.626 67.1756 247.871 68.1505C249.14 69.1503 250.083 70.5046 250.582 72.0411H236.485C236.907 70.4747 237.824 69.0871 239.101 68.0868Z" fill="#A1A1AA" />
  <path d="M322.591 67.4487V82.3096C322.591 85.8393 323.622 88.5078 325.684 90.3144C327.746 92.1218 330.797 93.0251 334.837 93.0251C336.054 93.0071 337.269 92.9114 338.473 92.7383C339.683 92.5965 340.878 92.351 342.045 92.005V83.6493C341.273 83.8869 340.484 84.0683 339.685 84.1917C338.925 84.3006 338.157 84.3541 337.389 84.3511C335.73 84.3515 334.571 84.0428 333.913 83.4258C333.254 82.8102 332.924 81.7576 332.924 80.269V67.4487H342.364V58.8379H332.924V47.9314L322.591 50.1639V58.8379H315.767V67.4487H322.591Z" fill="#A1A1AA" />
  <path fill-rule="evenodd" clip-rule="evenodd" d="M344.851 75.7403C344.838 73.3787 345.327 71.0417 346.286 68.8838C347.208 66.7874 348.529 64.8917 350.177 63.3025C351.857 61.7019 353.827 60.4355 355.981 59.5717C360.59 57.7437 365.723 57.7437 370.332 59.5717C372.486 60.4359 374.456 61.7019 376.136 63.3025C377.784 64.8922 379.106 66.7879 380.027 68.8838C380.974 71.0456 381.463 73.38 381.463 75.7403C381.463 78.1006 380.974 80.435 380.027 82.5972C379.106 84.6932 377.785 86.5893 376.136 88.1781C374.46 89.7765 372.488 91.0328 370.332 91.8772C365.715 93.6632 360.598 93.6632 355.981 91.8772C353.824 91.0332 351.853 89.7765 350.177 88.1781C348.529 86.5893 347.207 84.6936 346.286 82.5972C345.327 80.4389 344.838 78.1019 344.851 75.7403ZM363.157 84.2874C364.25 84.3054 365.334 84.0933 366.34 83.6647C367.345 83.2357 368.249 82.6003 368.993 81.7993C370.531 80.1438 371.385 77.968 371.385 75.7082C371.385 73.4489 370.531 71.2731 368.993 69.6171C368.238 68.8311 367.332 68.2054 366.329 67.7777C365.326 67.3504 364.247 67.1299 363.157 67.1299C362.067 67.1299 360.988 67.3504 359.985 67.7777C358.982 68.2054 358.075 68.8311 357.321 69.6171C355.783 71.2731 354.929 73.4489 354.929 75.7082C354.929 77.968 355.783 80.1438 357.321 81.7993C358.065 82.6003 358.968 83.2357 359.974 83.6647C360.979 84.0933 362.064 84.3054 363.157 84.2874Z" fill="#A1A1AA" />
  <path d="M386.309 58.8378V92.5789H396.642V71.1478C397.479 69.8423 398.63 68.7678 399.99 68.0226C401.365 67.2585 402.915 66.8633 404.487 66.8747C405.367 66.8734 406.244 66.9696 407.102 67.1614C407.889 67.3327 408.657 67.5786 409.398 67.8952V58.9015C408.938 58.5911 408.416 58.3842 407.868 58.2955C407.087 58.1717 406.298 58.0975 405.508 58.0729C403.788 58.0487 402.086 58.4198 400.532 59.1571C399.033 59.8895 397.707 60.9329 396.642 62.2182V58.8378H386.309Z" fill="#A1A1AA" />
  <path fill-rule="evenodd" clip-rule="evenodd" d="M443.52 88.114C441.588 89.7861 439.375 91.1031 436.985 92.005C434.555 92.8451 431.997 93.2552 429.426 93.2166C426.96 93.2328 424.514 92.7783 422.219 91.8773C420.05 91.0385 418.067 89.7818 416.383 88.1781C414.734 86.5893 413.412 84.6932 412.491 82.5972C411.533 80.4389 411.043 78.1019 411.057 75.7403C411.042 73.3853 411.509 71.0518 412.428 68.8838C413.3 66.8002 414.567 64.9049 416.159 63.3026C417.757 61.7134 419.654 60.4561 421.74 59.6034C423.935 58.7014 426.288 58.246 428.661 58.264C430.948 58.2408 433.215 58.6939 435.318 59.5946C437.42 60.4948 439.313 61.8231 440.877 63.4944C442.431 65.186 443.634 67.1699 444.416 69.3304C445.281 71.6894 445.711 74.1849 445.689 76.6967V79.2485H421.644C422.317 80.8131 423.424 82.152 424.833 83.1075C426.338 84.1245 428.121 84.648 429.936 84.6058C431.242 84.6234 432.54 84.3963 433.762 83.9361C434.862 83.5216 435.861 82.8805 436.697 82.0549L443.52 88.114ZM428.469 66.6834C426.886 66.6456 425.337 67.1396 424.068 68.0868C422.791 69.0871 421.873 70.4748 421.453 72.0411H435.549C435.05 70.5046 434.107 69.1504 432.838 68.1505C431.593 67.1752 430.05 66.6575 428.469 66.6834Z" fill="#A1A1AA" />
  <path d="M478.154 92.5789V58.8378H488.486V62.2182C489.553 60.9329 490.88 59.8895 492.377 59.1571C493.932 58.4198 495.635 58.0487 497.352 58.0729C498.143 58.0975 498.933 58.1717 499.715 58.2955C500.259 58.3842 500.782 58.5911 501.243 58.9015V67.8952C500.501 67.5786 499.732 67.3327 498.946 67.1614C498.09 66.9696 497.212 66.8734 496.334 66.8747C494.762 66.8633 493.211 67.2585 491.837 68.0226C490.476 68.7678 489.325 69.8423 488.486 71.1478V92.5789H478.154Z" fill="#A1A1AA" />
  <path fill-rule="evenodd" clip-rule="evenodd" d="M504.335 68.8838C503.377 71.0417 502.89 73.3791 502.903 75.7403C502.89 78.1019 503.377 80.4389 504.335 82.5972C505.257 84.6932 506.579 86.5893 508.23 88.1781C509.903 89.7765 511.874 91.0328 514.03 91.8772C518.65 93.6632 523.766 93.6632 528.381 91.8772C530.542 91.0328 532.513 89.776 534.186 88.1781C535.837 86.5889 537.155 84.6932 538.077 82.5972C539.025 80.435 539.513 78.1006 539.513 75.7403C539.513 73.38 539.025 71.0456 538.077 68.8838C537.155 66.7879 535.833 64.8926 534.186 63.3025C532.509 61.7024 530.537 60.4359 528.381 59.5717C523.775 57.7437 518.641 57.7437 514.03 59.5717C511.879 60.4359 509.907 61.7019 508.23 63.3025C506.579 64.8922 505.257 66.7879 504.335 68.8838ZM524.389 83.6647C523.384 84.0933 522.299 84.3054 521.206 84.2874C520.112 84.3054 519.032 84.0933 518.027 83.6647C517.021 83.2362 516.116 82.6007 515.37 81.7993C513.833 80.1438 512.981 77.968 512.981 75.7082C512.981 73.4489 513.833 71.2731 515.37 69.6171C516.125 68.8311 517.034 68.2054 518.035 67.7777C519.037 67.3504 520.117 67.1299 521.206 67.1299C522.299 67.1299 523.375 67.3504 524.381 67.7777C525.382 68.2054 526.286 68.8311 527.042 69.6171C528.583 71.2731 529.435 73.4489 529.435 75.7082C529.435 77.968 528.583 80.1438 527.042 81.7993C526.3 82.6007 525.395 83.2362 524.389 83.6647Z" fill="#A1A1AA" />
  <path d="M544.361 58.838H554.693V61.1342C555.954 60.1839 557.368 59.451 558.869 58.9658C560.446 58.452 562.093 58.1938 563.748 58.2008C567.705 58.2008 570.937 59.476 573.444 62.0274C575.951 64.5787 577.207 67.8313 577.207 71.786V92.579H566.875V73.1895C566.923 72.3731 566.796 71.5564 566.506 70.7923C566.212 70.0282 565.764 69.3344 565.184 68.7565C564.609 68.1782 563.915 67.729 563.151 67.4374C562.387 67.1462 561.57 67.0198 560.753 67.0663C559.546 67.0435 558.347 67.2828 557.245 67.7676C556.248 68.2155 555.374 68.8935 554.693 69.745V92.579H544.361V58.838Z" fill="#A1A1AA" />
  <path d="M586.842 67.4487V82.3096C586.837 85.8393 587.869 88.5078 589.933 90.3144C591.993 92.1218 595.044 93.0251 599.084 93.0251C600.301 93.0071 601.517 92.9114 602.72 92.7383C603.928 92.5965 605.127 92.351 606.29 92.0046V83.6493C605.522 83.8869 604.732 84.0683 603.932 84.1917C603.173 84.3006 602.404 84.3541 601.636 84.3511C599.98 84.3511 598.821 84.0428 598.158 83.4258C597.499 82.8102 597.17 81.7576 597.17 80.269V67.4487H606.611V58.8379H597.17V47.9314L586.842 50.1639V58.8379H580.013V67.4487H586.842Z" fill="#A1A1AA" />
  <path d="M69.9161 30.7053C69.2263 31.1341 68.5496 31.8108 67.1962 33.1641C65.8432 34.5173 65.1661 35.1942 64.7375 35.8837C63.3183 38.166 63.3183 41.0563 64.7375 43.3387C65.1661 44.0283 65.8428 44.7046 67.1953 46.0575L67.1962 46.058C68.5496 47.4114 69.2263 48.088 69.9161 48.5171C72.1983 49.9363 75.0886 49.9363 77.3707 48.5171C78.0606 48.088 78.7373 47.4118 80.0906 46.0584C81.444 44.705 82.1203 44.0283 82.5493 43.3387C83.9686 41.0563 83.9686 38.166 82.5493 35.8837C82.1203 35.1941 81.444 34.5175 80.0906 33.1641C78.7373 31.8108 78.0606 31.1341 77.3707 30.7053C75.0886 29.2861 72.1983 29.2861 69.9161 30.7053Z" fill="#A1A1AA" />
  <path d="M78.8197 73.0445L94.5667 57.2971C95.2192 56.645 95.9939 56.1273 96.8462 55.7742C97.6985 55.4211 98.6124 55.2393 99.535 55.2393C100.458 55.2393 101.371 55.4211 102.224 55.7742C103.076 56.1273 103.851 56.645 104.503 57.2971L112.416 65.2101C112.368 65.2575 73.7728 103.853 73.7728 103.853L35.1299 65.2101C35.2347 65.1056 39.513 60.8272 43.126 57.2141C43.778 56.562 44.5522 56.0447 45.4041 55.6916C46.2564 55.339 47.1694 55.1572 48.0915 55.1572C49.0137 55.1572 49.9271 55.339 50.779 55.6921C51.6309 56.0451 52.405 56.5624 53.0571 57.215L68.8871 73.045C69.5392 73.6971 70.3139 74.2144 71.1658 74.5674C72.0181 74.9205 72.931 75.1018 73.8536 75.1018C74.7758 75.1018 75.6892 74.92 76.5411 74.567C77.3934 74.2139 78.1676 73.6966 78.8197 73.0445Z" fill="#A1A1AA" />
</svg>
