<svg width="115" height="28" viewBox="0 0 115 28" fill="none" xmlns="http://www.w3.org/2000/svg">
<path d="M23.2258 27.4948H38.6159C39.1047 27.4949 39.585 27.3701 40.0083 27.133C40.4316 26.8959 40.7831 26.5548 41.0274 26.1442C41.2717 25.7335 41.4002 25.2676 41.4 24.7935C41.3998 24.3193 41.2709 23.8536 41.0262 23.4431L30.6906 6.07845C30.4463 5.66787 30.0949 5.32691 29.6717 5.08985C29.2484 4.85279 28.7683 4.72799 28.2796 4.72799C27.7908 4.72799 27.3107 4.85279 26.8875 5.08985C26.4643 5.32691 26.1128 5.66787 25.8685 6.07845L23.2258 10.5215L18.0587 1.8333C17.8142 1.42275 17.4627 1.08184 17.0393 0.844825C16.616 0.607808 16.1358 0.483032 15.647 0.483032C15.1581 0.483032 14.6779 0.607808 14.2546 0.844825C13.8313 1.08184 13.4797 1.42275 13.2352 1.8333L0.373819 23.4431C0.129142 23.8536 0.00021295 24.3193 2.6357e-07 24.7935C-0.000212423 25.2676 0.128298 25.7335 0.372607 26.1442C0.616916 26.5548 0.968407 26.8959 1.39173 27.133C1.81505 27.3701 2.29528 27.4949 2.7841 27.4948H12.4447C16.2724 27.4948 19.0951 25.864 21.0375 22.6823L25.7531 14.7608L28.2788 10.5215L35.8592 23.2555H25.7531L23.2258 27.4948ZM12.2873 23.2511L5.54536 23.2496L15.6515 6.27195L20.694 14.7608L17.3178 20.4346C16.0279 22.499 14.5626 23.2511 12.2873 23.2511Z" fill="white"/>
<path d="M52.8185 27.2406V17.1302C52.8185 14.237 52.5173 11.3438 52.5173 11.3438C52.5173 11.3438 53.662 13.9827 55.108 16.4626L61.2836 27.2406H66.1337V4.98511H61.5848V15.0954C61.5848 17.9887 61.8861 20.9137 61.8861 20.9137C61.8861 20.9137 60.7413 18.243 59.3255 15.7631L53.1198 4.98511H48.2998V27.2406H52.8185Z" fill="white"/>
<path d="M80.4648 11.2166V19.9916C80.4648 22.0264 79.1695 23.5525 77.3318 23.5525C75.6147 23.5525 74.4097 22.1536 74.4097 20.2142V11.2166H70.2224V21.1998C70.2224 24.8561 72.4516 27.4949 75.8557 27.4949C77.9343 27.4949 79.6213 26.5411 80.4648 25.015V27.2406H84.6823V11.2166H80.4648Z" fill="white"/>
<path d="M96.9468 18.9107L102.038 11.2166H97.4288L94.6573 15.4452L91.8859 11.2166H87.3069L92.398 18.8789L86.9153 27.2406H91.4039L94.6875 22.3126L97.9409 27.2406H102.399L96.9468 18.9107Z" fill="white"/>
<path d="M106.746 11.2166H103.824V14.9047H106.746V21.4224C106.746 25.1422 109.005 27.2406 112.499 27.2406H115V23.5207H113.072C111.716 23.5207 110.933 22.7895 110.933 21.2316V14.9047H115V11.2166H110.933V6.4794H106.746V11.2166Z" fill="white"/>
</svg>
