<svg width="204" height="35" viewBox="0 0 204 35" fill="none" xmlns="http://www.w3.org/2000/svg">
<path d="M23.3349 30.6668H38.5763C39.0604 30.6669 39.536 30.5406 39.9552 30.3007C40.3745 30.0608 40.7226 29.7157 40.9645 29.3001C41.2064 28.8845 41.3337 28.4132 41.3335 27.9334C41.3333 27.4536 41.2056 26.9823 40.9633 26.5669L30.7276 8.99553C30.4856 8.58006 30.1376 8.23504 29.7185 7.99516C29.2993 7.75528 28.8239 7.62899 28.3398 7.62899C27.8558 7.62899 27.3804 7.75528 26.9612 7.99516C26.5421 8.23504 26.194 8.58006 25.9521 8.99553L23.3349 13.4914L18.2178 4.69984C17.9756 4.2844 17.6274 3.93943 17.2082 3.6996C16.7889 3.45976 16.3134 3.3335 15.8293 3.3335C15.3452 3.3335 14.8696 3.45976 14.4504 3.6996C14.0311 3.93943 13.6829 4.2844 13.4408 4.69984L0.703703 26.5669C0.46139 26.9823 0.333707 27.4536 0.333496 27.9334C0.333286 28.4132 0.460555 28.8845 0.702503 29.3001C0.944451 29.7157 1.29255 30.0608 1.71178 30.3007C2.13101 30.5406 2.6066 30.6669 3.0907 30.6668H12.658C16.4487 30.6668 19.2442 29.0166 21.1677 25.797L25.8377 17.7812L28.3391 13.4914L35.8462 26.377H25.8377L23.3349 30.6668ZM12.502 26.3726L5.82527 26.3711L15.8337 9.19133L20.8276 17.7812L17.484 23.5226C16.2066 25.6115 14.7553 26.3726 12.502 26.3726Z" fill="#00DC82"/>
<path d="M53.1937 30.5557H48.4629V8.4788H63.5067V12.5473H53.1937V17.4673H61.3937V21.5673H53.1937V30.5557Z" fill="#0C0C0D"/>
<path d="M71.9002 18.3188C70.8489 18.3188 70.0604 18.7183 69.5348 19.5173C69.0091 20.3162 68.7463 21.4201 68.7463 22.8288V30.5557H64.3309V14.6603H68.7463V17.3096C69.1668 16.3424 69.6819 15.6591 70.2917 15.2596C70.9225 14.8601 71.7319 14.6603 72.7202 14.6603H74.5178V18.3188H71.9002Z" fill="#0C0C0D"/>
<path d="M82.1186 14.408C83.4432 14.408 84.6312 14.6603 85.6825 15.165C86.7337 15.6485 87.5537 16.3424 88.1425 17.2465C88.7522 18.1296 89.0571 19.1598 89.0571 20.3373V30.5557H84.7048V28.348C84.4314 29.0839 83.8848 29.6832 83.0648 30.1457C82.2658 30.5873 81.3196 30.808 80.2263 30.808C79.2171 30.808 78.313 30.6083 77.514 30.2088C76.7361 29.7883 76.1263 29.2206 75.6848 28.5057C75.2432 27.7698 75.0225 26.9498 75.0225 26.0457C75.0225 24.4898 75.5481 23.2703 76.5994 22.3873C77.6717 21.4832 79.0804 21.0311 80.8255 21.0311H83.5063C83.8848 21.0311 84.1791 20.926 84.3894 20.7157C84.5996 20.4844 84.7048 20.2006 84.7048 19.8642C84.7048 19.1914 84.4525 18.6552 83.9478 18.2557C83.4432 17.8352 82.7494 17.625 81.8663 17.625C80.9622 17.625 80.2473 17.8668 79.7217 18.3503C79.2171 18.8339 78.9437 19.4332 78.9017 20.148H74.9909C75.054 19.0757 75.3799 18.1085 75.9686 17.2465C76.5573 16.3634 77.3773 15.6696 78.4286 15.165C79.4799 14.6603 80.7099 14.408 82.1186 14.408ZM81.3302 27.6227C82.3814 27.6227 83.2014 27.2862 83.7902 26.6134C84.3999 25.9406 84.7048 25.0785 84.7048 24.0273V23.8065H81.4878C80.815 23.8065 80.2684 23.9957 79.8478 24.3742C79.4273 24.7527 79.2171 25.2468 79.2171 25.8565C79.2171 26.3821 79.4168 26.8132 79.8163 27.1496C80.2158 27.465 80.7204 27.6227 81.3302 27.6227Z" fill="#0C0C0D"/>
<path d="M91.4355 30.5557V14.6603H95.8509V16.8996C96.2924 16.1426 96.8917 15.5434 97.6486 15.1019C98.4265 14.6393 99.3306 14.408 100.361 14.408C102.821 14.408 104.44 15.3752 105.218 17.3096C105.617 16.4896 106.29 15.8062 107.236 15.2596C108.203 14.6919 109.297 14.408 110.516 14.408C111.652 14.408 112.65 14.6603 113.512 15.165C114.374 15.6696 115.037 16.3634 115.499 17.2465C115.983 18.1085 116.225 19.0757 116.225 20.148V30.5557H111.841V21.5357C111.841 20.5055 111.578 19.6855 111.052 19.0757C110.548 18.445 109.875 18.1296 109.034 18.1296C108.13 18.1296 107.404 18.445 106.858 19.0757C106.311 19.6855 106.038 20.5055 106.038 21.5357V30.5557H101.622V21.5357C101.622 20.5055 101.37 19.6855 100.866 19.0757C100.361 18.445 99.6881 18.1296 98.8471 18.1296C97.943 18.1296 97.2176 18.445 96.6709 19.0757C96.1242 19.6855 95.8509 20.5055 95.8509 21.5357V30.5557H91.4355Z" fill="#0C0C0D"/>
<path d="M133.719 25.1627C133.404 26.8657 132.552 28.2324 131.164 29.2627C129.777 30.2929 128.105 30.808 126.15 30.808C124.426 30.808 122.943 30.4191 121.703 29.6411C120.483 28.8421 119.558 27.8119 118.927 26.5503C118.297 25.2888 117.981 23.9642 117.981 22.5765C117.981 21.1678 118.265 19.8432 118.833 18.6027C119.422 17.3621 120.305 16.3529 121.482 15.575C122.681 14.797 124.131 14.408 125.834 14.408C127.601 14.408 129.072 14.7865 130.25 15.5434C131.427 16.3003 132.289 17.2675 132.836 18.445C133.404 19.6224 133.687 20.8629 133.687 22.1665C133.687 22.6501 133.666 23.1232 133.624 23.5857H122.207C122.376 24.7211 122.796 25.6147 123.469 26.2665C124.163 26.8973 125.056 27.2127 126.15 27.2127C127.033 27.2127 127.758 27.0444 128.326 26.708C128.894 26.3506 129.262 25.8355 129.43 25.1627H133.719ZM125.834 17.625C124.825 17.625 124.026 17.8878 123.437 18.4134C122.849 18.918 122.46 19.717 122.271 20.8103H129.304C129.241 19.8852 128.904 19.1283 128.294 18.5396C127.685 17.9298 126.865 17.625 125.834 17.625Z" fill="#0C0C0D"/>
<path d="M142.529 30.5557H138.713L133.541 14.6603H137.956L140.637 24.4688L143.444 14.6603H147.449L150.288 24.4688L152.968 14.6603H157.352L152.211 30.5557H148.364L145.462 20.6526L142.529 30.5557Z" fill="#0C0C0D"/>
<path d="M165.579 30.808C163.981 30.808 162.541 30.4611 161.258 29.7673C159.976 29.0524 158.977 28.0747 158.262 26.8342C157.547 25.5727 157.19 24.1639 157.19 22.608C157.19 21.0521 157.547 19.6539 158.262 18.4134C158.977 17.1519 159.976 16.1742 161.258 15.4803C162.541 14.7655 163.981 14.408 165.579 14.408C167.177 14.408 168.617 14.7655 169.9 15.4803C171.183 16.1742 172.181 17.1519 172.896 18.4134C173.611 19.6539 173.968 21.0521 173.968 22.608C173.968 24.1639 173.611 25.5727 172.896 26.8342C172.181 28.0747 171.183 29.0524 169.9 29.7673C168.617 30.4611 167.177 30.808 165.579 30.808ZM165.579 27.0234C166.757 27.0234 167.713 26.6134 168.449 25.7934C169.185 24.9734 169.553 23.9116 169.553 22.608C169.553 21.2834 169.185 20.2111 168.449 19.3911C167.713 18.5711 166.757 18.1611 165.579 18.1611C164.402 18.1611 163.445 18.5711 162.709 19.3911C161.973 20.2111 161.605 21.2834 161.605 22.608C161.605 23.9116 161.973 24.9734 162.709 25.7934C163.445 26.6134 164.402 27.0234 165.579 27.0234Z" fill="#0C0C0D"/>
<path d="M183.305 18.3188C182.254 18.3188 181.465 18.7183 180.939 19.5173C180.414 20.3162 180.151 21.4201 180.151 22.8288V30.5557H175.736V14.6603H180.151V17.3096C180.572 16.3424 181.087 15.6591 181.696 15.2596C182.327 14.8601 183.137 14.6603 184.125 14.6603H185.923V18.3188H183.305Z" fill="#0C0C0D"/>
<path d="M203.574 30.5557H198.276L193.766 23.838L192 25.5726V30.5557H187.584V7.75342H192V20.085L197.519 14.6603H203.07L196.731 20.905L203.574 30.5557Z" fill="#0C0C0D"/>
</svg>
