<svg width="204" height="35" viewBox="0 0 204 35" fill="none" xmlns="http://www.w3.org/2000/svg">
<g clip-path="url(#clip0_3438_33978)">
<path d="M23.0014 30.6668H38.2428C38.7269 30.6669 39.2025 30.5406 39.6217 30.3007C40.041 30.0608 40.3891 29.7157 40.631 29.3001C40.873 28.8845 41.0002 28.4132 41 27.9334C40.9998 27.4536 40.8721 26.9823 40.6298 26.5669L30.3941 8.99553C30.1522 8.58006 29.8041 8.23504 29.385 7.99516C28.9658 7.75528 28.4904 7.62899 28.0063 7.62899C27.5223 7.62899 27.0469 7.75528 26.6277 7.99516C26.2086 8.23504 25.8605 8.58006 25.6186 8.99553L23.0014 13.4914L17.8843 4.69984C17.6421 4.2844 17.2939 3.93943 16.8747 3.6996C16.4554 3.45976 15.9799 3.3335 15.4958 3.3335C15.0117 3.3335 14.5361 3.45976 14.1169 3.6996C13.6976 3.93943 13.3494 4.2844 13.1073 4.69984L0.370207 26.5669C0.127894 26.9823 0.000210893 27.4536 2.61023e-07 27.9334C-0.000210371 28.4132 0.127059 28.8845 0.369007 29.3001C0.610955 29.7157 0.959051 30.0608 1.37828 30.3007C1.79751 30.5406 2.2731 30.6669 2.7572 30.6668H12.3245C16.1152 30.6668 18.9107 29.0166 20.8342 25.797L25.5042 17.7812L28.0056 13.4914L35.5127 26.377H25.5042L23.0014 30.6668ZM12.1685 26.3726L5.49178 26.3711L15.5002 9.19133L20.4941 17.7812L17.1505 23.5226C15.8731 25.6115 14.4219 26.3726 12.1685 26.3726Z" fill="#00DC82"/>
<path d="M52.8602 30.5557H48.1294V8.4788H63.1732V12.5473H52.8602V17.4673H61.0602V21.5673H52.8602V30.5557Z" fill="#0C0C0D"/>
<path d="M71.5667 18.3188C70.5154 18.3188 69.7269 18.7183 69.2013 19.5173C68.6756 20.3162 68.4128 21.4201 68.4128 22.8288V30.5557H63.9974V14.6603H68.4128V17.3096C68.8333 16.3424 69.3485 15.6591 69.9582 15.2596C70.589 14.8601 71.3985 14.6603 72.3867 14.6603H74.1843V18.3188H71.5667Z" fill="#0C0C0D"/>
<path d="M81.7851 14.408C83.1097 14.408 84.2977 14.6603 85.349 15.165C86.4002 15.6485 87.2202 16.3424 87.809 17.2465C88.4187 18.1296 88.7236 19.1598 88.7236 20.3373V30.5557H84.3713V28.348C84.0979 29.0839 83.5513 29.6832 82.7313 30.1457C81.9323 30.5873 80.9861 30.808 79.8928 30.808C78.8836 30.808 77.9795 30.6083 77.1805 30.2088C76.4026 29.7883 75.7928 29.2206 75.3513 28.5057C74.9097 27.7698 74.689 26.9498 74.689 26.0457C74.689 24.4898 75.2146 23.2703 76.2659 22.3873C77.3382 21.4832 78.7469 21.0311 80.492 21.0311H83.1728C83.5513 21.0311 83.8456 20.926 84.0559 20.7157C84.2661 20.4844 84.3713 20.2006 84.3713 19.8642C84.3713 19.1914 84.119 18.6552 83.6143 18.2557C83.1097 17.8352 82.4159 17.625 81.5328 17.625C80.6287 17.625 79.9138 17.8668 79.3882 18.3503C78.8836 18.8339 78.6102 19.4332 78.5682 20.148H74.6574C74.7205 19.0757 75.0464 18.1085 75.6351 17.2465C76.2238 16.3634 77.0438 15.6696 78.0951 15.165C79.1464 14.6603 80.3764 14.408 81.7851 14.408ZM80.9967 27.6227C82.0479 27.6227 82.8679 27.2862 83.4567 26.6134C84.0664 25.9406 84.3713 25.0785 84.3713 24.0273V23.8065H81.1544C80.4815 23.8065 79.9349 23.9957 79.5143 24.3742C79.0938 24.7527 78.8836 25.2468 78.8836 25.8565C78.8836 26.3821 79.0833 26.8132 79.4828 27.1496C79.8823 27.465 80.3869 27.6227 80.9967 27.6227Z" fill="#0C0C0D"/>
<path d="M91.102 30.5557V14.6603H95.5174V16.8996C95.9589 16.1426 96.5582 15.5434 97.3151 15.1019C98.0931 14.6393 98.9972 14.408 100.027 14.408C102.487 14.408 104.106 15.3752 104.884 17.3096C105.284 16.4896 105.957 15.8062 106.903 15.2596C107.87 14.6919 108.963 14.408 110.183 14.408C111.318 14.408 112.317 14.6603 113.179 15.165C114.041 15.6696 114.703 16.3634 115.166 17.2465C115.649 18.1085 115.891 19.0757 115.891 20.148V30.5557H111.507V21.5357C111.507 20.5055 111.245 19.6855 110.719 19.0757C110.214 18.445 109.542 18.1296 108.7 18.1296C107.796 18.1296 107.071 18.445 106.524 19.0757C105.978 19.6855 105.704 20.5055 105.704 21.5357V30.5557H101.289V21.5357C101.289 20.5055 101.037 19.6855 100.532 19.0757C100.027 18.445 99.3546 18.1296 98.5136 18.1296C97.6095 18.1296 96.8841 18.445 96.3374 19.0757C95.7907 19.6855 95.5174 20.5055 95.5174 21.5357V30.5557H91.102Z" fill="#0C0C0D"/>
<path d="M133.385 25.1627C133.07 26.8657 132.219 28.2324 130.831 29.2627C129.443 30.2929 127.772 30.808 125.816 30.808C124.092 30.808 122.61 30.4191 121.369 29.6411C120.15 28.8421 119.225 27.8119 118.594 26.5503C117.963 25.2888 117.648 23.9642 117.648 22.5765C117.648 21.1678 117.932 19.8432 118.499 18.6027C119.088 17.3621 119.971 16.3529 121.149 15.575C122.347 14.797 123.798 14.408 125.501 14.408C127.267 14.408 128.739 14.7865 129.916 15.5434C131.094 16.3003 131.956 17.2675 132.502 18.445C133.07 19.6224 133.354 20.8629 133.354 22.1665C133.354 22.6501 133.333 23.1232 133.291 23.5857H121.874C122.042 24.7211 122.463 25.6147 123.135 26.2665C123.829 26.8973 124.723 27.2127 125.816 27.2127C126.699 27.2127 127.425 27.0444 127.992 26.708C128.56 26.3506 128.928 25.8355 129.096 25.1627H133.385ZM125.501 17.625C124.492 17.625 123.693 17.8878 123.104 18.4134C122.515 18.918 122.126 19.717 121.937 20.8103H128.97C128.907 19.8852 128.571 19.1283 127.961 18.5396C127.351 17.9298 126.531 17.625 125.501 17.625Z" fill="#0C0C0D"/>
<path d="M142.196 30.5557H138.379L133.207 14.6603H137.622L140.303 24.4688L143.11 14.6603H147.116L149.954 24.4688L152.635 14.6603H157.019L151.878 30.5557H148.03L145.129 20.6526L142.196 30.5557Z" fill="#0C0C0D"/>
<path d="M165.246 30.808C163.648 30.808 162.208 30.4611 160.925 29.7673C159.642 29.0524 158.644 28.0747 157.929 26.8342C157.214 25.5727 156.857 24.1639 156.857 22.608C156.857 21.0521 157.214 19.6539 157.929 18.4134C158.644 17.1519 159.642 16.1742 160.925 15.4803C162.208 14.7655 163.648 14.408 165.246 14.408C166.844 14.408 168.284 14.7655 169.567 15.4803C170.849 16.1742 171.848 17.1519 172.563 18.4134C173.278 19.6539 173.635 21.0521 173.635 22.608C173.635 24.1639 173.278 25.5727 172.563 26.8342C171.848 28.0747 170.849 29.0524 169.567 29.7673C168.284 30.4611 166.844 30.808 165.246 30.808ZM165.246 27.0234C166.423 27.0234 167.38 26.6134 168.116 25.7934C168.852 24.9734 169.22 23.9116 169.22 22.608C169.22 21.2834 168.852 20.2111 168.116 19.3911C167.38 18.5711 166.423 18.1611 165.246 18.1611C164.068 18.1611 163.112 18.5711 162.376 19.3911C161.64 20.2111 161.272 21.2834 161.272 22.608C161.272 23.9116 161.64 24.9734 162.376 25.7934C163.112 26.6134 164.068 27.0234 165.246 27.0234Z" fill="#0C0C0D"/>
<path d="M182.971 18.3188C181.92 18.3188 181.132 18.7183 180.606 19.5173C180.08 20.3162 179.817 21.4201 179.817 22.8288V30.5557H175.402V14.6603H179.817V17.3096C180.238 16.3424 180.753 15.6591 181.363 15.2596C181.994 14.8601 182.803 14.6603 183.791 14.6603H185.589V18.3188H182.971Z" fill="#0C0C0D"/>
<path d="M203.241 30.5557H197.943L193.432 23.838L191.666 25.5726V30.5557H187.251V7.75342H191.666V20.085L197.186 14.6603H202.736L196.397 20.905L203.241 30.5557Z" fill="#0C0C0D"/>
</g>
<defs>
<clipPath id="clip0_3438_33978">
<rect width="203.333" height="35" fill="white"/>
</clipPath>
</defs>
</svg>
