<svg width="48" height="48" viewBox="0 0 48 48" fill="none" xmlns="http://www.w3.org/2000/svg">
<path d="M42 18C42.5304 18 43.0391 17.7893 43.4142 17.4142C43.7893 17.0391 44 16.5304 44 16C44 15.4696 43.7893 14.9609 43.4142 14.5858C43.0391 14.2107 42.5304 14 42 14H40V10H42C42.5304 10 43.0391 9.78929 43.4142 9.41421C43.7893 9.03914 44 8.53043 44 8C44 7.46957 43.7893 6.96086 43.4142 6.58579C43.0391 6.21071 42.5304 6 42 6H6C5.46957 6 4.96086 6.21071 4.58579 6.58579C4.21071 6.96086 4 7.46957 4 8C4 8.53043 4.21071 9.03914 4.58579 9.41421C4.96086 9.78929 5.46957 10 6 10H12V14H6C5.46957 14 4.96086 14.2107 4.58579 14.5858C4.21071 14.9609 4 15.4696 4 16C4 16.5304 4.21071 17.0391 4.58579 17.4142C4.96086 17.7893 5.46957 18 6 18H8V22H6C5.46957 22 4.96086 22.2107 4.58579 22.5858C4.21071 22.9609 4 23.4696 4 24C4 24.5304 4.21071 25.0391 4.58579 25.4142C4.96086 25.7893 5.46957 26 6 26H12V30H6C5.46957 30 4.96086 30.2107 4.58579 30.5858C4.21071 30.9609 4 31.4696 4 32C4 32.5304 4.21071 33.0391 4.58579 33.4142C4.96086 33.7893 5.46957 34 6 34H8V38H6C5.46957 38 4.96086 38.2107 4.58579 38.5858C4.21071 38.9609 4 39.4696 4 40C4 40.5304 4.21071 41.0391 4.58579 41.4142C4.96086 41.7893 5.46957 42 6 42H42C42.5304 42 43.0391 41.7893 43.4142 41.4142C43.7893 41.0391 44 40.5304 44 40C44 39.4696 43.7893 38.9609 43.4142 38.5858C43.0391 38.2107 42.5304 38 42 38H36V34H42C42.5304 34 43.0391 33.7893 43.4142 33.4142C43.7893 33.0391 44 32.5304 44 32C44 31.4696 43.7893 30.9609 43.4142 30.5858C43.0391 30.2107 42.5304 30 42 30H40V26H42C42.5304 26 43.0391 25.7893 43.4142 25.4142C43.7893 25.0391 44 24.5304 44 24C44 23.4696 43.7893 22.9609 43.4142 22.5858C43.0391 22.2107 42.5304 22 42 22H36V18H42ZM16 10H24V14H16V10ZM32 18V22H24V18H32ZM12 18H20V22H12V18ZM24 26V30H16V26H24ZM20 38H12V34H20V38ZM32 38H24V34H32V38ZM36 30H28V26H36V30ZM28 14V10H36V14H28Z" fill="url(#paint0_linear_4272_47693)"/>
<defs>
<linearGradient id="paint0_linear_4272_47693" x1="24" y1="6" x2="24" y2="42" gradientUnits="userSpaceOnUse">
<stop stop-color="#D4D4D8"/>
<stop offset="1" stop-color="#ffffff"/>
</linearGradient>
</defs>
</svg>
