<svg width="48" height="60" viewBox="0 0 48 60" fill="none" xmlns="http://www.w3.org/2000/svg">
<path d="M48 20.82C47.9688 20.5444 47.9084 20.2729 47.82 20.01V19.74C47.6758 19.4315 47.4834 19.148 47.25 18.9L29.25 0.9C29.002 0.666649 28.7185 0.474243 28.41 0.33H28.14L27.18 0H9C6.61305 0 4.32387 0.948212 2.63604 2.63604C0.948212 4.32387 0 6.61305 0 9V51C0 53.3869 0.948212 55.6761 2.63604 57.364C4.32387 59.0518 6.61305 60 9 60H39C41.3869 60 43.6761 59.0518 45.364 57.364C47.0518 55.6761 48 53.3869 48 51V21C48 21 48 21 48 20.82ZM30 10.23L37.77 18H30V10.23ZM42 51C42 51.7957 41.6839 52.5587 41.1213 53.1213C40.5587 53.6839 39.7957 54 39 54H9C8.20435 54 7.44129 53.6839 6.87868 53.1213C6.31607 52.5587 6 51.7957 6 51V9C6 8.20435 6.31607 7.44129 6.87868 6.87868C7.44129 6.31607 8.20435 6 9 6H24V21C24 21.7956 24.3161 22.5587 24.8787 23.1213C25.4413 23.6839 26.2044 24 27 24H42V51Z" fill="currentColor"/>
</svg>
