<svg width="48" height="48" viewBox="0 0 48 48" fill="none" xmlns="http://www.w3.org/2000/svg">
<path d="M36 15.1199C35.8109 14.9308 35.5864 14.7808 35.3393 14.6785C35.0922 14.5761 34.8274 14.5234 34.56 14.5234C34.2925 14.5234 34.0277 14.5761 33.7806 14.6785C33.5336 14.7808 33.3091 14.9308 33.12 15.1199C32.9309 15.309 32.7809 15.5335 32.6785 15.7806C32.5762 16.0277 32.5235 16.2925 32.5235 16.5599C32.5235 16.8273 32.5762 17.0922 32.6785 17.3392C32.7809 17.5863 32.9309 17.8108 33.12 17.9999C34.9245 19.8038 36.1536 22.1024 36.6517 24.6048C37.1499 27.1073 36.8947 29.7013 35.9185 32.0588C34.9422 34.4162 33.2888 36.4312 31.1673 37.8489C29.0458 39.2666 26.5515 40.0233 24 40.0233C21.4484 40.0233 18.9541 39.2666 16.8326 37.8489C14.7111 36.4312 13.0577 34.4162 12.0815 32.0588C11.1052 29.7013 10.85 27.1073 11.3482 24.6048C11.8463 22.1024 13.0754 19.8038 14.88 17.9999C15.0691 17.8108 15.2191 17.5863 15.3214 17.3392C15.4238 17.0922 15.4764 16.8273 15.4764 16.5599C15.4764 16.2925 15.4238 16.0277 15.3214 15.7806C15.2191 15.5335 15.0691 15.309 14.88 15.1199C14.6909 14.9308 14.4664 14.7808 14.2193 14.6785C13.9722 14.5761 13.7074 14.5234 13.44 14.5234C13.1725 14.5234 12.9077 14.5761 12.6606 14.6785C12.4136 14.7808 12.1891 14.9308 12 15.1199C9.64379 17.4902 8.04237 20.5052 7.39771 23.7846C6.75305 27.064 7.09403 30.4609 8.37763 33.5467C9.66123 36.6325 11.83 39.2691 14.6102 41.1238C17.3905 42.9785 20.6578 43.9683 24 43.9683C27.3421 43.9683 30.6094 42.9785 33.3897 41.1238C36.17 39.2691 38.3387 36.6325 39.6223 33.5467C40.9059 30.4609 41.2469 27.064 40.6022 23.7846C39.9576 20.5052 38.3561 17.4902 36 15.1199Z" fill="#D4D4D8"/>
<path d="M22.0001 19.9998V13.0684C22.0001 12.2432 21 11.8326 20.4201 12.4198C20.0435 12.7964 19.5327 13.008 19.0001 13.008C18.4675 13.008 17.9567 12.7964 17.5801 12.4198C17.2035 12.0432 16.9919 11.5324 16.9919 10.9998C16.9919 10.4672 17.2035 9.9564 17.5801 9.57979L22.5801 4.57979C22.7703 4.39771 22.9946 4.25498 23.2401 4.15979C23.727 3.95976 24.2732 3.95976 24.7601 4.15979C25.0056 4.25498 25.2299 4.39771 25.4201 4.57979L30.4201 9.57979C30.6076 9.76572 30.7564 9.98692 30.8579 10.2306C30.9594 10.4744 31.0117 10.7358 31.0117 10.9998C31.0117 11.2638 30.9594 11.5252 30.8579 11.7689C30.7564 12.0127 30.6076 12.2339 30.4201 12.4198C30.2342 12.6073 30.013 12.756 29.7693 12.8576C29.5256 12.9591 29.2641 13.0114 29.0001 13.0114C28.7361 13.0114 28.4747 12.9591 28.231 12.8576C27.9873 12.756 27.7661 12.6073 27.5801 12.4198C27.0003 11.8326 26.0001 12.2432 26.0001 13.0684V19.9998C26.0001 20.5302 25.7894 21.0389 25.4143 21.414C25.0393 21.7891 24.5306 21.9998 24.0001 21.9998C23.4697 21.9998 22.961 21.7891 22.5859 21.414C22.2108 21.0389 22.0001 20.5302 22.0001 19.9998Z" fill="#A1A1AA"/>
</svg>
