<svg width="45" height="44" viewBox="0 0 45 44" fill="none" xmlns="http://www.w3.org/2000/svg">
<path d="M35.7126 20.1663H24.7126V9.16634C24.7126 8.68011 24.5195 8.2138 24.1757 7.86998C23.8319 7.52616 23.3655 7.33301 22.8793 7.33301C22.3931 7.33301 21.9268 7.52616 21.583 7.86998C21.2391 8.2138 21.046 8.68011 21.046 9.16634V20.1663H10.046C9.55975 20.1663 9.09343 20.3595 8.74962 20.7033C8.4058 21.0471 8.21265 21.5134 8.21265 21.9997C8.21265 22.4859 8.4058 22.9522 8.74962 23.296C9.09343 23.6399 9.55975 23.833 10.046 23.833H21.046V34.833C21.046 35.3192 21.2391 35.7856 21.583 36.1294C21.9268 36.4732 22.3931 36.6663 22.8793 36.6663C23.3655 36.6663 23.8319 36.4732 24.1757 36.1294C24.5195 35.7856 24.7126 35.3192 24.7126 34.833V23.833H35.7126C36.1989 23.833 36.6652 23.6399 37.009 23.296C37.3528 22.9522 37.546 22.4859 37.546 21.9997C37.546 21.5134 37.3528 21.0471 37.009 20.7033C36.6652 20.3595 36.1989 20.1663 35.7126 20.1663Z" fill="#ffffff"/>
</svg>
