<svg width="49" height="48" viewBox="0 0 49 48" fill="none" xmlns="http://www.w3.org/2000/svg">
<path d="M44.2493 23.2C40.2093 13.82 32.6093 8 24.4093 8C16.2093 8 8.60931 13.82 4.56931 23.2C4.45919 23.4523 4.40234 23.7247 4.40234 24C4.40234 24.2753 4.45919 24.5477 4.56931 24.8C8.60931 34.18 16.2093 40 24.4093 40C32.6093 40 40.2093 34.18 44.2493 24.8C44.3594 24.5477 44.4163 24.2753 44.4163 24C44.4163 23.7247 44.3594 23.4523 44.2493 23.2ZM24.4093 36C18.0693 36 12.0693 31.42 8.60931 24C12.0693 16.58 18.0693 12 24.4093 12C30.7493 12 36.7493 16.58 40.2093 24C36.7493 31.42 30.7493 36 24.4093 36Z" fill="#00DC82"/>
<path fill-rule="evenodd" clip-rule="evenodd" d="M24.4094 16C22.8272 16 21.2805 16.4692 19.9649 17.3482C18.6493 18.2273 17.6239 19.4767 17.0184 20.9385C16.4129 22.4003 16.2545 24.0089 16.5631 25.5607C16.8718 27.1126 17.6338 28.538 18.7526 29.6569C19.8714 30.7757 21.2969 31.5376 22.8487 31.8463C24.4006 32.155 26.0091 31.9965 27.4709 31.391C28.9327 30.7855 30.1821 29.7602 31.0612 28.4446C31.9402 27.129 32.4094 25.5823 32.4094 24C32.4094 21.8783 31.5666 19.8434 30.0663 18.3431C28.566 16.8429 26.5312 16 24.4094 16ZM22.1871 27.3259C22.8449 27.7654 23.6183 28 24.4094 28C25.4703 28 26.4877 27.5786 27.2379 26.8284C27.988 26.0783 28.4094 25.0609 28.4094 24C28.4094 23.2089 28.1748 22.4355 27.7353 21.7777C27.2958 21.1199 26.6711 20.6072 25.9402 20.3045C25.2093 20.0017 24.405 19.9225 23.6291 20.0769C22.8531 20.2312 22.1404 20.6122 21.581 21.1716C21.0216 21.731 20.6406 22.4437 20.4863 23.2196C20.3319 23.9956 20.4112 24.7998 20.7139 25.5307C21.0167 26.2616 21.5294 26.8864 22.1871 27.3259Z" fill="#007E4A"/>
</svg>
