<svg width="24" height="24" viewBox="0 0 24 24" fill="none" xmlns="http://www.w3.org/2000/svg">
<path d="M21.9201 11.6C19.9001 6.91 16.1001 4 12.0001 4C7.90007 4 4.10007 6.91 2.08007 11.6C2.025 11.7262 1.99658 11.8623 1.99658 12C1.99658 12.1377 2.025 12.2738 2.08007 12.4C4.10007 17.09 7.90007 20 12.0001 20C16.1001 20 19.9001 17.09 21.9201 12.4C21.9751 12.2738 22.0036 12.1377 22.0036 12C22.0036 11.8623 21.9751 11.7262 21.9201 11.6ZM12.0001 18C8.83007 18 5.83007 15.71 4.10007 12C5.83007 8.29 8.83007 6 12.0001 6C15.1701 6 18.1701 8.29 19.9001 12C18.1701 15.71 15.1701 18 12.0001 18Z" fill="#A1A1AA"/>
<path fill-rule="evenodd" clip-rule="evenodd" d="M12 8C11.2089 8 10.4355 8.2346 9.77772 8.67412C9.11993 9.11365 8.60723 9.73836 8.30448 10.4693C8.00173 11.2002 7.92252 12.0044 8.07686 12.7804C8.2312 13.5563 8.61216 14.269 9.17157 14.8284C9.73098 15.3878 10.4437 15.7688 11.2196 15.9231C11.9956 16.0775 12.7998 15.9983 13.5307 15.6955C14.2616 15.3928 14.8864 14.8801 15.3259 14.2223C15.7654 13.5645 16 12.7911 16 12C16 10.9391 15.5786 9.92172 14.8284 9.17157C14.0783 8.42143 13.0609 8 12 8ZM10.8889 13.6629C11.2178 13.8827 11.6044 14 12 14C12.5304 14 13.0391 13.7893 13.4142 13.4142C13.7893 13.0391 14 12.5304 14 12C14 11.6044 13.8827 11.2178 13.6629 10.8889C13.4432 10.56 13.1308 10.3036 12.7654 10.1522C12.3999 10.0009 11.9978 9.96126 11.6098 10.0384C11.2219 10.1156 10.8655 10.3061 10.5858 10.5858C10.3061 10.8655 10.1156 11.2219 10.0384 11.6098C9.96126 11.9978 10.0009 12.3999 10.1522 12.7654C10.3036 13.1308 10.56 13.4432 10.8889 13.6629Z" fill="#A1A1AA"/>
</svg>
