<svg width="595" height="539" viewBox="0 0 595 539" fill="none" xmlns="http://www.w3.org/2000/svg">
<path d="M173.269 416.995L201.752 399.996C204.293 398.518 207.432 398.509 209.986 399.972L240.144 416.995C240.144 416.995 240.144 416.995 240.145 416.995C242.682 418.45 244.259 421.139 244.287 424.06L244.119 456.334C244.123 456.744 244.097 457.15 244.041 457.549C243.751 459.627 242.674 461.52 241.031 462.83C240.751 463.053 240.455 463.26 240.143 463.447L211.23 480.851C210.985 480.998 210.734 481.131 210.479 481.251C208.234 482.304 205.623 482.289 203.382 481.198C203.216 481.117 203.052 481.031 202.89 480.938L173.411 464.051C173.41 464.05 173.41 464.05 173.409 464.049C170.803 462.555 169.216 459.763 169.268 456.763L169.188 423.949C169.238 421.076 170.785 418.439 173.269 416.995Z" fill="#ACFFDD"/>
<path d="M72.6978 163.759L108.125 142.617C111.286 140.778 115.19 140.767 118.366 142.586L155.876 163.759C159.033 165.568 160.994 168.913 161.029 172.547L160.82 212.688C160.825 213.149 160.798 213.606 160.742 214.056C160.411 216.697 159.06 219.108 156.979 220.769C156.631 221.046 156.263 221.303 155.875 221.536L119.913 243.182C119.644 243.344 119.37 243.492 119.091 243.627C116.275 244.989 112.977 244.989 110.153 243.614C109.946 243.514 109.741 243.406 109.54 243.29L72.8748 222.286C69.632 220.429 67.6571 216.955 67.7222 213.223L67.622 172.408C67.6843 168.835 69.6086 165.556 72.6978 163.759Z" fill="#D6FFEE"/>
<path d="M291.67 127.619L317.898 111.967C320.237 110.606 323.128 110.597 325.479 111.944L353.248 127.619C355.585 128.958 357.037 131.434 357.063 134.124L356.909 163.841C356.912 164.239 356.885 164.632 356.828 165.018C356.549 166.909 355.562 168.629 354.065 169.823C353.807 170.029 353.534 170.219 353.248 170.391L326.624 186.416C326.385 186.56 326.14 186.69 325.89 186.805C323.833 187.754 321.448 187.733 319.399 186.736C319.245 186.662 319.094 186.582 318.945 186.496L291.802 170.947C289.401 169.572 287.939 167 287.987 164.237L287.913 134.022C287.959 131.376 289.383 128.949 291.67 127.619Z" fill="#D9E5FF"/>
<path d="M194.327 241.129L253.271 205.952C258.529 202.893 265.025 202.874 270.31 205.901L332.717 241.129C337.97 244.138 341.234 249.703 341.292 255.749L340.945 322.537C340.953 323.392 340.897 324.239 340.78 325.072C340.175 329.364 337.948 333.273 334.553 335.98C333.974 336.442 333.361 336.869 332.717 337.257L272.883 373.272C272.387 373.57 271.879 373.842 271.362 374.085C266.71 376.279 261.292 376.253 256.644 373.991C256.3 373.824 255.959 373.644 255.624 373.452L194.621 338.506C194.62 338.505 194.618 338.504 194.617 338.503C189.224 335.412 185.94 329.633 186.048 323.426L185.882 255.519C185.985 249.574 189.187 244.119 194.327 241.129Z" fill="#407CFF"/>
<path d="M266.5 290.884H245.5C244.572 290.884 243.682 291.252 243.025 291.909C242.369 292.565 242 293.455 242 294.384C242 295.312 242.369 296.202 243.025 296.858C243.682 297.515 244.572 297.884 245.5 297.884H266.5C267.428 297.884 268.318 297.515 268.975 296.858C269.631 296.202 270 295.312 270 294.384C270 293.455 269.631 292.565 268.975 291.909C268.318 291.252 267.428 290.884 266.5 290.884ZM280.5 276.884H245.5C244.572 276.884 243.682 277.252 243.025 277.909C242.369 278.565 242 279.455 242 280.384C242 281.312 242.369 282.202 243.025 282.858C243.682 283.515 244.572 283.884 245.5 283.884H280.5C281.428 283.884 282.319 283.515 282.975 282.858C283.631 282.202 284 281.312 284 280.384C284 279.455 283.631 278.565 282.975 277.909C282.319 277.252 281.428 276.884 280.5 276.884ZM287.5 259.384H238.5C235.715 259.384 233.045 260.49 231.075 262.459C229.106 264.428 228 267.099 228 269.884V304.884C228 307.668 229.106 310.339 231.075 312.308C233.045 314.277 235.715 315.384 238.5 315.384H279.065L292.015 328.369C292.342 328.693 292.73 328.95 293.156 329.124C293.583 329.298 294.039 329.386 294.5 329.384C294.959 329.395 295.415 329.299 295.83 329.104C296.469 328.841 297.016 328.395 297.402 327.822C297.789 327.249 297.997 326.575 298 325.884V269.884C298 267.099 296.894 264.428 294.925 262.459C292.955 260.49 290.285 259.384 287.5 259.384ZM291 317.449L282.985 309.399C282.658 309.074 282.27 308.818 281.844 308.643C281.417 308.469 280.961 308.381 280.5 308.384H238.5C237.572 308.384 236.682 308.015 236.025 307.358C235.369 306.702 235 305.812 235 304.884V269.884C235 268.955 235.369 268.065 236.025 267.409C236.682 266.752 237.572 266.384 238.5 266.384H287.5C288.428 266.384 289.319 266.752 289.975 267.409C290.631 268.065 291 268.955 291 269.884V317.449Z" fill="white"/>
<path d="M516.93 515.574L422.884 461.266L417.705 458.276C412.318 455.165 409 449.417 409 443.196L409 437.198L409 215.448L409 209.492C409 203.309 412.278 197.59 417.614 194.466L422.738 191.465L516.788 136.387L521.867 133.413C527.188 130.297 533.761 130.227 539.148 133.231L544.288 136.097L643.754 191.566L649.068 194.529C654.582 197.604 658 203.424 658 209.737L658 215.84L658 436.808L658 442.952C658 449.303 654.542 455.15 648.977 458.21L643.61 461.161L544.14 515.859L539.055 518.655C533.716 521.59 527.232 521.522 521.957 518.476L516.93 515.574Z" fill="#D7FAF8"/>
<rect y="82" width="658" height="170" fill="url(#paint0_linear_4452_43084)"/>
<rect x="596" width="539" height="170" transform="rotate(90 596 0)" fill="url(#paint1_linear_4452_43084)"/>
<path d="M16.2014 302.476L35.6455 290.872C37.3801 289.863 39.5231 289.856 41.2664 290.855L61.8531 302.476C63.5858 303.468 64.6626 305.304 64.6818 307.299L64.5671 329.33C64.5672 329.338 64.5672 329.345 64.5673 329.352C64.5785 331.329 63.5479 333.166 61.853 334.186L42.1151 346.066C41.9756 346.15 41.8333 346.228 41.6887 346.299C40.1374 347.058 38.3167 347.062 36.7583 346.304C36.6447 346.249 36.5325 346.189 36.4219 346.126L16.2986 334.598C14.5188 333.578 13.4349 331.672 13.4706 329.623L13.4156 307.223C13.4498 305.262 14.5059 303.462 16.2014 302.476Z" fill="#AFF4F0"/>
<defs>
<linearGradient id="paint0_linear_4452_43084" x1="329" y1="82" x2="329" y2="252" gradientUnits="userSpaceOnUse">
<stop stop-color="white"/>
<stop offset="1" stop-color="white" stop-opacity="0"/>
</linearGradient>
<linearGradient id="paint1_linear_4452_43084" x1="865.5" y1="0" x2="865.5" y2="170" gradientUnits="userSpaceOnUse">
<stop stop-color="white"/>
<stop offset="1" stop-color="white" stop-opacity="0"/>
</linearGradient>
</defs>
</svg>
