<svg width="46" height="43" viewBox="0 0 46 43" fill="none" xmlns="http://www.w3.org/2000/svg">
<path opacity="0.5" d="M13.2079 0.375366C5.46535 6.57209 0 16.7278 0 27.9164C0 37.0393 4.85809 42.3754 10.4752 42.3754C15.7888 42.3754 19.736 37.5557 19.736 31.8754C19.736 26.195 16.2442 22.0639 11.6898 22.0639C10.7789 22.0639 9.56436 22.236 9.26073 22.4082C10.0198 16.5557 14.8779 9.67045 19.736 6.22783L13.2079 0.375366ZM39.3201 0.375366C31.7294 6.57209 26.264 16.7278 26.264 27.9164C26.264 37.0393 31.1221 42.3754 36.7393 42.3754C41.901 42.3754 46 37.5557 46 31.8754C46 26.195 42.3564 22.0639 37.802 22.0639C36.8911 22.0639 35.8284 22.236 35.5248 22.4082C36.2838 16.5557 40.9901 9.67045 45.8482 6.22783L39.3201 0.375366Z" fill="#E4E4E7"/>
</svg>
