<svg width="596" height="475" viewBox="0 0 596 475" fill="none" xmlns="http://www.w3.org/2000/svg">
<g clip-path="url(#clip0_4673_38308)">
<path d="M268.944 335.372L311.08 310.226C314.839 308.039 319.483 308.025 323.261 310.189L367.874 335.372C371.629 337.523 373.962 341.502 374.004 345.824L373.756 393.568C373.797 397.871 371.56 401.872 367.874 404.091L325.1 429.837C324.809 430.012 324.512 430.174 324.21 430.323C320.841 431.986 316.88 432 313.492 430.351C313.246 430.231 313.003 430.103 312.763 429.965L269.154 404.984C265.297 402.774 262.948 398.642 263.026 394.203L262.907 345.66C262.981 341.41 265.269 337.51 268.944 335.372Z" fill="#ACFFDD"/>
<path d="M72.6978 99.7592L108.125 78.6167C111.286 76.7783 115.19 76.7667 118.366 78.5863L155.876 99.7592C159.033 101.568 160.994 104.913 161.029 108.547L160.82 148.688C160.825 149.149 160.798 149.606 160.742 150.056C160.411 152.697 159.06 155.108 156.979 156.769C156.631 157.046 156.263 157.303 155.875 157.536L119.913 179.182C119.644 179.344 119.37 179.492 119.091 179.627C116.275 180.989 112.977 180.989 110.153 179.614C109.946 179.514 109.741 179.406 109.54 179.29L72.8748 158.286C69.632 156.429 67.6571 152.955 67.7222 149.223L67.622 108.408C67.6843 104.835 69.6086 101.556 72.6978 99.7592Z" fill="#D6FFEE"/>
<path d="M297.512 39.7506L335.26 17.2231C338.628 15.2643 342.788 15.252 346.172 17.1908L386.139 39.7507C389.502 41.6776 391.593 45.2419 391.63 49.1138L391.407 91.885C391.412 92.3517 391.386 92.8145 391.332 93.271C390.996 96.1131 389.551 98.7104 387.314 100.494C386.944 100.79 386.551 101.064 386.138 101.312L347.82 124.376C347.537 124.546 347.248 124.703 346.955 124.845C343.951 126.302 340.433 126.303 337.42 124.837C337.2 124.73 336.982 124.614 336.767 124.491L297.701 102.112C294.246 100.132 292.141 96.4307 292.211 92.4542L292.104 48.9664C292.17 45.1592 294.221 41.6653 297.512 39.7506Z" fill="#D9E5FF"/>
<path d="M181.274 156.981L239.183 122.422C244.349 119.417 250.731 119.398 255.923 122.372L317.234 156.981C322.395 159.937 325.602 165.405 325.659 171.345L325.317 236.959C325.325 237.766 325.274 238.565 325.168 239.352C324.595 243.607 322.399 247.486 319.038 250.167C318.469 250.62 317.867 251.04 317.234 251.421L258.451 286.803C257.969 287.093 257.477 287.356 256.976 287.593C252.401 289.757 247.07 289.735 242.497 287.51C242.159 287.345 241.824 287.169 241.495 286.98L181.564 252.648C176.263 249.611 173.035 243.933 173.141 237.832L172.978 171.119C173.079 165.278 176.225 159.918 181.274 156.981Z" fill="#00DC82"/>
<path d="M246.3 216.306C246.152 216.47 246.014 216.642 245.887 216.822C245.757 217.014 245.653 217.222 245.578 217.441C245.478 217.636 245.409 217.845 245.371 218.06C245.354 218.289 245.354 218.519 245.371 218.748C245.36 219.199 245.454 219.646 245.646 220.054C245.801 220.481 246.047 220.869 246.368 221.189C246.689 221.51 247.076 221.757 247.503 221.911C247.915 222.093 248.36 222.187 248.81 222.187C249.26 222.187 249.705 222.093 250.116 221.911C250.543 221.757 250.931 221.51 251.252 221.189C251.572 220.869 251.819 220.481 251.973 220.054C252.126 219.636 252.196 219.192 252.18 218.748C252.182 218.295 252.095 217.847 251.924 217.428C251.753 217.009 251.501 216.628 251.182 216.306C250.863 215.984 250.482 215.728 250.063 215.554C249.644 215.379 249.195 215.289 248.741 215.289C248.287 215.289 247.838 215.379 247.419 215.554C247 215.728 246.619 215.984 246.3 216.306ZM248.741 170.608C241.94 170.608 235.292 172.625 229.638 176.403C223.983 180.182 219.576 185.552 216.973 191.835C214.371 198.118 213.69 205.032 215.016 211.702C216.343 218.372 219.618 224.499 224.427 229.308C229.236 234.117 235.363 237.391 242.033 238.718C248.703 240.045 255.617 239.364 261.9 236.761C268.183 234.159 273.553 229.752 277.331 224.097C281.11 218.442 283.126 211.794 283.126 204.994C283.126 200.478 282.237 196.007 280.509 191.835C278.781 187.663 276.248 183.872 273.055 180.679C269.862 177.487 266.072 174.954 261.9 173.226C257.728 171.498 253.257 170.608 248.741 170.608V170.608ZM248.741 232.502C243.3 232.502 237.982 230.888 233.458 227.866C228.935 224.843 225.409 220.547 223.327 215.521C221.245 210.494 220.7 204.963 221.761 199.627C222.823 194.291 225.443 189.389 229.29 185.542C233.137 181.695 238.038 179.075 243.374 178.014C248.711 176.952 254.241 177.497 259.268 179.579C264.294 181.661 268.591 185.187 271.613 189.711C274.636 194.235 276.249 199.553 276.249 204.994C276.249 212.289 273.351 219.286 268.192 224.445C263.033 229.604 256.037 232.502 248.741 232.502V232.502ZM248.741 187.801C246.929 187.8 245.149 188.276 243.579 189.181C242.01 190.087 240.707 191.39 239.801 192.959C239.552 193.35 239.385 193.788 239.31 194.245C239.234 194.703 239.253 195.171 239.363 195.621C239.473 196.072 239.674 196.495 239.952 196.866C240.23 197.237 240.58 197.548 240.982 197.78C241.383 198.012 241.828 198.161 242.288 198.217C242.748 198.273 243.215 198.235 243.661 198.106C244.106 197.977 244.521 197.759 244.88 197.465C245.239 197.171 245.535 196.808 245.749 196.397C246.052 195.873 246.489 195.437 247.014 195.135C247.539 194.833 248.135 194.676 248.741 194.678C249.653 194.678 250.528 195.04 251.172 195.685C251.817 196.33 252.18 197.205 252.18 198.117C252.18 199.028 251.817 199.903 251.172 200.548C250.528 201.193 249.653 201.555 248.741 201.555C247.829 201.555 246.954 201.917 246.31 202.562C245.665 203.207 245.302 204.082 245.302 204.994V208.432C245.302 209.344 245.665 210.219 246.31 210.864C246.954 211.508 247.829 211.871 248.741 211.871C249.653 211.871 250.528 211.508 251.172 210.864C251.817 210.219 252.18 209.344 252.18 208.432V207.813C254.454 206.988 256.365 205.39 257.581 203.298C258.796 201.206 259.237 198.754 258.828 196.369C258.418 193.985 257.183 191.821 255.34 190.254C253.496 188.688 251.16 187.82 248.741 187.801V187.801Z" fill="white"/>
<path d="M516.93 451.574L422.884 397.266L417.705 394.276C412.318 391.165 409 385.417 409 379.196L409 373.198L409 151.448L409 145.492C409 139.309 412.278 133.59 417.614 130.466L422.738 127.465L516.788 72.3874L521.867 69.413C527.188 66.2966 533.761 66.2273 539.148 69.2309L544.288 72.0975L643.754 127.566L649.068 130.529C654.582 133.604 658 139.424 658 145.737L658 151.84L658 372.808L658 378.952C658 385.303 654.542 391.15 648.977 394.21L643.61 397.161L544.14 451.859L539.055 454.655C533.716 457.59 527.232 457.522 521.957 454.476L516.93 451.574Z" fill="#D7FAF8"/>
<path d="M151.201 331.476L170.646 319.872C172.38 318.863 174.523 318.856 176.266 319.855L196.853 331.476C198.586 332.468 199.663 334.304 199.682 336.299L199.567 358.33C199.567 358.338 199.567 358.345 199.567 358.352C199.579 360.329 198.548 362.166 196.853 363.186L177.115 375.066C176.976 375.15 176.833 375.228 176.689 375.299C175.137 376.058 173.317 376.062 171.758 375.304C171.645 375.249 171.533 375.189 171.422 375.126L151.299 363.598C149.519 362.578 148.435 360.672 148.471 358.623L148.416 336.223C148.45 334.262 149.506 332.462 151.201 331.476Z" fill="#AFF4F0"/>
</g>
<defs>
<clipPath id="clip0_4673_38308">
<rect width="596" height="475" fill="white"/>
</clipPath>
</defs>
</svg>
