<svg width="24" height="24" viewBox="0 0 24 24" fill="none" xmlns="http://www.w3.org/2000/svg">
<path d="M12.7812 19H20.5878C20.8357 19 21.0793 18.9354 21.294 18.8125C21.5088 18.6896 21.6871 18.5128 21.811 18.3C21.9349 18.0871 22.0001 17.8457 22 17.5999C21.9999 17.3542 21.9345 17.1128 21.8104 16.9001L16.5677 7.90007C16.4438 7.68727 16.2655 7.51055 16.0508 7.38768C15.8362 7.26482 15.5926 7.20013 15.3447 7.20013C15.0968 7.20013 14.8533 7.26482 14.6386 7.38768C14.4239 7.51055 14.2456 7.68727 14.1217 7.90007L12.7812 10.2028L10.1602 5.69983C10.0362 5.48705 9.85787 5.31036 9.64313 5.18751C9.42838 5.06467 9.1848 5 8.93686 5C8.68891 5 8.44533 5.06467 8.23059 5.18751C8.01585 5.31036 7.83751 5.48705 7.71349 5.69983L1.18962 16.9001C1.06551 17.1128 1.00011 17.3542 1 17.5999C0.999892 17.8457 1.06508 18.0871 1.189 18.3C1.31293 18.5128 1.49122 18.6896 1.70595 18.8125C1.92068 18.9354 2.16427 19 2.41223 19H7.31255C9.25411 19 10.6859 18.1547 11.6712 16.5057L14.0631 12.4001L15.3443 10.2028L19.1894 16.8028H14.0631L12.7812 19ZM7.23266 16.8005L3.81286 16.7998L8.93914 8.00035L11.497 12.4001L9.78439 15.3407C9.1301 16.4107 8.3868 16.8005 7.23266 16.8005Z" fill="#0A0A0B"/>
</svg>
