<svg width="24" height="24" viewBox="0 0 24 24" fill="none" xmlns="http://www.w3.org/2000/svg">
<path d="M14.77 5.87C14.9996 6.00037 15.2715 6.03464 15.5263 5.96532C15.7811 5.896 15.9981 5.72873 16.13 5.5C16.2392 5.30736 16.4092 5.15639 16.6134 5.07078C16.8176 4.98517 17.0444 4.96975 17.2583 5.02694C17.4723 5.08414 17.6611 5.21071 17.7954 5.38681C17.9296 5.56291 18.0016 5.77858 18 6C18 6.26522 17.8947 6.51957 17.7071 6.70711C17.5196 6.89464 17.2652 7 17 7C16.7348 7 16.4804 7.10536 16.2929 7.29289C16.1054 7.48043 16 7.73478 16 8C16 8.26522 16.1054 8.51957 16.2929 8.70711C16.4804 8.89464 16.7348 9 17 9C17.5265 8.99966 18.0437 8.86075 18.4995 8.59723C18.9554 8.33371 19.3338 7.95486 19.5969 7.49875C19.8599 7.04264 19.9983 6.52533 19.9981 5.9988C19.9979 5.47227 19.8591 4.95507 19.5957 4.49917C19.3323 4.04326 18.9535 3.66472 18.4975 3.40156C18.0414 3.13841 17.5241 2.99992 16.9976 3C16.4711 3.00008 15.9539 3.13874 15.4979 3.40204C15.0419 3.66534 14.6633 4.04401 14.4 4.5C14.3339 4.61413 14.291 4.74022 14.2738 4.871C14.2566 5.00178 14.2655 5.13466 14.2999 5.262C14.3343 5.38934 14.3935 5.50862 14.4742 5.61297C14.5549 5.71732 14.6554 5.80467 14.77 5.87ZM19.07 13C18.8075 12.9659 18.5422 13.0373 18.3323 13.1985C18.1223 13.3597 17.9849 13.5976 17.95 13.86C17.7402 15.5552 16.9177 17.1151 15.6376 18.246C14.3575 19.3769 12.7081 20.0007 11 20H5.41002L6.06002 19.35C6.24627 19.1626 6.35081 18.9092 6.35081 18.645C6.35081 18.3808 6.24627 18.1274 6.06002 17.94C5.08497 16.9611 4.4214 15.7156 4.15291 14.3603C3.88442 13.005 4.02301 11.6005 4.55122 10.3238C5.07943 9.04714 5.97364 7.95532 7.12121 7.18589C8.26878 6.41646 9.61838 6.00384 11 6C11.2652 6 11.5196 5.89464 11.7071 5.70711C11.8947 5.51957 12 5.26522 12 5C12 4.73478 11.8947 4.48043 11.7071 4.29289C11.5196 4.10536 11.2652 4 11 4C9.30925 4.00705 7.65466 4.49024 6.22581 5.39419C4.79697 6.29815 3.65165 7.58632 2.92108 9.11112C2.19051 10.6359 1.90424 12.3357 2.09506 14.0157C2.28588 15.6956 2.94608 17.2879 4.00002 18.61L2.29002 20.29C2.15126 20.4306 2.05726 20.6092 2.01989 20.8032C1.98252 20.9972 2.00344 21.1979 2.08002 21.38C2.15504 21.5626 2.28244 21.7189 2.44616 21.8293C2.60988 21.9396 2.80259 21.999 3.00002 22H11C13.1915 22.0003 15.3077 21.201 16.9518 19.7521C18.5959 18.3031 19.6549 16.3041 19.93 14.13C19.9483 13.9993 19.9405 13.8662 19.9071 13.7385C19.8737 13.6107 19.8154 13.4909 19.7354 13.3858C19.6555 13.2808 19.5555 13.1926 19.4413 13.1264C19.3271 13.0602 19.2009 13.0172 19.07 13ZM17.38 10.07C17.198 9.98945 16.996 9.96508 16.8 10L16.62 10.06L16.44 10.15L16.29 10.28C16.2001 10.3721 16.1288 10.4808 16.08 10.6C16.0209 10.7247 15.9934 10.8621 16 11C15.9971 11.1334 16.0209 11.266 16.07 11.39C16.1217 11.51 16.1965 11.6187 16.29 11.71C16.3835 11.8027 16.4943 11.876 16.6161 11.9258C16.7379 11.9755 16.8684 12.0008 17 12C17.2652 12 17.5196 11.8946 17.7071 11.7071C17.8947 11.5196 18 11.2652 18 11C18.0034 10.8688 17.976 10.7387 17.92 10.62C17.8126 10.3797 17.6203 10.1875 17.38 10.08V10.07Z" fill="#27272A"/>
</svg>
