<svg width="111" height="263" viewBox="0 0 111 263" fill="none" xmlns="http://www.w3.org/2000/svg">
<g clip-path="url(#clip0_5435_58769)">
<path d="M-22.4238 235.153L15.3457 256.876M-22.4238 235.153C-25.874 233.169 -27.9999 229.498 -27.9999 225.526M-22.4238 235.153V235.153C-25.8669 233.173 -27.9999 229.498 -27.9999 225.526V225.526M15.3457 256.876C18.7181 258.816 22.8609 258.859 26.2732 256.99M15.3457 256.876V256.876C18.7192 258.816 22.8599 258.859 26.2732 256.99V256.99M26.2732 256.99L66.2211 235.111M66.2211 235.111C69.7851 233.159 72.0001 229.425 72.0001 225.37M66.2211 235.111V235.111C69.7776 233.163 72.0001 229.425 72.0001 225.37V225.37M72.0001 225.37L72.0001 136.982M72.0001 136.982C72.0001 132.95 69.8107 129.235 66.279 127.273M72.0001 136.982V136.982C72.0001 132.951 69.8033 129.231 66.279 127.273V127.273M66.279 127.273L26.3326 105.086M26.3326 105.086C22.8897 103.173 18.6902 103.217 15.2884 105.202M26.3326 105.086V105.086C22.8887 103.173 18.6913 103.217 15.2884 105.202V105.202M15.2884 105.202L-22.4826 127.233M-22.4826 127.233C-25.8996 129.226 -27.9999 132.878 -27.9999 136.826M-22.4826 127.233V127.233C-25.8926 129.222 -27.9999 132.878 -27.9999 136.826V136.826M-27.9999 136.826L-27.9999 225.526" stroke="#1A62FF" stroke-width="7.08"/>
<path d="M79.5972 49.7574L61.5542 60.9091C59.9806 61.8576 59.0124 63.5555 59.0003 65.3877L59.0002 86.3063M79.5972 49.7574C81.2071 48.787 83.2085 48.7464 84.8469 49.651M79.5972 49.7574C81.1991 48.7918 83.2092 48.7468 84.8469 49.651M59.0002 86.3063C58.9876 88.2199 60.2976 89.9845 61.9702 90.9079M59.0002 86.3063C58.9877 88.2102 60.2983 89.9849 61.9702 90.9079M61.9702 90.9079L80.8819 101.349M80.8819 101.349C82.5448 102.267 84.5795 102.211 86.1987 101.201M80.8819 101.349C82.5441 102.267 84.5876 102.206 86.1987 101.201M86.1987 101.201L104.513 89.7869M104.513 89.7869C106.092 88.8031 107.037 87.062 106.999 85.2079M104.513 89.7869C106.093 88.8024 107.037 87.0634 106.999 85.2079M106.999 85.2079L106.883 64.6299M106.883 64.6299C106.845 62.7675 105.821 61.0702 104.192 60.1712M106.883 64.6299C106.845 62.7766 105.82 61.0699 104.192 60.1712M104.192 60.1712L84.8469 49.651" stroke="#8DB0FF" stroke-width="6.17"/>
<path d="M-30.7113 25.2468L-7.1608 10.6951C-5.04877 9.42733 -2.41758 9.38334 -0.259333 10.5797L25.2236 24.4777C27.3665 25.6655 28.7206 27.8975 28.7819 30.3423C28.7819 30.3447 28.782 30.3472 28.7821 30.3496L29.0315 57.4101C29.0901 59.8468 27.8555 62.1305 25.7848 63.416L1.75946 78.331C-0.364613 79.6496 -3.03946 79.7143 -5.23001 78.5001L-30.1428 64.6907C-32.3462 63.4693 -33.7109 61.1474 -33.7033 58.6327L-34.048 31.1203C-34.0407 28.7127 -32.7757 26.486 -30.7113 25.2468Z" fill="#D9E5FF"/>
</g>
<defs>
<clipPath id="clip0_5435_58769">
<rect width="111" height="263" fill="white"/>
</clipPath>
</defs>
</svg>
