<svg width="96" height="96" viewBox="0 0 96 96" fill="none" xmlns="http://www.w3.org/2000/svg">
<path d="M84 8H36C33.7921 7.99876 32.0012 9.78756 32 11.9954C32 11.997 32 11.9985 32 12V28H64C66.2079 27.9988 67.9988 29.7876 68 31.9954C68 31.997 68 31.9985 68 32V64H84C86.2079 64.0012 87.9988 62.2124 88 60.0046C88 60.003 88 60.0015 88 60V12C88.0012 9.79212 86.2124 8.00124 84.0046 8C84.003 8 84.0015 8 84 8Z" fill="#009D5D"/>
<path d="M12 48H44C46.2092 48 48 49.7908 48 52V84C48 86.2091 46.2092 88 44 88H12C9.79088 88 8 86.2091 8 84V52C8 49.7908 9.79088 48 12 48Z" fill="#ACFFDD"/>
<path d="M64 28H24C21.7921 27.9988 20.0012 29.7876 20 31.9954C20 31.997 20 31.9985 20 32V48H44C46.2079 47.9988 47.9988 49.7876 48 51.9954C48 51.997 48 51.9985 48 52V76H64C66.2079 76.0012 67.9988 74.2124 68 72.0046C68 72.003 68 72.0015 68 72V32C68.0012 29.7921 66.2124 28.0012 64.0046 28C64.003 28 64.0015 28 64 28Z" fill="#00DC82"/>
</svg>
