<svg width="86" height="76" viewBox="0 0 86 76" fill="none" xmlns="http://www.w3.org/2000/svg">
<g filter="url(#filter0_b_4004_45454)">
<path d="M1.39697 32.9426L17.9523 4.23781C19.4646 1.61567 22.2619 0 25.2895 0H60.4749C60.4782 0 60.4815 1.92662e-06 60.4848 5.77906e-06C62.7379 0.00263186 64.8637 0.900131 66.4261 2.44239C66.9476 2.95723 67.4064 3.54393 67.7861 4.19316L84.5762 32.8991C86.0884 35.4844 86.122 38.6761 84.6646 41.2927L67.7553 71.652C67.3105 72.4505 66.7474 73.1587 66.0949 73.7597C65.1024 74.6738 63.9029 75.3398 62.598 75.6981C61.877 75.896 61.1238 76 60.3556 76H25.4083C24.5987 76 23.8059 75.8845 23.05 75.6653C21.6414 75.257 20.3607 74.4886 19.3372 73.4369C18.813 72.8982 18.3562 72.2851 17.9843 71.6079L1.31013 41.2475C0.855513 40.4198 0.549359 39.5354 0.391279 38.6316C0.177916 37.4118 0.234304 36.1564 0.55949 34.9569C0.748195 34.2607 1.02742 33.5834 1.39697 32.9426Z" fill="#FAFAFA"/>
<path d="M1.83009 33.1924L18.3854 4.48762C19.8084 2.02032 22.4406 0.5 25.2895 0.5H60.4749L60.4842 0.500005C62.6043 0.502476 64.6046 1.34693 66.0748 2.79822C66.5655 3.2826 66.9971 3.8346 67.3545 4.4456L84.1446 33.1515C85.5675 35.5842 85.5991 38.5873 84.2278 41.0494L67.3185 71.4087C66.8999 72.1601 66.3701 72.8265 65.7562 73.3919C64.8222 74.2521 63.6935 74.8788 62.4656 75.2159C61.7873 75.4021 61.0786 75.5 60.3556 75.5H25.4083C24.6463 75.5 23.9004 75.3913 23.1892 75.1851C21.8638 74.8008 20.6586 74.0778 19.6955 73.0882C19.2023 72.5814 18.7725 72.0045 18.4225 71.3672L1.74838 41.0068C1.32057 40.2279 1.03253 39.3958 0.883802 38.5455C0.683033 37.3976 0.736104 36.2164 1.04207 35.0877C1.21961 34.4328 1.48231 33.7955 1.83009 33.1924Z" stroke="#E4E4E7"/>
</g>
<defs>
<filter id="filter0_b_4004_45454" x="-41.7354" y="-42" width="169.47" height="160" filterUnits="userSpaceOnUse" color-interpolation-filters="sRGB">
<feFlood flood-opacity="0" result="BackgroundImageFix"/>
<feGaussianBlur in="BackgroundImage" stdDeviation="21"/>
<feComposite in2="SourceAlpha" operator="in" result="effect1_backgroundBlur_4004_45454"/>
<feBlend mode="normal" in="SourceGraphic" in2="effect1_backgroundBlur_4004_45454" result="shape"/>
</filter>
</defs>
</svg>
