<svg width="64" height="64" viewBox="0 0 64 64" fill="none" xmlns="http://www.w3.org/2000/svg">
<path d="M52.9867 22.9331C52.788 22.4764 52.4653 22.0844 52.0553 21.8016C51.6453 21.5188 51.1642 21.3565 50.6667 21.3331H38.4533L41.84 8.69311C41.9479 8.29757 41.9631 7.8825 41.8844 7.48013C41.8058 7.07776 41.6355 6.69894 41.3867 6.37311C41.1382 6.0504 40.8192 5.78888 40.454 5.6086C40.0889 5.42833 39.6872 5.33409 39.28 5.33311H20.6133C20.0113 5.31248 19.42 5.49631 18.9358 5.85463C18.4516 6.21296 18.1029 6.72468 17.9467 7.30644L10.8 33.9731C10.6921 34.3686 10.6769 34.7837 10.7556 35.1861C10.8342 35.5885 11.0045 35.9673 11.2533 36.2931C11.5045 36.6194 11.8278 36.8831 12.1979 37.0635C12.568 37.244 12.9749 37.3362 13.3867 37.3331H23.7067L18.88 55.3064C18.7219 55.886 18.7641 56.502 18.9997 57.0546C19.2354 57.6072 19.6508 58.064 20.1786 58.351C20.7063 58.6381 21.3155 58.7385 21.9075 58.636C22.4994 58.5335 23.0394 58.2342 23.44 57.7864L52.5067 25.7864C52.8528 25.4075 53.0822 24.9367 53.1673 24.4305C53.2524 23.9244 53.1897 23.4045 52.9867 22.9331ZM26.88 46.0798L29.7333 35.4131C29.8412 35.0176 29.8564 34.6025 29.7778 34.2001C29.6992 33.7978 29.5288 33.4189 29.28 33.0931C29.0316 32.7704 28.7125 32.5089 28.3474 32.3286C27.9822 32.1483 27.5806 32.0541 27.1733 32.0531H16.9333L22.64 10.6664H35.7867L32.4 23.3064C32.2913 23.7093 32.2786 24.132 32.3629 24.5406C32.4473 24.9492 32.6264 25.3323 32.8858 25.6591C33.1451 25.9859 33.4776 26.2473 33.8564 26.4223C34.2351 26.5972 34.6497 26.6809 35.0667 26.6664H44.5867L26.88 46.0798Z" fill="#27272A"/>
</svg>
